M48
; DRILL file {KiCad (5.1.6)-1} date 12/26/20 20:27:25
; FORMAT={-:-/ absolute / metric / decimal}
; #@! TF.CreationDate,2020-12-26T20:27:25+01:00
; #@! TF.GenerationSoftware,Kicad,Pcbnew,(5.1.6)-1
; #@! TF.FileFunction,Plated,1,4,PTH
FMAT,2
METRIC
T1C0.450
%
G90
G05
T1
X103.0Y-56.1
X103.0Y-58.25
X105.5Y-69.0
X107.1Y-54.1
X107.25Y-58.25
X107.5Y-56.775
X110.105Y-73.645
X111.05Y-64.3
X111.85Y-71.65
X113.0Y-65.75
X113.645Y-73.645
X114.25Y-72.75
X114.75Y-65.75
X115.75Y-72.75
X116.5Y-65.5
X116.5Y-69.75
X117.25Y-72.75
X117.75Y-70.75
X118.25Y-60.5
X118.25Y-72.75
X118.75Y-70.75
X119.25Y-72.75
X119.5Y-58.75
X119.5Y-62.25
X120.25Y-51.75
X120.5Y-57.25
X121.25Y-70.75
X121.75Y-54.25
X121.75Y-65.75
X121.75Y-72.75
X122.25Y-70.75
X122.375Y-59.625
X122.375Y-61.375
X122.6Y-72.75
X123.5Y-65.75
X123.875Y-63.875
X123.875Y-50.125
X125.0Y-53.5
X125.0Y-55.75
X125.45Y-51.45
X125.45Y-62.55
X125.5Y-65.25
X125.5Y-69.75
X126.15Y-59.1
X126.25Y-57.25
X126.75Y-73.0
X126.875Y-63.875
X127.25Y-50.125
X127.25Y-65.75
X127.8Y-72.95
X128.8Y-72.95
X129.4Y-56.9
X129.45Y-54.7
X129.875Y-66.875
X131.25Y-71.5
X131.25Y-75.75
X132.125Y-50.125
X132.125Y-63.875
X133.145Y-73.645
X133.75Y-51.5
X133.75Y-62.5
X135.375Y-50.125
X135.375Y-63.875
T0
M30
