%TF.GenerationSoftware,KiCad,Pcbnew,(5.1.6)-1*%
%TF.CreationDate,2020-12-26T20:27:22+01:00*%
%TF.ProjectId,ScreenBoard,53637265-656e-4426-9f61-72642e6b6963,rev?*%
%TF.SameCoordinates,Original*%
%TF.FileFunction,Legend,Top*%
%TF.FilePolarity,Positive*%
%FSLAX46Y46*%
G04 Gerber Fmt 4.6, Leading zero omitted, Abs format (unit mm)*
G04 Created by KiCad (PCBNEW (5.1.6)-1) date 2020-12-26 20:27:22*
%MOMM*%
%LPD*%
G01*
G04 APERTURE LIST*
%ADD10C,0.120000*%
%ADD11C,0.200000*%
%ADD12C,0.100000*%
%ADD13C,0.150000*%
%ADD14C,0.254000*%
G04 APERTURE END LIST*
D10*
%TO.C,J2*%
X101190000Y-53040000D02*
X105310000Y-53040000D01*
X101190000Y-63160000D02*
X105310000Y-63160000D01*
X99935000Y-53340000D02*
X101190000Y-53340000D01*
X101190000Y-53040000D02*
X101190000Y-53340000D01*
X105310000Y-53040000D02*
X105310000Y-53340000D01*
X101190000Y-62860000D02*
X101190000Y-63160000D01*
X105310000Y-62860000D02*
X105310000Y-63160000D01*
X101190000Y-54860000D02*
X101190000Y-55340000D01*
X105310000Y-54860000D02*
X105310000Y-55340000D01*
X101190000Y-56860000D02*
X101190000Y-57340000D01*
X105310000Y-56860000D02*
X105310000Y-57340000D01*
X101190000Y-58860000D02*
X101190000Y-59340000D01*
X105310000Y-58860000D02*
X105310000Y-59340000D01*
X101190000Y-60860000D02*
X101190000Y-61340000D01*
X105310000Y-60860000D02*
X105310000Y-61340000D01*
D11*
%TO.C,IC1*%
X117925000Y-59050000D02*
X118575000Y-59050000D01*
X118575000Y-59050000D02*
X118575000Y-61950000D01*
X118575000Y-61950000D02*
X117925000Y-61950000D01*
X117925000Y-61950000D02*
X117925000Y-59050000D01*
X116425000Y-59000000D02*
X117575000Y-59000000D01*
D10*
%TO.C,C7*%
X110828733Y-58990000D02*
X111171267Y-58990000D01*
X110828733Y-60010000D02*
X111171267Y-60010000D01*
D12*
%TO.C,J1*%
X123900000Y-50200000D02*
X123900000Y-63800000D01*
X123900000Y-63800000D02*
X123900000Y-63800000D01*
X123900000Y-63800000D02*
X123900000Y-50200000D01*
X123900000Y-50200000D02*
X123900000Y-50200000D01*
X127050000Y-63800000D02*
X127050000Y-63800000D01*
X127050000Y-63800000D02*
X132050000Y-63800000D01*
X132050000Y-63800000D02*
X132050000Y-63800000D01*
X132050000Y-63800000D02*
X127050000Y-63800000D01*
X135300000Y-63800000D02*
X135300000Y-63800000D01*
X135300000Y-63800000D02*
X137600000Y-63800000D01*
X137600000Y-63800000D02*
X137600000Y-63800000D01*
X137600000Y-63800000D02*
X135300000Y-63800000D01*
X137600000Y-63800000D02*
X137600000Y-50200000D01*
X137600000Y-50200000D02*
X137600000Y-50200000D01*
X137600000Y-50200000D02*
X137600000Y-63800000D01*
X137600000Y-63800000D02*
X137600000Y-63800000D01*
X137600000Y-50200000D02*
X137600000Y-50200000D01*
X137600000Y-50200000D02*
X135300000Y-50200000D01*
X135300000Y-50200000D02*
X135300000Y-50200000D01*
X135300000Y-50200000D02*
X137600000Y-50200000D01*
X132050000Y-50200000D02*
X132050000Y-50200000D01*
X132050000Y-50200000D02*
X127050000Y-50200000D01*
X127050000Y-50200000D02*
X127050000Y-50200000D01*
X127050000Y-50200000D02*
X132050000Y-50200000D01*
D11*
X128050000Y-64300000D02*
X128050000Y-64300000D01*
X128050000Y-64400000D02*
X128050000Y-64400000D01*
X128050000Y-64300000D02*
X128050000Y-64300000D01*
X128050000Y-64400000D02*
G75*
G02*
X128050000Y-64300000I0J50000D01*
G01*
X128050000Y-64300000D02*
G75*
G02*
X128050000Y-64400000I0J-50000D01*
G01*
X128050000Y-64400000D02*
G75*
G02*
X128050000Y-64300000I0J50000D01*
G01*
D10*
%TO.C,R4*%
X122990000Y-67578733D02*
X122990000Y-67921267D01*
X124010000Y-67578733D02*
X124010000Y-67921267D01*
%TO.C,R3*%
X114010000Y-60671267D02*
X114010000Y-60328733D01*
X112990000Y-60671267D02*
X112990000Y-60328733D01*
%TO.C,R2*%
X110828733Y-62010000D02*
X111171267Y-62010000D01*
X110828733Y-60990000D02*
X111171267Y-60990000D01*
%TO.C,R1*%
X119010000Y-67921267D02*
X119010000Y-67578733D01*
X117990000Y-67921267D02*
X117990000Y-67578733D01*
%TO.C,L1*%
X118015000Y-51890000D02*
X117015000Y-51890000D01*
X118015000Y-56910000D02*
X117015000Y-56910000D01*
%TO.C,D3*%
X109850000Y-58350000D02*
X109850000Y-51050000D01*
X114150000Y-58350000D02*
X114150000Y-51050000D01*
X109850000Y-58350000D02*
X114150000Y-58350000D01*
%TO.C,D2*%
X121150000Y-68250000D02*
X121150000Y-66400000D01*
X122350000Y-68250000D02*
X122350000Y-66400000D01*
X122350000Y-66400000D02*
X121150000Y-66400000D01*
%TO.C,D1*%
X120850000Y-66800000D02*
X120850000Y-68650000D01*
X119650000Y-66800000D02*
X119650000Y-68650000D01*
X119650000Y-68650000D02*
X120850000Y-68650000D01*
%TO.C,C11*%
X121240000Y-56078733D02*
X121240000Y-56421267D01*
X122260000Y-56078733D02*
X122260000Y-56421267D01*
%TO.C,C10*%
X129260000Y-67921267D02*
X129260000Y-67578733D01*
X128240000Y-67921267D02*
X128240000Y-67578733D01*
%TO.C,C9*%
X126740000Y-67578733D02*
X126740000Y-67921267D01*
X127760000Y-67578733D02*
X127760000Y-67921267D01*
%TO.C,C8*%
X126210000Y-67761252D02*
X126210000Y-67238748D01*
X124790000Y-67761252D02*
X124790000Y-67238748D01*
%TO.C,C6*%
X115760000Y-60671267D02*
X115760000Y-60328733D01*
X114740000Y-60671267D02*
X114740000Y-60328733D01*
D11*
%TO.C,K1*%
X111750000Y-75750000D02*
X110750000Y-75750000D01*
X110750000Y-75750000D02*
X110750000Y-76750000D01*
X110750000Y-76750000D02*
X132350000Y-76750000D01*
X132350000Y-76750000D02*
X132350000Y-75750000D01*
X132350000Y-75750000D02*
X131350000Y-75750000D01*
D10*
%TO.C,C5*%
X115790000Y-67886252D02*
X115790000Y-67363748D01*
X117210000Y-67886252D02*
X117210000Y-67363748D01*
%TO.C,C4*%
X114240000Y-68021267D02*
X114240000Y-67678733D01*
X115260000Y-68021267D02*
X115260000Y-67678733D01*
%TO.C,C3*%
X110140000Y-67689564D02*
X110140000Y-66485436D01*
X111960000Y-67689564D02*
X111960000Y-66485436D01*
%TO.C,C2*%
X113510000Y-67678733D02*
X113510000Y-68021267D01*
X112490000Y-67678733D02*
X112490000Y-68021267D01*
%TO.C,C1*%
X120740000Y-60671267D02*
X120740000Y-60328733D01*
X121760000Y-60671267D02*
X121760000Y-60328733D01*
%TO.C,J2*%
D13*
X102916666Y-51492380D02*
X102916666Y-52206666D01*
X102869047Y-52349523D01*
X102773809Y-52444761D01*
X102630952Y-52492380D01*
X102535714Y-52492380D01*
X103345238Y-51587619D02*
X103392857Y-51540000D01*
X103488095Y-51492380D01*
X103726190Y-51492380D01*
X103821428Y-51540000D01*
X103869047Y-51587619D01*
X103916666Y-51682857D01*
X103916666Y-51778095D01*
X103869047Y-51920952D01*
X103297619Y-52492380D01*
X103916666Y-52492380D01*
%TO.C,IC1*%
D14*
X117010238Y-63574523D02*
X117010238Y-62304523D01*
X118340714Y-63453571D02*
X118280238Y-63514047D01*
X118098809Y-63574523D01*
X117977857Y-63574523D01*
X117796428Y-63514047D01*
X117675476Y-63393095D01*
X117615000Y-63272142D01*
X117554523Y-63030238D01*
X117554523Y-62848809D01*
X117615000Y-62606904D01*
X117675476Y-62485952D01*
X117796428Y-62365000D01*
X117977857Y-62304523D01*
X118098809Y-62304523D01*
X118280238Y-62365000D01*
X118340714Y-62425476D01*
X119550238Y-63574523D02*
X118824523Y-63574523D01*
X119187380Y-63574523D02*
X119187380Y-62304523D01*
X119066428Y-62485952D01*
X118945476Y-62606904D01*
X118824523Y-62667380D01*
%TO.C,C7*%
D13*
X113333333Y-59857142D02*
X113285714Y-59904761D01*
X113142857Y-59952380D01*
X113047619Y-59952380D01*
X112904761Y-59904761D01*
X112809523Y-59809523D01*
X112761904Y-59714285D01*
X112714285Y-59523809D01*
X112714285Y-59380952D01*
X112761904Y-59190476D01*
X112809523Y-59095238D01*
X112904761Y-59000000D01*
X113047619Y-58952380D01*
X113142857Y-58952380D01*
X113285714Y-59000000D01*
X113333333Y-59047619D01*
X113666666Y-58952380D02*
X114333333Y-58952380D01*
X113904761Y-59952380D01*
%TO.C,J1*%
D14*
X135826666Y-66054523D02*
X135826666Y-66961666D01*
X135766190Y-67143095D01*
X135645238Y-67264047D01*
X135463809Y-67324523D01*
X135342857Y-67324523D01*
X137096666Y-67324523D02*
X136370952Y-67324523D01*
X136733809Y-67324523D02*
X136733809Y-66054523D01*
X136612857Y-66235952D01*
X136491904Y-66356904D01*
X136370952Y-66417380D01*
%TO.C,R4*%
D13*
X123952380Y-70416666D02*
X123476190Y-70750000D01*
X123952380Y-70988095D02*
X122952380Y-70988095D01*
X122952380Y-70607142D01*
X123000000Y-70511904D01*
X123047619Y-70464285D01*
X123142857Y-70416666D01*
X123285714Y-70416666D01*
X123380952Y-70464285D01*
X123428571Y-70511904D01*
X123476190Y-70607142D01*
X123476190Y-70988095D01*
X123285714Y-69559523D02*
X123952380Y-69559523D01*
X122904761Y-69797619D02*
X123619047Y-70035714D01*
X123619047Y-69416666D01*
%TO.C,R3*%
X113952380Y-63166666D02*
X113476190Y-63500000D01*
X113952380Y-63738095D02*
X112952380Y-63738095D01*
X112952380Y-63357142D01*
X113000000Y-63261904D01*
X113047619Y-63214285D01*
X113142857Y-63166666D01*
X113285714Y-63166666D01*
X113380952Y-63214285D01*
X113428571Y-63261904D01*
X113476190Y-63357142D01*
X113476190Y-63738095D01*
X112952380Y-62833333D02*
X112952380Y-62214285D01*
X113333333Y-62547619D01*
X113333333Y-62404761D01*
X113380952Y-62309523D01*
X113428571Y-62261904D01*
X113523809Y-62214285D01*
X113761904Y-62214285D01*
X113857142Y-62261904D01*
X113904761Y-62309523D01*
X113952380Y-62404761D01*
X113952380Y-62690476D01*
X113904761Y-62785714D01*
X113857142Y-62833333D01*
%TO.C,R2*%
X113333333Y-61952380D02*
X113000000Y-61476190D01*
X112761904Y-61952380D02*
X112761904Y-60952380D01*
X113142857Y-60952380D01*
X113238095Y-61000000D01*
X113285714Y-61047619D01*
X113333333Y-61142857D01*
X113333333Y-61285714D01*
X113285714Y-61380952D01*
X113238095Y-61428571D01*
X113142857Y-61476190D01*
X112761904Y-61476190D01*
X113714285Y-61047619D02*
X113761904Y-61000000D01*
X113857142Y-60952380D01*
X114095238Y-60952380D01*
X114190476Y-61000000D01*
X114238095Y-61047619D01*
X114285714Y-61142857D01*
X114285714Y-61238095D01*
X114238095Y-61380952D01*
X113666666Y-61952380D01*
X114285714Y-61952380D01*
%TO.C,R1*%
X118952380Y-65166666D02*
X118476190Y-65500000D01*
X118952380Y-65738095D02*
X117952380Y-65738095D01*
X117952380Y-65357142D01*
X118000000Y-65261904D01*
X118047619Y-65214285D01*
X118142857Y-65166666D01*
X118285714Y-65166666D01*
X118380952Y-65214285D01*
X118428571Y-65261904D01*
X118476190Y-65357142D01*
X118476190Y-65738095D01*
X118952380Y-64214285D02*
X118952380Y-64785714D01*
X118952380Y-64500000D02*
X117952380Y-64500000D01*
X118095238Y-64595238D01*
X118190476Y-64690476D01*
X118238095Y-64785714D01*
%TO.C,L1*%
X117348333Y-51202380D02*
X116872142Y-51202380D01*
X116872142Y-50202380D01*
X118205476Y-51202380D02*
X117634047Y-51202380D01*
X117919761Y-51202380D02*
X117919761Y-50202380D01*
X117824523Y-50345238D01*
X117729285Y-50440476D01*
X117634047Y-50488095D01*
%TO.C,D3*%
X109452380Y-54488095D02*
X108452380Y-54488095D01*
X108452380Y-54250000D01*
X108500000Y-54107142D01*
X108595238Y-54011904D01*
X108690476Y-53964285D01*
X108880952Y-53916666D01*
X109023809Y-53916666D01*
X109214285Y-53964285D01*
X109309523Y-54011904D01*
X109404761Y-54107142D01*
X109452380Y-54250000D01*
X109452380Y-54488095D01*
X108452380Y-53583333D02*
X108452380Y-52964285D01*
X108833333Y-53297619D01*
X108833333Y-53154761D01*
X108880952Y-53059523D01*
X108928571Y-53011904D01*
X109023809Y-52964285D01*
X109261904Y-52964285D01*
X109357142Y-53011904D01*
X109404761Y-53059523D01*
X109452380Y-53154761D01*
X109452380Y-53440476D01*
X109404761Y-53535714D01*
X109357142Y-53583333D01*
%TO.C,D2*%
X122202380Y-65988095D02*
X121202380Y-65988095D01*
X121202380Y-65750000D01*
X121250000Y-65607142D01*
X121345238Y-65511904D01*
X121440476Y-65464285D01*
X121630952Y-65416666D01*
X121773809Y-65416666D01*
X121964285Y-65464285D01*
X122059523Y-65511904D01*
X122154761Y-65607142D01*
X122202380Y-65750000D01*
X122202380Y-65988095D01*
X121297619Y-65035714D02*
X121250000Y-64988095D01*
X121202380Y-64892857D01*
X121202380Y-64654761D01*
X121250000Y-64559523D01*
X121297619Y-64511904D01*
X121392857Y-64464285D01*
X121488095Y-64464285D01*
X121630952Y-64511904D01*
X122202380Y-65083333D01*
X122202380Y-64464285D01*
%TO.C,D1*%
X120702380Y-65988095D02*
X119702380Y-65988095D01*
X119702380Y-65750000D01*
X119750000Y-65607142D01*
X119845238Y-65511904D01*
X119940476Y-65464285D01*
X120130952Y-65416666D01*
X120273809Y-65416666D01*
X120464285Y-65464285D01*
X120559523Y-65511904D01*
X120654761Y-65607142D01*
X120702380Y-65750000D01*
X120702380Y-65988095D01*
X120702380Y-64464285D02*
X120702380Y-65035714D01*
X120702380Y-64750000D02*
X119702380Y-64750000D01*
X119845238Y-64845238D01*
X119940476Y-64940476D01*
X119988095Y-65035714D01*
%TO.C,C11*%
X122107142Y-53642857D02*
X122154761Y-53690476D01*
X122202380Y-53833333D01*
X122202380Y-53928571D01*
X122154761Y-54071428D01*
X122059523Y-54166666D01*
X121964285Y-54214285D01*
X121773809Y-54261904D01*
X121630952Y-54261904D01*
X121440476Y-54214285D01*
X121345238Y-54166666D01*
X121250000Y-54071428D01*
X121202380Y-53928571D01*
X121202380Y-53833333D01*
X121250000Y-53690476D01*
X121297619Y-53642857D01*
X122202380Y-52690476D02*
X122202380Y-53261904D01*
X122202380Y-52976190D02*
X121202380Y-52976190D01*
X121345238Y-53071428D01*
X121440476Y-53166666D01*
X121488095Y-53261904D01*
X122202380Y-51738095D02*
X122202380Y-52309523D01*
X122202380Y-52023809D02*
X121202380Y-52023809D01*
X121345238Y-52119047D01*
X121440476Y-52214285D01*
X121488095Y-52309523D01*
%TO.C,C10*%
X130607142Y-68392857D02*
X130654761Y-68440476D01*
X130702380Y-68583333D01*
X130702380Y-68678571D01*
X130654761Y-68821428D01*
X130559523Y-68916666D01*
X130464285Y-68964285D01*
X130273809Y-69011904D01*
X130130952Y-69011904D01*
X129940476Y-68964285D01*
X129845238Y-68916666D01*
X129750000Y-68821428D01*
X129702380Y-68678571D01*
X129702380Y-68583333D01*
X129750000Y-68440476D01*
X129797619Y-68392857D01*
X130702380Y-67440476D02*
X130702380Y-68011904D01*
X130702380Y-67726190D02*
X129702380Y-67726190D01*
X129845238Y-67821428D01*
X129940476Y-67916666D01*
X129988095Y-68011904D01*
X129702380Y-66821428D02*
X129702380Y-66726190D01*
X129750000Y-66630952D01*
X129797619Y-66583333D01*
X129892857Y-66535714D01*
X130083333Y-66488095D01*
X130321428Y-66488095D01*
X130511904Y-66535714D01*
X130607142Y-66583333D01*
X130654761Y-66630952D01*
X130702380Y-66726190D01*
X130702380Y-66821428D01*
X130654761Y-66916666D01*
X130607142Y-66964285D01*
X130511904Y-67011904D01*
X130321428Y-67059523D01*
X130083333Y-67059523D01*
X129892857Y-67011904D01*
X129797619Y-66964285D01*
X129750000Y-66916666D01*
X129702380Y-66821428D01*
%TO.C,C9*%
X127607142Y-70416666D02*
X127654761Y-70464285D01*
X127702380Y-70607142D01*
X127702380Y-70702380D01*
X127654761Y-70845238D01*
X127559523Y-70940476D01*
X127464285Y-70988095D01*
X127273809Y-71035714D01*
X127130952Y-71035714D01*
X126940476Y-70988095D01*
X126845238Y-70940476D01*
X126750000Y-70845238D01*
X126702380Y-70702380D01*
X126702380Y-70607142D01*
X126750000Y-70464285D01*
X126797619Y-70416666D01*
X127702380Y-69940476D02*
X127702380Y-69750000D01*
X127654761Y-69654761D01*
X127607142Y-69607142D01*
X127464285Y-69511904D01*
X127273809Y-69464285D01*
X126892857Y-69464285D01*
X126797619Y-69511904D01*
X126750000Y-69559523D01*
X126702380Y-69654761D01*
X126702380Y-69845238D01*
X126750000Y-69940476D01*
X126797619Y-69988095D01*
X126892857Y-70035714D01*
X127130952Y-70035714D01*
X127226190Y-69988095D01*
X127273809Y-69940476D01*
X127321428Y-69845238D01*
X127321428Y-69654761D01*
X127273809Y-69559523D01*
X127226190Y-69511904D01*
X127130952Y-69464285D01*
%TO.C,C8*%
X125857142Y-70416666D02*
X125904761Y-70464285D01*
X125952380Y-70607142D01*
X125952380Y-70702380D01*
X125904761Y-70845238D01*
X125809523Y-70940476D01*
X125714285Y-70988095D01*
X125523809Y-71035714D01*
X125380952Y-71035714D01*
X125190476Y-70988095D01*
X125095238Y-70940476D01*
X125000000Y-70845238D01*
X124952380Y-70702380D01*
X124952380Y-70607142D01*
X125000000Y-70464285D01*
X125047619Y-70416666D01*
X125380952Y-69845238D02*
X125333333Y-69940476D01*
X125285714Y-69988095D01*
X125190476Y-70035714D01*
X125142857Y-70035714D01*
X125047619Y-69988095D01*
X125000000Y-69940476D01*
X124952380Y-69845238D01*
X124952380Y-69654761D01*
X125000000Y-69559523D01*
X125047619Y-69511904D01*
X125142857Y-69464285D01*
X125190476Y-69464285D01*
X125285714Y-69511904D01*
X125333333Y-69559523D01*
X125380952Y-69654761D01*
X125380952Y-69845238D01*
X125428571Y-69940476D01*
X125476190Y-69988095D01*
X125571428Y-70035714D01*
X125761904Y-70035714D01*
X125857142Y-69988095D01*
X125904761Y-69940476D01*
X125952380Y-69845238D01*
X125952380Y-69654761D01*
X125904761Y-69559523D01*
X125857142Y-69511904D01*
X125761904Y-69464285D01*
X125571428Y-69464285D01*
X125476190Y-69511904D01*
X125428571Y-69559523D01*
X125380952Y-69654761D01*
%TO.C,C6*%
X115607142Y-63166666D02*
X115654761Y-63214285D01*
X115702380Y-63357142D01*
X115702380Y-63452380D01*
X115654761Y-63595238D01*
X115559523Y-63690476D01*
X115464285Y-63738095D01*
X115273809Y-63785714D01*
X115130952Y-63785714D01*
X114940476Y-63738095D01*
X114845238Y-63690476D01*
X114750000Y-63595238D01*
X114702380Y-63452380D01*
X114702380Y-63357142D01*
X114750000Y-63214285D01*
X114797619Y-63166666D01*
X114702380Y-62309523D02*
X114702380Y-62500000D01*
X114750000Y-62595238D01*
X114797619Y-62642857D01*
X114940476Y-62738095D01*
X115130952Y-62785714D01*
X115511904Y-62785714D01*
X115607142Y-62738095D01*
X115654761Y-62690476D01*
X115702380Y-62595238D01*
X115702380Y-62404761D01*
X115654761Y-62309523D01*
X115607142Y-62261904D01*
X115511904Y-62214285D01*
X115273809Y-62214285D01*
X115178571Y-62261904D01*
X115130952Y-62309523D01*
X115083333Y-62404761D01*
X115083333Y-62595238D01*
X115130952Y-62690476D01*
X115178571Y-62738095D01*
X115273809Y-62785714D01*
%TO.C,K1*%
D14*
X120562619Y-70324523D02*
X120562619Y-69054523D01*
X121288333Y-70324523D02*
X120744047Y-69598809D01*
X121288333Y-69054523D02*
X120562619Y-69780238D01*
X122497857Y-70324523D02*
X121772142Y-70324523D01*
X122135000Y-70324523D02*
X122135000Y-69054523D01*
X122014047Y-69235952D01*
X121893095Y-69356904D01*
X121772142Y-69417380D01*
%TO.C,C5*%
D13*
X116857142Y-64916666D02*
X116904761Y-64964285D01*
X116952380Y-65107142D01*
X116952380Y-65202380D01*
X116904761Y-65345238D01*
X116809523Y-65440476D01*
X116714285Y-65488095D01*
X116523809Y-65535714D01*
X116380952Y-65535714D01*
X116190476Y-65488095D01*
X116095238Y-65440476D01*
X116000000Y-65345238D01*
X115952380Y-65202380D01*
X115952380Y-65107142D01*
X116000000Y-64964285D01*
X116047619Y-64916666D01*
X115952380Y-64011904D02*
X115952380Y-64488095D01*
X116428571Y-64535714D01*
X116380952Y-64488095D01*
X116333333Y-64392857D01*
X116333333Y-64154761D01*
X116380952Y-64059523D01*
X116428571Y-64011904D01*
X116523809Y-63964285D01*
X116761904Y-63964285D01*
X116857142Y-64011904D01*
X116904761Y-64059523D01*
X116952380Y-64154761D01*
X116952380Y-64392857D01*
X116904761Y-64488095D01*
X116857142Y-64535714D01*
%TO.C,C4*%
X115107142Y-64916666D02*
X115154761Y-64964285D01*
X115202380Y-65107142D01*
X115202380Y-65202380D01*
X115154761Y-65345238D01*
X115059523Y-65440476D01*
X114964285Y-65488095D01*
X114773809Y-65535714D01*
X114630952Y-65535714D01*
X114440476Y-65488095D01*
X114345238Y-65440476D01*
X114250000Y-65345238D01*
X114202380Y-65202380D01*
X114202380Y-65107142D01*
X114250000Y-64964285D01*
X114297619Y-64916666D01*
X114535714Y-64059523D02*
X115202380Y-64059523D01*
X114154761Y-64297619D02*
X114869047Y-64535714D01*
X114869047Y-63916666D01*
%TO.C,C3*%
X111607142Y-70666666D02*
X111654761Y-70714285D01*
X111702380Y-70857142D01*
X111702380Y-70952380D01*
X111654761Y-71095238D01*
X111559523Y-71190476D01*
X111464285Y-71238095D01*
X111273809Y-71285714D01*
X111130952Y-71285714D01*
X110940476Y-71238095D01*
X110845238Y-71190476D01*
X110750000Y-71095238D01*
X110702380Y-70952380D01*
X110702380Y-70857142D01*
X110750000Y-70714285D01*
X110797619Y-70666666D01*
X110702380Y-70333333D02*
X110702380Y-69714285D01*
X111083333Y-70047619D01*
X111083333Y-69904761D01*
X111130952Y-69809523D01*
X111178571Y-69761904D01*
X111273809Y-69714285D01*
X111511904Y-69714285D01*
X111607142Y-69761904D01*
X111654761Y-69809523D01*
X111702380Y-69904761D01*
X111702380Y-70190476D01*
X111654761Y-70285714D01*
X111607142Y-70333333D01*
%TO.C,C2*%
X113357142Y-64916666D02*
X113404761Y-64964285D01*
X113452380Y-65107142D01*
X113452380Y-65202380D01*
X113404761Y-65345238D01*
X113309523Y-65440476D01*
X113214285Y-65488095D01*
X113023809Y-65535714D01*
X112880952Y-65535714D01*
X112690476Y-65488095D01*
X112595238Y-65440476D01*
X112500000Y-65345238D01*
X112452380Y-65202380D01*
X112452380Y-65107142D01*
X112500000Y-64964285D01*
X112547619Y-64916666D01*
X112547619Y-64535714D02*
X112500000Y-64488095D01*
X112452380Y-64392857D01*
X112452380Y-64154761D01*
X112500000Y-64059523D01*
X112547619Y-64011904D01*
X112642857Y-63964285D01*
X112738095Y-63964285D01*
X112880952Y-64011904D01*
X113452380Y-64583333D01*
X113452380Y-63964285D01*
%TO.C,C1*%
X121607142Y-63166666D02*
X121654761Y-63214285D01*
X121702380Y-63357142D01*
X121702380Y-63452380D01*
X121654761Y-63595238D01*
X121559523Y-63690476D01*
X121464285Y-63738095D01*
X121273809Y-63785714D01*
X121130952Y-63785714D01*
X120940476Y-63738095D01*
X120845238Y-63690476D01*
X120750000Y-63595238D01*
X120702380Y-63452380D01*
X120702380Y-63357142D01*
X120750000Y-63214285D01*
X120797619Y-63166666D01*
X121702380Y-62214285D02*
X121702380Y-62785714D01*
X121702380Y-62500000D02*
X120702380Y-62500000D01*
X120845238Y-62595238D01*
X120940476Y-62690476D01*
X120988095Y-62785714D01*
%TD*%
M02*
