%TF.GenerationSoftware,KiCad,Pcbnew,(5.1.6)-1*%
%TF.CreationDate,2020-12-26T20:27:22+01:00*%
%TF.ProjectId,ScreenBoard,53637265-656e-4426-9f61-72642e6b6963,rev?*%
%TF.SameCoordinates,Original*%
%TF.FileFunction,Soldermask,Top*%
%TF.FilePolarity,Negative*%
%FSLAX46Y46*%
G04 Gerber Fmt 4.6, Leading zero omitted, Abs format (unit mm)*
G04 Created by KiCad (PCBNEW (5.1.6)-1) date 2020-12-26 20:27:22*
%MOMM*%
%LPD*%
G01*
G04 APERTURE LIST*
%ADD10R,2.680000X1.100000*%
%ADD11R,1.250000X0.700000*%
%ADD12R,2.100000X1.550000*%
%ADD13R,1.600000X0.900000*%
%ADD14C,0.100000*%
%ADD15R,2.400000X3.600000*%
%ADD16R,0.800000X0.700000*%
%ADD17R,2.500000X3.150000*%
%ADD18R,0.400000X0.900000*%
G04 APERTURE END LIST*
D10*
%TO.C,J2*%
X105335000Y-62100000D03*
X101165000Y-62100000D03*
X105335000Y-60100000D03*
X101165000Y-60100000D03*
X105335000Y-58100000D03*
X101165000Y-58100000D03*
X105335000Y-56100000D03*
X101165000Y-56100000D03*
X105335000Y-54100000D03*
X101165000Y-54100000D03*
%TD*%
D11*
%TO.C,IC1*%
X119500000Y-59550000D03*
X119500000Y-61450000D03*
X117000000Y-61450000D03*
X117000000Y-60500000D03*
X117000000Y-59550000D03*
%TD*%
%TO.C,C7*%
G36*
G01*
X111300000Y-59762500D02*
X111300000Y-59237500D01*
G75*
G02*
X111562500Y-58975000I262500J0D01*
G01*
X112187500Y-58975000D01*
G75*
G02*
X112450000Y-59237500I0J-262500D01*
G01*
X112450000Y-59762500D01*
G75*
G02*
X112187500Y-60025000I-262500J0D01*
G01*
X111562500Y-60025000D01*
G75*
G02*
X111300000Y-59762500I0J262500D01*
G01*
G37*
G36*
G01*
X109550000Y-59762500D02*
X109550000Y-59237500D01*
G75*
G02*
X109812500Y-58975000I262500J0D01*
G01*
X110437500Y-58975000D01*
G75*
G02*
X110700000Y-59237500I0J-262500D01*
G01*
X110700000Y-59762500D01*
G75*
G02*
X110437500Y-60025000I-262500J0D01*
G01*
X109812500Y-60025000D01*
G75*
G02*
X109550000Y-59762500I0J262500D01*
G01*
G37*
%TD*%
D12*
%TO.C,J1*%
X133750000Y-50125000D03*
X133750000Y-63875000D03*
X125450000Y-50125000D03*
X125450000Y-63875000D03*
D13*
X128050000Y-52500000D03*
X128050000Y-53600000D03*
X128050000Y-54700000D03*
X128050000Y-55800000D03*
X128050000Y-56900000D03*
X128050000Y-58000000D03*
X128050000Y-59100000D03*
X128050000Y-60200000D03*
%TD*%
%TO.C,R4*%
G36*
G01*
X123237500Y-68050000D02*
X123762500Y-68050000D01*
G75*
G02*
X124025000Y-68312500I0J-262500D01*
G01*
X124025000Y-68937500D01*
G75*
G02*
X123762500Y-69200000I-262500J0D01*
G01*
X123237500Y-69200000D01*
G75*
G02*
X122975000Y-68937500I0J262500D01*
G01*
X122975000Y-68312500D01*
G75*
G02*
X123237500Y-68050000I262500J0D01*
G01*
G37*
G36*
G01*
X123237500Y-66300000D02*
X123762500Y-66300000D01*
G75*
G02*
X124025000Y-66562500I0J-262500D01*
G01*
X124025000Y-67187500D01*
G75*
G02*
X123762500Y-67450000I-262500J0D01*
G01*
X123237500Y-67450000D01*
G75*
G02*
X122975000Y-67187500I0J262500D01*
G01*
X122975000Y-66562500D01*
G75*
G02*
X123237500Y-66300000I262500J0D01*
G01*
G37*
%TD*%
%TO.C,R3*%
G36*
G01*
X113762500Y-60200000D02*
X113237500Y-60200000D01*
G75*
G02*
X112975000Y-59937500I0J262500D01*
G01*
X112975000Y-59312500D01*
G75*
G02*
X113237500Y-59050000I262500J0D01*
G01*
X113762500Y-59050000D01*
G75*
G02*
X114025000Y-59312500I0J-262500D01*
G01*
X114025000Y-59937500D01*
G75*
G02*
X113762500Y-60200000I-262500J0D01*
G01*
G37*
G36*
G01*
X113762500Y-61950000D02*
X113237500Y-61950000D01*
G75*
G02*
X112975000Y-61687500I0J262500D01*
G01*
X112975000Y-61062500D01*
G75*
G02*
X113237500Y-60800000I262500J0D01*
G01*
X113762500Y-60800000D01*
G75*
G02*
X114025000Y-61062500I0J-262500D01*
G01*
X114025000Y-61687500D01*
G75*
G02*
X113762500Y-61950000I-262500J0D01*
G01*
G37*
%TD*%
%TO.C,R2*%
G36*
G01*
X111300000Y-61762500D02*
X111300000Y-61237500D01*
G75*
G02*
X111562500Y-60975000I262500J0D01*
G01*
X112187500Y-60975000D01*
G75*
G02*
X112450000Y-61237500I0J-262500D01*
G01*
X112450000Y-61762500D01*
G75*
G02*
X112187500Y-62025000I-262500J0D01*
G01*
X111562500Y-62025000D01*
G75*
G02*
X111300000Y-61762500I0J262500D01*
G01*
G37*
G36*
G01*
X109550000Y-61762500D02*
X109550000Y-61237500D01*
G75*
G02*
X109812500Y-60975000I262500J0D01*
G01*
X110437500Y-60975000D01*
G75*
G02*
X110700000Y-61237500I0J-262500D01*
G01*
X110700000Y-61762500D01*
G75*
G02*
X110437500Y-62025000I-262500J0D01*
G01*
X109812500Y-62025000D01*
G75*
G02*
X109550000Y-61762500I0J262500D01*
G01*
G37*
%TD*%
%TO.C,R1*%
G36*
G01*
X118762500Y-67450000D02*
X118237500Y-67450000D01*
G75*
G02*
X117975000Y-67187500I0J262500D01*
G01*
X117975000Y-66562500D01*
G75*
G02*
X118237500Y-66300000I262500J0D01*
G01*
X118762500Y-66300000D01*
G75*
G02*
X119025000Y-66562500I0J-262500D01*
G01*
X119025000Y-67187500D01*
G75*
G02*
X118762500Y-67450000I-262500J0D01*
G01*
G37*
G36*
G01*
X118762500Y-69200000D02*
X118237500Y-69200000D01*
G75*
G02*
X117975000Y-68937500I0J262500D01*
G01*
X117975000Y-68312500D01*
G75*
G02*
X118237500Y-68050000I262500J0D01*
G01*
X118762500Y-68050000D01*
G75*
G02*
X119025000Y-68312500I0J-262500D01*
G01*
X119025000Y-68937500D01*
G75*
G02*
X118762500Y-69200000I-262500J0D01*
G01*
G37*
%TD*%
D14*
%TO.C,L1*%
G36*
X115805245Y-57204039D02*
G01*
X115795866Y-57201194D01*
X115787221Y-57196573D01*
X115779645Y-57190355D01*
X114724645Y-56135355D01*
X114718427Y-56127779D01*
X114713806Y-56119134D01*
X114710961Y-56109755D01*
X114710000Y-56100000D01*
X114710000Y-52700000D01*
X114710961Y-52690245D01*
X114713806Y-52680866D01*
X114718427Y-52672221D01*
X114724645Y-52664645D01*
X115779645Y-51609645D01*
X115787221Y-51603427D01*
X115795866Y-51598806D01*
X115805245Y-51595961D01*
X115815000Y-51595000D01*
X116755000Y-51595000D01*
X116764755Y-51595961D01*
X116774134Y-51598806D01*
X116782779Y-51603427D01*
X116790355Y-51609645D01*
X116796573Y-51617221D01*
X116801194Y-51625866D01*
X116804039Y-51635245D01*
X116805000Y-51645000D01*
X116805000Y-52700000D01*
X116804039Y-52709755D01*
X116801194Y-52719134D01*
X116796573Y-52727779D01*
X116788654Y-52736978D01*
X115865000Y-53577601D01*
X115865000Y-55222399D01*
X116788654Y-56063022D01*
X116795222Y-56070298D01*
X116800243Y-56078715D01*
X116803526Y-56087951D01*
X116805000Y-56100000D01*
X116805000Y-57155000D01*
X116804039Y-57164755D01*
X116801194Y-57174134D01*
X116796573Y-57182779D01*
X116790355Y-57190355D01*
X116782779Y-57196573D01*
X116774134Y-57201194D01*
X116764755Y-57204039D01*
X116755000Y-57205000D01*
X115815000Y-57205000D01*
X115805245Y-57204039D01*
G37*
G36*
X118265245Y-57204039D02*
G01*
X118255866Y-57201194D01*
X118247221Y-57196573D01*
X118239645Y-57190355D01*
X118233427Y-57182779D01*
X118228806Y-57174134D01*
X118225961Y-57164755D01*
X118225000Y-57155000D01*
X118225000Y-56100000D01*
X118225961Y-56090245D01*
X118228806Y-56080866D01*
X118233427Y-56072221D01*
X118241346Y-56063022D01*
X119165000Y-55222399D01*
X119165000Y-53577601D01*
X118241346Y-52736978D01*
X118234778Y-52729702D01*
X118229757Y-52721285D01*
X118226474Y-52712049D01*
X118225000Y-52700000D01*
X118225000Y-51645000D01*
X118225961Y-51635245D01*
X118228806Y-51625866D01*
X118233427Y-51617221D01*
X118239645Y-51609645D01*
X118247221Y-51603427D01*
X118255866Y-51598806D01*
X118265245Y-51595961D01*
X118275000Y-51595000D01*
X119215000Y-51595000D01*
X119224755Y-51595961D01*
X119234134Y-51598806D01*
X119242779Y-51603427D01*
X119250355Y-51609645D01*
X120305355Y-52664645D01*
X120311573Y-52672221D01*
X120316194Y-52680866D01*
X120319039Y-52690245D01*
X120320000Y-52700000D01*
X120320000Y-56100000D01*
X120319039Y-56109755D01*
X120316194Y-56119134D01*
X120311573Y-56127779D01*
X120305355Y-56135355D01*
X119250355Y-57190355D01*
X119242779Y-57196573D01*
X119234134Y-57201194D01*
X119224755Y-57204039D01*
X119215000Y-57205000D01*
X118275000Y-57205000D01*
X118265245Y-57204039D01*
G37*
%TD*%
D15*
%TO.C,D3*%
X112000000Y-51050000D03*
X112000000Y-56450000D03*
%TD*%
D16*
%TO.C,D2*%
X121750000Y-66850000D03*
X121750000Y-68250000D03*
%TD*%
%TO.C,D1*%
X120250000Y-68200000D03*
X120250000Y-66800000D03*
%TD*%
%TO.C,C11*%
G36*
G01*
X121487500Y-56550000D02*
X122012500Y-56550000D01*
G75*
G02*
X122275000Y-56812500I0J-262500D01*
G01*
X122275000Y-57437500D01*
G75*
G02*
X122012500Y-57700000I-262500J0D01*
G01*
X121487500Y-57700000D01*
G75*
G02*
X121225000Y-57437500I0J262500D01*
G01*
X121225000Y-56812500D01*
G75*
G02*
X121487500Y-56550000I262500J0D01*
G01*
G37*
G36*
G01*
X121487500Y-54800000D02*
X122012500Y-54800000D01*
G75*
G02*
X122275000Y-55062500I0J-262500D01*
G01*
X122275000Y-55687500D01*
G75*
G02*
X122012500Y-55950000I-262500J0D01*
G01*
X121487500Y-55950000D01*
G75*
G02*
X121225000Y-55687500I0J262500D01*
G01*
X121225000Y-55062500D01*
G75*
G02*
X121487500Y-54800000I262500J0D01*
G01*
G37*
%TD*%
%TO.C,C10*%
G36*
G01*
X129012500Y-67450000D02*
X128487500Y-67450000D01*
G75*
G02*
X128225000Y-67187500I0J262500D01*
G01*
X128225000Y-66562500D01*
G75*
G02*
X128487500Y-66300000I262500J0D01*
G01*
X129012500Y-66300000D01*
G75*
G02*
X129275000Y-66562500I0J-262500D01*
G01*
X129275000Y-67187500D01*
G75*
G02*
X129012500Y-67450000I-262500J0D01*
G01*
G37*
G36*
G01*
X129012500Y-69200000D02*
X128487500Y-69200000D01*
G75*
G02*
X128225000Y-68937500I0J262500D01*
G01*
X128225000Y-68312500D01*
G75*
G02*
X128487500Y-68050000I262500J0D01*
G01*
X129012500Y-68050000D01*
G75*
G02*
X129275000Y-68312500I0J-262500D01*
G01*
X129275000Y-68937500D01*
G75*
G02*
X129012500Y-69200000I-262500J0D01*
G01*
G37*
%TD*%
%TO.C,C9*%
G36*
G01*
X126987500Y-68050000D02*
X127512500Y-68050000D01*
G75*
G02*
X127775000Y-68312500I0J-262500D01*
G01*
X127775000Y-68937500D01*
G75*
G02*
X127512500Y-69200000I-262500J0D01*
G01*
X126987500Y-69200000D01*
G75*
G02*
X126725000Y-68937500I0J262500D01*
G01*
X126725000Y-68312500D01*
G75*
G02*
X126987500Y-68050000I262500J0D01*
G01*
G37*
G36*
G01*
X126987500Y-66300000D02*
X127512500Y-66300000D01*
G75*
G02*
X127775000Y-66562500I0J-262500D01*
G01*
X127775000Y-67187500D01*
G75*
G02*
X127512500Y-67450000I-262500J0D01*
G01*
X126987500Y-67450000D01*
G75*
G02*
X126725000Y-67187500I0J262500D01*
G01*
X126725000Y-66562500D01*
G75*
G02*
X126987500Y-66300000I262500J0D01*
G01*
G37*
%TD*%
%TO.C,C8*%
G36*
G01*
X125978262Y-67100000D02*
X125021738Y-67100000D01*
G75*
G02*
X124750000Y-66828262I0J271738D01*
G01*
X124750000Y-66121738D01*
G75*
G02*
X125021738Y-65850000I271738J0D01*
G01*
X125978262Y-65850000D01*
G75*
G02*
X126250000Y-66121738I0J-271738D01*
G01*
X126250000Y-66828262D01*
G75*
G02*
X125978262Y-67100000I-271738J0D01*
G01*
G37*
G36*
G01*
X125978262Y-69150000D02*
X125021738Y-69150000D01*
G75*
G02*
X124750000Y-68878262I0J271738D01*
G01*
X124750000Y-68171738D01*
G75*
G02*
X125021738Y-67900000I271738J0D01*
G01*
X125978262Y-67900000D01*
G75*
G02*
X126250000Y-68171738I0J-271738D01*
G01*
X126250000Y-68878262D01*
G75*
G02*
X125978262Y-69150000I-271738J0D01*
G01*
G37*
%TD*%
%TO.C,C6*%
G36*
G01*
X115512500Y-60200000D02*
X114987500Y-60200000D01*
G75*
G02*
X114725000Y-59937500I0J262500D01*
G01*
X114725000Y-59312500D01*
G75*
G02*
X114987500Y-59050000I262500J0D01*
G01*
X115512500Y-59050000D01*
G75*
G02*
X115775000Y-59312500I0J-262500D01*
G01*
X115775000Y-59937500D01*
G75*
G02*
X115512500Y-60200000I-262500J0D01*
G01*
G37*
G36*
G01*
X115512500Y-61950000D02*
X114987500Y-61950000D01*
G75*
G02*
X114725000Y-61687500I0J262500D01*
G01*
X114725000Y-61062500D01*
G75*
G02*
X114987500Y-60800000I262500J0D01*
G01*
X115512500Y-60800000D01*
G75*
G02*
X115775000Y-61062500I0J-262500D01*
G01*
X115775000Y-61687500D01*
G75*
G02*
X115512500Y-61950000I-262500J0D01*
G01*
G37*
%TD*%
D17*
%TO.C,K1*%
X131250000Y-73645000D03*
X111850000Y-73645000D03*
D18*
X128800000Y-71720000D03*
X128300000Y-71720000D03*
X127800000Y-71720000D03*
X127300000Y-71720000D03*
X126800000Y-71720000D03*
X126300000Y-71720000D03*
X125800000Y-71720000D03*
X125300000Y-71720000D03*
X124800000Y-71720000D03*
X124300000Y-71720000D03*
X123800000Y-71720000D03*
X123300000Y-71720000D03*
X122800000Y-71720000D03*
X122300000Y-71720000D03*
X121800000Y-71720000D03*
X121300000Y-71720000D03*
X120800000Y-71720000D03*
X120300000Y-71720000D03*
X119800000Y-71720000D03*
X119300000Y-71720000D03*
X118800000Y-71720000D03*
X118300000Y-71720000D03*
X117800000Y-71720000D03*
X117300000Y-71720000D03*
X116800000Y-71720000D03*
X116300000Y-71720000D03*
X115800000Y-71720000D03*
X115300000Y-71720000D03*
X114800000Y-71720000D03*
X114300000Y-71720000D03*
%TD*%
%TO.C,C5*%
G36*
G01*
X116978262Y-67225000D02*
X116021738Y-67225000D01*
G75*
G02*
X115750000Y-66953262I0J271738D01*
G01*
X115750000Y-66246738D01*
G75*
G02*
X116021738Y-65975000I271738J0D01*
G01*
X116978262Y-65975000D01*
G75*
G02*
X117250000Y-66246738I0J-271738D01*
G01*
X117250000Y-66953262D01*
G75*
G02*
X116978262Y-67225000I-271738J0D01*
G01*
G37*
G36*
G01*
X116978262Y-69275000D02*
X116021738Y-69275000D01*
G75*
G02*
X115750000Y-69003262I0J271738D01*
G01*
X115750000Y-68296738D01*
G75*
G02*
X116021738Y-68025000I271738J0D01*
G01*
X116978262Y-68025000D01*
G75*
G02*
X117250000Y-68296738I0J-271738D01*
G01*
X117250000Y-69003262D01*
G75*
G02*
X116978262Y-69275000I-271738J0D01*
G01*
G37*
%TD*%
%TO.C,C4*%
G36*
G01*
X115012500Y-67550000D02*
X114487500Y-67550000D01*
G75*
G02*
X114225000Y-67287500I0J262500D01*
G01*
X114225000Y-66662500D01*
G75*
G02*
X114487500Y-66400000I262500J0D01*
G01*
X115012500Y-66400000D01*
G75*
G02*
X115275000Y-66662500I0J-262500D01*
G01*
X115275000Y-67287500D01*
G75*
G02*
X115012500Y-67550000I-262500J0D01*
G01*
G37*
G36*
G01*
X115012500Y-69300000D02*
X114487500Y-69300000D01*
G75*
G02*
X114225000Y-69037500I0J262500D01*
G01*
X114225000Y-68412500D01*
G75*
G02*
X114487500Y-68150000I262500J0D01*
G01*
X115012500Y-68150000D01*
G75*
G02*
X115275000Y-68412500I0J-262500D01*
G01*
X115275000Y-69037500D01*
G75*
G02*
X115012500Y-69300000I-262500J0D01*
G01*
G37*
%TD*%
%TO.C,C3*%
G36*
G01*
X111707456Y-66362500D02*
X110392544Y-66362500D01*
G75*
G02*
X110125000Y-66094956I0J267544D01*
G01*
X110125000Y-65105044D01*
G75*
G02*
X110392544Y-64837500I267544J0D01*
G01*
X111707456Y-64837500D01*
G75*
G02*
X111975000Y-65105044I0J-267544D01*
G01*
X111975000Y-66094956D01*
G75*
G02*
X111707456Y-66362500I-267544J0D01*
G01*
G37*
G36*
G01*
X111707456Y-69337500D02*
X110392544Y-69337500D01*
G75*
G02*
X110125000Y-69069956I0J267544D01*
G01*
X110125000Y-68080044D01*
G75*
G02*
X110392544Y-67812500I267544J0D01*
G01*
X111707456Y-67812500D01*
G75*
G02*
X111975000Y-68080044I0J-267544D01*
G01*
X111975000Y-69069956D01*
G75*
G02*
X111707456Y-69337500I-267544J0D01*
G01*
G37*
%TD*%
%TO.C,C2*%
G36*
G01*
X112737500Y-68150000D02*
X113262500Y-68150000D01*
G75*
G02*
X113525000Y-68412500I0J-262500D01*
G01*
X113525000Y-69037500D01*
G75*
G02*
X113262500Y-69300000I-262500J0D01*
G01*
X112737500Y-69300000D01*
G75*
G02*
X112475000Y-69037500I0J262500D01*
G01*
X112475000Y-68412500D01*
G75*
G02*
X112737500Y-68150000I262500J0D01*
G01*
G37*
G36*
G01*
X112737500Y-66400000D02*
X113262500Y-66400000D01*
G75*
G02*
X113525000Y-66662500I0J-262500D01*
G01*
X113525000Y-67287500D01*
G75*
G02*
X113262500Y-67550000I-262500J0D01*
G01*
X112737500Y-67550000D01*
G75*
G02*
X112475000Y-67287500I0J262500D01*
G01*
X112475000Y-66662500D01*
G75*
G02*
X112737500Y-66400000I262500J0D01*
G01*
G37*
%TD*%
%TO.C,C1*%
G36*
G01*
X121512500Y-60200000D02*
X120987500Y-60200000D01*
G75*
G02*
X120725000Y-59937500I0J262500D01*
G01*
X120725000Y-59312500D01*
G75*
G02*
X120987500Y-59050000I262500J0D01*
G01*
X121512500Y-59050000D01*
G75*
G02*
X121775000Y-59312500I0J-262500D01*
G01*
X121775000Y-59937500D01*
G75*
G02*
X121512500Y-60200000I-262500J0D01*
G01*
G37*
G36*
G01*
X121512500Y-61950000D02*
X120987500Y-61950000D01*
G75*
G02*
X120725000Y-61687500I0J262500D01*
G01*
X120725000Y-61062500D01*
G75*
G02*
X120987500Y-60800000I262500J0D01*
G01*
X121512500Y-60800000D01*
G75*
G02*
X121775000Y-61062500I0J-262500D01*
G01*
X121775000Y-61687500D01*
G75*
G02*
X121512500Y-61950000I-262500J0D01*
G01*
G37*
%TD*%
M02*
