%TF.GenerationSoftware,KiCad,Pcbnew,(5.1.6)-1*%
%TF.CreationDate,2020-12-26T20:27:21+01:00*%
%TF.ProjectId,ScreenBoard,53637265-656e-4426-9f61-72642e6b6963,rev?*%
%TF.SameCoordinates,Original*%
%TF.FileFunction,Copper,L1,Top*%
%TF.FilePolarity,Positive*%
%FSLAX46Y46*%
G04 Gerber Fmt 4.6, Leading zero omitted, Abs format (unit mm)*
G04 Created by KiCad (PCBNEW (5.1.6)-1) date 2020-12-26 20:27:21*
%MOMM*%
%LPD*%
G01*
G04 APERTURE LIST*
%TA.AperFunction,SMDPad,CuDef*%
%ADD10R,2.580000X1.000000*%
%TD*%
%TA.AperFunction,SMDPad,CuDef*%
%ADD11R,1.150000X0.600000*%
%TD*%
%TA.AperFunction,SMDPad,CuDef*%
%ADD12R,2.000000X1.450000*%
%TD*%
%TA.AperFunction,SMDPad,CuDef*%
%ADD13R,1.500000X0.800000*%
%TD*%
%TA.AperFunction,SMDPad,CuDef*%
%ADD14C,0.100000*%
%TD*%
%TA.AperFunction,SMDPad,CuDef*%
%ADD15R,2.300000X3.500000*%
%TD*%
%TA.AperFunction,SMDPad,CuDef*%
%ADD16R,0.700000X0.600000*%
%TD*%
%TA.AperFunction,SMDPad,CuDef*%
%ADD17R,2.400000X3.050000*%
%TD*%
%TA.AperFunction,SMDPad,CuDef*%
%ADD18R,0.300000X0.800000*%
%TD*%
%TA.AperFunction,ViaPad*%
%ADD19C,0.800000*%
%TD*%
%TA.AperFunction,Conductor*%
%ADD20C,0.600000*%
%TD*%
%TA.AperFunction,Conductor*%
%ADD21C,0.300000*%
%TD*%
%TA.AperFunction,Conductor*%
%ADD22C,0.200000*%
%TD*%
%TA.AperFunction,Conductor*%
%ADD23C,0.400000*%
%TD*%
%TA.AperFunction,Conductor*%
%ADD24C,0.254000*%
%TD*%
G04 APERTURE END LIST*
D10*
%TO.P,J2,10*%
%TO.N,/SD_CS*%
X105335000Y-62100000D03*
%TO.P,J2,9*%
%TO.N,/OLED_RST*%
X101165000Y-62100000D03*
%TO.P,J2,8*%
%TO.N,/OLED_CS*%
X105335000Y-60100000D03*
%TO.P,J2,7*%
%TO.N,/OLED_DC*%
X101165000Y-60100000D03*
%TO.P,J2,6*%
%TO.N,/SPI_SCK*%
X105335000Y-58100000D03*
%TO.P,J2,5*%
%TO.N,/SPI_MISO*%
X101165000Y-58100000D03*
%TO.P,J2,4*%
%TO.N,/SPI_MOSI*%
X105335000Y-56100000D03*
%TO.P,J2,3*%
%TO.N,GND*%
X101165000Y-56100000D03*
%TO.P,J2,2*%
%TO.N,+3V3*%
X105335000Y-54100000D03*
%TO.P,J2,1*%
%TO.N,+12V*%
X101165000Y-54100000D03*
%TD*%
D11*
%TO.P,IC1,5*%
%TO.N,+3V3*%
X119500000Y-59550000D03*
%TO.P,IC1,4*%
X119500000Y-61450000D03*
%TO.P,IC1,3*%
%TO.N,Net-(C6-Pad1)*%
X117000000Y-61450000D03*
%TO.P,IC1,2*%
%TO.N,GND*%
X117000000Y-60500000D03*
%TO.P,IC1,1*%
%TO.N,Net-(D3-Pad2)*%
X117000000Y-59550000D03*
%TD*%
%TO.P,C7,2*%
%TO.N,+12V*%
%TA.AperFunction,SMDPad,CuDef*%
G36*
G01*
X111350000Y-59737500D02*
X111350000Y-59262500D01*
G75*
G02*
X111587500Y-59025000I237500J0D01*
G01*
X112162500Y-59025000D01*
G75*
G02*
X112400000Y-59262500I0J-237500D01*
G01*
X112400000Y-59737500D01*
G75*
G02*
X112162500Y-59975000I-237500J0D01*
G01*
X111587500Y-59975000D01*
G75*
G02*
X111350000Y-59737500I0J237500D01*
G01*
G37*
%TD.AperFunction*%
%TO.P,C7,1*%
%TO.N,GND*%
%TA.AperFunction,SMDPad,CuDef*%
G36*
G01*
X109600000Y-59737500D02*
X109600000Y-59262500D01*
G75*
G02*
X109837500Y-59025000I237500J0D01*
G01*
X110412500Y-59025000D01*
G75*
G02*
X110650000Y-59262500I0J-237500D01*
G01*
X110650000Y-59737500D01*
G75*
G02*
X110412500Y-59975000I-237500J0D01*
G01*
X109837500Y-59975000D01*
G75*
G02*
X109600000Y-59737500I0J237500D01*
G01*
G37*
%TD.AperFunction*%
%TD*%
D12*
%TO.P,J1,9*%
%TO.N,GND*%
X133750000Y-50125000D03*
X133750000Y-63875000D03*
X125450000Y-50125000D03*
X125450000Y-63875000D03*
D13*
%TO.P,J1,8*%
%TO.N,Net-(J1-Pad8)*%
X128050000Y-52500000D03*
%TO.P,J1,7*%
%TO.N,/SPI_MISO*%
X128050000Y-53600000D03*
%TO.P,J1,6*%
%TO.N,GND*%
X128050000Y-54700000D03*
%TO.P,J1,5*%
%TO.N,/SPI_SCK*%
X128050000Y-55800000D03*
%TO.P,J1,4*%
%TO.N,+3V3*%
X128050000Y-56900000D03*
%TO.P,J1,3*%
%TO.N,/SPI_MOSI*%
X128050000Y-58000000D03*
%TO.P,J1,2*%
%TO.N,/SD_CS*%
X128050000Y-59100000D03*
%TO.P,J1,1*%
%TO.N,Net-(J1-Pad1)*%
X128050000Y-60200000D03*
%TD*%
%TO.P,R4,2*%
%TO.N,Net-(K1-Pad22)*%
%TA.AperFunction,SMDPad,CuDef*%
G36*
G01*
X123262500Y-68100000D02*
X123737500Y-68100000D01*
G75*
G02*
X123975000Y-68337500I0J-237500D01*
G01*
X123975000Y-68912500D01*
G75*
G02*
X123737500Y-69150000I-237500J0D01*
G01*
X123262500Y-69150000D01*
G75*
G02*
X123025000Y-68912500I0J237500D01*
G01*
X123025000Y-68337500D01*
G75*
G02*
X123262500Y-68100000I237500J0D01*
G01*
G37*
%TD.AperFunction*%
%TO.P,R4,1*%
%TO.N,GND*%
%TA.AperFunction,SMDPad,CuDef*%
G36*
G01*
X123262500Y-66350000D02*
X123737500Y-66350000D01*
G75*
G02*
X123975000Y-66587500I0J-237500D01*
G01*
X123975000Y-67162500D01*
G75*
G02*
X123737500Y-67400000I-237500J0D01*
G01*
X123262500Y-67400000D01*
G75*
G02*
X123025000Y-67162500I0J237500D01*
G01*
X123025000Y-66587500D01*
G75*
G02*
X123262500Y-66350000I237500J0D01*
G01*
G37*
%TD.AperFunction*%
%TD*%
%TO.P,R3,2*%
%TO.N,+12V*%
%TA.AperFunction,SMDPad,CuDef*%
G36*
G01*
X113737500Y-60150000D02*
X113262500Y-60150000D01*
G75*
G02*
X113025000Y-59912500I0J237500D01*
G01*
X113025000Y-59337500D01*
G75*
G02*
X113262500Y-59100000I237500J0D01*
G01*
X113737500Y-59100000D01*
G75*
G02*
X113975000Y-59337500I0J-237500D01*
G01*
X113975000Y-59912500D01*
G75*
G02*
X113737500Y-60150000I-237500J0D01*
G01*
G37*
%TD.AperFunction*%
%TO.P,R3,1*%
%TO.N,Net-(C6-Pad1)*%
%TA.AperFunction,SMDPad,CuDef*%
G36*
G01*
X113737500Y-61900000D02*
X113262500Y-61900000D01*
G75*
G02*
X113025000Y-61662500I0J237500D01*
G01*
X113025000Y-61087500D01*
G75*
G02*
X113262500Y-60850000I237500J0D01*
G01*
X113737500Y-60850000D01*
G75*
G02*
X113975000Y-61087500I0J-237500D01*
G01*
X113975000Y-61662500D01*
G75*
G02*
X113737500Y-61900000I-237500J0D01*
G01*
G37*
%TD.AperFunction*%
%TD*%
%TO.P,R2,2*%
%TO.N,Net-(C6-Pad1)*%
%TA.AperFunction,SMDPad,CuDef*%
G36*
G01*
X111350000Y-61737500D02*
X111350000Y-61262500D01*
G75*
G02*
X111587500Y-61025000I237500J0D01*
G01*
X112162500Y-61025000D01*
G75*
G02*
X112400000Y-61262500I0J-237500D01*
G01*
X112400000Y-61737500D01*
G75*
G02*
X112162500Y-61975000I-237500J0D01*
G01*
X111587500Y-61975000D01*
G75*
G02*
X111350000Y-61737500I0J237500D01*
G01*
G37*
%TD.AperFunction*%
%TO.P,R2,1*%
%TO.N,GND*%
%TA.AperFunction,SMDPad,CuDef*%
G36*
G01*
X109600000Y-61737500D02*
X109600000Y-61262500D01*
G75*
G02*
X109837500Y-61025000I237500J0D01*
G01*
X110412500Y-61025000D01*
G75*
G02*
X110650000Y-61262500I0J-237500D01*
G01*
X110650000Y-61737500D01*
G75*
G02*
X110412500Y-61975000I-237500J0D01*
G01*
X109837500Y-61975000D01*
G75*
G02*
X109600000Y-61737500I0J237500D01*
G01*
G37*
%TD.AperFunction*%
%TD*%
%TO.P,R1,2*%
%TO.N,Net-(D1-Pad2)*%
%TA.AperFunction,SMDPad,CuDef*%
G36*
G01*
X118737500Y-67400000D02*
X118262500Y-67400000D01*
G75*
G02*
X118025000Y-67162500I0J237500D01*
G01*
X118025000Y-66587500D01*
G75*
G02*
X118262500Y-66350000I237500J0D01*
G01*
X118737500Y-66350000D01*
G75*
G02*
X118975000Y-66587500I0J-237500D01*
G01*
X118975000Y-67162500D01*
G75*
G02*
X118737500Y-67400000I-237500J0D01*
G01*
G37*
%TD.AperFunction*%
%TO.P,R1,1*%
%TO.N,Net-(K1-Pad5)*%
%TA.AperFunction,SMDPad,CuDef*%
G36*
G01*
X118737500Y-69150000D02*
X118262500Y-69150000D01*
G75*
G02*
X118025000Y-68912500I0J237500D01*
G01*
X118025000Y-68337500D01*
G75*
G02*
X118262500Y-68100000I237500J0D01*
G01*
X118737500Y-68100000D01*
G75*
G02*
X118975000Y-68337500I0J-237500D01*
G01*
X118975000Y-68912500D01*
G75*
G02*
X118737500Y-69150000I-237500J0D01*
G01*
G37*
%TD.AperFunction*%
%TD*%
%TA.AperFunction,SMDPad,CuDef*%
D14*
%TO.P,L1,2*%
%TO.N,Net-(D3-Pad2)*%
G36*
X114760000Y-56100000D02*
G01*
X114760000Y-52700000D01*
X115815000Y-51645000D01*
X116755000Y-51645000D01*
X116755000Y-52700000D01*
X115815000Y-53555500D01*
X115815000Y-55244500D01*
X116755000Y-56100000D01*
X116755000Y-57155000D01*
X115815000Y-57155000D01*
X114760000Y-56100000D01*
G37*
%TD.AperFunction*%
%TA.AperFunction,SMDPad,CuDef*%
%TO.P,L1,1*%
%TO.N,+3V3*%
G36*
X118275000Y-56100000D02*
G01*
X119215000Y-55244500D01*
X119215000Y-53555500D01*
X118275000Y-52700000D01*
X118275000Y-51645000D01*
X119215000Y-51645000D01*
X120270000Y-52700000D01*
X120270000Y-56100000D01*
X119215000Y-57155000D01*
X118275000Y-57155000D01*
X118275000Y-56100000D01*
G37*
%TD.AperFunction*%
%TD*%
D15*
%TO.P,D3,2*%
%TO.N,Net-(D3-Pad2)*%
X112000000Y-51050000D03*
%TO.P,D3,1*%
%TO.N,+12V*%
X112000000Y-56450000D03*
%TD*%
D16*
%TO.P,D2,1*%
%TO.N,GND*%
X121750000Y-66850000D03*
%TO.P,D2,2*%
%TO.N,Net-(D1-Pad1)*%
X121750000Y-68250000D03*
%TD*%
%TO.P,D1,1*%
%TO.N,Net-(D1-Pad1)*%
X120250000Y-68200000D03*
%TO.P,D1,2*%
%TO.N,Net-(D1-Pad2)*%
X120250000Y-66800000D03*
%TD*%
%TO.P,C11,2*%
%TO.N,+3V3*%
%TA.AperFunction,SMDPad,CuDef*%
G36*
G01*
X121512500Y-56600000D02*
X121987500Y-56600000D01*
G75*
G02*
X122225000Y-56837500I0J-237500D01*
G01*
X122225000Y-57412500D01*
G75*
G02*
X121987500Y-57650000I-237500J0D01*
G01*
X121512500Y-57650000D01*
G75*
G02*
X121275000Y-57412500I0J237500D01*
G01*
X121275000Y-56837500D01*
G75*
G02*
X121512500Y-56600000I237500J0D01*
G01*
G37*
%TD.AperFunction*%
%TO.P,C11,1*%
%TO.N,GND*%
%TA.AperFunction,SMDPad,CuDef*%
G36*
G01*
X121512500Y-54850000D02*
X121987500Y-54850000D01*
G75*
G02*
X122225000Y-55087500I0J-237500D01*
G01*
X122225000Y-55662500D01*
G75*
G02*
X121987500Y-55900000I-237500J0D01*
G01*
X121512500Y-55900000D01*
G75*
G02*
X121275000Y-55662500I0J237500D01*
G01*
X121275000Y-55087500D01*
G75*
G02*
X121512500Y-54850000I237500J0D01*
G01*
G37*
%TD.AperFunction*%
%TD*%
%TO.P,C10,2*%
%TO.N,GND*%
%TA.AperFunction,SMDPad,CuDef*%
G36*
G01*
X128987500Y-67400000D02*
X128512500Y-67400000D01*
G75*
G02*
X128275000Y-67162500I0J237500D01*
G01*
X128275000Y-66587500D01*
G75*
G02*
X128512500Y-66350000I237500J0D01*
G01*
X128987500Y-66350000D01*
G75*
G02*
X129225000Y-66587500I0J-237500D01*
G01*
X129225000Y-67162500D01*
G75*
G02*
X128987500Y-67400000I-237500J0D01*
G01*
G37*
%TD.AperFunction*%
%TO.P,C10,1*%
%TO.N,Net-(C10-Pad1)*%
%TA.AperFunction,SMDPad,CuDef*%
G36*
G01*
X128987500Y-69150000D02*
X128512500Y-69150000D01*
G75*
G02*
X128275000Y-68912500I0J237500D01*
G01*
X128275000Y-68337500D01*
G75*
G02*
X128512500Y-68100000I237500J0D01*
G01*
X128987500Y-68100000D01*
G75*
G02*
X129225000Y-68337500I0J-237500D01*
G01*
X129225000Y-68912500D01*
G75*
G02*
X128987500Y-69150000I-237500J0D01*
G01*
G37*
%TD.AperFunction*%
%TD*%
%TO.P,C9,2*%
%TO.N,Net-(C10-Pad1)*%
%TA.AperFunction,SMDPad,CuDef*%
G36*
G01*
X127012500Y-68100000D02*
X127487500Y-68100000D01*
G75*
G02*
X127725000Y-68337500I0J-237500D01*
G01*
X127725000Y-68912500D01*
G75*
G02*
X127487500Y-69150000I-237500J0D01*
G01*
X127012500Y-69150000D01*
G75*
G02*
X126775000Y-68912500I0J237500D01*
G01*
X126775000Y-68337500D01*
G75*
G02*
X127012500Y-68100000I237500J0D01*
G01*
G37*
%TD.AperFunction*%
%TO.P,C9,1*%
%TO.N,GND*%
%TA.AperFunction,SMDPad,CuDef*%
G36*
G01*
X127012500Y-66350000D02*
X127487500Y-66350000D01*
G75*
G02*
X127725000Y-66587500I0J-237500D01*
G01*
X127725000Y-67162500D01*
G75*
G02*
X127487500Y-67400000I-237500J0D01*
G01*
X127012500Y-67400000D01*
G75*
G02*
X126775000Y-67162500I0J237500D01*
G01*
X126775000Y-66587500D01*
G75*
G02*
X127012500Y-66350000I237500J0D01*
G01*
G37*
%TD.AperFunction*%
%TD*%
%TO.P,C8,2*%
%TO.N,GND*%
%TA.AperFunction,SMDPad,CuDef*%
G36*
G01*
X125950001Y-67050000D02*
X125049999Y-67050000D01*
G75*
G02*
X124800000Y-66800001I0J249999D01*
G01*
X124800000Y-66149999D01*
G75*
G02*
X125049999Y-65900000I249999J0D01*
G01*
X125950001Y-65900000D01*
G75*
G02*
X126200000Y-66149999I0J-249999D01*
G01*
X126200000Y-66800001D01*
G75*
G02*
X125950001Y-67050000I-249999J0D01*
G01*
G37*
%TD.AperFunction*%
%TO.P,C8,1*%
%TO.N,+3V3*%
%TA.AperFunction,SMDPad,CuDef*%
G36*
G01*
X125950001Y-69100000D02*
X125049999Y-69100000D01*
G75*
G02*
X124800000Y-68850001I0J249999D01*
G01*
X124800000Y-68199999D01*
G75*
G02*
X125049999Y-67950000I249999J0D01*
G01*
X125950001Y-67950000D01*
G75*
G02*
X126200000Y-68199999I0J-249999D01*
G01*
X126200000Y-68850001D01*
G75*
G02*
X125950001Y-69100000I-249999J0D01*
G01*
G37*
%TD.AperFunction*%
%TD*%
%TO.P,C6,2*%
%TO.N,+12V*%
%TA.AperFunction,SMDPad,CuDef*%
G36*
G01*
X115487500Y-60150000D02*
X115012500Y-60150000D01*
G75*
G02*
X114775000Y-59912500I0J237500D01*
G01*
X114775000Y-59337500D01*
G75*
G02*
X115012500Y-59100000I237500J0D01*
G01*
X115487500Y-59100000D01*
G75*
G02*
X115725000Y-59337500I0J-237500D01*
G01*
X115725000Y-59912500D01*
G75*
G02*
X115487500Y-60150000I-237500J0D01*
G01*
G37*
%TD.AperFunction*%
%TO.P,C6,1*%
%TO.N,Net-(C6-Pad1)*%
%TA.AperFunction,SMDPad,CuDef*%
G36*
G01*
X115487500Y-61900000D02*
X115012500Y-61900000D01*
G75*
G02*
X114775000Y-61662500I0J237500D01*
G01*
X114775000Y-61087500D01*
G75*
G02*
X115012500Y-60850000I237500J0D01*
G01*
X115487500Y-60850000D01*
G75*
G02*
X115725000Y-61087500I0J-237500D01*
G01*
X115725000Y-61662500D01*
G75*
G02*
X115487500Y-61900000I-237500J0D01*
G01*
G37*
%TD.AperFunction*%
%TD*%
D17*
%TO.P,K1,30*%
%TO.N,GND*%
X131250000Y-73645000D03*
%TO.P,K1,1*%
X111850000Y-73645000D03*
D18*
%TO.P,K1,30*%
X128800000Y-71720000D03*
%TO.P,K1,29*%
%TO.N,Net-(K1-Pad29)*%
X128300000Y-71720000D03*
%TO.P,K1,28*%
%TO.N,GND*%
X127800000Y-71720000D03*
%TO.P,K1,27*%
%TO.N,Net-(C10-Pad1)*%
X127300000Y-71720000D03*
%TO.P,K1,26*%
%TO.N,+3V3*%
X126800000Y-71720000D03*
%TO.P,K1,25*%
%TO.N,Net-(K1-Pad25)*%
X126300000Y-71720000D03*
%TO.P,K1,24*%
%TO.N,Net-(K1-Pad24)*%
X125800000Y-71720000D03*
%TO.P,K1,23*%
%TO.N,Net-(K1-Pad23)*%
X125300000Y-71720000D03*
%TO.P,K1,22*%
%TO.N,Net-(K1-Pad22)*%
X124800000Y-71720000D03*
%TO.P,K1,21*%
%TO.N,/OLED_RST*%
X124300000Y-71720000D03*
%TO.P,K1,20*%
%TO.N,/OLED_DC*%
X123800000Y-71720000D03*
%TO.P,K1,19*%
%TO.N,/OLED_CS*%
X123300000Y-71720000D03*
%TO.P,K1,18*%
%TO.N,GND*%
X122800000Y-71720000D03*
%TO.P,K1,17*%
X122300000Y-71720000D03*
%TO.P,K1,16*%
X121800000Y-71720000D03*
%TO.P,K1,15*%
X121300000Y-71720000D03*
%TO.P,K1,14*%
%TO.N,/SPI_SCK*%
X120800000Y-71720000D03*
%TO.P,K1,13*%
%TO.N,/SPI_MOSI*%
X120300000Y-71720000D03*
%TO.P,K1,12*%
%TO.N,Net-(K1-Pad12)*%
X119800000Y-71720000D03*
%TO.P,K1,11*%
%TO.N,GND*%
X119300000Y-71720000D03*
%TO.P,K1,10*%
X118800000Y-71720000D03*
%TO.P,K1,9*%
X118300000Y-71720000D03*
%TO.P,K1,8*%
X117800000Y-71720000D03*
%TO.P,K1,7*%
X117300000Y-71720000D03*
%TO.P,K1,6*%
%TO.N,Net-(K1-Pad6)*%
X116800000Y-71720000D03*
%TO.P,K1,5*%
%TO.N,Net-(K1-Pad5)*%
X116300000Y-71720000D03*
%TO.P,K1,4*%
%TO.N,+3V3*%
X115800000Y-71720000D03*
%TO.P,K1,3*%
%TO.N,Net-(C4-Pad1)*%
X115300000Y-71720000D03*
%TO.P,K1,2*%
%TO.N,+12V*%
X114800000Y-71720000D03*
%TO.P,K1,1*%
%TO.N,GND*%
X114300000Y-71720000D03*
%TD*%
%TO.P,C5,2*%
%TO.N,GND*%
%TA.AperFunction,SMDPad,CuDef*%
G36*
G01*
X116950001Y-67175000D02*
X116049999Y-67175000D01*
G75*
G02*
X115800000Y-66925001I0J249999D01*
G01*
X115800000Y-66274999D01*
G75*
G02*
X116049999Y-66025000I249999J0D01*
G01*
X116950001Y-66025000D01*
G75*
G02*
X117200000Y-66274999I0J-249999D01*
G01*
X117200000Y-66925001D01*
G75*
G02*
X116950001Y-67175000I-249999J0D01*
G01*
G37*
%TD.AperFunction*%
%TO.P,C5,1*%
%TO.N,+3V3*%
%TA.AperFunction,SMDPad,CuDef*%
G36*
G01*
X116950001Y-69225000D02*
X116049999Y-69225000D01*
G75*
G02*
X115800000Y-68975001I0J249999D01*
G01*
X115800000Y-68324999D01*
G75*
G02*
X116049999Y-68075000I249999J0D01*
G01*
X116950001Y-68075000D01*
G75*
G02*
X117200000Y-68324999I0J-249999D01*
G01*
X117200000Y-68975001D01*
G75*
G02*
X116950001Y-69225000I-249999J0D01*
G01*
G37*
%TD.AperFunction*%
%TD*%
%TO.P,C4,2*%
%TO.N,GND*%
%TA.AperFunction,SMDPad,CuDef*%
G36*
G01*
X114987500Y-67500000D02*
X114512500Y-67500000D01*
G75*
G02*
X114275000Y-67262500I0J237500D01*
G01*
X114275000Y-66687500D01*
G75*
G02*
X114512500Y-66450000I237500J0D01*
G01*
X114987500Y-66450000D01*
G75*
G02*
X115225000Y-66687500I0J-237500D01*
G01*
X115225000Y-67262500D01*
G75*
G02*
X114987500Y-67500000I-237500J0D01*
G01*
G37*
%TD.AperFunction*%
%TO.P,C4,1*%
%TO.N,Net-(C4-Pad1)*%
%TA.AperFunction,SMDPad,CuDef*%
G36*
G01*
X114987500Y-69250000D02*
X114512500Y-69250000D01*
G75*
G02*
X114275000Y-69012500I0J237500D01*
G01*
X114275000Y-68437500D01*
G75*
G02*
X114512500Y-68200000I237500J0D01*
G01*
X114987500Y-68200000D01*
G75*
G02*
X115225000Y-68437500I0J-237500D01*
G01*
X115225000Y-69012500D01*
G75*
G02*
X114987500Y-69250000I-237500J0D01*
G01*
G37*
%TD.AperFunction*%
%TD*%
%TO.P,C3,2*%
%TO.N,GND*%
%TA.AperFunction,SMDPad,CuDef*%
G36*
G01*
X111675000Y-66312500D02*
X110425000Y-66312500D01*
G75*
G02*
X110175000Y-66062500I0J250000D01*
G01*
X110175000Y-65137500D01*
G75*
G02*
X110425000Y-64887500I250000J0D01*
G01*
X111675000Y-64887500D01*
G75*
G02*
X111925000Y-65137500I0J-250000D01*
G01*
X111925000Y-66062500D01*
G75*
G02*
X111675000Y-66312500I-250000J0D01*
G01*
G37*
%TD.AperFunction*%
%TO.P,C3,1*%
%TO.N,+12V*%
%TA.AperFunction,SMDPad,CuDef*%
G36*
G01*
X111675000Y-69287500D02*
X110425000Y-69287500D01*
G75*
G02*
X110175000Y-69037500I0J250000D01*
G01*
X110175000Y-68112500D01*
G75*
G02*
X110425000Y-67862500I250000J0D01*
G01*
X111675000Y-67862500D01*
G75*
G02*
X111925000Y-68112500I0J-250000D01*
G01*
X111925000Y-69037500D01*
G75*
G02*
X111675000Y-69287500I-250000J0D01*
G01*
G37*
%TD.AperFunction*%
%TD*%
%TO.P,C2,2*%
%TO.N,+12V*%
%TA.AperFunction,SMDPad,CuDef*%
G36*
G01*
X112762500Y-68200000D02*
X113237500Y-68200000D01*
G75*
G02*
X113475000Y-68437500I0J-237500D01*
G01*
X113475000Y-69012500D01*
G75*
G02*
X113237500Y-69250000I-237500J0D01*
G01*
X112762500Y-69250000D01*
G75*
G02*
X112525000Y-69012500I0J237500D01*
G01*
X112525000Y-68437500D01*
G75*
G02*
X112762500Y-68200000I237500J0D01*
G01*
G37*
%TD.AperFunction*%
%TO.P,C2,1*%
%TO.N,GND*%
%TA.AperFunction,SMDPad,CuDef*%
G36*
G01*
X112762500Y-66450000D02*
X113237500Y-66450000D01*
G75*
G02*
X113475000Y-66687500I0J-237500D01*
G01*
X113475000Y-67262500D01*
G75*
G02*
X113237500Y-67500000I-237500J0D01*
G01*
X112762500Y-67500000D01*
G75*
G02*
X112525000Y-67262500I0J237500D01*
G01*
X112525000Y-66687500D01*
G75*
G02*
X112762500Y-66450000I237500J0D01*
G01*
G37*
%TD.AperFunction*%
%TD*%
%TO.P,C1,2*%
%TO.N,+3V3*%
%TA.AperFunction,SMDPad,CuDef*%
G36*
G01*
X121487500Y-60150000D02*
X121012500Y-60150000D01*
G75*
G02*
X120775000Y-59912500I0J237500D01*
G01*
X120775000Y-59337500D01*
G75*
G02*
X121012500Y-59100000I237500J0D01*
G01*
X121487500Y-59100000D01*
G75*
G02*
X121725000Y-59337500I0J-237500D01*
G01*
X121725000Y-59912500D01*
G75*
G02*
X121487500Y-60150000I-237500J0D01*
G01*
G37*
%TD.AperFunction*%
%TO.P,C1,1*%
%TO.N,GND*%
%TA.AperFunction,SMDPad,CuDef*%
G36*
G01*
X121487500Y-61900000D02*
X121012500Y-61900000D01*
G75*
G02*
X120775000Y-61662500I0J237500D01*
G01*
X120775000Y-61087500D01*
G75*
G02*
X121012500Y-60850000I237500J0D01*
G01*
X121487500Y-60850000D01*
G75*
G02*
X121725000Y-61087500I0J-237500D01*
G01*
X121725000Y-61662500D01*
G75*
G02*
X121487500Y-61900000I-237500J0D01*
G01*
G37*
%TD.AperFunction*%
%TD*%
D19*
%TO.N,GND*%
X121750000Y-54250000D03*
X133750000Y-51500000D03*
X133750000Y-62500000D03*
X129450003Y-54700003D03*
X125449997Y-51449997D03*
X125450003Y-62549997D03*
X129874978Y-66875000D03*
X131250000Y-75749998D03*
X110104991Y-73645009D03*
X133145014Y-73645000D03*
X114250000Y-72750000D03*
X117250000Y-72750000D03*
X117750000Y-70750000D03*
X118250000Y-72750000D03*
X118750000Y-70750000D03*
X119250000Y-72750000D03*
X121250000Y-70750000D03*
X121750000Y-72750000D03*
X122250000Y-70750000D03*
X122600000Y-72750000D03*
X122374995Y-61374995D03*
X113000000Y-65750000D03*
X114750000Y-65750000D03*
X116500000Y-65500000D03*
X125500000Y-65250000D03*
X123500000Y-65750000D03*
X127250000Y-65750000D03*
X121750000Y-65750000D03*
X128800003Y-72949997D03*
X127799994Y-72950000D03*
X113645005Y-73644995D03*
X111849990Y-71650010D03*
X131250000Y-71500000D03*
X126875019Y-63875019D03*
X127250000Y-50125000D03*
X132125011Y-50124989D03*
X135374993Y-50124993D03*
X123875008Y-50125008D03*
X135375003Y-63875003D03*
X123875003Y-63875003D03*
X132125012Y-63875012D03*
X111050006Y-64300006D03*
X118250000Y-60500000D03*
X102999984Y-56100004D03*
%TO.N,+3V3*%
X120500000Y-57250000D03*
X129399992Y-56899992D03*
X125500000Y-69750000D03*
X116500000Y-69750000D03*
X115749992Y-72750000D03*
X122374995Y-59624995D03*
X119500000Y-58750000D03*
X119500000Y-62250000D03*
X120250000Y-51750000D03*
X126750000Y-73000000D03*
X107099998Y-54099998D03*
%TO.N,/SPI_MISO*%
X125000000Y-53500000D03*
X103000000Y-58250000D03*
%TO.N,/SPI_SCK*%
X125000000Y-55750000D03*
X107250000Y-58250012D03*
%TO.N,/SPI_MOSI*%
X107500000Y-56775000D03*
X126250000Y-57250000D03*
%TO.N,/SD_CS*%
X126150004Y-59099996D03*
X105500000Y-69000000D03*
%TD*%
D20*
%TO.N,GND*%
X121750000Y-55375000D02*
X121750000Y-54250000D01*
X133750000Y-50125000D02*
X133750000Y-51500000D01*
X133750000Y-63875000D02*
X133750000Y-62500000D01*
X129450000Y-54700000D02*
X129450003Y-54700003D01*
X128050000Y-54700000D02*
X129450000Y-54700000D01*
X125450000Y-51449994D02*
X125449997Y-51449997D01*
X125450000Y-50125000D02*
X125450000Y-51449994D01*
X125450000Y-62550000D02*
X125450003Y-62549997D01*
X125450000Y-63875000D02*
X125450000Y-62550000D01*
X128750000Y-66875000D02*
X129874978Y-66875000D01*
X128750000Y-66875000D02*
X127250000Y-66875000D01*
X126850000Y-66475000D02*
X127250000Y-66875000D01*
X125500000Y-66475000D02*
X126850000Y-66475000D01*
X123900000Y-66475000D02*
X123500000Y-66875000D01*
X125500000Y-66475000D02*
X123900000Y-66475000D01*
X131250000Y-73645000D02*
X131250000Y-75749998D01*
X110105000Y-73645000D02*
X110104991Y-73645009D01*
X111850000Y-73645000D02*
X110105000Y-73645000D01*
X131250000Y-73645000D02*
X133145014Y-73645000D01*
X121775000Y-66875000D02*
X121750000Y-66850000D01*
X123500000Y-66875000D02*
X121775000Y-66875000D01*
X115125000Y-66600000D02*
X114750000Y-66975000D01*
X116500000Y-66600000D02*
X115125000Y-66600000D01*
X113000000Y-66975000D02*
X114750000Y-66975000D01*
X112425000Y-66975000D02*
X111050000Y-65600000D01*
X113000000Y-66975000D02*
X112425000Y-66975000D01*
X122374990Y-61375000D02*
X122374995Y-61374995D01*
X121250000Y-61375000D02*
X122374990Y-61375000D01*
X113000000Y-66975000D02*
X113000000Y-65750000D01*
X114750000Y-66975000D02*
X114750000Y-65750000D01*
X116500000Y-66600000D02*
X116500000Y-65500000D01*
X125500000Y-66475000D02*
X125500000Y-65250000D01*
X123500000Y-66875000D02*
X123500000Y-65750000D01*
X127250000Y-66875000D02*
X127250000Y-65750000D01*
X121750000Y-66850000D02*
X121750000Y-65750000D01*
D21*
X127800000Y-72949994D02*
X127799994Y-72950000D01*
X127800000Y-71720000D02*
X127800000Y-72949994D01*
X128800000Y-72949994D02*
X128800003Y-72949997D01*
X128800000Y-71720000D02*
X128800000Y-72949994D01*
X121300000Y-70800000D02*
X121250000Y-70750000D01*
X121300000Y-71720000D02*
X121300000Y-70800000D01*
X121800000Y-72700000D02*
X121750000Y-72750000D01*
X121800000Y-71720000D02*
X121800000Y-72700000D01*
X122300000Y-70800000D02*
X122250000Y-70750000D01*
X122300000Y-71720000D02*
X122300000Y-70800000D01*
X122800000Y-72550000D02*
X122600000Y-72750000D01*
X122800000Y-71720000D02*
X122800000Y-72550000D01*
X117300000Y-72700000D02*
X117250000Y-72750000D01*
X117300000Y-71720000D02*
X117300000Y-72700000D01*
X117800000Y-70800000D02*
X117750000Y-70750000D01*
X117800000Y-71720000D02*
X117800000Y-70800000D01*
X118300000Y-72700000D02*
X118250000Y-72750000D01*
X118300000Y-71720000D02*
X118300000Y-72700000D01*
X118800000Y-70800000D02*
X118750000Y-70750000D01*
X118800000Y-71720000D02*
X118800000Y-70800000D01*
X119300000Y-72700000D02*
X119250000Y-72750000D01*
X119300000Y-71720000D02*
X119300000Y-72700000D01*
D20*
X113645000Y-73645000D02*
X113645005Y-73644995D01*
X111850000Y-73645000D02*
X113645000Y-73645000D01*
X111850000Y-71650020D02*
X111849990Y-71650010D01*
X111850000Y-73645000D02*
X111850000Y-71650020D01*
X131250000Y-73645000D02*
X131250000Y-71500000D01*
D21*
X114300000Y-72700000D02*
X114250000Y-72750000D01*
X114300000Y-71720000D02*
X114300000Y-72700000D01*
D20*
X126875000Y-63875000D02*
X126875019Y-63875019D01*
X125450000Y-63875000D02*
X126875000Y-63875000D01*
X125450000Y-50125000D02*
X127250000Y-50125000D01*
X132125022Y-50125000D02*
X132125011Y-50124989D01*
X133750000Y-50125000D02*
X132125022Y-50125000D01*
X135374986Y-50125000D02*
X135374993Y-50124993D01*
X133750000Y-50125000D02*
X135374986Y-50125000D01*
X123875016Y-50125000D02*
X123875008Y-50125008D01*
X125450000Y-50125000D02*
X123875016Y-50125000D01*
X135375000Y-63875000D02*
X135375003Y-63875003D01*
X133750000Y-63875000D02*
X135375000Y-63875000D01*
X125450000Y-63875000D02*
X123875006Y-63875000D01*
X123875006Y-63875000D02*
X123875003Y-63875003D01*
X132125024Y-63875000D02*
X132125012Y-63875012D01*
X133750000Y-63875000D02*
X132125024Y-63875000D01*
X111050000Y-65600000D02*
X111050000Y-64300012D01*
X111050000Y-64300012D02*
X111050006Y-64300006D01*
X117000000Y-60500000D02*
X118250000Y-60500000D01*
X110125000Y-59500000D02*
X110125000Y-61500000D01*
X102999980Y-56100000D02*
X102999984Y-56100004D01*
X101165000Y-56100000D02*
X102999980Y-56100000D01*
%TO.N,+12V*%
X112850000Y-68575000D02*
X113000000Y-68725000D01*
X111050000Y-68575000D02*
X112850000Y-68575000D01*
D21*
X113000000Y-69220000D02*
X113000000Y-68725000D01*
X114800000Y-71020000D02*
X113000000Y-69220000D01*
X114800000Y-71720000D02*
X114800000Y-71020000D01*
D20*
X108050000Y-52500000D02*
X112000000Y-56450000D01*
X104244998Y-52500000D02*
X108050000Y-52500000D01*
X101165000Y-54100000D02*
X102644998Y-54100000D01*
X102644998Y-54100000D02*
X104244998Y-52500000D01*
X115250000Y-59625000D02*
X113500000Y-59625000D01*
X112000000Y-59625000D02*
X111875000Y-59500000D01*
X113500000Y-59625000D02*
X112000000Y-59625000D01*
X111875000Y-56575000D02*
X112000000Y-56450000D01*
X111875000Y-59500000D02*
X111875000Y-56575000D01*
X109099990Y-66624990D02*
X109099990Y-57650010D01*
X111557002Y-56500000D02*
X111607002Y-56450000D01*
X111607002Y-56450000D02*
X112000000Y-56450000D01*
X111050000Y-68575000D02*
X109099990Y-66624990D01*
X110250000Y-56500000D02*
X111557002Y-56500000D01*
X109099990Y-57650010D02*
X110250000Y-56500000D01*
D22*
%TO.N,Net-(C4-Pad1)*%
X114750000Y-69500000D02*
X114750000Y-68725000D01*
X115300000Y-71720000D02*
X115300000Y-70050000D01*
X115300000Y-70050000D02*
X114750000Y-69500000D01*
D20*
%TO.N,+3V3*%
X119742500Y-54400000D02*
X119742500Y-56492500D01*
X119742500Y-56492500D02*
X120500000Y-57250000D01*
X121625000Y-57250000D02*
X121750000Y-57125000D01*
X120500000Y-57250000D02*
X121625000Y-57250000D01*
X128050000Y-56900000D02*
X129399984Y-56900000D01*
X129399984Y-56900000D02*
X129399992Y-56899992D01*
X125500000Y-68525000D02*
X125500000Y-69750000D01*
X116500000Y-68650000D02*
X116500000Y-69750000D01*
X122374990Y-59625000D02*
X122374995Y-59624995D01*
X121250000Y-59625000D02*
X122374990Y-59625000D01*
X119500000Y-59550000D02*
X119500000Y-58750000D01*
X119500000Y-61450000D02*
X119500000Y-59550000D01*
X119500000Y-61450000D02*
X119500000Y-62250000D01*
X119742500Y-54400000D02*
X119742500Y-52257500D01*
X119742500Y-52257500D02*
X120250000Y-51750000D01*
D21*
X126800000Y-72950000D02*
X126750000Y-73000000D01*
X126800000Y-71720000D02*
X126800000Y-72950000D01*
X115800000Y-72699992D02*
X115749992Y-72750000D01*
X115800000Y-71720000D02*
X115800000Y-72699992D01*
D20*
X105335000Y-54100000D02*
X107099996Y-54100000D01*
X107099996Y-54100000D02*
X107099998Y-54099998D01*
D22*
%TO.N,/OLED_RST*%
X110450013Y-77950013D02*
X103099989Y-70599989D01*
X120431385Y-77950013D02*
X110450013Y-77950013D01*
X124300000Y-71720000D02*
X124300000Y-74081398D01*
X103099989Y-70599989D02*
X103099989Y-64034989D01*
X124300000Y-74081398D02*
X120431385Y-77950013D01*
X103099989Y-64034989D02*
X101165000Y-62100000D01*
%TO.N,/OLED_DC*%
X102655000Y-60100000D02*
X101165000Y-60100000D01*
X120265696Y-77550002D02*
X110615702Y-77550002D01*
X123800000Y-71720000D02*
X123800000Y-74015698D01*
X103500000Y-60945000D02*
X102655000Y-60100000D01*
X110615702Y-77550002D02*
X103500000Y-70434300D01*
X123800000Y-74015698D02*
X120265696Y-77550002D01*
X103500000Y-70434300D02*
X103500000Y-60945000D01*
%TO.N,/OLED_CS*%
X120100007Y-77149991D02*
X110781391Y-77149991D01*
X123300000Y-73949998D02*
X120100007Y-77149991D01*
X110781391Y-77149991D02*
X107250000Y-73618600D01*
X107250000Y-73618600D02*
X107250000Y-60525000D01*
X123300000Y-71720000D02*
X123300000Y-73949998D01*
X107250000Y-60525000D02*
X106825000Y-60100000D01*
X106825000Y-60100000D02*
X105335000Y-60100000D01*
%TO.N,Net-(K1-Pad22)*%
X124800000Y-69925000D02*
X124800000Y-71720000D01*
X123500000Y-68625000D02*
X124800000Y-69925000D01*
%TO.N,Net-(K1-Pad5)*%
X118500000Y-68920000D02*
X118500000Y-68625000D01*
X116300000Y-71120000D02*
X118500000Y-68920000D01*
X116300000Y-71720000D02*
X116300000Y-71120000D01*
D20*
%TO.N,Net-(C6-Pad1)*%
X115250000Y-61375000D02*
X113500000Y-61375000D01*
X113500000Y-61375000D02*
X111750000Y-61375000D01*
D23*
X115325000Y-61450000D02*
X115250000Y-61375000D01*
X117000000Y-61450000D02*
X115325000Y-61450000D01*
D22*
%TO.N,Net-(C10-Pad1)*%
X127250000Y-71670000D02*
X127300000Y-71720000D01*
X127250000Y-68625000D02*
X127250000Y-71670000D01*
X128750000Y-68625000D02*
X127250000Y-68625000D01*
D23*
%TO.N,Net-(D1-Pad1)*%
X120300000Y-68250000D02*
X120250000Y-68200000D01*
X121750000Y-68250000D02*
X120300000Y-68250000D01*
%TO.N,Net-(D1-Pad2)*%
X118575000Y-66800000D02*
X118500000Y-66875000D01*
X120250000Y-66800000D02*
X118575000Y-66800000D01*
D20*
%TO.N,Net-(D3-Pad2)*%
X112000000Y-51112500D02*
X115287500Y-54400000D01*
X112000000Y-51050000D02*
X112000000Y-51112500D01*
X117000000Y-56112500D02*
X115287500Y-54400000D01*
X117000000Y-59550000D02*
X117000000Y-56112500D01*
D22*
%TO.N,/SPI_MISO*%
X127950000Y-53500000D02*
X128050000Y-53600000D01*
X125000000Y-53500000D02*
X127950000Y-53500000D01*
X101315000Y-58250000D02*
X101165000Y-58100000D01*
X103000000Y-58250000D02*
X101315000Y-58250000D01*
%TO.N,/SPI_SCK*%
X128050000Y-55800000D02*
X125050000Y-55800000D01*
X125050000Y-55800000D02*
X125000000Y-55750000D01*
X107099988Y-58100000D02*
X107250000Y-58250012D01*
X105335000Y-58100000D02*
X107099988Y-58100000D01*
X120800000Y-71720000D02*
X120800000Y-72801701D01*
X120800000Y-72801701D02*
X116851721Y-76749980D01*
X116851721Y-76749980D02*
X110947080Y-76749980D01*
X107650013Y-58650025D02*
X107250000Y-58250012D01*
X107650013Y-73452913D02*
X107650013Y-58650025D01*
X110947080Y-76749980D02*
X107650013Y-73452913D01*
%TO.N,/SPI_MOSI*%
X106825000Y-56100000D02*
X105335000Y-56100000D01*
X107500000Y-56775000D02*
X106825000Y-56100000D01*
X127000000Y-58000000D02*
X126250000Y-57250000D01*
X128050000Y-58000000D02*
X127000000Y-58000000D01*
X108250000Y-57525000D02*
X107500000Y-56775000D01*
X108250000Y-73487200D02*
X108250000Y-57525000D01*
X120300000Y-72736001D02*
X116686032Y-76349969D01*
X111112769Y-76349969D02*
X108250000Y-73487200D01*
X116686032Y-76349969D02*
X111112769Y-76349969D01*
X120300000Y-71720000D02*
X120300000Y-72736001D01*
%TO.N,/SD_CS*%
X128050000Y-59100000D02*
X126150008Y-59100000D01*
X126150008Y-59100000D02*
X126150004Y-59099996D01*
X105335000Y-68835000D02*
X105500000Y-69000000D01*
X105335000Y-62100000D02*
X105335000Y-68835000D01*
%TD*%
D24*
%TO.N,GND*%
G36*
X123919463Y-49045506D02*
G01*
X123860498Y-49155820D01*
X123824188Y-49275518D01*
X123811928Y-49400000D01*
X123815000Y-49839250D01*
X123973750Y-49998000D01*
X125323000Y-49998000D01*
X125323000Y-49978000D01*
X125577000Y-49978000D01*
X125577000Y-49998000D01*
X126926250Y-49998000D01*
X127085000Y-49839250D01*
X127088072Y-49400000D01*
X127075812Y-49275518D01*
X127039502Y-49155820D01*
X126980537Y-49045506D01*
X126968632Y-49031000D01*
X132231368Y-49031000D01*
X132219463Y-49045506D01*
X132160498Y-49155820D01*
X132124188Y-49275518D01*
X132111928Y-49400000D01*
X132115000Y-49839250D01*
X132273750Y-49998000D01*
X133623000Y-49998000D01*
X133623000Y-49978000D01*
X133877000Y-49978000D01*
X133877000Y-49998000D01*
X135226250Y-49998000D01*
X135385000Y-49839250D01*
X135388072Y-49400000D01*
X135375812Y-49275518D01*
X135339502Y-49155820D01*
X135280537Y-49045506D01*
X135268632Y-49031000D01*
X137869000Y-49031000D01*
X137869001Y-83369000D01*
X103131000Y-83369000D01*
X103131000Y-72030998D01*
X103134053Y-72000000D01*
X103121870Y-71876302D01*
X103085789Y-71757358D01*
X103027196Y-71647739D01*
X102948343Y-71551657D01*
X102852261Y-71472804D01*
X102742642Y-71414211D01*
X102623698Y-71378130D01*
X102530998Y-71369000D01*
X102500000Y-71365947D01*
X102469002Y-71369000D01*
X99381000Y-71369000D01*
X99381000Y-56999015D01*
X99423815Y-57051185D01*
X99520506Y-57130537D01*
X99630820Y-57189502D01*
X99750518Y-57225812D01*
X99784874Y-57229196D01*
X99728492Y-57246299D01*
X99662304Y-57281678D01*
X99604289Y-57329289D01*
X99556678Y-57387304D01*
X99521299Y-57453492D01*
X99499513Y-57525311D01*
X99492157Y-57600000D01*
X99492157Y-58600000D01*
X99499513Y-58674689D01*
X99521299Y-58746508D01*
X99556678Y-58812696D01*
X99604289Y-58870711D01*
X99662304Y-58918322D01*
X99728492Y-58953701D01*
X99800311Y-58975487D01*
X99875000Y-58982843D01*
X102455000Y-58982843D01*
X102529689Y-58975487D01*
X102601508Y-58953701D01*
X102627004Y-58940073D01*
X102630058Y-58942113D01*
X102772191Y-59000987D01*
X102923078Y-59031000D01*
X103076922Y-59031000D01*
X103227809Y-59000987D01*
X103369942Y-58942113D01*
X103497859Y-58856642D01*
X103606642Y-58747859D01*
X103667717Y-58656453D01*
X103669513Y-58674689D01*
X103691299Y-58746508D01*
X103726678Y-58812696D01*
X103774289Y-58870711D01*
X103832304Y-58918322D01*
X103898492Y-58953701D01*
X103970311Y-58975487D01*
X104045000Y-58982843D01*
X106625000Y-58982843D01*
X106699689Y-58975487D01*
X106771508Y-58953701D01*
X106837696Y-58918322D01*
X106840720Y-58915840D01*
X106880058Y-58942125D01*
X107022191Y-59000999D01*
X107169014Y-59030204D01*
X107169014Y-59760978D01*
X107166764Y-59758236D01*
X107093522Y-59698128D01*
X107009961Y-59653464D01*
X107007843Y-59652822D01*
X107007843Y-59600000D01*
X107000487Y-59525311D01*
X106978701Y-59453492D01*
X106943322Y-59387304D01*
X106895711Y-59329289D01*
X106837696Y-59281678D01*
X106771508Y-59246299D01*
X106699689Y-59224513D01*
X106625000Y-59217157D01*
X104045000Y-59217157D01*
X103970311Y-59224513D01*
X103898492Y-59246299D01*
X103832304Y-59281678D01*
X103774289Y-59329289D01*
X103726678Y-59387304D01*
X103691299Y-59453492D01*
X103669513Y-59525311D01*
X103662157Y-59600000D01*
X103662157Y-60426920D01*
X103011830Y-59776594D01*
X102996764Y-59758236D01*
X102923522Y-59698128D01*
X102839961Y-59653464D01*
X102837843Y-59652822D01*
X102837843Y-59600000D01*
X102830487Y-59525311D01*
X102808701Y-59453492D01*
X102773322Y-59387304D01*
X102725711Y-59329289D01*
X102667696Y-59281678D01*
X102601508Y-59246299D01*
X102529689Y-59224513D01*
X102455000Y-59217157D01*
X99875000Y-59217157D01*
X99800311Y-59224513D01*
X99728492Y-59246299D01*
X99662304Y-59281678D01*
X99604289Y-59329289D01*
X99556678Y-59387304D01*
X99521299Y-59453492D01*
X99499513Y-59525311D01*
X99492157Y-59600000D01*
X99492157Y-60600000D01*
X99499513Y-60674689D01*
X99521299Y-60746508D01*
X99556678Y-60812696D01*
X99604289Y-60870711D01*
X99662304Y-60918322D01*
X99728492Y-60953701D01*
X99800311Y-60975487D01*
X99875000Y-60982843D01*
X102455000Y-60982843D01*
X102529689Y-60975487D01*
X102601508Y-60953701D01*
X102667696Y-60918322D01*
X102725711Y-60870711D01*
X102734619Y-60859856D01*
X103019001Y-61144238D01*
X103019001Y-63273764D01*
X102665000Y-62919763D01*
X102667696Y-62918322D01*
X102725711Y-62870711D01*
X102773322Y-62812696D01*
X102808701Y-62746508D01*
X102830487Y-62674689D01*
X102837843Y-62600000D01*
X102837843Y-61600000D01*
X102830487Y-61525311D01*
X102808701Y-61453492D01*
X102773322Y-61387304D01*
X102725711Y-61329289D01*
X102667696Y-61281678D01*
X102601508Y-61246299D01*
X102529689Y-61224513D01*
X102455000Y-61217157D01*
X99875000Y-61217157D01*
X99800311Y-61224513D01*
X99728492Y-61246299D01*
X99662304Y-61281678D01*
X99604289Y-61329289D01*
X99556678Y-61387304D01*
X99521299Y-61453492D01*
X99499513Y-61525311D01*
X99492157Y-61600000D01*
X99492157Y-62600000D01*
X99499513Y-62674689D01*
X99521299Y-62746508D01*
X99556678Y-62812696D01*
X99604289Y-62870711D01*
X99662304Y-62918322D01*
X99728492Y-62953701D01*
X99800311Y-62975487D01*
X99875000Y-62982843D01*
X101367607Y-62982843D01*
X102618990Y-64234227D01*
X102618989Y-70576363D01*
X102616662Y-70599989D01*
X102618989Y-70623614D01*
X102625949Y-70694280D01*
X102653453Y-70784949D01*
X102698117Y-70868511D01*
X102758225Y-70941753D01*
X102776583Y-70956819D01*
X110093183Y-78273419D01*
X110108249Y-78291777D01*
X110181491Y-78351885D01*
X110220387Y-78372675D01*
X110265051Y-78396549D01*
X110355720Y-78424053D01*
X110450013Y-78433340D01*
X110473639Y-78431013D01*
X120407759Y-78431013D01*
X120431385Y-78433340D01*
X120455011Y-78431013D01*
X120525677Y-78424053D01*
X120616346Y-78396549D01*
X120699907Y-78351885D01*
X120773149Y-78291777D01*
X120788215Y-78273419D01*
X123891634Y-75170000D01*
X129411928Y-75170000D01*
X129424188Y-75294482D01*
X129460498Y-75414180D01*
X129519463Y-75524494D01*
X129598815Y-75621185D01*
X129695506Y-75700537D01*
X129805820Y-75759502D01*
X129925518Y-75795812D01*
X130050000Y-75808072D01*
X130964250Y-75805000D01*
X131123000Y-75646250D01*
X131123000Y-73772000D01*
X131377000Y-73772000D01*
X131377000Y-75646250D01*
X131535750Y-75805000D01*
X132450000Y-75808072D01*
X132574482Y-75795812D01*
X132694180Y-75759502D01*
X132804494Y-75700537D01*
X132901185Y-75621185D01*
X132980537Y-75524494D01*
X133039502Y-75414180D01*
X133075812Y-75294482D01*
X133088072Y-75170000D01*
X133085000Y-73930750D01*
X132926250Y-73772000D01*
X131377000Y-73772000D01*
X131123000Y-73772000D01*
X129573750Y-73772000D01*
X129415000Y-73930750D01*
X129411928Y-75170000D01*
X123891634Y-75170000D01*
X124623412Y-74438223D01*
X124641764Y-74423162D01*
X124701872Y-74349920D01*
X124746536Y-74266359D01*
X124774040Y-74175690D01*
X124781000Y-74105024D01*
X124783327Y-74081398D01*
X124781000Y-74057772D01*
X124781000Y-72502843D01*
X124950000Y-72502843D01*
X125024689Y-72495487D01*
X125050000Y-72487809D01*
X125075311Y-72495487D01*
X125150000Y-72502843D01*
X125450000Y-72502843D01*
X125524689Y-72495487D01*
X125550000Y-72487809D01*
X125575311Y-72495487D01*
X125650000Y-72502843D01*
X125950000Y-72502843D01*
X126024689Y-72495487D01*
X126050000Y-72487809D01*
X126075311Y-72495487D01*
X126143328Y-72502186D01*
X126057887Y-72630058D01*
X125999013Y-72772191D01*
X125969000Y-72923078D01*
X125969000Y-73076922D01*
X125999013Y-73227809D01*
X126057887Y-73369942D01*
X126143358Y-73497859D01*
X126252141Y-73606642D01*
X126380058Y-73692113D01*
X126522191Y-73750987D01*
X126673078Y-73781000D01*
X126826922Y-73781000D01*
X126977809Y-73750987D01*
X127119942Y-73692113D01*
X127247859Y-73606642D01*
X127356642Y-73497859D01*
X127442113Y-73369942D01*
X127500987Y-73227809D01*
X127531000Y-73076922D01*
X127531000Y-72923078D01*
X127500987Y-72772191D01*
X127485268Y-72734242D01*
X127511706Y-72742905D01*
X127618250Y-72755000D01*
X127777000Y-72596250D01*
X127777000Y-72316461D01*
X127800000Y-72273432D01*
X127823000Y-72316461D01*
X127823000Y-72596250D01*
X127981750Y-72755000D01*
X128088294Y-72742905D01*
X128207160Y-72703956D01*
X128300000Y-72651659D01*
X128392840Y-72703956D01*
X128511706Y-72742905D01*
X128618250Y-72755000D01*
X128777000Y-72596250D01*
X128777000Y-72316461D01*
X128803701Y-72266508D01*
X128823000Y-72202888D01*
X128823000Y-72596250D01*
X128981750Y-72755000D01*
X129088294Y-72742905D01*
X129207160Y-72703956D01*
X129316143Y-72642566D01*
X129411055Y-72561094D01*
X129413015Y-72558595D01*
X129415000Y-73359250D01*
X129573750Y-73518000D01*
X131123000Y-73518000D01*
X131123000Y-71643750D01*
X131377000Y-71643750D01*
X131377000Y-73518000D01*
X132926250Y-73518000D01*
X133085000Y-73359250D01*
X133088072Y-72120000D01*
X133075812Y-71995518D01*
X133039502Y-71875820D01*
X132980537Y-71765506D01*
X132901185Y-71668815D01*
X132804494Y-71589463D01*
X132694180Y-71530498D01*
X132574482Y-71494188D01*
X132450000Y-71481928D01*
X131535750Y-71485000D01*
X131377000Y-71643750D01*
X131123000Y-71643750D01*
X130964250Y-71485000D01*
X130050000Y-71481928D01*
X129925518Y-71494188D01*
X129805820Y-71530498D01*
X129695506Y-71589463D01*
X129598815Y-71668815D01*
X129585000Y-71685649D01*
X129585000Y-71592998D01*
X129426252Y-71592998D01*
X129585000Y-71434250D01*
X129587916Y-71334114D01*
X129578412Y-71209392D01*
X129544759Y-71088920D01*
X129488249Y-70977328D01*
X129411055Y-70878906D01*
X129316143Y-70797434D01*
X129207160Y-70736044D01*
X129088294Y-70697095D01*
X128981750Y-70685000D01*
X128823000Y-70843750D01*
X128823000Y-71237112D01*
X128803701Y-71173492D01*
X128777000Y-71123539D01*
X128777000Y-70843750D01*
X128618250Y-70685000D01*
X128511706Y-70697095D01*
X128392840Y-70736044D01*
X128300000Y-70788341D01*
X128207160Y-70736044D01*
X128088294Y-70697095D01*
X127981750Y-70685000D01*
X127823000Y-70843750D01*
X127823000Y-71123539D01*
X127800000Y-71166568D01*
X127777000Y-71123539D01*
X127777000Y-70843750D01*
X127731000Y-70797750D01*
X127731000Y-69482359D01*
X127832144Y-69428296D01*
X127926149Y-69351149D01*
X128000000Y-69261160D01*
X128073851Y-69351149D01*
X128167856Y-69428296D01*
X128275105Y-69485622D01*
X128391477Y-69520923D01*
X128512500Y-69532843D01*
X128987500Y-69532843D01*
X129108523Y-69520923D01*
X129224895Y-69485622D01*
X129332144Y-69428296D01*
X129426149Y-69351149D01*
X129503296Y-69257144D01*
X129560622Y-69149895D01*
X129595923Y-69033523D01*
X129607843Y-68912500D01*
X129607843Y-68337500D01*
X129595923Y-68216477D01*
X129560622Y-68100105D01*
X129503296Y-67992856D01*
X129490980Y-67977849D01*
X129579494Y-67930537D01*
X129676185Y-67851185D01*
X129755537Y-67754494D01*
X129814502Y-67644180D01*
X129850812Y-67524482D01*
X129863072Y-67400000D01*
X129860000Y-67160750D01*
X129701250Y-67002000D01*
X128877000Y-67002000D01*
X128877000Y-67022000D01*
X128623000Y-67022000D01*
X128623000Y-67002000D01*
X127377000Y-67002000D01*
X127377000Y-67022000D01*
X127123000Y-67022000D01*
X127123000Y-67002000D01*
X127103000Y-67002000D01*
X127103000Y-66748000D01*
X127123000Y-66748000D01*
X127123000Y-65873750D01*
X127377000Y-65873750D01*
X127377000Y-66748000D01*
X128623000Y-66748000D01*
X128623000Y-65873750D01*
X128877000Y-65873750D01*
X128877000Y-66748000D01*
X129701250Y-66748000D01*
X129860000Y-66589250D01*
X129863072Y-66350000D01*
X129850812Y-66225518D01*
X129814502Y-66105820D01*
X129755537Y-65995506D01*
X129676185Y-65898815D01*
X129579494Y-65819463D01*
X129469180Y-65760498D01*
X129349482Y-65724188D01*
X129225000Y-65711928D01*
X129035750Y-65715000D01*
X128877000Y-65873750D01*
X128623000Y-65873750D01*
X128464250Y-65715000D01*
X128275000Y-65711928D01*
X128150518Y-65724188D01*
X128030820Y-65760498D01*
X128000000Y-65776972D01*
X127969180Y-65760498D01*
X127849482Y-65724188D01*
X127725000Y-65711928D01*
X127535750Y-65715000D01*
X127377000Y-65873750D01*
X127123000Y-65873750D01*
X126964250Y-65715000D01*
X126806678Y-65712442D01*
X126789502Y-65655820D01*
X126730537Y-65545506D01*
X126651185Y-65448815D01*
X126554494Y-65369463D01*
X126444180Y-65310498D01*
X126324482Y-65274188D01*
X126200000Y-65261928D01*
X125785750Y-65265000D01*
X125627000Y-65423750D01*
X125627000Y-66348000D01*
X125647000Y-66348000D01*
X125647000Y-66602000D01*
X125627000Y-66602000D01*
X125627000Y-66622000D01*
X125373000Y-66622000D01*
X125373000Y-66602000D01*
X125353000Y-66602000D01*
X125353000Y-66348000D01*
X125373000Y-66348000D01*
X125373000Y-65423750D01*
X125214250Y-65265000D01*
X124800000Y-65261928D01*
X124675518Y-65274188D01*
X124555820Y-65310498D01*
X124445506Y-65369463D01*
X124348815Y-65448815D01*
X124269463Y-65545506D01*
X124210498Y-65655820D01*
X124182152Y-65749266D01*
X124099482Y-65724188D01*
X123975000Y-65711928D01*
X123785750Y-65715000D01*
X123627000Y-65873750D01*
X123627000Y-66748000D01*
X123647000Y-66748000D01*
X123647000Y-67002000D01*
X123627000Y-67002000D01*
X123627000Y-67022000D01*
X123373000Y-67022000D01*
X123373000Y-67002000D01*
X122601250Y-67002000D01*
X122576250Y-66977000D01*
X121877000Y-66977000D01*
X121877000Y-66997000D01*
X121623000Y-66997000D01*
X121623000Y-66977000D01*
X121603000Y-66977000D01*
X121603000Y-66723000D01*
X121623000Y-66723000D01*
X121623000Y-66073750D01*
X121877000Y-66073750D01*
X121877000Y-66723000D01*
X122523750Y-66723000D01*
X122548750Y-66748000D01*
X123373000Y-66748000D01*
X123373000Y-65873750D01*
X123214250Y-65715000D01*
X123025000Y-65711928D01*
X122900518Y-65724188D01*
X122780820Y-65760498D01*
X122670506Y-65819463D01*
X122573815Y-65898815D01*
X122494463Y-65995506D01*
X122473375Y-66034958D01*
X122454494Y-66019463D01*
X122344180Y-65960498D01*
X122224482Y-65924188D01*
X122100000Y-65911928D01*
X122035750Y-65915000D01*
X121877000Y-66073750D01*
X121623000Y-66073750D01*
X121464250Y-65915000D01*
X121400000Y-65911928D01*
X121275518Y-65924188D01*
X121155820Y-65960498D01*
X121045506Y-66019463D01*
X120948815Y-66098815D01*
X120869463Y-66195506D01*
X120857292Y-66218276D01*
X120812696Y-66181678D01*
X120746508Y-66146299D01*
X120674689Y-66124513D01*
X120600000Y-66117157D01*
X119900000Y-66117157D01*
X119825311Y-66124513D01*
X119753492Y-66146299D01*
X119687304Y-66181678D01*
X119641826Y-66219000D01*
X119233718Y-66219000D01*
X119176149Y-66148851D01*
X119082144Y-66071704D01*
X118974895Y-66014378D01*
X118858523Y-65979077D01*
X118737500Y-65967157D01*
X118262500Y-65967157D01*
X118141477Y-65979077D01*
X118025105Y-66014378D01*
X117917856Y-66071704D01*
X117836870Y-66138167D01*
X117838072Y-66025000D01*
X117825812Y-65900518D01*
X117789502Y-65780820D01*
X117730537Y-65670506D01*
X117651185Y-65573815D01*
X117554494Y-65494463D01*
X117444180Y-65435498D01*
X117324482Y-65399188D01*
X117200000Y-65386928D01*
X116785750Y-65390000D01*
X116627000Y-65548750D01*
X116627000Y-66473000D01*
X116647000Y-66473000D01*
X116647000Y-66727000D01*
X116627000Y-66727000D01*
X116627000Y-66747000D01*
X116373000Y-66747000D01*
X116373000Y-66727000D01*
X116353000Y-66727000D01*
X116353000Y-66473000D01*
X116373000Y-66473000D01*
X116373000Y-65548750D01*
X116214250Y-65390000D01*
X115800000Y-65386928D01*
X115675518Y-65399188D01*
X115555820Y-65435498D01*
X115445506Y-65494463D01*
X115348815Y-65573815D01*
X115269463Y-65670506D01*
X115210498Y-65780820D01*
X115200943Y-65812319D01*
X115035750Y-65815000D01*
X114877000Y-65973750D01*
X114877000Y-66848000D01*
X114897000Y-66848000D01*
X114897000Y-67102000D01*
X114877000Y-67102000D01*
X114877000Y-67122000D01*
X114623000Y-67122000D01*
X114623000Y-67102000D01*
X113127000Y-67102000D01*
X113127000Y-67122000D01*
X112873000Y-67122000D01*
X112873000Y-67102000D01*
X112048750Y-67102000D01*
X111890000Y-67260750D01*
X111886928Y-67500000D01*
X111888822Y-67519227D01*
X111798462Y-67491817D01*
X111675000Y-67479657D01*
X110917736Y-67479657D01*
X110387542Y-66949464D01*
X110764250Y-66947500D01*
X110923000Y-66788750D01*
X110923000Y-65727000D01*
X111177000Y-65727000D01*
X111177000Y-66788750D01*
X111335750Y-66947500D01*
X111925000Y-66950572D01*
X112049482Y-66938312D01*
X112169180Y-66902002D01*
X112270209Y-66848000D01*
X112873000Y-66848000D01*
X112873000Y-65973750D01*
X113127000Y-65973750D01*
X113127000Y-66848000D01*
X114623000Y-66848000D01*
X114623000Y-65973750D01*
X114464250Y-65815000D01*
X114275000Y-65811928D01*
X114150518Y-65824188D01*
X114030820Y-65860498D01*
X113920506Y-65919463D01*
X113875000Y-65956809D01*
X113829494Y-65919463D01*
X113719180Y-65860498D01*
X113599482Y-65824188D01*
X113475000Y-65811928D01*
X113285750Y-65815000D01*
X113127000Y-65973750D01*
X112873000Y-65973750D01*
X112714250Y-65815000D01*
X112525000Y-65811928D01*
X112489659Y-65815409D01*
X112401250Y-65727000D01*
X111177000Y-65727000D01*
X110923000Y-65727000D01*
X110903000Y-65727000D01*
X110903000Y-65473000D01*
X110923000Y-65473000D01*
X110923000Y-64411250D01*
X111177000Y-64411250D01*
X111177000Y-65473000D01*
X112401250Y-65473000D01*
X112560000Y-65314250D01*
X112563072Y-64887500D01*
X112550812Y-64763018D01*
X112514502Y-64643320D01*
X112491347Y-64600000D01*
X123811928Y-64600000D01*
X123824188Y-64724482D01*
X123860498Y-64844180D01*
X123919463Y-64954494D01*
X123998815Y-65051185D01*
X124095506Y-65130537D01*
X124205820Y-65189502D01*
X124325518Y-65225812D01*
X124450000Y-65238072D01*
X125164250Y-65235000D01*
X125323000Y-65076250D01*
X125323000Y-64002000D01*
X125577000Y-64002000D01*
X125577000Y-65076250D01*
X125735750Y-65235000D01*
X126450000Y-65238072D01*
X126574482Y-65225812D01*
X126694180Y-65189502D01*
X126804494Y-65130537D01*
X126901185Y-65051185D01*
X126980537Y-64954494D01*
X127039502Y-64844180D01*
X127075812Y-64724482D01*
X127088072Y-64600000D01*
X132111928Y-64600000D01*
X132124188Y-64724482D01*
X132160498Y-64844180D01*
X132219463Y-64954494D01*
X132298815Y-65051185D01*
X132395506Y-65130537D01*
X132505820Y-65189502D01*
X132625518Y-65225812D01*
X132750000Y-65238072D01*
X133464250Y-65235000D01*
X133623000Y-65076250D01*
X133623000Y-64002000D01*
X133877000Y-64002000D01*
X133877000Y-65076250D01*
X134035750Y-65235000D01*
X134750000Y-65238072D01*
X134874482Y-65225812D01*
X134994180Y-65189502D01*
X135104494Y-65130537D01*
X135201185Y-65051185D01*
X135280537Y-64954494D01*
X135339502Y-64844180D01*
X135375812Y-64724482D01*
X135388072Y-64600000D01*
X135385000Y-64160750D01*
X135226250Y-64002000D01*
X133877000Y-64002000D01*
X133623000Y-64002000D01*
X132273750Y-64002000D01*
X132115000Y-64160750D01*
X132111928Y-64600000D01*
X127088072Y-64600000D01*
X127085000Y-64160750D01*
X126926250Y-64002000D01*
X125577000Y-64002000D01*
X125323000Y-64002000D01*
X123973750Y-64002000D01*
X123815000Y-64160750D01*
X123811928Y-64600000D01*
X112491347Y-64600000D01*
X112455537Y-64533006D01*
X112376185Y-64436315D01*
X112279494Y-64356963D01*
X112169180Y-64297998D01*
X112049482Y-64261688D01*
X111925000Y-64249428D01*
X111335750Y-64252500D01*
X111177000Y-64411250D01*
X110923000Y-64411250D01*
X110764250Y-64252500D01*
X110175000Y-64249428D01*
X110050518Y-64261688D01*
X109930820Y-64297998D01*
X109820506Y-64356963D01*
X109780990Y-64389393D01*
X109780990Y-63150000D01*
X123811928Y-63150000D01*
X123815000Y-63589250D01*
X123973750Y-63748000D01*
X125323000Y-63748000D01*
X125323000Y-62673750D01*
X125577000Y-62673750D01*
X125577000Y-63748000D01*
X126926250Y-63748000D01*
X127085000Y-63589250D01*
X127088072Y-63150000D01*
X132111928Y-63150000D01*
X132115000Y-63589250D01*
X132273750Y-63748000D01*
X133623000Y-63748000D01*
X133623000Y-62673750D01*
X133877000Y-62673750D01*
X133877000Y-63748000D01*
X135226250Y-63748000D01*
X135385000Y-63589250D01*
X135388072Y-63150000D01*
X135375812Y-63025518D01*
X135339502Y-62905820D01*
X135280537Y-62795506D01*
X135201185Y-62698815D01*
X135104494Y-62619463D01*
X134994180Y-62560498D01*
X134874482Y-62524188D01*
X134750000Y-62511928D01*
X134035750Y-62515000D01*
X133877000Y-62673750D01*
X133623000Y-62673750D01*
X133464250Y-62515000D01*
X132750000Y-62511928D01*
X132625518Y-62524188D01*
X132505820Y-62560498D01*
X132395506Y-62619463D01*
X132298815Y-62698815D01*
X132219463Y-62795506D01*
X132160498Y-62905820D01*
X132124188Y-63025518D01*
X132111928Y-63150000D01*
X127088072Y-63150000D01*
X127075812Y-63025518D01*
X127039502Y-62905820D01*
X126980537Y-62795506D01*
X126901185Y-62698815D01*
X126804494Y-62619463D01*
X126694180Y-62560498D01*
X126574482Y-62524188D01*
X126450000Y-62511928D01*
X125735750Y-62515000D01*
X125577000Y-62673750D01*
X125323000Y-62673750D01*
X125164250Y-62515000D01*
X124450000Y-62511928D01*
X124325518Y-62524188D01*
X124205820Y-62560498D01*
X124095506Y-62619463D01*
X123998815Y-62698815D01*
X123919463Y-62795506D01*
X123860498Y-62905820D01*
X123824188Y-63025518D01*
X123811928Y-63150000D01*
X109780990Y-63150000D01*
X109780990Y-62610748D01*
X109839250Y-62610000D01*
X109998000Y-62451250D01*
X109998000Y-61627000D01*
X109978000Y-61627000D01*
X109978000Y-61373000D01*
X109998000Y-61373000D01*
X109998000Y-60548750D01*
X109949250Y-60500000D01*
X109998000Y-60451250D01*
X109998000Y-59627000D01*
X109978000Y-59627000D01*
X109978000Y-59373000D01*
X109998000Y-59373000D01*
X109998000Y-58548750D01*
X109839250Y-58390000D01*
X109780990Y-58389252D01*
X109780990Y-57932088D01*
X110119000Y-57594078D01*
X110119000Y-58250000D01*
X110126243Y-58323938D01*
X110147850Y-58395434D01*
X110182989Y-58461341D01*
X110252000Y-58564858D01*
X110252000Y-59373000D01*
X110272000Y-59373000D01*
X110272000Y-59627000D01*
X110252000Y-59627000D01*
X110252000Y-60451250D01*
X110300750Y-60500000D01*
X110252000Y-60548750D01*
X110252000Y-61373000D01*
X110272000Y-61373000D01*
X110272000Y-61627000D01*
X110252000Y-61627000D01*
X110252000Y-62451250D01*
X110410750Y-62610000D01*
X110650000Y-62613072D01*
X110774482Y-62600812D01*
X110894180Y-62564502D01*
X111004494Y-62505537D01*
X111101185Y-62426185D01*
X111180537Y-62329494D01*
X111227849Y-62240980D01*
X111242856Y-62253296D01*
X111350105Y-62310622D01*
X111466477Y-62345923D01*
X111587500Y-62357843D01*
X112162500Y-62357843D01*
X112283523Y-62345923D01*
X112399895Y-62310622D01*
X112507144Y-62253296D01*
X112601149Y-62176149D01*
X112678296Y-62082144D01*
X112692270Y-62056000D01*
X112786799Y-62056000D01*
X112823851Y-62101149D01*
X112917856Y-62178296D01*
X113025105Y-62235622D01*
X113141477Y-62270923D01*
X113262500Y-62282843D01*
X113737500Y-62282843D01*
X113858523Y-62270923D01*
X113974895Y-62235622D01*
X114082144Y-62178296D01*
X114176149Y-62101149D01*
X114213201Y-62056000D01*
X114536799Y-62056000D01*
X114573851Y-62101149D01*
X114667856Y-62178296D01*
X114775105Y-62235622D01*
X114891477Y-62270923D01*
X115012500Y-62282843D01*
X115487500Y-62282843D01*
X115608523Y-62270923D01*
X115724895Y-62235622D01*
X115832144Y-62178296D01*
X115926149Y-62101149D01*
X115983718Y-62031000D01*
X116166826Y-62031000D01*
X116212304Y-62068322D01*
X116278492Y-62103701D01*
X116350311Y-62125487D01*
X116425000Y-62132843D01*
X117575000Y-62132843D01*
X117649689Y-62125487D01*
X117721508Y-62103701D01*
X117787696Y-62068322D01*
X117845711Y-62020711D01*
X117893322Y-61962696D01*
X117928701Y-61896508D01*
X117950487Y-61824689D01*
X117957843Y-61750000D01*
X117957843Y-61307272D01*
X118026185Y-61251185D01*
X118105537Y-61154494D01*
X118164502Y-61044180D01*
X118200812Y-60924482D01*
X118213072Y-60800000D01*
X118210000Y-60785750D01*
X118051250Y-60627000D01*
X117127000Y-60627000D01*
X117127000Y-60647000D01*
X116873000Y-60647000D01*
X116873000Y-60627000D01*
X116853000Y-60627000D01*
X116853000Y-60373000D01*
X116873000Y-60373000D01*
X116873000Y-60353000D01*
X117127000Y-60353000D01*
X117127000Y-60373000D01*
X118051250Y-60373000D01*
X118210000Y-60214250D01*
X118213072Y-60200000D01*
X118200812Y-60075518D01*
X118164502Y-59955820D01*
X118105537Y-59845506D01*
X118026185Y-59748815D01*
X117957843Y-59692728D01*
X117957843Y-59250000D01*
X118542157Y-59250000D01*
X118542157Y-59850000D01*
X118549513Y-59924689D01*
X118571299Y-59996508D01*
X118606678Y-60062696D01*
X118654289Y-60120711D01*
X118712304Y-60168322D01*
X118778492Y-60203701D01*
X118819001Y-60215989D01*
X118819000Y-60784011D01*
X118778492Y-60796299D01*
X118712304Y-60831678D01*
X118654289Y-60879289D01*
X118606678Y-60937304D01*
X118571299Y-61003492D01*
X118549513Y-61075311D01*
X118542157Y-61150000D01*
X118542157Y-61750000D01*
X118549513Y-61824689D01*
X118571299Y-61896508D01*
X118606678Y-61962696D01*
X118654289Y-62020711D01*
X118712304Y-62068322D01*
X118737191Y-62081625D01*
X118719000Y-62173078D01*
X118719000Y-62326922D01*
X118749013Y-62477809D01*
X118807887Y-62619942D01*
X118893358Y-62747859D01*
X119002141Y-62856642D01*
X119130058Y-62942113D01*
X119272191Y-63000987D01*
X119423078Y-63031000D01*
X119576922Y-63031000D01*
X119727809Y-63000987D01*
X119869942Y-62942113D01*
X119997859Y-62856642D01*
X120106642Y-62747859D01*
X120192113Y-62619942D01*
X120250987Y-62477809D01*
X120281000Y-62326922D01*
X120281000Y-62299015D01*
X120323815Y-62351185D01*
X120420506Y-62430537D01*
X120530820Y-62489502D01*
X120650518Y-62525812D01*
X120775000Y-62538072D01*
X120964250Y-62535000D01*
X121123000Y-62376250D01*
X121123000Y-61502000D01*
X121377000Y-61502000D01*
X121377000Y-62376250D01*
X121535750Y-62535000D01*
X121725000Y-62538072D01*
X121849482Y-62525812D01*
X121969180Y-62489502D01*
X122079494Y-62430537D01*
X122176185Y-62351185D01*
X122255537Y-62254494D01*
X122314502Y-62144180D01*
X122350812Y-62024482D01*
X122363072Y-61900000D01*
X122360000Y-61660750D01*
X122201250Y-61502000D01*
X121377000Y-61502000D01*
X121123000Y-61502000D01*
X121103000Y-61502000D01*
X121103000Y-61248000D01*
X121123000Y-61248000D01*
X121123000Y-61228000D01*
X121377000Y-61228000D01*
X121377000Y-61248000D01*
X122201250Y-61248000D01*
X122360000Y-61089250D01*
X122363072Y-60850000D01*
X122350812Y-60725518D01*
X122314502Y-60605820D01*
X122255537Y-60495506D01*
X122176185Y-60398815D01*
X122148739Y-60376291D01*
X122298073Y-60405995D01*
X122451917Y-60405995D01*
X122602804Y-60375982D01*
X122744937Y-60317108D01*
X122872854Y-60231637D01*
X122981637Y-60122854D01*
X123067108Y-59994937D01*
X123125982Y-59852804D01*
X123155995Y-59701917D01*
X123155995Y-59548073D01*
X123125982Y-59397186D01*
X123067108Y-59255053D01*
X122981637Y-59127136D01*
X122872854Y-59018353D01*
X122744937Y-58932882D01*
X122602804Y-58874008D01*
X122451917Y-58843995D01*
X122298073Y-58843995D01*
X122147186Y-58874008D01*
X122005053Y-58932882D01*
X121988414Y-58944000D01*
X121963201Y-58944000D01*
X121926149Y-58898851D01*
X121832144Y-58821704D01*
X121724895Y-58764378D01*
X121608523Y-58729077D01*
X121487500Y-58717157D01*
X121012500Y-58717157D01*
X120891477Y-58729077D01*
X120775105Y-58764378D01*
X120667856Y-58821704D01*
X120573851Y-58898851D01*
X120496704Y-58992856D01*
X120439378Y-59100105D01*
X120433526Y-59119397D01*
X120428701Y-59103492D01*
X120393322Y-59037304D01*
X120345711Y-58979289D01*
X120287696Y-58931678D01*
X120262809Y-58918375D01*
X120281000Y-58826922D01*
X120281000Y-58673078D01*
X120250987Y-58522191D01*
X120192113Y-58380058D01*
X120106642Y-58252141D01*
X119997859Y-58143358D01*
X119869942Y-58057887D01*
X119727809Y-57999013D01*
X119576922Y-57969000D01*
X119423078Y-57969000D01*
X119272191Y-57999013D01*
X119130058Y-58057887D01*
X119002141Y-58143358D01*
X118893358Y-58252141D01*
X118807887Y-58380058D01*
X118749013Y-58522191D01*
X118719000Y-58673078D01*
X118719000Y-58826922D01*
X118737191Y-58918375D01*
X118712304Y-58931678D01*
X118654289Y-58979289D01*
X118606678Y-59037304D01*
X118571299Y-59103492D01*
X118549513Y-59175311D01*
X118542157Y-59250000D01*
X117957843Y-59250000D01*
X117950487Y-59175311D01*
X117928701Y-59103492D01*
X117893322Y-59037304D01*
X117845711Y-58979289D01*
X117787696Y-58931678D01*
X117721508Y-58896299D01*
X117681000Y-58884011D01*
X117681000Y-56145953D01*
X117684295Y-56112500D01*
X117671146Y-55979001D01*
X117658413Y-55937027D01*
X117632206Y-55850632D01*
X117568970Y-55732326D01*
X117483870Y-55628630D01*
X117457879Y-55607300D01*
X116197843Y-54347265D01*
X116197843Y-53724731D01*
X117012685Y-52983138D01*
X117073322Y-52912696D01*
X117108701Y-52846508D01*
X117130487Y-52774689D01*
X117137843Y-52700000D01*
X117137843Y-51645000D01*
X117892157Y-51645000D01*
X117892157Y-52700000D01*
X117903439Y-52792258D01*
X117928578Y-52862973D01*
X117967028Y-52927425D01*
X118017315Y-52983138D01*
X118832157Y-53724731D01*
X118832157Y-55075269D01*
X118017315Y-55816862D01*
X117956678Y-55887304D01*
X117921299Y-55953492D01*
X117899513Y-56025311D01*
X117892157Y-56100000D01*
X117892157Y-57155000D01*
X117899513Y-57229689D01*
X117921299Y-57301508D01*
X117956678Y-57367696D01*
X118004289Y-57425711D01*
X118062304Y-57473322D01*
X118128492Y-57508701D01*
X118200311Y-57530487D01*
X118275000Y-57537843D01*
X119215000Y-57537843D01*
X119289689Y-57530487D01*
X119361508Y-57508701D01*
X119427696Y-57473322D01*
X119485711Y-57425711D01*
X119599172Y-57312250D01*
X119745110Y-57458189D01*
X119749013Y-57477809D01*
X119807887Y-57619942D01*
X119893358Y-57747859D01*
X120002141Y-57856642D01*
X120130058Y-57942113D01*
X120272191Y-58000987D01*
X120423078Y-58031000D01*
X120576922Y-58031000D01*
X120727809Y-58000987D01*
X120869942Y-57942113D01*
X120886574Y-57931000D01*
X121172915Y-57931000D01*
X121275105Y-57985622D01*
X121391477Y-58020923D01*
X121512500Y-58032843D01*
X121987500Y-58032843D01*
X122108523Y-58020923D01*
X122224895Y-57985622D01*
X122332144Y-57928296D01*
X122426149Y-57851149D01*
X122503296Y-57757144D01*
X122560622Y-57649895D01*
X122595923Y-57533523D01*
X122607843Y-57412500D01*
X122607843Y-56837500D01*
X122595923Y-56716477D01*
X122560622Y-56600105D01*
X122503296Y-56492856D01*
X122490980Y-56477849D01*
X122579494Y-56430537D01*
X122676185Y-56351185D01*
X122755537Y-56254494D01*
X122814502Y-56144180D01*
X122850812Y-56024482D01*
X122863072Y-55900000D01*
X122860159Y-55673078D01*
X124219000Y-55673078D01*
X124219000Y-55826922D01*
X124249013Y-55977809D01*
X124307887Y-56119942D01*
X124393358Y-56247859D01*
X124502141Y-56356642D01*
X124630058Y-56442113D01*
X124772191Y-56500987D01*
X124923078Y-56531000D01*
X125076922Y-56531000D01*
X125227809Y-56500987D01*
X125369942Y-56442113D01*
X125497859Y-56356642D01*
X125573501Y-56281000D01*
X126926427Y-56281000D01*
X126946299Y-56346508D01*
X126948166Y-56350000D01*
X126946299Y-56353492D01*
X126924513Y-56425311D01*
X126917157Y-56500000D01*
X126917157Y-56842709D01*
X126856642Y-56752141D01*
X126747859Y-56643358D01*
X126619942Y-56557887D01*
X126477809Y-56499013D01*
X126326922Y-56469000D01*
X126173078Y-56469000D01*
X126022191Y-56499013D01*
X125880058Y-56557887D01*
X125752141Y-56643358D01*
X125643358Y-56752141D01*
X125557887Y-56880058D01*
X125499013Y-57022191D01*
X125469000Y-57173078D01*
X125469000Y-57326922D01*
X125499013Y-57477809D01*
X125557887Y-57619942D01*
X125643358Y-57747859D01*
X125752141Y-57856642D01*
X125880058Y-57942113D01*
X126022191Y-58000987D01*
X126173078Y-58031000D01*
X126326922Y-58031000D01*
X126346808Y-58027044D01*
X126643174Y-58323411D01*
X126658236Y-58341764D01*
X126731478Y-58401872D01*
X126815039Y-58446536D01*
X126863845Y-58461341D01*
X126905707Y-58474040D01*
X126924889Y-58475929D01*
X126946299Y-58546508D01*
X126948166Y-58550000D01*
X126946299Y-58553492D01*
X126926427Y-58619000D01*
X126767913Y-58619000D01*
X126756646Y-58602137D01*
X126647863Y-58493354D01*
X126519946Y-58407883D01*
X126377813Y-58349009D01*
X126226926Y-58318996D01*
X126073082Y-58318996D01*
X125922195Y-58349009D01*
X125780062Y-58407883D01*
X125652145Y-58493354D01*
X125543362Y-58602137D01*
X125457891Y-58730054D01*
X125399017Y-58872187D01*
X125369004Y-59023074D01*
X125369004Y-59176918D01*
X125399017Y-59327805D01*
X125457891Y-59469938D01*
X125543362Y-59597855D01*
X125652145Y-59706638D01*
X125780062Y-59792109D01*
X125922195Y-59850983D01*
X126073082Y-59880996D01*
X126226926Y-59880996D01*
X126377813Y-59850983D01*
X126519946Y-59792109D01*
X126647863Y-59706638D01*
X126756646Y-59597855D01*
X126767908Y-59581000D01*
X126926427Y-59581000D01*
X126946299Y-59646508D01*
X126948166Y-59650000D01*
X126946299Y-59653492D01*
X126924513Y-59725311D01*
X126917157Y-59800000D01*
X126917157Y-60600000D01*
X126924513Y-60674689D01*
X126946299Y-60746508D01*
X126981678Y-60812696D01*
X127029289Y-60870711D01*
X127087304Y-60918322D01*
X127153492Y-60953701D01*
X127225311Y-60975487D01*
X127300000Y-60982843D01*
X128800000Y-60982843D01*
X128874689Y-60975487D01*
X128946508Y-60953701D01*
X129012696Y-60918322D01*
X129070711Y-60870711D01*
X129118322Y-60812696D01*
X129153701Y-60746508D01*
X129175487Y-60674689D01*
X129182843Y-60600000D01*
X129182843Y-59800000D01*
X129175487Y-59725311D01*
X129153701Y-59653492D01*
X129151834Y-59650000D01*
X129153701Y-59646508D01*
X129175487Y-59574689D01*
X129182843Y-59500000D01*
X129182843Y-58700000D01*
X129175487Y-58625311D01*
X129153701Y-58553492D01*
X129151834Y-58550000D01*
X129153701Y-58546508D01*
X129175487Y-58474689D01*
X129182843Y-58400000D01*
X129182843Y-57653099D01*
X129323070Y-57680992D01*
X129476914Y-57680992D01*
X129627801Y-57650979D01*
X129769934Y-57592105D01*
X129897851Y-57506634D01*
X130006634Y-57397851D01*
X130092105Y-57269934D01*
X130150979Y-57127801D01*
X130180992Y-56976914D01*
X130180992Y-56823070D01*
X130150979Y-56672183D01*
X130092105Y-56530050D01*
X130006634Y-56402133D01*
X129897851Y-56293350D01*
X129769934Y-56207879D01*
X129627801Y-56149005D01*
X129476914Y-56118992D01*
X129323070Y-56118992D01*
X129182843Y-56146885D01*
X129182843Y-55607272D01*
X129251185Y-55551185D01*
X129330537Y-55454494D01*
X129389502Y-55344180D01*
X129425812Y-55224482D01*
X129438072Y-55100000D01*
X129435000Y-54985750D01*
X129276250Y-54827000D01*
X128177000Y-54827000D01*
X128177000Y-54847000D01*
X127923000Y-54847000D01*
X127923000Y-54827000D01*
X126823750Y-54827000D01*
X126665000Y-54985750D01*
X126661928Y-55100000D01*
X126674188Y-55224482D01*
X126702860Y-55319000D01*
X125651316Y-55319000D01*
X125606642Y-55252141D01*
X125497859Y-55143358D01*
X125369942Y-55057887D01*
X125227809Y-54999013D01*
X125076922Y-54969000D01*
X124923078Y-54969000D01*
X124772191Y-54999013D01*
X124630058Y-55057887D01*
X124502141Y-55143358D01*
X124393358Y-55252141D01*
X124307887Y-55380058D01*
X124249013Y-55522191D01*
X124219000Y-55673078D01*
X122860159Y-55673078D01*
X122860000Y-55660750D01*
X122701250Y-55502000D01*
X121877000Y-55502000D01*
X121877000Y-55522000D01*
X121623000Y-55522000D01*
X121623000Y-55502000D01*
X121603000Y-55502000D01*
X121603000Y-55248000D01*
X121623000Y-55248000D01*
X121623000Y-54373750D01*
X121877000Y-54373750D01*
X121877000Y-55248000D01*
X122701250Y-55248000D01*
X122860000Y-55089250D01*
X122863072Y-54850000D01*
X122850812Y-54725518D01*
X122814502Y-54605820D01*
X122755537Y-54495506D01*
X122676185Y-54398815D01*
X122579494Y-54319463D01*
X122469180Y-54260498D01*
X122349482Y-54224188D01*
X122225000Y-54211928D01*
X122035750Y-54215000D01*
X121877000Y-54373750D01*
X121623000Y-54373750D01*
X121464250Y-54215000D01*
X121275000Y-54211928D01*
X121150518Y-54224188D01*
X121030820Y-54260498D01*
X120920506Y-54319463D01*
X120823815Y-54398815D01*
X120744463Y-54495506D01*
X120685498Y-54605820D01*
X120652843Y-54713469D01*
X120652843Y-53423078D01*
X124219000Y-53423078D01*
X124219000Y-53576922D01*
X124249013Y-53727809D01*
X124307887Y-53869942D01*
X124393358Y-53997859D01*
X124502141Y-54106642D01*
X124630058Y-54192113D01*
X124772191Y-54250987D01*
X124923078Y-54281000D01*
X125076922Y-54281000D01*
X125227809Y-54250987D01*
X125369942Y-54192113D01*
X125497859Y-54106642D01*
X125606642Y-53997859D01*
X125617907Y-53981000D01*
X126750491Y-53981000D01*
X126710498Y-54055820D01*
X126674188Y-54175518D01*
X126661928Y-54300000D01*
X126665000Y-54414250D01*
X126823750Y-54573000D01*
X127923000Y-54573000D01*
X127923000Y-54553000D01*
X128177000Y-54553000D01*
X128177000Y-54573000D01*
X129276250Y-54573000D01*
X129435000Y-54414250D01*
X129438072Y-54300000D01*
X129425812Y-54175518D01*
X129389502Y-54055820D01*
X129330537Y-53945506D01*
X129251185Y-53848815D01*
X129182843Y-53792728D01*
X129182843Y-53200000D01*
X129175487Y-53125311D01*
X129153701Y-53053492D01*
X129151834Y-53050000D01*
X129153701Y-53046508D01*
X129175487Y-52974689D01*
X129182843Y-52900000D01*
X129182843Y-52100000D01*
X129175487Y-52025311D01*
X129153701Y-51953492D01*
X129118322Y-51887304D01*
X129070711Y-51829289D01*
X129012696Y-51781678D01*
X128946508Y-51746299D01*
X128874689Y-51724513D01*
X128800000Y-51717157D01*
X127300000Y-51717157D01*
X127225311Y-51724513D01*
X127153492Y-51746299D01*
X127087304Y-51781678D01*
X127029289Y-51829289D01*
X126981678Y-51887304D01*
X126946299Y-51953492D01*
X126924513Y-52025311D01*
X126917157Y-52100000D01*
X126917157Y-52900000D01*
X126924513Y-52974689D01*
X126937955Y-53019000D01*
X125617907Y-53019000D01*
X125606642Y-53002141D01*
X125497859Y-52893358D01*
X125369942Y-52807887D01*
X125227809Y-52749013D01*
X125076922Y-52719000D01*
X124923078Y-52719000D01*
X124772191Y-52749013D01*
X124630058Y-52807887D01*
X124502141Y-52893358D01*
X124393358Y-53002141D01*
X124307887Y-53130058D01*
X124249013Y-53272191D01*
X124219000Y-53423078D01*
X120652843Y-53423078D01*
X120652843Y-52700000D01*
X120645487Y-52625311D01*
X120623701Y-52553492D01*
X120588322Y-52487304D01*
X120568666Y-52463353D01*
X120619942Y-52442113D01*
X120747859Y-52356642D01*
X120856642Y-52247859D01*
X120942113Y-52119942D01*
X121000987Y-51977809D01*
X121031000Y-51826922D01*
X121031000Y-51673078D01*
X121000987Y-51522191D01*
X120942113Y-51380058D01*
X120856642Y-51252141D01*
X120747859Y-51143358D01*
X120619942Y-51057887D01*
X120477809Y-50999013D01*
X120326922Y-50969000D01*
X120173078Y-50969000D01*
X120022191Y-50999013D01*
X119880058Y-51057887D01*
X119752141Y-51143358D01*
X119643358Y-51252141D01*
X119557887Y-51380058D01*
X119538437Y-51427015D01*
X119485711Y-51374289D01*
X119427696Y-51326678D01*
X119361508Y-51291299D01*
X119289689Y-51269513D01*
X119215000Y-51262157D01*
X118275000Y-51262157D01*
X118200311Y-51269513D01*
X118128492Y-51291299D01*
X118062304Y-51326678D01*
X118004289Y-51374289D01*
X117956678Y-51432304D01*
X117921299Y-51498492D01*
X117899513Y-51570311D01*
X117892157Y-51645000D01*
X117137843Y-51645000D01*
X117130487Y-51570311D01*
X117108701Y-51498492D01*
X117073322Y-51432304D01*
X117025711Y-51374289D01*
X116967696Y-51326678D01*
X116901508Y-51291299D01*
X116829689Y-51269513D01*
X116755000Y-51262157D01*
X115815000Y-51262157D01*
X115740311Y-51269513D01*
X115668492Y-51291299D01*
X115602304Y-51326678D01*
X115544289Y-51374289D01*
X114489289Y-52429289D01*
X114441678Y-52487304D01*
X114406299Y-52553492D01*
X114405780Y-52555202D01*
X113532843Y-51682265D01*
X113532843Y-50850000D01*
X123811928Y-50850000D01*
X123824188Y-50974482D01*
X123860498Y-51094180D01*
X123919463Y-51204494D01*
X123998815Y-51301185D01*
X124095506Y-51380537D01*
X124205820Y-51439502D01*
X124325518Y-51475812D01*
X124450000Y-51488072D01*
X125164250Y-51485000D01*
X125323000Y-51326250D01*
X125323000Y-50252000D01*
X125577000Y-50252000D01*
X125577000Y-51326250D01*
X125735750Y-51485000D01*
X126450000Y-51488072D01*
X126574482Y-51475812D01*
X126694180Y-51439502D01*
X126804494Y-51380537D01*
X126901185Y-51301185D01*
X126980537Y-51204494D01*
X127039502Y-51094180D01*
X127075812Y-50974482D01*
X127088072Y-50850000D01*
X132111928Y-50850000D01*
X132124188Y-50974482D01*
X132160498Y-51094180D01*
X132219463Y-51204494D01*
X132298815Y-51301185D01*
X132395506Y-51380537D01*
X132505820Y-51439502D01*
X132625518Y-51475812D01*
X132750000Y-51488072D01*
X133464250Y-51485000D01*
X133623000Y-51326250D01*
X133623000Y-50252000D01*
X133877000Y-50252000D01*
X133877000Y-51326250D01*
X134035750Y-51485000D01*
X134750000Y-51488072D01*
X134874482Y-51475812D01*
X134994180Y-51439502D01*
X135104494Y-51380537D01*
X135201185Y-51301185D01*
X135280537Y-51204494D01*
X135339502Y-51094180D01*
X135375812Y-50974482D01*
X135388072Y-50850000D01*
X135385000Y-50410750D01*
X135226250Y-50252000D01*
X133877000Y-50252000D01*
X133623000Y-50252000D01*
X132273750Y-50252000D01*
X132115000Y-50410750D01*
X132111928Y-50850000D01*
X127088072Y-50850000D01*
X127085000Y-50410750D01*
X126926250Y-50252000D01*
X125577000Y-50252000D01*
X125323000Y-50252000D01*
X123973750Y-50252000D01*
X123815000Y-50410750D01*
X123811928Y-50850000D01*
X113532843Y-50850000D01*
X113532843Y-49300000D01*
X113525487Y-49225311D01*
X113503701Y-49153492D01*
X113468322Y-49087304D01*
X113422115Y-49031000D01*
X123931368Y-49031000D01*
X123919463Y-49045506D01*
G37*
X123919463Y-49045506D02*
X123860498Y-49155820D01*
X123824188Y-49275518D01*
X123811928Y-49400000D01*
X123815000Y-49839250D01*
X123973750Y-49998000D01*
X125323000Y-49998000D01*
X125323000Y-49978000D01*
X125577000Y-49978000D01*
X125577000Y-49998000D01*
X126926250Y-49998000D01*
X127085000Y-49839250D01*
X127088072Y-49400000D01*
X127075812Y-49275518D01*
X127039502Y-49155820D01*
X126980537Y-49045506D01*
X126968632Y-49031000D01*
X132231368Y-49031000D01*
X132219463Y-49045506D01*
X132160498Y-49155820D01*
X132124188Y-49275518D01*
X132111928Y-49400000D01*
X132115000Y-49839250D01*
X132273750Y-49998000D01*
X133623000Y-49998000D01*
X133623000Y-49978000D01*
X133877000Y-49978000D01*
X133877000Y-49998000D01*
X135226250Y-49998000D01*
X135385000Y-49839250D01*
X135388072Y-49400000D01*
X135375812Y-49275518D01*
X135339502Y-49155820D01*
X135280537Y-49045506D01*
X135268632Y-49031000D01*
X137869000Y-49031000D01*
X137869001Y-83369000D01*
X103131000Y-83369000D01*
X103131000Y-72030998D01*
X103134053Y-72000000D01*
X103121870Y-71876302D01*
X103085789Y-71757358D01*
X103027196Y-71647739D01*
X102948343Y-71551657D01*
X102852261Y-71472804D01*
X102742642Y-71414211D01*
X102623698Y-71378130D01*
X102530998Y-71369000D01*
X102500000Y-71365947D01*
X102469002Y-71369000D01*
X99381000Y-71369000D01*
X99381000Y-56999015D01*
X99423815Y-57051185D01*
X99520506Y-57130537D01*
X99630820Y-57189502D01*
X99750518Y-57225812D01*
X99784874Y-57229196D01*
X99728492Y-57246299D01*
X99662304Y-57281678D01*
X99604289Y-57329289D01*
X99556678Y-57387304D01*
X99521299Y-57453492D01*
X99499513Y-57525311D01*
X99492157Y-57600000D01*
X99492157Y-58600000D01*
X99499513Y-58674689D01*
X99521299Y-58746508D01*
X99556678Y-58812696D01*
X99604289Y-58870711D01*
X99662304Y-58918322D01*
X99728492Y-58953701D01*
X99800311Y-58975487D01*
X99875000Y-58982843D01*
X102455000Y-58982843D01*
X102529689Y-58975487D01*
X102601508Y-58953701D01*
X102627004Y-58940073D01*
X102630058Y-58942113D01*
X102772191Y-59000987D01*
X102923078Y-59031000D01*
X103076922Y-59031000D01*
X103227809Y-59000987D01*
X103369942Y-58942113D01*
X103497859Y-58856642D01*
X103606642Y-58747859D01*
X103667717Y-58656453D01*
X103669513Y-58674689D01*
X103691299Y-58746508D01*
X103726678Y-58812696D01*
X103774289Y-58870711D01*
X103832304Y-58918322D01*
X103898492Y-58953701D01*
X103970311Y-58975487D01*
X104045000Y-58982843D01*
X106625000Y-58982843D01*
X106699689Y-58975487D01*
X106771508Y-58953701D01*
X106837696Y-58918322D01*
X106840720Y-58915840D01*
X106880058Y-58942125D01*
X107022191Y-59000999D01*
X107169014Y-59030204D01*
X107169014Y-59760978D01*
X107166764Y-59758236D01*
X107093522Y-59698128D01*
X107009961Y-59653464D01*
X107007843Y-59652822D01*
X107007843Y-59600000D01*
X107000487Y-59525311D01*
X106978701Y-59453492D01*
X106943322Y-59387304D01*
X106895711Y-59329289D01*
X106837696Y-59281678D01*
X106771508Y-59246299D01*
X106699689Y-59224513D01*
X106625000Y-59217157D01*
X104045000Y-59217157D01*
X103970311Y-59224513D01*
X103898492Y-59246299D01*
X103832304Y-59281678D01*
X103774289Y-59329289D01*
X103726678Y-59387304D01*
X103691299Y-59453492D01*
X103669513Y-59525311D01*
X103662157Y-59600000D01*
X103662157Y-60426920D01*
X103011830Y-59776594D01*
X102996764Y-59758236D01*
X102923522Y-59698128D01*
X102839961Y-59653464D01*
X102837843Y-59652822D01*
X102837843Y-59600000D01*
X102830487Y-59525311D01*
X102808701Y-59453492D01*
X102773322Y-59387304D01*
X102725711Y-59329289D01*
X102667696Y-59281678D01*
X102601508Y-59246299D01*
X102529689Y-59224513D01*
X102455000Y-59217157D01*
X99875000Y-59217157D01*
X99800311Y-59224513D01*
X99728492Y-59246299D01*
X99662304Y-59281678D01*
X99604289Y-59329289D01*
X99556678Y-59387304D01*
X99521299Y-59453492D01*
X99499513Y-59525311D01*
X99492157Y-59600000D01*
X99492157Y-60600000D01*
X99499513Y-60674689D01*
X99521299Y-60746508D01*
X99556678Y-60812696D01*
X99604289Y-60870711D01*
X99662304Y-60918322D01*
X99728492Y-60953701D01*
X99800311Y-60975487D01*
X99875000Y-60982843D01*
X102455000Y-60982843D01*
X102529689Y-60975487D01*
X102601508Y-60953701D01*
X102667696Y-60918322D01*
X102725711Y-60870711D01*
X102734619Y-60859856D01*
X103019001Y-61144238D01*
X103019001Y-63273764D01*
X102665000Y-62919763D01*
X102667696Y-62918322D01*
X102725711Y-62870711D01*
X102773322Y-62812696D01*
X102808701Y-62746508D01*
X102830487Y-62674689D01*
X102837843Y-62600000D01*
X102837843Y-61600000D01*
X102830487Y-61525311D01*
X102808701Y-61453492D01*
X102773322Y-61387304D01*
X102725711Y-61329289D01*
X102667696Y-61281678D01*
X102601508Y-61246299D01*
X102529689Y-61224513D01*
X102455000Y-61217157D01*
X99875000Y-61217157D01*
X99800311Y-61224513D01*
X99728492Y-61246299D01*
X99662304Y-61281678D01*
X99604289Y-61329289D01*
X99556678Y-61387304D01*
X99521299Y-61453492D01*
X99499513Y-61525311D01*
X99492157Y-61600000D01*
X99492157Y-62600000D01*
X99499513Y-62674689D01*
X99521299Y-62746508D01*
X99556678Y-62812696D01*
X99604289Y-62870711D01*
X99662304Y-62918322D01*
X99728492Y-62953701D01*
X99800311Y-62975487D01*
X99875000Y-62982843D01*
X101367607Y-62982843D01*
X102618990Y-64234227D01*
X102618989Y-70576363D01*
X102616662Y-70599989D01*
X102618989Y-70623614D01*
X102625949Y-70694280D01*
X102653453Y-70784949D01*
X102698117Y-70868511D01*
X102758225Y-70941753D01*
X102776583Y-70956819D01*
X110093183Y-78273419D01*
X110108249Y-78291777D01*
X110181491Y-78351885D01*
X110220387Y-78372675D01*
X110265051Y-78396549D01*
X110355720Y-78424053D01*
X110450013Y-78433340D01*
X110473639Y-78431013D01*
X120407759Y-78431013D01*
X120431385Y-78433340D01*
X120455011Y-78431013D01*
X120525677Y-78424053D01*
X120616346Y-78396549D01*
X120699907Y-78351885D01*
X120773149Y-78291777D01*
X120788215Y-78273419D01*
X123891634Y-75170000D01*
X129411928Y-75170000D01*
X129424188Y-75294482D01*
X129460498Y-75414180D01*
X129519463Y-75524494D01*
X129598815Y-75621185D01*
X129695506Y-75700537D01*
X129805820Y-75759502D01*
X129925518Y-75795812D01*
X130050000Y-75808072D01*
X130964250Y-75805000D01*
X131123000Y-75646250D01*
X131123000Y-73772000D01*
X131377000Y-73772000D01*
X131377000Y-75646250D01*
X131535750Y-75805000D01*
X132450000Y-75808072D01*
X132574482Y-75795812D01*
X132694180Y-75759502D01*
X132804494Y-75700537D01*
X132901185Y-75621185D01*
X132980537Y-75524494D01*
X133039502Y-75414180D01*
X133075812Y-75294482D01*
X133088072Y-75170000D01*
X133085000Y-73930750D01*
X132926250Y-73772000D01*
X131377000Y-73772000D01*
X131123000Y-73772000D01*
X129573750Y-73772000D01*
X129415000Y-73930750D01*
X129411928Y-75170000D01*
X123891634Y-75170000D01*
X124623412Y-74438223D01*
X124641764Y-74423162D01*
X124701872Y-74349920D01*
X124746536Y-74266359D01*
X124774040Y-74175690D01*
X124781000Y-74105024D01*
X124783327Y-74081398D01*
X124781000Y-74057772D01*
X124781000Y-72502843D01*
X124950000Y-72502843D01*
X125024689Y-72495487D01*
X125050000Y-72487809D01*
X125075311Y-72495487D01*
X125150000Y-72502843D01*
X125450000Y-72502843D01*
X125524689Y-72495487D01*
X125550000Y-72487809D01*
X125575311Y-72495487D01*
X125650000Y-72502843D01*
X125950000Y-72502843D01*
X126024689Y-72495487D01*
X126050000Y-72487809D01*
X126075311Y-72495487D01*
X126143328Y-72502186D01*
X126057887Y-72630058D01*
X125999013Y-72772191D01*
X125969000Y-72923078D01*
X125969000Y-73076922D01*
X125999013Y-73227809D01*
X126057887Y-73369942D01*
X126143358Y-73497859D01*
X126252141Y-73606642D01*
X126380058Y-73692113D01*
X126522191Y-73750987D01*
X126673078Y-73781000D01*
X126826922Y-73781000D01*
X126977809Y-73750987D01*
X127119942Y-73692113D01*
X127247859Y-73606642D01*
X127356642Y-73497859D01*
X127442113Y-73369942D01*
X127500987Y-73227809D01*
X127531000Y-73076922D01*
X127531000Y-72923078D01*
X127500987Y-72772191D01*
X127485268Y-72734242D01*
X127511706Y-72742905D01*
X127618250Y-72755000D01*
X127777000Y-72596250D01*
X127777000Y-72316461D01*
X127800000Y-72273432D01*
X127823000Y-72316461D01*
X127823000Y-72596250D01*
X127981750Y-72755000D01*
X128088294Y-72742905D01*
X128207160Y-72703956D01*
X128300000Y-72651659D01*
X128392840Y-72703956D01*
X128511706Y-72742905D01*
X128618250Y-72755000D01*
X128777000Y-72596250D01*
X128777000Y-72316461D01*
X128803701Y-72266508D01*
X128823000Y-72202888D01*
X128823000Y-72596250D01*
X128981750Y-72755000D01*
X129088294Y-72742905D01*
X129207160Y-72703956D01*
X129316143Y-72642566D01*
X129411055Y-72561094D01*
X129413015Y-72558595D01*
X129415000Y-73359250D01*
X129573750Y-73518000D01*
X131123000Y-73518000D01*
X131123000Y-71643750D01*
X131377000Y-71643750D01*
X131377000Y-73518000D01*
X132926250Y-73518000D01*
X133085000Y-73359250D01*
X133088072Y-72120000D01*
X133075812Y-71995518D01*
X133039502Y-71875820D01*
X132980537Y-71765506D01*
X132901185Y-71668815D01*
X132804494Y-71589463D01*
X132694180Y-71530498D01*
X132574482Y-71494188D01*
X132450000Y-71481928D01*
X131535750Y-71485000D01*
X131377000Y-71643750D01*
X131123000Y-71643750D01*
X130964250Y-71485000D01*
X130050000Y-71481928D01*
X129925518Y-71494188D01*
X129805820Y-71530498D01*
X129695506Y-71589463D01*
X129598815Y-71668815D01*
X129585000Y-71685649D01*
X129585000Y-71592998D01*
X129426252Y-71592998D01*
X129585000Y-71434250D01*
X129587916Y-71334114D01*
X129578412Y-71209392D01*
X129544759Y-71088920D01*
X129488249Y-70977328D01*
X129411055Y-70878906D01*
X129316143Y-70797434D01*
X129207160Y-70736044D01*
X129088294Y-70697095D01*
X128981750Y-70685000D01*
X128823000Y-70843750D01*
X128823000Y-71237112D01*
X128803701Y-71173492D01*
X128777000Y-71123539D01*
X128777000Y-70843750D01*
X128618250Y-70685000D01*
X128511706Y-70697095D01*
X128392840Y-70736044D01*
X128300000Y-70788341D01*
X128207160Y-70736044D01*
X128088294Y-70697095D01*
X127981750Y-70685000D01*
X127823000Y-70843750D01*
X127823000Y-71123539D01*
X127800000Y-71166568D01*
X127777000Y-71123539D01*
X127777000Y-70843750D01*
X127731000Y-70797750D01*
X127731000Y-69482359D01*
X127832144Y-69428296D01*
X127926149Y-69351149D01*
X128000000Y-69261160D01*
X128073851Y-69351149D01*
X128167856Y-69428296D01*
X128275105Y-69485622D01*
X128391477Y-69520923D01*
X128512500Y-69532843D01*
X128987500Y-69532843D01*
X129108523Y-69520923D01*
X129224895Y-69485622D01*
X129332144Y-69428296D01*
X129426149Y-69351149D01*
X129503296Y-69257144D01*
X129560622Y-69149895D01*
X129595923Y-69033523D01*
X129607843Y-68912500D01*
X129607843Y-68337500D01*
X129595923Y-68216477D01*
X129560622Y-68100105D01*
X129503296Y-67992856D01*
X129490980Y-67977849D01*
X129579494Y-67930537D01*
X129676185Y-67851185D01*
X129755537Y-67754494D01*
X129814502Y-67644180D01*
X129850812Y-67524482D01*
X129863072Y-67400000D01*
X129860000Y-67160750D01*
X129701250Y-67002000D01*
X128877000Y-67002000D01*
X128877000Y-67022000D01*
X128623000Y-67022000D01*
X128623000Y-67002000D01*
X127377000Y-67002000D01*
X127377000Y-67022000D01*
X127123000Y-67022000D01*
X127123000Y-67002000D01*
X127103000Y-67002000D01*
X127103000Y-66748000D01*
X127123000Y-66748000D01*
X127123000Y-65873750D01*
X127377000Y-65873750D01*
X127377000Y-66748000D01*
X128623000Y-66748000D01*
X128623000Y-65873750D01*
X128877000Y-65873750D01*
X128877000Y-66748000D01*
X129701250Y-66748000D01*
X129860000Y-66589250D01*
X129863072Y-66350000D01*
X129850812Y-66225518D01*
X129814502Y-66105820D01*
X129755537Y-65995506D01*
X129676185Y-65898815D01*
X129579494Y-65819463D01*
X129469180Y-65760498D01*
X129349482Y-65724188D01*
X129225000Y-65711928D01*
X129035750Y-65715000D01*
X128877000Y-65873750D01*
X128623000Y-65873750D01*
X128464250Y-65715000D01*
X128275000Y-65711928D01*
X128150518Y-65724188D01*
X128030820Y-65760498D01*
X128000000Y-65776972D01*
X127969180Y-65760498D01*
X127849482Y-65724188D01*
X127725000Y-65711928D01*
X127535750Y-65715000D01*
X127377000Y-65873750D01*
X127123000Y-65873750D01*
X126964250Y-65715000D01*
X126806678Y-65712442D01*
X126789502Y-65655820D01*
X126730537Y-65545506D01*
X126651185Y-65448815D01*
X126554494Y-65369463D01*
X126444180Y-65310498D01*
X126324482Y-65274188D01*
X126200000Y-65261928D01*
X125785750Y-65265000D01*
X125627000Y-65423750D01*
X125627000Y-66348000D01*
X125647000Y-66348000D01*
X125647000Y-66602000D01*
X125627000Y-66602000D01*
X125627000Y-66622000D01*
X125373000Y-66622000D01*
X125373000Y-66602000D01*
X125353000Y-66602000D01*
X125353000Y-66348000D01*
X125373000Y-66348000D01*
X125373000Y-65423750D01*
X125214250Y-65265000D01*
X124800000Y-65261928D01*
X124675518Y-65274188D01*
X124555820Y-65310498D01*
X124445506Y-65369463D01*
X124348815Y-65448815D01*
X124269463Y-65545506D01*
X124210498Y-65655820D01*
X124182152Y-65749266D01*
X124099482Y-65724188D01*
X123975000Y-65711928D01*
X123785750Y-65715000D01*
X123627000Y-65873750D01*
X123627000Y-66748000D01*
X123647000Y-66748000D01*
X123647000Y-67002000D01*
X123627000Y-67002000D01*
X123627000Y-67022000D01*
X123373000Y-67022000D01*
X123373000Y-67002000D01*
X122601250Y-67002000D01*
X122576250Y-66977000D01*
X121877000Y-66977000D01*
X121877000Y-66997000D01*
X121623000Y-66997000D01*
X121623000Y-66977000D01*
X121603000Y-66977000D01*
X121603000Y-66723000D01*
X121623000Y-66723000D01*
X121623000Y-66073750D01*
X121877000Y-66073750D01*
X121877000Y-66723000D01*
X122523750Y-66723000D01*
X122548750Y-66748000D01*
X123373000Y-66748000D01*
X123373000Y-65873750D01*
X123214250Y-65715000D01*
X123025000Y-65711928D01*
X122900518Y-65724188D01*
X122780820Y-65760498D01*
X122670506Y-65819463D01*
X122573815Y-65898815D01*
X122494463Y-65995506D01*
X122473375Y-66034958D01*
X122454494Y-66019463D01*
X122344180Y-65960498D01*
X122224482Y-65924188D01*
X122100000Y-65911928D01*
X122035750Y-65915000D01*
X121877000Y-66073750D01*
X121623000Y-66073750D01*
X121464250Y-65915000D01*
X121400000Y-65911928D01*
X121275518Y-65924188D01*
X121155820Y-65960498D01*
X121045506Y-66019463D01*
X120948815Y-66098815D01*
X120869463Y-66195506D01*
X120857292Y-66218276D01*
X120812696Y-66181678D01*
X120746508Y-66146299D01*
X120674689Y-66124513D01*
X120600000Y-66117157D01*
X119900000Y-66117157D01*
X119825311Y-66124513D01*
X119753492Y-66146299D01*
X119687304Y-66181678D01*
X119641826Y-66219000D01*
X119233718Y-66219000D01*
X119176149Y-66148851D01*
X119082144Y-66071704D01*
X118974895Y-66014378D01*
X118858523Y-65979077D01*
X118737500Y-65967157D01*
X118262500Y-65967157D01*
X118141477Y-65979077D01*
X118025105Y-66014378D01*
X117917856Y-66071704D01*
X117836870Y-66138167D01*
X117838072Y-66025000D01*
X117825812Y-65900518D01*
X117789502Y-65780820D01*
X117730537Y-65670506D01*
X117651185Y-65573815D01*
X117554494Y-65494463D01*
X117444180Y-65435498D01*
X117324482Y-65399188D01*
X117200000Y-65386928D01*
X116785750Y-65390000D01*
X116627000Y-65548750D01*
X116627000Y-66473000D01*
X116647000Y-66473000D01*
X116647000Y-66727000D01*
X116627000Y-66727000D01*
X116627000Y-66747000D01*
X116373000Y-66747000D01*
X116373000Y-66727000D01*
X116353000Y-66727000D01*
X116353000Y-66473000D01*
X116373000Y-66473000D01*
X116373000Y-65548750D01*
X116214250Y-65390000D01*
X115800000Y-65386928D01*
X115675518Y-65399188D01*
X115555820Y-65435498D01*
X115445506Y-65494463D01*
X115348815Y-65573815D01*
X115269463Y-65670506D01*
X115210498Y-65780820D01*
X115200943Y-65812319D01*
X115035750Y-65815000D01*
X114877000Y-65973750D01*
X114877000Y-66848000D01*
X114897000Y-66848000D01*
X114897000Y-67102000D01*
X114877000Y-67102000D01*
X114877000Y-67122000D01*
X114623000Y-67122000D01*
X114623000Y-67102000D01*
X113127000Y-67102000D01*
X113127000Y-67122000D01*
X112873000Y-67122000D01*
X112873000Y-67102000D01*
X112048750Y-67102000D01*
X111890000Y-67260750D01*
X111886928Y-67500000D01*
X111888822Y-67519227D01*
X111798462Y-67491817D01*
X111675000Y-67479657D01*
X110917736Y-67479657D01*
X110387542Y-66949464D01*
X110764250Y-66947500D01*
X110923000Y-66788750D01*
X110923000Y-65727000D01*
X111177000Y-65727000D01*
X111177000Y-66788750D01*
X111335750Y-66947500D01*
X111925000Y-66950572D01*
X112049482Y-66938312D01*
X112169180Y-66902002D01*
X112270209Y-66848000D01*
X112873000Y-66848000D01*
X112873000Y-65973750D01*
X113127000Y-65973750D01*
X113127000Y-66848000D01*
X114623000Y-66848000D01*
X114623000Y-65973750D01*
X114464250Y-65815000D01*
X114275000Y-65811928D01*
X114150518Y-65824188D01*
X114030820Y-65860498D01*
X113920506Y-65919463D01*
X113875000Y-65956809D01*
X113829494Y-65919463D01*
X113719180Y-65860498D01*
X113599482Y-65824188D01*
X113475000Y-65811928D01*
X113285750Y-65815000D01*
X113127000Y-65973750D01*
X112873000Y-65973750D01*
X112714250Y-65815000D01*
X112525000Y-65811928D01*
X112489659Y-65815409D01*
X112401250Y-65727000D01*
X111177000Y-65727000D01*
X110923000Y-65727000D01*
X110903000Y-65727000D01*
X110903000Y-65473000D01*
X110923000Y-65473000D01*
X110923000Y-64411250D01*
X111177000Y-64411250D01*
X111177000Y-65473000D01*
X112401250Y-65473000D01*
X112560000Y-65314250D01*
X112563072Y-64887500D01*
X112550812Y-64763018D01*
X112514502Y-64643320D01*
X112491347Y-64600000D01*
X123811928Y-64600000D01*
X123824188Y-64724482D01*
X123860498Y-64844180D01*
X123919463Y-64954494D01*
X123998815Y-65051185D01*
X124095506Y-65130537D01*
X124205820Y-65189502D01*
X124325518Y-65225812D01*
X124450000Y-65238072D01*
X125164250Y-65235000D01*
X125323000Y-65076250D01*
X125323000Y-64002000D01*
X125577000Y-64002000D01*
X125577000Y-65076250D01*
X125735750Y-65235000D01*
X126450000Y-65238072D01*
X126574482Y-65225812D01*
X126694180Y-65189502D01*
X126804494Y-65130537D01*
X126901185Y-65051185D01*
X126980537Y-64954494D01*
X127039502Y-64844180D01*
X127075812Y-64724482D01*
X127088072Y-64600000D01*
X132111928Y-64600000D01*
X132124188Y-64724482D01*
X132160498Y-64844180D01*
X132219463Y-64954494D01*
X132298815Y-65051185D01*
X132395506Y-65130537D01*
X132505820Y-65189502D01*
X132625518Y-65225812D01*
X132750000Y-65238072D01*
X133464250Y-65235000D01*
X133623000Y-65076250D01*
X133623000Y-64002000D01*
X133877000Y-64002000D01*
X133877000Y-65076250D01*
X134035750Y-65235000D01*
X134750000Y-65238072D01*
X134874482Y-65225812D01*
X134994180Y-65189502D01*
X135104494Y-65130537D01*
X135201185Y-65051185D01*
X135280537Y-64954494D01*
X135339502Y-64844180D01*
X135375812Y-64724482D01*
X135388072Y-64600000D01*
X135385000Y-64160750D01*
X135226250Y-64002000D01*
X133877000Y-64002000D01*
X133623000Y-64002000D01*
X132273750Y-64002000D01*
X132115000Y-64160750D01*
X132111928Y-64600000D01*
X127088072Y-64600000D01*
X127085000Y-64160750D01*
X126926250Y-64002000D01*
X125577000Y-64002000D01*
X125323000Y-64002000D01*
X123973750Y-64002000D01*
X123815000Y-64160750D01*
X123811928Y-64600000D01*
X112491347Y-64600000D01*
X112455537Y-64533006D01*
X112376185Y-64436315D01*
X112279494Y-64356963D01*
X112169180Y-64297998D01*
X112049482Y-64261688D01*
X111925000Y-64249428D01*
X111335750Y-64252500D01*
X111177000Y-64411250D01*
X110923000Y-64411250D01*
X110764250Y-64252500D01*
X110175000Y-64249428D01*
X110050518Y-64261688D01*
X109930820Y-64297998D01*
X109820506Y-64356963D01*
X109780990Y-64389393D01*
X109780990Y-63150000D01*
X123811928Y-63150000D01*
X123815000Y-63589250D01*
X123973750Y-63748000D01*
X125323000Y-63748000D01*
X125323000Y-62673750D01*
X125577000Y-62673750D01*
X125577000Y-63748000D01*
X126926250Y-63748000D01*
X127085000Y-63589250D01*
X127088072Y-63150000D01*
X132111928Y-63150000D01*
X132115000Y-63589250D01*
X132273750Y-63748000D01*
X133623000Y-63748000D01*
X133623000Y-62673750D01*
X133877000Y-62673750D01*
X133877000Y-63748000D01*
X135226250Y-63748000D01*
X135385000Y-63589250D01*
X135388072Y-63150000D01*
X135375812Y-63025518D01*
X135339502Y-62905820D01*
X135280537Y-62795506D01*
X135201185Y-62698815D01*
X135104494Y-62619463D01*
X134994180Y-62560498D01*
X134874482Y-62524188D01*
X134750000Y-62511928D01*
X134035750Y-62515000D01*
X133877000Y-62673750D01*
X133623000Y-62673750D01*
X133464250Y-62515000D01*
X132750000Y-62511928D01*
X132625518Y-62524188D01*
X132505820Y-62560498D01*
X132395506Y-62619463D01*
X132298815Y-62698815D01*
X132219463Y-62795506D01*
X132160498Y-62905820D01*
X132124188Y-63025518D01*
X132111928Y-63150000D01*
X127088072Y-63150000D01*
X127075812Y-63025518D01*
X127039502Y-62905820D01*
X126980537Y-62795506D01*
X126901185Y-62698815D01*
X126804494Y-62619463D01*
X126694180Y-62560498D01*
X126574482Y-62524188D01*
X126450000Y-62511928D01*
X125735750Y-62515000D01*
X125577000Y-62673750D01*
X125323000Y-62673750D01*
X125164250Y-62515000D01*
X124450000Y-62511928D01*
X124325518Y-62524188D01*
X124205820Y-62560498D01*
X124095506Y-62619463D01*
X123998815Y-62698815D01*
X123919463Y-62795506D01*
X123860498Y-62905820D01*
X123824188Y-63025518D01*
X123811928Y-63150000D01*
X109780990Y-63150000D01*
X109780990Y-62610748D01*
X109839250Y-62610000D01*
X109998000Y-62451250D01*
X109998000Y-61627000D01*
X109978000Y-61627000D01*
X109978000Y-61373000D01*
X109998000Y-61373000D01*
X109998000Y-60548750D01*
X109949250Y-60500000D01*
X109998000Y-60451250D01*
X109998000Y-59627000D01*
X109978000Y-59627000D01*
X109978000Y-59373000D01*
X109998000Y-59373000D01*
X109998000Y-58548750D01*
X109839250Y-58390000D01*
X109780990Y-58389252D01*
X109780990Y-57932088D01*
X110119000Y-57594078D01*
X110119000Y-58250000D01*
X110126243Y-58323938D01*
X110147850Y-58395434D01*
X110182989Y-58461341D01*
X110252000Y-58564858D01*
X110252000Y-59373000D01*
X110272000Y-59373000D01*
X110272000Y-59627000D01*
X110252000Y-59627000D01*
X110252000Y-60451250D01*
X110300750Y-60500000D01*
X110252000Y-60548750D01*
X110252000Y-61373000D01*
X110272000Y-61373000D01*
X110272000Y-61627000D01*
X110252000Y-61627000D01*
X110252000Y-62451250D01*
X110410750Y-62610000D01*
X110650000Y-62613072D01*
X110774482Y-62600812D01*
X110894180Y-62564502D01*
X111004494Y-62505537D01*
X111101185Y-62426185D01*
X111180537Y-62329494D01*
X111227849Y-62240980D01*
X111242856Y-62253296D01*
X111350105Y-62310622D01*
X111466477Y-62345923D01*
X111587500Y-62357843D01*
X112162500Y-62357843D01*
X112283523Y-62345923D01*
X112399895Y-62310622D01*
X112507144Y-62253296D01*
X112601149Y-62176149D01*
X112678296Y-62082144D01*
X112692270Y-62056000D01*
X112786799Y-62056000D01*
X112823851Y-62101149D01*
X112917856Y-62178296D01*
X113025105Y-62235622D01*
X113141477Y-62270923D01*
X113262500Y-62282843D01*
X113737500Y-62282843D01*
X113858523Y-62270923D01*
X113974895Y-62235622D01*
X114082144Y-62178296D01*
X114176149Y-62101149D01*
X114213201Y-62056000D01*
X114536799Y-62056000D01*
X114573851Y-62101149D01*
X114667856Y-62178296D01*
X114775105Y-62235622D01*
X114891477Y-62270923D01*
X115012500Y-62282843D01*
X115487500Y-62282843D01*
X115608523Y-62270923D01*
X115724895Y-62235622D01*
X115832144Y-62178296D01*
X115926149Y-62101149D01*
X115983718Y-62031000D01*
X116166826Y-62031000D01*
X116212304Y-62068322D01*
X116278492Y-62103701D01*
X116350311Y-62125487D01*
X116425000Y-62132843D01*
X117575000Y-62132843D01*
X117649689Y-62125487D01*
X117721508Y-62103701D01*
X117787696Y-62068322D01*
X117845711Y-62020711D01*
X117893322Y-61962696D01*
X117928701Y-61896508D01*
X117950487Y-61824689D01*
X117957843Y-61750000D01*
X117957843Y-61307272D01*
X118026185Y-61251185D01*
X118105537Y-61154494D01*
X118164502Y-61044180D01*
X118200812Y-60924482D01*
X118213072Y-60800000D01*
X118210000Y-60785750D01*
X118051250Y-60627000D01*
X117127000Y-60627000D01*
X117127000Y-60647000D01*
X116873000Y-60647000D01*
X116873000Y-60627000D01*
X116853000Y-60627000D01*
X116853000Y-60373000D01*
X116873000Y-60373000D01*
X116873000Y-60353000D01*
X117127000Y-60353000D01*
X117127000Y-60373000D01*
X118051250Y-60373000D01*
X118210000Y-60214250D01*
X118213072Y-60200000D01*
X118200812Y-60075518D01*
X118164502Y-59955820D01*
X118105537Y-59845506D01*
X118026185Y-59748815D01*
X117957843Y-59692728D01*
X117957843Y-59250000D01*
X118542157Y-59250000D01*
X118542157Y-59850000D01*
X118549513Y-59924689D01*
X118571299Y-59996508D01*
X118606678Y-60062696D01*
X118654289Y-60120711D01*
X118712304Y-60168322D01*
X118778492Y-60203701D01*
X118819001Y-60215989D01*
X118819000Y-60784011D01*
X118778492Y-60796299D01*
X118712304Y-60831678D01*
X118654289Y-60879289D01*
X118606678Y-60937304D01*
X118571299Y-61003492D01*
X118549513Y-61075311D01*
X118542157Y-61150000D01*
X118542157Y-61750000D01*
X118549513Y-61824689D01*
X118571299Y-61896508D01*
X118606678Y-61962696D01*
X118654289Y-62020711D01*
X118712304Y-62068322D01*
X118737191Y-62081625D01*
X118719000Y-62173078D01*
X118719000Y-62326922D01*
X118749013Y-62477809D01*
X118807887Y-62619942D01*
X118893358Y-62747859D01*
X119002141Y-62856642D01*
X119130058Y-62942113D01*
X119272191Y-63000987D01*
X119423078Y-63031000D01*
X119576922Y-63031000D01*
X119727809Y-63000987D01*
X119869942Y-62942113D01*
X119997859Y-62856642D01*
X120106642Y-62747859D01*
X120192113Y-62619942D01*
X120250987Y-62477809D01*
X120281000Y-62326922D01*
X120281000Y-62299015D01*
X120323815Y-62351185D01*
X120420506Y-62430537D01*
X120530820Y-62489502D01*
X120650518Y-62525812D01*
X120775000Y-62538072D01*
X120964250Y-62535000D01*
X121123000Y-62376250D01*
X121123000Y-61502000D01*
X121377000Y-61502000D01*
X121377000Y-62376250D01*
X121535750Y-62535000D01*
X121725000Y-62538072D01*
X121849482Y-62525812D01*
X121969180Y-62489502D01*
X122079494Y-62430537D01*
X122176185Y-62351185D01*
X122255537Y-62254494D01*
X122314502Y-62144180D01*
X122350812Y-62024482D01*
X122363072Y-61900000D01*
X122360000Y-61660750D01*
X122201250Y-61502000D01*
X121377000Y-61502000D01*
X121123000Y-61502000D01*
X121103000Y-61502000D01*
X121103000Y-61248000D01*
X121123000Y-61248000D01*
X121123000Y-61228000D01*
X121377000Y-61228000D01*
X121377000Y-61248000D01*
X122201250Y-61248000D01*
X122360000Y-61089250D01*
X122363072Y-60850000D01*
X122350812Y-60725518D01*
X122314502Y-60605820D01*
X122255537Y-60495506D01*
X122176185Y-60398815D01*
X122148739Y-60376291D01*
X122298073Y-60405995D01*
X122451917Y-60405995D01*
X122602804Y-60375982D01*
X122744937Y-60317108D01*
X122872854Y-60231637D01*
X122981637Y-60122854D01*
X123067108Y-59994937D01*
X123125982Y-59852804D01*
X123155995Y-59701917D01*
X123155995Y-59548073D01*
X123125982Y-59397186D01*
X123067108Y-59255053D01*
X122981637Y-59127136D01*
X122872854Y-59018353D01*
X122744937Y-58932882D01*
X122602804Y-58874008D01*
X122451917Y-58843995D01*
X122298073Y-58843995D01*
X122147186Y-58874008D01*
X122005053Y-58932882D01*
X121988414Y-58944000D01*
X121963201Y-58944000D01*
X121926149Y-58898851D01*
X121832144Y-58821704D01*
X121724895Y-58764378D01*
X121608523Y-58729077D01*
X121487500Y-58717157D01*
X121012500Y-58717157D01*
X120891477Y-58729077D01*
X120775105Y-58764378D01*
X120667856Y-58821704D01*
X120573851Y-58898851D01*
X120496704Y-58992856D01*
X120439378Y-59100105D01*
X120433526Y-59119397D01*
X120428701Y-59103492D01*
X120393322Y-59037304D01*
X120345711Y-58979289D01*
X120287696Y-58931678D01*
X120262809Y-58918375D01*
X120281000Y-58826922D01*
X120281000Y-58673078D01*
X120250987Y-58522191D01*
X120192113Y-58380058D01*
X120106642Y-58252141D01*
X119997859Y-58143358D01*
X119869942Y-58057887D01*
X119727809Y-57999013D01*
X119576922Y-57969000D01*
X119423078Y-57969000D01*
X119272191Y-57999013D01*
X119130058Y-58057887D01*
X119002141Y-58143358D01*
X118893358Y-58252141D01*
X118807887Y-58380058D01*
X118749013Y-58522191D01*
X118719000Y-58673078D01*
X118719000Y-58826922D01*
X118737191Y-58918375D01*
X118712304Y-58931678D01*
X118654289Y-58979289D01*
X118606678Y-59037304D01*
X118571299Y-59103492D01*
X118549513Y-59175311D01*
X118542157Y-59250000D01*
X117957843Y-59250000D01*
X117950487Y-59175311D01*
X117928701Y-59103492D01*
X117893322Y-59037304D01*
X117845711Y-58979289D01*
X117787696Y-58931678D01*
X117721508Y-58896299D01*
X117681000Y-58884011D01*
X117681000Y-56145953D01*
X117684295Y-56112500D01*
X117671146Y-55979001D01*
X117658413Y-55937027D01*
X117632206Y-55850632D01*
X117568970Y-55732326D01*
X117483870Y-55628630D01*
X117457879Y-55607300D01*
X116197843Y-54347265D01*
X116197843Y-53724731D01*
X117012685Y-52983138D01*
X117073322Y-52912696D01*
X117108701Y-52846508D01*
X117130487Y-52774689D01*
X117137843Y-52700000D01*
X117137843Y-51645000D01*
X117892157Y-51645000D01*
X117892157Y-52700000D01*
X117903439Y-52792258D01*
X117928578Y-52862973D01*
X117967028Y-52927425D01*
X118017315Y-52983138D01*
X118832157Y-53724731D01*
X118832157Y-55075269D01*
X118017315Y-55816862D01*
X117956678Y-55887304D01*
X117921299Y-55953492D01*
X117899513Y-56025311D01*
X117892157Y-56100000D01*
X117892157Y-57155000D01*
X117899513Y-57229689D01*
X117921299Y-57301508D01*
X117956678Y-57367696D01*
X118004289Y-57425711D01*
X118062304Y-57473322D01*
X118128492Y-57508701D01*
X118200311Y-57530487D01*
X118275000Y-57537843D01*
X119215000Y-57537843D01*
X119289689Y-57530487D01*
X119361508Y-57508701D01*
X119427696Y-57473322D01*
X119485711Y-57425711D01*
X119599172Y-57312250D01*
X119745110Y-57458189D01*
X119749013Y-57477809D01*
X119807887Y-57619942D01*
X119893358Y-57747859D01*
X120002141Y-57856642D01*
X120130058Y-57942113D01*
X120272191Y-58000987D01*
X120423078Y-58031000D01*
X120576922Y-58031000D01*
X120727809Y-58000987D01*
X120869942Y-57942113D01*
X120886574Y-57931000D01*
X121172915Y-57931000D01*
X121275105Y-57985622D01*
X121391477Y-58020923D01*
X121512500Y-58032843D01*
X121987500Y-58032843D01*
X122108523Y-58020923D01*
X122224895Y-57985622D01*
X122332144Y-57928296D01*
X122426149Y-57851149D01*
X122503296Y-57757144D01*
X122560622Y-57649895D01*
X122595923Y-57533523D01*
X122607843Y-57412500D01*
X122607843Y-56837500D01*
X122595923Y-56716477D01*
X122560622Y-56600105D01*
X122503296Y-56492856D01*
X122490980Y-56477849D01*
X122579494Y-56430537D01*
X122676185Y-56351185D01*
X122755537Y-56254494D01*
X122814502Y-56144180D01*
X122850812Y-56024482D01*
X122863072Y-55900000D01*
X122860159Y-55673078D01*
X124219000Y-55673078D01*
X124219000Y-55826922D01*
X124249013Y-55977809D01*
X124307887Y-56119942D01*
X124393358Y-56247859D01*
X124502141Y-56356642D01*
X124630058Y-56442113D01*
X124772191Y-56500987D01*
X124923078Y-56531000D01*
X125076922Y-56531000D01*
X125227809Y-56500987D01*
X125369942Y-56442113D01*
X125497859Y-56356642D01*
X125573501Y-56281000D01*
X126926427Y-56281000D01*
X126946299Y-56346508D01*
X126948166Y-56350000D01*
X126946299Y-56353492D01*
X126924513Y-56425311D01*
X126917157Y-56500000D01*
X126917157Y-56842709D01*
X126856642Y-56752141D01*
X126747859Y-56643358D01*
X126619942Y-56557887D01*
X126477809Y-56499013D01*
X126326922Y-56469000D01*
X126173078Y-56469000D01*
X126022191Y-56499013D01*
X125880058Y-56557887D01*
X125752141Y-56643358D01*
X125643358Y-56752141D01*
X125557887Y-56880058D01*
X125499013Y-57022191D01*
X125469000Y-57173078D01*
X125469000Y-57326922D01*
X125499013Y-57477809D01*
X125557887Y-57619942D01*
X125643358Y-57747859D01*
X125752141Y-57856642D01*
X125880058Y-57942113D01*
X126022191Y-58000987D01*
X126173078Y-58031000D01*
X126326922Y-58031000D01*
X126346808Y-58027044D01*
X126643174Y-58323411D01*
X126658236Y-58341764D01*
X126731478Y-58401872D01*
X126815039Y-58446536D01*
X126863845Y-58461341D01*
X126905707Y-58474040D01*
X126924889Y-58475929D01*
X126946299Y-58546508D01*
X126948166Y-58550000D01*
X126946299Y-58553492D01*
X126926427Y-58619000D01*
X126767913Y-58619000D01*
X126756646Y-58602137D01*
X126647863Y-58493354D01*
X126519946Y-58407883D01*
X126377813Y-58349009D01*
X126226926Y-58318996D01*
X126073082Y-58318996D01*
X125922195Y-58349009D01*
X125780062Y-58407883D01*
X125652145Y-58493354D01*
X125543362Y-58602137D01*
X125457891Y-58730054D01*
X125399017Y-58872187D01*
X125369004Y-59023074D01*
X125369004Y-59176918D01*
X125399017Y-59327805D01*
X125457891Y-59469938D01*
X125543362Y-59597855D01*
X125652145Y-59706638D01*
X125780062Y-59792109D01*
X125922195Y-59850983D01*
X126073082Y-59880996D01*
X126226926Y-59880996D01*
X126377813Y-59850983D01*
X126519946Y-59792109D01*
X126647863Y-59706638D01*
X126756646Y-59597855D01*
X126767908Y-59581000D01*
X126926427Y-59581000D01*
X126946299Y-59646508D01*
X126948166Y-59650000D01*
X126946299Y-59653492D01*
X126924513Y-59725311D01*
X126917157Y-59800000D01*
X126917157Y-60600000D01*
X126924513Y-60674689D01*
X126946299Y-60746508D01*
X126981678Y-60812696D01*
X127029289Y-60870711D01*
X127087304Y-60918322D01*
X127153492Y-60953701D01*
X127225311Y-60975487D01*
X127300000Y-60982843D01*
X128800000Y-60982843D01*
X128874689Y-60975487D01*
X128946508Y-60953701D01*
X129012696Y-60918322D01*
X129070711Y-60870711D01*
X129118322Y-60812696D01*
X129153701Y-60746508D01*
X129175487Y-60674689D01*
X129182843Y-60600000D01*
X129182843Y-59800000D01*
X129175487Y-59725311D01*
X129153701Y-59653492D01*
X129151834Y-59650000D01*
X129153701Y-59646508D01*
X129175487Y-59574689D01*
X129182843Y-59500000D01*
X129182843Y-58700000D01*
X129175487Y-58625311D01*
X129153701Y-58553492D01*
X129151834Y-58550000D01*
X129153701Y-58546508D01*
X129175487Y-58474689D01*
X129182843Y-58400000D01*
X129182843Y-57653099D01*
X129323070Y-57680992D01*
X129476914Y-57680992D01*
X129627801Y-57650979D01*
X129769934Y-57592105D01*
X129897851Y-57506634D01*
X130006634Y-57397851D01*
X130092105Y-57269934D01*
X130150979Y-57127801D01*
X130180992Y-56976914D01*
X130180992Y-56823070D01*
X130150979Y-56672183D01*
X130092105Y-56530050D01*
X130006634Y-56402133D01*
X129897851Y-56293350D01*
X129769934Y-56207879D01*
X129627801Y-56149005D01*
X129476914Y-56118992D01*
X129323070Y-56118992D01*
X129182843Y-56146885D01*
X129182843Y-55607272D01*
X129251185Y-55551185D01*
X129330537Y-55454494D01*
X129389502Y-55344180D01*
X129425812Y-55224482D01*
X129438072Y-55100000D01*
X129435000Y-54985750D01*
X129276250Y-54827000D01*
X128177000Y-54827000D01*
X128177000Y-54847000D01*
X127923000Y-54847000D01*
X127923000Y-54827000D01*
X126823750Y-54827000D01*
X126665000Y-54985750D01*
X126661928Y-55100000D01*
X126674188Y-55224482D01*
X126702860Y-55319000D01*
X125651316Y-55319000D01*
X125606642Y-55252141D01*
X125497859Y-55143358D01*
X125369942Y-55057887D01*
X125227809Y-54999013D01*
X125076922Y-54969000D01*
X124923078Y-54969000D01*
X124772191Y-54999013D01*
X124630058Y-55057887D01*
X124502141Y-55143358D01*
X124393358Y-55252141D01*
X124307887Y-55380058D01*
X124249013Y-55522191D01*
X124219000Y-55673078D01*
X122860159Y-55673078D01*
X122860000Y-55660750D01*
X122701250Y-55502000D01*
X121877000Y-55502000D01*
X121877000Y-55522000D01*
X121623000Y-55522000D01*
X121623000Y-55502000D01*
X121603000Y-55502000D01*
X121603000Y-55248000D01*
X121623000Y-55248000D01*
X121623000Y-54373750D01*
X121877000Y-54373750D01*
X121877000Y-55248000D01*
X122701250Y-55248000D01*
X122860000Y-55089250D01*
X122863072Y-54850000D01*
X122850812Y-54725518D01*
X122814502Y-54605820D01*
X122755537Y-54495506D01*
X122676185Y-54398815D01*
X122579494Y-54319463D01*
X122469180Y-54260498D01*
X122349482Y-54224188D01*
X122225000Y-54211928D01*
X122035750Y-54215000D01*
X121877000Y-54373750D01*
X121623000Y-54373750D01*
X121464250Y-54215000D01*
X121275000Y-54211928D01*
X121150518Y-54224188D01*
X121030820Y-54260498D01*
X120920506Y-54319463D01*
X120823815Y-54398815D01*
X120744463Y-54495506D01*
X120685498Y-54605820D01*
X120652843Y-54713469D01*
X120652843Y-53423078D01*
X124219000Y-53423078D01*
X124219000Y-53576922D01*
X124249013Y-53727809D01*
X124307887Y-53869942D01*
X124393358Y-53997859D01*
X124502141Y-54106642D01*
X124630058Y-54192113D01*
X124772191Y-54250987D01*
X124923078Y-54281000D01*
X125076922Y-54281000D01*
X125227809Y-54250987D01*
X125369942Y-54192113D01*
X125497859Y-54106642D01*
X125606642Y-53997859D01*
X125617907Y-53981000D01*
X126750491Y-53981000D01*
X126710498Y-54055820D01*
X126674188Y-54175518D01*
X126661928Y-54300000D01*
X126665000Y-54414250D01*
X126823750Y-54573000D01*
X127923000Y-54573000D01*
X127923000Y-54553000D01*
X128177000Y-54553000D01*
X128177000Y-54573000D01*
X129276250Y-54573000D01*
X129435000Y-54414250D01*
X129438072Y-54300000D01*
X129425812Y-54175518D01*
X129389502Y-54055820D01*
X129330537Y-53945506D01*
X129251185Y-53848815D01*
X129182843Y-53792728D01*
X129182843Y-53200000D01*
X129175487Y-53125311D01*
X129153701Y-53053492D01*
X129151834Y-53050000D01*
X129153701Y-53046508D01*
X129175487Y-52974689D01*
X129182843Y-52900000D01*
X129182843Y-52100000D01*
X129175487Y-52025311D01*
X129153701Y-51953492D01*
X129118322Y-51887304D01*
X129070711Y-51829289D01*
X129012696Y-51781678D01*
X128946508Y-51746299D01*
X128874689Y-51724513D01*
X128800000Y-51717157D01*
X127300000Y-51717157D01*
X127225311Y-51724513D01*
X127153492Y-51746299D01*
X127087304Y-51781678D01*
X127029289Y-51829289D01*
X126981678Y-51887304D01*
X126946299Y-51953492D01*
X126924513Y-52025311D01*
X126917157Y-52100000D01*
X126917157Y-52900000D01*
X126924513Y-52974689D01*
X126937955Y-53019000D01*
X125617907Y-53019000D01*
X125606642Y-53002141D01*
X125497859Y-52893358D01*
X125369942Y-52807887D01*
X125227809Y-52749013D01*
X125076922Y-52719000D01*
X124923078Y-52719000D01*
X124772191Y-52749013D01*
X124630058Y-52807887D01*
X124502141Y-52893358D01*
X124393358Y-53002141D01*
X124307887Y-53130058D01*
X124249013Y-53272191D01*
X124219000Y-53423078D01*
X120652843Y-53423078D01*
X120652843Y-52700000D01*
X120645487Y-52625311D01*
X120623701Y-52553492D01*
X120588322Y-52487304D01*
X120568666Y-52463353D01*
X120619942Y-52442113D01*
X120747859Y-52356642D01*
X120856642Y-52247859D01*
X120942113Y-52119942D01*
X121000987Y-51977809D01*
X121031000Y-51826922D01*
X121031000Y-51673078D01*
X121000987Y-51522191D01*
X120942113Y-51380058D01*
X120856642Y-51252141D01*
X120747859Y-51143358D01*
X120619942Y-51057887D01*
X120477809Y-50999013D01*
X120326922Y-50969000D01*
X120173078Y-50969000D01*
X120022191Y-50999013D01*
X119880058Y-51057887D01*
X119752141Y-51143358D01*
X119643358Y-51252141D01*
X119557887Y-51380058D01*
X119538437Y-51427015D01*
X119485711Y-51374289D01*
X119427696Y-51326678D01*
X119361508Y-51291299D01*
X119289689Y-51269513D01*
X119215000Y-51262157D01*
X118275000Y-51262157D01*
X118200311Y-51269513D01*
X118128492Y-51291299D01*
X118062304Y-51326678D01*
X118004289Y-51374289D01*
X117956678Y-51432304D01*
X117921299Y-51498492D01*
X117899513Y-51570311D01*
X117892157Y-51645000D01*
X117137843Y-51645000D01*
X117130487Y-51570311D01*
X117108701Y-51498492D01*
X117073322Y-51432304D01*
X117025711Y-51374289D01*
X116967696Y-51326678D01*
X116901508Y-51291299D01*
X116829689Y-51269513D01*
X116755000Y-51262157D01*
X115815000Y-51262157D01*
X115740311Y-51269513D01*
X115668492Y-51291299D01*
X115602304Y-51326678D01*
X115544289Y-51374289D01*
X114489289Y-52429289D01*
X114441678Y-52487304D01*
X114406299Y-52553492D01*
X114405780Y-52555202D01*
X113532843Y-51682265D01*
X113532843Y-50850000D01*
X123811928Y-50850000D01*
X123824188Y-50974482D01*
X123860498Y-51094180D01*
X123919463Y-51204494D01*
X123998815Y-51301185D01*
X124095506Y-51380537D01*
X124205820Y-51439502D01*
X124325518Y-51475812D01*
X124450000Y-51488072D01*
X125164250Y-51485000D01*
X125323000Y-51326250D01*
X125323000Y-50252000D01*
X125577000Y-50252000D01*
X125577000Y-51326250D01*
X125735750Y-51485000D01*
X126450000Y-51488072D01*
X126574482Y-51475812D01*
X126694180Y-51439502D01*
X126804494Y-51380537D01*
X126901185Y-51301185D01*
X126980537Y-51204494D01*
X127039502Y-51094180D01*
X127075812Y-50974482D01*
X127088072Y-50850000D01*
X132111928Y-50850000D01*
X132124188Y-50974482D01*
X132160498Y-51094180D01*
X132219463Y-51204494D01*
X132298815Y-51301185D01*
X132395506Y-51380537D01*
X132505820Y-51439502D01*
X132625518Y-51475812D01*
X132750000Y-51488072D01*
X133464250Y-51485000D01*
X133623000Y-51326250D01*
X133623000Y-50252000D01*
X133877000Y-50252000D01*
X133877000Y-51326250D01*
X134035750Y-51485000D01*
X134750000Y-51488072D01*
X134874482Y-51475812D01*
X134994180Y-51439502D01*
X135104494Y-51380537D01*
X135201185Y-51301185D01*
X135280537Y-51204494D01*
X135339502Y-51094180D01*
X135375812Y-50974482D01*
X135388072Y-50850000D01*
X135385000Y-50410750D01*
X135226250Y-50252000D01*
X133877000Y-50252000D01*
X133623000Y-50252000D01*
X132273750Y-50252000D01*
X132115000Y-50410750D01*
X132111928Y-50850000D01*
X127088072Y-50850000D01*
X127085000Y-50410750D01*
X126926250Y-50252000D01*
X125577000Y-50252000D01*
X125323000Y-50252000D01*
X123973750Y-50252000D01*
X123815000Y-50410750D01*
X123811928Y-50850000D01*
X113532843Y-50850000D01*
X113532843Y-49300000D01*
X113525487Y-49225311D01*
X113503701Y-49153492D01*
X113468322Y-49087304D01*
X113422115Y-49031000D01*
X123931368Y-49031000D01*
X123919463Y-49045506D01*
G36*
X122819001Y-73750761D02*
G01*
X119900771Y-76668991D01*
X117612946Y-76668991D01*
X121123412Y-73158526D01*
X121141764Y-73143465D01*
X121201872Y-73070223D01*
X121241317Y-72996427D01*
X121246536Y-72986663D01*
X121274040Y-72895994D01*
X121283327Y-72801701D01*
X121281000Y-72778075D01*
X121281000Y-72640114D01*
X121283857Y-72642566D01*
X121392840Y-72703956D01*
X121449161Y-72722411D01*
X121481750Y-72755000D01*
X121550000Y-72747252D01*
X121618250Y-72755000D01*
X121650839Y-72722411D01*
X121707160Y-72703956D01*
X121800000Y-72651659D01*
X121892840Y-72703956D01*
X121949161Y-72722411D01*
X121981750Y-72755000D01*
X122050000Y-72747252D01*
X122118250Y-72755000D01*
X122150839Y-72722411D01*
X122207160Y-72703956D01*
X122300000Y-72651659D01*
X122392840Y-72703956D01*
X122449161Y-72722411D01*
X122481750Y-72755000D01*
X122550000Y-72747252D01*
X122618250Y-72755000D01*
X122650839Y-72722411D01*
X122707160Y-72703956D01*
X122816143Y-72642566D01*
X122819000Y-72640113D01*
X122819001Y-73750761D01*
G37*
X122819001Y-73750761D02*
X119900771Y-76668991D01*
X117612946Y-76668991D01*
X121123412Y-73158526D01*
X121141764Y-73143465D01*
X121201872Y-73070223D01*
X121241317Y-72996427D01*
X121246536Y-72986663D01*
X121274040Y-72895994D01*
X121283327Y-72801701D01*
X121281000Y-72778075D01*
X121281000Y-72640114D01*
X121283857Y-72642566D01*
X121392840Y-72703956D01*
X121449161Y-72722411D01*
X121481750Y-72755000D01*
X121550000Y-72747252D01*
X121618250Y-72755000D01*
X121650839Y-72722411D01*
X121707160Y-72703956D01*
X121800000Y-72651659D01*
X121892840Y-72703956D01*
X121949161Y-72722411D01*
X121981750Y-72755000D01*
X122050000Y-72747252D01*
X122118250Y-72755000D01*
X122150839Y-72722411D01*
X122207160Y-72703956D01*
X122300000Y-72651659D01*
X122392840Y-72703956D01*
X122449161Y-72722411D01*
X122481750Y-72755000D01*
X122550000Y-72747252D01*
X122618250Y-72755000D01*
X122650839Y-72722411D01*
X122707160Y-72703956D01*
X122816143Y-72642566D01*
X122819000Y-72640113D01*
X122819001Y-73750761D01*
G36*
X109792157Y-68280236D02*
G01*
X109792157Y-69037500D01*
X109804317Y-69160962D01*
X109840329Y-69279679D01*
X109898810Y-69389089D01*
X109977512Y-69484988D01*
X110073411Y-69563690D01*
X110182821Y-69622171D01*
X110301538Y-69658183D01*
X110425000Y-69670343D01*
X111675000Y-69670343D01*
X111798462Y-69658183D01*
X111917179Y-69622171D01*
X112026589Y-69563690D01*
X112122488Y-69484988D01*
X112201190Y-69389089D01*
X112232484Y-69330541D01*
X112246704Y-69357144D01*
X112323851Y-69451149D01*
X112417856Y-69528296D01*
X112525105Y-69585622D01*
X112641477Y-69620923D01*
X112650906Y-69621852D01*
X113811126Y-70782073D01*
X113783857Y-70797434D01*
X113688945Y-70878906D01*
X113611751Y-70977328D01*
X113555241Y-71088920D01*
X113521588Y-71209392D01*
X113512084Y-71334114D01*
X113515000Y-71434250D01*
X113673748Y-71592998D01*
X113515000Y-71592998D01*
X113515000Y-71685649D01*
X113501185Y-71668815D01*
X113404494Y-71589463D01*
X113294180Y-71530498D01*
X113174482Y-71494188D01*
X113050000Y-71481928D01*
X112135750Y-71485000D01*
X111977000Y-71643750D01*
X111977000Y-73518000D01*
X113526250Y-73518000D01*
X113685000Y-73359250D01*
X113686985Y-72558595D01*
X113688945Y-72561094D01*
X113783857Y-72642566D01*
X113892840Y-72703956D01*
X114011706Y-72742905D01*
X114118250Y-72755000D01*
X114277000Y-72596250D01*
X114277000Y-72202888D01*
X114296299Y-72266508D01*
X114323000Y-72316461D01*
X114323000Y-72596250D01*
X114481750Y-72755000D01*
X114588294Y-72742905D01*
X114707160Y-72703956D01*
X114816143Y-72642566D01*
X114911055Y-72561094D01*
X114957307Y-72502123D01*
X115009444Y-72496988D01*
X114999005Y-72522191D01*
X114968992Y-72673078D01*
X114968992Y-72826922D01*
X114999005Y-72977809D01*
X115057879Y-73119942D01*
X115143350Y-73247859D01*
X115252133Y-73356642D01*
X115380050Y-73442113D01*
X115522183Y-73500987D01*
X115673070Y-73531000D01*
X115826914Y-73531000D01*
X115977801Y-73500987D01*
X116119934Y-73442113D01*
X116247851Y-73356642D01*
X116356634Y-73247859D01*
X116442105Y-73119942D01*
X116500979Y-72977809D01*
X116530992Y-72826922D01*
X116530992Y-72673078D01*
X116500979Y-72522191D01*
X116491281Y-72498777D01*
X116524689Y-72495487D01*
X116550000Y-72487809D01*
X116575311Y-72495487D01*
X116642693Y-72502123D01*
X116688945Y-72561094D01*
X116783857Y-72642566D01*
X116892840Y-72703956D01*
X117011706Y-72742905D01*
X117118250Y-72755000D01*
X117255245Y-72618005D01*
X117283857Y-72642566D01*
X117392840Y-72703956D01*
X117449161Y-72722411D01*
X117481750Y-72755000D01*
X117550000Y-72747252D01*
X117618250Y-72755000D01*
X117650839Y-72722411D01*
X117707160Y-72703956D01*
X117800000Y-72651659D01*
X117892840Y-72703956D01*
X117949161Y-72722411D01*
X117981750Y-72755000D01*
X118050000Y-72747252D01*
X118118250Y-72755000D01*
X118150839Y-72722411D01*
X118207160Y-72703956D01*
X118300000Y-72651659D01*
X118392840Y-72703956D01*
X118449161Y-72722411D01*
X118481750Y-72755000D01*
X118550000Y-72747252D01*
X118618250Y-72755000D01*
X118650839Y-72722411D01*
X118707160Y-72703956D01*
X118800000Y-72651659D01*
X118892840Y-72703956D01*
X118949161Y-72722411D01*
X118981750Y-72755000D01*
X119050000Y-72747252D01*
X119118250Y-72755000D01*
X119150839Y-72722411D01*
X119207160Y-72703956D01*
X119316143Y-72642566D01*
X119344755Y-72618005D01*
X119481750Y-72755000D01*
X119588294Y-72742905D01*
X119624833Y-72730932D01*
X116486796Y-75868969D01*
X111312006Y-75868969D01*
X111249096Y-75806059D01*
X111564250Y-75805000D01*
X111723000Y-75646250D01*
X111723000Y-73772000D01*
X111977000Y-73772000D01*
X111977000Y-75646250D01*
X112135750Y-75805000D01*
X113050000Y-75808072D01*
X113174482Y-75795812D01*
X113294180Y-75759502D01*
X113404494Y-75700537D01*
X113501185Y-75621185D01*
X113580537Y-75524494D01*
X113639502Y-75414180D01*
X113675812Y-75294482D01*
X113688072Y-75170000D01*
X113685000Y-73930750D01*
X113526250Y-73772000D01*
X111977000Y-73772000D01*
X111723000Y-73772000D01*
X110173750Y-73772000D01*
X110015000Y-73930750D01*
X110013414Y-74570378D01*
X108731000Y-73287964D01*
X108731000Y-72120000D01*
X110011928Y-72120000D01*
X110015000Y-73359250D01*
X110173750Y-73518000D01*
X111723000Y-73518000D01*
X111723000Y-71643750D01*
X111564250Y-71485000D01*
X110650000Y-71481928D01*
X110525518Y-71494188D01*
X110405820Y-71530498D01*
X110295506Y-71589463D01*
X110198815Y-71668815D01*
X110119463Y-71765506D01*
X110060498Y-71875820D01*
X110024188Y-71995518D01*
X110011928Y-72120000D01*
X108731000Y-72120000D01*
X108731000Y-67219078D01*
X109792157Y-68280236D01*
G37*
X109792157Y-68280236D02*
X109792157Y-69037500D01*
X109804317Y-69160962D01*
X109840329Y-69279679D01*
X109898810Y-69389089D01*
X109977512Y-69484988D01*
X110073411Y-69563690D01*
X110182821Y-69622171D01*
X110301538Y-69658183D01*
X110425000Y-69670343D01*
X111675000Y-69670343D01*
X111798462Y-69658183D01*
X111917179Y-69622171D01*
X112026589Y-69563690D01*
X112122488Y-69484988D01*
X112201190Y-69389089D01*
X112232484Y-69330541D01*
X112246704Y-69357144D01*
X112323851Y-69451149D01*
X112417856Y-69528296D01*
X112525105Y-69585622D01*
X112641477Y-69620923D01*
X112650906Y-69621852D01*
X113811126Y-70782073D01*
X113783857Y-70797434D01*
X113688945Y-70878906D01*
X113611751Y-70977328D01*
X113555241Y-71088920D01*
X113521588Y-71209392D01*
X113512084Y-71334114D01*
X113515000Y-71434250D01*
X113673748Y-71592998D01*
X113515000Y-71592998D01*
X113515000Y-71685649D01*
X113501185Y-71668815D01*
X113404494Y-71589463D01*
X113294180Y-71530498D01*
X113174482Y-71494188D01*
X113050000Y-71481928D01*
X112135750Y-71485000D01*
X111977000Y-71643750D01*
X111977000Y-73518000D01*
X113526250Y-73518000D01*
X113685000Y-73359250D01*
X113686985Y-72558595D01*
X113688945Y-72561094D01*
X113783857Y-72642566D01*
X113892840Y-72703956D01*
X114011706Y-72742905D01*
X114118250Y-72755000D01*
X114277000Y-72596250D01*
X114277000Y-72202888D01*
X114296299Y-72266508D01*
X114323000Y-72316461D01*
X114323000Y-72596250D01*
X114481750Y-72755000D01*
X114588294Y-72742905D01*
X114707160Y-72703956D01*
X114816143Y-72642566D01*
X114911055Y-72561094D01*
X114957307Y-72502123D01*
X115009444Y-72496988D01*
X114999005Y-72522191D01*
X114968992Y-72673078D01*
X114968992Y-72826922D01*
X114999005Y-72977809D01*
X115057879Y-73119942D01*
X115143350Y-73247859D01*
X115252133Y-73356642D01*
X115380050Y-73442113D01*
X115522183Y-73500987D01*
X115673070Y-73531000D01*
X115826914Y-73531000D01*
X115977801Y-73500987D01*
X116119934Y-73442113D01*
X116247851Y-73356642D01*
X116356634Y-73247859D01*
X116442105Y-73119942D01*
X116500979Y-72977809D01*
X116530992Y-72826922D01*
X116530992Y-72673078D01*
X116500979Y-72522191D01*
X116491281Y-72498777D01*
X116524689Y-72495487D01*
X116550000Y-72487809D01*
X116575311Y-72495487D01*
X116642693Y-72502123D01*
X116688945Y-72561094D01*
X116783857Y-72642566D01*
X116892840Y-72703956D01*
X117011706Y-72742905D01*
X117118250Y-72755000D01*
X117255245Y-72618005D01*
X117283857Y-72642566D01*
X117392840Y-72703956D01*
X117449161Y-72722411D01*
X117481750Y-72755000D01*
X117550000Y-72747252D01*
X117618250Y-72755000D01*
X117650839Y-72722411D01*
X117707160Y-72703956D01*
X117800000Y-72651659D01*
X117892840Y-72703956D01*
X117949161Y-72722411D01*
X117981750Y-72755000D01*
X118050000Y-72747252D01*
X118118250Y-72755000D01*
X118150839Y-72722411D01*
X118207160Y-72703956D01*
X118300000Y-72651659D01*
X118392840Y-72703956D01*
X118449161Y-72722411D01*
X118481750Y-72755000D01*
X118550000Y-72747252D01*
X118618250Y-72755000D01*
X118650839Y-72722411D01*
X118707160Y-72703956D01*
X118800000Y-72651659D01*
X118892840Y-72703956D01*
X118949161Y-72722411D01*
X118981750Y-72755000D01*
X119050000Y-72747252D01*
X119118250Y-72755000D01*
X119150839Y-72722411D01*
X119207160Y-72703956D01*
X119316143Y-72642566D01*
X119344755Y-72618005D01*
X119481750Y-72755000D01*
X119588294Y-72742905D01*
X119624833Y-72730932D01*
X116486796Y-75868969D01*
X111312006Y-75868969D01*
X111249096Y-75806059D01*
X111564250Y-75805000D01*
X111723000Y-75646250D01*
X111723000Y-73772000D01*
X111977000Y-73772000D01*
X111977000Y-75646250D01*
X112135750Y-75805000D01*
X113050000Y-75808072D01*
X113174482Y-75795812D01*
X113294180Y-75759502D01*
X113404494Y-75700537D01*
X113501185Y-75621185D01*
X113580537Y-75524494D01*
X113639502Y-75414180D01*
X113675812Y-75294482D01*
X113688072Y-75170000D01*
X113685000Y-73930750D01*
X113526250Y-73772000D01*
X111977000Y-73772000D01*
X111723000Y-73772000D01*
X110173750Y-73772000D01*
X110015000Y-73930750D01*
X110013414Y-74570378D01*
X108731000Y-73287964D01*
X108731000Y-72120000D01*
X110011928Y-72120000D01*
X110015000Y-73359250D01*
X110173750Y-73518000D01*
X111723000Y-73518000D01*
X111723000Y-71643750D01*
X111564250Y-71485000D01*
X110650000Y-71481928D01*
X110525518Y-71494188D01*
X110405820Y-71530498D01*
X110295506Y-71589463D01*
X110198815Y-71668815D01*
X110119463Y-71765506D01*
X110060498Y-71875820D01*
X110024188Y-71995518D01*
X110011928Y-72120000D01*
X108731000Y-72120000D01*
X108731000Y-67219078D01*
X109792157Y-68280236D01*
G36*
X128947000Y-71847000D02*
G01*
X128832843Y-71847000D01*
X128832843Y-71593000D01*
X128947000Y-71593000D01*
X128947000Y-71847000D01*
G37*
X128947000Y-71847000D02*
X128832843Y-71847000D01*
X128832843Y-71593000D01*
X128947000Y-71593000D01*
X128947000Y-71847000D01*
G36*
X118947000Y-71847000D02*
G01*
X117653000Y-71847000D01*
X117653000Y-71593000D01*
X118947000Y-71593000D01*
X118947000Y-71847000D01*
G37*
X118947000Y-71847000D02*
X117653000Y-71847000D01*
X117653000Y-71593000D01*
X118947000Y-71593000D01*
X118947000Y-71847000D01*
G36*
X114267157Y-71847000D02*
G01*
X114153000Y-71847000D01*
X114153000Y-71593000D01*
X114267157Y-71593000D01*
X114267157Y-71847000D01*
G37*
X114267157Y-71847000D02*
X114153000Y-71847000D01*
X114153000Y-71593000D01*
X114267157Y-71593000D01*
X114267157Y-71847000D01*
G36*
X122447000Y-71847000D02*
G01*
X121653000Y-71847000D01*
X121653000Y-71593000D01*
X122447000Y-71593000D01*
X122447000Y-71847000D01*
G37*
X122447000Y-71847000D02*
X121653000Y-71847000D01*
X121653000Y-71593000D01*
X122447000Y-71593000D01*
X122447000Y-71847000D01*
G36*
X119687304Y-67418322D02*
G01*
X119753492Y-67453701D01*
X119825311Y-67475487D01*
X119900000Y-67482843D01*
X120600000Y-67482843D01*
X120674689Y-67475487D01*
X120746508Y-67453701D01*
X120812696Y-67418322D01*
X120820138Y-67412215D01*
X120869463Y-67504494D01*
X120948815Y-67601185D01*
X121031448Y-67669000D01*
X120903301Y-67669000D01*
X120870711Y-67629289D01*
X120812696Y-67581678D01*
X120746508Y-67546299D01*
X120674689Y-67524513D01*
X120600000Y-67517157D01*
X119900000Y-67517157D01*
X119825311Y-67524513D01*
X119753492Y-67546299D01*
X119687304Y-67581678D01*
X119629289Y-67629289D01*
X119581678Y-67687304D01*
X119546299Y-67753492D01*
X119524513Y-67825311D01*
X119517157Y-67900000D01*
X119517157Y-68500000D01*
X119524513Y-68574689D01*
X119546299Y-68646508D01*
X119581678Y-68712696D01*
X119629289Y-68770711D01*
X119687304Y-68818322D01*
X119753492Y-68853701D01*
X119825311Y-68875487D01*
X119900000Y-68882843D01*
X120600000Y-68882843D01*
X120674689Y-68875487D01*
X120746508Y-68853701D01*
X120788978Y-68831000D01*
X121141826Y-68831000D01*
X121187304Y-68868322D01*
X121253492Y-68903701D01*
X121325311Y-68925487D01*
X121400000Y-68932843D01*
X122100000Y-68932843D01*
X122174689Y-68925487D01*
X122246508Y-68903701D01*
X122312696Y-68868322D01*
X122370711Y-68820711D01*
X122418322Y-68762696D01*
X122453701Y-68696508D01*
X122475487Y-68624689D01*
X122482843Y-68550000D01*
X122482843Y-67950000D01*
X122475487Y-67875311D01*
X122453701Y-67803492D01*
X122418322Y-67737304D01*
X122396969Y-67711285D01*
X122454494Y-67680537D01*
X122454798Y-67680287D01*
X122494463Y-67754494D01*
X122573815Y-67851185D01*
X122670506Y-67930537D01*
X122759020Y-67977849D01*
X122746704Y-67992856D01*
X122689378Y-68100105D01*
X122654077Y-68216477D01*
X122642157Y-68337500D01*
X122642157Y-68912500D01*
X122654077Y-69033523D01*
X122689378Y-69149895D01*
X122746704Y-69257144D01*
X122823851Y-69351149D01*
X122917856Y-69428296D01*
X123025105Y-69485622D01*
X123141477Y-69520923D01*
X123262500Y-69532843D01*
X123727607Y-69532843D01*
X124319000Y-70124236D01*
X124319001Y-70937157D01*
X124150000Y-70937157D01*
X124075311Y-70944513D01*
X124050000Y-70952191D01*
X124024689Y-70944513D01*
X123950000Y-70937157D01*
X123650000Y-70937157D01*
X123575311Y-70944513D01*
X123550000Y-70952191D01*
X123524689Y-70944513D01*
X123457307Y-70937877D01*
X123411055Y-70878906D01*
X123316143Y-70797434D01*
X123207160Y-70736044D01*
X123088294Y-70697095D01*
X122981750Y-70685000D01*
X122844755Y-70821995D01*
X122816143Y-70797434D01*
X122707160Y-70736044D01*
X122650839Y-70717589D01*
X122618250Y-70685000D01*
X122550000Y-70692748D01*
X122481750Y-70685000D01*
X122449161Y-70717589D01*
X122392840Y-70736044D01*
X122300000Y-70788341D01*
X122207160Y-70736044D01*
X122150839Y-70717589D01*
X122118250Y-70685000D01*
X122050000Y-70692748D01*
X121981750Y-70685000D01*
X121949161Y-70717589D01*
X121892840Y-70736044D01*
X121800000Y-70788341D01*
X121707160Y-70736044D01*
X121650839Y-70717589D01*
X121618250Y-70685000D01*
X121550000Y-70692748D01*
X121481750Y-70685000D01*
X121449161Y-70717589D01*
X121392840Y-70736044D01*
X121283857Y-70797434D01*
X121255245Y-70821995D01*
X121118250Y-70685000D01*
X121011706Y-70697095D01*
X120892840Y-70736044D01*
X120783857Y-70797434D01*
X120688945Y-70878906D01*
X120642693Y-70937877D01*
X120575311Y-70944513D01*
X120550000Y-70952191D01*
X120524689Y-70944513D01*
X120450000Y-70937157D01*
X120150000Y-70937157D01*
X120075311Y-70944513D01*
X120050000Y-70952191D01*
X120024689Y-70944513D01*
X119957307Y-70937877D01*
X119911055Y-70878906D01*
X119816143Y-70797434D01*
X119707160Y-70736044D01*
X119588294Y-70697095D01*
X119481750Y-70685000D01*
X119344755Y-70821995D01*
X119316143Y-70797434D01*
X119207160Y-70736044D01*
X119150839Y-70717589D01*
X119118250Y-70685000D01*
X119050000Y-70692748D01*
X118981750Y-70685000D01*
X118949161Y-70717589D01*
X118892840Y-70736044D01*
X118800000Y-70788341D01*
X118707160Y-70736044D01*
X118650839Y-70717589D01*
X118618250Y-70685000D01*
X118550000Y-70692748D01*
X118481750Y-70685000D01*
X118449161Y-70717589D01*
X118392840Y-70736044D01*
X118300000Y-70788341D01*
X118207160Y-70736044D01*
X118150839Y-70717589D01*
X118118250Y-70685000D01*
X118050000Y-70692748D01*
X117981750Y-70685000D01*
X117949161Y-70717589D01*
X117892840Y-70736044D01*
X117800000Y-70788341D01*
X117707160Y-70736044D01*
X117650839Y-70717589D01*
X117618250Y-70685000D01*
X117550000Y-70692748D01*
X117481750Y-70685000D01*
X117449161Y-70717589D01*
X117427002Y-70724850D01*
X117427002Y-70685000D01*
X117415237Y-70685000D01*
X118567394Y-69532843D01*
X118737500Y-69532843D01*
X118858523Y-69520923D01*
X118974895Y-69485622D01*
X119082144Y-69428296D01*
X119176149Y-69351149D01*
X119253296Y-69257144D01*
X119310622Y-69149895D01*
X119345923Y-69033523D01*
X119357843Y-68912500D01*
X119357843Y-68337500D01*
X119345923Y-68216477D01*
X119310622Y-68100105D01*
X119253296Y-67992856D01*
X119176149Y-67898851D01*
X119082144Y-67821704D01*
X118974895Y-67764378D01*
X118927497Y-67750000D01*
X118974895Y-67735622D01*
X119082144Y-67678296D01*
X119176149Y-67601149D01*
X119253296Y-67507144D01*
X119310622Y-67399895D01*
X119316354Y-67381000D01*
X119641826Y-67381000D01*
X119687304Y-67418322D01*
G37*
X119687304Y-67418322D02*
X119753492Y-67453701D01*
X119825311Y-67475487D01*
X119900000Y-67482843D01*
X120600000Y-67482843D01*
X120674689Y-67475487D01*
X120746508Y-67453701D01*
X120812696Y-67418322D01*
X120820138Y-67412215D01*
X120869463Y-67504494D01*
X120948815Y-67601185D01*
X121031448Y-67669000D01*
X120903301Y-67669000D01*
X120870711Y-67629289D01*
X120812696Y-67581678D01*
X120746508Y-67546299D01*
X120674689Y-67524513D01*
X120600000Y-67517157D01*
X119900000Y-67517157D01*
X119825311Y-67524513D01*
X119753492Y-67546299D01*
X119687304Y-67581678D01*
X119629289Y-67629289D01*
X119581678Y-67687304D01*
X119546299Y-67753492D01*
X119524513Y-67825311D01*
X119517157Y-67900000D01*
X119517157Y-68500000D01*
X119524513Y-68574689D01*
X119546299Y-68646508D01*
X119581678Y-68712696D01*
X119629289Y-68770711D01*
X119687304Y-68818322D01*
X119753492Y-68853701D01*
X119825311Y-68875487D01*
X119900000Y-68882843D01*
X120600000Y-68882843D01*
X120674689Y-68875487D01*
X120746508Y-68853701D01*
X120788978Y-68831000D01*
X121141826Y-68831000D01*
X121187304Y-68868322D01*
X121253492Y-68903701D01*
X121325311Y-68925487D01*
X121400000Y-68932843D01*
X122100000Y-68932843D01*
X122174689Y-68925487D01*
X122246508Y-68903701D01*
X122312696Y-68868322D01*
X122370711Y-68820711D01*
X122418322Y-68762696D01*
X122453701Y-68696508D01*
X122475487Y-68624689D01*
X122482843Y-68550000D01*
X122482843Y-67950000D01*
X122475487Y-67875311D01*
X122453701Y-67803492D01*
X122418322Y-67737304D01*
X122396969Y-67711285D01*
X122454494Y-67680537D01*
X122454798Y-67680287D01*
X122494463Y-67754494D01*
X122573815Y-67851185D01*
X122670506Y-67930537D01*
X122759020Y-67977849D01*
X122746704Y-67992856D01*
X122689378Y-68100105D01*
X122654077Y-68216477D01*
X122642157Y-68337500D01*
X122642157Y-68912500D01*
X122654077Y-69033523D01*
X122689378Y-69149895D01*
X122746704Y-69257144D01*
X122823851Y-69351149D01*
X122917856Y-69428296D01*
X123025105Y-69485622D01*
X123141477Y-69520923D01*
X123262500Y-69532843D01*
X123727607Y-69532843D01*
X124319000Y-70124236D01*
X124319001Y-70937157D01*
X124150000Y-70937157D01*
X124075311Y-70944513D01*
X124050000Y-70952191D01*
X124024689Y-70944513D01*
X123950000Y-70937157D01*
X123650000Y-70937157D01*
X123575311Y-70944513D01*
X123550000Y-70952191D01*
X123524689Y-70944513D01*
X123457307Y-70937877D01*
X123411055Y-70878906D01*
X123316143Y-70797434D01*
X123207160Y-70736044D01*
X123088294Y-70697095D01*
X122981750Y-70685000D01*
X122844755Y-70821995D01*
X122816143Y-70797434D01*
X122707160Y-70736044D01*
X122650839Y-70717589D01*
X122618250Y-70685000D01*
X122550000Y-70692748D01*
X122481750Y-70685000D01*
X122449161Y-70717589D01*
X122392840Y-70736044D01*
X122300000Y-70788341D01*
X122207160Y-70736044D01*
X122150839Y-70717589D01*
X122118250Y-70685000D01*
X122050000Y-70692748D01*
X121981750Y-70685000D01*
X121949161Y-70717589D01*
X121892840Y-70736044D01*
X121800000Y-70788341D01*
X121707160Y-70736044D01*
X121650839Y-70717589D01*
X121618250Y-70685000D01*
X121550000Y-70692748D01*
X121481750Y-70685000D01*
X121449161Y-70717589D01*
X121392840Y-70736044D01*
X121283857Y-70797434D01*
X121255245Y-70821995D01*
X121118250Y-70685000D01*
X121011706Y-70697095D01*
X120892840Y-70736044D01*
X120783857Y-70797434D01*
X120688945Y-70878906D01*
X120642693Y-70937877D01*
X120575311Y-70944513D01*
X120550000Y-70952191D01*
X120524689Y-70944513D01*
X120450000Y-70937157D01*
X120150000Y-70937157D01*
X120075311Y-70944513D01*
X120050000Y-70952191D01*
X120024689Y-70944513D01*
X119957307Y-70937877D01*
X119911055Y-70878906D01*
X119816143Y-70797434D01*
X119707160Y-70736044D01*
X119588294Y-70697095D01*
X119481750Y-70685000D01*
X119344755Y-70821995D01*
X119316143Y-70797434D01*
X119207160Y-70736044D01*
X119150839Y-70717589D01*
X119118250Y-70685000D01*
X119050000Y-70692748D01*
X118981750Y-70685000D01*
X118949161Y-70717589D01*
X118892840Y-70736044D01*
X118800000Y-70788341D01*
X118707160Y-70736044D01*
X118650839Y-70717589D01*
X118618250Y-70685000D01*
X118550000Y-70692748D01*
X118481750Y-70685000D01*
X118449161Y-70717589D01*
X118392840Y-70736044D01*
X118300000Y-70788341D01*
X118207160Y-70736044D01*
X118150839Y-70717589D01*
X118118250Y-70685000D01*
X118050000Y-70692748D01*
X117981750Y-70685000D01*
X117949161Y-70717589D01*
X117892840Y-70736044D01*
X117800000Y-70788341D01*
X117707160Y-70736044D01*
X117650839Y-70717589D01*
X117618250Y-70685000D01*
X117550000Y-70692748D01*
X117481750Y-70685000D01*
X117449161Y-70717589D01*
X117427002Y-70724850D01*
X117427002Y-70685000D01*
X117415237Y-70685000D01*
X118567394Y-69532843D01*
X118737500Y-69532843D01*
X118858523Y-69520923D01*
X118974895Y-69485622D01*
X119082144Y-69428296D01*
X119176149Y-69351149D01*
X119253296Y-69257144D01*
X119310622Y-69149895D01*
X119345923Y-69033523D01*
X119357843Y-68912500D01*
X119357843Y-68337500D01*
X119345923Y-68216477D01*
X119310622Y-68100105D01*
X119253296Y-67992856D01*
X119176149Y-67898851D01*
X119082144Y-67821704D01*
X118974895Y-67764378D01*
X118927497Y-67750000D01*
X118974895Y-67735622D01*
X119082144Y-67678296D01*
X119176149Y-67601149D01*
X119253296Y-67507144D01*
X119310622Y-67399895D01*
X119316354Y-67381000D01*
X119641826Y-67381000D01*
X119687304Y-67418322D01*
G36*
X110119000Y-55532079D02*
G01*
X110119000Y-55828608D01*
X110116501Y-55828854D01*
X109988132Y-55867794D01*
X109869826Y-55931030D01*
X109766130Y-56016130D01*
X109744800Y-56042121D01*
X108642112Y-57144810D01*
X108616121Y-57166140D01*
X108596927Y-57189528D01*
X108591764Y-57183236D01*
X108573411Y-57168174D01*
X108277044Y-56871808D01*
X108281000Y-56851922D01*
X108281000Y-56698078D01*
X108250987Y-56547191D01*
X108192113Y-56405058D01*
X108106642Y-56277141D01*
X107997859Y-56168358D01*
X107869942Y-56082887D01*
X107727809Y-56024013D01*
X107576922Y-55994000D01*
X107423078Y-55994000D01*
X107403192Y-55997956D01*
X107181830Y-55776594D01*
X107166764Y-55758236D01*
X107093522Y-55698128D01*
X107009961Y-55653464D01*
X107007843Y-55652822D01*
X107007843Y-55600000D01*
X107000487Y-55525311D01*
X106978701Y-55453492D01*
X106943322Y-55387304D01*
X106895711Y-55329289D01*
X106837696Y-55281678D01*
X106771508Y-55246299D01*
X106699689Y-55224513D01*
X106625000Y-55217157D01*
X104045000Y-55217157D01*
X103970311Y-55224513D01*
X103898492Y-55246299D01*
X103832304Y-55281678D01*
X103774289Y-55329289D01*
X103726678Y-55387304D01*
X103691299Y-55453492D01*
X103669513Y-55525311D01*
X103662157Y-55600000D01*
X103662157Y-56600000D01*
X103669513Y-56674689D01*
X103691299Y-56746508D01*
X103726678Y-56812696D01*
X103774289Y-56870711D01*
X103832304Y-56918322D01*
X103898492Y-56953701D01*
X103970311Y-56975487D01*
X104045000Y-56982843D01*
X106625000Y-56982843D01*
X106699689Y-56975487D01*
X106741081Y-56962931D01*
X106749013Y-57002809D01*
X106807887Y-57144942D01*
X106893358Y-57272859D01*
X107002141Y-57381642D01*
X107130058Y-57467113D01*
X107147112Y-57474177D01*
X107022191Y-57499025D01*
X106995826Y-57509946D01*
X106978701Y-57453492D01*
X106943322Y-57387304D01*
X106895711Y-57329289D01*
X106837696Y-57281678D01*
X106771508Y-57246299D01*
X106699689Y-57224513D01*
X106625000Y-57217157D01*
X104045000Y-57217157D01*
X103970311Y-57224513D01*
X103898492Y-57246299D01*
X103832304Y-57281678D01*
X103774289Y-57329289D01*
X103726678Y-57387304D01*
X103691299Y-57453492D01*
X103669513Y-57525311D01*
X103662157Y-57600000D01*
X103662157Y-57835225D01*
X103606642Y-57752141D01*
X103497859Y-57643358D01*
X103369942Y-57557887D01*
X103227809Y-57499013D01*
X103076922Y-57469000D01*
X102923078Y-57469000D01*
X102819646Y-57489574D01*
X102808701Y-57453492D01*
X102773322Y-57387304D01*
X102725711Y-57329289D01*
X102667696Y-57281678D01*
X102601508Y-57246299D01*
X102545126Y-57229196D01*
X102579482Y-57225812D01*
X102699180Y-57189502D01*
X102809494Y-57130537D01*
X102906185Y-57051185D01*
X102985537Y-56954494D01*
X103044502Y-56844180D01*
X103080812Y-56724482D01*
X103093072Y-56600000D01*
X103090000Y-56385750D01*
X102931250Y-56227000D01*
X101292000Y-56227000D01*
X101292000Y-56247000D01*
X101038000Y-56247000D01*
X101038000Y-56227000D01*
X101018000Y-56227000D01*
X101018000Y-55973000D01*
X101038000Y-55973000D01*
X101038000Y-55953000D01*
X101292000Y-55953000D01*
X101292000Y-55973000D01*
X102931250Y-55973000D01*
X103090000Y-55814250D01*
X103093072Y-55600000D01*
X103080812Y-55475518D01*
X103044502Y-55355820D01*
X102985537Y-55245506D01*
X102906185Y-55148815D01*
X102809494Y-55069463D01*
X102699180Y-55010498D01*
X102579482Y-54974188D01*
X102545126Y-54970804D01*
X102601508Y-54953701D01*
X102667696Y-54918322D01*
X102725711Y-54870711D01*
X102773322Y-54812696D01*
X102798828Y-54764979D01*
X102906866Y-54732206D01*
X103025172Y-54668970D01*
X103128868Y-54583870D01*
X103150202Y-54557874D01*
X103662157Y-54045919D01*
X103662157Y-54600000D01*
X103669513Y-54674689D01*
X103691299Y-54746508D01*
X103726678Y-54812696D01*
X103774289Y-54870711D01*
X103832304Y-54918322D01*
X103898492Y-54953701D01*
X103970311Y-54975487D01*
X104045000Y-54982843D01*
X106625000Y-54982843D01*
X106699689Y-54975487D01*
X106771508Y-54953701D01*
X106837696Y-54918322D01*
X106895711Y-54870711D01*
X106906327Y-54857775D01*
X107023076Y-54880998D01*
X107176920Y-54880998D01*
X107327807Y-54850985D01*
X107469940Y-54792111D01*
X107597857Y-54706640D01*
X107706640Y-54597857D01*
X107792111Y-54469940D01*
X107850985Y-54327807D01*
X107880998Y-54176920D01*
X107880998Y-54023076D01*
X107850985Y-53872189D01*
X107792111Y-53730056D01*
X107706640Y-53602139D01*
X107597857Y-53493356D01*
X107469940Y-53407885D01*
X107327807Y-53349011D01*
X107176920Y-53318998D01*
X107023076Y-53318998D01*
X106906324Y-53342221D01*
X106895711Y-53329289D01*
X106837696Y-53281678D01*
X106771508Y-53246299D01*
X106699689Y-53224513D01*
X106625000Y-53217157D01*
X104490920Y-53217157D01*
X104527077Y-53181000D01*
X107767922Y-53181000D01*
X110119000Y-55532079D01*
G37*
X110119000Y-55532079D02*
X110119000Y-55828608D01*
X110116501Y-55828854D01*
X109988132Y-55867794D01*
X109869826Y-55931030D01*
X109766130Y-56016130D01*
X109744800Y-56042121D01*
X108642112Y-57144810D01*
X108616121Y-57166140D01*
X108596927Y-57189528D01*
X108591764Y-57183236D01*
X108573411Y-57168174D01*
X108277044Y-56871808D01*
X108281000Y-56851922D01*
X108281000Y-56698078D01*
X108250987Y-56547191D01*
X108192113Y-56405058D01*
X108106642Y-56277141D01*
X107997859Y-56168358D01*
X107869942Y-56082887D01*
X107727809Y-56024013D01*
X107576922Y-55994000D01*
X107423078Y-55994000D01*
X107403192Y-55997956D01*
X107181830Y-55776594D01*
X107166764Y-55758236D01*
X107093522Y-55698128D01*
X107009961Y-55653464D01*
X107007843Y-55652822D01*
X107007843Y-55600000D01*
X107000487Y-55525311D01*
X106978701Y-55453492D01*
X106943322Y-55387304D01*
X106895711Y-55329289D01*
X106837696Y-55281678D01*
X106771508Y-55246299D01*
X106699689Y-55224513D01*
X106625000Y-55217157D01*
X104045000Y-55217157D01*
X103970311Y-55224513D01*
X103898492Y-55246299D01*
X103832304Y-55281678D01*
X103774289Y-55329289D01*
X103726678Y-55387304D01*
X103691299Y-55453492D01*
X103669513Y-55525311D01*
X103662157Y-55600000D01*
X103662157Y-56600000D01*
X103669513Y-56674689D01*
X103691299Y-56746508D01*
X103726678Y-56812696D01*
X103774289Y-56870711D01*
X103832304Y-56918322D01*
X103898492Y-56953701D01*
X103970311Y-56975487D01*
X104045000Y-56982843D01*
X106625000Y-56982843D01*
X106699689Y-56975487D01*
X106741081Y-56962931D01*
X106749013Y-57002809D01*
X106807887Y-57144942D01*
X106893358Y-57272859D01*
X107002141Y-57381642D01*
X107130058Y-57467113D01*
X107147112Y-57474177D01*
X107022191Y-57499025D01*
X106995826Y-57509946D01*
X106978701Y-57453492D01*
X106943322Y-57387304D01*
X106895711Y-57329289D01*
X106837696Y-57281678D01*
X106771508Y-57246299D01*
X106699689Y-57224513D01*
X106625000Y-57217157D01*
X104045000Y-57217157D01*
X103970311Y-57224513D01*
X103898492Y-57246299D01*
X103832304Y-57281678D01*
X103774289Y-57329289D01*
X103726678Y-57387304D01*
X103691299Y-57453492D01*
X103669513Y-57525311D01*
X103662157Y-57600000D01*
X103662157Y-57835225D01*
X103606642Y-57752141D01*
X103497859Y-57643358D01*
X103369942Y-57557887D01*
X103227809Y-57499013D01*
X103076922Y-57469000D01*
X102923078Y-57469000D01*
X102819646Y-57489574D01*
X102808701Y-57453492D01*
X102773322Y-57387304D01*
X102725711Y-57329289D01*
X102667696Y-57281678D01*
X102601508Y-57246299D01*
X102545126Y-57229196D01*
X102579482Y-57225812D01*
X102699180Y-57189502D01*
X102809494Y-57130537D01*
X102906185Y-57051185D01*
X102985537Y-56954494D01*
X103044502Y-56844180D01*
X103080812Y-56724482D01*
X103093072Y-56600000D01*
X103090000Y-56385750D01*
X102931250Y-56227000D01*
X101292000Y-56227000D01*
X101292000Y-56247000D01*
X101038000Y-56247000D01*
X101038000Y-56227000D01*
X101018000Y-56227000D01*
X101018000Y-55973000D01*
X101038000Y-55973000D01*
X101038000Y-55953000D01*
X101292000Y-55953000D01*
X101292000Y-55973000D01*
X102931250Y-55973000D01*
X103090000Y-55814250D01*
X103093072Y-55600000D01*
X103080812Y-55475518D01*
X103044502Y-55355820D01*
X102985537Y-55245506D01*
X102906185Y-55148815D01*
X102809494Y-55069463D01*
X102699180Y-55010498D01*
X102579482Y-54974188D01*
X102545126Y-54970804D01*
X102601508Y-54953701D01*
X102667696Y-54918322D01*
X102725711Y-54870711D01*
X102773322Y-54812696D01*
X102798828Y-54764979D01*
X102906866Y-54732206D01*
X103025172Y-54668970D01*
X103128868Y-54583870D01*
X103150202Y-54557874D01*
X103662157Y-54045919D01*
X103662157Y-54600000D01*
X103669513Y-54674689D01*
X103691299Y-54746508D01*
X103726678Y-54812696D01*
X103774289Y-54870711D01*
X103832304Y-54918322D01*
X103898492Y-54953701D01*
X103970311Y-54975487D01*
X104045000Y-54982843D01*
X106625000Y-54982843D01*
X106699689Y-54975487D01*
X106771508Y-54953701D01*
X106837696Y-54918322D01*
X106895711Y-54870711D01*
X106906327Y-54857775D01*
X107023076Y-54880998D01*
X107176920Y-54880998D01*
X107327807Y-54850985D01*
X107469940Y-54792111D01*
X107597857Y-54706640D01*
X107706640Y-54597857D01*
X107792111Y-54469940D01*
X107850985Y-54327807D01*
X107880998Y-54176920D01*
X107880998Y-54023076D01*
X107850985Y-53872189D01*
X107792111Y-53730056D01*
X107706640Y-53602139D01*
X107597857Y-53493356D01*
X107469940Y-53407885D01*
X107327807Y-53349011D01*
X107176920Y-53318998D01*
X107023076Y-53318998D01*
X106906324Y-53342221D01*
X106895711Y-53329289D01*
X106837696Y-53281678D01*
X106771508Y-53246299D01*
X106699689Y-53224513D01*
X106625000Y-53217157D01*
X104490920Y-53217157D01*
X104527077Y-53181000D01*
X107767922Y-53181000D01*
X110119000Y-55532079D01*
D22*
%TO.N,+12V*%
G36*
X112027000Y-56423000D02*
G01*
X112047000Y-56423000D01*
X112047000Y-56477000D01*
X112027000Y-56477000D01*
X112027000Y-58465500D01*
X112115500Y-58554000D01*
X113150000Y-58555713D01*
X113219396Y-58548878D01*
X113286125Y-58528636D01*
X113347624Y-58495765D01*
X113401527Y-58451527D01*
X113445765Y-58397624D01*
X113478636Y-58336125D01*
X113498878Y-58269396D01*
X113505713Y-58200000D01*
X113504849Y-57375459D01*
X115462107Y-58745540D01*
X115365500Y-58746000D01*
X115277000Y-58834500D01*
X115277000Y-59598000D01*
X115297000Y-59598000D01*
X115297000Y-59652000D01*
X115277000Y-59652000D01*
X115277000Y-59672000D01*
X115223000Y-59672000D01*
X115223000Y-59652000D01*
X114509500Y-59652000D01*
X114421000Y-59740500D01*
X114419287Y-60150000D01*
X114426122Y-60219396D01*
X114446364Y-60286125D01*
X114479235Y-60347624D01*
X114522220Y-60400000D01*
X114227780Y-60400000D01*
X114270765Y-60347624D01*
X114303636Y-60286125D01*
X114323878Y-60219396D01*
X114330713Y-60150000D01*
X114329000Y-59740500D01*
X114240500Y-59652000D01*
X113527000Y-59652000D01*
X113527000Y-59672000D01*
X113473000Y-59672000D01*
X113473000Y-59652000D01*
X113453000Y-59652000D01*
X113453000Y-59598000D01*
X113473000Y-59598000D01*
X113473000Y-58834500D01*
X113527000Y-58834500D01*
X113527000Y-59598000D01*
X114240500Y-59598000D01*
X114329000Y-59509500D01*
X114330713Y-59100000D01*
X114419287Y-59100000D01*
X114421000Y-59509500D01*
X114509500Y-59598000D01*
X115223000Y-59598000D01*
X115223000Y-58834500D01*
X115134500Y-58746000D01*
X114775000Y-58744287D01*
X114705604Y-58751122D01*
X114638875Y-58771364D01*
X114577376Y-58804235D01*
X114523473Y-58848473D01*
X114479235Y-58902376D01*
X114446364Y-58963875D01*
X114426122Y-59030604D01*
X114419287Y-59100000D01*
X114330713Y-59100000D01*
X114323878Y-59030604D01*
X114303636Y-58963875D01*
X114270765Y-58902376D01*
X114226527Y-58848473D01*
X114172624Y-58804235D01*
X114111125Y-58771364D01*
X114044396Y-58751122D01*
X113975000Y-58744287D01*
X113615500Y-58746000D01*
X113527000Y-58834500D01*
X113473000Y-58834500D01*
X113384500Y-58746000D01*
X113025000Y-58744287D01*
X112955604Y-58751122D01*
X112888875Y-58771364D01*
X112827376Y-58804235D01*
X112773473Y-58848473D01*
X112731788Y-58899265D01*
X112728636Y-58888875D01*
X112695765Y-58827376D01*
X112651527Y-58773473D01*
X112597624Y-58729235D01*
X112536125Y-58696364D01*
X112469396Y-58676122D01*
X112400000Y-58669287D01*
X111990500Y-58671000D01*
X111902000Y-58759500D01*
X111902000Y-59473000D01*
X111922000Y-59473000D01*
X111922000Y-59527000D01*
X111902000Y-59527000D01*
X111902000Y-60240500D01*
X111990500Y-60329000D01*
X112400000Y-60330713D01*
X112469396Y-60323878D01*
X112536125Y-60303636D01*
X112597624Y-60270765D01*
X112651527Y-60226527D01*
X112674114Y-60199006D01*
X112676122Y-60219396D01*
X112696364Y-60286125D01*
X112729235Y-60347624D01*
X112772220Y-60400000D01*
X111100000Y-60400000D01*
X111100000Y-60227780D01*
X111152376Y-60270765D01*
X111213875Y-60303636D01*
X111280604Y-60323878D01*
X111350000Y-60330713D01*
X111759500Y-60329000D01*
X111848000Y-60240500D01*
X111848000Y-59527000D01*
X111828000Y-59527000D01*
X111828000Y-59473000D01*
X111848000Y-59473000D01*
X111848000Y-58759500D01*
X111759500Y-58671000D01*
X111350000Y-58669287D01*
X111280604Y-58676122D01*
X111213875Y-58696364D01*
X111152376Y-58729235D01*
X111098473Y-58773473D01*
X111054235Y-58827376D01*
X111032372Y-58868280D01*
X110822166Y-58552972D01*
X110850000Y-58555713D01*
X111884500Y-58554000D01*
X111973000Y-58465500D01*
X111973000Y-56477000D01*
X111953000Y-56477000D01*
X111953000Y-56423000D01*
X111973000Y-56423000D01*
X111973000Y-56403000D01*
X112027000Y-56403000D01*
X112027000Y-56423000D01*
G37*
X112027000Y-56423000D02*
X112047000Y-56423000D01*
X112047000Y-56477000D01*
X112027000Y-56477000D01*
X112027000Y-58465500D01*
X112115500Y-58554000D01*
X113150000Y-58555713D01*
X113219396Y-58548878D01*
X113286125Y-58528636D01*
X113347624Y-58495765D01*
X113401527Y-58451527D01*
X113445765Y-58397624D01*
X113478636Y-58336125D01*
X113498878Y-58269396D01*
X113505713Y-58200000D01*
X113504849Y-57375459D01*
X115462107Y-58745540D01*
X115365500Y-58746000D01*
X115277000Y-58834500D01*
X115277000Y-59598000D01*
X115297000Y-59598000D01*
X115297000Y-59652000D01*
X115277000Y-59652000D01*
X115277000Y-59672000D01*
X115223000Y-59672000D01*
X115223000Y-59652000D01*
X114509500Y-59652000D01*
X114421000Y-59740500D01*
X114419287Y-60150000D01*
X114426122Y-60219396D01*
X114446364Y-60286125D01*
X114479235Y-60347624D01*
X114522220Y-60400000D01*
X114227780Y-60400000D01*
X114270765Y-60347624D01*
X114303636Y-60286125D01*
X114323878Y-60219396D01*
X114330713Y-60150000D01*
X114329000Y-59740500D01*
X114240500Y-59652000D01*
X113527000Y-59652000D01*
X113527000Y-59672000D01*
X113473000Y-59672000D01*
X113473000Y-59652000D01*
X113453000Y-59652000D01*
X113453000Y-59598000D01*
X113473000Y-59598000D01*
X113473000Y-58834500D01*
X113527000Y-58834500D01*
X113527000Y-59598000D01*
X114240500Y-59598000D01*
X114329000Y-59509500D01*
X114330713Y-59100000D01*
X114419287Y-59100000D01*
X114421000Y-59509500D01*
X114509500Y-59598000D01*
X115223000Y-59598000D01*
X115223000Y-58834500D01*
X115134500Y-58746000D01*
X114775000Y-58744287D01*
X114705604Y-58751122D01*
X114638875Y-58771364D01*
X114577376Y-58804235D01*
X114523473Y-58848473D01*
X114479235Y-58902376D01*
X114446364Y-58963875D01*
X114426122Y-59030604D01*
X114419287Y-59100000D01*
X114330713Y-59100000D01*
X114323878Y-59030604D01*
X114303636Y-58963875D01*
X114270765Y-58902376D01*
X114226527Y-58848473D01*
X114172624Y-58804235D01*
X114111125Y-58771364D01*
X114044396Y-58751122D01*
X113975000Y-58744287D01*
X113615500Y-58746000D01*
X113527000Y-58834500D01*
X113473000Y-58834500D01*
X113384500Y-58746000D01*
X113025000Y-58744287D01*
X112955604Y-58751122D01*
X112888875Y-58771364D01*
X112827376Y-58804235D01*
X112773473Y-58848473D01*
X112731788Y-58899265D01*
X112728636Y-58888875D01*
X112695765Y-58827376D01*
X112651527Y-58773473D01*
X112597624Y-58729235D01*
X112536125Y-58696364D01*
X112469396Y-58676122D01*
X112400000Y-58669287D01*
X111990500Y-58671000D01*
X111902000Y-58759500D01*
X111902000Y-59473000D01*
X111922000Y-59473000D01*
X111922000Y-59527000D01*
X111902000Y-59527000D01*
X111902000Y-60240500D01*
X111990500Y-60329000D01*
X112400000Y-60330713D01*
X112469396Y-60323878D01*
X112536125Y-60303636D01*
X112597624Y-60270765D01*
X112651527Y-60226527D01*
X112674114Y-60199006D01*
X112676122Y-60219396D01*
X112696364Y-60286125D01*
X112729235Y-60347624D01*
X112772220Y-60400000D01*
X111100000Y-60400000D01*
X111100000Y-60227780D01*
X111152376Y-60270765D01*
X111213875Y-60303636D01*
X111280604Y-60323878D01*
X111350000Y-60330713D01*
X111759500Y-60329000D01*
X111848000Y-60240500D01*
X111848000Y-59527000D01*
X111828000Y-59527000D01*
X111828000Y-59473000D01*
X111848000Y-59473000D01*
X111848000Y-58759500D01*
X111759500Y-58671000D01*
X111350000Y-58669287D01*
X111280604Y-58676122D01*
X111213875Y-58696364D01*
X111152376Y-58729235D01*
X111098473Y-58773473D01*
X111054235Y-58827376D01*
X111032372Y-58868280D01*
X110822166Y-58552972D01*
X110850000Y-58555713D01*
X111884500Y-58554000D01*
X111973000Y-58465500D01*
X111973000Y-56477000D01*
X111953000Y-56477000D01*
X111953000Y-56423000D01*
X111973000Y-56423000D01*
X111973000Y-56403000D01*
X112027000Y-56403000D01*
X112027000Y-56423000D01*
%TD*%
M02*
