%TF.GenerationSoftware,KiCad,Pcbnew,(5.1.6)-1*%
%TF.CreationDate,2020-12-26T20:27:21+01:00*%
%TF.ProjectId,ScreenBoard,53637265-656e-4426-9f61-72642e6b6963,rev?*%
%TF.SameCoordinates,Original*%
%TF.FileFunction,Copper,L3,Inr*%
%TF.FilePolarity,Positive*%
%FSLAX46Y46*%
G04 Gerber Fmt 4.6, Leading zero omitted, Abs format (unit mm)*
G04 Created by KiCad (PCBNEW (5.1.6)-1) date 2020-12-26 20:27:21*
%MOMM*%
%LPD*%
G01*
G04 APERTURE LIST*
%TA.AperFunction,ViaPad*%
%ADD10C,0.800000*%
%TD*%
%TA.AperFunction,Conductor*%
%ADD11C,0.254000*%
%TD*%
G04 APERTURE END LIST*
D10*
%TO.N,GND*%
X121750000Y-54250000D03*
X133750000Y-51500000D03*
X133750000Y-62500000D03*
X129450003Y-54700003D03*
X125449997Y-51449997D03*
X125450003Y-62549997D03*
X129874978Y-66875000D03*
X131250000Y-75749998D03*
X110104991Y-73645009D03*
X133145014Y-73645000D03*
X114250000Y-72750000D03*
X117250000Y-72750000D03*
X117750000Y-70750000D03*
X118250000Y-72750000D03*
X118750000Y-70750000D03*
X119250000Y-72750000D03*
X121250000Y-70750000D03*
X121750000Y-72750000D03*
X122250000Y-70750000D03*
X122600000Y-72750000D03*
X122374995Y-61374995D03*
X113000000Y-65750000D03*
X114750000Y-65750000D03*
X116500000Y-65500000D03*
X125500000Y-65250000D03*
X123500000Y-65750000D03*
X127250000Y-65750000D03*
X121750000Y-65750000D03*
X128800003Y-72949997D03*
X127799994Y-72950000D03*
X113645005Y-73644995D03*
X111849990Y-71650010D03*
X131250000Y-71500000D03*
X126875019Y-63875019D03*
X127250000Y-50125000D03*
X132125011Y-50124989D03*
X135374993Y-50124993D03*
X123875008Y-50125008D03*
X135375003Y-63875003D03*
X123875003Y-63875003D03*
X132125012Y-63875012D03*
X111050006Y-64300006D03*
X118250000Y-60500000D03*
X102999984Y-56100004D03*
%TO.N,+3V3*%
X120500000Y-57250000D03*
X129399992Y-56899992D03*
X125500000Y-69750000D03*
X116500000Y-69750000D03*
X115749992Y-72750000D03*
X122374995Y-59624995D03*
X119500000Y-58750000D03*
X119500000Y-62250000D03*
X120250000Y-51750000D03*
X126750000Y-73000000D03*
X107099998Y-54099998D03*
%TO.N,/SPI_MISO*%
X125000000Y-53500000D03*
X103000000Y-58250000D03*
%TO.N,/SPI_SCK*%
X125000000Y-55750000D03*
X107250000Y-58250012D03*
%TO.N,/SPI_MOSI*%
X107500000Y-56775000D03*
X126250000Y-57250000D03*
%TO.N,/SD_CS*%
X126150004Y-59099996D03*
X105500000Y-69000000D03*
%TD*%
D11*
%TO.N,+3V3*%
G36*
X123215234Y-49321071D02*
G01*
X123071071Y-49465234D01*
X122957803Y-49634752D01*
X122879782Y-49823110D01*
X122840008Y-50023069D01*
X122840008Y-50226947D01*
X122879782Y-50426906D01*
X122957803Y-50615264D01*
X123071071Y-50784782D01*
X123215234Y-50928945D01*
X123384752Y-51042213D01*
X123573110Y-51120234D01*
X123773069Y-51160008D01*
X123976947Y-51160008D01*
X124176906Y-51120234D01*
X124365264Y-51042213D01*
X124534782Y-50928945D01*
X124590797Y-50872930D01*
X124532792Y-50959741D01*
X124454771Y-51148099D01*
X124414997Y-51348058D01*
X124414997Y-51551936D01*
X124454771Y-51751895D01*
X124532792Y-51940253D01*
X124646060Y-52109771D01*
X124790223Y-52253934D01*
X124959741Y-52367202D01*
X125148099Y-52445223D01*
X125348058Y-52484997D01*
X125551936Y-52484997D01*
X125751895Y-52445223D01*
X125940253Y-52367202D01*
X126109771Y-52253934D01*
X126253934Y-52109771D01*
X126367202Y-51940253D01*
X126445223Y-51751895D01*
X126484997Y-51551936D01*
X126484997Y-51398061D01*
X132715000Y-51398061D01*
X132715000Y-51601939D01*
X132754774Y-51801898D01*
X132832795Y-51990256D01*
X132946063Y-52159774D01*
X133090226Y-52303937D01*
X133259744Y-52417205D01*
X133448102Y-52495226D01*
X133648061Y-52535000D01*
X133851939Y-52535000D01*
X134051898Y-52495226D01*
X134240256Y-52417205D01*
X134409774Y-52303937D01*
X134553937Y-52159774D01*
X134667205Y-51990256D01*
X134745226Y-51801898D01*
X134785000Y-51601939D01*
X134785000Y-51398061D01*
X134745226Y-51198102D01*
X134667205Y-51009744D01*
X134553937Y-50840226D01*
X134409774Y-50696063D01*
X134240256Y-50582795D01*
X134051898Y-50504774D01*
X133851939Y-50465000D01*
X133648061Y-50465000D01*
X133448102Y-50504774D01*
X133259744Y-50582795D01*
X133090226Y-50696063D01*
X132946063Y-50840226D01*
X132832795Y-51009744D01*
X132754774Y-51198102D01*
X132715000Y-51398061D01*
X126484997Y-51398061D01*
X126484997Y-51348058D01*
X126445223Y-51148099D01*
X126367202Y-50959741D01*
X126253934Y-50790223D01*
X126109771Y-50646060D01*
X125940253Y-50532792D01*
X125751895Y-50454771D01*
X125551936Y-50414997D01*
X125348058Y-50414997D01*
X125148099Y-50454771D01*
X124959741Y-50532792D01*
X124790223Y-50646060D01*
X124734208Y-50702075D01*
X124792213Y-50615264D01*
X124870234Y-50426906D01*
X124910008Y-50226947D01*
X124910008Y-50023069D01*
X124870234Y-49823110D01*
X124792213Y-49634752D01*
X124678945Y-49465234D01*
X124534782Y-49321071D01*
X124480798Y-49285000D01*
X126644198Y-49285000D01*
X126590226Y-49321063D01*
X126446063Y-49465226D01*
X126332795Y-49634744D01*
X126254774Y-49823102D01*
X126215000Y-50023061D01*
X126215000Y-50226939D01*
X126254774Y-50426898D01*
X126332795Y-50615256D01*
X126446063Y-50784774D01*
X126590226Y-50928937D01*
X126759744Y-51042205D01*
X126948102Y-51120226D01*
X127148061Y-51160000D01*
X127351939Y-51160000D01*
X127551898Y-51120226D01*
X127740256Y-51042205D01*
X127909774Y-50928937D01*
X128053937Y-50784774D01*
X128167205Y-50615256D01*
X128245226Y-50426898D01*
X128285000Y-50226939D01*
X128285000Y-50023061D01*
X128245226Y-49823102D01*
X128167205Y-49634744D01*
X128053937Y-49465226D01*
X127909774Y-49321063D01*
X127855802Y-49285000D01*
X131519193Y-49285000D01*
X131465237Y-49321052D01*
X131321074Y-49465215D01*
X131207806Y-49634733D01*
X131129785Y-49823091D01*
X131090011Y-50023050D01*
X131090011Y-50226928D01*
X131129785Y-50426887D01*
X131207806Y-50615245D01*
X131321074Y-50784763D01*
X131465237Y-50928926D01*
X131634755Y-51042194D01*
X131823113Y-51120215D01*
X132023072Y-51159989D01*
X132226950Y-51159989D01*
X132426909Y-51120215D01*
X132615267Y-51042194D01*
X132784785Y-50928926D01*
X132928948Y-50784763D01*
X133042216Y-50615245D01*
X133120237Y-50426887D01*
X133160011Y-50226928D01*
X133160011Y-50023050D01*
X133120237Y-49823091D01*
X133042216Y-49634733D01*
X132928948Y-49465215D01*
X132784785Y-49321052D01*
X132730829Y-49285000D01*
X134769181Y-49285000D01*
X134715219Y-49321056D01*
X134571056Y-49465219D01*
X134457788Y-49634737D01*
X134379767Y-49823095D01*
X134339993Y-50023054D01*
X134339993Y-50226932D01*
X134379767Y-50426891D01*
X134457788Y-50615249D01*
X134571056Y-50784767D01*
X134715219Y-50928930D01*
X134884737Y-51042198D01*
X135073095Y-51120219D01*
X135273054Y-51159993D01*
X135476932Y-51159993D01*
X135676891Y-51120219D01*
X135865249Y-51042198D01*
X136034767Y-50928930D01*
X136178930Y-50784767D01*
X136292198Y-50615249D01*
X136370219Y-50426891D01*
X136409993Y-50226932D01*
X136409993Y-50023054D01*
X136370219Y-49823095D01*
X136292198Y-49634737D01*
X136178930Y-49465219D01*
X136034767Y-49321056D01*
X135980805Y-49285000D01*
X137615000Y-49285000D01*
X137615001Y-83115000D01*
X103385000Y-83115000D01*
X103385000Y-75648059D01*
X130215000Y-75648059D01*
X130215000Y-75851937D01*
X130254774Y-76051896D01*
X130332795Y-76240254D01*
X130446063Y-76409772D01*
X130590226Y-76553935D01*
X130759744Y-76667203D01*
X130948102Y-76745224D01*
X131148061Y-76784998D01*
X131351939Y-76784998D01*
X131551898Y-76745224D01*
X131740256Y-76667203D01*
X131909774Y-76553935D01*
X132053937Y-76409772D01*
X132167205Y-76240254D01*
X132245226Y-76051896D01*
X132285000Y-75851937D01*
X132285000Y-75648059D01*
X132245226Y-75448100D01*
X132167205Y-75259742D01*
X132053937Y-75090224D01*
X131909774Y-74946061D01*
X131740256Y-74832793D01*
X131551898Y-74754772D01*
X131351939Y-74714998D01*
X131148061Y-74714998D01*
X130948102Y-74754772D01*
X130759744Y-74832793D01*
X130590226Y-74946061D01*
X130446063Y-75090224D01*
X130332795Y-75259742D01*
X130254774Y-75448100D01*
X130215000Y-75648059D01*
X103385000Y-75648059D01*
X103385000Y-73543070D01*
X109069991Y-73543070D01*
X109069991Y-73746948D01*
X109109765Y-73946907D01*
X109187786Y-74135265D01*
X109301054Y-74304783D01*
X109445217Y-74448946D01*
X109614735Y-74562214D01*
X109803093Y-74640235D01*
X110003052Y-74680009D01*
X110206930Y-74680009D01*
X110406889Y-74640235D01*
X110595247Y-74562214D01*
X110764765Y-74448946D01*
X110908928Y-74304783D01*
X111022196Y-74135265D01*
X111100217Y-73946907D01*
X111139991Y-73746948D01*
X111139991Y-73543070D01*
X111139989Y-73543056D01*
X112610005Y-73543056D01*
X112610005Y-73746934D01*
X112649779Y-73946893D01*
X112727800Y-74135251D01*
X112841068Y-74304769D01*
X112985231Y-74448932D01*
X113154749Y-74562200D01*
X113343107Y-74640221D01*
X113543066Y-74679995D01*
X113746944Y-74679995D01*
X113946903Y-74640221D01*
X114135261Y-74562200D01*
X114304779Y-74448932D01*
X114448942Y-74304769D01*
X114562210Y-74135251D01*
X114640231Y-73946893D01*
X114680005Y-73746934D01*
X114680005Y-73692162D01*
X114740256Y-73667205D01*
X114909774Y-73553937D01*
X115053937Y-73409774D01*
X115167205Y-73240256D01*
X115245226Y-73051898D01*
X115285000Y-72851939D01*
X115285000Y-72648061D01*
X116215000Y-72648061D01*
X116215000Y-72851939D01*
X116254774Y-73051898D01*
X116332795Y-73240256D01*
X116446063Y-73409774D01*
X116590226Y-73553937D01*
X116759744Y-73667205D01*
X116948102Y-73745226D01*
X117148061Y-73785000D01*
X117351939Y-73785000D01*
X117551898Y-73745226D01*
X117740256Y-73667205D01*
X117750000Y-73660694D01*
X117759744Y-73667205D01*
X117948102Y-73745226D01*
X118148061Y-73785000D01*
X118351939Y-73785000D01*
X118551898Y-73745226D01*
X118740256Y-73667205D01*
X118750000Y-73660694D01*
X118759744Y-73667205D01*
X118948102Y-73745226D01*
X119148061Y-73785000D01*
X119351939Y-73785000D01*
X119551898Y-73745226D01*
X119740256Y-73667205D01*
X119909774Y-73553937D01*
X120053937Y-73409774D01*
X120167205Y-73240256D01*
X120245226Y-73051898D01*
X120285000Y-72851939D01*
X120285000Y-72648061D01*
X120245226Y-72448102D01*
X120167205Y-72259744D01*
X120053937Y-72090226D01*
X119909774Y-71946063D01*
X119740256Y-71832795D01*
X119551898Y-71754774D01*
X119351939Y-71715000D01*
X119148061Y-71715000D01*
X119103444Y-71723875D01*
X119240256Y-71667205D01*
X119409774Y-71553937D01*
X119553937Y-71409774D01*
X119667205Y-71240256D01*
X119745226Y-71051898D01*
X119785000Y-70851939D01*
X119785000Y-70648061D01*
X120215000Y-70648061D01*
X120215000Y-70851939D01*
X120254774Y-71051898D01*
X120332795Y-71240256D01*
X120446063Y-71409774D01*
X120590226Y-71553937D01*
X120759744Y-71667205D01*
X120948102Y-71745226D01*
X121148061Y-71785000D01*
X121351939Y-71785000D01*
X121396556Y-71776125D01*
X121259744Y-71832795D01*
X121090226Y-71946063D01*
X120946063Y-72090226D01*
X120832795Y-72259744D01*
X120754774Y-72448102D01*
X120715000Y-72648061D01*
X120715000Y-72851939D01*
X120754774Y-73051898D01*
X120832795Y-73240256D01*
X120946063Y-73409774D01*
X121090226Y-73553937D01*
X121259744Y-73667205D01*
X121448102Y-73745226D01*
X121648061Y-73785000D01*
X121851939Y-73785000D01*
X122051898Y-73745226D01*
X122175000Y-73694235D01*
X122298102Y-73745226D01*
X122498061Y-73785000D01*
X122701939Y-73785000D01*
X122901898Y-73745226D01*
X123090256Y-73667205D01*
X123259774Y-73553937D01*
X123403937Y-73409774D01*
X123517205Y-73240256D01*
X123595226Y-73051898D01*
X123635000Y-72851939D01*
X123635000Y-72848061D01*
X126764994Y-72848061D01*
X126764994Y-73051939D01*
X126804768Y-73251898D01*
X126882789Y-73440256D01*
X126996057Y-73609774D01*
X127140220Y-73753937D01*
X127309738Y-73867205D01*
X127498096Y-73945226D01*
X127698055Y-73985000D01*
X127901933Y-73985000D01*
X128101892Y-73945226D01*
X128290250Y-73867205D01*
X128300001Y-73860690D01*
X128309747Y-73867202D01*
X128498105Y-73945223D01*
X128698064Y-73984997D01*
X128901942Y-73984997D01*
X129101901Y-73945223D01*
X129290259Y-73867202D01*
X129459777Y-73753934D01*
X129603940Y-73609771D01*
X129648514Y-73543061D01*
X132110014Y-73543061D01*
X132110014Y-73746939D01*
X132149788Y-73946898D01*
X132227809Y-74135256D01*
X132341077Y-74304774D01*
X132485240Y-74448937D01*
X132654758Y-74562205D01*
X132843116Y-74640226D01*
X133043075Y-74680000D01*
X133246953Y-74680000D01*
X133446912Y-74640226D01*
X133635270Y-74562205D01*
X133804788Y-74448937D01*
X133948951Y-74304774D01*
X134062219Y-74135256D01*
X134140240Y-73946898D01*
X134180014Y-73746939D01*
X134180014Y-73543061D01*
X134140240Y-73343102D01*
X134062219Y-73154744D01*
X133948951Y-72985226D01*
X133804788Y-72841063D01*
X133635270Y-72727795D01*
X133446912Y-72649774D01*
X133246953Y-72610000D01*
X133043075Y-72610000D01*
X132843116Y-72649774D01*
X132654758Y-72727795D01*
X132485240Y-72841063D01*
X132341077Y-72985226D01*
X132227809Y-73154744D01*
X132149788Y-73343102D01*
X132110014Y-73543061D01*
X129648514Y-73543061D01*
X129717208Y-73440253D01*
X129795229Y-73251895D01*
X129835003Y-73051936D01*
X129835003Y-72848058D01*
X129795229Y-72648099D01*
X129717208Y-72459741D01*
X129603940Y-72290223D01*
X129459777Y-72146060D01*
X129290259Y-72032792D01*
X129101901Y-71954771D01*
X128901942Y-71914997D01*
X128698064Y-71914997D01*
X128498105Y-71954771D01*
X128309747Y-72032792D01*
X128299996Y-72039307D01*
X128290250Y-72032795D01*
X128101892Y-71954774D01*
X127901933Y-71915000D01*
X127698055Y-71915000D01*
X127498096Y-71954774D01*
X127309738Y-72032795D01*
X127140220Y-72146063D01*
X126996057Y-72290226D01*
X126882789Y-72459744D01*
X126804768Y-72648102D01*
X126764994Y-72848061D01*
X123635000Y-72848061D01*
X123635000Y-72648061D01*
X123595226Y-72448102D01*
X123517205Y-72259744D01*
X123403937Y-72090226D01*
X123259774Y-71946063D01*
X123090256Y-71832795D01*
X122901898Y-71754774D01*
X122701939Y-71715000D01*
X122624869Y-71715000D01*
X122740256Y-71667205D01*
X122909774Y-71553937D01*
X123053937Y-71409774D01*
X123061763Y-71398061D01*
X130215000Y-71398061D01*
X130215000Y-71601939D01*
X130254774Y-71801898D01*
X130332795Y-71990256D01*
X130446063Y-72159774D01*
X130590226Y-72303937D01*
X130759744Y-72417205D01*
X130948102Y-72495226D01*
X131148061Y-72535000D01*
X131351939Y-72535000D01*
X131551898Y-72495226D01*
X131740256Y-72417205D01*
X131909774Y-72303937D01*
X132053937Y-72159774D01*
X132167205Y-71990256D01*
X132245226Y-71801898D01*
X132285000Y-71601939D01*
X132285000Y-71398061D01*
X132245226Y-71198102D01*
X132167205Y-71009744D01*
X132053937Y-70840226D01*
X131909774Y-70696063D01*
X131740256Y-70582795D01*
X131551898Y-70504774D01*
X131351939Y-70465000D01*
X131148061Y-70465000D01*
X130948102Y-70504774D01*
X130759744Y-70582795D01*
X130590226Y-70696063D01*
X130446063Y-70840226D01*
X130332795Y-71009744D01*
X130254774Y-71198102D01*
X130215000Y-71398061D01*
X123061763Y-71398061D01*
X123167205Y-71240256D01*
X123245226Y-71051898D01*
X123285000Y-70851939D01*
X123285000Y-70648061D01*
X123245226Y-70448102D01*
X123167205Y-70259744D01*
X123053937Y-70090226D01*
X122909774Y-69946063D01*
X122740256Y-69832795D01*
X122551898Y-69754774D01*
X122351939Y-69715000D01*
X122148061Y-69715000D01*
X121948102Y-69754774D01*
X121759744Y-69832795D01*
X121750000Y-69839306D01*
X121740256Y-69832795D01*
X121551898Y-69754774D01*
X121351939Y-69715000D01*
X121148061Y-69715000D01*
X120948102Y-69754774D01*
X120759744Y-69832795D01*
X120590226Y-69946063D01*
X120446063Y-70090226D01*
X120332795Y-70259744D01*
X120254774Y-70448102D01*
X120215000Y-70648061D01*
X119785000Y-70648061D01*
X119745226Y-70448102D01*
X119667205Y-70259744D01*
X119553937Y-70090226D01*
X119409774Y-69946063D01*
X119240256Y-69832795D01*
X119051898Y-69754774D01*
X118851939Y-69715000D01*
X118648061Y-69715000D01*
X118448102Y-69754774D01*
X118259744Y-69832795D01*
X118250000Y-69839306D01*
X118240256Y-69832795D01*
X118051898Y-69754774D01*
X117851939Y-69715000D01*
X117648061Y-69715000D01*
X117448102Y-69754774D01*
X117259744Y-69832795D01*
X117090226Y-69946063D01*
X116946063Y-70090226D01*
X116832795Y-70259744D01*
X116754774Y-70448102D01*
X116715000Y-70648061D01*
X116715000Y-70851939D01*
X116754774Y-71051898D01*
X116832795Y-71240256D01*
X116946063Y-71409774D01*
X117090226Y-71553937D01*
X117259744Y-71667205D01*
X117396556Y-71723875D01*
X117351939Y-71715000D01*
X117148061Y-71715000D01*
X116948102Y-71754774D01*
X116759744Y-71832795D01*
X116590226Y-71946063D01*
X116446063Y-72090226D01*
X116332795Y-72259744D01*
X116254774Y-72448102D01*
X116215000Y-72648061D01*
X115285000Y-72648061D01*
X115245226Y-72448102D01*
X115167205Y-72259744D01*
X115053937Y-72090226D01*
X114909774Y-71946063D01*
X114740256Y-71832795D01*
X114551898Y-71754774D01*
X114351939Y-71715000D01*
X114148061Y-71715000D01*
X113948102Y-71754774D01*
X113759744Y-71832795D01*
X113590226Y-71946063D01*
X113446063Y-72090226D01*
X113332795Y-72259744D01*
X113254774Y-72448102D01*
X113215000Y-72648061D01*
X113215000Y-72702833D01*
X113154749Y-72727790D01*
X112985231Y-72841058D01*
X112841068Y-72985221D01*
X112727800Y-73154739D01*
X112649779Y-73343097D01*
X112610005Y-73543056D01*
X111139989Y-73543056D01*
X111100217Y-73343111D01*
X111022196Y-73154753D01*
X110908928Y-72985235D01*
X110764765Y-72841072D01*
X110595247Y-72727804D01*
X110406889Y-72649783D01*
X110206930Y-72610009D01*
X110003052Y-72610009D01*
X109803093Y-72649783D01*
X109614735Y-72727804D01*
X109445217Y-72841072D01*
X109301054Y-72985235D01*
X109187786Y-73154753D01*
X109109765Y-73343111D01*
X109069991Y-73543070D01*
X103385000Y-73543070D01*
X103385000Y-72043477D01*
X103389282Y-72000000D01*
X103372195Y-71826510D01*
X103321589Y-71659687D01*
X103261930Y-71548071D01*
X110814990Y-71548071D01*
X110814990Y-71751949D01*
X110854764Y-71951908D01*
X110932785Y-72140266D01*
X111046053Y-72309784D01*
X111190216Y-72453947D01*
X111359734Y-72567215D01*
X111548092Y-72645236D01*
X111748051Y-72685010D01*
X111951929Y-72685010D01*
X112151888Y-72645236D01*
X112340246Y-72567215D01*
X112509764Y-72453947D01*
X112653927Y-72309784D01*
X112767195Y-72140266D01*
X112845216Y-71951908D01*
X112884990Y-71751949D01*
X112884990Y-71548071D01*
X112845216Y-71348112D01*
X112767195Y-71159754D01*
X112653927Y-70990236D01*
X112509764Y-70846073D01*
X112340246Y-70732805D01*
X112151888Y-70654784D01*
X111951929Y-70615010D01*
X111748051Y-70615010D01*
X111548092Y-70654784D01*
X111359734Y-70732805D01*
X111190216Y-70846073D01*
X111046053Y-70990236D01*
X110932785Y-71159754D01*
X110854764Y-71348112D01*
X110814990Y-71548071D01*
X103261930Y-71548071D01*
X103239411Y-71505941D01*
X103128817Y-71371183D01*
X102994059Y-71260589D01*
X102840313Y-71178411D01*
X102673490Y-71127805D01*
X102543477Y-71115000D01*
X102543476Y-71115000D01*
X102500000Y-71110718D01*
X102456523Y-71115000D01*
X99635000Y-71115000D01*
X99635000Y-68898061D01*
X104465000Y-68898061D01*
X104465000Y-69101939D01*
X104504774Y-69301898D01*
X104582795Y-69490256D01*
X104696063Y-69659774D01*
X104840226Y-69803937D01*
X105009744Y-69917205D01*
X105198102Y-69995226D01*
X105398061Y-70035000D01*
X105601939Y-70035000D01*
X105801898Y-69995226D01*
X105990256Y-69917205D01*
X106159774Y-69803937D01*
X106303937Y-69659774D01*
X106417205Y-69490256D01*
X106495226Y-69301898D01*
X106535000Y-69101939D01*
X106535000Y-68898061D01*
X106495226Y-68698102D01*
X106417205Y-68509744D01*
X106303937Y-68340226D01*
X106159774Y-68196063D01*
X105990256Y-68082795D01*
X105801898Y-68004774D01*
X105601939Y-67965000D01*
X105398061Y-67965000D01*
X105198102Y-68004774D01*
X105009744Y-68082795D01*
X104840226Y-68196063D01*
X104696063Y-68340226D01*
X104582795Y-68509744D01*
X104504774Y-68698102D01*
X104465000Y-68898061D01*
X99635000Y-68898061D01*
X99635000Y-65648061D01*
X111965000Y-65648061D01*
X111965000Y-65851939D01*
X112004774Y-66051898D01*
X112082795Y-66240256D01*
X112196063Y-66409774D01*
X112340226Y-66553937D01*
X112509744Y-66667205D01*
X112698102Y-66745226D01*
X112898061Y-66785000D01*
X113101939Y-66785000D01*
X113301898Y-66745226D01*
X113490256Y-66667205D01*
X113659774Y-66553937D01*
X113803937Y-66409774D01*
X113875000Y-66303420D01*
X113946063Y-66409774D01*
X114090226Y-66553937D01*
X114259744Y-66667205D01*
X114448102Y-66745226D01*
X114648061Y-66785000D01*
X114851939Y-66785000D01*
X115051898Y-66745226D01*
X115240256Y-66667205D01*
X115409774Y-66553937D01*
X115553937Y-66409774D01*
X115667205Y-66240256D01*
X115699230Y-66162941D01*
X115840226Y-66303937D01*
X116009744Y-66417205D01*
X116198102Y-66495226D01*
X116398061Y-66535000D01*
X116601939Y-66535000D01*
X116801898Y-66495226D01*
X116990256Y-66417205D01*
X117159774Y-66303937D01*
X117303937Y-66159774D01*
X117417205Y-65990256D01*
X117495226Y-65801898D01*
X117525825Y-65648061D01*
X120715000Y-65648061D01*
X120715000Y-65851939D01*
X120754774Y-66051898D01*
X120832795Y-66240256D01*
X120946063Y-66409774D01*
X121090226Y-66553937D01*
X121259744Y-66667205D01*
X121448102Y-66745226D01*
X121648061Y-66785000D01*
X121851939Y-66785000D01*
X122051898Y-66745226D01*
X122240256Y-66667205D01*
X122409774Y-66553937D01*
X122553937Y-66409774D01*
X122625000Y-66303420D01*
X122696063Y-66409774D01*
X122840226Y-66553937D01*
X123009744Y-66667205D01*
X123198102Y-66745226D01*
X123398061Y-66785000D01*
X123601939Y-66785000D01*
X123801898Y-66745226D01*
X123990256Y-66667205D01*
X124159774Y-66553937D01*
X124303937Y-66409774D01*
X124417205Y-66240256D01*
X124495226Y-66051898D01*
X124535000Y-65851939D01*
X124535000Y-65648061D01*
X124526125Y-65603444D01*
X124582795Y-65740256D01*
X124696063Y-65909774D01*
X124840226Y-66053937D01*
X125009744Y-66167205D01*
X125198102Y-66245226D01*
X125398061Y-66285000D01*
X125601939Y-66285000D01*
X125801898Y-66245226D01*
X125990256Y-66167205D01*
X126159774Y-66053937D01*
X126239351Y-65974360D01*
X126254774Y-66051898D01*
X126332795Y-66240256D01*
X126446063Y-66409774D01*
X126590226Y-66553937D01*
X126759744Y-66667205D01*
X126948102Y-66745226D01*
X127148061Y-66785000D01*
X127351939Y-66785000D01*
X127411960Y-66773061D01*
X128839978Y-66773061D01*
X128839978Y-66976939D01*
X128879752Y-67176898D01*
X128957773Y-67365256D01*
X129071041Y-67534774D01*
X129215204Y-67678937D01*
X129384722Y-67792205D01*
X129573080Y-67870226D01*
X129773039Y-67910000D01*
X129976917Y-67910000D01*
X130176876Y-67870226D01*
X130365234Y-67792205D01*
X130534752Y-67678937D01*
X130678915Y-67534774D01*
X130792183Y-67365256D01*
X130870204Y-67176898D01*
X130909978Y-66976939D01*
X130909978Y-66773061D01*
X130870204Y-66573102D01*
X130792183Y-66384744D01*
X130678915Y-66215226D01*
X130534752Y-66071063D01*
X130365234Y-65957795D01*
X130176876Y-65879774D01*
X129976917Y-65840000D01*
X129773039Y-65840000D01*
X129573080Y-65879774D01*
X129384722Y-65957795D01*
X129215204Y-66071063D01*
X129071041Y-66215226D01*
X128957773Y-66384744D01*
X128879752Y-66573102D01*
X128839978Y-66773061D01*
X127411960Y-66773061D01*
X127551898Y-66745226D01*
X127740256Y-66667205D01*
X127909774Y-66553937D01*
X128053937Y-66409774D01*
X128167205Y-66240256D01*
X128245226Y-66051898D01*
X128285000Y-65851939D01*
X128285000Y-65648061D01*
X128245226Y-65448102D01*
X128167205Y-65259744D01*
X128053937Y-65090226D01*
X127909774Y-64946063D01*
X127740256Y-64832795D01*
X127551898Y-64754774D01*
X127451277Y-64734759D01*
X127534793Y-64678956D01*
X127678956Y-64534793D01*
X127792224Y-64365275D01*
X127870245Y-64176917D01*
X127910019Y-63976958D01*
X127910019Y-63773080D01*
X127910018Y-63773073D01*
X131090012Y-63773073D01*
X131090012Y-63976951D01*
X131129786Y-64176910D01*
X131207807Y-64365268D01*
X131321075Y-64534786D01*
X131465238Y-64678949D01*
X131634756Y-64792217D01*
X131823114Y-64870238D01*
X132023073Y-64910012D01*
X132226951Y-64910012D01*
X132426910Y-64870238D01*
X132615268Y-64792217D01*
X132784786Y-64678949D01*
X132928949Y-64534786D01*
X133042217Y-64365268D01*
X133120238Y-64176910D01*
X133160012Y-63976951D01*
X133160012Y-63773073D01*
X133160011Y-63773064D01*
X134340003Y-63773064D01*
X134340003Y-63976942D01*
X134379777Y-64176901D01*
X134457798Y-64365259D01*
X134571066Y-64534777D01*
X134715229Y-64678940D01*
X134884747Y-64792208D01*
X135073105Y-64870229D01*
X135273064Y-64910003D01*
X135476942Y-64910003D01*
X135676901Y-64870229D01*
X135865259Y-64792208D01*
X136034777Y-64678940D01*
X136178940Y-64534777D01*
X136292208Y-64365259D01*
X136370229Y-64176901D01*
X136410003Y-63976942D01*
X136410003Y-63773064D01*
X136370229Y-63573105D01*
X136292208Y-63384747D01*
X136178940Y-63215229D01*
X136034777Y-63071066D01*
X135865259Y-62957798D01*
X135676901Y-62879777D01*
X135476942Y-62840003D01*
X135273064Y-62840003D01*
X135073105Y-62879777D01*
X134884747Y-62957798D01*
X134715229Y-63071066D01*
X134571066Y-63215229D01*
X134457798Y-63384747D01*
X134379777Y-63573105D01*
X134340003Y-63773064D01*
X133160011Y-63773064D01*
X133120238Y-63573114D01*
X133042217Y-63384756D01*
X132928949Y-63215238D01*
X132784786Y-63071075D01*
X132615268Y-62957807D01*
X132426910Y-62879786D01*
X132226951Y-62840012D01*
X132023073Y-62840012D01*
X131823114Y-62879786D01*
X131634756Y-62957807D01*
X131465238Y-63071075D01*
X131321075Y-63215238D01*
X131207807Y-63384756D01*
X131129786Y-63573114D01*
X131090012Y-63773073D01*
X127910018Y-63773073D01*
X127870245Y-63573121D01*
X127792224Y-63384763D01*
X127678956Y-63215245D01*
X127534793Y-63071082D01*
X127365275Y-62957814D01*
X127176917Y-62879793D01*
X126976958Y-62840019D01*
X126773080Y-62840019D01*
X126573121Y-62879793D01*
X126404792Y-62949518D01*
X126445229Y-62851895D01*
X126485003Y-62651936D01*
X126485003Y-62448058D01*
X126475059Y-62398061D01*
X132715000Y-62398061D01*
X132715000Y-62601939D01*
X132754774Y-62801898D01*
X132832795Y-62990256D01*
X132946063Y-63159774D01*
X133090226Y-63303937D01*
X133259744Y-63417205D01*
X133448102Y-63495226D01*
X133648061Y-63535000D01*
X133851939Y-63535000D01*
X134051898Y-63495226D01*
X134240256Y-63417205D01*
X134409774Y-63303937D01*
X134553937Y-63159774D01*
X134667205Y-62990256D01*
X134745226Y-62801898D01*
X134785000Y-62601939D01*
X134785000Y-62398061D01*
X134745226Y-62198102D01*
X134667205Y-62009744D01*
X134553937Y-61840226D01*
X134409774Y-61696063D01*
X134240256Y-61582795D01*
X134051898Y-61504774D01*
X133851939Y-61465000D01*
X133648061Y-61465000D01*
X133448102Y-61504774D01*
X133259744Y-61582795D01*
X133090226Y-61696063D01*
X132946063Y-61840226D01*
X132832795Y-62009744D01*
X132754774Y-62198102D01*
X132715000Y-62398061D01*
X126475059Y-62398061D01*
X126445229Y-62248099D01*
X126367208Y-62059741D01*
X126253940Y-61890223D01*
X126109777Y-61746060D01*
X125940259Y-61632792D01*
X125751901Y-61554771D01*
X125551942Y-61514997D01*
X125348064Y-61514997D01*
X125148105Y-61554771D01*
X124959747Y-61632792D01*
X124790229Y-61746060D01*
X124646066Y-61890223D01*
X124532798Y-62059741D01*
X124454777Y-62248099D01*
X124415003Y-62448058D01*
X124415003Y-62651936D01*
X124454777Y-62851895D01*
X124532798Y-63040253D01*
X124590860Y-63127149D01*
X124534777Y-63071066D01*
X124365259Y-62957798D01*
X124176901Y-62879777D01*
X123976942Y-62840003D01*
X123773064Y-62840003D01*
X123573105Y-62879777D01*
X123384747Y-62957798D01*
X123215229Y-63071066D01*
X123071066Y-63215229D01*
X122957798Y-63384747D01*
X122879777Y-63573105D01*
X122840003Y-63773064D01*
X122840003Y-63976942D01*
X122879777Y-64176901D01*
X122957798Y-64365259D01*
X123071066Y-64534777D01*
X123215229Y-64678940D01*
X123298758Y-64734752D01*
X123198102Y-64754774D01*
X123009744Y-64832795D01*
X122840226Y-64946063D01*
X122696063Y-65090226D01*
X122625000Y-65196580D01*
X122553937Y-65090226D01*
X122409774Y-64946063D01*
X122240256Y-64832795D01*
X122051898Y-64754774D01*
X121851939Y-64715000D01*
X121648061Y-64715000D01*
X121448102Y-64754774D01*
X121259744Y-64832795D01*
X121090226Y-64946063D01*
X120946063Y-65090226D01*
X120832795Y-65259744D01*
X120754774Y-65448102D01*
X120715000Y-65648061D01*
X117525825Y-65648061D01*
X117535000Y-65601939D01*
X117535000Y-65398061D01*
X117495226Y-65198102D01*
X117417205Y-65009744D01*
X117303937Y-64840226D01*
X117159774Y-64696063D01*
X116990256Y-64582795D01*
X116801898Y-64504774D01*
X116601939Y-64465000D01*
X116398061Y-64465000D01*
X116198102Y-64504774D01*
X116009744Y-64582795D01*
X115840226Y-64696063D01*
X115696063Y-64840226D01*
X115582795Y-65009744D01*
X115550770Y-65087059D01*
X115409774Y-64946063D01*
X115240256Y-64832795D01*
X115051898Y-64754774D01*
X114851939Y-64715000D01*
X114648061Y-64715000D01*
X114448102Y-64754774D01*
X114259744Y-64832795D01*
X114090226Y-64946063D01*
X113946063Y-65090226D01*
X113875000Y-65196580D01*
X113803937Y-65090226D01*
X113659774Y-64946063D01*
X113490256Y-64832795D01*
X113301898Y-64754774D01*
X113101939Y-64715000D01*
X112898061Y-64715000D01*
X112698102Y-64754774D01*
X112509744Y-64832795D01*
X112340226Y-64946063D01*
X112196063Y-65090226D01*
X112082795Y-65259744D01*
X112004774Y-65448102D01*
X111965000Y-65648061D01*
X99635000Y-65648061D01*
X99635000Y-64198067D01*
X110015006Y-64198067D01*
X110015006Y-64401945D01*
X110054780Y-64601904D01*
X110132801Y-64790262D01*
X110246069Y-64959780D01*
X110390232Y-65103943D01*
X110559750Y-65217211D01*
X110748108Y-65295232D01*
X110948067Y-65335006D01*
X111151945Y-65335006D01*
X111351904Y-65295232D01*
X111540262Y-65217211D01*
X111709780Y-65103943D01*
X111853943Y-64959780D01*
X111967211Y-64790262D01*
X112045232Y-64601904D01*
X112085006Y-64401945D01*
X112085006Y-64198067D01*
X112045232Y-63998108D01*
X111967211Y-63809750D01*
X111853943Y-63640232D01*
X111709780Y-63496069D01*
X111540262Y-63382801D01*
X111351904Y-63304780D01*
X111151945Y-63265006D01*
X110948067Y-63265006D01*
X110748108Y-63304780D01*
X110559750Y-63382801D01*
X110390232Y-63496069D01*
X110246069Y-63640232D01*
X110132801Y-63809750D01*
X110054780Y-63998108D01*
X110015006Y-64198067D01*
X99635000Y-64198067D01*
X99635000Y-60398061D01*
X117215000Y-60398061D01*
X117215000Y-60601939D01*
X117254774Y-60801898D01*
X117332795Y-60990256D01*
X117446063Y-61159774D01*
X117590226Y-61303937D01*
X117759744Y-61417205D01*
X117948102Y-61495226D01*
X118148061Y-61535000D01*
X118351939Y-61535000D01*
X118551898Y-61495226D01*
X118740256Y-61417205D01*
X118909774Y-61303937D01*
X118940655Y-61273056D01*
X121339995Y-61273056D01*
X121339995Y-61476934D01*
X121379769Y-61676893D01*
X121457790Y-61865251D01*
X121571058Y-62034769D01*
X121715221Y-62178932D01*
X121884739Y-62292200D01*
X122073097Y-62370221D01*
X122273056Y-62409995D01*
X122476934Y-62409995D01*
X122676893Y-62370221D01*
X122865251Y-62292200D01*
X123034769Y-62178932D01*
X123178932Y-62034769D01*
X123292200Y-61865251D01*
X123370221Y-61676893D01*
X123409995Y-61476934D01*
X123409995Y-61273056D01*
X123370221Y-61073097D01*
X123292200Y-60884739D01*
X123178932Y-60715221D01*
X123034769Y-60571058D01*
X122865251Y-60457790D01*
X122676893Y-60379769D01*
X122476934Y-60339995D01*
X122273056Y-60339995D01*
X122073097Y-60379769D01*
X121884739Y-60457790D01*
X121715221Y-60571058D01*
X121571058Y-60715221D01*
X121457790Y-60884739D01*
X121379769Y-61073097D01*
X121339995Y-61273056D01*
X118940655Y-61273056D01*
X119053937Y-61159774D01*
X119167205Y-60990256D01*
X119245226Y-60801898D01*
X119285000Y-60601939D01*
X119285000Y-60398061D01*
X119245226Y-60198102D01*
X119167205Y-60009744D01*
X119053937Y-59840226D01*
X118909774Y-59696063D01*
X118740256Y-59582795D01*
X118551898Y-59504774D01*
X118351939Y-59465000D01*
X118148061Y-59465000D01*
X117948102Y-59504774D01*
X117759744Y-59582795D01*
X117590226Y-59696063D01*
X117446063Y-59840226D01*
X117332795Y-60009744D01*
X117254774Y-60198102D01*
X117215000Y-60398061D01*
X99635000Y-60398061D01*
X99635000Y-58148061D01*
X101965000Y-58148061D01*
X101965000Y-58351939D01*
X102004774Y-58551898D01*
X102082795Y-58740256D01*
X102196063Y-58909774D01*
X102340226Y-59053937D01*
X102509744Y-59167205D01*
X102698102Y-59245226D01*
X102898061Y-59285000D01*
X103101939Y-59285000D01*
X103301898Y-59245226D01*
X103490256Y-59167205D01*
X103659774Y-59053937D01*
X103803937Y-58909774D01*
X103917205Y-58740256D01*
X103995226Y-58551898D01*
X104035000Y-58351939D01*
X104035000Y-58148073D01*
X106215000Y-58148073D01*
X106215000Y-58351951D01*
X106254774Y-58551910D01*
X106332795Y-58740268D01*
X106446063Y-58909786D01*
X106590226Y-59053949D01*
X106759744Y-59167217D01*
X106948102Y-59245238D01*
X107148061Y-59285012D01*
X107351939Y-59285012D01*
X107551898Y-59245238D01*
X107740256Y-59167217D01*
X107909774Y-59053949D01*
X108053937Y-58909786D01*
X108167205Y-58740268D01*
X108245226Y-58551910D01*
X108285000Y-58351951D01*
X108285000Y-58148073D01*
X108245226Y-57948114D01*
X108167205Y-57759756D01*
X108081384Y-57631315D01*
X108159774Y-57578937D01*
X108303937Y-57434774D01*
X108417205Y-57265256D01*
X108495226Y-57076898D01*
X108535000Y-56876939D01*
X108535000Y-56673061D01*
X108495226Y-56473102D01*
X108417205Y-56284744D01*
X108303937Y-56115226D01*
X108159774Y-55971063D01*
X107990256Y-55857795D01*
X107801898Y-55779774D01*
X107601939Y-55740000D01*
X107398061Y-55740000D01*
X107198102Y-55779774D01*
X107009744Y-55857795D01*
X106840226Y-55971063D01*
X106696063Y-56115226D01*
X106582795Y-56284744D01*
X106504774Y-56473102D01*
X106465000Y-56673061D01*
X106465000Y-56876939D01*
X106504774Y-57076898D01*
X106582795Y-57265256D01*
X106668616Y-57393697D01*
X106590226Y-57446075D01*
X106446063Y-57590238D01*
X106332795Y-57759756D01*
X106254774Y-57948114D01*
X106215000Y-58148073D01*
X104035000Y-58148073D01*
X104035000Y-58148061D01*
X103995226Y-57948102D01*
X103917205Y-57759744D01*
X103803937Y-57590226D01*
X103659774Y-57446063D01*
X103490256Y-57332795D01*
X103301898Y-57254774D01*
X103101939Y-57215000D01*
X102898061Y-57215000D01*
X102698102Y-57254774D01*
X102509744Y-57332795D01*
X102340226Y-57446063D01*
X102196063Y-57590226D01*
X102082795Y-57759744D01*
X102004774Y-57948102D01*
X101965000Y-58148061D01*
X99635000Y-58148061D01*
X99635000Y-55998065D01*
X101964984Y-55998065D01*
X101964984Y-56201943D01*
X102004758Y-56401902D01*
X102082779Y-56590260D01*
X102196047Y-56759778D01*
X102340210Y-56903941D01*
X102509728Y-57017209D01*
X102698086Y-57095230D01*
X102898045Y-57135004D01*
X103101923Y-57135004D01*
X103301882Y-57095230D01*
X103490240Y-57017209D01*
X103659758Y-56903941D01*
X103803921Y-56759778D01*
X103917189Y-56590260D01*
X103995210Y-56401902D01*
X104034984Y-56201943D01*
X104034984Y-55998065D01*
X103995210Y-55798106D01*
X103933059Y-55648061D01*
X123965000Y-55648061D01*
X123965000Y-55851939D01*
X124004774Y-56051898D01*
X124082795Y-56240256D01*
X124196063Y-56409774D01*
X124340226Y-56553937D01*
X124509744Y-56667205D01*
X124698102Y-56745226D01*
X124898061Y-56785000D01*
X125101939Y-56785000D01*
X125301898Y-56745226D01*
X125358032Y-56721974D01*
X125332795Y-56759744D01*
X125254774Y-56948102D01*
X125215000Y-57148061D01*
X125215000Y-57351939D01*
X125254774Y-57551898D01*
X125332795Y-57740256D01*
X125446063Y-57909774D01*
X125590226Y-58053937D01*
X125735877Y-58151257D01*
X125659748Y-58182791D01*
X125490230Y-58296059D01*
X125346067Y-58440222D01*
X125232799Y-58609740D01*
X125154778Y-58798098D01*
X125115004Y-58998057D01*
X125115004Y-59201935D01*
X125154778Y-59401894D01*
X125232799Y-59590252D01*
X125346067Y-59759770D01*
X125490230Y-59903933D01*
X125659748Y-60017201D01*
X125848106Y-60095222D01*
X126048065Y-60134996D01*
X126251943Y-60134996D01*
X126451902Y-60095222D01*
X126640260Y-60017201D01*
X126809778Y-59903933D01*
X126953941Y-59759770D01*
X127067209Y-59590252D01*
X127145230Y-59401894D01*
X127185004Y-59201935D01*
X127185004Y-58998057D01*
X127145230Y-58798098D01*
X127067209Y-58609740D01*
X126953941Y-58440222D01*
X126809778Y-58296059D01*
X126664127Y-58198739D01*
X126740256Y-58167205D01*
X126909774Y-58053937D01*
X127053937Y-57909774D01*
X127167205Y-57740256D01*
X127245226Y-57551898D01*
X127285000Y-57351939D01*
X127285000Y-57148061D01*
X127245226Y-56948102D01*
X127167205Y-56759744D01*
X127053937Y-56590226D01*
X126909774Y-56446063D01*
X126740256Y-56332795D01*
X126551898Y-56254774D01*
X126351939Y-56215000D01*
X126148061Y-56215000D01*
X125948102Y-56254774D01*
X125891968Y-56278026D01*
X125917205Y-56240256D01*
X125995226Y-56051898D01*
X126035000Y-55851939D01*
X126035000Y-55648061D01*
X125995226Y-55448102D01*
X125917205Y-55259744D01*
X125803937Y-55090226D01*
X125659774Y-54946063D01*
X125490256Y-54832795D01*
X125301898Y-54754774D01*
X125101939Y-54715000D01*
X124898061Y-54715000D01*
X124698102Y-54754774D01*
X124509744Y-54832795D01*
X124340226Y-54946063D01*
X124196063Y-55090226D01*
X124082795Y-55259744D01*
X124004774Y-55448102D01*
X123965000Y-55648061D01*
X103933059Y-55648061D01*
X103917189Y-55609748D01*
X103803921Y-55440230D01*
X103659758Y-55296067D01*
X103490240Y-55182799D01*
X103301882Y-55104778D01*
X103101923Y-55065004D01*
X102898045Y-55065004D01*
X102698086Y-55104778D01*
X102509728Y-55182799D01*
X102340210Y-55296067D01*
X102196047Y-55440230D01*
X102082779Y-55609748D01*
X102004758Y-55798106D01*
X101964984Y-55998065D01*
X99635000Y-55998065D01*
X99635000Y-54148061D01*
X120715000Y-54148061D01*
X120715000Y-54351939D01*
X120754774Y-54551898D01*
X120832795Y-54740256D01*
X120946063Y-54909774D01*
X121090226Y-55053937D01*
X121259744Y-55167205D01*
X121448102Y-55245226D01*
X121648061Y-55285000D01*
X121851939Y-55285000D01*
X122051898Y-55245226D01*
X122240256Y-55167205D01*
X122409774Y-55053937D01*
X122553937Y-54909774D01*
X122667205Y-54740256D01*
X122726103Y-54598064D01*
X128415003Y-54598064D01*
X128415003Y-54801942D01*
X128454777Y-55001901D01*
X128532798Y-55190259D01*
X128646066Y-55359777D01*
X128790229Y-55503940D01*
X128959747Y-55617208D01*
X129148105Y-55695229D01*
X129348064Y-55735003D01*
X129551942Y-55735003D01*
X129751901Y-55695229D01*
X129940259Y-55617208D01*
X130109777Y-55503940D01*
X130253940Y-55359777D01*
X130367208Y-55190259D01*
X130445229Y-55001901D01*
X130485003Y-54801942D01*
X130485003Y-54598064D01*
X130445229Y-54398105D01*
X130367208Y-54209747D01*
X130253940Y-54040229D01*
X130109777Y-53896066D01*
X129940259Y-53782798D01*
X129751901Y-53704777D01*
X129551942Y-53665003D01*
X129348064Y-53665003D01*
X129148105Y-53704777D01*
X128959747Y-53782798D01*
X128790229Y-53896066D01*
X128646066Y-54040229D01*
X128532798Y-54209747D01*
X128454777Y-54398105D01*
X128415003Y-54598064D01*
X122726103Y-54598064D01*
X122745226Y-54551898D01*
X122785000Y-54351939D01*
X122785000Y-54148061D01*
X122745226Y-53948102D01*
X122667205Y-53759744D01*
X122553937Y-53590226D01*
X122409774Y-53446063D01*
X122337934Y-53398061D01*
X123965000Y-53398061D01*
X123965000Y-53601939D01*
X124004774Y-53801898D01*
X124082795Y-53990256D01*
X124196063Y-54159774D01*
X124340226Y-54303937D01*
X124509744Y-54417205D01*
X124698102Y-54495226D01*
X124898061Y-54535000D01*
X125101939Y-54535000D01*
X125301898Y-54495226D01*
X125490256Y-54417205D01*
X125659774Y-54303937D01*
X125803937Y-54159774D01*
X125917205Y-53990256D01*
X125995226Y-53801898D01*
X126035000Y-53601939D01*
X126035000Y-53398061D01*
X125995226Y-53198102D01*
X125917205Y-53009744D01*
X125803937Y-52840226D01*
X125659774Y-52696063D01*
X125490256Y-52582795D01*
X125301898Y-52504774D01*
X125101939Y-52465000D01*
X124898061Y-52465000D01*
X124698102Y-52504774D01*
X124509744Y-52582795D01*
X124340226Y-52696063D01*
X124196063Y-52840226D01*
X124082795Y-53009744D01*
X124004774Y-53198102D01*
X123965000Y-53398061D01*
X122337934Y-53398061D01*
X122240256Y-53332795D01*
X122051898Y-53254774D01*
X121851939Y-53215000D01*
X121648061Y-53215000D01*
X121448102Y-53254774D01*
X121259744Y-53332795D01*
X121090226Y-53446063D01*
X120946063Y-53590226D01*
X120832795Y-53759744D01*
X120754774Y-53948102D01*
X120715000Y-54148061D01*
X99635000Y-54148061D01*
X99635000Y-53385000D01*
X102456523Y-53385000D01*
X102500000Y-53389282D01*
X102543476Y-53385000D01*
X102543477Y-53385000D01*
X102673490Y-53372195D01*
X102840313Y-53321589D01*
X102994059Y-53239411D01*
X103128817Y-53128817D01*
X103239411Y-52994059D01*
X103321589Y-52840313D01*
X103372195Y-52673490D01*
X103389282Y-52500000D01*
X103385000Y-52456523D01*
X103385000Y-49285000D01*
X123269218Y-49285000D01*
X123215234Y-49321071D01*
G37*
X123215234Y-49321071D02*
X123071071Y-49465234D01*
X122957803Y-49634752D01*
X122879782Y-49823110D01*
X122840008Y-50023069D01*
X122840008Y-50226947D01*
X122879782Y-50426906D01*
X122957803Y-50615264D01*
X123071071Y-50784782D01*
X123215234Y-50928945D01*
X123384752Y-51042213D01*
X123573110Y-51120234D01*
X123773069Y-51160008D01*
X123976947Y-51160008D01*
X124176906Y-51120234D01*
X124365264Y-51042213D01*
X124534782Y-50928945D01*
X124590797Y-50872930D01*
X124532792Y-50959741D01*
X124454771Y-51148099D01*
X124414997Y-51348058D01*
X124414997Y-51551936D01*
X124454771Y-51751895D01*
X124532792Y-51940253D01*
X124646060Y-52109771D01*
X124790223Y-52253934D01*
X124959741Y-52367202D01*
X125148099Y-52445223D01*
X125348058Y-52484997D01*
X125551936Y-52484997D01*
X125751895Y-52445223D01*
X125940253Y-52367202D01*
X126109771Y-52253934D01*
X126253934Y-52109771D01*
X126367202Y-51940253D01*
X126445223Y-51751895D01*
X126484997Y-51551936D01*
X126484997Y-51398061D01*
X132715000Y-51398061D01*
X132715000Y-51601939D01*
X132754774Y-51801898D01*
X132832795Y-51990256D01*
X132946063Y-52159774D01*
X133090226Y-52303937D01*
X133259744Y-52417205D01*
X133448102Y-52495226D01*
X133648061Y-52535000D01*
X133851939Y-52535000D01*
X134051898Y-52495226D01*
X134240256Y-52417205D01*
X134409774Y-52303937D01*
X134553937Y-52159774D01*
X134667205Y-51990256D01*
X134745226Y-51801898D01*
X134785000Y-51601939D01*
X134785000Y-51398061D01*
X134745226Y-51198102D01*
X134667205Y-51009744D01*
X134553937Y-50840226D01*
X134409774Y-50696063D01*
X134240256Y-50582795D01*
X134051898Y-50504774D01*
X133851939Y-50465000D01*
X133648061Y-50465000D01*
X133448102Y-50504774D01*
X133259744Y-50582795D01*
X133090226Y-50696063D01*
X132946063Y-50840226D01*
X132832795Y-51009744D01*
X132754774Y-51198102D01*
X132715000Y-51398061D01*
X126484997Y-51398061D01*
X126484997Y-51348058D01*
X126445223Y-51148099D01*
X126367202Y-50959741D01*
X126253934Y-50790223D01*
X126109771Y-50646060D01*
X125940253Y-50532792D01*
X125751895Y-50454771D01*
X125551936Y-50414997D01*
X125348058Y-50414997D01*
X125148099Y-50454771D01*
X124959741Y-50532792D01*
X124790223Y-50646060D01*
X124734208Y-50702075D01*
X124792213Y-50615264D01*
X124870234Y-50426906D01*
X124910008Y-50226947D01*
X124910008Y-50023069D01*
X124870234Y-49823110D01*
X124792213Y-49634752D01*
X124678945Y-49465234D01*
X124534782Y-49321071D01*
X124480798Y-49285000D01*
X126644198Y-49285000D01*
X126590226Y-49321063D01*
X126446063Y-49465226D01*
X126332795Y-49634744D01*
X126254774Y-49823102D01*
X126215000Y-50023061D01*
X126215000Y-50226939D01*
X126254774Y-50426898D01*
X126332795Y-50615256D01*
X126446063Y-50784774D01*
X126590226Y-50928937D01*
X126759744Y-51042205D01*
X126948102Y-51120226D01*
X127148061Y-51160000D01*
X127351939Y-51160000D01*
X127551898Y-51120226D01*
X127740256Y-51042205D01*
X127909774Y-50928937D01*
X128053937Y-50784774D01*
X128167205Y-50615256D01*
X128245226Y-50426898D01*
X128285000Y-50226939D01*
X128285000Y-50023061D01*
X128245226Y-49823102D01*
X128167205Y-49634744D01*
X128053937Y-49465226D01*
X127909774Y-49321063D01*
X127855802Y-49285000D01*
X131519193Y-49285000D01*
X131465237Y-49321052D01*
X131321074Y-49465215D01*
X131207806Y-49634733D01*
X131129785Y-49823091D01*
X131090011Y-50023050D01*
X131090011Y-50226928D01*
X131129785Y-50426887D01*
X131207806Y-50615245D01*
X131321074Y-50784763D01*
X131465237Y-50928926D01*
X131634755Y-51042194D01*
X131823113Y-51120215D01*
X132023072Y-51159989D01*
X132226950Y-51159989D01*
X132426909Y-51120215D01*
X132615267Y-51042194D01*
X132784785Y-50928926D01*
X132928948Y-50784763D01*
X133042216Y-50615245D01*
X133120237Y-50426887D01*
X133160011Y-50226928D01*
X133160011Y-50023050D01*
X133120237Y-49823091D01*
X133042216Y-49634733D01*
X132928948Y-49465215D01*
X132784785Y-49321052D01*
X132730829Y-49285000D01*
X134769181Y-49285000D01*
X134715219Y-49321056D01*
X134571056Y-49465219D01*
X134457788Y-49634737D01*
X134379767Y-49823095D01*
X134339993Y-50023054D01*
X134339993Y-50226932D01*
X134379767Y-50426891D01*
X134457788Y-50615249D01*
X134571056Y-50784767D01*
X134715219Y-50928930D01*
X134884737Y-51042198D01*
X135073095Y-51120219D01*
X135273054Y-51159993D01*
X135476932Y-51159993D01*
X135676891Y-51120219D01*
X135865249Y-51042198D01*
X136034767Y-50928930D01*
X136178930Y-50784767D01*
X136292198Y-50615249D01*
X136370219Y-50426891D01*
X136409993Y-50226932D01*
X136409993Y-50023054D01*
X136370219Y-49823095D01*
X136292198Y-49634737D01*
X136178930Y-49465219D01*
X136034767Y-49321056D01*
X135980805Y-49285000D01*
X137615000Y-49285000D01*
X137615001Y-83115000D01*
X103385000Y-83115000D01*
X103385000Y-75648059D01*
X130215000Y-75648059D01*
X130215000Y-75851937D01*
X130254774Y-76051896D01*
X130332795Y-76240254D01*
X130446063Y-76409772D01*
X130590226Y-76553935D01*
X130759744Y-76667203D01*
X130948102Y-76745224D01*
X131148061Y-76784998D01*
X131351939Y-76784998D01*
X131551898Y-76745224D01*
X131740256Y-76667203D01*
X131909774Y-76553935D01*
X132053937Y-76409772D01*
X132167205Y-76240254D01*
X132245226Y-76051896D01*
X132285000Y-75851937D01*
X132285000Y-75648059D01*
X132245226Y-75448100D01*
X132167205Y-75259742D01*
X132053937Y-75090224D01*
X131909774Y-74946061D01*
X131740256Y-74832793D01*
X131551898Y-74754772D01*
X131351939Y-74714998D01*
X131148061Y-74714998D01*
X130948102Y-74754772D01*
X130759744Y-74832793D01*
X130590226Y-74946061D01*
X130446063Y-75090224D01*
X130332795Y-75259742D01*
X130254774Y-75448100D01*
X130215000Y-75648059D01*
X103385000Y-75648059D01*
X103385000Y-73543070D01*
X109069991Y-73543070D01*
X109069991Y-73746948D01*
X109109765Y-73946907D01*
X109187786Y-74135265D01*
X109301054Y-74304783D01*
X109445217Y-74448946D01*
X109614735Y-74562214D01*
X109803093Y-74640235D01*
X110003052Y-74680009D01*
X110206930Y-74680009D01*
X110406889Y-74640235D01*
X110595247Y-74562214D01*
X110764765Y-74448946D01*
X110908928Y-74304783D01*
X111022196Y-74135265D01*
X111100217Y-73946907D01*
X111139991Y-73746948D01*
X111139991Y-73543070D01*
X111139989Y-73543056D01*
X112610005Y-73543056D01*
X112610005Y-73746934D01*
X112649779Y-73946893D01*
X112727800Y-74135251D01*
X112841068Y-74304769D01*
X112985231Y-74448932D01*
X113154749Y-74562200D01*
X113343107Y-74640221D01*
X113543066Y-74679995D01*
X113746944Y-74679995D01*
X113946903Y-74640221D01*
X114135261Y-74562200D01*
X114304779Y-74448932D01*
X114448942Y-74304769D01*
X114562210Y-74135251D01*
X114640231Y-73946893D01*
X114680005Y-73746934D01*
X114680005Y-73692162D01*
X114740256Y-73667205D01*
X114909774Y-73553937D01*
X115053937Y-73409774D01*
X115167205Y-73240256D01*
X115245226Y-73051898D01*
X115285000Y-72851939D01*
X115285000Y-72648061D01*
X116215000Y-72648061D01*
X116215000Y-72851939D01*
X116254774Y-73051898D01*
X116332795Y-73240256D01*
X116446063Y-73409774D01*
X116590226Y-73553937D01*
X116759744Y-73667205D01*
X116948102Y-73745226D01*
X117148061Y-73785000D01*
X117351939Y-73785000D01*
X117551898Y-73745226D01*
X117740256Y-73667205D01*
X117750000Y-73660694D01*
X117759744Y-73667205D01*
X117948102Y-73745226D01*
X118148061Y-73785000D01*
X118351939Y-73785000D01*
X118551898Y-73745226D01*
X118740256Y-73667205D01*
X118750000Y-73660694D01*
X118759744Y-73667205D01*
X118948102Y-73745226D01*
X119148061Y-73785000D01*
X119351939Y-73785000D01*
X119551898Y-73745226D01*
X119740256Y-73667205D01*
X119909774Y-73553937D01*
X120053937Y-73409774D01*
X120167205Y-73240256D01*
X120245226Y-73051898D01*
X120285000Y-72851939D01*
X120285000Y-72648061D01*
X120245226Y-72448102D01*
X120167205Y-72259744D01*
X120053937Y-72090226D01*
X119909774Y-71946063D01*
X119740256Y-71832795D01*
X119551898Y-71754774D01*
X119351939Y-71715000D01*
X119148061Y-71715000D01*
X119103444Y-71723875D01*
X119240256Y-71667205D01*
X119409774Y-71553937D01*
X119553937Y-71409774D01*
X119667205Y-71240256D01*
X119745226Y-71051898D01*
X119785000Y-70851939D01*
X119785000Y-70648061D01*
X120215000Y-70648061D01*
X120215000Y-70851939D01*
X120254774Y-71051898D01*
X120332795Y-71240256D01*
X120446063Y-71409774D01*
X120590226Y-71553937D01*
X120759744Y-71667205D01*
X120948102Y-71745226D01*
X121148061Y-71785000D01*
X121351939Y-71785000D01*
X121396556Y-71776125D01*
X121259744Y-71832795D01*
X121090226Y-71946063D01*
X120946063Y-72090226D01*
X120832795Y-72259744D01*
X120754774Y-72448102D01*
X120715000Y-72648061D01*
X120715000Y-72851939D01*
X120754774Y-73051898D01*
X120832795Y-73240256D01*
X120946063Y-73409774D01*
X121090226Y-73553937D01*
X121259744Y-73667205D01*
X121448102Y-73745226D01*
X121648061Y-73785000D01*
X121851939Y-73785000D01*
X122051898Y-73745226D01*
X122175000Y-73694235D01*
X122298102Y-73745226D01*
X122498061Y-73785000D01*
X122701939Y-73785000D01*
X122901898Y-73745226D01*
X123090256Y-73667205D01*
X123259774Y-73553937D01*
X123403937Y-73409774D01*
X123517205Y-73240256D01*
X123595226Y-73051898D01*
X123635000Y-72851939D01*
X123635000Y-72848061D01*
X126764994Y-72848061D01*
X126764994Y-73051939D01*
X126804768Y-73251898D01*
X126882789Y-73440256D01*
X126996057Y-73609774D01*
X127140220Y-73753937D01*
X127309738Y-73867205D01*
X127498096Y-73945226D01*
X127698055Y-73985000D01*
X127901933Y-73985000D01*
X128101892Y-73945226D01*
X128290250Y-73867205D01*
X128300001Y-73860690D01*
X128309747Y-73867202D01*
X128498105Y-73945223D01*
X128698064Y-73984997D01*
X128901942Y-73984997D01*
X129101901Y-73945223D01*
X129290259Y-73867202D01*
X129459777Y-73753934D01*
X129603940Y-73609771D01*
X129648514Y-73543061D01*
X132110014Y-73543061D01*
X132110014Y-73746939D01*
X132149788Y-73946898D01*
X132227809Y-74135256D01*
X132341077Y-74304774D01*
X132485240Y-74448937D01*
X132654758Y-74562205D01*
X132843116Y-74640226D01*
X133043075Y-74680000D01*
X133246953Y-74680000D01*
X133446912Y-74640226D01*
X133635270Y-74562205D01*
X133804788Y-74448937D01*
X133948951Y-74304774D01*
X134062219Y-74135256D01*
X134140240Y-73946898D01*
X134180014Y-73746939D01*
X134180014Y-73543061D01*
X134140240Y-73343102D01*
X134062219Y-73154744D01*
X133948951Y-72985226D01*
X133804788Y-72841063D01*
X133635270Y-72727795D01*
X133446912Y-72649774D01*
X133246953Y-72610000D01*
X133043075Y-72610000D01*
X132843116Y-72649774D01*
X132654758Y-72727795D01*
X132485240Y-72841063D01*
X132341077Y-72985226D01*
X132227809Y-73154744D01*
X132149788Y-73343102D01*
X132110014Y-73543061D01*
X129648514Y-73543061D01*
X129717208Y-73440253D01*
X129795229Y-73251895D01*
X129835003Y-73051936D01*
X129835003Y-72848058D01*
X129795229Y-72648099D01*
X129717208Y-72459741D01*
X129603940Y-72290223D01*
X129459777Y-72146060D01*
X129290259Y-72032792D01*
X129101901Y-71954771D01*
X128901942Y-71914997D01*
X128698064Y-71914997D01*
X128498105Y-71954771D01*
X128309747Y-72032792D01*
X128299996Y-72039307D01*
X128290250Y-72032795D01*
X128101892Y-71954774D01*
X127901933Y-71915000D01*
X127698055Y-71915000D01*
X127498096Y-71954774D01*
X127309738Y-72032795D01*
X127140220Y-72146063D01*
X126996057Y-72290226D01*
X126882789Y-72459744D01*
X126804768Y-72648102D01*
X126764994Y-72848061D01*
X123635000Y-72848061D01*
X123635000Y-72648061D01*
X123595226Y-72448102D01*
X123517205Y-72259744D01*
X123403937Y-72090226D01*
X123259774Y-71946063D01*
X123090256Y-71832795D01*
X122901898Y-71754774D01*
X122701939Y-71715000D01*
X122624869Y-71715000D01*
X122740256Y-71667205D01*
X122909774Y-71553937D01*
X123053937Y-71409774D01*
X123061763Y-71398061D01*
X130215000Y-71398061D01*
X130215000Y-71601939D01*
X130254774Y-71801898D01*
X130332795Y-71990256D01*
X130446063Y-72159774D01*
X130590226Y-72303937D01*
X130759744Y-72417205D01*
X130948102Y-72495226D01*
X131148061Y-72535000D01*
X131351939Y-72535000D01*
X131551898Y-72495226D01*
X131740256Y-72417205D01*
X131909774Y-72303937D01*
X132053937Y-72159774D01*
X132167205Y-71990256D01*
X132245226Y-71801898D01*
X132285000Y-71601939D01*
X132285000Y-71398061D01*
X132245226Y-71198102D01*
X132167205Y-71009744D01*
X132053937Y-70840226D01*
X131909774Y-70696063D01*
X131740256Y-70582795D01*
X131551898Y-70504774D01*
X131351939Y-70465000D01*
X131148061Y-70465000D01*
X130948102Y-70504774D01*
X130759744Y-70582795D01*
X130590226Y-70696063D01*
X130446063Y-70840226D01*
X130332795Y-71009744D01*
X130254774Y-71198102D01*
X130215000Y-71398061D01*
X123061763Y-71398061D01*
X123167205Y-71240256D01*
X123245226Y-71051898D01*
X123285000Y-70851939D01*
X123285000Y-70648061D01*
X123245226Y-70448102D01*
X123167205Y-70259744D01*
X123053937Y-70090226D01*
X122909774Y-69946063D01*
X122740256Y-69832795D01*
X122551898Y-69754774D01*
X122351939Y-69715000D01*
X122148061Y-69715000D01*
X121948102Y-69754774D01*
X121759744Y-69832795D01*
X121750000Y-69839306D01*
X121740256Y-69832795D01*
X121551898Y-69754774D01*
X121351939Y-69715000D01*
X121148061Y-69715000D01*
X120948102Y-69754774D01*
X120759744Y-69832795D01*
X120590226Y-69946063D01*
X120446063Y-70090226D01*
X120332795Y-70259744D01*
X120254774Y-70448102D01*
X120215000Y-70648061D01*
X119785000Y-70648061D01*
X119745226Y-70448102D01*
X119667205Y-70259744D01*
X119553937Y-70090226D01*
X119409774Y-69946063D01*
X119240256Y-69832795D01*
X119051898Y-69754774D01*
X118851939Y-69715000D01*
X118648061Y-69715000D01*
X118448102Y-69754774D01*
X118259744Y-69832795D01*
X118250000Y-69839306D01*
X118240256Y-69832795D01*
X118051898Y-69754774D01*
X117851939Y-69715000D01*
X117648061Y-69715000D01*
X117448102Y-69754774D01*
X117259744Y-69832795D01*
X117090226Y-69946063D01*
X116946063Y-70090226D01*
X116832795Y-70259744D01*
X116754774Y-70448102D01*
X116715000Y-70648061D01*
X116715000Y-70851939D01*
X116754774Y-71051898D01*
X116832795Y-71240256D01*
X116946063Y-71409774D01*
X117090226Y-71553937D01*
X117259744Y-71667205D01*
X117396556Y-71723875D01*
X117351939Y-71715000D01*
X117148061Y-71715000D01*
X116948102Y-71754774D01*
X116759744Y-71832795D01*
X116590226Y-71946063D01*
X116446063Y-72090226D01*
X116332795Y-72259744D01*
X116254774Y-72448102D01*
X116215000Y-72648061D01*
X115285000Y-72648061D01*
X115245226Y-72448102D01*
X115167205Y-72259744D01*
X115053937Y-72090226D01*
X114909774Y-71946063D01*
X114740256Y-71832795D01*
X114551898Y-71754774D01*
X114351939Y-71715000D01*
X114148061Y-71715000D01*
X113948102Y-71754774D01*
X113759744Y-71832795D01*
X113590226Y-71946063D01*
X113446063Y-72090226D01*
X113332795Y-72259744D01*
X113254774Y-72448102D01*
X113215000Y-72648061D01*
X113215000Y-72702833D01*
X113154749Y-72727790D01*
X112985231Y-72841058D01*
X112841068Y-72985221D01*
X112727800Y-73154739D01*
X112649779Y-73343097D01*
X112610005Y-73543056D01*
X111139989Y-73543056D01*
X111100217Y-73343111D01*
X111022196Y-73154753D01*
X110908928Y-72985235D01*
X110764765Y-72841072D01*
X110595247Y-72727804D01*
X110406889Y-72649783D01*
X110206930Y-72610009D01*
X110003052Y-72610009D01*
X109803093Y-72649783D01*
X109614735Y-72727804D01*
X109445217Y-72841072D01*
X109301054Y-72985235D01*
X109187786Y-73154753D01*
X109109765Y-73343111D01*
X109069991Y-73543070D01*
X103385000Y-73543070D01*
X103385000Y-72043477D01*
X103389282Y-72000000D01*
X103372195Y-71826510D01*
X103321589Y-71659687D01*
X103261930Y-71548071D01*
X110814990Y-71548071D01*
X110814990Y-71751949D01*
X110854764Y-71951908D01*
X110932785Y-72140266D01*
X111046053Y-72309784D01*
X111190216Y-72453947D01*
X111359734Y-72567215D01*
X111548092Y-72645236D01*
X111748051Y-72685010D01*
X111951929Y-72685010D01*
X112151888Y-72645236D01*
X112340246Y-72567215D01*
X112509764Y-72453947D01*
X112653927Y-72309784D01*
X112767195Y-72140266D01*
X112845216Y-71951908D01*
X112884990Y-71751949D01*
X112884990Y-71548071D01*
X112845216Y-71348112D01*
X112767195Y-71159754D01*
X112653927Y-70990236D01*
X112509764Y-70846073D01*
X112340246Y-70732805D01*
X112151888Y-70654784D01*
X111951929Y-70615010D01*
X111748051Y-70615010D01*
X111548092Y-70654784D01*
X111359734Y-70732805D01*
X111190216Y-70846073D01*
X111046053Y-70990236D01*
X110932785Y-71159754D01*
X110854764Y-71348112D01*
X110814990Y-71548071D01*
X103261930Y-71548071D01*
X103239411Y-71505941D01*
X103128817Y-71371183D01*
X102994059Y-71260589D01*
X102840313Y-71178411D01*
X102673490Y-71127805D01*
X102543477Y-71115000D01*
X102543476Y-71115000D01*
X102500000Y-71110718D01*
X102456523Y-71115000D01*
X99635000Y-71115000D01*
X99635000Y-68898061D01*
X104465000Y-68898061D01*
X104465000Y-69101939D01*
X104504774Y-69301898D01*
X104582795Y-69490256D01*
X104696063Y-69659774D01*
X104840226Y-69803937D01*
X105009744Y-69917205D01*
X105198102Y-69995226D01*
X105398061Y-70035000D01*
X105601939Y-70035000D01*
X105801898Y-69995226D01*
X105990256Y-69917205D01*
X106159774Y-69803937D01*
X106303937Y-69659774D01*
X106417205Y-69490256D01*
X106495226Y-69301898D01*
X106535000Y-69101939D01*
X106535000Y-68898061D01*
X106495226Y-68698102D01*
X106417205Y-68509744D01*
X106303937Y-68340226D01*
X106159774Y-68196063D01*
X105990256Y-68082795D01*
X105801898Y-68004774D01*
X105601939Y-67965000D01*
X105398061Y-67965000D01*
X105198102Y-68004774D01*
X105009744Y-68082795D01*
X104840226Y-68196063D01*
X104696063Y-68340226D01*
X104582795Y-68509744D01*
X104504774Y-68698102D01*
X104465000Y-68898061D01*
X99635000Y-68898061D01*
X99635000Y-65648061D01*
X111965000Y-65648061D01*
X111965000Y-65851939D01*
X112004774Y-66051898D01*
X112082795Y-66240256D01*
X112196063Y-66409774D01*
X112340226Y-66553937D01*
X112509744Y-66667205D01*
X112698102Y-66745226D01*
X112898061Y-66785000D01*
X113101939Y-66785000D01*
X113301898Y-66745226D01*
X113490256Y-66667205D01*
X113659774Y-66553937D01*
X113803937Y-66409774D01*
X113875000Y-66303420D01*
X113946063Y-66409774D01*
X114090226Y-66553937D01*
X114259744Y-66667205D01*
X114448102Y-66745226D01*
X114648061Y-66785000D01*
X114851939Y-66785000D01*
X115051898Y-66745226D01*
X115240256Y-66667205D01*
X115409774Y-66553937D01*
X115553937Y-66409774D01*
X115667205Y-66240256D01*
X115699230Y-66162941D01*
X115840226Y-66303937D01*
X116009744Y-66417205D01*
X116198102Y-66495226D01*
X116398061Y-66535000D01*
X116601939Y-66535000D01*
X116801898Y-66495226D01*
X116990256Y-66417205D01*
X117159774Y-66303937D01*
X117303937Y-66159774D01*
X117417205Y-65990256D01*
X117495226Y-65801898D01*
X117525825Y-65648061D01*
X120715000Y-65648061D01*
X120715000Y-65851939D01*
X120754774Y-66051898D01*
X120832795Y-66240256D01*
X120946063Y-66409774D01*
X121090226Y-66553937D01*
X121259744Y-66667205D01*
X121448102Y-66745226D01*
X121648061Y-66785000D01*
X121851939Y-66785000D01*
X122051898Y-66745226D01*
X122240256Y-66667205D01*
X122409774Y-66553937D01*
X122553937Y-66409774D01*
X122625000Y-66303420D01*
X122696063Y-66409774D01*
X122840226Y-66553937D01*
X123009744Y-66667205D01*
X123198102Y-66745226D01*
X123398061Y-66785000D01*
X123601939Y-66785000D01*
X123801898Y-66745226D01*
X123990256Y-66667205D01*
X124159774Y-66553937D01*
X124303937Y-66409774D01*
X124417205Y-66240256D01*
X124495226Y-66051898D01*
X124535000Y-65851939D01*
X124535000Y-65648061D01*
X124526125Y-65603444D01*
X124582795Y-65740256D01*
X124696063Y-65909774D01*
X124840226Y-66053937D01*
X125009744Y-66167205D01*
X125198102Y-66245226D01*
X125398061Y-66285000D01*
X125601939Y-66285000D01*
X125801898Y-66245226D01*
X125990256Y-66167205D01*
X126159774Y-66053937D01*
X126239351Y-65974360D01*
X126254774Y-66051898D01*
X126332795Y-66240256D01*
X126446063Y-66409774D01*
X126590226Y-66553937D01*
X126759744Y-66667205D01*
X126948102Y-66745226D01*
X127148061Y-66785000D01*
X127351939Y-66785000D01*
X127411960Y-66773061D01*
X128839978Y-66773061D01*
X128839978Y-66976939D01*
X128879752Y-67176898D01*
X128957773Y-67365256D01*
X129071041Y-67534774D01*
X129215204Y-67678937D01*
X129384722Y-67792205D01*
X129573080Y-67870226D01*
X129773039Y-67910000D01*
X129976917Y-67910000D01*
X130176876Y-67870226D01*
X130365234Y-67792205D01*
X130534752Y-67678937D01*
X130678915Y-67534774D01*
X130792183Y-67365256D01*
X130870204Y-67176898D01*
X130909978Y-66976939D01*
X130909978Y-66773061D01*
X130870204Y-66573102D01*
X130792183Y-66384744D01*
X130678915Y-66215226D01*
X130534752Y-66071063D01*
X130365234Y-65957795D01*
X130176876Y-65879774D01*
X129976917Y-65840000D01*
X129773039Y-65840000D01*
X129573080Y-65879774D01*
X129384722Y-65957795D01*
X129215204Y-66071063D01*
X129071041Y-66215226D01*
X128957773Y-66384744D01*
X128879752Y-66573102D01*
X128839978Y-66773061D01*
X127411960Y-66773061D01*
X127551898Y-66745226D01*
X127740256Y-66667205D01*
X127909774Y-66553937D01*
X128053937Y-66409774D01*
X128167205Y-66240256D01*
X128245226Y-66051898D01*
X128285000Y-65851939D01*
X128285000Y-65648061D01*
X128245226Y-65448102D01*
X128167205Y-65259744D01*
X128053937Y-65090226D01*
X127909774Y-64946063D01*
X127740256Y-64832795D01*
X127551898Y-64754774D01*
X127451277Y-64734759D01*
X127534793Y-64678956D01*
X127678956Y-64534793D01*
X127792224Y-64365275D01*
X127870245Y-64176917D01*
X127910019Y-63976958D01*
X127910019Y-63773080D01*
X127910018Y-63773073D01*
X131090012Y-63773073D01*
X131090012Y-63976951D01*
X131129786Y-64176910D01*
X131207807Y-64365268D01*
X131321075Y-64534786D01*
X131465238Y-64678949D01*
X131634756Y-64792217D01*
X131823114Y-64870238D01*
X132023073Y-64910012D01*
X132226951Y-64910012D01*
X132426910Y-64870238D01*
X132615268Y-64792217D01*
X132784786Y-64678949D01*
X132928949Y-64534786D01*
X133042217Y-64365268D01*
X133120238Y-64176910D01*
X133160012Y-63976951D01*
X133160012Y-63773073D01*
X133160011Y-63773064D01*
X134340003Y-63773064D01*
X134340003Y-63976942D01*
X134379777Y-64176901D01*
X134457798Y-64365259D01*
X134571066Y-64534777D01*
X134715229Y-64678940D01*
X134884747Y-64792208D01*
X135073105Y-64870229D01*
X135273064Y-64910003D01*
X135476942Y-64910003D01*
X135676901Y-64870229D01*
X135865259Y-64792208D01*
X136034777Y-64678940D01*
X136178940Y-64534777D01*
X136292208Y-64365259D01*
X136370229Y-64176901D01*
X136410003Y-63976942D01*
X136410003Y-63773064D01*
X136370229Y-63573105D01*
X136292208Y-63384747D01*
X136178940Y-63215229D01*
X136034777Y-63071066D01*
X135865259Y-62957798D01*
X135676901Y-62879777D01*
X135476942Y-62840003D01*
X135273064Y-62840003D01*
X135073105Y-62879777D01*
X134884747Y-62957798D01*
X134715229Y-63071066D01*
X134571066Y-63215229D01*
X134457798Y-63384747D01*
X134379777Y-63573105D01*
X134340003Y-63773064D01*
X133160011Y-63773064D01*
X133120238Y-63573114D01*
X133042217Y-63384756D01*
X132928949Y-63215238D01*
X132784786Y-63071075D01*
X132615268Y-62957807D01*
X132426910Y-62879786D01*
X132226951Y-62840012D01*
X132023073Y-62840012D01*
X131823114Y-62879786D01*
X131634756Y-62957807D01*
X131465238Y-63071075D01*
X131321075Y-63215238D01*
X131207807Y-63384756D01*
X131129786Y-63573114D01*
X131090012Y-63773073D01*
X127910018Y-63773073D01*
X127870245Y-63573121D01*
X127792224Y-63384763D01*
X127678956Y-63215245D01*
X127534793Y-63071082D01*
X127365275Y-62957814D01*
X127176917Y-62879793D01*
X126976958Y-62840019D01*
X126773080Y-62840019D01*
X126573121Y-62879793D01*
X126404792Y-62949518D01*
X126445229Y-62851895D01*
X126485003Y-62651936D01*
X126485003Y-62448058D01*
X126475059Y-62398061D01*
X132715000Y-62398061D01*
X132715000Y-62601939D01*
X132754774Y-62801898D01*
X132832795Y-62990256D01*
X132946063Y-63159774D01*
X133090226Y-63303937D01*
X133259744Y-63417205D01*
X133448102Y-63495226D01*
X133648061Y-63535000D01*
X133851939Y-63535000D01*
X134051898Y-63495226D01*
X134240256Y-63417205D01*
X134409774Y-63303937D01*
X134553937Y-63159774D01*
X134667205Y-62990256D01*
X134745226Y-62801898D01*
X134785000Y-62601939D01*
X134785000Y-62398061D01*
X134745226Y-62198102D01*
X134667205Y-62009744D01*
X134553937Y-61840226D01*
X134409774Y-61696063D01*
X134240256Y-61582795D01*
X134051898Y-61504774D01*
X133851939Y-61465000D01*
X133648061Y-61465000D01*
X133448102Y-61504774D01*
X133259744Y-61582795D01*
X133090226Y-61696063D01*
X132946063Y-61840226D01*
X132832795Y-62009744D01*
X132754774Y-62198102D01*
X132715000Y-62398061D01*
X126475059Y-62398061D01*
X126445229Y-62248099D01*
X126367208Y-62059741D01*
X126253940Y-61890223D01*
X126109777Y-61746060D01*
X125940259Y-61632792D01*
X125751901Y-61554771D01*
X125551942Y-61514997D01*
X125348064Y-61514997D01*
X125148105Y-61554771D01*
X124959747Y-61632792D01*
X124790229Y-61746060D01*
X124646066Y-61890223D01*
X124532798Y-62059741D01*
X124454777Y-62248099D01*
X124415003Y-62448058D01*
X124415003Y-62651936D01*
X124454777Y-62851895D01*
X124532798Y-63040253D01*
X124590860Y-63127149D01*
X124534777Y-63071066D01*
X124365259Y-62957798D01*
X124176901Y-62879777D01*
X123976942Y-62840003D01*
X123773064Y-62840003D01*
X123573105Y-62879777D01*
X123384747Y-62957798D01*
X123215229Y-63071066D01*
X123071066Y-63215229D01*
X122957798Y-63384747D01*
X122879777Y-63573105D01*
X122840003Y-63773064D01*
X122840003Y-63976942D01*
X122879777Y-64176901D01*
X122957798Y-64365259D01*
X123071066Y-64534777D01*
X123215229Y-64678940D01*
X123298758Y-64734752D01*
X123198102Y-64754774D01*
X123009744Y-64832795D01*
X122840226Y-64946063D01*
X122696063Y-65090226D01*
X122625000Y-65196580D01*
X122553937Y-65090226D01*
X122409774Y-64946063D01*
X122240256Y-64832795D01*
X122051898Y-64754774D01*
X121851939Y-64715000D01*
X121648061Y-64715000D01*
X121448102Y-64754774D01*
X121259744Y-64832795D01*
X121090226Y-64946063D01*
X120946063Y-65090226D01*
X120832795Y-65259744D01*
X120754774Y-65448102D01*
X120715000Y-65648061D01*
X117525825Y-65648061D01*
X117535000Y-65601939D01*
X117535000Y-65398061D01*
X117495226Y-65198102D01*
X117417205Y-65009744D01*
X117303937Y-64840226D01*
X117159774Y-64696063D01*
X116990256Y-64582795D01*
X116801898Y-64504774D01*
X116601939Y-64465000D01*
X116398061Y-64465000D01*
X116198102Y-64504774D01*
X116009744Y-64582795D01*
X115840226Y-64696063D01*
X115696063Y-64840226D01*
X115582795Y-65009744D01*
X115550770Y-65087059D01*
X115409774Y-64946063D01*
X115240256Y-64832795D01*
X115051898Y-64754774D01*
X114851939Y-64715000D01*
X114648061Y-64715000D01*
X114448102Y-64754774D01*
X114259744Y-64832795D01*
X114090226Y-64946063D01*
X113946063Y-65090226D01*
X113875000Y-65196580D01*
X113803937Y-65090226D01*
X113659774Y-64946063D01*
X113490256Y-64832795D01*
X113301898Y-64754774D01*
X113101939Y-64715000D01*
X112898061Y-64715000D01*
X112698102Y-64754774D01*
X112509744Y-64832795D01*
X112340226Y-64946063D01*
X112196063Y-65090226D01*
X112082795Y-65259744D01*
X112004774Y-65448102D01*
X111965000Y-65648061D01*
X99635000Y-65648061D01*
X99635000Y-64198067D01*
X110015006Y-64198067D01*
X110015006Y-64401945D01*
X110054780Y-64601904D01*
X110132801Y-64790262D01*
X110246069Y-64959780D01*
X110390232Y-65103943D01*
X110559750Y-65217211D01*
X110748108Y-65295232D01*
X110948067Y-65335006D01*
X111151945Y-65335006D01*
X111351904Y-65295232D01*
X111540262Y-65217211D01*
X111709780Y-65103943D01*
X111853943Y-64959780D01*
X111967211Y-64790262D01*
X112045232Y-64601904D01*
X112085006Y-64401945D01*
X112085006Y-64198067D01*
X112045232Y-63998108D01*
X111967211Y-63809750D01*
X111853943Y-63640232D01*
X111709780Y-63496069D01*
X111540262Y-63382801D01*
X111351904Y-63304780D01*
X111151945Y-63265006D01*
X110948067Y-63265006D01*
X110748108Y-63304780D01*
X110559750Y-63382801D01*
X110390232Y-63496069D01*
X110246069Y-63640232D01*
X110132801Y-63809750D01*
X110054780Y-63998108D01*
X110015006Y-64198067D01*
X99635000Y-64198067D01*
X99635000Y-60398061D01*
X117215000Y-60398061D01*
X117215000Y-60601939D01*
X117254774Y-60801898D01*
X117332795Y-60990256D01*
X117446063Y-61159774D01*
X117590226Y-61303937D01*
X117759744Y-61417205D01*
X117948102Y-61495226D01*
X118148061Y-61535000D01*
X118351939Y-61535000D01*
X118551898Y-61495226D01*
X118740256Y-61417205D01*
X118909774Y-61303937D01*
X118940655Y-61273056D01*
X121339995Y-61273056D01*
X121339995Y-61476934D01*
X121379769Y-61676893D01*
X121457790Y-61865251D01*
X121571058Y-62034769D01*
X121715221Y-62178932D01*
X121884739Y-62292200D01*
X122073097Y-62370221D01*
X122273056Y-62409995D01*
X122476934Y-62409995D01*
X122676893Y-62370221D01*
X122865251Y-62292200D01*
X123034769Y-62178932D01*
X123178932Y-62034769D01*
X123292200Y-61865251D01*
X123370221Y-61676893D01*
X123409995Y-61476934D01*
X123409995Y-61273056D01*
X123370221Y-61073097D01*
X123292200Y-60884739D01*
X123178932Y-60715221D01*
X123034769Y-60571058D01*
X122865251Y-60457790D01*
X122676893Y-60379769D01*
X122476934Y-60339995D01*
X122273056Y-60339995D01*
X122073097Y-60379769D01*
X121884739Y-60457790D01*
X121715221Y-60571058D01*
X121571058Y-60715221D01*
X121457790Y-60884739D01*
X121379769Y-61073097D01*
X121339995Y-61273056D01*
X118940655Y-61273056D01*
X119053937Y-61159774D01*
X119167205Y-60990256D01*
X119245226Y-60801898D01*
X119285000Y-60601939D01*
X119285000Y-60398061D01*
X119245226Y-60198102D01*
X119167205Y-60009744D01*
X119053937Y-59840226D01*
X118909774Y-59696063D01*
X118740256Y-59582795D01*
X118551898Y-59504774D01*
X118351939Y-59465000D01*
X118148061Y-59465000D01*
X117948102Y-59504774D01*
X117759744Y-59582795D01*
X117590226Y-59696063D01*
X117446063Y-59840226D01*
X117332795Y-60009744D01*
X117254774Y-60198102D01*
X117215000Y-60398061D01*
X99635000Y-60398061D01*
X99635000Y-58148061D01*
X101965000Y-58148061D01*
X101965000Y-58351939D01*
X102004774Y-58551898D01*
X102082795Y-58740256D01*
X102196063Y-58909774D01*
X102340226Y-59053937D01*
X102509744Y-59167205D01*
X102698102Y-59245226D01*
X102898061Y-59285000D01*
X103101939Y-59285000D01*
X103301898Y-59245226D01*
X103490256Y-59167205D01*
X103659774Y-59053937D01*
X103803937Y-58909774D01*
X103917205Y-58740256D01*
X103995226Y-58551898D01*
X104035000Y-58351939D01*
X104035000Y-58148073D01*
X106215000Y-58148073D01*
X106215000Y-58351951D01*
X106254774Y-58551910D01*
X106332795Y-58740268D01*
X106446063Y-58909786D01*
X106590226Y-59053949D01*
X106759744Y-59167217D01*
X106948102Y-59245238D01*
X107148061Y-59285012D01*
X107351939Y-59285012D01*
X107551898Y-59245238D01*
X107740256Y-59167217D01*
X107909774Y-59053949D01*
X108053937Y-58909786D01*
X108167205Y-58740268D01*
X108245226Y-58551910D01*
X108285000Y-58351951D01*
X108285000Y-58148073D01*
X108245226Y-57948114D01*
X108167205Y-57759756D01*
X108081384Y-57631315D01*
X108159774Y-57578937D01*
X108303937Y-57434774D01*
X108417205Y-57265256D01*
X108495226Y-57076898D01*
X108535000Y-56876939D01*
X108535000Y-56673061D01*
X108495226Y-56473102D01*
X108417205Y-56284744D01*
X108303937Y-56115226D01*
X108159774Y-55971063D01*
X107990256Y-55857795D01*
X107801898Y-55779774D01*
X107601939Y-55740000D01*
X107398061Y-55740000D01*
X107198102Y-55779774D01*
X107009744Y-55857795D01*
X106840226Y-55971063D01*
X106696063Y-56115226D01*
X106582795Y-56284744D01*
X106504774Y-56473102D01*
X106465000Y-56673061D01*
X106465000Y-56876939D01*
X106504774Y-57076898D01*
X106582795Y-57265256D01*
X106668616Y-57393697D01*
X106590226Y-57446075D01*
X106446063Y-57590238D01*
X106332795Y-57759756D01*
X106254774Y-57948114D01*
X106215000Y-58148073D01*
X104035000Y-58148073D01*
X104035000Y-58148061D01*
X103995226Y-57948102D01*
X103917205Y-57759744D01*
X103803937Y-57590226D01*
X103659774Y-57446063D01*
X103490256Y-57332795D01*
X103301898Y-57254774D01*
X103101939Y-57215000D01*
X102898061Y-57215000D01*
X102698102Y-57254774D01*
X102509744Y-57332795D01*
X102340226Y-57446063D01*
X102196063Y-57590226D01*
X102082795Y-57759744D01*
X102004774Y-57948102D01*
X101965000Y-58148061D01*
X99635000Y-58148061D01*
X99635000Y-55998065D01*
X101964984Y-55998065D01*
X101964984Y-56201943D01*
X102004758Y-56401902D01*
X102082779Y-56590260D01*
X102196047Y-56759778D01*
X102340210Y-56903941D01*
X102509728Y-57017209D01*
X102698086Y-57095230D01*
X102898045Y-57135004D01*
X103101923Y-57135004D01*
X103301882Y-57095230D01*
X103490240Y-57017209D01*
X103659758Y-56903941D01*
X103803921Y-56759778D01*
X103917189Y-56590260D01*
X103995210Y-56401902D01*
X104034984Y-56201943D01*
X104034984Y-55998065D01*
X103995210Y-55798106D01*
X103933059Y-55648061D01*
X123965000Y-55648061D01*
X123965000Y-55851939D01*
X124004774Y-56051898D01*
X124082795Y-56240256D01*
X124196063Y-56409774D01*
X124340226Y-56553937D01*
X124509744Y-56667205D01*
X124698102Y-56745226D01*
X124898061Y-56785000D01*
X125101939Y-56785000D01*
X125301898Y-56745226D01*
X125358032Y-56721974D01*
X125332795Y-56759744D01*
X125254774Y-56948102D01*
X125215000Y-57148061D01*
X125215000Y-57351939D01*
X125254774Y-57551898D01*
X125332795Y-57740256D01*
X125446063Y-57909774D01*
X125590226Y-58053937D01*
X125735877Y-58151257D01*
X125659748Y-58182791D01*
X125490230Y-58296059D01*
X125346067Y-58440222D01*
X125232799Y-58609740D01*
X125154778Y-58798098D01*
X125115004Y-58998057D01*
X125115004Y-59201935D01*
X125154778Y-59401894D01*
X125232799Y-59590252D01*
X125346067Y-59759770D01*
X125490230Y-59903933D01*
X125659748Y-60017201D01*
X125848106Y-60095222D01*
X126048065Y-60134996D01*
X126251943Y-60134996D01*
X126451902Y-60095222D01*
X126640260Y-60017201D01*
X126809778Y-59903933D01*
X126953941Y-59759770D01*
X127067209Y-59590252D01*
X127145230Y-59401894D01*
X127185004Y-59201935D01*
X127185004Y-58998057D01*
X127145230Y-58798098D01*
X127067209Y-58609740D01*
X126953941Y-58440222D01*
X126809778Y-58296059D01*
X126664127Y-58198739D01*
X126740256Y-58167205D01*
X126909774Y-58053937D01*
X127053937Y-57909774D01*
X127167205Y-57740256D01*
X127245226Y-57551898D01*
X127285000Y-57351939D01*
X127285000Y-57148061D01*
X127245226Y-56948102D01*
X127167205Y-56759744D01*
X127053937Y-56590226D01*
X126909774Y-56446063D01*
X126740256Y-56332795D01*
X126551898Y-56254774D01*
X126351939Y-56215000D01*
X126148061Y-56215000D01*
X125948102Y-56254774D01*
X125891968Y-56278026D01*
X125917205Y-56240256D01*
X125995226Y-56051898D01*
X126035000Y-55851939D01*
X126035000Y-55648061D01*
X125995226Y-55448102D01*
X125917205Y-55259744D01*
X125803937Y-55090226D01*
X125659774Y-54946063D01*
X125490256Y-54832795D01*
X125301898Y-54754774D01*
X125101939Y-54715000D01*
X124898061Y-54715000D01*
X124698102Y-54754774D01*
X124509744Y-54832795D01*
X124340226Y-54946063D01*
X124196063Y-55090226D01*
X124082795Y-55259744D01*
X124004774Y-55448102D01*
X123965000Y-55648061D01*
X103933059Y-55648061D01*
X103917189Y-55609748D01*
X103803921Y-55440230D01*
X103659758Y-55296067D01*
X103490240Y-55182799D01*
X103301882Y-55104778D01*
X103101923Y-55065004D01*
X102898045Y-55065004D01*
X102698086Y-55104778D01*
X102509728Y-55182799D01*
X102340210Y-55296067D01*
X102196047Y-55440230D01*
X102082779Y-55609748D01*
X102004758Y-55798106D01*
X101964984Y-55998065D01*
X99635000Y-55998065D01*
X99635000Y-54148061D01*
X120715000Y-54148061D01*
X120715000Y-54351939D01*
X120754774Y-54551898D01*
X120832795Y-54740256D01*
X120946063Y-54909774D01*
X121090226Y-55053937D01*
X121259744Y-55167205D01*
X121448102Y-55245226D01*
X121648061Y-55285000D01*
X121851939Y-55285000D01*
X122051898Y-55245226D01*
X122240256Y-55167205D01*
X122409774Y-55053937D01*
X122553937Y-54909774D01*
X122667205Y-54740256D01*
X122726103Y-54598064D01*
X128415003Y-54598064D01*
X128415003Y-54801942D01*
X128454777Y-55001901D01*
X128532798Y-55190259D01*
X128646066Y-55359777D01*
X128790229Y-55503940D01*
X128959747Y-55617208D01*
X129148105Y-55695229D01*
X129348064Y-55735003D01*
X129551942Y-55735003D01*
X129751901Y-55695229D01*
X129940259Y-55617208D01*
X130109777Y-55503940D01*
X130253940Y-55359777D01*
X130367208Y-55190259D01*
X130445229Y-55001901D01*
X130485003Y-54801942D01*
X130485003Y-54598064D01*
X130445229Y-54398105D01*
X130367208Y-54209747D01*
X130253940Y-54040229D01*
X130109777Y-53896066D01*
X129940259Y-53782798D01*
X129751901Y-53704777D01*
X129551942Y-53665003D01*
X129348064Y-53665003D01*
X129148105Y-53704777D01*
X128959747Y-53782798D01*
X128790229Y-53896066D01*
X128646066Y-54040229D01*
X128532798Y-54209747D01*
X128454777Y-54398105D01*
X128415003Y-54598064D01*
X122726103Y-54598064D01*
X122745226Y-54551898D01*
X122785000Y-54351939D01*
X122785000Y-54148061D01*
X122745226Y-53948102D01*
X122667205Y-53759744D01*
X122553937Y-53590226D01*
X122409774Y-53446063D01*
X122337934Y-53398061D01*
X123965000Y-53398061D01*
X123965000Y-53601939D01*
X124004774Y-53801898D01*
X124082795Y-53990256D01*
X124196063Y-54159774D01*
X124340226Y-54303937D01*
X124509744Y-54417205D01*
X124698102Y-54495226D01*
X124898061Y-54535000D01*
X125101939Y-54535000D01*
X125301898Y-54495226D01*
X125490256Y-54417205D01*
X125659774Y-54303937D01*
X125803937Y-54159774D01*
X125917205Y-53990256D01*
X125995226Y-53801898D01*
X126035000Y-53601939D01*
X126035000Y-53398061D01*
X125995226Y-53198102D01*
X125917205Y-53009744D01*
X125803937Y-52840226D01*
X125659774Y-52696063D01*
X125490256Y-52582795D01*
X125301898Y-52504774D01*
X125101939Y-52465000D01*
X124898061Y-52465000D01*
X124698102Y-52504774D01*
X124509744Y-52582795D01*
X124340226Y-52696063D01*
X124196063Y-52840226D01*
X124082795Y-53009744D01*
X124004774Y-53198102D01*
X123965000Y-53398061D01*
X122337934Y-53398061D01*
X122240256Y-53332795D01*
X122051898Y-53254774D01*
X121851939Y-53215000D01*
X121648061Y-53215000D01*
X121448102Y-53254774D01*
X121259744Y-53332795D01*
X121090226Y-53446063D01*
X120946063Y-53590226D01*
X120832795Y-53759744D01*
X120754774Y-53948102D01*
X120715000Y-54148061D01*
X99635000Y-54148061D01*
X99635000Y-53385000D01*
X102456523Y-53385000D01*
X102500000Y-53389282D01*
X102543476Y-53385000D01*
X102543477Y-53385000D01*
X102673490Y-53372195D01*
X102840313Y-53321589D01*
X102994059Y-53239411D01*
X103128817Y-53128817D01*
X103239411Y-52994059D01*
X103321589Y-52840313D01*
X103372195Y-52673490D01*
X103389282Y-52500000D01*
X103385000Y-52456523D01*
X103385000Y-49285000D01*
X123269218Y-49285000D01*
X123215234Y-49321071D01*
%TD*%
M02*
