%TF.GenerationSoftware,KiCad,Pcbnew,(5.1.6)-1*%
%TF.CreationDate,2020-12-26T20:27:21+01:00*%
%TF.ProjectId,ScreenBoard,53637265-656e-4426-9f61-72642e6b6963,rev?*%
%TF.SameCoordinates,Original*%
%TF.FileFunction,Copper,L2,Inr*%
%TF.FilePolarity,Positive*%
%FSLAX46Y46*%
G04 Gerber Fmt 4.6, Leading zero omitted, Abs format (unit mm)*
G04 Created by KiCad (PCBNEW (5.1.6)-1) date 2020-12-26 20:27:21*
%MOMM*%
%LPD*%
G01*
G04 APERTURE LIST*
%TA.AperFunction,ViaPad*%
%ADD10C,0.800000*%
%TD*%
%TA.AperFunction,Conductor*%
%ADD11C,0.254000*%
%TD*%
G04 APERTURE END LIST*
D10*
%TO.N,GND*%
X121750000Y-54250000D03*
X133750000Y-51500000D03*
X133750000Y-62500000D03*
X129450003Y-54700003D03*
X125449997Y-51449997D03*
X125450003Y-62549997D03*
X129874978Y-66875000D03*
X131250000Y-75749998D03*
X110104991Y-73645009D03*
X133145014Y-73645000D03*
X114250000Y-72750000D03*
X117250000Y-72750000D03*
X117750000Y-70750000D03*
X118250000Y-72750000D03*
X118750000Y-70750000D03*
X119250000Y-72750000D03*
X121250000Y-70750000D03*
X121750000Y-72750000D03*
X122250000Y-70750000D03*
X122600000Y-72750000D03*
X122374995Y-61374995D03*
X113000000Y-65750000D03*
X114750000Y-65750000D03*
X116500000Y-65500000D03*
X125500000Y-65250000D03*
X123500000Y-65750000D03*
X127250000Y-65750000D03*
X121750000Y-65750000D03*
X128800003Y-72949997D03*
X127799994Y-72950000D03*
X113645005Y-73644995D03*
X111849990Y-71650010D03*
X131250000Y-71500000D03*
X126875019Y-63875019D03*
X127250000Y-50125000D03*
X132125011Y-50124989D03*
X135374993Y-50124993D03*
X123875008Y-50125008D03*
X135375003Y-63875003D03*
X123875003Y-63875003D03*
X132125012Y-63875012D03*
X111050006Y-64300006D03*
X118250000Y-60500000D03*
X102999984Y-56100004D03*
%TO.N,+3V3*%
X120500000Y-57250000D03*
X129399992Y-56899992D03*
X125500000Y-69750000D03*
X116500000Y-69750000D03*
X115749992Y-72750000D03*
X122374995Y-59624995D03*
X119500000Y-58750000D03*
X119500000Y-62250000D03*
X120250000Y-51750000D03*
X126750000Y-73000000D03*
X107099998Y-54099998D03*
%TO.N,/SPI_MISO*%
X125000000Y-53500000D03*
X103000000Y-58250000D03*
%TO.N,/SPI_SCK*%
X125000000Y-55750000D03*
X107250000Y-58250012D03*
%TO.N,/SPI_MOSI*%
X107500000Y-56775000D03*
X126250000Y-57250000D03*
%TO.N,/SD_CS*%
X126150004Y-59099996D03*
X105500000Y-69000000D03*
%TD*%
D11*
%TO.N,GND*%
G36*
X137869001Y-83369000D02*
G01*
X103131000Y-83369000D01*
X103131000Y-72673078D01*
X114968992Y-72673078D01*
X114968992Y-72826922D01*
X114999005Y-72977809D01*
X115057879Y-73119942D01*
X115143350Y-73247859D01*
X115252133Y-73356642D01*
X115380050Y-73442113D01*
X115522183Y-73500987D01*
X115673070Y-73531000D01*
X115826914Y-73531000D01*
X115977801Y-73500987D01*
X116119934Y-73442113D01*
X116247851Y-73356642D01*
X116356634Y-73247859D01*
X116442105Y-73119942D01*
X116500979Y-72977809D01*
X116511865Y-72923078D01*
X125969000Y-72923078D01*
X125969000Y-73076922D01*
X125999013Y-73227809D01*
X126057887Y-73369942D01*
X126143358Y-73497859D01*
X126252141Y-73606642D01*
X126380058Y-73692113D01*
X126522191Y-73750987D01*
X126673078Y-73781000D01*
X126826922Y-73781000D01*
X126977809Y-73750987D01*
X127119942Y-73692113D01*
X127247859Y-73606642D01*
X127356642Y-73497859D01*
X127442113Y-73369942D01*
X127500987Y-73227809D01*
X127531000Y-73076922D01*
X127531000Y-72923078D01*
X127500987Y-72772191D01*
X127442113Y-72630058D01*
X127356642Y-72502141D01*
X127247859Y-72393358D01*
X127119942Y-72307887D01*
X126977809Y-72249013D01*
X126826922Y-72219000D01*
X126673078Y-72219000D01*
X126522191Y-72249013D01*
X126380058Y-72307887D01*
X126252141Y-72393358D01*
X126143358Y-72502141D01*
X126057887Y-72630058D01*
X125999013Y-72772191D01*
X125969000Y-72923078D01*
X116511865Y-72923078D01*
X116530992Y-72826922D01*
X116530992Y-72673078D01*
X116500979Y-72522191D01*
X116442105Y-72380058D01*
X116356634Y-72252141D01*
X116247851Y-72143358D01*
X116119934Y-72057887D01*
X115977801Y-71999013D01*
X115826914Y-71969000D01*
X115673070Y-71969000D01*
X115522183Y-71999013D01*
X115380050Y-72057887D01*
X115252133Y-72143358D01*
X115143350Y-72252141D01*
X115057879Y-72380058D01*
X114999005Y-72522191D01*
X114968992Y-72673078D01*
X103131000Y-72673078D01*
X103131000Y-72030998D01*
X103134053Y-72000000D01*
X103121870Y-71876302D01*
X103085789Y-71757358D01*
X103027196Y-71647739D01*
X102948343Y-71551657D01*
X102852261Y-71472804D01*
X102742642Y-71414211D01*
X102623698Y-71378130D01*
X102530998Y-71369000D01*
X102500000Y-71365947D01*
X102469002Y-71369000D01*
X99381000Y-71369000D01*
X99381000Y-68923078D01*
X104719000Y-68923078D01*
X104719000Y-69076922D01*
X104749013Y-69227809D01*
X104807887Y-69369942D01*
X104893358Y-69497859D01*
X105002141Y-69606642D01*
X105130058Y-69692113D01*
X105272191Y-69750987D01*
X105423078Y-69781000D01*
X105576922Y-69781000D01*
X105727809Y-69750987D01*
X105869942Y-69692113D01*
X105898430Y-69673078D01*
X115719000Y-69673078D01*
X115719000Y-69826922D01*
X115749013Y-69977809D01*
X115807887Y-70119942D01*
X115893358Y-70247859D01*
X116002141Y-70356642D01*
X116130058Y-70442113D01*
X116272191Y-70500987D01*
X116423078Y-70531000D01*
X116576922Y-70531000D01*
X116727809Y-70500987D01*
X116869942Y-70442113D01*
X116997859Y-70356642D01*
X117106642Y-70247859D01*
X117192113Y-70119942D01*
X117250987Y-69977809D01*
X117281000Y-69826922D01*
X117281000Y-69673078D01*
X124719000Y-69673078D01*
X124719000Y-69826922D01*
X124749013Y-69977809D01*
X124807887Y-70119942D01*
X124893358Y-70247859D01*
X125002141Y-70356642D01*
X125130058Y-70442113D01*
X125272191Y-70500987D01*
X125423078Y-70531000D01*
X125576922Y-70531000D01*
X125727809Y-70500987D01*
X125869942Y-70442113D01*
X125997859Y-70356642D01*
X126106642Y-70247859D01*
X126192113Y-70119942D01*
X126250987Y-69977809D01*
X126281000Y-69826922D01*
X126281000Y-69673078D01*
X126250987Y-69522191D01*
X126192113Y-69380058D01*
X126106642Y-69252141D01*
X125997859Y-69143358D01*
X125869942Y-69057887D01*
X125727809Y-68999013D01*
X125576922Y-68969000D01*
X125423078Y-68969000D01*
X125272191Y-68999013D01*
X125130058Y-69057887D01*
X125002141Y-69143358D01*
X124893358Y-69252141D01*
X124807887Y-69380058D01*
X124749013Y-69522191D01*
X124719000Y-69673078D01*
X117281000Y-69673078D01*
X117250987Y-69522191D01*
X117192113Y-69380058D01*
X117106642Y-69252141D01*
X116997859Y-69143358D01*
X116869942Y-69057887D01*
X116727809Y-68999013D01*
X116576922Y-68969000D01*
X116423078Y-68969000D01*
X116272191Y-68999013D01*
X116130058Y-69057887D01*
X116002141Y-69143358D01*
X115893358Y-69252141D01*
X115807887Y-69380058D01*
X115749013Y-69522191D01*
X115719000Y-69673078D01*
X105898430Y-69673078D01*
X105997859Y-69606642D01*
X106106642Y-69497859D01*
X106192113Y-69369942D01*
X106250987Y-69227809D01*
X106281000Y-69076922D01*
X106281000Y-68923078D01*
X106250987Y-68772191D01*
X106192113Y-68630058D01*
X106106642Y-68502141D01*
X105997859Y-68393358D01*
X105869942Y-68307887D01*
X105727809Y-68249013D01*
X105576922Y-68219000D01*
X105423078Y-68219000D01*
X105272191Y-68249013D01*
X105130058Y-68307887D01*
X105002141Y-68393358D01*
X104893358Y-68502141D01*
X104807887Y-68630058D01*
X104749013Y-68772191D01*
X104719000Y-68923078D01*
X99381000Y-68923078D01*
X99381000Y-62173078D01*
X118719000Y-62173078D01*
X118719000Y-62326922D01*
X118749013Y-62477809D01*
X118807887Y-62619942D01*
X118893358Y-62747859D01*
X119002141Y-62856642D01*
X119130058Y-62942113D01*
X119272191Y-63000987D01*
X119423078Y-63031000D01*
X119576922Y-63031000D01*
X119727809Y-63000987D01*
X119869942Y-62942113D01*
X119997859Y-62856642D01*
X120106642Y-62747859D01*
X120192113Y-62619942D01*
X120250987Y-62477809D01*
X120281000Y-62326922D01*
X120281000Y-62173078D01*
X120250987Y-62022191D01*
X120192113Y-61880058D01*
X120106642Y-61752141D01*
X119997859Y-61643358D01*
X119869942Y-61557887D01*
X119727809Y-61499013D01*
X119576922Y-61469000D01*
X119423078Y-61469000D01*
X119272191Y-61499013D01*
X119130058Y-61557887D01*
X119002141Y-61643358D01*
X118893358Y-61752141D01*
X118807887Y-61880058D01*
X118749013Y-62022191D01*
X118719000Y-62173078D01*
X99381000Y-62173078D01*
X99381000Y-59548073D01*
X121593995Y-59548073D01*
X121593995Y-59701917D01*
X121624008Y-59852804D01*
X121682882Y-59994937D01*
X121768353Y-60122854D01*
X121877136Y-60231637D01*
X122005053Y-60317108D01*
X122147186Y-60375982D01*
X122298073Y-60405995D01*
X122451917Y-60405995D01*
X122602804Y-60375982D01*
X122744937Y-60317108D01*
X122872854Y-60231637D01*
X122981637Y-60122854D01*
X123067108Y-59994937D01*
X123125982Y-59852804D01*
X123155995Y-59701917D01*
X123155995Y-59548073D01*
X123125982Y-59397186D01*
X123067108Y-59255053D01*
X122981637Y-59127136D01*
X122877575Y-59023074D01*
X125369004Y-59023074D01*
X125369004Y-59176918D01*
X125399017Y-59327805D01*
X125457891Y-59469938D01*
X125543362Y-59597855D01*
X125652145Y-59706638D01*
X125780062Y-59792109D01*
X125922195Y-59850983D01*
X126073082Y-59880996D01*
X126226926Y-59880996D01*
X126377813Y-59850983D01*
X126519946Y-59792109D01*
X126647863Y-59706638D01*
X126756646Y-59597855D01*
X126842117Y-59469938D01*
X126900991Y-59327805D01*
X126931004Y-59176918D01*
X126931004Y-59023074D01*
X126900991Y-58872187D01*
X126842117Y-58730054D01*
X126756646Y-58602137D01*
X126647863Y-58493354D01*
X126519946Y-58407883D01*
X126377813Y-58349009D01*
X126226926Y-58318996D01*
X126073082Y-58318996D01*
X125922195Y-58349009D01*
X125780062Y-58407883D01*
X125652145Y-58493354D01*
X125543362Y-58602137D01*
X125457891Y-58730054D01*
X125399017Y-58872187D01*
X125369004Y-59023074D01*
X122877575Y-59023074D01*
X122872854Y-59018353D01*
X122744937Y-58932882D01*
X122602804Y-58874008D01*
X122451917Y-58843995D01*
X122298073Y-58843995D01*
X122147186Y-58874008D01*
X122005053Y-58932882D01*
X121877136Y-59018353D01*
X121768353Y-59127136D01*
X121682882Y-59255053D01*
X121624008Y-59397186D01*
X121593995Y-59548073D01*
X99381000Y-59548073D01*
X99381000Y-58173078D01*
X102219000Y-58173078D01*
X102219000Y-58326922D01*
X102249013Y-58477809D01*
X102307887Y-58619942D01*
X102393358Y-58747859D01*
X102502141Y-58856642D01*
X102630058Y-58942113D01*
X102772191Y-59000987D01*
X102923078Y-59031000D01*
X103076922Y-59031000D01*
X103227809Y-59000987D01*
X103369942Y-58942113D01*
X103497859Y-58856642D01*
X103606642Y-58747859D01*
X103692113Y-58619942D01*
X103750987Y-58477809D01*
X103781000Y-58326922D01*
X103781000Y-58173090D01*
X106469000Y-58173090D01*
X106469000Y-58326934D01*
X106499013Y-58477821D01*
X106557887Y-58619954D01*
X106643358Y-58747871D01*
X106752141Y-58856654D01*
X106880058Y-58942125D01*
X107022191Y-59000999D01*
X107173078Y-59031012D01*
X107326922Y-59031012D01*
X107477809Y-59000999D01*
X107619942Y-58942125D01*
X107747859Y-58856654D01*
X107856642Y-58747871D01*
X107906616Y-58673078D01*
X118719000Y-58673078D01*
X118719000Y-58826922D01*
X118749013Y-58977809D01*
X118807887Y-59119942D01*
X118893358Y-59247859D01*
X119002141Y-59356642D01*
X119130058Y-59442113D01*
X119272191Y-59500987D01*
X119423078Y-59531000D01*
X119576922Y-59531000D01*
X119727809Y-59500987D01*
X119869942Y-59442113D01*
X119997859Y-59356642D01*
X120106642Y-59247859D01*
X120192113Y-59119942D01*
X120250987Y-58977809D01*
X120281000Y-58826922D01*
X120281000Y-58673078D01*
X120250987Y-58522191D01*
X120192113Y-58380058D01*
X120106642Y-58252141D01*
X119997859Y-58143358D01*
X119869942Y-58057887D01*
X119727809Y-57999013D01*
X119576922Y-57969000D01*
X119423078Y-57969000D01*
X119272191Y-57999013D01*
X119130058Y-58057887D01*
X119002141Y-58143358D01*
X118893358Y-58252141D01*
X118807887Y-58380058D01*
X118749013Y-58522191D01*
X118719000Y-58673078D01*
X107906616Y-58673078D01*
X107942113Y-58619954D01*
X108000987Y-58477821D01*
X108031000Y-58326934D01*
X108031000Y-58173090D01*
X108000987Y-58022203D01*
X107942113Y-57880070D01*
X107856642Y-57752153D01*
X107747859Y-57643370D01*
X107619942Y-57557899D01*
X107602888Y-57550835D01*
X107727809Y-57525987D01*
X107869942Y-57467113D01*
X107997859Y-57381642D01*
X108106642Y-57272859D01*
X108173313Y-57173078D01*
X119719000Y-57173078D01*
X119719000Y-57326922D01*
X119749013Y-57477809D01*
X119807887Y-57619942D01*
X119893358Y-57747859D01*
X120002141Y-57856642D01*
X120130058Y-57942113D01*
X120272191Y-58000987D01*
X120423078Y-58031000D01*
X120576922Y-58031000D01*
X120727809Y-58000987D01*
X120869942Y-57942113D01*
X120997859Y-57856642D01*
X121106642Y-57747859D01*
X121192113Y-57619942D01*
X121250987Y-57477809D01*
X121281000Y-57326922D01*
X121281000Y-57173078D01*
X125469000Y-57173078D01*
X125469000Y-57326922D01*
X125499013Y-57477809D01*
X125557887Y-57619942D01*
X125643358Y-57747859D01*
X125752141Y-57856642D01*
X125880058Y-57942113D01*
X126022191Y-58000987D01*
X126173078Y-58031000D01*
X126326922Y-58031000D01*
X126477809Y-58000987D01*
X126619942Y-57942113D01*
X126747859Y-57856642D01*
X126856642Y-57747859D01*
X126942113Y-57619942D01*
X127000987Y-57477809D01*
X127031000Y-57326922D01*
X127031000Y-57173078D01*
X127000987Y-57022191D01*
X126942113Y-56880058D01*
X126904036Y-56823070D01*
X128618992Y-56823070D01*
X128618992Y-56976914D01*
X128649005Y-57127801D01*
X128707879Y-57269934D01*
X128793350Y-57397851D01*
X128902133Y-57506634D01*
X129030050Y-57592105D01*
X129172183Y-57650979D01*
X129323070Y-57680992D01*
X129476914Y-57680992D01*
X129627801Y-57650979D01*
X129769934Y-57592105D01*
X129897851Y-57506634D01*
X130006634Y-57397851D01*
X130092105Y-57269934D01*
X130150979Y-57127801D01*
X130180992Y-56976914D01*
X130180992Y-56823070D01*
X130150979Y-56672183D01*
X130092105Y-56530050D01*
X130006634Y-56402133D01*
X129897851Y-56293350D01*
X129769934Y-56207879D01*
X129627801Y-56149005D01*
X129476914Y-56118992D01*
X129323070Y-56118992D01*
X129172183Y-56149005D01*
X129030050Y-56207879D01*
X128902133Y-56293350D01*
X128793350Y-56402133D01*
X128707879Y-56530050D01*
X128649005Y-56672183D01*
X128618992Y-56823070D01*
X126904036Y-56823070D01*
X126856642Y-56752141D01*
X126747859Y-56643358D01*
X126619942Y-56557887D01*
X126477809Y-56499013D01*
X126326922Y-56469000D01*
X126173078Y-56469000D01*
X126022191Y-56499013D01*
X125880058Y-56557887D01*
X125752141Y-56643358D01*
X125643358Y-56752141D01*
X125557887Y-56880058D01*
X125499013Y-57022191D01*
X125469000Y-57173078D01*
X121281000Y-57173078D01*
X121250987Y-57022191D01*
X121192113Y-56880058D01*
X121106642Y-56752141D01*
X120997859Y-56643358D01*
X120869942Y-56557887D01*
X120727809Y-56499013D01*
X120576922Y-56469000D01*
X120423078Y-56469000D01*
X120272191Y-56499013D01*
X120130058Y-56557887D01*
X120002141Y-56643358D01*
X119893358Y-56752141D01*
X119807887Y-56880058D01*
X119749013Y-57022191D01*
X119719000Y-57173078D01*
X108173313Y-57173078D01*
X108192113Y-57144942D01*
X108250987Y-57002809D01*
X108281000Y-56851922D01*
X108281000Y-56698078D01*
X108250987Y-56547191D01*
X108192113Y-56405058D01*
X108106642Y-56277141D01*
X107997859Y-56168358D01*
X107869942Y-56082887D01*
X107727809Y-56024013D01*
X107576922Y-55994000D01*
X107423078Y-55994000D01*
X107272191Y-56024013D01*
X107130058Y-56082887D01*
X107002141Y-56168358D01*
X106893358Y-56277141D01*
X106807887Y-56405058D01*
X106749013Y-56547191D01*
X106719000Y-56698078D01*
X106719000Y-56851922D01*
X106749013Y-57002809D01*
X106807887Y-57144942D01*
X106893358Y-57272859D01*
X107002141Y-57381642D01*
X107130058Y-57467113D01*
X107147112Y-57474177D01*
X107022191Y-57499025D01*
X106880058Y-57557899D01*
X106752141Y-57643370D01*
X106643358Y-57752153D01*
X106557887Y-57880070D01*
X106499013Y-58022203D01*
X106469000Y-58173090D01*
X103781000Y-58173090D01*
X103781000Y-58173078D01*
X103750987Y-58022191D01*
X103692113Y-57880058D01*
X103606642Y-57752141D01*
X103497859Y-57643358D01*
X103369942Y-57557887D01*
X103227809Y-57499013D01*
X103076922Y-57469000D01*
X102923078Y-57469000D01*
X102772191Y-57499013D01*
X102630058Y-57557887D01*
X102502141Y-57643358D01*
X102393358Y-57752141D01*
X102307887Y-57880058D01*
X102249013Y-58022191D01*
X102219000Y-58173078D01*
X99381000Y-58173078D01*
X99381000Y-55673078D01*
X124219000Y-55673078D01*
X124219000Y-55826922D01*
X124249013Y-55977809D01*
X124307887Y-56119942D01*
X124393358Y-56247859D01*
X124502141Y-56356642D01*
X124630058Y-56442113D01*
X124772191Y-56500987D01*
X124923078Y-56531000D01*
X125076922Y-56531000D01*
X125227809Y-56500987D01*
X125369942Y-56442113D01*
X125497859Y-56356642D01*
X125606642Y-56247859D01*
X125692113Y-56119942D01*
X125750987Y-55977809D01*
X125781000Y-55826922D01*
X125781000Y-55673078D01*
X125750987Y-55522191D01*
X125692113Y-55380058D01*
X125606642Y-55252141D01*
X125497859Y-55143358D01*
X125369942Y-55057887D01*
X125227809Y-54999013D01*
X125076922Y-54969000D01*
X124923078Y-54969000D01*
X124772191Y-54999013D01*
X124630058Y-55057887D01*
X124502141Y-55143358D01*
X124393358Y-55252141D01*
X124307887Y-55380058D01*
X124249013Y-55522191D01*
X124219000Y-55673078D01*
X99381000Y-55673078D01*
X99381000Y-54023076D01*
X106318998Y-54023076D01*
X106318998Y-54176920D01*
X106349011Y-54327807D01*
X106407885Y-54469940D01*
X106493356Y-54597857D01*
X106602139Y-54706640D01*
X106730056Y-54792111D01*
X106872189Y-54850985D01*
X107023076Y-54880998D01*
X107176920Y-54880998D01*
X107327807Y-54850985D01*
X107469940Y-54792111D01*
X107597857Y-54706640D01*
X107706640Y-54597857D01*
X107792111Y-54469940D01*
X107850985Y-54327807D01*
X107880998Y-54176920D01*
X107880998Y-54023076D01*
X107850985Y-53872189D01*
X107792111Y-53730056D01*
X107706640Y-53602139D01*
X107597857Y-53493356D01*
X107492679Y-53423078D01*
X124219000Y-53423078D01*
X124219000Y-53576922D01*
X124249013Y-53727809D01*
X124307887Y-53869942D01*
X124393358Y-53997859D01*
X124502141Y-54106642D01*
X124630058Y-54192113D01*
X124772191Y-54250987D01*
X124923078Y-54281000D01*
X125076922Y-54281000D01*
X125227809Y-54250987D01*
X125369942Y-54192113D01*
X125497859Y-54106642D01*
X125606642Y-53997859D01*
X125692113Y-53869942D01*
X125750987Y-53727809D01*
X125781000Y-53576922D01*
X125781000Y-53423078D01*
X125750987Y-53272191D01*
X125692113Y-53130058D01*
X125606642Y-53002141D01*
X125497859Y-52893358D01*
X125369942Y-52807887D01*
X125227809Y-52749013D01*
X125076922Y-52719000D01*
X124923078Y-52719000D01*
X124772191Y-52749013D01*
X124630058Y-52807887D01*
X124502141Y-52893358D01*
X124393358Y-53002141D01*
X124307887Y-53130058D01*
X124249013Y-53272191D01*
X124219000Y-53423078D01*
X107492679Y-53423078D01*
X107469940Y-53407885D01*
X107327807Y-53349011D01*
X107176920Y-53318998D01*
X107023076Y-53318998D01*
X106872189Y-53349011D01*
X106730056Y-53407885D01*
X106602139Y-53493356D01*
X106493356Y-53602139D01*
X106407885Y-53730056D01*
X106349011Y-53872189D01*
X106318998Y-54023076D01*
X99381000Y-54023076D01*
X99381000Y-53131000D01*
X102469002Y-53131000D01*
X102500000Y-53134053D01*
X102530998Y-53131000D01*
X102623698Y-53121870D01*
X102742642Y-53085789D01*
X102852261Y-53027196D01*
X102948343Y-52948343D01*
X103027196Y-52852261D01*
X103085789Y-52742642D01*
X103121870Y-52623698D01*
X103134053Y-52500000D01*
X103131000Y-52469002D01*
X103131000Y-51673078D01*
X119469000Y-51673078D01*
X119469000Y-51826922D01*
X119499013Y-51977809D01*
X119557887Y-52119942D01*
X119643358Y-52247859D01*
X119752141Y-52356642D01*
X119880058Y-52442113D01*
X120022191Y-52500987D01*
X120173078Y-52531000D01*
X120326922Y-52531000D01*
X120477809Y-52500987D01*
X120619942Y-52442113D01*
X120747859Y-52356642D01*
X120856642Y-52247859D01*
X120942113Y-52119942D01*
X121000987Y-51977809D01*
X121031000Y-51826922D01*
X121031000Y-51673078D01*
X121000987Y-51522191D01*
X120942113Y-51380058D01*
X120856642Y-51252141D01*
X120747859Y-51143358D01*
X120619942Y-51057887D01*
X120477809Y-50999013D01*
X120326922Y-50969000D01*
X120173078Y-50969000D01*
X120022191Y-50999013D01*
X119880058Y-51057887D01*
X119752141Y-51143358D01*
X119643358Y-51252141D01*
X119557887Y-51380058D01*
X119499013Y-51522191D01*
X119469000Y-51673078D01*
X103131000Y-51673078D01*
X103131000Y-49031000D01*
X137869000Y-49031000D01*
X137869001Y-83369000D01*
G37*
X137869001Y-83369000D02*
X103131000Y-83369000D01*
X103131000Y-72673078D01*
X114968992Y-72673078D01*
X114968992Y-72826922D01*
X114999005Y-72977809D01*
X115057879Y-73119942D01*
X115143350Y-73247859D01*
X115252133Y-73356642D01*
X115380050Y-73442113D01*
X115522183Y-73500987D01*
X115673070Y-73531000D01*
X115826914Y-73531000D01*
X115977801Y-73500987D01*
X116119934Y-73442113D01*
X116247851Y-73356642D01*
X116356634Y-73247859D01*
X116442105Y-73119942D01*
X116500979Y-72977809D01*
X116511865Y-72923078D01*
X125969000Y-72923078D01*
X125969000Y-73076922D01*
X125999013Y-73227809D01*
X126057887Y-73369942D01*
X126143358Y-73497859D01*
X126252141Y-73606642D01*
X126380058Y-73692113D01*
X126522191Y-73750987D01*
X126673078Y-73781000D01*
X126826922Y-73781000D01*
X126977809Y-73750987D01*
X127119942Y-73692113D01*
X127247859Y-73606642D01*
X127356642Y-73497859D01*
X127442113Y-73369942D01*
X127500987Y-73227809D01*
X127531000Y-73076922D01*
X127531000Y-72923078D01*
X127500987Y-72772191D01*
X127442113Y-72630058D01*
X127356642Y-72502141D01*
X127247859Y-72393358D01*
X127119942Y-72307887D01*
X126977809Y-72249013D01*
X126826922Y-72219000D01*
X126673078Y-72219000D01*
X126522191Y-72249013D01*
X126380058Y-72307887D01*
X126252141Y-72393358D01*
X126143358Y-72502141D01*
X126057887Y-72630058D01*
X125999013Y-72772191D01*
X125969000Y-72923078D01*
X116511865Y-72923078D01*
X116530992Y-72826922D01*
X116530992Y-72673078D01*
X116500979Y-72522191D01*
X116442105Y-72380058D01*
X116356634Y-72252141D01*
X116247851Y-72143358D01*
X116119934Y-72057887D01*
X115977801Y-71999013D01*
X115826914Y-71969000D01*
X115673070Y-71969000D01*
X115522183Y-71999013D01*
X115380050Y-72057887D01*
X115252133Y-72143358D01*
X115143350Y-72252141D01*
X115057879Y-72380058D01*
X114999005Y-72522191D01*
X114968992Y-72673078D01*
X103131000Y-72673078D01*
X103131000Y-72030998D01*
X103134053Y-72000000D01*
X103121870Y-71876302D01*
X103085789Y-71757358D01*
X103027196Y-71647739D01*
X102948343Y-71551657D01*
X102852261Y-71472804D01*
X102742642Y-71414211D01*
X102623698Y-71378130D01*
X102530998Y-71369000D01*
X102500000Y-71365947D01*
X102469002Y-71369000D01*
X99381000Y-71369000D01*
X99381000Y-68923078D01*
X104719000Y-68923078D01*
X104719000Y-69076922D01*
X104749013Y-69227809D01*
X104807887Y-69369942D01*
X104893358Y-69497859D01*
X105002141Y-69606642D01*
X105130058Y-69692113D01*
X105272191Y-69750987D01*
X105423078Y-69781000D01*
X105576922Y-69781000D01*
X105727809Y-69750987D01*
X105869942Y-69692113D01*
X105898430Y-69673078D01*
X115719000Y-69673078D01*
X115719000Y-69826922D01*
X115749013Y-69977809D01*
X115807887Y-70119942D01*
X115893358Y-70247859D01*
X116002141Y-70356642D01*
X116130058Y-70442113D01*
X116272191Y-70500987D01*
X116423078Y-70531000D01*
X116576922Y-70531000D01*
X116727809Y-70500987D01*
X116869942Y-70442113D01*
X116997859Y-70356642D01*
X117106642Y-70247859D01*
X117192113Y-70119942D01*
X117250987Y-69977809D01*
X117281000Y-69826922D01*
X117281000Y-69673078D01*
X124719000Y-69673078D01*
X124719000Y-69826922D01*
X124749013Y-69977809D01*
X124807887Y-70119942D01*
X124893358Y-70247859D01*
X125002141Y-70356642D01*
X125130058Y-70442113D01*
X125272191Y-70500987D01*
X125423078Y-70531000D01*
X125576922Y-70531000D01*
X125727809Y-70500987D01*
X125869942Y-70442113D01*
X125997859Y-70356642D01*
X126106642Y-70247859D01*
X126192113Y-70119942D01*
X126250987Y-69977809D01*
X126281000Y-69826922D01*
X126281000Y-69673078D01*
X126250987Y-69522191D01*
X126192113Y-69380058D01*
X126106642Y-69252141D01*
X125997859Y-69143358D01*
X125869942Y-69057887D01*
X125727809Y-68999013D01*
X125576922Y-68969000D01*
X125423078Y-68969000D01*
X125272191Y-68999013D01*
X125130058Y-69057887D01*
X125002141Y-69143358D01*
X124893358Y-69252141D01*
X124807887Y-69380058D01*
X124749013Y-69522191D01*
X124719000Y-69673078D01*
X117281000Y-69673078D01*
X117250987Y-69522191D01*
X117192113Y-69380058D01*
X117106642Y-69252141D01*
X116997859Y-69143358D01*
X116869942Y-69057887D01*
X116727809Y-68999013D01*
X116576922Y-68969000D01*
X116423078Y-68969000D01*
X116272191Y-68999013D01*
X116130058Y-69057887D01*
X116002141Y-69143358D01*
X115893358Y-69252141D01*
X115807887Y-69380058D01*
X115749013Y-69522191D01*
X115719000Y-69673078D01*
X105898430Y-69673078D01*
X105997859Y-69606642D01*
X106106642Y-69497859D01*
X106192113Y-69369942D01*
X106250987Y-69227809D01*
X106281000Y-69076922D01*
X106281000Y-68923078D01*
X106250987Y-68772191D01*
X106192113Y-68630058D01*
X106106642Y-68502141D01*
X105997859Y-68393358D01*
X105869942Y-68307887D01*
X105727809Y-68249013D01*
X105576922Y-68219000D01*
X105423078Y-68219000D01*
X105272191Y-68249013D01*
X105130058Y-68307887D01*
X105002141Y-68393358D01*
X104893358Y-68502141D01*
X104807887Y-68630058D01*
X104749013Y-68772191D01*
X104719000Y-68923078D01*
X99381000Y-68923078D01*
X99381000Y-62173078D01*
X118719000Y-62173078D01*
X118719000Y-62326922D01*
X118749013Y-62477809D01*
X118807887Y-62619942D01*
X118893358Y-62747859D01*
X119002141Y-62856642D01*
X119130058Y-62942113D01*
X119272191Y-63000987D01*
X119423078Y-63031000D01*
X119576922Y-63031000D01*
X119727809Y-63000987D01*
X119869942Y-62942113D01*
X119997859Y-62856642D01*
X120106642Y-62747859D01*
X120192113Y-62619942D01*
X120250987Y-62477809D01*
X120281000Y-62326922D01*
X120281000Y-62173078D01*
X120250987Y-62022191D01*
X120192113Y-61880058D01*
X120106642Y-61752141D01*
X119997859Y-61643358D01*
X119869942Y-61557887D01*
X119727809Y-61499013D01*
X119576922Y-61469000D01*
X119423078Y-61469000D01*
X119272191Y-61499013D01*
X119130058Y-61557887D01*
X119002141Y-61643358D01*
X118893358Y-61752141D01*
X118807887Y-61880058D01*
X118749013Y-62022191D01*
X118719000Y-62173078D01*
X99381000Y-62173078D01*
X99381000Y-59548073D01*
X121593995Y-59548073D01*
X121593995Y-59701917D01*
X121624008Y-59852804D01*
X121682882Y-59994937D01*
X121768353Y-60122854D01*
X121877136Y-60231637D01*
X122005053Y-60317108D01*
X122147186Y-60375982D01*
X122298073Y-60405995D01*
X122451917Y-60405995D01*
X122602804Y-60375982D01*
X122744937Y-60317108D01*
X122872854Y-60231637D01*
X122981637Y-60122854D01*
X123067108Y-59994937D01*
X123125982Y-59852804D01*
X123155995Y-59701917D01*
X123155995Y-59548073D01*
X123125982Y-59397186D01*
X123067108Y-59255053D01*
X122981637Y-59127136D01*
X122877575Y-59023074D01*
X125369004Y-59023074D01*
X125369004Y-59176918D01*
X125399017Y-59327805D01*
X125457891Y-59469938D01*
X125543362Y-59597855D01*
X125652145Y-59706638D01*
X125780062Y-59792109D01*
X125922195Y-59850983D01*
X126073082Y-59880996D01*
X126226926Y-59880996D01*
X126377813Y-59850983D01*
X126519946Y-59792109D01*
X126647863Y-59706638D01*
X126756646Y-59597855D01*
X126842117Y-59469938D01*
X126900991Y-59327805D01*
X126931004Y-59176918D01*
X126931004Y-59023074D01*
X126900991Y-58872187D01*
X126842117Y-58730054D01*
X126756646Y-58602137D01*
X126647863Y-58493354D01*
X126519946Y-58407883D01*
X126377813Y-58349009D01*
X126226926Y-58318996D01*
X126073082Y-58318996D01*
X125922195Y-58349009D01*
X125780062Y-58407883D01*
X125652145Y-58493354D01*
X125543362Y-58602137D01*
X125457891Y-58730054D01*
X125399017Y-58872187D01*
X125369004Y-59023074D01*
X122877575Y-59023074D01*
X122872854Y-59018353D01*
X122744937Y-58932882D01*
X122602804Y-58874008D01*
X122451917Y-58843995D01*
X122298073Y-58843995D01*
X122147186Y-58874008D01*
X122005053Y-58932882D01*
X121877136Y-59018353D01*
X121768353Y-59127136D01*
X121682882Y-59255053D01*
X121624008Y-59397186D01*
X121593995Y-59548073D01*
X99381000Y-59548073D01*
X99381000Y-58173078D01*
X102219000Y-58173078D01*
X102219000Y-58326922D01*
X102249013Y-58477809D01*
X102307887Y-58619942D01*
X102393358Y-58747859D01*
X102502141Y-58856642D01*
X102630058Y-58942113D01*
X102772191Y-59000987D01*
X102923078Y-59031000D01*
X103076922Y-59031000D01*
X103227809Y-59000987D01*
X103369942Y-58942113D01*
X103497859Y-58856642D01*
X103606642Y-58747859D01*
X103692113Y-58619942D01*
X103750987Y-58477809D01*
X103781000Y-58326922D01*
X103781000Y-58173090D01*
X106469000Y-58173090D01*
X106469000Y-58326934D01*
X106499013Y-58477821D01*
X106557887Y-58619954D01*
X106643358Y-58747871D01*
X106752141Y-58856654D01*
X106880058Y-58942125D01*
X107022191Y-59000999D01*
X107173078Y-59031012D01*
X107326922Y-59031012D01*
X107477809Y-59000999D01*
X107619942Y-58942125D01*
X107747859Y-58856654D01*
X107856642Y-58747871D01*
X107906616Y-58673078D01*
X118719000Y-58673078D01*
X118719000Y-58826922D01*
X118749013Y-58977809D01*
X118807887Y-59119942D01*
X118893358Y-59247859D01*
X119002141Y-59356642D01*
X119130058Y-59442113D01*
X119272191Y-59500987D01*
X119423078Y-59531000D01*
X119576922Y-59531000D01*
X119727809Y-59500987D01*
X119869942Y-59442113D01*
X119997859Y-59356642D01*
X120106642Y-59247859D01*
X120192113Y-59119942D01*
X120250987Y-58977809D01*
X120281000Y-58826922D01*
X120281000Y-58673078D01*
X120250987Y-58522191D01*
X120192113Y-58380058D01*
X120106642Y-58252141D01*
X119997859Y-58143358D01*
X119869942Y-58057887D01*
X119727809Y-57999013D01*
X119576922Y-57969000D01*
X119423078Y-57969000D01*
X119272191Y-57999013D01*
X119130058Y-58057887D01*
X119002141Y-58143358D01*
X118893358Y-58252141D01*
X118807887Y-58380058D01*
X118749013Y-58522191D01*
X118719000Y-58673078D01*
X107906616Y-58673078D01*
X107942113Y-58619954D01*
X108000987Y-58477821D01*
X108031000Y-58326934D01*
X108031000Y-58173090D01*
X108000987Y-58022203D01*
X107942113Y-57880070D01*
X107856642Y-57752153D01*
X107747859Y-57643370D01*
X107619942Y-57557899D01*
X107602888Y-57550835D01*
X107727809Y-57525987D01*
X107869942Y-57467113D01*
X107997859Y-57381642D01*
X108106642Y-57272859D01*
X108173313Y-57173078D01*
X119719000Y-57173078D01*
X119719000Y-57326922D01*
X119749013Y-57477809D01*
X119807887Y-57619942D01*
X119893358Y-57747859D01*
X120002141Y-57856642D01*
X120130058Y-57942113D01*
X120272191Y-58000987D01*
X120423078Y-58031000D01*
X120576922Y-58031000D01*
X120727809Y-58000987D01*
X120869942Y-57942113D01*
X120997859Y-57856642D01*
X121106642Y-57747859D01*
X121192113Y-57619942D01*
X121250987Y-57477809D01*
X121281000Y-57326922D01*
X121281000Y-57173078D01*
X125469000Y-57173078D01*
X125469000Y-57326922D01*
X125499013Y-57477809D01*
X125557887Y-57619942D01*
X125643358Y-57747859D01*
X125752141Y-57856642D01*
X125880058Y-57942113D01*
X126022191Y-58000987D01*
X126173078Y-58031000D01*
X126326922Y-58031000D01*
X126477809Y-58000987D01*
X126619942Y-57942113D01*
X126747859Y-57856642D01*
X126856642Y-57747859D01*
X126942113Y-57619942D01*
X127000987Y-57477809D01*
X127031000Y-57326922D01*
X127031000Y-57173078D01*
X127000987Y-57022191D01*
X126942113Y-56880058D01*
X126904036Y-56823070D01*
X128618992Y-56823070D01*
X128618992Y-56976914D01*
X128649005Y-57127801D01*
X128707879Y-57269934D01*
X128793350Y-57397851D01*
X128902133Y-57506634D01*
X129030050Y-57592105D01*
X129172183Y-57650979D01*
X129323070Y-57680992D01*
X129476914Y-57680992D01*
X129627801Y-57650979D01*
X129769934Y-57592105D01*
X129897851Y-57506634D01*
X130006634Y-57397851D01*
X130092105Y-57269934D01*
X130150979Y-57127801D01*
X130180992Y-56976914D01*
X130180992Y-56823070D01*
X130150979Y-56672183D01*
X130092105Y-56530050D01*
X130006634Y-56402133D01*
X129897851Y-56293350D01*
X129769934Y-56207879D01*
X129627801Y-56149005D01*
X129476914Y-56118992D01*
X129323070Y-56118992D01*
X129172183Y-56149005D01*
X129030050Y-56207879D01*
X128902133Y-56293350D01*
X128793350Y-56402133D01*
X128707879Y-56530050D01*
X128649005Y-56672183D01*
X128618992Y-56823070D01*
X126904036Y-56823070D01*
X126856642Y-56752141D01*
X126747859Y-56643358D01*
X126619942Y-56557887D01*
X126477809Y-56499013D01*
X126326922Y-56469000D01*
X126173078Y-56469000D01*
X126022191Y-56499013D01*
X125880058Y-56557887D01*
X125752141Y-56643358D01*
X125643358Y-56752141D01*
X125557887Y-56880058D01*
X125499013Y-57022191D01*
X125469000Y-57173078D01*
X121281000Y-57173078D01*
X121250987Y-57022191D01*
X121192113Y-56880058D01*
X121106642Y-56752141D01*
X120997859Y-56643358D01*
X120869942Y-56557887D01*
X120727809Y-56499013D01*
X120576922Y-56469000D01*
X120423078Y-56469000D01*
X120272191Y-56499013D01*
X120130058Y-56557887D01*
X120002141Y-56643358D01*
X119893358Y-56752141D01*
X119807887Y-56880058D01*
X119749013Y-57022191D01*
X119719000Y-57173078D01*
X108173313Y-57173078D01*
X108192113Y-57144942D01*
X108250987Y-57002809D01*
X108281000Y-56851922D01*
X108281000Y-56698078D01*
X108250987Y-56547191D01*
X108192113Y-56405058D01*
X108106642Y-56277141D01*
X107997859Y-56168358D01*
X107869942Y-56082887D01*
X107727809Y-56024013D01*
X107576922Y-55994000D01*
X107423078Y-55994000D01*
X107272191Y-56024013D01*
X107130058Y-56082887D01*
X107002141Y-56168358D01*
X106893358Y-56277141D01*
X106807887Y-56405058D01*
X106749013Y-56547191D01*
X106719000Y-56698078D01*
X106719000Y-56851922D01*
X106749013Y-57002809D01*
X106807887Y-57144942D01*
X106893358Y-57272859D01*
X107002141Y-57381642D01*
X107130058Y-57467113D01*
X107147112Y-57474177D01*
X107022191Y-57499025D01*
X106880058Y-57557899D01*
X106752141Y-57643370D01*
X106643358Y-57752153D01*
X106557887Y-57880070D01*
X106499013Y-58022203D01*
X106469000Y-58173090D01*
X103781000Y-58173090D01*
X103781000Y-58173078D01*
X103750987Y-58022191D01*
X103692113Y-57880058D01*
X103606642Y-57752141D01*
X103497859Y-57643358D01*
X103369942Y-57557887D01*
X103227809Y-57499013D01*
X103076922Y-57469000D01*
X102923078Y-57469000D01*
X102772191Y-57499013D01*
X102630058Y-57557887D01*
X102502141Y-57643358D01*
X102393358Y-57752141D01*
X102307887Y-57880058D01*
X102249013Y-58022191D01*
X102219000Y-58173078D01*
X99381000Y-58173078D01*
X99381000Y-55673078D01*
X124219000Y-55673078D01*
X124219000Y-55826922D01*
X124249013Y-55977809D01*
X124307887Y-56119942D01*
X124393358Y-56247859D01*
X124502141Y-56356642D01*
X124630058Y-56442113D01*
X124772191Y-56500987D01*
X124923078Y-56531000D01*
X125076922Y-56531000D01*
X125227809Y-56500987D01*
X125369942Y-56442113D01*
X125497859Y-56356642D01*
X125606642Y-56247859D01*
X125692113Y-56119942D01*
X125750987Y-55977809D01*
X125781000Y-55826922D01*
X125781000Y-55673078D01*
X125750987Y-55522191D01*
X125692113Y-55380058D01*
X125606642Y-55252141D01*
X125497859Y-55143358D01*
X125369942Y-55057887D01*
X125227809Y-54999013D01*
X125076922Y-54969000D01*
X124923078Y-54969000D01*
X124772191Y-54999013D01*
X124630058Y-55057887D01*
X124502141Y-55143358D01*
X124393358Y-55252141D01*
X124307887Y-55380058D01*
X124249013Y-55522191D01*
X124219000Y-55673078D01*
X99381000Y-55673078D01*
X99381000Y-54023076D01*
X106318998Y-54023076D01*
X106318998Y-54176920D01*
X106349011Y-54327807D01*
X106407885Y-54469940D01*
X106493356Y-54597857D01*
X106602139Y-54706640D01*
X106730056Y-54792111D01*
X106872189Y-54850985D01*
X107023076Y-54880998D01*
X107176920Y-54880998D01*
X107327807Y-54850985D01*
X107469940Y-54792111D01*
X107597857Y-54706640D01*
X107706640Y-54597857D01*
X107792111Y-54469940D01*
X107850985Y-54327807D01*
X107880998Y-54176920D01*
X107880998Y-54023076D01*
X107850985Y-53872189D01*
X107792111Y-53730056D01*
X107706640Y-53602139D01*
X107597857Y-53493356D01*
X107492679Y-53423078D01*
X124219000Y-53423078D01*
X124219000Y-53576922D01*
X124249013Y-53727809D01*
X124307887Y-53869942D01*
X124393358Y-53997859D01*
X124502141Y-54106642D01*
X124630058Y-54192113D01*
X124772191Y-54250987D01*
X124923078Y-54281000D01*
X125076922Y-54281000D01*
X125227809Y-54250987D01*
X125369942Y-54192113D01*
X125497859Y-54106642D01*
X125606642Y-53997859D01*
X125692113Y-53869942D01*
X125750987Y-53727809D01*
X125781000Y-53576922D01*
X125781000Y-53423078D01*
X125750987Y-53272191D01*
X125692113Y-53130058D01*
X125606642Y-53002141D01*
X125497859Y-52893358D01*
X125369942Y-52807887D01*
X125227809Y-52749013D01*
X125076922Y-52719000D01*
X124923078Y-52719000D01*
X124772191Y-52749013D01*
X124630058Y-52807887D01*
X124502141Y-52893358D01*
X124393358Y-53002141D01*
X124307887Y-53130058D01*
X124249013Y-53272191D01*
X124219000Y-53423078D01*
X107492679Y-53423078D01*
X107469940Y-53407885D01*
X107327807Y-53349011D01*
X107176920Y-53318998D01*
X107023076Y-53318998D01*
X106872189Y-53349011D01*
X106730056Y-53407885D01*
X106602139Y-53493356D01*
X106493356Y-53602139D01*
X106407885Y-53730056D01*
X106349011Y-53872189D01*
X106318998Y-54023076D01*
X99381000Y-54023076D01*
X99381000Y-53131000D01*
X102469002Y-53131000D01*
X102500000Y-53134053D01*
X102530998Y-53131000D01*
X102623698Y-53121870D01*
X102742642Y-53085789D01*
X102852261Y-53027196D01*
X102948343Y-52948343D01*
X103027196Y-52852261D01*
X103085789Y-52742642D01*
X103121870Y-52623698D01*
X103134053Y-52500000D01*
X103131000Y-52469002D01*
X103131000Y-51673078D01*
X119469000Y-51673078D01*
X119469000Y-51826922D01*
X119499013Y-51977809D01*
X119557887Y-52119942D01*
X119643358Y-52247859D01*
X119752141Y-52356642D01*
X119880058Y-52442113D01*
X120022191Y-52500987D01*
X120173078Y-52531000D01*
X120326922Y-52531000D01*
X120477809Y-52500987D01*
X120619942Y-52442113D01*
X120747859Y-52356642D01*
X120856642Y-52247859D01*
X120942113Y-52119942D01*
X121000987Y-51977809D01*
X121031000Y-51826922D01*
X121031000Y-51673078D01*
X121000987Y-51522191D01*
X120942113Y-51380058D01*
X120856642Y-51252141D01*
X120747859Y-51143358D01*
X120619942Y-51057887D01*
X120477809Y-50999013D01*
X120326922Y-50969000D01*
X120173078Y-50969000D01*
X120022191Y-50999013D01*
X119880058Y-51057887D01*
X119752141Y-51143358D01*
X119643358Y-51252141D01*
X119557887Y-51380058D01*
X119499013Y-51522191D01*
X119469000Y-51673078D01*
X103131000Y-51673078D01*
X103131000Y-49031000D01*
X137869000Y-49031000D01*
X137869001Y-83369000D01*
%TD*%
M02*
