G04 #@! TF.GenerationSoftware,KiCad,Pcbnew,5.1.6-c6e7f7d~87~ubuntu18.04.1*
G04 #@! TF.CreationDate,2020-07-27T17:04:26+02:00*
G04 #@! TF.ProjectId,DG3-MTR_GUI-PI,4447332d-4d54-4525-9f47-55492d50492e,rev?*
G04 #@! TF.SameCoordinates,PX78a3ca0PY77afa60*
G04 #@! TF.FileFunction,Soldermask,Bot*
G04 #@! TF.FilePolarity,Negative*
%FSLAX46Y46*%
G04 Gerber Fmt 4.6, Leading zero omitted, Abs format (unit mm)*
G04 Created by KiCad (PCBNEW 5.1.6-c6e7f7d~87~ubuntu18.04.1) date 2020-07-27 17:04:26*
%MOMM*%
%LPD*%
G01*
G04 APERTURE LIST*
G04 #@! TA.AperFunction,Profile*
%ADD10C,0.500000*%
G04 #@! TD*
%ADD11C,0.050000*%
G04 APERTURE END LIST*
D10*
X82000000Y0D02*
X3000000Y0D01*
X82000000Y56000000D02*
X3000000Y56000001D01*
X3000000Y0D02*
G75*
G02*
X0Y3000000I0J3000000D01*
G01*
X0Y3000000D02*
X0Y53000000D01*
X-1Y53000000D02*
G75*
G02*
X3000000Y56000001I3000001J0D01*
G01*
X82000000Y56000000D02*
G75*
G02*
X85000000Y53000000I0J-3000000D01*
G01*
X85000000Y3000000D02*
G75*
G02*
X82000000Y0I-3000000J0D01*
G01*
X85000000Y53000000D02*
X85000000Y3000000D01*
D11*
G36*
X82181870Y6423141D02*
G01*
X82375068Y6384712D01*
X82761122Y6224803D01*
X82921029Y6158568D01*
X82921033Y6158566D01*
X83168378Y5993295D01*
X83412387Y5830254D01*
X83830252Y5412389D01*
X84158566Y4921033D01*
X84384712Y4375069D01*
X84384712Y4375067D01*
X84500000Y3795476D01*
X84500000Y3204524D01*
X84445210Y2929076D01*
X84384712Y2624932D01*
X84158566Y2078967D01*
X83993295Y1831622D01*
X83830254Y1587613D01*
X83412389Y1169748D01*
X82921033Y841434D01*
X82375068Y615288D01*
X82181870Y576859D01*
X81795476Y500000D01*
X81204524Y500000D01*
X80818130Y576859D01*
X80624932Y615288D01*
X80078967Y841434D01*
X79587611Y1169748D01*
X79169748Y1587611D01*
X79169747Y1587613D01*
X79006705Y1831622D01*
X78841434Y2078967D01*
X78615288Y2624932D01*
X78554790Y2929076D01*
X78500000Y3204524D01*
X78500000Y3795476D01*
X78615288Y4375067D01*
X78615289Y4375069D01*
X78841434Y4921033D01*
X79169748Y5412389D01*
X79587611Y5830252D01*
X79587614Y5830254D01*
X79831622Y5993295D01*
X80078967Y6158566D01*
X80078972Y6158568D01*
X80238878Y6224803D01*
X80624932Y6384712D01*
X80818130Y6423141D01*
X81204524Y6500000D01*
X81795476Y6500000D01*
X82181870Y6423141D01*
G37*
G36*
X24181870Y6423142D02*
G01*
X24375068Y6384713D01*
X24921033Y6158567D01*
X24921034Y6158566D01*
X25412388Y5830254D01*
X25830253Y5412389D01*
X25876138Y5343717D01*
X26158566Y4921034D01*
X26384712Y4375069D01*
X26420274Y4196284D01*
X26500000Y3795477D01*
X26500000Y3204525D01*
X26464801Y3027570D01*
X26384712Y2624933D01*
X26257843Y2318644D01*
X26158567Y2078970D01*
X25830253Y1587613D01*
X25412388Y1169748D01*
X25168378Y1006706D01*
X24921033Y841435D01*
X24921032Y841434D01*
X24921031Y841434D01*
X24761122Y775198D01*
X24375068Y615289D01*
X24181870Y576860D01*
X23795476Y500001D01*
X23204524Y500001D01*
X22818130Y576860D01*
X22624932Y615289D01*
X22238878Y775198D01*
X22078969Y841434D01*
X22078968Y841434D01*
X22078967Y841435D01*
X21831622Y1006706D01*
X21587612Y1169748D01*
X21169747Y1587613D01*
X20841433Y2078970D01*
X20742157Y2318644D01*
X20615288Y2624933D01*
X20535199Y3027570D01*
X20500000Y3204525D01*
X20500000Y3795477D01*
X20579726Y4196284D01*
X20615288Y4375069D01*
X20841434Y4921034D01*
X21123862Y5343717D01*
X21169747Y5412389D01*
X21587612Y5830254D01*
X22078966Y6158566D01*
X22078967Y6158567D01*
X22624932Y6384713D01*
X22818130Y6423142D01*
X23204524Y6500001D01*
X23795476Y6500001D01*
X24181870Y6423142D01*
G37*
G36*
X28632520Y3095414D02*
G01*
X28796310Y3027570D01*
X28943717Y2929076D01*
X29069076Y2803717D01*
X29167570Y2656310D01*
X29167571Y2656308D01*
X29235414Y2492520D01*
X29270000Y2318644D01*
X29270000Y2141356D01*
X29257590Y2078969D01*
X29235414Y1967480D01*
X29167570Y1803690D01*
X29069076Y1656283D01*
X28943717Y1530924D01*
X28796310Y1432430D01*
X28796309Y1432429D01*
X28796308Y1432429D01*
X28632520Y1364586D01*
X28458644Y1330000D01*
X28281356Y1330000D01*
X28107480Y1364586D01*
X27943692Y1432429D01*
X27943691Y1432429D01*
X27943690Y1432430D01*
X27796283Y1530924D01*
X27670924Y1656283D01*
X27572430Y1803690D01*
X27504586Y1967480D01*
X27482410Y2078969D01*
X27470000Y2141356D01*
X27470000Y2318644D01*
X27504586Y2492520D01*
X27572429Y2656308D01*
X27572430Y2656310D01*
X27670924Y2803717D01*
X27796283Y2929076D01*
X27943690Y3027570D01*
X28107480Y3095414D01*
X28281356Y3130000D01*
X28458644Y3130000D01*
X28632520Y3095414D01*
G37*
G36*
X61652520Y3095414D02*
G01*
X61816310Y3027570D01*
X61963717Y2929076D01*
X62089076Y2803717D01*
X62187570Y2656310D01*
X62187571Y2656308D01*
X62255414Y2492520D01*
X62290000Y2318644D01*
X62290000Y2141356D01*
X62277590Y2078969D01*
X62255414Y1967480D01*
X62187570Y1803690D01*
X62089076Y1656283D01*
X61963717Y1530924D01*
X61816310Y1432430D01*
X61816309Y1432429D01*
X61816308Y1432429D01*
X61652520Y1364586D01*
X61478644Y1330000D01*
X61301356Y1330000D01*
X61127480Y1364586D01*
X60963692Y1432429D01*
X60963691Y1432429D01*
X60963690Y1432430D01*
X60816283Y1530924D01*
X60690924Y1656283D01*
X60592430Y1803690D01*
X60524586Y1967480D01*
X60502410Y2078969D01*
X60490000Y2141356D01*
X60490000Y2318644D01*
X60524586Y2492520D01*
X60592429Y2656308D01*
X60592430Y2656310D01*
X60690924Y2803717D01*
X60816283Y2929076D01*
X60963690Y3027570D01*
X61127480Y3095414D01*
X61301356Y3130000D01*
X61478644Y3130000D01*
X61652520Y3095414D01*
G37*
G36*
X38792520Y3095414D02*
G01*
X38956310Y3027570D01*
X39103717Y2929076D01*
X39229076Y2803717D01*
X39327570Y2656310D01*
X39327571Y2656308D01*
X39395414Y2492520D01*
X39430000Y2318644D01*
X39430000Y2141356D01*
X39417590Y2078969D01*
X39395414Y1967480D01*
X39327570Y1803690D01*
X39229076Y1656283D01*
X39103717Y1530924D01*
X38956310Y1432430D01*
X38956309Y1432429D01*
X38956308Y1432429D01*
X38792520Y1364586D01*
X38618644Y1330000D01*
X38441356Y1330000D01*
X38267480Y1364586D01*
X38103692Y1432429D01*
X38103691Y1432429D01*
X38103690Y1432430D01*
X37956283Y1530924D01*
X37830924Y1656283D01*
X37732430Y1803690D01*
X37664586Y1967480D01*
X37642410Y2078969D01*
X37630000Y2141356D01*
X37630000Y2318644D01*
X37664586Y2492520D01*
X37732429Y2656308D01*
X37732430Y2656310D01*
X37830924Y2803717D01*
X37956283Y2929076D01*
X38103690Y3027570D01*
X38267480Y3095414D01*
X38441356Y3130000D01*
X38618644Y3130000D01*
X38792520Y3095414D01*
G37*
G36*
X41332520Y3095414D02*
G01*
X41496310Y3027570D01*
X41643717Y2929076D01*
X41769076Y2803717D01*
X41867570Y2656310D01*
X41867571Y2656308D01*
X41935414Y2492520D01*
X41970000Y2318644D01*
X41970000Y2141356D01*
X41957590Y2078969D01*
X41935414Y1967480D01*
X41867570Y1803690D01*
X41769076Y1656283D01*
X41643717Y1530924D01*
X41496310Y1432430D01*
X41496309Y1432429D01*
X41496308Y1432429D01*
X41332520Y1364586D01*
X41158644Y1330000D01*
X40981356Y1330000D01*
X40807480Y1364586D01*
X40643692Y1432429D01*
X40643691Y1432429D01*
X40643690Y1432430D01*
X40496283Y1530924D01*
X40370924Y1656283D01*
X40272430Y1803690D01*
X40204586Y1967480D01*
X40182410Y2078969D01*
X40170000Y2141356D01*
X40170000Y2318644D01*
X40204586Y2492520D01*
X40272429Y2656308D01*
X40272430Y2656310D01*
X40370924Y2803717D01*
X40496283Y2929076D01*
X40643690Y3027570D01*
X40807480Y3095414D01*
X40981356Y3130000D01*
X41158644Y3130000D01*
X41332520Y3095414D01*
G37*
G36*
X43872520Y3095414D02*
G01*
X44036310Y3027570D01*
X44183717Y2929076D01*
X44309076Y2803717D01*
X44407570Y2656310D01*
X44407571Y2656308D01*
X44475414Y2492520D01*
X44510000Y2318644D01*
X44510000Y2141356D01*
X44497590Y2078969D01*
X44475414Y1967480D01*
X44407570Y1803690D01*
X44309076Y1656283D01*
X44183717Y1530924D01*
X44036310Y1432430D01*
X44036309Y1432429D01*
X44036308Y1432429D01*
X43872520Y1364586D01*
X43698644Y1330000D01*
X43521356Y1330000D01*
X43347480Y1364586D01*
X43183692Y1432429D01*
X43183691Y1432429D01*
X43183690Y1432430D01*
X43036283Y1530924D01*
X42910924Y1656283D01*
X42812430Y1803690D01*
X42744586Y1967480D01*
X42722410Y2078969D01*
X42710000Y2141356D01*
X42710000Y2318644D01*
X42744586Y2492520D01*
X42812429Y2656308D01*
X42812430Y2656310D01*
X42910924Y2803717D01*
X43036283Y2929076D01*
X43183690Y3027570D01*
X43347480Y3095414D01*
X43521356Y3130000D01*
X43698644Y3130000D01*
X43872520Y3095414D01*
G37*
G36*
X46412520Y3095414D02*
G01*
X46576310Y3027570D01*
X46723717Y2929076D01*
X46849076Y2803717D01*
X46947570Y2656310D01*
X46947571Y2656308D01*
X47015414Y2492520D01*
X47050000Y2318644D01*
X47050000Y2141356D01*
X47037590Y2078969D01*
X47015414Y1967480D01*
X46947570Y1803690D01*
X46849076Y1656283D01*
X46723717Y1530924D01*
X46576310Y1432430D01*
X46576309Y1432429D01*
X46576308Y1432429D01*
X46412520Y1364586D01*
X46238644Y1330000D01*
X46061356Y1330000D01*
X45887480Y1364586D01*
X45723692Y1432429D01*
X45723691Y1432429D01*
X45723690Y1432430D01*
X45576283Y1530924D01*
X45450924Y1656283D01*
X45352430Y1803690D01*
X45284586Y1967480D01*
X45262410Y2078969D01*
X45250000Y2141356D01*
X45250000Y2318644D01*
X45284586Y2492520D01*
X45352429Y2656308D01*
X45352430Y2656310D01*
X45450924Y2803717D01*
X45576283Y2929076D01*
X45723690Y3027570D01*
X45887480Y3095414D01*
X46061356Y3130000D01*
X46238644Y3130000D01*
X46412520Y3095414D01*
G37*
G36*
X48952520Y3095414D02*
G01*
X49116310Y3027570D01*
X49263717Y2929076D01*
X49389076Y2803717D01*
X49487570Y2656310D01*
X49487571Y2656308D01*
X49555414Y2492520D01*
X49590000Y2318644D01*
X49590000Y2141356D01*
X49577590Y2078969D01*
X49555414Y1967480D01*
X49487570Y1803690D01*
X49389076Y1656283D01*
X49263717Y1530924D01*
X49116310Y1432430D01*
X49116309Y1432429D01*
X49116308Y1432429D01*
X48952520Y1364586D01*
X48778644Y1330000D01*
X48601356Y1330000D01*
X48427480Y1364586D01*
X48263692Y1432429D01*
X48263691Y1432429D01*
X48263690Y1432430D01*
X48116283Y1530924D01*
X47990924Y1656283D01*
X47892430Y1803690D01*
X47824586Y1967480D01*
X47802410Y2078969D01*
X47790000Y2141356D01*
X47790000Y2318644D01*
X47824586Y2492520D01*
X47892429Y2656308D01*
X47892430Y2656310D01*
X47990924Y2803717D01*
X48116283Y2929076D01*
X48263690Y3027570D01*
X48427480Y3095414D01*
X48601356Y3130000D01*
X48778644Y3130000D01*
X48952520Y3095414D01*
G37*
G36*
X51492520Y3095414D02*
G01*
X51656310Y3027570D01*
X51803717Y2929076D01*
X51929076Y2803717D01*
X52027570Y2656310D01*
X52027571Y2656308D01*
X52095414Y2492520D01*
X52130000Y2318644D01*
X52130000Y2141356D01*
X52117590Y2078969D01*
X52095414Y1967480D01*
X52027570Y1803690D01*
X51929076Y1656283D01*
X51803717Y1530924D01*
X51656310Y1432430D01*
X51656309Y1432429D01*
X51656308Y1432429D01*
X51492520Y1364586D01*
X51318644Y1330000D01*
X51141356Y1330000D01*
X50967480Y1364586D01*
X50803692Y1432429D01*
X50803691Y1432429D01*
X50803690Y1432430D01*
X50656283Y1530924D01*
X50530924Y1656283D01*
X50432430Y1803690D01*
X50364586Y1967480D01*
X50342410Y2078969D01*
X50330000Y2141356D01*
X50330000Y2318644D01*
X50364586Y2492520D01*
X50432429Y2656308D01*
X50432430Y2656310D01*
X50530924Y2803717D01*
X50656283Y2929076D01*
X50803690Y3027570D01*
X50967480Y3095414D01*
X51141356Y3130000D01*
X51318644Y3130000D01*
X51492520Y3095414D01*
G37*
G36*
X54032520Y3095414D02*
G01*
X54196310Y3027570D01*
X54343717Y2929076D01*
X54469076Y2803717D01*
X54567570Y2656310D01*
X54567571Y2656308D01*
X54635414Y2492520D01*
X54670000Y2318644D01*
X54670000Y2141356D01*
X54657590Y2078969D01*
X54635414Y1967480D01*
X54567570Y1803690D01*
X54469076Y1656283D01*
X54343717Y1530924D01*
X54196310Y1432430D01*
X54196309Y1432429D01*
X54196308Y1432429D01*
X54032520Y1364586D01*
X53858644Y1330000D01*
X53681356Y1330000D01*
X53507480Y1364586D01*
X53343692Y1432429D01*
X53343691Y1432429D01*
X53343690Y1432430D01*
X53196283Y1530924D01*
X53070924Y1656283D01*
X52972430Y1803690D01*
X52904586Y1967480D01*
X52882410Y2078969D01*
X52870000Y2141356D01*
X52870000Y2318644D01*
X52904586Y2492520D01*
X52972429Y2656308D01*
X52972430Y2656310D01*
X53070924Y2803717D01*
X53196283Y2929076D01*
X53343690Y3027570D01*
X53507480Y3095414D01*
X53681356Y3130000D01*
X53858644Y3130000D01*
X54032520Y3095414D01*
G37*
G36*
X56572520Y3095414D02*
G01*
X56736310Y3027570D01*
X56883717Y2929076D01*
X57009076Y2803717D01*
X57107570Y2656310D01*
X57107571Y2656308D01*
X57175414Y2492520D01*
X57210000Y2318644D01*
X57210000Y2141356D01*
X57197590Y2078969D01*
X57175414Y1967480D01*
X57107570Y1803690D01*
X57009076Y1656283D01*
X56883717Y1530924D01*
X56736310Y1432430D01*
X56736309Y1432429D01*
X56736308Y1432429D01*
X56572520Y1364586D01*
X56398644Y1330000D01*
X56221356Y1330000D01*
X56047480Y1364586D01*
X55883692Y1432429D01*
X55883691Y1432429D01*
X55883690Y1432430D01*
X55736283Y1530924D01*
X55610924Y1656283D01*
X55512430Y1803690D01*
X55444586Y1967480D01*
X55422410Y2078969D01*
X55410000Y2141356D01*
X55410000Y2318644D01*
X55444586Y2492520D01*
X55512429Y2656308D01*
X55512430Y2656310D01*
X55610924Y2803717D01*
X55736283Y2929076D01*
X55883690Y3027570D01*
X56047480Y3095414D01*
X56221356Y3130000D01*
X56398644Y3130000D01*
X56572520Y3095414D01*
G37*
G36*
X59112520Y3095414D02*
G01*
X59276310Y3027570D01*
X59423717Y2929076D01*
X59549076Y2803717D01*
X59647570Y2656310D01*
X59647571Y2656308D01*
X59715414Y2492520D01*
X59750000Y2318644D01*
X59750000Y2141356D01*
X59737590Y2078969D01*
X59715414Y1967480D01*
X59647570Y1803690D01*
X59549076Y1656283D01*
X59423717Y1530924D01*
X59276310Y1432430D01*
X59276309Y1432429D01*
X59276308Y1432429D01*
X59112520Y1364586D01*
X58938644Y1330000D01*
X58761356Y1330000D01*
X58587480Y1364586D01*
X58423692Y1432429D01*
X58423691Y1432429D01*
X58423690Y1432430D01*
X58276283Y1530924D01*
X58150924Y1656283D01*
X58052430Y1803690D01*
X57984586Y1967480D01*
X57962410Y2078969D01*
X57950000Y2141356D01*
X57950000Y2318644D01*
X57984586Y2492520D01*
X58052429Y2656308D01*
X58052430Y2656310D01*
X58150924Y2803717D01*
X58276283Y2929076D01*
X58423690Y3027570D01*
X58587480Y3095414D01*
X58761356Y3130000D01*
X58938644Y3130000D01*
X59112520Y3095414D01*
G37*
G36*
X64192520Y3095414D02*
G01*
X64356310Y3027570D01*
X64503717Y2929076D01*
X64629076Y2803717D01*
X64727570Y2656310D01*
X64727571Y2656308D01*
X64795414Y2492520D01*
X64830000Y2318644D01*
X64830000Y2141356D01*
X64817590Y2078969D01*
X64795414Y1967480D01*
X64727570Y1803690D01*
X64629076Y1656283D01*
X64503717Y1530924D01*
X64356310Y1432430D01*
X64356309Y1432429D01*
X64356308Y1432429D01*
X64192520Y1364586D01*
X64018644Y1330000D01*
X63841356Y1330000D01*
X63667480Y1364586D01*
X63503692Y1432429D01*
X63503691Y1432429D01*
X63503690Y1432430D01*
X63356283Y1530924D01*
X63230924Y1656283D01*
X63132430Y1803690D01*
X63064586Y1967480D01*
X63042410Y2078969D01*
X63030000Y2141356D01*
X63030000Y2318644D01*
X63064586Y2492520D01*
X63132429Y2656308D01*
X63132430Y2656310D01*
X63230924Y2803717D01*
X63356283Y2929076D01*
X63503690Y3027570D01*
X63667480Y3095414D01*
X63841356Y3130000D01*
X64018644Y3130000D01*
X64192520Y3095414D01*
G37*
G36*
X66732520Y3095414D02*
G01*
X66896310Y3027570D01*
X67043717Y2929076D01*
X67169076Y2803717D01*
X67267570Y2656310D01*
X67267571Y2656308D01*
X67335414Y2492520D01*
X67370000Y2318644D01*
X67370000Y2141356D01*
X67357590Y2078969D01*
X67335414Y1967480D01*
X67267570Y1803690D01*
X67169076Y1656283D01*
X67043717Y1530924D01*
X66896310Y1432430D01*
X66896309Y1432429D01*
X66896308Y1432429D01*
X66732520Y1364586D01*
X66558644Y1330000D01*
X66381356Y1330000D01*
X66207480Y1364586D01*
X66043692Y1432429D01*
X66043691Y1432429D01*
X66043690Y1432430D01*
X65896283Y1530924D01*
X65770924Y1656283D01*
X65672430Y1803690D01*
X65604586Y1967480D01*
X65582410Y2078969D01*
X65570000Y2141356D01*
X65570000Y2318644D01*
X65604586Y2492520D01*
X65672429Y2656308D01*
X65672430Y2656310D01*
X65770924Y2803717D01*
X65896283Y2929076D01*
X66043690Y3027570D01*
X66207480Y3095414D01*
X66381356Y3130000D01*
X66558644Y3130000D01*
X66732520Y3095414D01*
G37*
G36*
X69272520Y3095414D02*
G01*
X69436310Y3027570D01*
X69583717Y2929076D01*
X69709076Y2803717D01*
X69807570Y2656310D01*
X69807571Y2656308D01*
X69875414Y2492520D01*
X69910000Y2318644D01*
X69910000Y2141356D01*
X69897590Y2078969D01*
X69875414Y1967480D01*
X69807570Y1803690D01*
X69709076Y1656283D01*
X69583717Y1530924D01*
X69436310Y1432430D01*
X69436309Y1432429D01*
X69436308Y1432429D01*
X69272520Y1364586D01*
X69098644Y1330000D01*
X68921356Y1330000D01*
X68747480Y1364586D01*
X68583692Y1432429D01*
X68583691Y1432429D01*
X68583690Y1432430D01*
X68436283Y1530924D01*
X68310924Y1656283D01*
X68212430Y1803690D01*
X68144586Y1967480D01*
X68122410Y2078969D01*
X68110000Y2141356D01*
X68110000Y2318644D01*
X68144586Y2492520D01*
X68212429Y2656308D01*
X68212430Y2656310D01*
X68310924Y2803717D01*
X68436283Y2929076D01*
X68583690Y3027570D01*
X68747480Y3095414D01*
X68921356Y3130000D01*
X69098644Y3130000D01*
X69272520Y3095414D01*
G37*
G36*
X71812520Y3095414D02*
G01*
X71976310Y3027570D01*
X72123717Y2929076D01*
X72249076Y2803717D01*
X72347570Y2656310D01*
X72347571Y2656308D01*
X72415414Y2492520D01*
X72450000Y2318644D01*
X72450000Y2141356D01*
X72437590Y2078969D01*
X72415414Y1967480D01*
X72347570Y1803690D01*
X72249076Y1656283D01*
X72123717Y1530924D01*
X71976310Y1432430D01*
X71976309Y1432429D01*
X71976308Y1432429D01*
X71812520Y1364586D01*
X71638644Y1330000D01*
X71461356Y1330000D01*
X71287480Y1364586D01*
X71123692Y1432429D01*
X71123691Y1432429D01*
X71123690Y1432430D01*
X70976283Y1530924D01*
X70850924Y1656283D01*
X70752430Y1803690D01*
X70684586Y1967480D01*
X70662410Y2078969D01*
X70650000Y2141356D01*
X70650000Y2318644D01*
X70684586Y2492520D01*
X70752429Y2656308D01*
X70752430Y2656310D01*
X70850924Y2803717D01*
X70976283Y2929076D01*
X71123690Y3027570D01*
X71287480Y3095414D01*
X71461356Y3130000D01*
X71638644Y3130000D01*
X71812520Y3095414D01*
G37*
G36*
X74352520Y3095414D02*
G01*
X74516310Y3027570D01*
X74663717Y2929076D01*
X74789076Y2803717D01*
X74887570Y2656310D01*
X74887571Y2656308D01*
X74955414Y2492520D01*
X74990000Y2318644D01*
X74990000Y2141356D01*
X74977590Y2078969D01*
X74955414Y1967480D01*
X74887570Y1803690D01*
X74789076Y1656283D01*
X74663717Y1530924D01*
X74516310Y1432430D01*
X74516309Y1432429D01*
X74516308Y1432429D01*
X74352520Y1364586D01*
X74178644Y1330000D01*
X74001356Y1330000D01*
X73827480Y1364586D01*
X73663692Y1432429D01*
X73663691Y1432429D01*
X73663690Y1432430D01*
X73516283Y1530924D01*
X73390924Y1656283D01*
X73292430Y1803690D01*
X73224586Y1967480D01*
X73202410Y2078969D01*
X73190000Y2141356D01*
X73190000Y2318644D01*
X73224586Y2492520D01*
X73292429Y2656308D01*
X73292430Y2656310D01*
X73390924Y2803717D01*
X73516283Y2929076D01*
X73663690Y3027570D01*
X73827480Y3095414D01*
X74001356Y3130000D01*
X74178644Y3130000D01*
X74352520Y3095414D01*
G37*
G36*
X76892520Y3095414D02*
G01*
X77056310Y3027570D01*
X77203717Y2929076D01*
X77329076Y2803717D01*
X77427570Y2656310D01*
X77427571Y2656308D01*
X77495414Y2492520D01*
X77530000Y2318644D01*
X77530000Y2141356D01*
X77517590Y2078969D01*
X77495414Y1967480D01*
X77427570Y1803690D01*
X77329076Y1656283D01*
X77203717Y1530924D01*
X77056310Y1432430D01*
X77056309Y1432429D01*
X77056308Y1432429D01*
X76892520Y1364586D01*
X76718644Y1330000D01*
X76541356Y1330000D01*
X76367480Y1364586D01*
X76203692Y1432429D01*
X76203691Y1432429D01*
X76203690Y1432430D01*
X76056283Y1530924D01*
X75930924Y1656283D01*
X75832430Y1803690D01*
X75764586Y1967480D01*
X75742410Y2078969D01*
X75730000Y2141356D01*
X75730000Y2318644D01*
X75764586Y2492520D01*
X75832429Y2656308D01*
X75832430Y2656310D01*
X75930924Y2803717D01*
X76056283Y2929076D01*
X76203690Y3027570D01*
X76367480Y3095414D01*
X76541356Y3130000D01*
X76718644Y3130000D01*
X76892520Y3095414D01*
G37*
G36*
X33712520Y3095414D02*
G01*
X33876310Y3027570D01*
X34023717Y2929076D01*
X34149076Y2803717D01*
X34247570Y2656310D01*
X34247571Y2656308D01*
X34315414Y2492520D01*
X34350000Y2318644D01*
X34350000Y2141356D01*
X34337590Y2078969D01*
X34315414Y1967480D01*
X34247570Y1803690D01*
X34149076Y1656283D01*
X34023717Y1530924D01*
X33876310Y1432430D01*
X33876309Y1432429D01*
X33876308Y1432429D01*
X33712520Y1364586D01*
X33538644Y1330000D01*
X33361356Y1330000D01*
X33187480Y1364586D01*
X33023692Y1432429D01*
X33023691Y1432429D01*
X33023690Y1432430D01*
X32876283Y1530924D01*
X32750924Y1656283D01*
X32652430Y1803690D01*
X32584586Y1967480D01*
X32562410Y2078969D01*
X32550000Y2141356D01*
X32550000Y2318644D01*
X32584586Y2492520D01*
X32652429Y2656308D01*
X32652430Y2656310D01*
X32750924Y2803717D01*
X32876283Y2929076D01*
X33023690Y3027570D01*
X33187480Y3095414D01*
X33361356Y3130000D01*
X33538644Y3130000D01*
X33712520Y3095414D01*
G37*
G36*
X31172520Y3095414D02*
G01*
X31336310Y3027570D01*
X31483717Y2929076D01*
X31609076Y2803717D01*
X31707570Y2656310D01*
X31707571Y2656308D01*
X31775414Y2492520D01*
X31810000Y2318644D01*
X31810000Y2141356D01*
X31797590Y2078969D01*
X31775414Y1967480D01*
X31707570Y1803690D01*
X31609076Y1656283D01*
X31483717Y1530924D01*
X31336310Y1432430D01*
X31336309Y1432429D01*
X31336308Y1432429D01*
X31172520Y1364586D01*
X30998644Y1330000D01*
X30821356Y1330000D01*
X30647480Y1364586D01*
X30483692Y1432429D01*
X30483691Y1432429D01*
X30483690Y1432430D01*
X30336283Y1530924D01*
X30210924Y1656283D01*
X30112430Y1803690D01*
X30044586Y1967480D01*
X30022410Y2078969D01*
X30010000Y2141356D01*
X30010000Y2318644D01*
X30044586Y2492520D01*
X30112429Y2656308D01*
X30112430Y2656310D01*
X30210924Y2803717D01*
X30336283Y2929076D01*
X30483690Y3027570D01*
X30647480Y3095414D01*
X30821356Y3130000D01*
X30998644Y3130000D01*
X31172520Y3095414D01*
G37*
G36*
X36252520Y3095414D02*
G01*
X36416310Y3027570D01*
X36563717Y2929076D01*
X36689076Y2803717D01*
X36787570Y2656310D01*
X36787571Y2656308D01*
X36855414Y2492520D01*
X36890000Y2318644D01*
X36890000Y2141356D01*
X36877590Y2078969D01*
X36855414Y1967480D01*
X36787570Y1803690D01*
X36689076Y1656283D01*
X36563717Y1530924D01*
X36416310Y1432430D01*
X36416309Y1432429D01*
X36416308Y1432429D01*
X36252520Y1364586D01*
X36078644Y1330000D01*
X35901356Y1330000D01*
X35727480Y1364586D01*
X35563692Y1432429D01*
X35563691Y1432429D01*
X35563690Y1432430D01*
X35416283Y1530924D01*
X35290924Y1656283D01*
X35192430Y1803690D01*
X35124586Y1967480D01*
X35102410Y2078969D01*
X35090000Y2141356D01*
X35090000Y2318644D01*
X35124586Y2492520D01*
X35192429Y2656308D01*
X35192430Y2656310D01*
X35290924Y2803717D01*
X35416283Y2929076D01*
X35563690Y3027570D01*
X35727480Y3095414D01*
X35901356Y3130000D01*
X36078644Y3130000D01*
X36252520Y3095414D01*
G37*
G36*
X54032520Y5635414D02*
G01*
X54196310Y5567570D01*
X54343717Y5469076D01*
X54469076Y5343717D01*
X54567570Y5196310D01*
X54635414Y5032520D01*
X54670000Y4858642D01*
X54670000Y4681358D01*
X54635414Y4507480D01*
X54567570Y4343690D01*
X54469076Y4196283D01*
X54343717Y4070924D01*
X54196310Y3972430D01*
X54196309Y3972429D01*
X54196308Y3972429D01*
X54032520Y3904586D01*
X53858644Y3870000D01*
X53681356Y3870000D01*
X53507480Y3904586D01*
X53343692Y3972429D01*
X53343691Y3972429D01*
X53343690Y3972430D01*
X53196283Y4070924D01*
X53070924Y4196283D01*
X52972430Y4343690D01*
X52904586Y4507480D01*
X52870000Y4681358D01*
X52870000Y4858642D01*
X52904586Y5032520D01*
X52972430Y5196310D01*
X53070924Y5343717D01*
X53196283Y5469076D01*
X53343690Y5567570D01*
X53507480Y5635414D01*
X53681356Y5670000D01*
X53858644Y5670000D01*
X54032520Y5635414D01*
G37*
G36*
X56572520Y5635414D02*
G01*
X56736310Y5567570D01*
X56883717Y5469076D01*
X57009076Y5343717D01*
X57107570Y5196310D01*
X57175414Y5032520D01*
X57210000Y4858642D01*
X57210000Y4681358D01*
X57175414Y4507480D01*
X57107570Y4343690D01*
X57009076Y4196283D01*
X56883717Y4070924D01*
X56736310Y3972430D01*
X56736309Y3972429D01*
X56736308Y3972429D01*
X56572520Y3904586D01*
X56398644Y3870000D01*
X56221356Y3870000D01*
X56047480Y3904586D01*
X55883692Y3972429D01*
X55883691Y3972429D01*
X55883690Y3972430D01*
X55736283Y4070924D01*
X55610924Y4196283D01*
X55512430Y4343690D01*
X55444586Y4507480D01*
X55410000Y4681358D01*
X55410000Y4858642D01*
X55444586Y5032520D01*
X55512430Y5196310D01*
X55610924Y5343717D01*
X55736283Y5469076D01*
X55883690Y5567570D01*
X56047480Y5635414D01*
X56221356Y5670000D01*
X56398644Y5670000D01*
X56572520Y5635414D01*
G37*
G36*
X59112520Y5635414D02*
G01*
X59276310Y5567570D01*
X59423717Y5469076D01*
X59549076Y5343717D01*
X59647570Y5196310D01*
X59715414Y5032520D01*
X59750000Y4858642D01*
X59750000Y4681358D01*
X59715414Y4507480D01*
X59647570Y4343690D01*
X59549076Y4196283D01*
X59423717Y4070924D01*
X59276310Y3972430D01*
X59276309Y3972429D01*
X59276308Y3972429D01*
X59112520Y3904586D01*
X58938644Y3870000D01*
X58761356Y3870000D01*
X58587480Y3904586D01*
X58423692Y3972429D01*
X58423691Y3972429D01*
X58423690Y3972430D01*
X58276283Y4070924D01*
X58150924Y4196283D01*
X58052430Y4343690D01*
X57984586Y4507480D01*
X57950000Y4681358D01*
X57950000Y4858642D01*
X57984586Y5032520D01*
X58052430Y5196310D01*
X58150924Y5343717D01*
X58276283Y5469076D01*
X58423690Y5567570D01*
X58587480Y5635414D01*
X58761356Y5670000D01*
X58938644Y5670000D01*
X59112520Y5635414D01*
G37*
G36*
X61652520Y5635414D02*
G01*
X61816310Y5567570D01*
X61963717Y5469076D01*
X62089076Y5343717D01*
X62187570Y5196310D01*
X62255414Y5032520D01*
X62290000Y4858642D01*
X62290000Y4681358D01*
X62255414Y4507480D01*
X62187570Y4343690D01*
X62089076Y4196283D01*
X61963717Y4070924D01*
X61816310Y3972430D01*
X61816309Y3972429D01*
X61816308Y3972429D01*
X61652520Y3904586D01*
X61478644Y3870000D01*
X61301356Y3870000D01*
X61127480Y3904586D01*
X60963692Y3972429D01*
X60963691Y3972429D01*
X60963690Y3972430D01*
X60816283Y4070924D01*
X60690924Y4196283D01*
X60592430Y4343690D01*
X60524586Y4507480D01*
X60490000Y4681358D01*
X60490000Y4858642D01*
X60524586Y5032520D01*
X60592430Y5196310D01*
X60690924Y5343717D01*
X60816283Y5469076D01*
X60963690Y5567570D01*
X61127480Y5635414D01*
X61301356Y5670000D01*
X61478644Y5670000D01*
X61652520Y5635414D01*
G37*
G36*
X64192520Y5635414D02*
G01*
X64356310Y5567570D01*
X64503717Y5469076D01*
X64629076Y5343717D01*
X64727570Y5196310D01*
X64795414Y5032520D01*
X64830000Y4858642D01*
X64830000Y4681358D01*
X64795414Y4507480D01*
X64727570Y4343690D01*
X64629076Y4196283D01*
X64503717Y4070924D01*
X64356310Y3972430D01*
X64356309Y3972429D01*
X64356308Y3972429D01*
X64192520Y3904586D01*
X64018644Y3870000D01*
X63841356Y3870000D01*
X63667480Y3904586D01*
X63503692Y3972429D01*
X63503691Y3972429D01*
X63503690Y3972430D01*
X63356283Y4070924D01*
X63230924Y4196283D01*
X63132430Y4343690D01*
X63064586Y4507480D01*
X63030000Y4681358D01*
X63030000Y4858642D01*
X63064586Y5032520D01*
X63132430Y5196310D01*
X63230924Y5343717D01*
X63356283Y5469076D01*
X63503690Y5567570D01*
X63667480Y5635414D01*
X63841356Y5670000D01*
X64018644Y5670000D01*
X64192520Y5635414D01*
G37*
G36*
X66732520Y5635414D02*
G01*
X66896310Y5567570D01*
X67043717Y5469076D01*
X67169076Y5343717D01*
X67267570Y5196310D01*
X67335414Y5032520D01*
X67370000Y4858642D01*
X67370000Y4681358D01*
X67335414Y4507480D01*
X67267570Y4343690D01*
X67169076Y4196283D01*
X67043717Y4070924D01*
X66896310Y3972430D01*
X66896309Y3972429D01*
X66896308Y3972429D01*
X66732520Y3904586D01*
X66558644Y3870000D01*
X66381356Y3870000D01*
X66207480Y3904586D01*
X66043692Y3972429D01*
X66043691Y3972429D01*
X66043690Y3972430D01*
X65896283Y4070924D01*
X65770924Y4196283D01*
X65672430Y4343690D01*
X65604586Y4507480D01*
X65570000Y4681358D01*
X65570000Y4858642D01*
X65604586Y5032520D01*
X65672430Y5196310D01*
X65770924Y5343717D01*
X65896283Y5469076D01*
X66043690Y5567570D01*
X66207480Y5635414D01*
X66381356Y5670000D01*
X66558644Y5670000D01*
X66732520Y5635414D01*
G37*
G36*
X69272520Y5635414D02*
G01*
X69436310Y5567570D01*
X69583717Y5469076D01*
X69709076Y5343717D01*
X69807570Y5196310D01*
X69875414Y5032520D01*
X69910000Y4858642D01*
X69910000Y4681358D01*
X69875414Y4507480D01*
X69807570Y4343690D01*
X69709076Y4196283D01*
X69583717Y4070924D01*
X69436310Y3972430D01*
X69436309Y3972429D01*
X69436308Y3972429D01*
X69272520Y3904586D01*
X69098644Y3870000D01*
X68921356Y3870000D01*
X68747480Y3904586D01*
X68583692Y3972429D01*
X68583691Y3972429D01*
X68583690Y3972430D01*
X68436283Y4070924D01*
X68310924Y4196283D01*
X68212430Y4343690D01*
X68144586Y4507480D01*
X68110000Y4681358D01*
X68110000Y4858642D01*
X68144586Y5032520D01*
X68212430Y5196310D01*
X68310924Y5343717D01*
X68436283Y5469076D01*
X68583690Y5567570D01*
X68747480Y5635414D01*
X68921356Y5670000D01*
X69098644Y5670000D01*
X69272520Y5635414D01*
G37*
G36*
X71812520Y5635414D02*
G01*
X71976310Y5567570D01*
X72123717Y5469076D01*
X72249076Y5343717D01*
X72347570Y5196310D01*
X72415414Y5032520D01*
X72450000Y4858642D01*
X72450000Y4681358D01*
X72415414Y4507480D01*
X72347570Y4343690D01*
X72249076Y4196283D01*
X72123717Y4070924D01*
X71976310Y3972430D01*
X71976309Y3972429D01*
X71976308Y3972429D01*
X71812520Y3904586D01*
X71638644Y3870000D01*
X71461356Y3870000D01*
X71287480Y3904586D01*
X71123692Y3972429D01*
X71123691Y3972429D01*
X71123690Y3972430D01*
X70976283Y4070924D01*
X70850924Y4196283D01*
X70752430Y4343690D01*
X70684586Y4507480D01*
X70650000Y4681358D01*
X70650000Y4858642D01*
X70684586Y5032520D01*
X70752430Y5196310D01*
X70850924Y5343717D01*
X70976283Y5469076D01*
X71123690Y5567570D01*
X71287480Y5635414D01*
X71461356Y5670000D01*
X71638644Y5670000D01*
X71812520Y5635414D01*
G37*
G36*
X74352520Y5635414D02*
G01*
X74516310Y5567570D01*
X74663717Y5469076D01*
X74789076Y5343717D01*
X74887570Y5196310D01*
X74955414Y5032520D01*
X74990000Y4858642D01*
X74990000Y4681358D01*
X74955414Y4507480D01*
X74887570Y4343690D01*
X74789076Y4196283D01*
X74663717Y4070924D01*
X74516310Y3972430D01*
X74516309Y3972429D01*
X74516308Y3972429D01*
X74352520Y3904586D01*
X74178644Y3870000D01*
X74001356Y3870000D01*
X73827480Y3904586D01*
X73663692Y3972429D01*
X73663691Y3972429D01*
X73663690Y3972430D01*
X73516283Y4070924D01*
X73390924Y4196283D01*
X73292430Y4343690D01*
X73224586Y4507480D01*
X73190000Y4681358D01*
X73190000Y4858642D01*
X73224586Y5032520D01*
X73292430Y5196310D01*
X73390924Y5343717D01*
X73516283Y5469076D01*
X73663690Y5567570D01*
X73827480Y5635414D01*
X74001356Y5670000D01*
X74178644Y5670000D01*
X74352520Y5635414D01*
G37*
G36*
X76892520Y5635414D02*
G01*
X77056310Y5567570D01*
X77203717Y5469076D01*
X77329076Y5343717D01*
X77427570Y5196310D01*
X77495414Y5032520D01*
X77530000Y4858642D01*
X77530000Y4681358D01*
X77495414Y4507480D01*
X77427570Y4343690D01*
X77329076Y4196283D01*
X77203717Y4070924D01*
X77056310Y3972430D01*
X77056309Y3972429D01*
X77056308Y3972429D01*
X76892520Y3904586D01*
X76718644Y3870000D01*
X76541356Y3870000D01*
X76367480Y3904586D01*
X76203692Y3972429D01*
X76203691Y3972429D01*
X76203690Y3972430D01*
X76056283Y4070924D01*
X75930924Y4196283D01*
X75832430Y4343690D01*
X75764586Y4507480D01*
X75730000Y4681358D01*
X75730000Y4858642D01*
X75764586Y5032520D01*
X75832430Y5196310D01*
X75930924Y5343717D01*
X76056283Y5469076D01*
X76203690Y5567570D01*
X76367480Y5635414D01*
X76541356Y5670000D01*
X76718644Y5670000D01*
X76892520Y5635414D01*
G37*
G36*
X48952520Y5635414D02*
G01*
X49116310Y5567570D01*
X49263717Y5469076D01*
X49389076Y5343717D01*
X49487570Y5196310D01*
X49555414Y5032520D01*
X49590000Y4858642D01*
X49590000Y4681358D01*
X49555414Y4507480D01*
X49487570Y4343690D01*
X49389076Y4196283D01*
X49263717Y4070924D01*
X49116310Y3972430D01*
X49116309Y3972429D01*
X49116308Y3972429D01*
X48952520Y3904586D01*
X48778644Y3870000D01*
X48601356Y3870000D01*
X48427480Y3904586D01*
X48263692Y3972429D01*
X48263691Y3972429D01*
X48263690Y3972430D01*
X48116283Y4070924D01*
X47990924Y4196283D01*
X47892430Y4343690D01*
X47824586Y4507480D01*
X47790000Y4681358D01*
X47790000Y4858642D01*
X47824586Y5032520D01*
X47892430Y5196310D01*
X47990924Y5343717D01*
X48116283Y5469076D01*
X48263690Y5567570D01*
X48427480Y5635414D01*
X48601356Y5670000D01*
X48778644Y5670000D01*
X48952520Y5635414D01*
G37*
G36*
X46412520Y5635414D02*
G01*
X46576310Y5567570D01*
X46723717Y5469076D01*
X46849076Y5343717D01*
X46947570Y5196310D01*
X47015414Y5032520D01*
X47050000Y4858642D01*
X47050000Y4681358D01*
X47015414Y4507480D01*
X46947570Y4343690D01*
X46849076Y4196283D01*
X46723717Y4070924D01*
X46576310Y3972430D01*
X46576309Y3972429D01*
X46576308Y3972429D01*
X46412520Y3904586D01*
X46238644Y3870000D01*
X46061356Y3870000D01*
X45887480Y3904586D01*
X45723692Y3972429D01*
X45723691Y3972429D01*
X45723690Y3972430D01*
X45576283Y4070924D01*
X45450924Y4196283D01*
X45352430Y4343690D01*
X45284586Y4507480D01*
X45250000Y4681358D01*
X45250000Y4858642D01*
X45284586Y5032520D01*
X45352430Y5196310D01*
X45450924Y5343717D01*
X45576283Y5469076D01*
X45723690Y5567570D01*
X45887480Y5635414D01*
X46061356Y5670000D01*
X46238644Y5670000D01*
X46412520Y5635414D01*
G37*
G36*
X43872520Y5635414D02*
G01*
X44036310Y5567570D01*
X44183717Y5469076D01*
X44309076Y5343717D01*
X44407570Y5196310D01*
X44475414Y5032520D01*
X44510000Y4858642D01*
X44510000Y4681358D01*
X44475414Y4507480D01*
X44407570Y4343690D01*
X44309076Y4196283D01*
X44183717Y4070924D01*
X44036310Y3972430D01*
X44036309Y3972429D01*
X44036308Y3972429D01*
X43872520Y3904586D01*
X43698644Y3870000D01*
X43521356Y3870000D01*
X43347480Y3904586D01*
X43183692Y3972429D01*
X43183691Y3972429D01*
X43183690Y3972430D01*
X43036283Y4070924D01*
X42910924Y4196283D01*
X42812430Y4343690D01*
X42744586Y4507480D01*
X42710000Y4681358D01*
X42710000Y4858642D01*
X42744586Y5032520D01*
X42812430Y5196310D01*
X42910924Y5343717D01*
X43036283Y5469076D01*
X43183690Y5567570D01*
X43347480Y5635414D01*
X43521356Y5670000D01*
X43698644Y5670000D01*
X43872520Y5635414D01*
G37*
G36*
X31172520Y5635414D02*
G01*
X31336310Y5567570D01*
X31483717Y5469076D01*
X31609076Y5343717D01*
X31707570Y5196310D01*
X31775414Y5032520D01*
X31810000Y4858642D01*
X31810000Y4681358D01*
X31775414Y4507480D01*
X31707570Y4343690D01*
X31609076Y4196283D01*
X31483717Y4070924D01*
X31336310Y3972430D01*
X31336309Y3972429D01*
X31336308Y3972429D01*
X31172520Y3904586D01*
X30998644Y3870000D01*
X30821356Y3870000D01*
X30647480Y3904586D01*
X30483692Y3972429D01*
X30483691Y3972429D01*
X30483690Y3972430D01*
X30336283Y4070924D01*
X30210924Y4196283D01*
X30112430Y4343690D01*
X30044586Y4507480D01*
X30010000Y4681358D01*
X30010000Y4858642D01*
X30044586Y5032520D01*
X30112430Y5196310D01*
X30210924Y5343717D01*
X30336283Y5469076D01*
X30483690Y5567570D01*
X30647480Y5635414D01*
X30821356Y5670000D01*
X30998644Y5670000D01*
X31172520Y5635414D01*
G37*
G36*
X41332520Y5635414D02*
G01*
X41496310Y5567570D01*
X41643717Y5469076D01*
X41769076Y5343717D01*
X41867570Y5196310D01*
X41935414Y5032520D01*
X41970000Y4858642D01*
X41970000Y4681358D01*
X41935414Y4507480D01*
X41867570Y4343690D01*
X41769076Y4196283D01*
X41643717Y4070924D01*
X41496310Y3972430D01*
X41496309Y3972429D01*
X41496308Y3972429D01*
X41332520Y3904586D01*
X41158644Y3870000D01*
X40981356Y3870000D01*
X40807480Y3904586D01*
X40643692Y3972429D01*
X40643691Y3972429D01*
X40643690Y3972430D01*
X40496283Y4070924D01*
X40370924Y4196283D01*
X40272430Y4343690D01*
X40204586Y4507480D01*
X40170000Y4681358D01*
X40170000Y4858642D01*
X40204586Y5032520D01*
X40272430Y5196310D01*
X40370924Y5343717D01*
X40496283Y5469076D01*
X40643690Y5567570D01*
X40807480Y5635414D01*
X40981356Y5670000D01*
X41158644Y5670000D01*
X41332520Y5635414D01*
G37*
G36*
X33712520Y5635414D02*
G01*
X33876310Y5567570D01*
X34023717Y5469076D01*
X34149076Y5343717D01*
X34247570Y5196310D01*
X34315414Y5032520D01*
X34350000Y4858642D01*
X34350000Y4681358D01*
X34315414Y4507480D01*
X34247570Y4343690D01*
X34149076Y4196283D01*
X34023717Y4070924D01*
X33876310Y3972430D01*
X33876309Y3972429D01*
X33876308Y3972429D01*
X33712520Y3904586D01*
X33538644Y3870000D01*
X33361356Y3870000D01*
X33187480Y3904586D01*
X33023692Y3972429D01*
X33023691Y3972429D01*
X33023690Y3972430D01*
X32876283Y4070924D01*
X32750924Y4196283D01*
X32652430Y4343690D01*
X32584586Y4507480D01*
X32550000Y4681358D01*
X32550000Y4858642D01*
X32584586Y5032520D01*
X32652430Y5196310D01*
X32750924Y5343717D01*
X32876283Y5469076D01*
X33023690Y5567570D01*
X33187480Y5635414D01*
X33361356Y5670000D01*
X33538644Y5670000D01*
X33712520Y5635414D01*
G37*
G36*
X38792520Y5635414D02*
G01*
X38956310Y5567570D01*
X39103717Y5469076D01*
X39229076Y5343717D01*
X39327570Y5196310D01*
X39395414Y5032520D01*
X39430000Y4858642D01*
X39430000Y4681358D01*
X39395414Y4507480D01*
X39327570Y4343690D01*
X39229076Y4196283D01*
X39103717Y4070924D01*
X38956310Y3972430D01*
X38956309Y3972429D01*
X38956308Y3972429D01*
X38792520Y3904586D01*
X38618644Y3870000D01*
X38441356Y3870000D01*
X38267480Y3904586D01*
X38103692Y3972429D01*
X38103691Y3972429D01*
X38103690Y3972430D01*
X37956283Y4070924D01*
X37830924Y4196283D01*
X37732430Y4343690D01*
X37664586Y4507480D01*
X37630000Y4681358D01*
X37630000Y4858642D01*
X37664586Y5032520D01*
X37732430Y5196310D01*
X37830924Y5343717D01*
X37956283Y5469076D01*
X38103690Y5567570D01*
X38267480Y5635414D01*
X38441356Y5670000D01*
X38618644Y5670000D01*
X38792520Y5635414D01*
G37*
G36*
X28632520Y5635414D02*
G01*
X28796310Y5567570D01*
X28943717Y5469076D01*
X29069076Y5343717D01*
X29167570Y5196310D01*
X29235414Y5032520D01*
X29270000Y4858642D01*
X29270000Y4681358D01*
X29235414Y4507480D01*
X29167570Y4343690D01*
X29069076Y4196283D01*
X28943717Y4070924D01*
X28796310Y3972430D01*
X28796309Y3972429D01*
X28796308Y3972429D01*
X28632520Y3904586D01*
X28458644Y3870000D01*
X28281356Y3870000D01*
X28107480Y3904586D01*
X27943692Y3972429D01*
X27943691Y3972429D01*
X27943690Y3972430D01*
X27796283Y4070924D01*
X27670924Y4196283D01*
X27572430Y4343690D01*
X27504586Y4507480D01*
X27470000Y4681358D01*
X27470000Y4858642D01*
X27504586Y5032520D01*
X27572430Y5196310D01*
X27670924Y5343717D01*
X27796283Y5469076D01*
X27943690Y5567570D01*
X28107480Y5635414D01*
X28281356Y5670000D01*
X28458644Y5670000D01*
X28632520Y5635414D01*
G37*
G36*
X36252520Y5635414D02*
G01*
X36416310Y5567570D01*
X36563717Y5469076D01*
X36689076Y5343717D01*
X36787570Y5196310D01*
X36855414Y5032520D01*
X36890000Y4858642D01*
X36890000Y4681358D01*
X36855414Y4507480D01*
X36787570Y4343690D01*
X36689076Y4196283D01*
X36563717Y4070924D01*
X36416310Y3972430D01*
X36416309Y3972429D01*
X36416308Y3972429D01*
X36252520Y3904586D01*
X36078644Y3870000D01*
X35901356Y3870000D01*
X35727480Y3904586D01*
X35563692Y3972429D01*
X35563691Y3972429D01*
X35563690Y3972430D01*
X35416283Y4070924D01*
X35290924Y4196283D01*
X35192430Y4343690D01*
X35124586Y4507480D01*
X35090000Y4681358D01*
X35090000Y4858642D01*
X35124586Y5032520D01*
X35192430Y5196310D01*
X35290924Y5343717D01*
X35416283Y5469076D01*
X35563690Y5567570D01*
X35727480Y5635414D01*
X35901356Y5670000D01*
X36078644Y5670000D01*
X36252520Y5635414D01*
G37*
G36*
X51492520Y5635414D02*
G01*
X51656310Y5567570D01*
X51803717Y5469076D01*
X51929076Y5343717D01*
X52027570Y5196310D01*
X52095414Y5032520D01*
X52130000Y4858642D01*
X52130000Y4681358D01*
X52095414Y4507480D01*
X52027570Y4343690D01*
X51929076Y4196283D01*
X51803717Y4070924D01*
X51656310Y3972430D01*
X51656309Y3972429D01*
X51656308Y3972429D01*
X51492520Y3904586D01*
X51318644Y3870000D01*
X51141356Y3870000D01*
X50967480Y3904586D01*
X50803692Y3972429D01*
X50803691Y3972429D01*
X50803690Y3972430D01*
X50656283Y4070924D01*
X50530924Y4196283D01*
X50432430Y4343690D01*
X50364586Y4507480D01*
X50330000Y4681358D01*
X50330000Y4858642D01*
X50364586Y5032520D01*
X50432430Y5196310D01*
X50530924Y5343717D01*
X50656283Y5469076D01*
X50803690Y5567570D01*
X50967480Y5635414D01*
X51141356Y5670000D01*
X51318644Y5670000D01*
X51492520Y5635414D01*
G37*
G36*
X81747764Y10245598D02*
G01*
X81870445Y10221195D01*
X82101571Y10125459D01*
X82309578Y9986473D01*
X82486473Y9809578D01*
X82625459Y9601571D01*
X82721195Y9370445D01*
X82770000Y9125084D01*
X82770000Y8874916D01*
X82721195Y8629555D01*
X82625459Y8398429D01*
X82486473Y8190422D01*
X82309578Y8013527D01*
X82101571Y7874541D01*
X81870445Y7778805D01*
X81747765Y7754403D01*
X81625085Y7730000D01*
X81374915Y7730000D01*
X81252235Y7754403D01*
X81129555Y7778805D01*
X80898429Y7874541D01*
X80690422Y8013527D01*
X80513527Y8190422D01*
X80374541Y8398429D01*
X80278805Y8629555D01*
X80230000Y8874916D01*
X80230000Y9125084D01*
X80278805Y9370445D01*
X80374541Y9601571D01*
X80513527Y9809578D01*
X80690422Y9986473D01*
X80898429Y10125459D01*
X81129555Y10221195D01*
X81252236Y10245598D01*
X81374915Y10270000D01*
X81625085Y10270000D01*
X81747764Y10245598D01*
G37*
G36*
X67327290Y15824381D02*
G01*
X67391689Y15811571D01*
X67573678Y15736189D01*
X67737463Y15626751D01*
X67876751Y15487463D01*
X67986189Y15323678D01*
X68061571Y15141689D01*
X68100000Y14948491D01*
X68100000Y14751509D01*
X68061571Y14558311D01*
X67986189Y14376322D01*
X67876751Y14212537D01*
X67737463Y14073249D01*
X67573678Y13963811D01*
X67391689Y13888429D01*
X67327290Y13875619D01*
X67198493Y13850000D01*
X67001507Y13850000D01*
X66872710Y13875619D01*
X66808311Y13888429D01*
X66626322Y13963811D01*
X66462537Y14073249D01*
X66323249Y14212537D01*
X66213811Y14376322D01*
X66138429Y14558311D01*
X66100000Y14751509D01*
X66100000Y14948491D01*
X66138429Y15141689D01*
X66213811Y15323678D01*
X66323249Y15487463D01*
X66462537Y15626751D01*
X66626322Y15736189D01*
X66808311Y15811571D01*
X66872710Y15824381D01*
X67001507Y15850000D01*
X67198493Y15850000D01*
X67327290Y15824381D01*
G37*
G36*
X72877290Y18524381D02*
G01*
X72941689Y18511571D01*
X73123678Y18436189D01*
X73287463Y18326751D01*
X73426751Y18187463D01*
X73536189Y18023678D01*
X73611571Y17841689D01*
X73650000Y17648491D01*
X73650000Y17451509D01*
X73611571Y17258311D01*
X73536189Y17076322D01*
X73426751Y16912537D01*
X73287463Y16773249D01*
X73123678Y16663811D01*
X72941689Y16588429D01*
X72877290Y16575619D01*
X72748493Y16550000D01*
X72551507Y16550000D01*
X72422710Y16575619D01*
X72358311Y16588429D01*
X72176322Y16663811D01*
X72012537Y16773249D01*
X71873249Y16912537D01*
X71763811Y17076322D01*
X71688429Y17258311D01*
X71650000Y17451509D01*
X71650000Y17648491D01*
X71688429Y17841689D01*
X71763811Y18023678D01*
X71873249Y18187463D01*
X72012537Y18326751D01*
X72176322Y18436189D01*
X72358311Y18511571D01*
X72422710Y18524381D01*
X72551507Y18550000D01*
X72748493Y18550000D01*
X72877290Y18524381D01*
G37*
G36*
X61777290Y18524381D02*
G01*
X61841689Y18511571D01*
X62023678Y18436189D01*
X62187463Y18326751D01*
X62326751Y18187463D01*
X62436189Y18023678D01*
X62511571Y17841689D01*
X62550000Y17648491D01*
X62550000Y17451509D01*
X62511571Y17258311D01*
X62436189Y17076322D01*
X62326751Y16912537D01*
X62187463Y16773249D01*
X62023678Y16663811D01*
X61841689Y16588429D01*
X61777290Y16575619D01*
X61648493Y16550000D01*
X61451507Y16550000D01*
X61322710Y16575619D01*
X61258311Y16588429D01*
X61076322Y16663811D01*
X60912537Y16773249D01*
X60773249Y16912537D01*
X60663811Y17076322D01*
X60588429Y17258311D01*
X60550000Y17451509D01*
X60550000Y17648491D01*
X60588429Y17841689D01*
X60663811Y18023678D01*
X60773249Y18187463D01*
X60912537Y18326751D01*
X61076322Y18436189D01*
X61258311Y18511571D01*
X61322710Y18524381D01*
X61451507Y18550000D01*
X61648493Y18550000D01*
X61777290Y18524381D01*
G37*
G36*
X19312962Y19626583D02*
G01*
X19315364Y19602197D01*
X19322477Y19578748D01*
X19334028Y19557137D01*
X19349573Y19538195D01*
X19368515Y19522650D01*
X19390126Y19511099D01*
X19413575Y19503986D01*
X19437961Y19501584D01*
X19562962Y19501584D01*
X19562962Y17101584D01*
X17362962Y17101584D01*
X17362962Y18076585D01*
X17360560Y18100971D01*
X17353447Y18124420D01*
X17341896Y18146031D01*
X17326351Y18164973D01*
X17307409Y18180518D01*
X17285798Y18192069D01*
X17262349Y18199182D01*
X17237963Y18201584D01*
X16507962Y18201584D01*
X16507962Y19501584D01*
X17587963Y19501584D01*
X17612349Y19503986D01*
X17635798Y19511099D01*
X17657409Y19522650D01*
X17676351Y19538195D01*
X17691896Y19557137D01*
X17703447Y19578748D01*
X17710560Y19602197D01*
X17712962Y19626583D01*
X17712962Y20301584D01*
X19312962Y20301584D01*
X19312962Y19626583D01*
G37*
G36*
X24400000Y19625000D02*
G01*
X23600000Y19625000D01*
X23600000Y20375000D01*
X24400000Y20375000D01*
X24400000Y19625000D01*
G37*
G36*
X22900000Y19625000D02*
G01*
X22100000Y19625000D01*
X22100000Y20375000D01*
X22900000Y20375000D01*
X22900000Y19625000D01*
G37*
G36*
X66850000Y19650000D02*
G01*
X66250000Y19650000D01*
X66250000Y20150000D01*
X66850000Y20150000D01*
X66850000Y19650000D01*
G37*
G36*
X67950000Y19650000D02*
G01*
X67350000Y19650000D01*
X67350000Y20150000D01*
X67950000Y20150000D01*
X67950000Y19650000D01*
G37*
G36*
X61491408Y23416375D02*
G01*
X61660456Y23382749D01*
X61978936Y23250830D01*
X62265560Y23059314D01*
X62509314Y22815560D01*
X62700830Y22528936D01*
X62832749Y22210456D01*
X62900000Y21872360D01*
X62900000Y21527640D01*
X62832749Y21189544D01*
X62700830Y20871064D01*
X62509314Y20584440D01*
X62265560Y20340686D01*
X61978936Y20149170D01*
X61660456Y20017251D01*
X61491408Y19983626D01*
X61322361Y19950000D01*
X60977639Y19950000D01*
X60808592Y19983625D01*
X60639544Y20017251D01*
X60321064Y20149170D01*
X60034440Y20340686D01*
X59790686Y20584440D01*
X59599170Y20871064D01*
X59467251Y21189544D01*
X59400000Y21527640D01*
X59400000Y21872360D01*
X59467251Y22210456D01*
X59599170Y22528936D01*
X59790686Y22815560D01*
X60034440Y23059314D01*
X60321064Y23250830D01*
X60639544Y23382749D01*
X60808592Y23416375D01*
X60977639Y23450000D01*
X61322361Y23450000D01*
X61491408Y23416375D01*
G37*
G36*
X73391408Y23416375D02*
G01*
X73560456Y23382749D01*
X73878936Y23250830D01*
X74165560Y23059314D01*
X74409314Y22815560D01*
X74600830Y22528936D01*
X74732749Y22210456D01*
X74800000Y21872360D01*
X74800000Y21527640D01*
X74732749Y21189544D01*
X74600830Y20871064D01*
X74409314Y20584440D01*
X74165560Y20340686D01*
X73878936Y20149170D01*
X73560456Y20017251D01*
X73391408Y19983626D01*
X73222361Y19950000D01*
X72877639Y19950000D01*
X72708592Y19983625D01*
X72539544Y20017251D01*
X72221064Y20149170D01*
X71934440Y20340686D01*
X71690686Y20584440D01*
X71499170Y20871064D01*
X71367251Y21189544D01*
X71300000Y21527640D01*
X71300000Y21872360D01*
X71367251Y22210456D01*
X71499170Y22528936D01*
X71690686Y22815560D01*
X71934440Y23059314D01*
X72221064Y23250830D01*
X72539544Y23382749D01*
X72708592Y23416375D01*
X72877639Y23450000D01*
X73222361Y23450000D01*
X73391408Y23416375D01*
G37*
G36*
X20362038Y20598416D02*
G01*
X19112038Y20598416D01*
X19112038Y35398416D01*
X20362038Y35398416D01*
X20362038Y20598416D01*
G37*
G36*
X67750000Y20600000D02*
G01*
X67350000Y20600000D01*
X67350000Y21200000D01*
X67750000Y21200000D01*
X67750000Y20600000D01*
G37*
G36*
X66850000Y20600000D02*
G01*
X66450000Y20600000D01*
X66450000Y21200000D01*
X66850000Y21200000D01*
X66850000Y20600000D01*
G37*
G36*
X24400000Y21125000D02*
G01*
X23600000Y21125000D01*
X23600000Y21875000D01*
X24400000Y21875000D01*
X24400000Y21125000D01*
G37*
G36*
X22900000Y21125000D02*
G01*
X22100000Y21125000D01*
X22100000Y21875000D01*
X22900000Y21875000D01*
X22900000Y21125000D01*
G37*
G36*
X67950000Y21650000D02*
G01*
X67350000Y21650000D01*
X67350000Y22150000D01*
X67950000Y22150000D01*
X67950000Y21650000D01*
G37*
G36*
X66850000Y21650000D02*
G01*
X66250000Y21650000D01*
X66250000Y22150000D01*
X66850000Y22150000D01*
X66850000Y21650000D01*
G37*
G36*
X24750000Y22375000D02*
G01*
X23750000Y22375000D01*
X23750000Y23625000D01*
X24750000Y23625000D01*
X24750000Y22375000D01*
G37*
G36*
X22750000Y22375000D02*
G01*
X21750000Y22375000D01*
X21750000Y23625000D01*
X22750000Y23625000D01*
X22750000Y22375000D01*
G37*
G36*
X67750000Y22600000D02*
G01*
X67350000Y22600000D01*
X67350000Y23200000D01*
X67750000Y23200000D01*
X67750000Y22600000D01*
G37*
G36*
X66850000Y22600000D02*
G01*
X66450000Y22600000D01*
X66450000Y23200000D01*
X66850000Y23200000D01*
X66850000Y22600000D01*
G37*
G36*
X66850000Y23650000D02*
G01*
X66250000Y23650000D01*
X66250000Y24150000D01*
X66850000Y24150000D01*
X66850000Y23650000D01*
G37*
G36*
X67950000Y23650000D02*
G01*
X67350000Y23650000D01*
X67350000Y24150000D01*
X67950000Y24150000D01*
X67950000Y23650000D01*
G37*
G36*
X61377290Y26124381D02*
G01*
X61441689Y26111571D01*
X61623678Y26036189D01*
X61787463Y25926751D01*
X61926751Y25787463D01*
X62036189Y25623678D01*
X62111571Y25441689D01*
X62150000Y25248491D01*
X62150000Y25051509D01*
X62111571Y24858311D01*
X62036189Y24676322D01*
X61926751Y24512537D01*
X61787463Y24373249D01*
X61623678Y24263811D01*
X61441689Y24188429D01*
X61377290Y24175619D01*
X61248493Y24150000D01*
X61051507Y24150000D01*
X60922710Y24175619D01*
X60858311Y24188429D01*
X60676322Y24263811D01*
X60512537Y24373249D01*
X60373249Y24512537D01*
X60263811Y24676322D01*
X60188429Y24858311D01*
X60150000Y25051509D01*
X60150000Y25248491D01*
X60188429Y25441689D01*
X60263811Y25623678D01*
X60373249Y25787463D01*
X60512537Y25926751D01*
X60676322Y26036189D01*
X60858311Y26111571D01*
X60922710Y26124381D01*
X61051507Y26150000D01*
X61248493Y26150000D01*
X61377290Y26124381D01*
G37*
G36*
X67750000Y24600000D02*
G01*
X67350000Y24600000D01*
X67350000Y25200000D01*
X67750000Y25200000D01*
X67750000Y24600000D01*
G37*
G36*
X66850000Y24600000D02*
G01*
X66450000Y24600000D01*
X66450000Y25200000D01*
X66850000Y25200000D01*
X66850000Y24600000D01*
G37*
G36*
X72877290Y26824381D02*
G01*
X72941689Y26811571D01*
X73123678Y26736189D01*
X73287463Y26626751D01*
X73426751Y26487463D01*
X73536189Y26323678D01*
X73611571Y26141689D01*
X73650000Y25948491D01*
X73650000Y25751509D01*
X73611571Y25558311D01*
X73536189Y25376322D01*
X73426751Y25212537D01*
X73287463Y25073249D01*
X73123678Y24963811D01*
X72941689Y24888429D01*
X72877290Y24875619D01*
X72748493Y24850000D01*
X72551507Y24850000D01*
X72422710Y24875619D01*
X72358311Y24888429D01*
X72176322Y24963811D01*
X72012537Y25073249D01*
X71873249Y25212537D01*
X71763811Y25376322D01*
X71688429Y25558311D01*
X71650000Y25751509D01*
X71650000Y25948491D01*
X71688429Y26141689D01*
X71763811Y26323678D01*
X71873249Y26487463D01*
X72012537Y26626751D01*
X72176322Y26736189D01*
X72358311Y26811571D01*
X72422710Y26824381D01*
X72551507Y26850000D01*
X72748493Y26850000D01*
X72877290Y26824381D01*
G37*
G36*
X23900000Y24950000D02*
G01*
X23500000Y24950000D01*
X23500000Y25550000D01*
X23900000Y25550000D01*
X23900000Y24950000D01*
G37*
G36*
X23000000Y24950000D02*
G01*
X22600000Y24950000D01*
X22600000Y25550000D01*
X23000000Y25550000D01*
X23000000Y24950000D01*
G37*
G36*
X24500000Y28400000D02*
G01*
X23900000Y28400000D01*
X23900000Y29100000D01*
X24500000Y29100000D01*
X24500000Y28400000D01*
G37*
G36*
X23100000Y28400000D02*
G01*
X22500000Y28400000D01*
X22500000Y29100000D01*
X23100000Y29100000D01*
X23100000Y28400000D01*
G37*
G36*
X23100000Y29900000D02*
G01*
X22500000Y29900000D01*
X22500000Y30600000D01*
X23100000Y30600000D01*
X23100000Y29900000D01*
G37*
G36*
X24500000Y29900000D02*
G01*
X23900000Y29900000D01*
X23900000Y30600000D01*
X24500000Y30600000D01*
X24500000Y29900000D01*
G37*
G36*
X23650000Y31200000D02*
G01*
X23250000Y31200000D01*
X23250000Y31800000D01*
X23650000Y31800000D01*
X23650000Y31200000D01*
G37*
G36*
X22750000Y31200000D02*
G01*
X22350000Y31200000D01*
X22350000Y31800000D01*
X22750000Y31800000D01*
X22750000Y31200000D01*
G37*
G36*
X25000000Y32375000D02*
G01*
X24000000Y32375000D01*
X24000000Y33625000D01*
X25000000Y33625000D01*
X25000000Y32375000D01*
G37*
G36*
X23000000Y32375000D02*
G01*
X22000000Y32375000D01*
X22000000Y33625000D01*
X23000000Y33625000D01*
X23000000Y32375000D01*
G37*
G36*
X22900000Y34125000D02*
G01*
X22100000Y34125000D01*
X22100000Y34875000D01*
X22900000Y34875000D01*
X22900000Y34125000D01*
G37*
G36*
X24400000Y34125000D02*
G01*
X23600000Y34125000D01*
X23600000Y34875000D01*
X24400000Y34875000D01*
X24400000Y34125000D01*
G37*
G36*
X24400000Y35625000D02*
G01*
X23600000Y35625000D01*
X23600000Y36375000D01*
X24400000Y36375000D01*
X24400000Y35625000D01*
G37*
G36*
X22900000Y35625000D02*
G01*
X22100000Y35625000D01*
X22100000Y36375000D01*
X22900000Y36375000D01*
X22900000Y35625000D01*
G37*
G36*
X19562962Y36501584D02*
G01*
X19437961Y36501584D01*
X19413575Y36499182D01*
X19390126Y36492069D01*
X19368515Y36480518D01*
X19349573Y36464973D01*
X19334028Y36446031D01*
X19322477Y36424420D01*
X19315364Y36400971D01*
X19312962Y36376585D01*
X19312962Y35701584D01*
X17712962Y35701584D01*
X17712962Y36376585D01*
X17710560Y36400971D01*
X17703447Y36424420D01*
X17691896Y36446031D01*
X17676351Y36464973D01*
X17657409Y36480518D01*
X17635798Y36492069D01*
X17612349Y36499182D01*
X17587963Y36501584D01*
X16507962Y36501584D01*
X16507962Y37801584D01*
X17237963Y37801584D01*
X17262349Y37803986D01*
X17285798Y37811099D01*
X17307409Y37822650D01*
X17326351Y37838195D01*
X17341896Y37857137D01*
X17353447Y37878748D01*
X17360560Y37902197D01*
X17362962Y37926583D01*
X17362962Y38901584D01*
X19562962Y38901584D01*
X19562962Y36501584D01*
G37*
G36*
X23000000Y36950000D02*
G01*
X22000000Y36950000D01*
X22000000Y38550000D01*
X23000000Y38550000D01*
X23000000Y36950000D01*
G37*
G36*
X26000000Y36950000D02*
G01*
X25000000Y36950000D01*
X25000000Y38550000D01*
X26000000Y38550000D01*
X26000000Y36950000D01*
G37*
G36*
X57450000Y38650000D02*
G01*
X56550000Y38650000D01*
X56550000Y39450000D01*
X57450000Y39450000D01*
X57450000Y38650000D01*
G37*
G36*
X67350000Y38650000D02*
G01*
X66450000Y38650000D01*
X66450000Y39450000D01*
X67350000Y39450000D01*
X67350000Y38650000D01*
G37*
G36*
X56000000Y39250000D02*
G01*
X55400000Y39250000D01*
X55400000Y39650000D01*
X56000000Y39650000D01*
X56000000Y39250000D01*
G37*
G36*
X61575000Y39250000D02*
G01*
X60075000Y39250000D01*
X60075000Y40750000D01*
X61575000Y40750000D01*
X61575000Y39250000D01*
G37*
G36*
X63583766Y40721179D02*
G01*
X63720257Y40664642D01*
X63843097Y40582563D01*
X63947563Y40478097D01*
X64029642Y40355257D01*
X64086179Y40218766D01*
X64115000Y40073870D01*
X64115000Y39926130D01*
X64086179Y39781234D01*
X64029642Y39644743D01*
X63947563Y39521903D01*
X63843097Y39417437D01*
X63720257Y39335358D01*
X63583766Y39278821D01*
X63438870Y39250000D01*
X63291130Y39250000D01*
X63146234Y39278821D01*
X63009743Y39335358D01*
X62886903Y39417437D01*
X62782437Y39521903D01*
X62700358Y39644743D01*
X62643821Y39781234D01*
X62615000Y39926130D01*
X62615000Y40073870D01*
X62643821Y40218766D01*
X62700358Y40355257D01*
X62782437Y40478097D01*
X62886903Y40582563D01*
X63009743Y40664642D01*
X63146234Y40721179D01*
X63291130Y40750000D01*
X63438870Y40750000D01*
X63583766Y40721179D01*
G37*
G36*
X71575000Y39250000D02*
G01*
X70075000Y39250000D01*
X70075000Y40750000D01*
X71575000Y40750000D01*
X71575000Y39250000D01*
G37*
G36*
X73583766Y40721179D02*
G01*
X73720257Y40664642D01*
X73843097Y40582563D01*
X73947563Y40478097D01*
X74029642Y40355257D01*
X74086179Y40218766D01*
X74115000Y40073870D01*
X74115000Y39926130D01*
X74086179Y39781234D01*
X74029642Y39644743D01*
X73947563Y39521903D01*
X73843097Y39417437D01*
X73720257Y39335358D01*
X73583766Y39278821D01*
X73438870Y39250000D01*
X73291130Y39250000D01*
X73146234Y39278821D01*
X73009743Y39335358D01*
X72886903Y39417437D01*
X72782437Y39521903D01*
X72700358Y39644743D01*
X72643821Y39781234D01*
X72615000Y39926130D01*
X72615000Y40073870D01*
X72643821Y40218766D01*
X72700358Y40355257D01*
X72782437Y40478097D01*
X72886903Y40582563D01*
X73009743Y40664642D01*
X73146234Y40721179D01*
X73291130Y40750000D01*
X73438870Y40750000D01*
X73583766Y40721179D01*
G37*
G36*
X65900000Y39350000D02*
G01*
X65300000Y39350000D01*
X65300000Y39750000D01*
X65900000Y39750000D01*
X65900000Y39350000D01*
G37*
G36*
X69350000Y39600000D02*
G01*
X68450000Y39600000D01*
X68450000Y40400000D01*
X69350000Y40400000D01*
X69350000Y39600000D01*
G37*
G36*
X59450000Y39600000D02*
G01*
X58550000Y39600000D01*
X58550000Y40400000D01*
X59450000Y40400000D01*
X59450000Y39600000D01*
G37*
G36*
X56000000Y40150000D02*
G01*
X55400000Y40150000D01*
X55400000Y40550000D01*
X56000000Y40550000D01*
X56000000Y40150000D01*
G37*
G36*
X65900000Y40250000D02*
G01*
X65300000Y40250000D01*
X65300000Y40650000D01*
X65900000Y40650000D01*
X65900000Y40250000D01*
G37*
G36*
X57450000Y40550000D02*
G01*
X56550000Y40550000D01*
X56550000Y41350000D01*
X57450000Y41350000D01*
X57450000Y40550000D01*
G37*
G36*
X67350000Y40550000D02*
G01*
X66450000Y40550000D01*
X66450000Y41350000D01*
X67350000Y41350000D01*
X67350000Y40550000D01*
G37*
G36*
X72650000Y42500000D02*
G01*
X72250000Y42500000D01*
X72250000Y43100000D01*
X72650000Y43100000D01*
X72650000Y42500000D01*
G37*
G36*
X73550000Y42500000D02*
G01*
X73150000Y42500000D01*
X73150000Y43100000D01*
X73550000Y43100000D01*
X73550000Y42500000D01*
G37*
G36*
X64450000Y42500000D02*
G01*
X64050000Y42500000D01*
X64050000Y43100000D01*
X64450000Y43100000D01*
X64450000Y42500000D01*
G37*
G36*
X63550000Y42500000D02*
G01*
X63150000Y42500000D01*
X63150000Y43100000D01*
X63550000Y43100000D01*
X63550000Y42500000D01*
G37*
G36*
X68831174Y49907008D02*
G01*
X68852785Y49895457D01*
X68876234Y49888344D01*
X68900620Y49885942D01*
X68960622Y49885942D01*
X68965698Y49886442D01*
X69665621Y49886442D01*
X69665621Y49098831D01*
X69649803Y49090376D01*
X69629814Y49073770D01*
X69121185Y48552864D01*
X69105866Y48533738D01*
X69094574Y48511992D01*
X69087741Y48488460D01*
X69085621Y48465537D01*
X69085621Y47416347D01*
X69088023Y47391961D01*
X69095136Y47368512D01*
X69106687Y47346901D01*
X69121185Y47329020D01*
X69628837Y46809114D01*
X69647592Y46793344D01*
X69665621Y46783429D01*
X69665621Y45996442D01*
X69210620Y45996442D01*
X69205544Y45995942D01*
X68962026Y45995942D01*
X68961324Y45995873D01*
X68960622Y45995942D01*
X68900620Y45995942D01*
X68876234Y45993540D01*
X68852785Y45986427D01*
X68831174Y45974876D01*
X68812595Y45959628D01*
X68812091Y45960123D01*
X68793010Y45975497D01*
X68771296Y45986853D01*
X68767093Y45988087D01*
X68766106Y45991340D01*
X68754555Y46012951D01*
X68738210Y46032685D01*
X68215621Y46545942D01*
X68215621Y49335942D01*
X68738210Y49849199D01*
X68753925Y49868000D01*
X68765670Y49889506D01*
X68767030Y49893847D01*
X68772338Y49895457D01*
X68793949Y49907008D01*
X68812091Y49921761D01*
X68812595Y49922256D01*
X68831174Y49907008D01*
G37*
G36*
X72019151Y49921761D02*
G01*
X72038232Y49906387D01*
X72059946Y49895031D01*
X72064149Y49893797D01*
X72065136Y49890544D01*
X72076687Y49868933D01*
X72093032Y49849199D01*
X72615621Y49335942D01*
X72615621Y46545942D01*
X72093032Y46032685D01*
X72077317Y46013884D01*
X72065572Y45992378D01*
X72064212Y45988037D01*
X72058904Y45986427D01*
X72037293Y45974876D01*
X72019151Y45960123D01*
X72018647Y45959628D01*
X72000068Y45974876D01*
X71978457Y45986427D01*
X71955008Y45993540D01*
X71930622Y45995942D01*
X71870620Y45995942D01*
X71869897Y45995871D01*
X71869216Y45995942D01*
X71625698Y45995942D01*
X71620622Y45996442D01*
X71165621Y45996442D01*
X71165621Y46783531D01*
X71182416Y46792508D01*
X71202405Y46809114D01*
X71710057Y47329020D01*
X71725376Y47348146D01*
X71736668Y47369892D01*
X71743501Y47393425D01*
X71745621Y47416347D01*
X71745621Y48465537D01*
X71743219Y48489923D01*
X71736106Y48513372D01*
X71724555Y48534983D01*
X71710057Y48552864D01*
X71202405Y49072770D01*
X71183650Y49088540D01*
X71165621Y49098455D01*
X71165621Y49885442D01*
X71620622Y49885442D01*
X71625698Y49885942D01*
X71869216Y49885942D01*
X71869918Y49886011D01*
X71870620Y49885942D01*
X71930622Y49885942D01*
X71955008Y49888344D01*
X71978457Y49895457D01*
X72000068Y49907008D01*
X72018647Y49922256D01*
X72019151Y49921761D01*
G37*
G36*
X67365621Y46840942D02*
G01*
X66165621Y46840942D01*
X66165621Y47740942D01*
X67365621Y47740942D01*
X67365621Y46840942D01*
G37*
G36*
X65140621Y48690943D02*
G01*
X64390621Y48690943D01*
X64390621Y49490943D01*
X65140621Y49490943D01*
X65140621Y48690943D01*
G37*
G36*
X24181870Y55423141D02*
G01*
X24375068Y55384712D01*
X24921033Y55158566D01*
X25168378Y54993295D01*
X25412388Y54830253D01*
X25830253Y54412388D01*
X26158567Y53921031D01*
X26384712Y53375067D01*
X26500000Y52795476D01*
X26500000Y52204524D01*
X26484198Y52125084D01*
X26384712Y51624932D01*
X26158566Y51078967D01*
X26099750Y50990943D01*
X25925394Y50730000D01*
X25830252Y50587611D01*
X25412389Y50169748D01*
X24921033Y49841434D01*
X24375068Y49615288D01*
X24181870Y49576859D01*
X23795476Y49500000D01*
X23204524Y49500000D01*
X22818130Y49576859D01*
X22624932Y49615288D01*
X22078967Y49841434D01*
X21587611Y50169748D01*
X21169748Y50587611D01*
X21074607Y50730000D01*
X20900250Y50990943D01*
X20841434Y51078967D01*
X20615288Y51624932D01*
X20515802Y52125084D01*
X20500000Y52204524D01*
X20500000Y52795476D01*
X20615288Y53375067D01*
X20841433Y53921031D01*
X21169747Y54412388D01*
X21587612Y54830253D01*
X21831622Y54993295D01*
X22078967Y55158566D01*
X22624932Y55384712D01*
X22818130Y55423141D01*
X23204524Y55500000D01*
X23795476Y55500000D01*
X24181870Y55423141D01*
G37*
G36*
X82181870Y55423141D02*
G01*
X82375068Y55384712D01*
X82921033Y55158566D01*
X83168378Y54993295D01*
X83412388Y54830253D01*
X83830253Y54412388D01*
X84158567Y53921031D01*
X84384712Y53375067D01*
X84500000Y52795476D01*
X84500000Y52204524D01*
X84484198Y52125084D01*
X84384712Y51624932D01*
X84158566Y51078967D01*
X84099750Y50990943D01*
X83925394Y50730000D01*
X83830252Y50587611D01*
X83412389Y50169748D01*
X82921033Y49841434D01*
X82375068Y49615288D01*
X82181870Y49576859D01*
X81795476Y49500000D01*
X81204524Y49500000D01*
X80818130Y49576859D01*
X80624932Y49615288D01*
X80078967Y49841434D01*
X79587611Y50169748D01*
X79169748Y50587611D01*
X79074607Y50730000D01*
X78900250Y50990943D01*
X78841434Y51078967D01*
X78615288Y51624932D01*
X78515802Y52125084D01*
X78500000Y52204524D01*
X78500000Y52795476D01*
X78615288Y53375067D01*
X78841433Y53921031D01*
X79169747Y54412388D01*
X79587612Y54830253D01*
X79831622Y54993295D01*
X80078967Y55158566D01*
X80624932Y55384712D01*
X80818130Y55423141D01*
X81204524Y55500000D01*
X81795476Y55500000D01*
X82181870Y55423141D01*
G37*
G36*
X67365621Y50140942D02*
G01*
X66165621Y50140942D01*
X66165621Y51040942D01*
X67365621Y51040942D01*
X67365621Y50140942D01*
G37*
G36*
X65140621Y50190943D02*
G01*
X64390621Y50190943D01*
X64390621Y50990943D01*
X65140621Y50990943D01*
X65140621Y50190943D01*
G37*
G36*
X4247764Y53245598D02*
G01*
X4370445Y53221195D01*
X4601571Y53125459D01*
X4809578Y52986473D01*
X4986473Y52809578D01*
X5125459Y52601571D01*
X5191994Y52440943D01*
X5221195Y52370444D01*
X5270000Y52125085D01*
X5270000Y51874915D01*
X5221195Y51629556D01*
X5125460Y51398431D01*
X5020230Y51240942D01*
X4986473Y51190422D01*
X4809578Y51013527D01*
X4601571Y50874541D01*
X4370445Y50778805D01*
X4247765Y50754403D01*
X4125085Y50730000D01*
X3874915Y50730000D01*
X3752235Y50754403D01*
X3629555Y50778805D01*
X3398429Y50874541D01*
X3190422Y51013527D01*
X3013527Y51190422D01*
X2979771Y51240942D01*
X2874540Y51398431D01*
X2778805Y51629556D01*
X2730000Y51874915D01*
X2730000Y52125085D01*
X2778805Y52370444D01*
X2808007Y52440943D01*
X2874541Y52601571D01*
X3013527Y52809578D01*
X3190422Y52986473D01*
X3398429Y53125459D01*
X3629555Y53221195D01*
X3752236Y53245598D01*
X3874915Y53270000D01*
X4125085Y53270000D01*
X4247764Y53245598D01*
G37*
G36*
X73840621Y51240942D02*
G01*
X73090621Y51240942D01*
X73090621Y52040942D01*
X73840621Y52040942D01*
X73840621Y51240942D01*
G37*
G36*
X72095621Y51315942D02*
G01*
X71035621Y51315942D01*
X71035621Y51965942D01*
X72095621Y51965942D01*
X72095621Y51315942D01*
G37*
G36*
X69895621Y51315942D02*
G01*
X68835621Y51315942D01*
X68835621Y51965942D01*
X69895621Y51965942D01*
X69895621Y51315942D01*
G37*
G36*
X66115619Y52140942D02*
G01*
X65615619Y52140942D01*
X65615619Y52740942D01*
X66115619Y52740942D01*
X66115619Y52140942D01*
G37*
G36*
X69895621Y52265942D02*
G01*
X68835621Y52265942D01*
X68835621Y52915942D01*
X69895621Y52915942D01*
X69895621Y52265942D01*
G37*
G36*
X67765621Y52440942D02*
G01*
X67165621Y52440942D01*
X67165621Y52840942D01*
X67765621Y52840942D01*
X67765621Y52440942D01*
G37*
G36*
X64765621Y52440943D02*
G01*
X64165621Y52440943D01*
X64165621Y52840943D01*
X64765621Y52840943D01*
X64765621Y52440943D01*
G37*
G36*
X73840621Y52740942D02*
G01*
X73090621Y52740942D01*
X73090621Y53540942D01*
X73840621Y53540942D01*
X73840621Y52740942D01*
G37*
G36*
X72095621Y53215942D02*
G01*
X71035621Y53215942D01*
X71035621Y53865942D01*
X72095621Y53865942D01*
X72095621Y53215942D01*
G37*
G36*
X69895621Y53215942D02*
G01*
X68835621Y53215942D01*
X68835621Y53865942D01*
X69895621Y53865942D01*
X69895621Y53215942D01*
G37*
G36*
X66115619Y53240942D02*
G01*
X65615619Y53240942D01*
X65615619Y53840942D01*
X66115619Y53840942D01*
X66115619Y53240942D01*
G37*
G36*
X67765621Y53340942D02*
G01*
X67165621Y53340942D01*
X67165621Y53740942D01*
X67765621Y53740942D01*
X67765621Y53340942D01*
G37*
G36*
X64765621Y53340943D02*
G01*
X64165621Y53340943D01*
X64165621Y53740943D01*
X64765621Y53740943D01*
X64765621Y53340943D01*
G37*
M02*
