M48
; DRILL file {KiCad 5.1.6-c6e7f7d~87~ubuntu18.04.1} date Mon Jul 27 17:04:37 2020
; FORMAT={-:-/ absolute / metric / decimal}
; #@! TF.CreationDate,2020-07-27T17:04:37+02:00
; #@! TF.GenerationSoftware,Kicad,Pcbnew,5.1.6-c6e7f7d~87~ubuntu18.04.1
; #@! TF.FileFunction,Plated,1,2,PTH
FMAT,2
METRIC
T1C0.250
T2C0.800
T3C1.000
T4C1.100
T5C3.000
%
G90
G05
T1
X16.93Y36.19
X16.94Y19.8
X18.75Y32.25
X18.75Y31.25
X18.75Y30.25
X18.75Y27.75
X18.75Y26.848
X18.75Y21.75
X19.9Y37.7
X19.9Y18.3
X20.7Y31.75
X20.7Y30.75
X20.75Y28.25
X20.75Y27.25
X20.75Y20.75
X21.25Y23.0
X21.275Y33.525
X24.25Y25.25
X24.75Y36.0
X24.75Y34.5
X24.75Y21.5
X24.75Y20.0
X25.0Y28.75
X25.25Y23.0
X25.5Y33.0
X26.5Y37.75
X44.75Y6.5
X55.7Y40.9
X57.0Y41.7
X64.77Y48.39
X65.6Y41.0
X65.9Y21.9
X66.1Y22.9
X66.9Y41.7
X67.47Y52.14
X68.1Y24.9
X68.1Y20.9
X68.3Y23.9
X68.3Y19.9
X68.54Y52.59
X73.46Y53.84
T2
X70.825Y40.0
X73.365Y40.0
X60.825Y40.0
X63.365Y40.0
T3
X28.37Y4.77
X28.37Y2.23
X30.91Y4.77
X30.91Y2.23
X33.45Y4.77
X33.45Y2.23
X35.99Y4.77
X35.99Y2.23
X38.53Y4.77
X38.53Y2.23
X41.07Y4.77
X41.07Y2.23
X43.61Y4.77
X43.61Y2.23
X46.15Y4.77
X46.15Y2.23
X48.69Y4.77
X48.69Y2.23
X51.23Y4.77
X51.23Y2.23
X53.77Y4.77
X53.77Y2.23
X56.31Y4.77
X56.31Y2.23
X58.85Y4.77
X58.85Y2.23
X61.39Y4.77
X61.39Y2.23
X63.93Y4.77
X63.93Y2.23
X66.47Y4.77
X66.47Y2.23
X69.01Y4.77
X69.01Y2.23
X71.55Y4.77
X71.55Y2.23
X74.09Y4.77
X74.09Y2.23
X76.63Y4.77
X76.63Y2.23
T4
X61.15Y25.15
X61.55Y17.55
X67.1Y14.85
X72.65Y25.85
X72.65Y17.55
T5
X81.5Y52.5
X81.5Y3.5
X23.5Y3.5
X23.5Y52.5
T0
M30
