%FSLAX45Y45*%
G04 Gerber Fmt 4.5, Leading zero omitted, Abs format (unit mm)*
G04 Created by KiCad (PCBNEW 5.1.6-c6e7f7d~87~ubuntu18.04.1) date 2020-07-27 17:04:36*
%MOMM*%
%LPD*%
G01*
G04 APERTURE LIST*
%TA.AperFunction,Profile*%
%ADD10C,0.500000*%
%TD*%
%ADD11C,0.200000*%
%ADD12C,0.300000*%
G04 APERTURE END LIST*
D10*
X8200000Y0D02*
X300000Y0D01*
X8200000Y5600000D02*
X300000Y5600000D01*
X300000Y0D02*
G75*
G02*
X0Y300000I0J300000D01*
G01*
X0Y300000D02*
X0Y5300000D01*
X0Y5300000D02*
G75*
G02*
X300000Y5600000I300000J0D01*
G01*
X8200000Y5600000D02*
G75*
G02*
X8500000Y5300000I0J-300000D01*
G01*
X8500000Y300000D02*
G75*
G02*
X8200000Y0I-300000J0D01*
G01*
X8500000Y5300000D02*
X8500000Y300000D01*
D11*
X5990000Y2295000D02*
X6240000Y2045000D01*
X6240000Y2295000D02*
X5990000Y2045000D01*
X7180000Y2295000D02*
X7430000Y2045000D01*
X7430000Y2295000D02*
X7180000Y2045000D01*
X1235000Y2800000D02*
G75*
G03*
X1235000Y2800000I-150000J0D01*
G01*
X1225000Y1400000D02*
X1225000Y4200000D01*
X945000Y1400000D02*
X945000Y4200000D01*
X1225000Y4200000D02*
G75*
G03*
X945000Y4200000I-140000J0D01*
G01*
X945000Y1400000D02*
G75*
G03*
X1225000Y1400000I140000J0D01*
G01*
D12*
X261428Y-490714D02*
X261428Y-190714D01*
X332857Y-190714D01*
X375714Y-205000D01*
X404285Y-233571D01*
X418571Y-262143D01*
X432857Y-319286D01*
X432857Y-362143D01*
X418571Y-419286D01*
X404285Y-447857D01*
X375714Y-476429D01*
X332857Y-490714D01*
X261428Y-490714D01*
X561428Y-490714D02*
X561428Y-290714D01*
X561428Y-347857D02*
X575714Y-319286D01*
X590000Y-305000D01*
X618571Y-290714D01*
X647143Y-290714D01*
X747143Y-490714D02*
X747143Y-290714D01*
X747143Y-190714D02*
X732857Y-205000D01*
X747143Y-219286D01*
X761428Y-205000D01*
X747143Y-190714D01*
X747143Y-219286D01*
X932857Y-490714D02*
X904285Y-476429D01*
X890000Y-447857D01*
X890000Y-190714D01*
X1090000Y-490714D02*
X1061428Y-476429D01*
X1047143Y-447857D01*
X1047143Y-190714D01*
X1432857Y-490714D02*
X1432857Y-190714D01*
X1532857Y-405000D01*
X1632857Y-190714D01*
X1632857Y-490714D01*
X1904285Y-490714D02*
X1904285Y-333572D01*
X1890000Y-305000D01*
X1861428Y-290714D01*
X1804285Y-290714D01*
X1775714Y-305000D01*
X1904285Y-476429D02*
X1875714Y-490714D01*
X1804285Y-490714D01*
X1775714Y-476429D01*
X1761428Y-447857D01*
X1761428Y-419286D01*
X1775714Y-390714D01*
X1804285Y-376429D01*
X1875714Y-376429D01*
X1904285Y-362143D01*
X2047143Y-290714D02*
X2047143Y-590714D01*
X2047143Y-305000D02*
X2075714Y-290714D01*
X2132857Y-290714D01*
X2161428Y-305000D01*
X2175714Y-319286D01*
X2190000Y-347857D01*
X2190000Y-433571D01*
X2175714Y-462143D01*
X2161428Y-476429D01*
X2132857Y-490714D01*
X2075714Y-490714D01*
X2047143Y-476429D01*
X2318571Y-462143D02*
X2332857Y-476429D01*
X2318571Y-490714D01*
X2304286Y-476429D01*
X2318571Y-462143D01*
X2318571Y-490714D01*
X2318571Y-305000D02*
X2332857Y-319286D01*
X2318571Y-333572D01*
X2304286Y-319286D01*
X2318571Y-305000D01*
X2318571Y-333572D01*
X-275000Y-860000D02*
X-25000Y-1110000D01*
X-25000Y-860000D02*
X-275000Y-1110000D01*
X247143Y-849286D02*
X261428Y-835000D01*
X290000Y-820714D01*
X361428Y-820714D01*
X390000Y-835000D01*
X404285Y-849286D01*
X418571Y-877857D01*
X418571Y-906429D01*
X404285Y-949286D01*
X232857Y-1120714D01*
X418571Y-1120714D01*
X547143Y-1092143D02*
X561428Y-1106429D01*
X547143Y-1120714D01*
X532857Y-1106429D01*
X547143Y-1092143D01*
X547143Y-1120714D01*
X832857Y-820714D02*
X690000Y-820714D01*
X675714Y-963571D01*
X690000Y-949286D01*
X718571Y-935000D01*
X790000Y-935000D01*
X818571Y-949286D01*
X832857Y-963571D01*
X847143Y-992143D01*
X847143Y-1063572D01*
X832857Y-1092143D01*
X818571Y-1106429D01*
X790000Y-1120714D01*
X718571Y-1120714D01*
X690000Y-1106429D01*
X675714Y-1092143D01*
X1032857Y-820714D02*
X1061428Y-820714D01*
X1090000Y-835000D01*
X1104286Y-849286D01*
X1118571Y-877857D01*
X1132857Y-935000D01*
X1132857Y-1006429D01*
X1118571Y-1063572D01*
X1104286Y-1092143D01*
X1090000Y-1106429D01*
X1061428Y-1120714D01*
X1032857Y-1120714D01*
X1004285Y-1106429D01*
X990000Y-1092143D01*
X975714Y-1063572D01*
X961428Y-1006429D01*
X961428Y-935000D01*
X975714Y-877857D01*
X990000Y-849286D01*
X1004285Y-835000D01*
X1032857Y-820714D01*
X1261428Y-1120714D02*
X1261428Y-920714D01*
X1261428Y-949286D02*
X1275714Y-935000D01*
X1304286Y-920714D01*
X1347143Y-920714D01*
X1375714Y-935000D01*
X1390000Y-963571D01*
X1390000Y-1120714D01*
X1390000Y-963571D02*
X1404285Y-935000D01*
X1432857Y-920714D01*
X1475714Y-920714D01*
X1504285Y-935000D01*
X1518571Y-963571D01*
X1518571Y-1120714D01*
X1661428Y-1120714D02*
X1661428Y-920714D01*
X1661428Y-949286D02*
X1675714Y-935000D01*
X1704285Y-920714D01*
X1747143Y-920714D01*
X1775714Y-935000D01*
X1790000Y-963571D01*
X1790000Y-1120714D01*
X1790000Y-963571D02*
X1804285Y-935000D01*
X1832857Y-920714D01*
X1875714Y-920714D01*
X1904285Y-935000D01*
X1918571Y-963571D01*
X1918571Y-1120714D01*
X2504286Y-806429D02*
X2247143Y-1192143D01*
X2890000Y-820714D02*
X2918571Y-820714D01*
X2947143Y-835000D01*
X2961428Y-849286D01*
X2975714Y-877857D01*
X2990000Y-935000D01*
X2990000Y-1006429D01*
X2975714Y-1063572D01*
X2961428Y-1092143D01*
X2947143Y-1106429D01*
X2918571Y-1120714D01*
X2890000Y-1120714D01*
X2861428Y-1106429D01*
X2847143Y-1092143D01*
X2832857Y-1063572D01*
X2818571Y-1006429D01*
X2818571Y-935000D01*
X2832857Y-877857D01*
X2847143Y-849286D01*
X2861428Y-835000D01*
X2890000Y-820714D01*
X3118571Y-1092143D02*
X3132857Y-1106429D01*
X3118571Y-1120714D01*
X3104285Y-1106429D01*
X3118571Y-1092143D01*
X3118571Y-1120714D01*
X3318571Y-820714D02*
X3347143Y-820714D01*
X3375714Y-835000D01*
X3390000Y-849286D01*
X3404285Y-877857D01*
X3418571Y-935000D01*
X3418571Y-1006429D01*
X3404285Y-1063572D01*
X3390000Y-1092143D01*
X3375714Y-1106429D01*
X3347143Y-1120714D01*
X3318571Y-1120714D01*
X3290000Y-1106429D01*
X3275714Y-1092143D01*
X3261428Y-1063572D01*
X3247143Y-1006429D01*
X3247143Y-935000D01*
X3261428Y-877857D01*
X3275714Y-849286D01*
X3290000Y-835000D01*
X3318571Y-820714D01*
X3561428Y-1120714D02*
X3618571Y-1120714D01*
X3647143Y-1106429D01*
X3661428Y-1092143D01*
X3690000Y-1049286D01*
X3704285Y-992143D01*
X3704285Y-877857D01*
X3690000Y-849286D01*
X3675714Y-835000D01*
X3647143Y-820714D01*
X3590000Y-820714D01*
X3561428Y-835000D01*
X3547143Y-849286D01*
X3532857Y-877857D01*
X3532857Y-949286D01*
X3547143Y-977857D01*
X3561428Y-992143D01*
X3590000Y-1006429D01*
X3647143Y-1006429D01*
X3675714Y-992143D01*
X3690000Y-977857D01*
X3704285Y-949286D01*
X3875714Y-949286D02*
X3847143Y-935000D01*
X3832857Y-920714D01*
X3818571Y-892143D01*
X3818571Y-877857D01*
X3832857Y-849286D01*
X3847143Y-835000D01*
X3875714Y-820714D01*
X3932857Y-820714D01*
X3961428Y-835000D01*
X3975714Y-849286D01*
X3990000Y-877857D01*
X3990000Y-892143D01*
X3975714Y-920714D01*
X3961428Y-935000D01*
X3932857Y-949286D01*
X3875714Y-949286D01*
X3847143Y-963571D01*
X3832857Y-977857D01*
X3818571Y-1006429D01*
X3818571Y-1063572D01*
X3832857Y-1092143D01*
X3847143Y-1106429D01*
X3875714Y-1120714D01*
X3932857Y-1120714D01*
X3961428Y-1106429D01*
X3975714Y-1092143D01*
X3990000Y-1063572D01*
X3990000Y-1006429D01*
X3975714Y-977857D01*
X3961428Y-963571D01*
X3932857Y-949286D01*
X4104285Y-820714D02*
X4104285Y-877857D01*
X4218571Y-820714D02*
X4218571Y-877857D01*
X4661428Y-1235000D02*
X4647143Y-1220714D01*
X4618571Y-1177857D01*
X4604286Y-1149286D01*
X4590000Y-1106429D01*
X4575714Y-1035000D01*
X4575714Y-977857D01*
X4590000Y-906429D01*
X4604286Y-863571D01*
X4618571Y-835000D01*
X4647143Y-792143D01*
X4661428Y-777857D01*
X4761428Y-849286D02*
X4775714Y-835000D01*
X4804286Y-820714D01*
X4875714Y-820714D01*
X4904286Y-835000D01*
X4918571Y-849286D01*
X4932857Y-877857D01*
X4932857Y-906429D01*
X4918571Y-949286D01*
X4747143Y-1120714D01*
X4932857Y-1120714D01*
X5290000Y-1120714D02*
X5290000Y-820714D01*
X5418571Y-1120714D02*
X5418571Y-963571D01*
X5404286Y-935000D01*
X5375714Y-920714D01*
X5332857Y-920714D01*
X5304286Y-935000D01*
X5290000Y-949286D01*
X5604285Y-1120714D02*
X5575714Y-1106429D01*
X5561428Y-1092143D01*
X5547143Y-1063572D01*
X5547143Y-977857D01*
X5561428Y-949286D01*
X5575714Y-935000D01*
X5604285Y-920714D01*
X5647143Y-920714D01*
X5675714Y-935000D01*
X5690000Y-949286D01*
X5704285Y-977857D01*
X5704285Y-1063572D01*
X5690000Y-1092143D01*
X5675714Y-1106429D01*
X5647143Y-1120714D01*
X5604285Y-1120714D01*
X5875714Y-1120714D02*
X5847143Y-1106429D01*
X5832857Y-1077857D01*
X5832857Y-820714D01*
X6104285Y-1106429D02*
X6075714Y-1120714D01*
X6018571Y-1120714D01*
X5990000Y-1106429D01*
X5975714Y-1077857D01*
X5975714Y-963571D01*
X5990000Y-935000D01*
X6018571Y-920714D01*
X6075714Y-920714D01*
X6104285Y-935000D01*
X6118571Y-963571D01*
X6118571Y-992143D01*
X5975714Y-1020714D01*
X6232857Y-1106429D02*
X6261428Y-1120714D01*
X6318571Y-1120714D01*
X6347143Y-1106429D01*
X6361428Y-1077857D01*
X6361428Y-1063572D01*
X6347143Y-1035000D01*
X6318571Y-1020714D01*
X6275714Y-1020714D01*
X6247143Y-1006429D01*
X6232857Y-977857D01*
X6232857Y-963571D01*
X6247143Y-935000D01*
X6275714Y-920714D01*
X6318571Y-920714D01*
X6347143Y-935000D01*
X6461428Y-1235000D02*
X6475714Y-1220714D01*
X6504285Y-1177857D01*
X6518571Y-1149286D01*
X6532857Y-1106429D01*
X6547143Y-1035000D01*
X6547143Y-977857D01*
X6532857Y-906429D01*
X6518571Y-863571D01*
X6504285Y-835000D01*
X6475714Y-792143D01*
X6461428Y-777857D01*
X7004285Y-1235000D02*
X6990000Y-1220714D01*
X6961428Y-1177857D01*
X6947143Y-1149286D01*
X6932857Y-1106429D01*
X6918571Y-1035000D01*
X6918571Y-977857D01*
X6932857Y-906429D01*
X6947143Y-863571D01*
X6961428Y-835000D01*
X6990000Y-792143D01*
X7004285Y-777857D01*
X7118571Y-920714D02*
X7118571Y-1120714D01*
X7118571Y-949286D02*
X7132857Y-935000D01*
X7161428Y-920714D01*
X7204285Y-920714D01*
X7232857Y-935000D01*
X7247143Y-963571D01*
X7247143Y-1120714D01*
X7432857Y-1120714D02*
X7404285Y-1106429D01*
X7390000Y-1092143D01*
X7375714Y-1063572D01*
X7375714Y-977857D01*
X7390000Y-949286D01*
X7404285Y-935000D01*
X7432857Y-920714D01*
X7475714Y-920714D01*
X7504285Y-935000D01*
X7518571Y-949286D01*
X7532857Y-977857D01*
X7532857Y-1063572D01*
X7518571Y-1092143D01*
X7504285Y-1106429D01*
X7475714Y-1120714D01*
X7432857Y-1120714D01*
X7618571Y-920714D02*
X7732857Y-920714D01*
X7661428Y-820714D02*
X7661428Y-1077857D01*
X7675714Y-1106429D01*
X7704285Y-1120714D01*
X7732857Y-1120714D01*
X8061428Y-920714D02*
X8061428Y-1220714D01*
X8061428Y-935000D02*
X8090000Y-920714D01*
X8147143Y-920714D01*
X8175714Y-935000D01*
X8190000Y-949286D01*
X8204285Y-977857D01*
X8204285Y-1063572D01*
X8190000Y-1092143D01*
X8175714Y-1106429D01*
X8147143Y-1120714D01*
X8090000Y-1120714D01*
X8061428Y-1106429D01*
X8375714Y-1120714D02*
X8347143Y-1106429D01*
X8332857Y-1077857D01*
X8332857Y-820714D01*
X8618571Y-1120714D02*
X8618571Y-963571D01*
X8604286Y-935000D01*
X8575714Y-920714D01*
X8518571Y-920714D01*
X8490000Y-935000D01*
X8618571Y-1106429D02*
X8590000Y-1120714D01*
X8518571Y-1120714D01*
X8490000Y-1106429D01*
X8475714Y-1077857D01*
X8475714Y-1049286D01*
X8490000Y-1020714D01*
X8518571Y-1006429D01*
X8590000Y-1006429D01*
X8618571Y-992143D01*
X8718571Y-920714D02*
X8832857Y-920714D01*
X8761428Y-820714D02*
X8761428Y-1077857D01*
X8775714Y-1106429D01*
X8804286Y-1120714D01*
X8832857Y-1120714D01*
X9047143Y-1106429D02*
X9018571Y-1120714D01*
X8961428Y-1120714D01*
X8932857Y-1106429D01*
X8918571Y-1077857D01*
X8918571Y-963571D01*
X8932857Y-935000D01*
X8961428Y-920714D01*
X9018571Y-920714D01*
X9047143Y-935000D01*
X9061428Y-963571D01*
X9061428Y-992143D01*
X8918571Y-1020714D01*
X9318571Y-1120714D02*
X9318571Y-820714D01*
X9318571Y-1106429D02*
X9290000Y-1120714D01*
X9232857Y-1120714D01*
X9204286Y-1106429D01*
X9190000Y-1092143D01*
X9175714Y-1063572D01*
X9175714Y-977857D01*
X9190000Y-949286D01*
X9204286Y-935000D01*
X9232857Y-920714D01*
X9290000Y-920714D01*
X9318571Y-935000D01*
X9432857Y-1235000D02*
X9447143Y-1220714D01*
X9475714Y-1177857D01*
X9490000Y-1149286D01*
X9504286Y-1106429D01*
X9518571Y-1035000D01*
X9518571Y-977857D01*
X9504286Y-906429D01*
X9490000Y-863571D01*
X9475714Y-835000D01*
X9447143Y-792143D01*
X9432857Y-777857D01*
X-25000Y-1381000D02*
G75*
G03*
X-25000Y-1381000I-150000J0D01*
G01*
X232857Y-1216714D02*
X418571Y-1216714D01*
X318571Y-1331000D01*
X361428Y-1331000D01*
X390000Y-1345286D01*
X404285Y-1359572D01*
X418571Y-1388143D01*
X418571Y-1459571D01*
X404285Y-1488143D01*
X390000Y-1502429D01*
X361428Y-1516714D01*
X275714Y-1516714D01*
X247143Y-1502429D01*
X232857Y-1488143D01*
X547143Y-1488143D02*
X561428Y-1502429D01*
X547143Y-1516714D01*
X532857Y-1502429D01*
X547143Y-1488143D01*
X547143Y-1516714D01*
X747143Y-1216714D02*
X775714Y-1216714D01*
X804285Y-1231000D01*
X818571Y-1245286D01*
X832857Y-1273857D01*
X847143Y-1331000D01*
X847143Y-1402429D01*
X832857Y-1459571D01*
X818571Y-1488143D01*
X804285Y-1502429D01*
X775714Y-1516714D01*
X747143Y-1516714D01*
X718571Y-1502429D01*
X704285Y-1488143D01*
X690000Y-1459571D01*
X675714Y-1402429D01*
X675714Y-1331000D01*
X690000Y-1273857D01*
X704285Y-1245286D01*
X718571Y-1231000D01*
X747143Y-1216714D01*
X1032857Y-1216714D02*
X1061428Y-1216714D01*
X1090000Y-1231000D01*
X1104286Y-1245286D01*
X1118571Y-1273857D01*
X1132857Y-1331000D01*
X1132857Y-1402429D01*
X1118571Y-1459571D01*
X1104286Y-1488143D01*
X1090000Y-1502429D01*
X1061428Y-1516714D01*
X1032857Y-1516714D01*
X1004285Y-1502429D01*
X990000Y-1488143D01*
X975714Y-1459571D01*
X961428Y-1402429D01*
X961428Y-1331000D01*
X975714Y-1273857D01*
X990000Y-1245286D01*
X1004285Y-1231000D01*
X1032857Y-1216714D01*
X1261428Y-1516714D02*
X1261428Y-1316714D01*
X1261428Y-1345286D02*
X1275714Y-1331000D01*
X1304286Y-1316714D01*
X1347143Y-1316714D01*
X1375714Y-1331000D01*
X1390000Y-1359572D01*
X1390000Y-1516714D01*
X1390000Y-1359572D02*
X1404285Y-1331000D01*
X1432857Y-1316714D01*
X1475714Y-1316714D01*
X1504285Y-1331000D01*
X1518571Y-1359572D01*
X1518571Y-1516714D01*
X1661428Y-1516714D02*
X1661428Y-1316714D01*
X1661428Y-1345286D02*
X1675714Y-1331000D01*
X1704285Y-1316714D01*
X1747143Y-1316714D01*
X1775714Y-1331000D01*
X1790000Y-1359572D01*
X1790000Y-1516714D01*
X1790000Y-1359572D02*
X1804285Y-1331000D01*
X1832857Y-1316714D01*
X1875714Y-1316714D01*
X1904285Y-1331000D01*
X1918571Y-1359572D01*
X1918571Y-1516714D01*
X2504286Y-1202429D02*
X2247143Y-1588143D01*
X2890000Y-1216714D02*
X2918571Y-1216714D01*
X2947143Y-1231000D01*
X2961428Y-1245286D01*
X2975714Y-1273857D01*
X2990000Y-1331000D01*
X2990000Y-1402429D01*
X2975714Y-1459571D01*
X2961428Y-1488143D01*
X2947143Y-1502429D01*
X2918571Y-1516714D01*
X2890000Y-1516714D01*
X2861428Y-1502429D01*
X2847143Y-1488143D01*
X2832857Y-1459571D01*
X2818571Y-1402429D01*
X2818571Y-1331000D01*
X2832857Y-1273857D01*
X2847143Y-1245286D01*
X2861428Y-1231000D01*
X2890000Y-1216714D01*
X3118571Y-1488143D02*
X3132857Y-1502429D01*
X3118571Y-1516714D01*
X3104285Y-1502429D01*
X3118571Y-1488143D01*
X3118571Y-1516714D01*
X3418571Y-1516714D02*
X3247143Y-1516714D01*
X3332857Y-1516714D02*
X3332857Y-1216714D01*
X3304285Y-1259572D01*
X3275714Y-1288143D01*
X3247143Y-1302429D01*
X3704285Y-1516714D02*
X3532857Y-1516714D01*
X3618571Y-1516714D02*
X3618571Y-1216714D01*
X3590000Y-1259572D01*
X3561428Y-1288143D01*
X3532857Y-1302429D01*
X3875714Y-1345286D02*
X3847143Y-1331000D01*
X3832857Y-1316714D01*
X3818571Y-1288143D01*
X3818571Y-1273857D01*
X3832857Y-1245286D01*
X3847143Y-1231000D01*
X3875714Y-1216714D01*
X3932857Y-1216714D01*
X3961428Y-1231000D01*
X3975714Y-1245286D01*
X3990000Y-1273857D01*
X3990000Y-1288143D01*
X3975714Y-1316714D01*
X3961428Y-1331000D01*
X3932857Y-1345286D01*
X3875714Y-1345286D01*
X3847143Y-1359572D01*
X3832857Y-1373857D01*
X3818571Y-1402429D01*
X3818571Y-1459571D01*
X3832857Y-1488143D01*
X3847143Y-1502429D01*
X3875714Y-1516714D01*
X3932857Y-1516714D01*
X3961428Y-1502429D01*
X3975714Y-1488143D01*
X3990000Y-1459571D01*
X3990000Y-1402429D01*
X3975714Y-1373857D01*
X3961428Y-1359572D01*
X3932857Y-1345286D01*
X4104285Y-1216714D02*
X4104285Y-1273857D01*
X4218571Y-1216714D02*
X4218571Y-1273857D01*
X4661428Y-1631000D02*
X4647143Y-1616714D01*
X4618571Y-1573857D01*
X4604286Y-1545286D01*
X4590000Y-1502429D01*
X4575714Y-1431000D01*
X4575714Y-1373857D01*
X4590000Y-1302429D01*
X4604286Y-1259572D01*
X4618571Y-1231000D01*
X4647143Y-1188143D01*
X4661428Y-1173857D01*
X4932857Y-1516714D02*
X4761428Y-1516714D01*
X4847143Y-1516714D02*
X4847143Y-1216714D01*
X4818571Y-1259572D01*
X4790000Y-1288143D01*
X4761428Y-1302429D01*
X5275714Y-1502429D02*
X5304286Y-1516714D01*
X5361428Y-1516714D01*
X5390000Y-1502429D01*
X5404286Y-1473857D01*
X5404286Y-1459571D01*
X5390000Y-1431000D01*
X5361428Y-1416714D01*
X5318571Y-1416714D01*
X5290000Y-1402429D01*
X5275714Y-1373857D01*
X5275714Y-1359572D01*
X5290000Y-1331000D01*
X5318571Y-1316714D01*
X5361428Y-1316714D01*
X5390000Y-1331000D01*
X5575714Y-1516714D02*
X5547143Y-1502429D01*
X5532857Y-1473857D01*
X5532857Y-1216714D01*
X5732857Y-1516714D02*
X5704285Y-1502429D01*
X5690000Y-1488143D01*
X5675714Y-1459571D01*
X5675714Y-1373857D01*
X5690000Y-1345286D01*
X5704285Y-1331000D01*
X5732857Y-1316714D01*
X5775714Y-1316714D01*
X5804285Y-1331000D01*
X5818571Y-1345286D01*
X5832857Y-1373857D01*
X5832857Y-1459571D01*
X5818571Y-1488143D01*
X5804285Y-1502429D01*
X5775714Y-1516714D01*
X5732857Y-1516714D01*
X5918571Y-1316714D02*
X6032857Y-1316714D01*
X5961428Y-1216714D02*
X5961428Y-1473857D01*
X5975714Y-1502429D01*
X6004285Y-1516714D01*
X6032857Y-1516714D01*
X6104285Y-1631000D02*
X6118571Y-1616714D01*
X6147143Y-1573857D01*
X6161428Y-1545286D01*
X6175714Y-1502429D01*
X6190000Y-1431000D01*
X6190000Y-1373857D01*
X6175714Y-1302429D01*
X6161428Y-1259572D01*
X6147143Y-1231000D01*
X6118571Y-1188143D01*
X6104285Y-1173857D01*
X6647143Y-1631000D02*
X6632857Y-1616714D01*
X6604285Y-1573857D01*
X6590000Y-1545286D01*
X6575714Y-1502429D01*
X6561428Y-1431000D01*
X6561428Y-1373857D01*
X6575714Y-1302429D01*
X6590000Y-1259572D01*
X6604285Y-1231000D01*
X6632857Y-1188143D01*
X6647143Y-1173857D01*
X6761428Y-1316714D02*
X6761428Y-1516714D01*
X6761428Y-1345286D02*
X6775714Y-1331000D01*
X6804285Y-1316714D01*
X6847143Y-1316714D01*
X6875714Y-1331000D01*
X6890000Y-1359572D01*
X6890000Y-1516714D01*
X7075714Y-1516714D02*
X7047143Y-1502429D01*
X7032857Y-1488143D01*
X7018571Y-1459571D01*
X7018571Y-1373857D01*
X7032857Y-1345286D01*
X7047143Y-1331000D01*
X7075714Y-1316714D01*
X7118571Y-1316714D01*
X7147143Y-1331000D01*
X7161428Y-1345286D01*
X7175714Y-1373857D01*
X7175714Y-1459571D01*
X7161428Y-1488143D01*
X7147143Y-1502429D01*
X7118571Y-1516714D01*
X7075714Y-1516714D01*
X7261428Y-1316714D02*
X7375714Y-1316714D01*
X7304285Y-1216714D02*
X7304285Y-1473857D01*
X7318571Y-1502429D01*
X7347143Y-1516714D01*
X7375714Y-1516714D01*
X7704285Y-1316714D02*
X7704285Y-1616714D01*
X7704285Y-1331000D02*
X7732857Y-1316714D01*
X7790000Y-1316714D01*
X7818571Y-1331000D01*
X7832857Y-1345286D01*
X7847143Y-1373857D01*
X7847143Y-1459571D01*
X7832857Y-1488143D01*
X7818571Y-1502429D01*
X7790000Y-1516714D01*
X7732857Y-1516714D01*
X7704285Y-1502429D01*
X8018571Y-1516714D02*
X7990000Y-1502429D01*
X7975714Y-1473857D01*
X7975714Y-1216714D01*
X8261428Y-1516714D02*
X8261428Y-1359572D01*
X8247143Y-1331000D01*
X8218571Y-1316714D01*
X8161428Y-1316714D01*
X8132857Y-1331000D01*
X8261428Y-1502429D02*
X8232857Y-1516714D01*
X8161428Y-1516714D01*
X8132857Y-1502429D01*
X8118571Y-1473857D01*
X8118571Y-1445286D01*
X8132857Y-1416714D01*
X8161428Y-1402429D01*
X8232857Y-1402429D01*
X8261428Y-1388143D01*
X8361428Y-1316714D02*
X8475714Y-1316714D01*
X8404286Y-1216714D02*
X8404286Y-1473857D01*
X8418571Y-1502429D01*
X8447143Y-1516714D01*
X8475714Y-1516714D01*
X8690000Y-1502429D02*
X8661428Y-1516714D01*
X8604286Y-1516714D01*
X8575714Y-1502429D01*
X8561428Y-1473857D01*
X8561428Y-1359572D01*
X8575714Y-1331000D01*
X8604286Y-1316714D01*
X8661428Y-1316714D01*
X8690000Y-1331000D01*
X8704286Y-1359572D01*
X8704286Y-1388143D01*
X8561428Y-1416714D01*
X8961428Y-1516714D02*
X8961428Y-1216714D01*
X8961428Y-1502429D02*
X8932857Y-1516714D01*
X8875714Y-1516714D01*
X8847143Y-1502429D01*
X8832857Y-1488143D01*
X8818571Y-1459571D01*
X8818571Y-1373857D01*
X8832857Y-1345286D01*
X8847143Y-1331000D01*
X8875714Y-1316714D01*
X8932857Y-1316714D01*
X8961428Y-1331000D01*
X9075714Y-1631000D02*
X9090000Y-1616714D01*
X9118571Y-1573857D01*
X9132857Y-1545286D01*
X9147143Y-1502429D01*
X9161428Y-1431000D01*
X9161428Y-1373857D01*
X9147143Y-1302429D01*
X9132857Y-1259572D01*
X9118571Y-1231000D01*
X9090000Y-1188143D01*
X9075714Y-1173857D01*
M02*
