G04 #@! TF.GenerationSoftware,KiCad,Pcbnew,5.1.6-c6e7f7d~87~ubuntu18.04.1*
G04 #@! TF.CreationDate,2020-07-27T17:04:26+02:00*
G04 #@! TF.ProjectId,DG3-MTR_GUI-PI,4447332d-4d54-4525-9f47-55492d50492e,rev?*
G04 #@! TF.SameCoordinates,PX78a3ca0PY77afa60*
G04 #@! TF.FileFunction,Paste,Bot*
G04 #@! TF.FilePolarity,Positive*
%FSLAX46Y46*%
G04 Gerber Fmt 4.6, Leading zero omitted, Abs format (unit mm)*
G04 Created by KiCad (PCBNEW 5.1.6-c6e7f7d~87~ubuntu18.04.1) date 2020-07-27 17:04:26*
%MOMM*%
%LPD*%
G01*
G04 APERTURE LIST*
G04 #@! TA.AperFunction,Profile*
%ADD10C,0.500000*%
G04 #@! TD*
%ADD11R,1.250000X0.300000*%
%ADD12R,2.200000X2.400000*%
%ADD13R,0.850000X1.300000*%
%ADD14R,1.600000X0.800000*%
%ADD15R,1.000000X1.250000*%
%ADD16R,0.600000X0.400000*%
%ADD17R,0.400000X0.600000*%
%ADD18R,0.580000X0.775000*%
%ADD19R,0.310000X3.890000*%
%ADD20C,0.050000*%
%ADD21R,0.750000X0.800000*%
%ADD22R,0.800000X0.750000*%
%ADD23R,0.600000X0.700000*%
%ADD24R,0.900000X0.800000*%
%ADD25R,0.600000X0.500000*%
%ADD26R,1.060000X0.650000*%
%ADD27R,1.000000X1.600000*%
%ADD28R,0.500000X0.600000*%
%ADD29R,1.200000X0.900000*%
G04 APERTURE END LIST*
D10*
X82000000Y0D02*
X3000000Y0D01*
X82000000Y56000000D02*
X3000000Y56000001D01*
X3000000Y0D02*
G75*
G02*
X0Y3000000I0J3000000D01*
G01*
X0Y3000000D02*
X0Y53000000D01*
X-1Y53000000D02*
G75*
G02*
X3000000Y56000001I3000001J0D01*
G01*
X82000000Y56000000D02*
G75*
G02*
X85000000Y53000000I0J-3000000D01*
G01*
X85000000Y3000000D02*
G75*
G02*
X82000000Y0I-3000000J0D01*
G01*
X85000000Y53000000D02*
X85000000Y3000000D01*
D11*
X19737038Y35248416D03*
X19737038Y34748416D03*
X19737038Y34248416D03*
X19737038Y33748416D03*
X19737038Y33248416D03*
X19737038Y32748416D03*
X19737038Y32248416D03*
X19737038Y31748416D03*
X19737038Y31248416D03*
X19737038Y30748416D03*
X19737038Y30248416D03*
X19737038Y29748416D03*
X19737038Y29248416D03*
X19737038Y28748416D03*
X19737038Y28248416D03*
X19737038Y27748416D03*
X19737038Y27248416D03*
X19737038Y26748416D03*
X19737038Y26248416D03*
X19737038Y25748416D03*
X19737038Y25248416D03*
X19737038Y24748416D03*
X19737038Y24248416D03*
X19737038Y23748416D03*
X19737038Y23248416D03*
X19737038Y22748416D03*
X19737038Y22248416D03*
X19737038Y21748416D03*
X19737038Y21248416D03*
X19737038Y20748416D03*
D12*
X18462962Y18301584D03*
X18462962Y37701584D03*
D13*
X16932962Y18851584D03*
X16932962Y37151584D03*
D14*
X18512962Y19901584D03*
X18512962Y36101584D03*
D15*
X22250000Y23000000D03*
X24250000Y23000000D03*
D16*
X64465621Y53540943D03*
X64465621Y52640943D03*
D17*
X64250000Y42800000D03*
X63350000Y42800000D03*
D18*
X71455621Y49497942D03*
D19*
X68930621Y47940942D03*
X71900621Y47940942D03*
D20*
G36*
X68775621Y49885942D02*
G01*
X68775621Y45995942D01*
X68215621Y46545942D01*
X68215621Y49335942D01*
X68775621Y49885942D01*
G37*
G36*
X72055621Y45995942D02*
G01*
X72055621Y49885942D01*
X72615621Y49335942D01*
X72615621Y46545942D01*
X72055621Y45995942D01*
G37*
D18*
X71455621Y46383942D03*
X69375621Y46383942D03*
X69375621Y49498942D03*
D20*
G36*
X69085621Y48516442D02*
G01*
X69085621Y49705442D01*
X69665621Y49111442D01*
X69665621Y49110442D01*
X69085621Y48516442D01*
G37*
G36*
X69085621Y46176442D02*
G01*
X69085621Y47365442D01*
X69665621Y46771442D01*
X69665621Y46770442D01*
X69085621Y46176442D01*
G37*
G36*
X71745621Y49705442D02*
G01*
X71745621Y48516442D01*
X71165621Y49110442D01*
X71165621Y49111442D01*
X71745621Y49705442D01*
G37*
G36*
X71745621Y47365442D02*
G01*
X71745621Y46176442D01*
X71165621Y46770442D01*
X71165621Y46771442D01*
X71745621Y47365442D01*
G37*
D21*
X73465621Y51640942D03*
X73465621Y53140942D03*
D22*
X24000000Y21500000D03*
X22500000Y21500000D03*
X24000000Y20000000D03*
X22500000Y20000000D03*
D23*
X22800000Y28750000D03*
X24200000Y28750000D03*
D22*
X22500000Y34500000D03*
X24000000Y34500000D03*
D24*
X57000000Y39050000D03*
X57000000Y40950000D03*
X59000000Y40000000D03*
D17*
X23450000Y31500000D03*
X22550000Y31500000D03*
D25*
X66550000Y19900000D03*
X67650000Y19900000D03*
D26*
X69365621Y51640942D03*
X69365621Y52590942D03*
X69365621Y53540942D03*
X71565621Y53540942D03*
X71565621Y51640942D03*
D27*
X25500000Y37750000D03*
X22500000Y37750000D03*
D21*
X64765621Y50590943D03*
X64765621Y49090943D03*
D17*
X66650000Y22900000D03*
X67550000Y22900000D03*
D16*
X55700000Y39450000D03*
X55700000Y40350000D03*
X67465621Y53540942D03*
X67465621Y52640942D03*
D17*
X67550000Y24900000D03*
X66650000Y24900000D03*
D22*
X22500000Y36000000D03*
X24000000Y36000000D03*
D25*
X66550000Y21900000D03*
X67650000Y21900000D03*
D23*
X22800000Y30250000D03*
X24200000Y30250000D03*
D15*
X24500000Y33000000D03*
X22500000Y33000000D03*
D28*
X65865619Y52440942D03*
X65865619Y53540942D03*
D17*
X67550000Y20900000D03*
X66650000Y20900000D03*
X23700000Y25250000D03*
X22800000Y25250000D03*
D29*
X66765621Y50590942D03*
X66765621Y47290942D03*
D25*
X67650000Y23900000D03*
X66550000Y23900000D03*
D24*
X66900000Y39050000D03*
X66900000Y40950000D03*
X68900000Y40000000D03*
D16*
X65600000Y40450000D03*
X65600000Y39550000D03*
D17*
X72450000Y42800000D03*
X73350000Y42800000D03*
M02*
