G04 #@! TF.GenerationSoftware,KiCad,Pcbnew,5.1.6-c6e7f7d~87~ubuntu18.04.1*
G04 #@! TF.CreationDate,2020-07-27T17:04:26+02:00*
G04 #@! TF.ProjectId,DG3-MTR_GUI-PI,4447332d-4d54-4525-9f47-55492d50492e,rev?*
G04 #@! TF.SameCoordinates,PX78a3ca0PY77afa60*
G04 #@! TF.FileFunction,Copper,L2,Bot*
G04 #@! TF.FilePolarity,Positive*
%FSLAX46Y46*%
G04 Gerber Fmt 4.6, Leading zero omitted, Abs format (unit mm)*
G04 Created by KiCad (PCBNEW 5.1.6-c6e7f7d~87~ubuntu18.04.1) date 2020-07-27 17:04:26*
%MOMM*%
%LPD*%
G01*
G04 APERTURE LIST*
G04 #@! TA.AperFunction,Profile*
%ADD10C,0.500000*%
G04 #@! TD*
G04 #@! TA.AperFunction,SMDPad,CuDef*
%ADD11C,1.000000*%
G04 #@! TD*
G04 #@! TA.AperFunction,SMDPad,CuDef*
%ADD12R,1.250000X0.300000*%
G04 #@! TD*
G04 #@! TA.AperFunction,SMDPad,CuDef*
%ADD13R,2.200000X2.400000*%
G04 #@! TD*
G04 #@! TA.AperFunction,SMDPad,CuDef*
%ADD14R,0.850000X1.300000*%
G04 #@! TD*
G04 #@! TA.AperFunction,SMDPad,CuDef*
%ADD15R,1.600000X0.800000*%
G04 #@! TD*
G04 #@! TA.AperFunction,SMDPad,CuDef*
%ADD16R,1.000000X1.250000*%
G04 #@! TD*
G04 #@! TA.AperFunction,ComponentPad*
%ADD17C,6.000000*%
G04 #@! TD*
G04 #@! TA.AperFunction,SMDPad,CuDef*
%ADD18R,0.600000X0.400000*%
G04 #@! TD*
G04 #@! TA.AperFunction,SMDPad,CuDef*
%ADD19R,0.400000X0.600000*%
G04 #@! TD*
G04 #@! TA.AperFunction,SMDPad,CuDef*
%ADD20R,0.580000X0.775000*%
G04 #@! TD*
G04 #@! TA.AperFunction,SMDPad,CuDef*
%ADD21R,0.310000X3.890000*%
G04 #@! TD*
G04 #@! TA.AperFunction,SMDPad,CuDef*
%ADD22C,0.050000*%
G04 #@! TD*
G04 #@! TA.AperFunction,SMDPad,CuDef*
%ADD23R,0.750000X0.800000*%
G04 #@! TD*
G04 #@! TA.AperFunction,SMDPad,CuDef*
%ADD24R,0.800000X0.750000*%
G04 #@! TD*
G04 #@! TA.AperFunction,SMDPad,CuDef*
%ADD25R,0.600000X0.700000*%
G04 #@! TD*
G04 #@! TA.AperFunction,SMDPad,CuDef*
%ADD26R,0.900000X0.800000*%
G04 #@! TD*
G04 #@! TA.AperFunction,SMDPad,CuDef*
%ADD27R,0.600000X0.500000*%
G04 #@! TD*
G04 #@! TA.AperFunction,SMDPad,CuDef*
%ADD28R,1.060000X0.650000*%
G04 #@! TD*
G04 #@! TA.AperFunction,SMDPad,CuDef*
%ADD29R,1.000000X1.600000*%
G04 #@! TD*
G04 #@! TA.AperFunction,SMDPad,CuDef*
%ADD30R,0.500000X0.600000*%
G04 #@! TD*
G04 #@! TA.AperFunction,SMDPad,CuDef*
%ADD31R,1.200000X0.900000*%
G04 #@! TD*
G04 #@! TA.AperFunction,ComponentPad*
%ADD32C,1.800000*%
G04 #@! TD*
G04 #@! TA.AperFunction,WasherPad*
%ADD33C,3.500000*%
G04 #@! TD*
G04 #@! TA.AperFunction,ComponentPad*
%ADD34C,2.000000*%
G04 #@! TD*
G04 #@! TA.AperFunction,ComponentPad*
%ADD35R,1.500000X1.500000*%
G04 #@! TD*
G04 #@! TA.AperFunction,ComponentPad*
%ADD36C,1.500000*%
G04 #@! TD*
G04 #@! TA.AperFunction,ViaPad*
%ADD37C,0.600000*%
G04 #@! TD*
G04 #@! TA.AperFunction,Conductor*
%ADD38C,0.300000*%
G04 #@! TD*
G04 #@! TA.AperFunction,Conductor*
%ADD39C,0.400000*%
G04 #@! TD*
G04 #@! TA.AperFunction,Conductor*
%ADD40C,0.200000*%
G04 #@! TD*
G04 #@! TA.AperFunction,Conductor*
%ADD41C,0.600000*%
G04 #@! TD*
G04 #@! TA.AperFunction,Conductor*
%ADD42C,0.254000*%
G04 #@! TD*
G04 APERTURE END LIST*
D10*
X82000000Y0D02*
X3000000Y0D01*
X82000000Y56000000D02*
X3000000Y56000001D01*
X3000000Y0D02*
G75*
G02*
X0Y3000000I0J3000000D01*
G01*
X0Y3000000D02*
X0Y53000000D01*
X-1Y53000000D02*
G75*
G02*
X3000000Y56000001I3000001J0D01*
G01*
X82000000Y56000000D02*
G75*
G02*
X85000000Y53000000I0J-3000000D01*
G01*
X85000000Y3000000D02*
G75*
G02*
X82000000Y0I-3000000J0D01*
G01*
X85000000Y53000000D02*
X85000000Y3000000D01*
D11*
X4000000Y52000000D03*
X81500000Y9000000D03*
D12*
X19737038Y35248416D03*
X19737038Y34748416D03*
X19737038Y34248416D03*
X19737038Y33748416D03*
X19737038Y33248416D03*
X19737038Y32748416D03*
X19737038Y32248416D03*
X19737038Y31748416D03*
X19737038Y31248416D03*
X19737038Y30748416D03*
X19737038Y30248416D03*
X19737038Y29748416D03*
X19737038Y29248416D03*
X19737038Y28748416D03*
X19737038Y28248416D03*
X19737038Y27748416D03*
X19737038Y27248416D03*
X19737038Y26748416D03*
X19737038Y26248416D03*
X19737038Y25748416D03*
X19737038Y25248416D03*
X19737038Y24748416D03*
X19737038Y24248416D03*
X19737038Y23748416D03*
X19737038Y23248416D03*
X19737038Y22748416D03*
X19737038Y22248416D03*
X19737038Y21748416D03*
X19737038Y21248416D03*
X19737038Y20748416D03*
D13*
X18462962Y18301584D03*
X18462962Y37701584D03*
D14*
X16932962Y18851584D03*
X16932962Y37151584D03*
D15*
X18512962Y19901584D03*
X18512962Y36101584D03*
D16*
X22250000Y23000000D03*
X24250000Y23000000D03*
D17*
X81500000Y3500000D03*
X81500000Y52500000D03*
X23500000Y52500000D03*
X23500000Y3500001D03*
D18*
X64465621Y53540943D03*
X64465621Y52640943D03*
D19*
X64250000Y42800000D03*
X63350000Y42800000D03*
D20*
X71455621Y49497942D03*
D21*
X68930621Y47940942D03*
X71900621Y47940942D03*
G04 #@! TA.AperFunction,SMDPad,CuDef*
D22*
G36*
X68775621Y49885942D02*
G01*
X68775621Y45995942D01*
X68215621Y46545942D01*
X68215621Y49335942D01*
X68775621Y49885942D01*
G37*
G04 #@! TD.AperFunction*
G04 #@! TA.AperFunction,SMDPad,CuDef*
G36*
X72055621Y45995942D02*
G01*
X72055621Y49885942D01*
X72615621Y49335942D01*
X72615621Y46545942D01*
X72055621Y45995942D01*
G37*
G04 #@! TD.AperFunction*
D20*
X71455621Y46383942D03*
X69375621Y46383942D03*
X69375621Y49498942D03*
G04 #@! TA.AperFunction,SMDPad,CuDef*
D22*
G36*
X69085621Y48516442D02*
G01*
X69085621Y49705442D01*
X69665621Y49111442D01*
X69665621Y49110442D01*
X69085621Y48516442D01*
G37*
G04 #@! TD.AperFunction*
G04 #@! TA.AperFunction,SMDPad,CuDef*
G36*
X69085621Y46176442D02*
G01*
X69085621Y47365442D01*
X69665621Y46771442D01*
X69665621Y46770442D01*
X69085621Y46176442D01*
G37*
G04 #@! TD.AperFunction*
G04 #@! TA.AperFunction,SMDPad,CuDef*
G36*
X71745621Y49705442D02*
G01*
X71745621Y48516442D01*
X71165621Y49110442D01*
X71165621Y49111442D01*
X71745621Y49705442D01*
G37*
G04 #@! TD.AperFunction*
G04 #@! TA.AperFunction,SMDPad,CuDef*
G36*
X71745621Y47365442D02*
G01*
X71745621Y46176442D01*
X71165621Y46770442D01*
X71165621Y46771442D01*
X71745621Y47365442D01*
G37*
G04 #@! TD.AperFunction*
D23*
X73465621Y51640942D03*
X73465621Y53140942D03*
D24*
X24000000Y21500000D03*
X22500000Y21500000D03*
X24000000Y20000000D03*
X22500000Y20000000D03*
D25*
X22800000Y28750000D03*
X24200000Y28750000D03*
D24*
X22500000Y34500000D03*
X24000000Y34500000D03*
D26*
X57000000Y39050000D03*
X57000000Y40950000D03*
X59000000Y40000000D03*
D19*
X23450000Y31500000D03*
X22550000Y31500000D03*
D27*
X66550000Y19900000D03*
X67650000Y19900000D03*
D28*
X69365621Y51640942D03*
X69365621Y52590942D03*
X69365621Y53540942D03*
X71565621Y53540942D03*
X71565621Y51640942D03*
D29*
X25500000Y37750000D03*
X22500000Y37750000D03*
D23*
X64765621Y50590943D03*
X64765621Y49090943D03*
D19*
X66650000Y22900000D03*
X67550000Y22900000D03*
D18*
X55700000Y39450000D03*
X55700000Y40350000D03*
X67465621Y53540942D03*
X67465621Y52640942D03*
D19*
X67550000Y24900000D03*
X66650000Y24900000D03*
D24*
X22500000Y36000000D03*
X24000000Y36000000D03*
D27*
X66550000Y21900000D03*
X67650000Y21900000D03*
D25*
X22800000Y30250000D03*
X24200000Y30250000D03*
D16*
X24500000Y33000000D03*
X22500000Y33000000D03*
D30*
X65865619Y52440942D03*
X65865619Y53540942D03*
D19*
X67550000Y20900000D03*
X66650000Y20900000D03*
X23700000Y25250000D03*
X22800000Y25250000D03*
D31*
X66765621Y50590942D03*
X66765621Y47290942D03*
D27*
X67650000Y23900000D03*
X66550000Y23900000D03*
D32*
X76630000Y2230000D03*
X76630000Y4770000D03*
X74090000Y2230000D03*
X74090000Y4770000D03*
X71550000Y2230000D03*
X71550000Y4770000D03*
X69010000Y2230000D03*
X69010000Y4770000D03*
X66470000Y2230000D03*
X66470000Y4770000D03*
X63930000Y2230000D03*
X63930000Y4770000D03*
X61390000Y2230000D03*
X61390000Y4770000D03*
X58850000Y2230000D03*
X58850000Y4770000D03*
X56310000Y2230000D03*
X56310000Y4770000D03*
X53770000Y2230000D03*
X53770000Y4770000D03*
X51230000Y2230000D03*
X51230000Y4770000D03*
X48690000Y2230000D03*
X48690000Y4770000D03*
X46150000Y2230000D03*
X46150000Y4770000D03*
X43610000Y2230000D03*
X43610000Y4770000D03*
X41070000Y2230000D03*
X41070000Y4770000D03*
X38530000Y2230000D03*
X38530000Y4770000D03*
X35990000Y2230000D03*
X35990000Y4770000D03*
X33450000Y2230000D03*
X33450000Y4770000D03*
X30910000Y2230000D03*
X30910000Y4770000D03*
X28370000Y2230000D03*
X28370000Y4770000D03*
D33*
X61150000Y21700000D03*
X73050000Y21700000D03*
D34*
X67100000Y14850000D03*
X72650000Y17550000D03*
X61550000Y17550000D03*
X61150000Y25150000D03*
X72650000Y25850000D03*
D26*
X66900000Y39050000D03*
X66900000Y40950000D03*
X68900000Y40000000D03*
D18*
X65600000Y40450000D03*
X65600000Y39550000D03*
D19*
X72450000Y42800000D03*
X73350000Y42800000D03*
D35*
X60825000Y40000000D03*
D36*
X63365000Y40000000D03*
D35*
X70825000Y40000000D03*
D36*
X73365000Y40000000D03*
D37*
X19900000Y37700000D03*
X19900000Y18300000D03*
X16930000Y36190000D03*
X16940000Y19800000D03*
X25000000Y28750000D03*
X24750000Y21500000D03*
X24750000Y20000000D03*
X24750000Y34500000D03*
X24750000Y36000000D03*
X26500000Y37750000D03*
X25250000Y23000000D03*
X18750000Y32250000D03*
X18750000Y31250000D03*
X18750000Y30250000D03*
X20750000Y28250000D03*
X20750000Y27250000D03*
X20750000Y20750000D03*
X25500000Y33000000D03*
X67470000Y52140000D03*
X68540000Y52590000D03*
X73460000Y53840000D03*
X64770000Y48390000D03*
X24250000Y25250000D03*
X65900000Y21900000D03*
X68300000Y23900000D03*
X68300000Y19900000D03*
X18750000Y21750000D03*
X65600000Y41000000D03*
X66900000Y41700000D03*
X55700000Y40900000D03*
X57000000Y41700000D03*
X20700000Y30750000D03*
X20700000Y31750000D03*
X18750000Y27750000D03*
X18750000Y26848416D03*
X21275000Y33525000D03*
X21250000Y23000000D03*
X68100000Y20900000D03*
X66100000Y22900000D03*
X68100000Y24900000D03*
X44750009Y6499991D03*
D38*
X17912962Y18848416D02*
X18462962Y18298416D01*
X16932962Y18848416D02*
X17912962Y18848416D01*
X17912962Y37148416D02*
X18462962Y37698416D01*
X16932962Y37148416D02*
X17912962Y37148416D01*
D39*
X18462962Y37698416D02*
X19898416Y37698416D01*
D38*
X19898416Y37698416D02*
X19900000Y37700000D01*
X18462962Y18298416D02*
X19898416Y18298416D01*
X19898416Y18298416D02*
X19900000Y18300000D01*
D40*
X16932962Y37148416D02*
X16932962Y36192962D01*
X16932962Y36192962D02*
X16930000Y36190000D01*
X16932962Y18848416D02*
X16932962Y19792962D01*
X16932962Y19792962D02*
X16940000Y19800000D01*
D39*
X24200000Y28750000D02*
X25000000Y28750000D01*
X24000000Y21500000D02*
X24750000Y21500000D01*
X24000000Y20000000D02*
X24750000Y20000000D01*
X24000000Y34500000D02*
X24750000Y34500000D01*
X24000000Y36000000D02*
X24750000Y36000000D01*
X25500000Y37750000D02*
X26500000Y37750000D01*
D38*
X18912962Y19898416D02*
X19762962Y20748416D01*
X18512962Y19898416D02*
X18912962Y19898416D01*
X19362962Y35248416D02*
X18512962Y36098416D01*
X19762962Y35248416D02*
X19362962Y35248416D01*
X24250000Y23000000D02*
X24500000Y23000000D01*
D39*
X24500000Y23000000D02*
X25250000Y23000000D01*
D38*
X19762962Y32248416D02*
X18751584Y32248416D01*
X18751584Y32248416D02*
X18750000Y32250000D01*
X19762962Y31248416D02*
X18751584Y31248416D01*
X18751584Y31248416D02*
X18750000Y31250000D01*
X19762962Y30248416D02*
X18751584Y30248416D01*
X18751584Y30248416D02*
X18750000Y30250000D01*
X19762962Y28248416D02*
X20748416Y28248416D01*
X20748416Y28248416D02*
X20750000Y28250000D01*
X19762962Y27248416D02*
X20748416Y27248416D01*
X20748416Y27248416D02*
X20750000Y27250000D01*
X19762962Y20748416D02*
X20748416Y20748416D01*
X20748416Y20748416D02*
X20750000Y20750000D01*
D39*
X24500000Y33000000D02*
X25500000Y33000000D01*
D38*
X67465621Y52640942D02*
X67465621Y52144379D01*
X67465621Y52144379D02*
X67470000Y52140000D01*
X69365621Y52590942D02*
X68540942Y52590942D01*
X68540942Y52590942D02*
X68540000Y52590000D01*
X73465621Y53140942D02*
X73465621Y53834379D01*
X73465621Y53834379D02*
X73460000Y53840000D01*
X64765621Y49090943D02*
X64765621Y48394379D01*
X64765621Y48394379D02*
X64770000Y48390000D01*
X23700000Y25250000D02*
X24250000Y25250000D01*
X66550000Y21900000D02*
X65900000Y21900000D01*
X67650000Y23900000D02*
X68300000Y23900000D01*
X67650000Y19900000D02*
X68300000Y19900000D01*
X19762962Y21748416D02*
X18751584Y21748416D01*
X18751584Y21748416D02*
X18750000Y21750000D01*
X65600000Y40450000D02*
X65600000Y41000000D01*
X66900000Y40950000D02*
X66900000Y41700000D01*
X55700000Y40350000D02*
X55700000Y40900000D01*
X57000000Y40950000D02*
X57000000Y41700000D01*
X19737038Y30748416D02*
X20698416Y30748416D01*
X20698416Y30748416D02*
X20700000Y30750000D01*
X19737038Y31748416D02*
X20698416Y31748416D01*
X20698416Y31748416D02*
X20700000Y31750000D01*
X19737038Y27748416D02*
X18751584Y27748416D01*
X18751584Y27748416D02*
X18750000Y27750000D01*
X19737038Y26748416D02*
X18850000Y26748416D01*
X18850000Y26748416D02*
X18750000Y26848416D01*
D40*
X71565621Y49610942D02*
X71455621Y49500942D01*
X71565621Y51640942D02*
X71565621Y49610942D01*
X72335621Y48620942D02*
X71455621Y49500942D01*
X72335621Y47940942D02*
X72335621Y48620942D01*
X72335621Y47265942D02*
X71455621Y46385942D01*
X72335621Y47940942D02*
X72335621Y47265942D01*
X71565621Y51640942D02*
X73465621Y51640942D01*
X71565621Y53540942D02*
X71565621Y51640942D01*
D38*
X74090000Y2230000D02*
X76630000Y2230000D01*
X72335621Y47940942D02*
X71979999Y47585320D01*
X78100000Y3900000D02*
X78100000Y43100000D01*
X73300000Y47900000D02*
X72300000Y47900000D01*
X78100000Y43100000D02*
X73300000Y47900000D01*
X76630000Y2230000D02*
X76630000Y2430000D01*
X76630000Y2430000D02*
X78100000Y3900000D01*
X71900621Y46500621D02*
X71900621Y47940942D01*
X72450000Y42800000D02*
X64250000Y42800000D01*
X21250000Y23000000D02*
X22250000Y23000000D01*
X19762962Y22748416D02*
X20998416Y22748416D01*
X20998416Y22748416D02*
X21250000Y23000000D01*
X21051584Y33748416D02*
X19762962Y33748416D01*
X21800000Y33000000D02*
X21275000Y33525000D01*
X22500000Y33000000D02*
X21800000Y33000000D01*
X21275000Y33525000D02*
X21051584Y33748416D01*
X67550000Y20900000D02*
X68100000Y20900000D01*
X66650000Y22900000D02*
X66100000Y22900000D01*
X67550000Y24900000D02*
X68100000Y24900000D01*
X68262002Y20900000D02*
X68100000Y20900000D01*
X71000000Y18162002D02*
X68262002Y20900000D01*
X71000000Y16500000D02*
X71000000Y18162002D01*
X76630000Y4770000D02*
X76630000Y10870000D01*
X76630000Y10870000D02*
X71000000Y16500000D01*
D41*
X22500000Y37750000D02*
X22500000Y36000000D01*
D38*
X19762962Y34748416D02*
X20648416Y34748416D01*
X20648416Y34748416D02*
X21900000Y36000000D01*
X21900000Y36000000D02*
X22500000Y36000000D01*
D41*
X64765621Y50590943D02*
X41040943Y50590943D01*
X41040943Y50590943D02*
X35340943Y50590943D01*
X35340943Y50590943D02*
X22500000Y37750000D01*
D39*
X64965622Y53540942D02*
X69365621Y53540942D01*
X64465621Y53540943D02*
X64965622Y53540942D01*
D40*
X19762962Y34248416D02*
X20998416Y34248416D01*
X21250000Y34500000D02*
X22500000Y34500000D01*
X20998416Y34248416D02*
X21250000Y34500000D01*
X22500000Y21500000D02*
X22500000Y20000000D01*
X21500000Y21500000D02*
X22500000Y21500000D01*
X19762962Y22248416D02*
X20751584Y22248416D01*
X20751584Y22248416D02*
X21500000Y21500000D01*
X69365621Y49505942D02*
X69375621Y49495942D01*
D41*
X69365621Y51640942D02*
X69365621Y49505942D01*
D40*
X68495621Y48615942D02*
X69375621Y49495942D01*
X68495621Y47940942D02*
X68495621Y48615942D01*
X68495621Y47265942D02*
X69375621Y46385942D01*
X68495621Y47940942D02*
X68495621Y47265942D01*
X68930621Y47940942D02*
X68495621Y47940942D01*
X68470621Y47290942D02*
X69375621Y46385942D01*
D41*
X66765621Y47290942D02*
X68470621Y47290942D01*
D40*
X69375621Y49495942D02*
X69375621Y49110942D01*
D39*
X24200000Y30750000D02*
X23450000Y31500000D01*
X24200000Y30250000D02*
X24200000Y30750000D01*
X22800000Y30250000D02*
X22800000Y28750000D01*
D40*
X22326380Y31500000D02*
X20577964Y33248416D01*
X22550000Y31500000D02*
X22326380Y31500000D01*
X20577964Y33248416D02*
X19762962Y33248416D01*
X44400000Y6850000D02*
X44750000Y6500000D01*
X13799956Y24899956D02*
X13799956Y16300044D01*
X23250000Y6850000D02*
X44400000Y6850000D01*
X13799956Y16300044D02*
X23250000Y6850000D01*
X19762962Y29248416D02*
X18148416Y29248416D01*
X18148416Y29248416D02*
X13799956Y24899956D01*
X48690000Y6060000D02*
X47500000Y7250000D01*
X48690000Y4770000D02*
X48690000Y6060000D01*
X47500000Y7250000D02*
X29315700Y7250000D01*
X18248416Y28748416D02*
X19762962Y28748416D01*
X14199967Y24699967D02*
X18248416Y28748416D01*
X29300000Y7250000D02*
X23415700Y7250000D01*
X23415700Y7250000D02*
X14199967Y16465733D01*
X14199967Y16465733D02*
X14199967Y24699967D01*
X49950000Y3490000D02*
X49950000Y5550000D01*
X47849989Y7650011D02*
X29534289Y7650011D01*
X49950000Y5550000D02*
X47849989Y7650011D01*
X48690000Y2230000D02*
X49950000Y3490000D01*
X14599978Y24534278D02*
X16314116Y26248416D01*
X29500000Y7650011D02*
X23581389Y7650011D01*
X23581389Y7650011D02*
X14599978Y16631422D01*
X16314116Y26248416D02*
X19762962Y26248416D01*
X14599978Y16631422D02*
X14599978Y24534278D01*
X48199978Y8050022D02*
X29699978Y8050022D01*
X57370000Y6250000D02*
X50000000Y6250000D01*
X58850000Y4770000D02*
X57370000Y6250000D01*
X50000000Y6250000D02*
X48199978Y8050022D01*
X14999989Y24368589D02*
X16379816Y25748416D01*
X14999989Y16797111D02*
X14999989Y24368589D01*
X16379816Y25748416D02*
X19762962Y25748416D01*
X23747078Y8050022D02*
X14999989Y16797111D01*
X29700000Y8050022D02*
X23747078Y8050022D01*
X59410000Y6750000D02*
X60490001Y5669999D01*
X50250000Y6750000D02*
X59410000Y6750000D01*
X48549967Y8450033D02*
X50250000Y6750000D01*
X15400000Y16962800D02*
X23912767Y8450033D01*
X19762962Y25248416D02*
X16448416Y25248416D01*
X15400000Y24200000D02*
X15400000Y16962800D01*
X16448416Y25248416D02*
X15400000Y24200000D01*
X60490001Y5669999D02*
X61390000Y4770000D01*
X23912767Y8450033D02*
X48549967Y8450033D01*
X19764546Y24750000D02*
X19762962Y24748416D01*
X22800000Y25250000D02*
X21500000Y25250000D01*
X20998416Y24748416D02*
X19762962Y24748416D01*
X21500000Y25250000D02*
X20998416Y24748416D01*
X63350000Y40015000D02*
X63365000Y40000000D01*
X63350000Y42800000D02*
X63350000Y40015000D01*
X59000000Y40000000D02*
X60825000Y40000000D01*
X67550000Y22000000D02*
X67650000Y21900000D01*
X67550000Y22900000D02*
X67550000Y22000000D01*
X68300000Y21900000D02*
X72650000Y17550000D01*
X67650000Y21900000D02*
X68300000Y21900000D01*
X66650000Y24000000D02*
X66550000Y23900000D01*
X66650000Y24900000D02*
X66650000Y24000000D01*
X66400000Y25150000D02*
X66650000Y24900000D01*
X61150000Y25150000D02*
X66400000Y25150000D01*
X66650000Y20000000D02*
X66550000Y19900000D01*
X66650000Y20900000D02*
X66650000Y20000000D01*
X63900000Y19900000D02*
X61550000Y17550000D01*
X66550000Y19900000D02*
X63900000Y19900000D01*
X68900000Y40000000D02*
X70825000Y40000000D01*
X73350000Y40015000D02*
X73365000Y40000000D01*
X73350000Y42800000D02*
X73350000Y40015000D01*
X21131400Y23750000D02*
X20000000Y23750000D01*
X21431400Y24050000D02*
X21131400Y23750000D01*
X45750000Y24050000D02*
X21431400Y24050000D01*
X58500000Y36800000D02*
X45750000Y24050000D01*
X65600000Y39500000D02*
X62900000Y36800000D01*
X62900000Y36800000D02*
X58500000Y36800000D01*
X66100000Y39050000D02*
X65600000Y39550000D01*
X66900000Y39050000D02*
X66100000Y39050000D01*
X21064116Y24248416D02*
X19762962Y24248416D01*
X21315700Y24500000D02*
X21064116Y24248416D01*
X55700000Y39400000D02*
X55700000Y34800000D01*
X45400000Y24500000D02*
X21315700Y24500000D01*
X55700000Y34800000D02*
X45400000Y24500000D01*
X56100000Y39050000D02*
X55700000Y39450000D01*
X57000000Y39050000D02*
X56100000Y39050000D01*
D42*
G36*
X21120919Y55058686D02*
G01*
X23500000Y52679605D01*
X25879081Y55058686D01*
X25618035Y55423001D01*
X79381964Y55423000D01*
X79120919Y55058686D01*
X81500000Y52679605D01*
X81514143Y52693747D01*
X81693748Y52514142D01*
X81679605Y52500000D01*
X84058686Y50120919D01*
X84423000Y50381964D01*
X84423000Y44039448D01*
X78521134Y49941314D01*
X79120919Y49941314D01*
X79457106Y49472132D01*
X80087068Y49131763D01*
X80771327Y48920834D01*
X81483589Y48847450D01*
X82196482Y48914431D01*
X82882609Y49119204D01*
X83515603Y49453898D01*
X83542894Y49472132D01*
X83879081Y49941314D01*
X81500000Y52320395D01*
X79120919Y49941314D01*
X78521134Y49941314D01*
X75946037Y52516411D01*
X77847450Y52516411D01*
X77914431Y51803518D01*
X78119204Y51117391D01*
X78453898Y50484397D01*
X78472132Y50457106D01*
X78941314Y50120919D01*
X81320395Y52500000D01*
X78941314Y54879081D01*
X78472132Y54542894D01*
X78131763Y53912932D01*
X77920834Y53228673D01*
X77847450Y52516411D01*
X75946037Y52516411D01*
X75731224Y52731224D01*
X75681671Y52771891D01*
X75625137Y52802109D01*
X75563795Y52820717D01*
X75500000Y52827000D01*
X74476379Y52827000D01*
X74475621Y52855192D01*
X74316871Y53013942D01*
X73592621Y53013942D01*
X73592621Y52993942D01*
X73338621Y52993942D01*
X73338621Y53013942D01*
X73318621Y53013942D01*
X73318621Y53267942D01*
X73338621Y53267942D01*
X73338621Y54017192D01*
X73592621Y54017192D01*
X73592621Y53267942D01*
X74316871Y53267942D01*
X74475621Y53426692D01*
X74478693Y53540942D01*
X74466433Y53665424D01*
X74430123Y53785122D01*
X74371158Y53895436D01*
X74291806Y53992127D01*
X74195115Y54071479D01*
X74084801Y54130444D01*
X73965103Y54166754D01*
X73840621Y54179014D01*
X73751371Y54175942D01*
X73592621Y54017192D01*
X73338621Y54017192D01*
X73179871Y54175942D01*
X73090621Y54179014D01*
X72966139Y54166754D01*
X72846441Y54130444D01*
X72806909Y54109313D01*
X72802109Y54125137D01*
X72771891Y54181671D01*
X72731224Y54231224D01*
X72681671Y54271891D01*
X72625137Y54302109D01*
X72563795Y54320717D01*
X72500000Y54327000D01*
X71000000Y54327000D01*
X70936205Y54320717D01*
X70874863Y54302109D01*
X70818329Y54271891D01*
X70768776Y54231224D01*
X70728109Y54181671D01*
X70697891Y54125137D01*
X70679283Y54063795D01*
X70673000Y54000000D01*
X70673000Y43277000D01*
X64726173Y43277000D01*
X64723206Y43282550D01*
X64682343Y43332343D01*
X64632550Y43373206D01*
X64575743Y43403570D01*
X64514103Y43422268D01*
X64450000Y43428582D01*
X64050000Y43428582D01*
X63985897Y43422268D01*
X63924257Y43403570D01*
X63867450Y43373206D01*
X63817657Y43332343D01*
X63800000Y43310827D01*
X63782343Y43332343D01*
X63732550Y43373206D01*
X63675743Y43403570D01*
X63614103Y43422268D01*
X63550000Y43428582D01*
X63150000Y43428582D01*
X63085897Y43422268D01*
X63024257Y43403570D01*
X62967450Y43373206D01*
X62917657Y43332343D01*
X62876794Y43282550D01*
X62846430Y43225743D01*
X62827732Y43164103D01*
X62821418Y43100000D01*
X62821418Y42500000D01*
X62827732Y42435897D01*
X62846430Y42374257D01*
X62876794Y42317450D01*
X62917657Y42267657D01*
X62923000Y42263272D01*
X62923001Y40982654D01*
X62854849Y40954425D01*
X62678453Y40836560D01*
X62528440Y40686547D01*
X62410575Y40510151D01*
X62329389Y40314149D01*
X62288000Y40106075D01*
X62288000Y39893925D01*
X62329389Y39685851D01*
X62410575Y39489849D01*
X62528440Y39313453D01*
X62678453Y39163440D01*
X62854849Y39045575D01*
X63050851Y38964389D01*
X63258925Y38923000D01*
X63471075Y38923000D01*
X63679149Y38964389D01*
X63875151Y39045575D01*
X64051547Y39163440D01*
X64201560Y39313453D01*
X64319425Y39489849D01*
X64400611Y39685851D01*
X64442000Y39893925D01*
X64442000Y40106075D01*
X64400611Y40314149D01*
X64319425Y40510151D01*
X64204766Y40681750D01*
X64665000Y40681750D01*
X64823750Y40523000D01*
X65473000Y40523000D01*
X65473000Y41126250D01*
X65314250Y41285000D01*
X65191643Y41278804D01*
X65071051Y41245582D01*
X64959258Y41189473D01*
X64860559Y41112631D01*
X64778748Y41018012D01*
X64716968Y40909249D01*
X64677594Y40790524D01*
X64665000Y40681750D01*
X64204766Y40681750D01*
X64201560Y40686547D01*
X64051547Y40836560D01*
X63875151Y40954425D01*
X63777000Y40995080D01*
X63777000Y42263272D01*
X63782343Y42267657D01*
X63800000Y42289173D01*
X63817657Y42267657D01*
X63867450Y42226794D01*
X63924257Y42196430D01*
X63985897Y42177732D01*
X64050000Y42171418D01*
X64450000Y42171418D01*
X64514103Y42177732D01*
X64575743Y42196430D01*
X64632550Y42226794D01*
X64682343Y42267657D01*
X64723206Y42317450D01*
X64726173Y42323000D01*
X70673000Y42323000D01*
X70673000Y42000000D01*
X70679283Y41936205D01*
X70697891Y41874863D01*
X70728109Y41818329D01*
X70768776Y41768776D01*
X70818329Y41728109D01*
X70874863Y41697891D01*
X70936205Y41679283D01*
X71000000Y41673000D01*
X72923000Y41673000D01*
X72923001Y40982654D01*
X72854849Y40954425D01*
X72678453Y40836560D01*
X72528440Y40686547D01*
X72410575Y40510151D01*
X72329389Y40314149D01*
X72288000Y40106075D01*
X72288000Y39893925D01*
X72329389Y39685851D01*
X72410575Y39489849D01*
X72528440Y39313453D01*
X72678453Y39163440D01*
X72854849Y39045575D01*
X73050851Y38964389D01*
X73258925Y38923000D01*
X73471075Y38923000D01*
X73679149Y38964389D01*
X73875151Y39045575D01*
X74051547Y39163440D01*
X74201560Y39313453D01*
X74319425Y39489849D01*
X74400611Y39685851D01*
X74442000Y39893925D01*
X74442000Y40106075D01*
X74400611Y40314149D01*
X74319425Y40510151D01*
X74201560Y40686547D01*
X74051547Y40836560D01*
X73875151Y40954425D01*
X73777000Y40995080D01*
X73777000Y41673000D01*
X77173000Y41673000D01*
X77173000Y5873177D01*
X77107000Y5900515D01*
X77107000Y10846586D01*
X77109306Y10870001D01*
X77107000Y10893416D01*
X77107000Y10893423D01*
X77100097Y10963508D01*
X77072822Y11053423D01*
X77028529Y11136289D01*
X76968921Y11208921D01*
X76950730Y11223850D01*
X71477000Y16697579D01*
X71477000Y16916982D01*
X71619252Y16704087D01*
X71804087Y16519252D01*
X72021430Y16374028D01*
X72262928Y16273996D01*
X72519302Y16223000D01*
X72780698Y16223000D01*
X73037072Y16273996D01*
X73278570Y16374028D01*
X73495913Y16519252D01*
X73680748Y16704087D01*
X73825972Y16921430D01*
X73926004Y17162928D01*
X73977000Y17419302D01*
X73977000Y17680698D01*
X73926004Y17937072D01*
X73825972Y18178570D01*
X73680748Y18395913D01*
X73495913Y18580748D01*
X73278570Y18725972D01*
X73037072Y18826004D01*
X72780698Y18877000D01*
X72519302Y18877000D01*
X72262928Y18826004D01*
X72061358Y18742511D01*
X68899302Y21904567D01*
X70973000Y21904567D01*
X70973000Y21495433D01*
X71052818Y21094161D01*
X71209386Y20716171D01*
X71436689Y20375989D01*
X71725989Y20086689D01*
X72066171Y19859386D01*
X72444161Y19702818D01*
X72845433Y19623000D01*
X73254567Y19623000D01*
X73655839Y19702818D01*
X74033829Y19859386D01*
X74374011Y20086689D01*
X74663311Y20375989D01*
X74890614Y20716171D01*
X75047182Y21094161D01*
X75127000Y21495433D01*
X75127000Y21904567D01*
X75047182Y22305839D01*
X74890614Y22683829D01*
X74663311Y23024011D01*
X74374011Y23313311D01*
X74033829Y23540614D01*
X73655839Y23697182D01*
X73254567Y23777000D01*
X72845433Y23777000D01*
X72444161Y23697182D01*
X72066171Y23540614D01*
X71725989Y23313311D01*
X71436689Y23024011D01*
X71209386Y22683829D01*
X71052818Y22305839D01*
X70973000Y21904567D01*
X68899302Y21904567D01*
X68616767Y22187101D01*
X68603395Y22203395D01*
X68538376Y22256755D01*
X68464196Y22296405D01*
X68383707Y22320822D01*
X68320978Y22327000D01*
X68320967Y22327000D01*
X68300000Y22329065D01*
X68279033Y22327000D01*
X68226173Y22327000D01*
X68223206Y22332550D01*
X68182343Y22382343D01*
X68132550Y22423206D01*
X68075743Y22453570D01*
X68047149Y22462244D01*
X68053570Y22474257D01*
X68072268Y22535897D01*
X68078582Y22600000D01*
X68078582Y23026768D01*
X68178949Y23054418D01*
X68290742Y23110527D01*
X68389441Y23187369D01*
X68471252Y23281988D01*
X68533032Y23390751D01*
X68572406Y23509476D01*
X68585000Y23618250D01*
X68426250Y23777000D01*
X67777000Y23777000D01*
X67777000Y23753000D01*
X67523000Y23753000D01*
X67523000Y23777000D01*
X67503000Y23777000D01*
X67503000Y24023000D01*
X67523000Y24023000D01*
X67523000Y24047000D01*
X67777000Y24047000D01*
X67777000Y24023000D01*
X68426250Y24023000D01*
X68585000Y24181750D01*
X68572406Y24290524D01*
X68533032Y24409249D01*
X68519603Y24432891D01*
X68587023Y24500311D01*
X68655640Y24603004D01*
X68701859Y24714587D01*
X71694192Y24714587D01*
X71789956Y24450186D01*
X72079571Y24309296D01*
X72391108Y24227616D01*
X72712595Y24208282D01*
X73031675Y24252039D01*
X73336088Y24357205D01*
X73510044Y24450186D01*
X73605808Y24714587D01*
X72650000Y25670395D01*
X71694192Y24714587D01*
X68701859Y24714587D01*
X68702905Y24717111D01*
X68727000Y24838246D01*
X68727000Y24961754D01*
X68702905Y25082889D01*
X68655640Y25196996D01*
X68587023Y25299689D01*
X68499689Y25387023D01*
X68396996Y25455640D01*
X68282889Y25502905D01*
X68161754Y25527000D01*
X68038246Y25527000D01*
X67917111Y25502905D01*
X67894505Y25493541D01*
X67875743Y25503570D01*
X67814103Y25522268D01*
X67750000Y25528582D01*
X67350000Y25528582D01*
X67285897Y25522268D01*
X67224257Y25503570D01*
X67167450Y25473206D01*
X67117657Y25432343D01*
X67100000Y25410827D01*
X67082343Y25432343D01*
X67032550Y25473206D01*
X66975743Y25503570D01*
X66914103Y25522268D01*
X66850000Y25528582D01*
X66597541Y25528582D01*
X66564196Y25546405D01*
X66483707Y25570822D01*
X66420978Y25577000D01*
X66420967Y25577000D01*
X66400000Y25579065D01*
X66379033Y25577000D01*
X62409465Y25577000D01*
X62325972Y25778570D01*
X62320069Y25787405D01*
X71008282Y25787405D01*
X71052039Y25468325D01*
X71157205Y25163912D01*
X71250186Y24989956D01*
X71514587Y24894192D01*
X72470395Y25850000D01*
X72829605Y25850000D01*
X73785413Y24894192D01*
X74049814Y24989956D01*
X74190704Y25279571D01*
X74272384Y25591108D01*
X74291718Y25912595D01*
X74247961Y26231675D01*
X74142795Y26536088D01*
X74049814Y26710044D01*
X73785413Y26805808D01*
X72829605Y25850000D01*
X72470395Y25850000D01*
X71514587Y26805808D01*
X71250186Y26710044D01*
X71109296Y26420429D01*
X71027616Y26108892D01*
X71008282Y25787405D01*
X62320069Y25787405D01*
X62180748Y25995913D01*
X61995913Y26180748D01*
X61778570Y26325972D01*
X61537072Y26426004D01*
X61280698Y26477000D01*
X61019302Y26477000D01*
X60762928Y26426004D01*
X60521430Y26325972D01*
X60304087Y26180748D01*
X60119252Y25995913D01*
X59974028Y25778570D01*
X59873996Y25537072D01*
X59823000Y25280698D01*
X59823000Y25019302D01*
X59873996Y24762928D01*
X59974028Y24521430D01*
X60119252Y24304087D01*
X60304087Y24119252D01*
X60521430Y23974028D01*
X60762928Y23873996D01*
X61019302Y23823000D01*
X61280698Y23823000D01*
X61537072Y23873996D01*
X61778570Y23974028D01*
X61995913Y24119252D01*
X62180748Y24304087D01*
X62325972Y24521430D01*
X62409465Y24723000D01*
X66121418Y24723000D01*
X66121418Y24600000D01*
X66127732Y24535897D01*
X66146430Y24474257D01*
X66152851Y24462244D01*
X66124257Y24453570D01*
X66067450Y24423206D01*
X66017657Y24382343D01*
X65976794Y24332550D01*
X65946430Y24275743D01*
X65927732Y24214103D01*
X65921418Y24150000D01*
X65921418Y23650000D01*
X65927732Y23585897D01*
X65946430Y23524257D01*
X65953928Y23510228D01*
X65917111Y23502905D01*
X65803004Y23455640D01*
X65700311Y23387023D01*
X65612977Y23299689D01*
X65544360Y23196996D01*
X65497095Y23082889D01*
X65473000Y22961754D01*
X65473000Y22838246D01*
X65497095Y22717111D01*
X65544360Y22603004D01*
X65612977Y22500311D01*
X65680397Y22432891D01*
X65666968Y22409249D01*
X65627594Y22290524D01*
X65615000Y22181750D01*
X65773750Y22023000D01*
X66423000Y22023000D01*
X66423000Y22047000D01*
X66677000Y22047000D01*
X66677000Y22023000D01*
X66697000Y22023000D01*
X66697000Y21777000D01*
X66677000Y21777000D01*
X66677000Y21753000D01*
X66423000Y21753000D01*
X66423000Y21777000D01*
X65773750Y21777000D01*
X65615000Y21618250D01*
X65627594Y21509476D01*
X65666968Y21390751D01*
X65728748Y21281988D01*
X65810559Y21187369D01*
X65909258Y21110527D01*
X66021051Y21054418D01*
X66121418Y21026768D01*
X66121418Y20600000D01*
X66127732Y20535897D01*
X66146430Y20474257D01*
X66152851Y20462244D01*
X66124257Y20453570D01*
X66067450Y20423206D01*
X66017657Y20382343D01*
X65976794Y20332550D01*
X65973827Y20327000D01*
X63920967Y20327000D01*
X63900000Y20329065D01*
X63879033Y20327000D01*
X63879022Y20327000D01*
X63816293Y20320822D01*
X63735804Y20296405D01*
X63715870Y20285750D01*
X63661623Y20256755D01*
X63612899Y20216768D01*
X63612895Y20216764D01*
X63596605Y20203395D01*
X63583236Y20187105D01*
X62138642Y18742511D01*
X61937072Y18826004D01*
X61680698Y18877000D01*
X61419302Y18877000D01*
X61162928Y18826004D01*
X60921430Y18725972D01*
X60704087Y18580748D01*
X60519252Y18395913D01*
X60374028Y18178570D01*
X60273996Y17937072D01*
X60223000Y17680698D01*
X60223000Y17419302D01*
X60273996Y17162928D01*
X60374028Y16921430D01*
X60519252Y16704087D01*
X60704087Y16519252D01*
X60921430Y16374028D01*
X61162928Y16273996D01*
X61419302Y16223000D01*
X61680698Y16223000D01*
X61937072Y16273996D01*
X62178570Y16374028D01*
X62395913Y16519252D01*
X62580748Y16704087D01*
X62725972Y16921430D01*
X62826004Y17162928D01*
X62877000Y17419302D01*
X62877000Y17680698D01*
X62826004Y17937072D01*
X62742511Y18138642D01*
X64076869Y19473000D01*
X65973827Y19473000D01*
X65976794Y19467450D01*
X66017657Y19417657D01*
X66067450Y19376794D01*
X66124257Y19346430D01*
X66185897Y19327732D01*
X66250000Y19321418D01*
X66806351Y19321418D01*
X66828748Y19281988D01*
X66910559Y19187369D01*
X67009258Y19110527D01*
X67121051Y19054418D01*
X67241643Y19021196D01*
X67364250Y19015000D01*
X67523000Y19173750D01*
X67523000Y19777000D01*
X67777000Y19777000D01*
X67777000Y19173750D01*
X67935750Y19015000D01*
X68058357Y19021196D01*
X68178949Y19054418D01*
X68290742Y19110527D01*
X68389441Y19187369D01*
X68471252Y19281988D01*
X68533032Y19390751D01*
X68572406Y19509476D01*
X68585000Y19618250D01*
X68426250Y19777000D01*
X67777000Y19777000D01*
X67523000Y19777000D01*
X67503000Y19777000D01*
X67503000Y20023000D01*
X67523000Y20023000D01*
X67523000Y20047000D01*
X67777000Y20047000D01*
X67777000Y20023000D01*
X68426250Y20023000D01*
X68445336Y20042086D01*
X70523001Y17964421D01*
X70523000Y16523415D01*
X70520694Y16500000D01*
X70523000Y16476585D01*
X70523000Y16476578D01*
X70529903Y16406493D01*
X70557178Y16316578D01*
X70601471Y16233711D01*
X70661079Y16161079D01*
X70679276Y16146145D01*
X76153001Y10672419D01*
X76153000Y5900515D01*
X76048798Y5857353D01*
X75847833Y5723073D01*
X75676927Y5552167D01*
X75542647Y5351202D01*
X75450153Y5127903D01*
X75403000Y4890849D01*
X75403000Y4649151D01*
X75450153Y4412097D01*
X75485402Y4327000D01*
X75234598Y4327000D01*
X75269847Y4412097D01*
X75317000Y4649151D01*
X75317000Y4890849D01*
X75269847Y5127903D01*
X75177353Y5351202D01*
X75043073Y5552167D01*
X74872167Y5723073D01*
X74671202Y5857353D01*
X74447903Y5949847D01*
X74210849Y5997000D01*
X73969151Y5997000D01*
X73732097Y5949847D01*
X73508798Y5857353D01*
X73307833Y5723073D01*
X73136927Y5552167D01*
X73002647Y5351202D01*
X72910153Y5127903D01*
X72863000Y4890849D01*
X72863000Y4649151D01*
X72910153Y4412097D01*
X73002647Y4188798D01*
X73136927Y3987833D01*
X73307833Y3816927D01*
X73508798Y3682647D01*
X73577327Y3654261D01*
X72853761Y3292478D01*
X72818329Y3271891D01*
X72768776Y3231224D01*
X72728109Y3181671D01*
X72697891Y3125137D01*
X72687340Y3090356D01*
X72614080Y3114475D01*
X71729605Y2230000D01*
X72614080Y1345525D01*
X72673000Y1364923D01*
X72673000Y577000D01*
X25618035Y577000D01*
X25879081Y941315D01*
X23500000Y3320396D01*
X21120919Y941315D01*
X21381965Y577000D01*
X3028218Y577000D01*
X2529911Y625860D01*
X2077723Y762382D01*
X1660663Y984137D01*
X1294621Y1282674D01*
X993535Y1646624D01*
X768877Y2062122D01*
X629199Y2513343D01*
X577000Y3009989D01*
X577000Y3516412D01*
X19847450Y3516412D01*
X19914431Y2803519D01*
X20119204Y2117392D01*
X20453898Y1484398D01*
X20472132Y1457107D01*
X20941314Y1120920D01*
X23320395Y3500001D01*
X23679605Y3500001D01*
X26058686Y1120920D01*
X26527868Y1457107D01*
X26868237Y2087069D01*
X26949549Y2350849D01*
X27143000Y2350849D01*
X27143000Y2109151D01*
X27190153Y1872097D01*
X27282647Y1648798D01*
X27416927Y1447833D01*
X27587833Y1276927D01*
X27788798Y1142647D01*
X28012097Y1050153D01*
X28249151Y1003000D01*
X28490849Y1003000D01*
X28727903Y1050153D01*
X28951202Y1142647D01*
X29152167Y1276927D01*
X29323073Y1447833D01*
X29457353Y1648798D01*
X29549847Y1872097D01*
X29597000Y2109151D01*
X29597000Y2350849D01*
X29683000Y2350849D01*
X29683000Y2109151D01*
X29730153Y1872097D01*
X29822647Y1648798D01*
X29956927Y1447833D01*
X30127833Y1276927D01*
X30328798Y1142647D01*
X30552097Y1050153D01*
X30789151Y1003000D01*
X31030849Y1003000D01*
X31267903Y1050153D01*
X31491202Y1142647D01*
X31692167Y1276927D01*
X31863073Y1447833D01*
X31997353Y1648798D01*
X32089847Y1872097D01*
X32137000Y2109151D01*
X32137000Y2350849D01*
X32223000Y2350849D01*
X32223000Y2109151D01*
X32270153Y1872097D01*
X32362647Y1648798D01*
X32496927Y1447833D01*
X32667833Y1276927D01*
X32868798Y1142647D01*
X33092097Y1050153D01*
X33329151Y1003000D01*
X33570849Y1003000D01*
X33807903Y1050153D01*
X34031202Y1142647D01*
X34066032Y1165920D01*
X35105525Y1165920D01*
X35189208Y911739D01*
X35461775Y780842D01*
X35754642Y705635D01*
X36056553Y689009D01*
X36355907Y731603D01*
X36641199Y831778D01*
X36790792Y911739D01*
X36874475Y1165920D01*
X35990000Y2050395D01*
X35105525Y1165920D01*
X34066032Y1165920D01*
X34232167Y1276927D01*
X34403073Y1447833D01*
X34537353Y1648798D01*
X34553507Y1687796D01*
X34591778Y1578801D01*
X34671739Y1429208D01*
X34925920Y1345525D01*
X35810395Y2230000D01*
X36169605Y2230000D01*
X37054080Y1345525D01*
X37308261Y1429208D01*
X37429249Y1681142D01*
X37442647Y1648798D01*
X37576927Y1447833D01*
X37747833Y1276927D01*
X37948798Y1142647D01*
X38172097Y1050153D01*
X38409151Y1003000D01*
X38650849Y1003000D01*
X38887903Y1050153D01*
X39111202Y1142647D01*
X39146032Y1165920D01*
X40185525Y1165920D01*
X40269208Y911739D01*
X40541775Y780842D01*
X40834642Y705635D01*
X41136553Y689009D01*
X41435907Y731603D01*
X41721199Y831778D01*
X41870792Y911739D01*
X41954475Y1165920D01*
X41070000Y2050395D01*
X40185525Y1165920D01*
X39146032Y1165920D01*
X39312167Y1276927D01*
X39483073Y1447833D01*
X39617353Y1648798D01*
X39633507Y1687796D01*
X39671778Y1578801D01*
X39751739Y1429208D01*
X40005920Y1345525D01*
X40890395Y2230000D01*
X41249605Y2230000D01*
X42134080Y1345525D01*
X42388261Y1429208D01*
X42509249Y1681142D01*
X42522647Y1648798D01*
X42656927Y1447833D01*
X42827833Y1276927D01*
X43028798Y1142647D01*
X43252097Y1050153D01*
X43489151Y1003000D01*
X43730849Y1003000D01*
X43967903Y1050153D01*
X44191202Y1142647D01*
X44392167Y1276927D01*
X44563073Y1447833D01*
X44697353Y1648798D01*
X44789847Y1872097D01*
X44837000Y2109151D01*
X44837000Y2350849D01*
X44923000Y2350849D01*
X44923000Y2109151D01*
X44970153Y1872097D01*
X45062647Y1648798D01*
X45196927Y1447833D01*
X45367833Y1276927D01*
X45568798Y1142647D01*
X45792097Y1050153D01*
X46029151Y1003000D01*
X46270849Y1003000D01*
X46507903Y1050153D01*
X46731202Y1142647D01*
X46932167Y1276927D01*
X47103073Y1447833D01*
X47237353Y1648798D01*
X47329847Y1872097D01*
X47377000Y2109151D01*
X47377000Y2350849D01*
X47329847Y2587903D01*
X47237353Y2811202D01*
X47103073Y3012167D01*
X46932167Y3183073D01*
X46731202Y3317353D01*
X46692204Y3333507D01*
X46801199Y3371778D01*
X46950792Y3451739D01*
X47034475Y3705920D01*
X46150000Y4590395D01*
X45265525Y3705920D01*
X45349208Y3451739D01*
X45601142Y3330751D01*
X45568798Y3317353D01*
X45367833Y3183073D01*
X45196927Y3012167D01*
X45062647Y2811202D01*
X44970153Y2587903D01*
X44923000Y2350849D01*
X44837000Y2350849D01*
X44789847Y2587903D01*
X44697353Y2811202D01*
X44563073Y3012167D01*
X44392167Y3183073D01*
X44191202Y3317353D01*
X43967903Y3409847D01*
X43730849Y3457000D01*
X43489151Y3457000D01*
X43252097Y3409847D01*
X43028798Y3317353D01*
X42827833Y3183073D01*
X42656927Y3012167D01*
X42522647Y2811202D01*
X42506493Y2772204D01*
X42468222Y2881199D01*
X42388261Y3030792D01*
X42134080Y3114475D01*
X41249605Y2230000D01*
X40890395Y2230000D01*
X40005920Y3114475D01*
X39751739Y3030792D01*
X39630751Y2778858D01*
X39617353Y2811202D01*
X39483073Y3012167D01*
X39312167Y3183073D01*
X39111202Y3317353D01*
X38887903Y3409847D01*
X38650849Y3457000D01*
X38409151Y3457000D01*
X38172097Y3409847D01*
X37948798Y3317353D01*
X37747833Y3183073D01*
X37576927Y3012167D01*
X37442647Y2811202D01*
X37426493Y2772204D01*
X37388222Y2881199D01*
X37308261Y3030792D01*
X37054080Y3114475D01*
X36169605Y2230000D01*
X35810395Y2230000D01*
X34925920Y3114475D01*
X34671739Y3030792D01*
X34550751Y2778858D01*
X34537353Y2811202D01*
X34403073Y3012167D01*
X34232167Y3183073D01*
X34031202Y3317353D01*
X33807903Y3409847D01*
X33570849Y3457000D01*
X33329151Y3457000D01*
X33092097Y3409847D01*
X32868798Y3317353D01*
X32667833Y3183073D01*
X32496927Y3012167D01*
X32362647Y2811202D01*
X32270153Y2587903D01*
X32223000Y2350849D01*
X32137000Y2350849D01*
X32089847Y2587903D01*
X31997353Y2811202D01*
X31863073Y3012167D01*
X31692167Y3183073D01*
X31491202Y3317353D01*
X31267903Y3409847D01*
X31030849Y3457000D01*
X30789151Y3457000D01*
X30552097Y3409847D01*
X30328798Y3317353D01*
X30127833Y3183073D01*
X29956927Y3012167D01*
X29822647Y2811202D01*
X29730153Y2587903D01*
X29683000Y2350849D01*
X29597000Y2350849D01*
X29549847Y2587903D01*
X29457353Y2811202D01*
X29323073Y3012167D01*
X29152167Y3183073D01*
X28951202Y3317353D01*
X28912204Y3333507D01*
X29021199Y3371778D01*
X29170792Y3451739D01*
X29254475Y3705920D01*
X28370000Y4590395D01*
X27485525Y3705920D01*
X27569208Y3451739D01*
X27821142Y3330751D01*
X27788798Y3317353D01*
X27587833Y3183073D01*
X27416927Y3012167D01*
X27282647Y2811202D01*
X27190153Y2587903D01*
X27143000Y2350849D01*
X26949549Y2350849D01*
X27079166Y2771328D01*
X27152550Y3483590D01*
X27108684Y3950460D01*
X27305920Y3885525D01*
X28190395Y4770000D01*
X28549605Y4770000D01*
X29434080Y3885525D01*
X29688261Y3969208D01*
X29809249Y4221142D01*
X29822647Y4188798D01*
X29956927Y3987833D01*
X30127833Y3816927D01*
X30328798Y3682647D01*
X30552097Y3590153D01*
X30789151Y3543000D01*
X31030849Y3543000D01*
X31267903Y3590153D01*
X31491202Y3682647D01*
X31692167Y3816927D01*
X31863073Y3987833D01*
X31997353Y4188798D01*
X32089847Y4412097D01*
X32137000Y4649151D01*
X32137000Y4890849D01*
X32223000Y4890849D01*
X32223000Y4649151D01*
X32270153Y4412097D01*
X32362647Y4188798D01*
X32496927Y3987833D01*
X32667833Y3816927D01*
X32868798Y3682647D01*
X33092097Y3590153D01*
X33329151Y3543000D01*
X33570849Y3543000D01*
X33807903Y3590153D01*
X34031202Y3682647D01*
X34232167Y3816927D01*
X34403073Y3987833D01*
X34537353Y4188798D01*
X34629847Y4412097D01*
X34677000Y4649151D01*
X34677000Y4890849D01*
X34763000Y4890849D01*
X34763000Y4649151D01*
X34810153Y4412097D01*
X34902647Y4188798D01*
X35036927Y3987833D01*
X35207833Y3816927D01*
X35408798Y3682647D01*
X35447796Y3666493D01*
X35338801Y3628222D01*
X35189208Y3548261D01*
X35105525Y3294080D01*
X35990000Y2409605D01*
X36874475Y3294080D01*
X36790792Y3548261D01*
X36538858Y3669249D01*
X36571202Y3682647D01*
X36772167Y3816927D01*
X36943073Y3987833D01*
X37077353Y4188798D01*
X37169847Y4412097D01*
X37217000Y4649151D01*
X37217000Y4890849D01*
X37303000Y4890849D01*
X37303000Y4649151D01*
X37350153Y4412097D01*
X37442647Y4188798D01*
X37576927Y3987833D01*
X37747833Y3816927D01*
X37948798Y3682647D01*
X38172097Y3590153D01*
X38409151Y3543000D01*
X38650849Y3543000D01*
X38887903Y3590153D01*
X39111202Y3682647D01*
X39312167Y3816927D01*
X39483073Y3987833D01*
X39617353Y4188798D01*
X39709847Y4412097D01*
X39757000Y4649151D01*
X39757000Y4890849D01*
X39843000Y4890849D01*
X39843000Y4649151D01*
X39890153Y4412097D01*
X39982647Y4188798D01*
X40116927Y3987833D01*
X40287833Y3816927D01*
X40488798Y3682647D01*
X40527796Y3666493D01*
X40418801Y3628222D01*
X40269208Y3548261D01*
X40185525Y3294080D01*
X41070000Y2409605D01*
X41954475Y3294080D01*
X41870792Y3548261D01*
X41618858Y3669249D01*
X41651202Y3682647D01*
X41852167Y3816927D01*
X42023073Y3987833D01*
X42157353Y4188798D01*
X42249847Y4412097D01*
X42297000Y4649151D01*
X42297000Y4890849D01*
X42383000Y4890849D01*
X42383000Y4649151D01*
X42430153Y4412097D01*
X42522647Y4188798D01*
X42656927Y3987833D01*
X42827833Y3816927D01*
X43028798Y3682647D01*
X43252097Y3590153D01*
X43489151Y3543000D01*
X43730849Y3543000D01*
X43967903Y3590153D01*
X44191202Y3682647D01*
X44392167Y3816927D01*
X44563073Y3987833D01*
X44697353Y4188798D01*
X44713507Y4227796D01*
X44751778Y4118801D01*
X44831739Y3969208D01*
X45085920Y3885525D01*
X45970395Y4770000D01*
X45085920Y5654475D01*
X44831739Y5570792D01*
X44710751Y5318858D01*
X44697353Y5351202D01*
X44563073Y5552167D01*
X44392167Y5723073D01*
X44226033Y5834080D01*
X45265525Y5834080D01*
X46150000Y4949605D01*
X47034475Y5834080D01*
X46950792Y6088261D01*
X46678225Y6219158D01*
X46385358Y6294365D01*
X46083447Y6310991D01*
X45784093Y6268397D01*
X45498801Y6168222D01*
X45349208Y6088261D01*
X45265525Y5834080D01*
X44226033Y5834080D01*
X44191202Y5857353D01*
X43967903Y5949847D01*
X43730849Y5997000D01*
X43489151Y5997000D01*
X43252097Y5949847D01*
X43028798Y5857353D01*
X42827833Y5723073D01*
X42656927Y5552167D01*
X42522647Y5351202D01*
X42430153Y5127903D01*
X42383000Y4890849D01*
X42297000Y4890849D01*
X42249847Y5127903D01*
X42157353Y5351202D01*
X42023073Y5552167D01*
X41852167Y5723073D01*
X41651202Y5857353D01*
X41427903Y5949847D01*
X41190849Y5997000D01*
X40949151Y5997000D01*
X40712097Y5949847D01*
X40488798Y5857353D01*
X40287833Y5723073D01*
X40116927Y5552167D01*
X39982647Y5351202D01*
X39890153Y5127903D01*
X39843000Y4890849D01*
X39757000Y4890849D01*
X39709847Y5127903D01*
X39617353Y5351202D01*
X39483073Y5552167D01*
X39312167Y5723073D01*
X39111202Y5857353D01*
X38887903Y5949847D01*
X38650849Y5997000D01*
X38409151Y5997000D01*
X38172097Y5949847D01*
X37948798Y5857353D01*
X37747833Y5723073D01*
X37576927Y5552167D01*
X37442647Y5351202D01*
X37350153Y5127903D01*
X37303000Y4890849D01*
X37217000Y4890849D01*
X37169847Y5127903D01*
X37077353Y5351202D01*
X36943073Y5552167D01*
X36772167Y5723073D01*
X36571202Y5857353D01*
X36347903Y5949847D01*
X36110849Y5997000D01*
X35869151Y5997000D01*
X35632097Y5949847D01*
X35408798Y5857353D01*
X35207833Y5723073D01*
X35036927Y5552167D01*
X34902647Y5351202D01*
X34810153Y5127903D01*
X34763000Y4890849D01*
X34677000Y4890849D01*
X34629847Y5127903D01*
X34537353Y5351202D01*
X34403073Y5552167D01*
X34232167Y5723073D01*
X34031202Y5857353D01*
X33807903Y5949847D01*
X33570849Y5997000D01*
X33329151Y5997000D01*
X33092097Y5949847D01*
X32868798Y5857353D01*
X32667833Y5723073D01*
X32496927Y5552167D01*
X32362647Y5351202D01*
X32270153Y5127903D01*
X32223000Y4890849D01*
X32137000Y4890849D01*
X32089847Y5127903D01*
X31997353Y5351202D01*
X31863073Y5552167D01*
X31692167Y5723073D01*
X31491202Y5857353D01*
X31267903Y5949847D01*
X31030849Y5997000D01*
X30789151Y5997000D01*
X30552097Y5949847D01*
X30328798Y5857353D01*
X30127833Y5723073D01*
X29956927Y5552167D01*
X29822647Y5351202D01*
X29806493Y5312204D01*
X29768222Y5421199D01*
X29688261Y5570792D01*
X29434080Y5654475D01*
X28549605Y4770000D01*
X28190395Y4770000D01*
X27305920Y5654475D01*
X27051739Y5570792D01*
X26920842Y5298225D01*
X26845635Y5005358D01*
X26842830Y4954414D01*
X26546102Y5515604D01*
X26527868Y5542895D01*
X26121491Y5834080D01*
X27485525Y5834080D01*
X28370000Y4949605D01*
X29254475Y5834080D01*
X29170792Y6088261D01*
X28898225Y6219158D01*
X28605358Y6294365D01*
X28303447Y6310991D01*
X28004093Y6268397D01*
X27718801Y6168222D01*
X27569208Y6088261D01*
X27485525Y5834080D01*
X26121491Y5834080D01*
X26058686Y5879082D01*
X23679605Y3500001D01*
X23320395Y3500001D01*
X20941314Y5879082D01*
X20472132Y5542895D01*
X20131763Y4912933D01*
X19920834Y4228674D01*
X19847450Y3516412D01*
X577000Y3516412D01*
X577000Y42089754D01*
X9023000Y42089754D01*
X9023001Y13910245D01*
X9049436Y13641845D01*
X9153906Y13297454D01*
X9323556Y12980062D01*
X9551866Y12701865D01*
X9830063Y12473555D01*
X10147455Y12303905D01*
X10491846Y12199435D01*
X10850000Y12164160D01*
X11208155Y12199435D01*
X11552546Y12303905D01*
X11869938Y12473555D01*
X12148135Y12701865D01*
X12376445Y12980062D01*
X12546095Y13297454D01*
X12650565Y13641845D01*
X12677000Y13910245D01*
X12677000Y24899956D01*
X13370891Y24899956D01*
X13372956Y24878989D01*
X13372957Y16321021D01*
X13370891Y16300044D01*
X13372957Y16279067D01*
X13372957Y16279066D01*
X13379135Y16216337D01*
X13390379Y16179273D01*
X13403552Y16135848D01*
X13443201Y16061668D01*
X13483188Y16012944D01*
X13483193Y16012939D01*
X13496562Y15996649D01*
X13512852Y15983280D01*
X22500881Y6995249D01*
X22117391Y6880797D01*
X21484397Y6546103D01*
X21457106Y6527869D01*
X21120919Y6058687D01*
X23500000Y3679606D01*
X25879081Y6058687D01*
X25618037Y6423000D01*
X44126040Y6423000D01*
X44147104Y6317102D01*
X44194369Y6202995D01*
X44262986Y6100302D01*
X44350320Y6012968D01*
X44453013Y5944351D01*
X44567120Y5897086D01*
X44688255Y5872991D01*
X44811763Y5872991D01*
X44932898Y5897086D01*
X45047005Y5944351D01*
X45149698Y6012968D01*
X45237032Y6100302D01*
X45305649Y6202995D01*
X45352914Y6317102D01*
X45377009Y6438237D01*
X45377009Y6561745D01*
X45352914Y6682880D01*
X45305649Y6796987D01*
X45288268Y6823000D01*
X47323132Y6823000D01*
X48236062Y5910068D01*
X48108798Y5857353D01*
X47907833Y5723073D01*
X47736927Y5552167D01*
X47602647Y5351202D01*
X47586493Y5312204D01*
X47548222Y5421199D01*
X47468261Y5570792D01*
X47214080Y5654475D01*
X46329605Y4770000D01*
X47214080Y3885525D01*
X47468261Y3969208D01*
X47589249Y4221142D01*
X47602647Y4188798D01*
X47736927Y3987833D01*
X47907833Y3816927D01*
X48108798Y3682647D01*
X48332097Y3590153D01*
X48569151Y3543000D01*
X48810849Y3543000D01*
X49047903Y3590153D01*
X49271202Y3682647D01*
X49472167Y3816927D01*
X49523000Y3867760D01*
X49523000Y3666869D01*
X49202105Y3345974D01*
X49047903Y3409847D01*
X48810849Y3457000D01*
X48569151Y3457000D01*
X48332097Y3409847D01*
X48108798Y3317353D01*
X47907833Y3183073D01*
X47736927Y3012167D01*
X47602647Y2811202D01*
X47510153Y2587903D01*
X47463000Y2350849D01*
X47463000Y2109151D01*
X47510153Y1872097D01*
X47602647Y1648798D01*
X47736927Y1447833D01*
X47907833Y1276927D01*
X48108798Y1142647D01*
X48332097Y1050153D01*
X48569151Y1003000D01*
X48810849Y1003000D01*
X49047903Y1050153D01*
X49271202Y1142647D01*
X49472167Y1276927D01*
X49643073Y1447833D01*
X49777353Y1648798D01*
X49869847Y1872097D01*
X49917000Y2109151D01*
X49917000Y2350849D01*
X50003000Y2350849D01*
X50003000Y2109151D01*
X50050153Y1872097D01*
X50142647Y1648798D01*
X50276927Y1447833D01*
X50447833Y1276927D01*
X50648798Y1142647D01*
X50872097Y1050153D01*
X51109151Y1003000D01*
X51350849Y1003000D01*
X51587903Y1050153D01*
X51811202Y1142647D01*
X51846032Y1165920D01*
X52885525Y1165920D01*
X52969208Y911739D01*
X53241775Y780842D01*
X53534642Y705635D01*
X53836553Y689009D01*
X54135907Y731603D01*
X54421199Y831778D01*
X54570792Y911739D01*
X54654475Y1165920D01*
X53770000Y2050395D01*
X52885525Y1165920D01*
X51846032Y1165920D01*
X52012167Y1276927D01*
X52183073Y1447833D01*
X52317353Y1648798D01*
X52333507Y1687796D01*
X52371778Y1578801D01*
X52451739Y1429208D01*
X52705920Y1345525D01*
X53590395Y2230000D01*
X53949605Y2230000D01*
X54834080Y1345525D01*
X55088261Y1429208D01*
X55209249Y1681142D01*
X55222647Y1648798D01*
X55356927Y1447833D01*
X55527833Y1276927D01*
X55728798Y1142647D01*
X55952097Y1050153D01*
X56189151Y1003000D01*
X56430849Y1003000D01*
X56667903Y1050153D01*
X56891202Y1142647D01*
X57092167Y1276927D01*
X57263073Y1447833D01*
X57397353Y1648798D01*
X57489847Y1872097D01*
X57537000Y2109151D01*
X57537000Y2350849D01*
X57623000Y2350849D01*
X57623000Y2109151D01*
X57670153Y1872097D01*
X57762647Y1648798D01*
X57896927Y1447833D01*
X58067833Y1276927D01*
X58268798Y1142647D01*
X58492097Y1050153D01*
X58729151Y1003000D01*
X58970849Y1003000D01*
X59207903Y1050153D01*
X59431202Y1142647D01*
X59466032Y1165920D01*
X60505525Y1165920D01*
X60589208Y911739D01*
X60861775Y780842D01*
X61154642Y705635D01*
X61456553Y689009D01*
X61755907Y731603D01*
X62041199Y831778D01*
X62190792Y911739D01*
X62274475Y1165920D01*
X61390000Y2050395D01*
X60505525Y1165920D01*
X59466032Y1165920D01*
X59632167Y1276927D01*
X59803073Y1447833D01*
X59937353Y1648798D01*
X59953507Y1687796D01*
X59991778Y1578801D01*
X60071739Y1429208D01*
X60325920Y1345525D01*
X61210395Y2230000D01*
X61569605Y2230000D01*
X62454080Y1345525D01*
X62708261Y1429208D01*
X62829249Y1681142D01*
X62842647Y1648798D01*
X62976927Y1447833D01*
X63147833Y1276927D01*
X63348798Y1142647D01*
X63572097Y1050153D01*
X63809151Y1003000D01*
X64050849Y1003000D01*
X64287903Y1050153D01*
X64511202Y1142647D01*
X64712167Y1276927D01*
X64883073Y1447833D01*
X65017353Y1648798D01*
X65109847Y1872097D01*
X65157000Y2109151D01*
X65157000Y2350849D01*
X65243000Y2350849D01*
X65243000Y2109151D01*
X65290153Y1872097D01*
X65382647Y1648798D01*
X65516927Y1447833D01*
X65687833Y1276927D01*
X65888798Y1142647D01*
X66112097Y1050153D01*
X66349151Y1003000D01*
X66590849Y1003000D01*
X66827903Y1050153D01*
X67051202Y1142647D01*
X67252167Y1276927D01*
X67423073Y1447833D01*
X67557353Y1648798D01*
X67649847Y1872097D01*
X67697000Y2109151D01*
X67697000Y2350849D01*
X67783000Y2350849D01*
X67783000Y2109151D01*
X67830153Y1872097D01*
X67922647Y1648798D01*
X68056927Y1447833D01*
X68227833Y1276927D01*
X68428798Y1142647D01*
X68652097Y1050153D01*
X68889151Y1003000D01*
X69130849Y1003000D01*
X69367903Y1050153D01*
X69591202Y1142647D01*
X69626032Y1165920D01*
X70665525Y1165920D01*
X70749208Y911739D01*
X71021775Y780842D01*
X71314642Y705635D01*
X71616553Y689009D01*
X71915907Y731603D01*
X72201199Y831778D01*
X72350792Y911739D01*
X72434475Y1165920D01*
X71550000Y2050395D01*
X70665525Y1165920D01*
X69626032Y1165920D01*
X69792167Y1276927D01*
X69963073Y1447833D01*
X70097353Y1648798D01*
X70113507Y1687796D01*
X70151778Y1578801D01*
X70231739Y1429208D01*
X70485920Y1345525D01*
X71370395Y2230000D01*
X70485920Y3114475D01*
X70231739Y3030792D01*
X70110751Y2778858D01*
X70097353Y2811202D01*
X69963073Y3012167D01*
X69792167Y3183073D01*
X69591202Y3317353D01*
X69367903Y3409847D01*
X69130849Y3457000D01*
X68889151Y3457000D01*
X68652097Y3409847D01*
X68428798Y3317353D01*
X68227833Y3183073D01*
X68056927Y3012167D01*
X67922647Y2811202D01*
X67830153Y2587903D01*
X67783000Y2350849D01*
X67697000Y2350849D01*
X67649847Y2587903D01*
X67557353Y2811202D01*
X67423073Y3012167D01*
X67252167Y3183073D01*
X67051202Y3317353D01*
X67012204Y3333507D01*
X67121199Y3371778D01*
X67270792Y3451739D01*
X67354475Y3705920D01*
X66470000Y4590395D01*
X65585525Y3705920D01*
X65669208Y3451739D01*
X65921142Y3330751D01*
X65888798Y3317353D01*
X65687833Y3183073D01*
X65516927Y3012167D01*
X65382647Y2811202D01*
X65290153Y2587903D01*
X65243000Y2350849D01*
X65157000Y2350849D01*
X65109847Y2587903D01*
X65017353Y2811202D01*
X64883073Y3012167D01*
X64712167Y3183073D01*
X64511202Y3317353D01*
X64287903Y3409847D01*
X64050849Y3457000D01*
X63809151Y3457000D01*
X63572097Y3409847D01*
X63348798Y3317353D01*
X63147833Y3183073D01*
X62976927Y3012167D01*
X62842647Y2811202D01*
X62826493Y2772204D01*
X62788222Y2881199D01*
X62708261Y3030792D01*
X62454080Y3114475D01*
X61569605Y2230000D01*
X61210395Y2230000D01*
X60325920Y3114475D01*
X60071739Y3030792D01*
X59950751Y2778858D01*
X59937353Y2811202D01*
X59803073Y3012167D01*
X59632167Y3183073D01*
X59431202Y3317353D01*
X59207903Y3409847D01*
X58970849Y3457000D01*
X58729151Y3457000D01*
X58492097Y3409847D01*
X58268798Y3317353D01*
X58067833Y3183073D01*
X57896927Y3012167D01*
X57762647Y2811202D01*
X57670153Y2587903D01*
X57623000Y2350849D01*
X57537000Y2350849D01*
X57489847Y2587903D01*
X57397353Y2811202D01*
X57263073Y3012167D01*
X57092167Y3183073D01*
X56891202Y3317353D01*
X56667903Y3409847D01*
X56430849Y3457000D01*
X56189151Y3457000D01*
X55952097Y3409847D01*
X55728798Y3317353D01*
X55527833Y3183073D01*
X55356927Y3012167D01*
X55222647Y2811202D01*
X55206493Y2772204D01*
X55168222Y2881199D01*
X55088261Y3030792D01*
X54834080Y3114475D01*
X53949605Y2230000D01*
X53590395Y2230000D01*
X52705920Y3114475D01*
X52451739Y3030792D01*
X52330751Y2778858D01*
X52317353Y2811202D01*
X52183073Y3012167D01*
X52012167Y3183073D01*
X51811202Y3317353D01*
X51587903Y3409847D01*
X51350849Y3457000D01*
X51109151Y3457000D01*
X50872097Y3409847D01*
X50648798Y3317353D01*
X50447833Y3183073D01*
X50276927Y3012167D01*
X50142647Y2811202D01*
X50050153Y2587903D01*
X50003000Y2350849D01*
X49917000Y2350849D01*
X49869847Y2587903D01*
X49805974Y2742105D01*
X50237106Y3173237D01*
X50253395Y3186605D01*
X50266764Y3202895D01*
X50266768Y3202899D01*
X50306755Y3251623D01*
X50329448Y3294080D01*
X50346405Y3325804D01*
X50370822Y3406293D01*
X50377000Y3469022D01*
X50377000Y3469032D01*
X50379065Y3489999D01*
X50377000Y3510966D01*
X50377000Y3887760D01*
X50447833Y3816927D01*
X50648798Y3682647D01*
X50872097Y3590153D01*
X51109151Y3543000D01*
X51350849Y3543000D01*
X51587903Y3590153D01*
X51811202Y3682647D01*
X52012167Y3816927D01*
X52183073Y3987833D01*
X52317353Y4188798D01*
X52409847Y4412097D01*
X52457000Y4649151D01*
X52457000Y4890849D01*
X52409847Y5127903D01*
X52317353Y5351202D01*
X52183073Y5552167D01*
X52012167Y5723073D01*
X51862615Y5823000D01*
X53137385Y5823000D01*
X52987833Y5723073D01*
X52816927Y5552167D01*
X52682647Y5351202D01*
X52590153Y5127903D01*
X52543000Y4890849D01*
X52543000Y4649151D01*
X52590153Y4412097D01*
X52682647Y4188798D01*
X52816927Y3987833D01*
X52987833Y3816927D01*
X53188798Y3682647D01*
X53227796Y3666493D01*
X53118801Y3628222D01*
X52969208Y3548261D01*
X52885525Y3294080D01*
X53770000Y2409605D01*
X54654475Y3294080D01*
X54570792Y3548261D01*
X54318858Y3669249D01*
X54351202Y3682647D01*
X54552167Y3816927D01*
X54723073Y3987833D01*
X54857353Y4188798D01*
X54949847Y4412097D01*
X54997000Y4649151D01*
X54997000Y4890849D01*
X54949847Y5127903D01*
X54857353Y5351202D01*
X54723073Y5552167D01*
X54552167Y5723073D01*
X54402615Y5823000D01*
X55677385Y5823000D01*
X55527833Y5723073D01*
X55356927Y5552167D01*
X55222647Y5351202D01*
X55130153Y5127903D01*
X55083000Y4890849D01*
X55083000Y4649151D01*
X55130153Y4412097D01*
X55222647Y4188798D01*
X55356927Y3987833D01*
X55527833Y3816927D01*
X55728798Y3682647D01*
X55952097Y3590153D01*
X56189151Y3543000D01*
X56430849Y3543000D01*
X56667903Y3590153D01*
X56891202Y3682647D01*
X57092167Y3816927D01*
X57263073Y3987833D01*
X57397353Y4188798D01*
X57489847Y4412097D01*
X57537000Y4649151D01*
X57537000Y4890849D01*
X57489847Y5127903D01*
X57397353Y5351202D01*
X57263073Y5552167D01*
X57092167Y5723073D01*
X56942615Y5823000D01*
X57193132Y5823000D01*
X57734026Y5282105D01*
X57670153Y5127903D01*
X57623000Y4890849D01*
X57623000Y4649151D01*
X57670153Y4412097D01*
X57762647Y4188798D01*
X57896927Y3987833D01*
X58067833Y3816927D01*
X58268798Y3682647D01*
X58492097Y3590153D01*
X58729151Y3543000D01*
X58970849Y3543000D01*
X59207903Y3590153D01*
X59431202Y3682647D01*
X59632167Y3816927D01*
X59803073Y3987833D01*
X59937353Y4188798D01*
X60029847Y4412097D01*
X60077000Y4649151D01*
X60077000Y4890849D01*
X60029847Y5127903D01*
X59937353Y5351202D01*
X59803073Y5552167D01*
X59632167Y5723073D01*
X59431202Y5857353D01*
X59207903Y5949847D01*
X58970849Y5997000D01*
X58729151Y5997000D01*
X58492097Y5949847D01*
X58337895Y5885974D01*
X57900868Y6323000D01*
X59233132Y6323000D01*
X60202900Y5353231D01*
X60202905Y5353227D01*
X60274026Y5282106D01*
X60210153Y5127903D01*
X60163000Y4890849D01*
X60163000Y4649151D01*
X60210153Y4412097D01*
X60302647Y4188798D01*
X60436927Y3987833D01*
X60607833Y3816927D01*
X60808798Y3682647D01*
X60847796Y3666493D01*
X60738801Y3628222D01*
X60589208Y3548261D01*
X60505525Y3294080D01*
X61390000Y2409605D01*
X62274475Y3294080D01*
X62190792Y3548261D01*
X61938858Y3669249D01*
X61971202Y3682647D01*
X62172167Y3816927D01*
X62343073Y3987833D01*
X62477353Y4188798D01*
X62569847Y4412097D01*
X62617000Y4649151D01*
X62617000Y4890849D01*
X62703000Y4890849D01*
X62703000Y4649151D01*
X62750153Y4412097D01*
X62842647Y4188798D01*
X62976927Y3987833D01*
X63147833Y3816927D01*
X63348798Y3682647D01*
X63572097Y3590153D01*
X63809151Y3543000D01*
X64050849Y3543000D01*
X64287903Y3590153D01*
X64511202Y3682647D01*
X64712167Y3816927D01*
X64883073Y3987833D01*
X65017353Y4188798D01*
X65033507Y4227796D01*
X65071778Y4118801D01*
X65151739Y3969208D01*
X65405920Y3885525D01*
X66290395Y4770000D01*
X66649605Y4770000D01*
X67534080Y3885525D01*
X67788261Y3969208D01*
X67909249Y4221142D01*
X67922647Y4188798D01*
X68056927Y3987833D01*
X68227833Y3816927D01*
X68428798Y3682647D01*
X68652097Y3590153D01*
X68889151Y3543000D01*
X69130849Y3543000D01*
X69367903Y3590153D01*
X69591202Y3682647D01*
X69792167Y3816927D01*
X69963073Y3987833D01*
X70097353Y4188798D01*
X70189847Y4412097D01*
X70237000Y4649151D01*
X70237000Y4890849D01*
X70323000Y4890849D01*
X70323000Y4649151D01*
X70370153Y4412097D01*
X70462647Y4188798D01*
X70596927Y3987833D01*
X70767833Y3816927D01*
X70968798Y3682647D01*
X71007796Y3666493D01*
X70898801Y3628222D01*
X70749208Y3548261D01*
X70665525Y3294080D01*
X71550000Y2409605D01*
X72434475Y3294080D01*
X72350792Y3548261D01*
X72098858Y3669249D01*
X72131202Y3682647D01*
X72332167Y3816927D01*
X72503073Y3987833D01*
X72637353Y4188798D01*
X72729847Y4412097D01*
X72777000Y4649151D01*
X72777000Y4890849D01*
X72729847Y5127903D01*
X72637353Y5351202D01*
X72503073Y5552167D01*
X72332167Y5723073D01*
X72131202Y5857353D01*
X71907903Y5949847D01*
X71670849Y5997000D01*
X71429151Y5997000D01*
X71192097Y5949847D01*
X70968798Y5857353D01*
X70767833Y5723073D01*
X70596927Y5552167D01*
X70462647Y5351202D01*
X70370153Y5127903D01*
X70323000Y4890849D01*
X70237000Y4890849D01*
X70189847Y5127903D01*
X70097353Y5351202D01*
X69963073Y5552167D01*
X69792167Y5723073D01*
X69591202Y5857353D01*
X69367903Y5949847D01*
X69130849Y5997000D01*
X68889151Y5997000D01*
X68652097Y5949847D01*
X68428798Y5857353D01*
X68227833Y5723073D01*
X68056927Y5552167D01*
X67922647Y5351202D01*
X67906493Y5312204D01*
X67868222Y5421199D01*
X67788261Y5570792D01*
X67534080Y5654475D01*
X66649605Y4770000D01*
X66290395Y4770000D01*
X65405920Y5654475D01*
X65151739Y5570792D01*
X65030751Y5318858D01*
X65017353Y5351202D01*
X64883073Y5552167D01*
X64712167Y5723073D01*
X64546033Y5834080D01*
X65585525Y5834080D01*
X66470000Y4949605D01*
X67354475Y5834080D01*
X67270792Y6088261D01*
X66998225Y6219158D01*
X66705358Y6294365D01*
X66403447Y6310991D01*
X66104093Y6268397D01*
X65818801Y6168222D01*
X65669208Y6088261D01*
X65585525Y5834080D01*
X64546033Y5834080D01*
X64511202Y5857353D01*
X64287903Y5949847D01*
X64050849Y5997000D01*
X63809151Y5997000D01*
X63572097Y5949847D01*
X63348798Y5857353D01*
X63147833Y5723073D01*
X62976927Y5552167D01*
X62842647Y5351202D01*
X62750153Y5127903D01*
X62703000Y4890849D01*
X62617000Y4890849D01*
X62569847Y5127903D01*
X62477353Y5351202D01*
X62343073Y5552167D01*
X62172167Y5723073D01*
X61971202Y5857353D01*
X61747903Y5949847D01*
X61510849Y5997000D01*
X61269151Y5997000D01*
X61032097Y5949847D01*
X60877894Y5885974D01*
X60806773Y5957095D01*
X60806769Y5957100D01*
X59726767Y7037101D01*
X59713395Y7053395D01*
X59648376Y7106755D01*
X59574196Y7146405D01*
X59493707Y7170822D01*
X59430978Y7177000D01*
X59430967Y7177000D01*
X59410000Y7179065D01*
X59389033Y7177000D01*
X50426869Y7177000D01*
X48866734Y8737134D01*
X48853362Y8753428D01*
X48788343Y8806788D01*
X48714163Y8846438D01*
X48633674Y8870855D01*
X48570945Y8877033D01*
X48570934Y8877033D01*
X48549967Y8879098D01*
X48529000Y8877033D01*
X24089636Y8877033D01*
X19252082Y13714587D01*
X66144192Y13714587D01*
X66239956Y13450186D01*
X66529571Y13309296D01*
X66841108Y13227616D01*
X67162595Y13208282D01*
X67481675Y13252039D01*
X67786088Y13357205D01*
X67960044Y13450186D01*
X68055808Y13714587D01*
X67100000Y14670395D01*
X66144192Y13714587D01*
X19252082Y13714587D01*
X18179264Y14787405D01*
X65458282Y14787405D01*
X65502039Y14468325D01*
X65607205Y14163912D01*
X65700186Y13989956D01*
X65964587Y13894192D01*
X66920395Y14850000D01*
X67279605Y14850000D01*
X68235413Y13894192D01*
X68499814Y13989956D01*
X68640704Y14279571D01*
X68722384Y14591108D01*
X68741718Y14912595D01*
X68697961Y15231675D01*
X68592795Y15536088D01*
X68499814Y15710044D01*
X68235413Y15805808D01*
X67279605Y14850000D01*
X66920395Y14850000D01*
X65964587Y15805808D01*
X65700186Y15710044D01*
X65559296Y15420429D01*
X65477616Y15108892D01*
X65458282Y14787405D01*
X18179264Y14787405D01*
X16981256Y15985413D01*
X66144192Y15985413D01*
X67100000Y15029605D01*
X68055808Y15985413D01*
X67960044Y16249814D01*
X67670429Y16390704D01*
X67358892Y16472384D01*
X67037405Y16491718D01*
X66718325Y16447961D01*
X66413912Y16342795D01*
X66239956Y16249814D01*
X66144192Y15985413D01*
X16981256Y15985413D01*
X15827000Y17139668D01*
X15827000Y24023132D01*
X16625285Y24821416D01*
X18783456Y24821416D01*
X18783456Y24598416D01*
X18789770Y24534313D01*
X18800659Y24498416D01*
X18789770Y24462519D01*
X18783456Y24398416D01*
X18783456Y24098416D01*
X18789770Y24034313D01*
X18800659Y23998416D01*
X18789770Y23962519D01*
X18783456Y23898416D01*
X18783456Y23598416D01*
X18789770Y23534313D01*
X18800659Y23498416D01*
X18789770Y23462519D01*
X18783456Y23398416D01*
X18783456Y23098416D01*
X18789770Y23034313D01*
X18800659Y22998416D01*
X18789770Y22962519D01*
X18783456Y22898416D01*
X18783456Y22598416D01*
X18789770Y22534313D01*
X18800659Y22498416D01*
X18789770Y22462519D01*
X18788136Y22445934D01*
X18766529Y22434848D01*
X18668515Y22357136D01*
X18587546Y22261794D01*
X18526732Y22152489D01*
X18488412Y22033419D01*
X18477038Y21930166D01*
X18635788Y21771416D01*
X19095977Y21771416D01*
X19112038Y21769834D01*
X19884038Y21769834D01*
X19884038Y21726998D01*
X19112038Y21726998D01*
X19095977Y21725416D01*
X18635788Y21725416D01*
X18477038Y21566666D01*
X18488412Y21463413D01*
X18526732Y21344343D01*
X18580103Y21248416D01*
X18526732Y21152489D01*
X18488412Y21033419D01*
X18477745Y20936584D01*
X18385960Y20936584D01*
X18385960Y20777836D01*
X18227212Y20936584D01*
X17712962Y20939656D01*
X17588480Y20927396D01*
X17468782Y20891086D01*
X17358468Y20832121D01*
X17261777Y20752769D01*
X17182425Y20656078D01*
X17123460Y20545764D01*
X17087150Y20426066D01*
X17074890Y20301584D01*
X17077962Y20187334D01*
X17161309Y20103987D01*
X17118782Y20091086D01*
X17008468Y20032121D01*
X16911777Y19952769D01*
X16832425Y19856078D01*
X16805962Y19806570D01*
X16805962Y19977834D01*
X16647212Y20136584D01*
X16507962Y20139656D01*
X16383480Y20127396D01*
X16263782Y20091086D01*
X16153468Y20032121D01*
X16056777Y19952769D01*
X15977425Y19856078D01*
X15918460Y19745764D01*
X15882150Y19626066D01*
X15869890Y19501584D01*
X15872962Y19137334D01*
X16031712Y18978584D01*
X16726647Y18978584D01*
X16727501Y18724584D01*
X16031712Y18724584D01*
X15872962Y18565834D01*
X15869890Y18201584D01*
X15882150Y18077102D01*
X15918460Y17957404D01*
X15977425Y17847090D01*
X16056777Y17750399D01*
X16153468Y17671047D01*
X16263782Y17612082D01*
X16383480Y17575772D01*
X16507962Y17563512D01*
X16647212Y17566584D01*
X16726720Y17646092D01*
X16724890Y17101584D01*
X16737150Y16977102D01*
X16773460Y16857404D01*
X16832425Y16747090D01*
X16911777Y16650399D01*
X17008468Y16571047D01*
X17118782Y16512082D01*
X17238480Y16475772D01*
X17362962Y16463512D01*
X18177212Y16466584D01*
X18335962Y16625334D01*
X18335962Y18174584D01*
X18589962Y18174584D01*
X18589962Y16625334D01*
X18748712Y16466584D01*
X19562962Y16463512D01*
X19687444Y16475772D01*
X19807142Y16512082D01*
X19917456Y16571047D01*
X20014147Y16650399D01*
X20093499Y16747090D01*
X20152464Y16857404D01*
X20188774Y16977102D01*
X20201034Y17101584D01*
X20197962Y18015834D01*
X20039212Y18174584D01*
X18589962Y18174584D01*
X18335962Y18174584D01*
X18315962Y18174584D01*
X18315962Y18428584D01*
X18335962Y18428584D01*
X18335962Y18975334D01*
X18385962Y19025334D01*
X18385962Y19774584D01*
X18365962Y19774584D01*
X18365962Y20028584D01*
X18385962Y20028584D01*
X18385962Y20048584D01*
X18639962Y20048584D01*
X18639962Y20028584D01*
X18640712Y20028584D01*
X18589962Y19977834D01*
X18589962Y18428584D01*
X20039212Y18428584D01*
X20197962Y18587334D01*
X20201034Y19501584D01*
X20188774Y19626066D01*
X20152464Y19745764D01*
X20093499Y19856078D01*
X20014147Y19952769D01*
X19947962Y20007085D01*
X19947962Y20028586D01*
X19921763Y20028586D01*
X19917456Y20032121D01*
X19864040Y20060673D01*
X19864040Y20103412D01*
X19873416Y20112788D01*
X20022788Y19963416D01*
X20351292Y19960434D01*
X20475963Y19970597D01*
X20596255Y20004886D01*
X20707547Y20061984D01*
X20805561Y20139696D01*
X20886530Y20235038D01*
X20947344Y20344343D01*
X20985664Y20463413D01*
X20997038Y20566666D01*
X20838288Y20725416D01*
X19864038Y20725416D01*
X19864038Y20617653D01*
X19843499Y20656078D01*
X19764147Y20752769D01*
X19743353Y20769834D01*
X20362038Y20769834D01*
X20378099Y20771416D01*
X20838288Y20771416D01*
X20997038Y20930166D01*
X20985664Y21033419D01*
X20947344Y21152489D01*
X20893973Y21248416D01*
X20947344Y21344343D01*
X20972773Y21423358D01*
X21183236Y21212895D01*
X21196605Y21196605D01*
X21212895Y21183236D01*
X21212899Y21183232D01*
X21261623Y21143245D01*
X21295758Y21125000D01*
X21335804Y21103595D01*
X21416293Y21079178D01*
X21479022Y21073000D01*
X21479032Y21073000D01*
X21499999Y21070935D01*
X21520966Y21073000D01*
X21776540Y21073000D01*
X21777732Y21060897D01*
X21796430Y20999257D01*
X21826794Y20942450D01*
X21867657Y20892657D01*
X21917450Y20851794D01*
X21974257Y20821430D01*
X22035897Y20802732D01*
X22073000Y20799077D01*
X22073001Y20700923D01*
X22035897Y20697268D01*
X21974257Y20678570D01*
X21917450Y20648206D01*
X21867657Y20607343D01*
X21826794Y20557550D01*
X21796430Y20500743D01*
X21777732Y20439103D01*
X21771418Y20375000D01*
X21771418Y19625000D01*
X21777732Y19560897D01*
X21796430Y19499257D01*
X21826794Y19442450D01*
X21867657Y19392657D01*
X21917450Y19351794D01*
X21974257Y19321430D01*
X22035897Y19302732D01*
X22100000Y19296418D01*
X22900000Y19296418D01*
X22964103Y19302732D01*
X23025743Y19321430D01*
X23038577Y19328290D01*
X23069463Y19270506D01*
X23148815Y19173815D01*
X23245506Y19094463D01*
X23355820Y19035498D01*
X23475518Y18999188D01*
X23600000Y18986928D01*
X23714250Y18990000D01*
X23873000Y19148750D01*
X23873000Y19873000D01*
X24127000Y19873000D01*
X24127000Y19148750D01*
X24285750Y18990000D01*
X24400000Y18986928D01*
X24524482Y18999188D01*
X24644180Y19035498D01*
X24754494Y19094463D01*
X24851185Y19173815D01*
X24930537Y19270506D01*
X24989502Y19380820D01*
X25025812Y19500518D01*
X25038072Y19625000D01*
X25035000Y19714250D01*
X24876250Y19873000D01*
X24127000Y19873000D01*
X23873000Y19873000D01*
X23853000Y19873000D01*
X23853000Y20127000D01*
X23873000Y20127000D01*
X23873000Y21373000D01*
X24127000Y21373000D01*
X24127000Y20127000D01*
X24876250Y20127000D01*
X25035000Y20285750D01*
X25038072Y20375000D01*
X25025812Y20499482D01*
X24989502Y20619180D01*
X24930537Y20729494D01*
X24913708Y20750000D01*
X24930537Y20770506D01*
X24989502Y20880820D01*
X25025812Y21000518D01*
X25038072Y21125000D01*
X25035000Y21214250D01*
X24876250Y21373000D01*
X24127000Y21373000D01*
X23873000Y21373000D01*
X23853000Y21373000D01*
X23853000Y21627000D01*
X23873000Y21627000D01*
X23873000Y21647000D01*
X24127000Y21647000D01*
X24127000Y21627000D01*
X24876250Y21627000D01*
X25035000Y21785750D01*
X25035756Y21807721D01*
X25104494Y21844463D01*
X25177731Y21904567D01*
X59073000Y21904567D01*
X59073000Y21495433D01*
X59152818Y21094161D01*
X59309386Y20716171D01*
X59536689Y20375989D01*
X59825989Y20086689D01*
X60166171Y19859386D01*
X60544161Y19702818D01*
X60945433Y19623000D01*
X61354567Y19623000D01*
X61755839Y19702818D01*
X62133829Y19859386D01*
X62474011Y20086689D01*
X62763311Y20375989D01*
X62990614Y20716171D01*
X63147182Y21094161D01*
X63227000Y21495433D01*
X63227000Y21904567D01*
X63147182Y22305839D01*
X62990614Y22683829D01*
X62763311Y23024011D01*
X62474011Y23313311D01*
X62133829Y23540614D01*
X61755839Y23697182D01*
X61354567Y23777000D01*
X60945433Y23777000D01*
X60544161Y23697182D01*
X60166171Y23540614D01*
X59825989Y23313311D01*
X59536689Y23024011D01*
X59309386Y22683829D01*
X59152818Y22305839D01*
X59073000Y21904567D01*
X25177731Y21904567D01*
X25201185Y21923815D01*
X25280537Y22020506D01*
X25339502Y22130820D01*
X25375812Y22250518D01*
X25388072Y22375000D01*
X25385000Y22714250D01*
X25226250Y22873000D01*
X24377000Y22873000D01*
X24377000Y22853000D01*
X24123000Y22853000D01*
X24123000Y22873000D01*
X23273750Y22873000D01*
X23115000Y22714250D01*
X23111928Y22375000D01*
X23120173Y22291284D01*
X23069463Y22229494D01*
X23038577Y22171710D01*
X23025743Y22178570D01*
X23014591Y22181953D01*
X23023206Y22192450D01*
X23053570Y22249257D01*
X23072268Y22310897D01*
X23078582Y22375000D01*
X23078582Y23623000D01*
X23111946Y23623000D01*
X23115000Y23285750D01*
X23273750Y23127000D01*
X24123000Y23127000D01*
X24123000Y23147000D01*
X24377000Y23147000D01*
X24377000Y23127000D01*
X25226250Y23127000D01*
X25385000Y23285750D01*
X25388054Y23623000D01*
X45729033Y23623000D01*
X45750000Y23620935D01*
X45770967Y23623000D01*
X45770978Y23623000D01*
X45833707Y23629178D01*
X45914196Y23653595D01*
X45988376Y23693245D01*
X46053395Y23746605D01*
X46066768Y23762900D01*
X49289281Y26985413D01*
X71694192Y26985413D01*
X72650000Y26029605D01*
X73605808Y26985413D01*
X73510044Y27249814D01*
X73220429Y27390704D01*
X72908892Y27472384D01*
X72587405Y27491718D01*
X72268325Y27447961D01*
X71963912Y27342795D01*
X71789956Y27249814D01*
X71694192Y26985413D01*
X49289281Y26985413D01*
X58676869Y36373000D01*
X62879033Y36373000D01*
X62900000Y36370935D01*
X62920967Y36373000D01*
X62920978Y36373000D01*
X62983707Y36379178D01*
X63064196Y36403595D01*
X63138376Y36443245D01*
X63203395Y36496605D01*
X63216768Y36512900D01*
X65625000Y38921131D01*
X65783236Y38762895D01*
X65796605Y38746605D01*
X65812895Y38733236D01*
X65812899Y38733232D01*
X65861623Y38693244D01*
X65918538Y38662824D01*
X65935804Y38653595D01*
X66016293Y38629178D01*
X66079022Y38623000D01*
X66079033Y38623000D01*
X66100000Y38620935D01*
X66120967Y38623000D01*
X66124077Y38623000D01*
X66127732Y38585897D01*
X66146430Y38524257D01*
X66176794Y38467450D01*
X66217657Y38417657D01*
X66267450Y38376794D01*
X66324257Y38346430D01*
X66385897Y38327732D01*
X66450000Y38321418D01*
X67350000Y38321418D01*
X67414103Y38327732D01*
X67475743Y38346430D01*
X67532550Y38376794D01*
X67582343Y38417657D01*
X67623206Y38467450D01*
X67653570Y38524257D01*
X67672268Y38585897D01*
X67678582Y38650000D01*
X67678582Y39450000D01*
X67672268Y39514103D01*
X67653570Y39575743D01*
X67623206Y39632550D01*
X67582343Y39682343D01*
X67532550Y39723206D01*
X67475743Y39753570D01*
X67414103Y39772268D01*
X67350000Y39778582D01*
X66450000Y39778582D01*
X66385897Y39772268D01*
X66324257Y39753570D01*
X66267450Y39723206D01*
X66228582Y39691309D01*
X66228582Y39704424D01*
X66240742Y39710527D01*
X66339441Y39787369D01*
X66421252Y39881988D01*
X66438881Y39913023D01*
X66450000Y39911928D01*
X66614250Y39915000D01*
X66773000Y40073750D01*
X66773000Y40823000D01*
X67027000Y40823000D01*
X67027000Y40073750D01*
X67185750Y39915000D01*
X67350000Y39911928D01*
X67474482Y39924188D01*
X67594180Y39960498D01*
X67704494Y40019463D01*
X67801185Y40098815D01*
X67880537Y40195506D01*
X67939502Y40305820D01*
X67968071Y40400000D01*
X68121418Y40400000D01*
X68121418Y39600000D01*
X68127732Y39535897D01*
X68146430Y39474257D01*
X68176794Y39417450D01*
X68217657Y39367657D01*
X68267450Y39326794D01*
X68324257Y39296430D01*
X68385897Y39277732D01*
X68450000Y39271418D01*
X69350000Y39271418D01*
X69414103Y39277732D01*
X69475743Y39296430D01*
X69532550Y39326794D01*
X69582343Y39367657D01*
X69623206Y39417450D01*
X69653570Y39474257D01*
X69672268Y39535897D01*
X69675923Y39573000D01*
X69746418Y39573000D01*
X69746418Y39250000D01*
X69752732Y39185897D01*
X69771430Y39124257D01*
X69801794Y39067450D01*
X69842657Y39017657D01*
X69892450Y38976794D01*
X69949257Y38946430D01*
X70010897Y38927732D01*
X70075000Y38921418D01*
X71575000Y38921418D01*
X71639103Y38927732D01*
X71700743Y38946430D01*
X71757550Y38976794D01*
X71807343Y39017657D01*
X71848206Y39067450D01*
X71878570Y39124257D01*
X71897268Y39185897D01*
X71903582Y39250000D01*
X71903582Y40750000D01*
X71897268Y40814103D01*
X71878570Y40875743D01*
X71848206Y40932550D01*
X71807343Y40982343D01*
X71757550Y41023206D01*
X71700743Y41053570D01*
X71639103Y41072268D01*
X71575000Y41078582D01*
X70075000Y41078582D01*
X70010897Y41072268D01*
X69949257Y41053570D01*
X69892450Y41023206D01*
X69842657Y40982343D01*
X69801794Y40932550D01*
X69771430Y40875743D01*
X69752732Y40814103D01*
X69746418Y40750000D01*
X69746418Y40427000D01*
X69675923Y40427000D01*
X69672268Y40464103D01*
X69653570Y40525743D01*
X69623206Y40582550D01*
X69582343Y40632343D01*
X69532550Y40673206D01*
X69475743Y40703570D01*
X69414103Y40722268D01*
X69350000Y40728582D01*
X68450000Y40728582D01*
X68385897Y40722268D01*
X68324257Y40703570D01*
X68267450Y40673206D01*
X68217657Y40632343D01*
X68176794Y40582550D01*
X68146430Y40525743D01*
X68127732Y40464103D01*
X68121418Y40400000D01*
X67968071Y40400000D01*
X67975812Y40425518D01*
X67988072Y40550000D01*
X67985000Y40664250D01*
X67826250Y40823000D01*
X67027000Y40823000D01*
X66773000Y40823000D01*
X66753000Y40823000D01*
X66753000Y41077000D01*
X66773000Y41077000D01*
X66773000Y41826250D01*
X67027000Y41826250D01*
X67027000Y41077000D01*
X67826250Y41077000D01*
X67985000Y41235750D01*
X67988072Y41350000D01*
X67975812Y41474482D01*
X67939502Y41594180D01*
X67880537Y41704494D01*
X67801185Y41801185D01*
X67704494Y41880537D01*
X67594180Y41939502D01*
X67474482Y41975812D01*
X67350000Y41988072D01*
X67185750Y41985000D01*
X67027000Y41826250D01*
X66773000Y41826250D01*
X66614250Y41985000D01*
X66450000Y41988072D01*
X66325518Y41975812D01*
X66205820Y41939502D01*
X66095506Y41880537D01*
X65998815Y41801185D01*
X65919463Y41704494D01*
X65860498Y41594180D01*
X65824188Y41474482D01*
X65811928Y41350000D01*
X65815000Y41235750D01*
X65825750Y41225000D01*
X65727000Y41126250D01*
X65727000Y40523000D01*
X65747000Y40523000D01*
X65747000Y40377000D01*
X65727000Y40377000D01*
X65727000Y40303000D01*
X65473000Y40303000D01*
X65473000Y40377000D01*
X64823750Y40377000D01*
X64665000Y40218250D01*
X64677594Y40109476D01*
X64716968Y39990751D01*
X64778748Y39881988D01*
X64860559Y39787369D01*
X64959258Y39710527D01*
X64971418Y39704424D01*
X64971418Y39475287D01*
X62723132Y37227000D01*
X58520967Y37227000D01*
X58500000Y37229065D01*
X58479033Y37227000D01*
X58479022Y37227000D01*
X58416293Y37220822D01*
X58335804Y37196405D01*
X58301273Y37177948D01*
X58261623Y37156755D01*
X58212899Y37116768D01*
X58212895Y37116764D01*
X58196605Y37103395D01*
X58183236Y37087105D01*
X56127000Y35030869D01*
X56127000Y38623000D01*
X56224077Y38623000D01*
X56227732Y38585897D01*
X56246430Y38524257D01*
X56276794Y38467450D01*
X56317657Y38417657D01*
X56367450Y38376794D01*
X56424257Y38346430D01*
X56485897Y38327732D01*
X56550000Y38321418D01*
X57450000Y38321418D01*
X57514103Y38327732D01*
X57575743Y38346430D01*
X57632550Y38376794D01*
X57682343Y38417657D01*
X57723206Y38467450D01*
X57753570Y38524257D01*
X57772268Y38585897D01*
X57778582Y38650000D01*
X57778582Y39450000D01*
X57772268Y39514103D01*
X57753570Y39575743D01*
X57723206Y39632550D01*
X57682343Y39682343D01*
X57632550Y39723206D01*
X57575743Y39753570D01*
X57514103Y39772268D01*
X57450000Y39778582D01*
X56550000Y39778582D01*
X56515357Y39775170D01*
X56521252Y39781988D01*
X56583032Y39890751D01*
X56590305Y39912682D01*
X56714250Y39915000D01*
X56873000Y40073750D01*
X56873000Y40823000D01*
X57127000Y40823000D01*
X57127000Y40073750D01*
X57285750Y39915000D01*
X57450000Y39911928D01*
X57574482Y39924188D01*
X57694180Y39960498D01*
X57804494Y40019463D01*
X57901185Y40098815D01*
X57980537Y40195506D01*
X58039502Y40305820D01*
X58068071Y40400000D01*
X58221418Y40400000D01*
X58221418Y39600000D01*
X58227732Y39535897D01*
X58246430Y39474257D01*
X58276794Y39417450D01*
X58317657Y39367657D01*
X58367450Y39326794D01*
X58424257Y39296430D01*
X58485897Y39277732D01*
X58550000Y39271418D01*
X59450000Y39271418D01*
X59514103Y39277732D01*
X59575743Y39296430D01*
X59632550Y39326794D01*
X59682343Y39367657D01*
X59723206Y39417450D01*
X59746418Y39460877D01*
X59746418Y39250000D01*
X59752732Y39185897D01*
X59771430Y39124257D01*
X59801794Y39067450D01*
X59842657Y39017657D01*
X59892450Y38976794D01*
X59949257Y38946430D01*
X60010897Y38927732D01*
X60075000Y38921418D01*
X61575000Y38921418D01*
X61639103Y38927732D01*
X61700743Y38946430D01*
X61757550Y38976794D01*
X61807343Y39017657D01*
X61848206Y39067450D01*
X61878570Y39124257D01*
X61897268Y39185897D01*
X61903582Y39250000D01*
X61903582Y40750000D01*
X61897268Y40814103D01*
X61878570Y40875743D01*
X61848206Y40932550D01*
X61807343Y40982343D01*
X61757550Y41023206D01*
X61700743Y41053570D01*
X61639103Y41072268D01*
X61575000Y41078582D01*
X60075000Y41078582D01*
X60010897Y41072268D01*
X59949257Y41053570D01*
X59892450Y41023206D01*
X59842657Y40982343D01*
X59801794Y40932550D01*
X59771430Y40875743D01*
X59752732Y40814103D01*
X59746418Y40750000D01*
X59746418Y40539123D01*
X59723206Y40582550D01*
X59682343Y40632343D01*
X59632550Y40673206D01*
X59575743Y40703570D01*
X59514103Y40722268D01*
X59450000Y40728582D01*
X58550000Y40728582D01*
X58485897Y40722268D01*
X58424257Y40703570D01*
X58367450Y40673206D01*
X58317657Y40632343D01*
X58276794Y40582550D01*
X58246430Y40525743D01*
X58227732Y40464103D01*
X58221418Y40400000D01*
X58068071Y40400000D01*
X58075812Y40425518D01*
X58088072Y40550000D01*
X58085000Y40664250D01*
X57926250Y40823000D01*
X57127000Y40823000D01*
X56873000Y40823000D01*
X56853000Y40823000D01*
X56853000Y41077000D01*
X56873000Y41077000D01*
X56873000Y41826250D01*
X57127000Y41826250D01*
X57127000Y41077000D01*
X57926250Y41077000D01*
X58085000Y41235750D01*
X58088072Y41350000D01*
X58075812Y41474482D01*
X58039502Y41594180D01*
X57980537Y41704494D01*
X57901185Y41801185D01*
X57804494Y41880537D01*
X57694180Y41939502D01*
X57574482Y41975812D01*
X57450000Y41988072D01*
X57285750Y41985000D01*
X57127000Y41826250D01*
X56873000Y41826250D01*
X56714250Y41985000D01*
X56550000Y41988072D01*
X56425518Y41975812D01*
X56305820Y41939502D01*
X56195506Y41880537D01*
X56098815Y41801185D01*
X56019463Y41704494D01*
X55960498Y41594180D01*
X55924188Y41474482D01*
X55911928Y41350000D01*
X55915000Y41235750D01*
X55975750Y41175000D01*
X55827000Y41026250D01*
X55827000Y40423000D01*
X55847000Y40423000D01*
X55847000Y40277000D01*
X55827000Y40277000D01*
X55827000Y40203000D01*
X55573000Y40203000D01*
X55573000Y40277000D01*
X54923750Y40277000D01*
X54765000Y40118250D01*
X54777594Y40009476D01*
X54816968Y39890751D01*
X54878748Y39781988D01*
X54960559Y39687369D01*
X55059258Y39610527D01*
X55071418Y39604424D01*
X55071418Y39250000D01*
X55077732Y39185897D01*
X55096430Y39124257D01*
X55126794Y39067450D01*
X55167657Y39017657D01*
X55217450Y38976794D01*
X55273000Y38947102D01*
X55273001Y34976870D01*
X45223132Y24927000D01*
X24533118Y24927000D01*
X24535000Y24964250D01*
X24376250Y25123000D01*
X23773000Y25123000D01*
X23773000Y25103000D01*
X23627000Y25103000D01*
X23627000Y25123000D01*
X23553000Y25123000D01*
X23553000Y25377000D01*
X23627000Y25377000D01*
X23627000Y26026250D01*
X23773000Y26026250D01*
X23773000Y25377000D01*
X24376250Y25377000D01*
X24535000Y25535750D01*
X24528804Y25658357D01*
X24495582Y25778949D01*
X24439473Y25890742D01*
X24362631Y25989441D01*
X24268012Y26071252D01*
X24159249Y26133032D01*
X24040524Y26172406D01*
X23931750Y26185000D01*
X23773000Y26026250D01*
X23627000Y26026250D01*
X23468250Y26185000D01*
X23359476Y26172406D01*
X23240751Y26133032D01*
X23131988Y26071252D01*
X23037369Y25989441D01*
X22960527Y25890742D01*
X22954424Y25878582D01*
X22600000Y25878582D01*
X22535897Y25872268D01*
X22474257Y25853570D01*
X22417450Y25823206D01*
X22367657Y25782343D01*
X22326794Y25732550D01*
X22297102Y25677000D01*
X21520967Y25677000D01*
X21500000Y25679065D01*
X21479033Y25677000D01*
X21479022Y25677000D01*
X21416293Y25670822D01*
X21335804Y25646405D01*
X21332841Y25644821D01*
X21261623Y25606755D01*
X21212899Y25566768D01*
X21212895Y25566764D01*
X21196605Y25553395D01*
X21183236Y25537105D01*
X20821548Y25175416D01*
X20690620Y25175416D01*
X20690620Y25398416D01*
X20684306Y25462519D01*
X20673417Y25498416D01*
X20684306Y25534313D01*
X20690620Y25598416D01*
X20690620Y25898416D01*
X20684306Y25962519D01*
X20673417Y25998416D01*
X20684306Y26034313D01*
X20685940Y26050898D01*
X20707547Y26061984D01*
X20805561Y26139696D01*
X20886530Y26235038D01*
X20947344Y26344343D01*
X20985664Y26463413D01*
X20997038Y26566666D01*
X20859957Y26703747D01*
X20886530Y26735038D01*
X20947344Y26844343D01*
X20964489Y26897617D01*
X20997038Y26930166D01*
X20989520Y26998416D01*
X20997038Y27066666D01*
X20964489Y27099215D01*
X20947344Y27152489D01*
X20893973Y27248416D01*
X20947344Y27344343D01*
X20964489Y27397617D01*
X20997038Y27430166D01*
X20989520Y27498416D01*
X20997038Y27566666D01*
X20964489Y27599215D01*
X20947344Y27652489D01*
X20893973Y27748416D01*
X20947344Y27844343D01*
X20964489Y27897617D01*
X20997038Y27930166D01*
X20989520Y27998416D01*
X20997038Y28066666D01*
X20964489Y28099215D01*
X20947344Y28152489D01*
X20886530Y28261794D01*
X20859957Y28293085D01*
X20997038Y28430166D01*
X20985664Y28533419D01*
X20947344Y28652489D01*
X20886530Y28761794D01*
X20805561Y28857136D01*
X20707547Y28934848D01*
X20685940Y28945934D01*
X20684306Y28962519D01*
X20673417Y28998416D01*
X20684306Y29034313D01*
X20690620Y29098416D01*
X20690620Y29398416D01*
X20684306Y29462519D01*
X20673417Y29498416D01*
X20684306Y29534313D01*
X20685940Y29550898D01*
X20707547Y29561984D01*
X20805561Y29639696D01*
X20886530Y29735038D01*
X20947344Y29844343D01*
X20985664Y29963413D01*
X20997038Y30066666D01*
X20859957Y30203747D01*
X20886530Y30235038D01*
X20947344Y30344343D01*
X20964489Y30397617D01*
X20997038Y30430166D01*
X20989520Y30498416D01*
X20997038Y30566666D01*
X20964489Y30599215D01*
X20947344Y30652489D01*
X20893973Y30748416D01*
X20947344Y30844343D01*
X20964489Y30897617D01*
X20997038Y30930166D01*
X20989520Y30998416D01*
X20997038Y31066666D01*
X20964489Y31099215D01*
X20947344Y31152489D01*
X20893973Y31248416D01*
X20947344Y31344343D01*
X20964489Y31397617D01*
X20997038Y31430166D01*
X20989520Y31498416D01*
X20997038Y31566666D01*
X20964489Y31599215D01*
X20947344Y31652489D01*
X20893973Y31748416D01*
X20947344Y31844343D01*
X20964489Y31897617D01*
X20997038Y31930166D01*
X20989520Y31998416D01*
X20997038Y32066666D01*
X20964489Y32099215D01*
X20957345Y32121414D01*
X20997038Y32121414D01*
X20997038Y32225474D01*
X22009616Y31212895D01*
X22021584Y31198312D01*
X22027732Y31135897D01*
X22046430Y31074257D01*
X22076794Y31017450D01*
X22117657Y30967657D01*
X22167450Y30926794D01*
X22224257Y30896430D01*
X22285897Y30877732D01*
X22319690Y30874403D01*
X22317450Y30873206D01*
X22267657Y30832343D01*
X22226794Y30782550D01*
X22196430Y30725743D01*
X22177732Y30664103D01*
X22171418Y30600000D01*
X22171418Y29900000D01*
X22177732Y29835897D01*
X22196430Y29774257D01*
X22226794Y29717450D01*
X22267657Y29667657D01*
X22273000Y29663272D01*
X22273001Y29336728D01*
X22267657Y29332343D01*
X22226794Y29282550D01*
X22196430Y29225743D01*
X22177732Y29164103D01*
X22171418Y29100000D01*
X22171418Y28400000D01*
X22177732Y28335897D01*
X22196430Y28274257D01*
X22226794Y28217450D01*
X22267657Y28167657D01*
X22317450Y28126794D01*
X22374257Y28096430D01*
X22435897Y28077732D01*
X22500000Y28071418D01*
X23100000Y28071418D01*
X23164103Y28077732D01*
X23225743Y28096430D01*
X23282550Y28126794D01*
X23312761Y28151587D01*
X23369463Y28045506D01*
X23448815Y27948815D01*
X23545506Y27869463D01*
X23655820Y27810498D01*
X23775518Y27774188D01*
X23900000Y27761928D01*
X23914250Y27765000D01*
X24073000Y27923750D01*
X24073000Y28623000D01*
X24327000Y28623000D01*
X24327000Y27923750D01*
X24485750Y27765000D01*
X24500000Y27761928D01*
X24624482Y27774188D01*
X24744180Y27810498D01*
X24854494Y27869463D01*
X24951185Y27948815D01*
X25030537Y28045506D01*
X25089502Y28155820D01*
X25125812Y28275518D01*
X25138072Y28400000D01*
X25135000Y28464250D01*
X24976250Y28623000D01*
X24327000Y28623000D01*
X24073000Y28623000D01*
X24053000Y28623000D01*
X24053000Y28877000D01*
X24073000Y28877000D01*
X24073000Y28897000D01*
X24327000Y28897000D01*
X24327000Y28877000D01*
X24976250Y28877000D01*
X25135000Y29035750D01*
X25138072Y29100000D01*
X25125812Y29224482D01*
X25089502Y29344180D01*
X25030537Y29454494D01*
X24951185Y29551185D01*
X24854494Y29630537D01*
X24748413Y29687239D01*
X24773206Y29717450D01*
X24803570Y29774257D01*
X24822268Y29835897D01*
X24828582Y29900000D01*
X24828582Y30600000D01*
X24822268Y30664103D01*
X24803570Y30725743D01*
X24773206Y30782550D01*
X24732343Y30832343D01*
X24720480Y30842078D01*
X24719374Y30853310D01*
X24689239Y30952650D01*
X24683486Y30963413D01*
X24640304Y31044202D01*
X24574448Y31124448D01*
X24554339Y31140951D01*
X23978582Y31716707D01*
X23978582Y31739037D01*
X24000000Y31736928D01*
X24214250Y31740000D01*
X24373000Y31898750D01*
X24373000Y32873000D01*
X24627000Y32873000D01*
X24627000Y31898750D01*
X24785750Y31740000D01*
X25000000Y31736928D01*
X25124482Y31749188D01*
X25244180Y31785498D01*
X25354494Y31844463D01*
X25451185Y31923815D01*
X25530537Y32020506D01*
X25589502Y32130820D01*
X25625812Y32250518D01*
X25638072Y32375000D01*
X25635000Y32714250D01*
X25476250Y32873000D01*
X24627000Y32873000D01*
X24373000Y32873000D01*
X23523750Y32873000D01*
X23365000Y32714250D01*
X23361928Y32375000D01*
X23374188Y32250518D01*
X23410498Y32130820D01*
X23411694Y32128582D01*
X23250000Y32128582D01*
X23210445Y32124686D01*
X23232343Y32142657D01*
X23273206Y32192450D01*
X23303570Y32249257D01*
X23322268Y32310897D01*
X23328582Y32375000D01*
X23328582Y33550057D01*
X23355820Y33535498D01*
X23362758Y33533394D01*
X23365000Y33285750D01*
X23523750Y33127000D01*
X24373000Y33127000D01*
X24373000Y33147000D01*
X24627000Y33147000D01*
X24627000Y33127000D01*
X25476250Y33127000D01*
X25635000Y33285750D01*
X25638072Y33625000D01*
X25625812Y33749482D01*
X25589502Y33869180D01*
X25530537Y33979494D01*
X25451185Y34076185D01*
X25354494Y34155537D01*
X25244180Y34214502D01*
X25124482Y34250812D01*
X25000000Y34263072D01*
X24986373Y34262877D01*
X24876250Y34373000D01*
X24127000Y34373000D01*
X24127000Y34353000D01*
X23873000Y34353000D01*
X23873000Y34373000D01*
X23853000Y34373000D01*
X23853000Y34627000D01*
X23873000Y34627000D01*
X23873000Y35873000D01*
X24127000Y35873000D01*
X24127000Y34627000D01*
X24876250Y34627000D01*
X25035000Y34785750D01*
X25038072Y34875000D01*
X25025812Y34999482D01*
X24989502Y35119180D01*
X24930537Y35229494D01*
X24913708Y35250000D01*
X24930537Y35270506D01*
X24989502Y35380820D01*
X25025812Y35500518D01*
X25038072Y35625000D01*
X25035000Y35714250D01*
X24876250Y35873000D01*
X24127000Y35873000D01*
X23873000Y35873000D01*
X23853000Y35873000D01*
X23853000Y36127000D01*
X23873000Y36127000D01*
X23873000Y36851250D01*
X24127000Y36851250D01*
X24127000Y36127000D01*
X24876250Y36127000D01*
X25035000Y36285750D01*
X25035919Y36312443D01*
X25214250Y36315000D01*
X25373000Y36473750D01*
X25373000Y37623000D01*
X25627000Y37623000D01*
X25627000Y36473750D01*
X25785750Y36315000D01*
X26000000Y36311928D01*
X26124482Y36324188D01*
X26244180Y36360498D01*
X26354494Y36419463D01*
X26451185Y36498815D01*
X26530537Y36595506D01*
X26589502Y36705820D01*
X26625812Y36825518D01*
X26638072Y36950000D01*
X26635000Y37464250D01*
X26476250Y37623000D01*
X25627000Y37623000D01*
X25373000Y37623000D01*
X24523750Y37623000D01*
X24365000Y37464250D01*
X24362299Y37012058D01*
X24285750Y37010000D01*
X24127000Y36851250D01*
X23873000Y36851250D01*
X23714250Y37010000D01*
X23600000Y37013072D01*
X23475518Y37000812D01*
X23355820Y36964502D01*
X23328576Y36949940D01*
X23328582Y36950000D01*
X23328582Y37691871D01*
X24401618Y38764907D01*
X24374188Y38674482D01*
X24361928Y38550000D01*
X24365000Y38035750D01*
X24523750Y37877000D01*
X25373000Y37877000D01*
X25373000Y39026250D01*
X25627000Y39026250D01*
X25627000Y37877000D01*
X26476250Y37877000D01*
X26635000Y38035750D01*
X26638072Y38550000D01*
X26625812Y38674482D01*
X26589502Y38794180D01*
X26530537Y38904494D01*
X26451185Y39001185D01*
X26354494Y39080537D01*
X26244180Y39139502D01*
X26124482Y39175812D01*
X26000000Y39188072D01*
X25785750Y39185000D01*
X25627000Y39026250D01*
X25373000Y39026250D01*
X25214250Y39185000D01*
X25000000Y39188072D01*
X24875518Y39175812D01*
X24785093Y39148382D01*
X26218461Y40581750D01*
X54765000Y40581750D01*
X54923750Y40423000D01*
X55573000Y40423000D01*
X55573000Y41026250D01*
X55414250Y41185000D01*
X55291643Y41178804D01*
X55171051Y41145582D01*
X55059258Y41089473D01*
X54960559Y41012631D01*
X54878748Y40918012D01*
X54816968Y40809249D01*
X54777594Y40690524D01*
X54765000Y40581750D01*
X26218461Y40581750D01*
X33377653Y47740942D01*
X65837039Y47740942D01*
X65837039Y46840942D01*
X65843353Y46776839D01*
X65862051Y46715199D01*
X65892415Y46658392D01*
X65933278Y46608599D01*
X65983071Y46567736D01*
X66039878Y46537372D01*
X66101518Y46518674D01*
X66165621Y46512360D01*
X67365621Y46512360D01*
X67429724Y46518674D01*
X67491364Y46537372D01*
X67548171Y46567736D01*
X67597964Y46608599D01*
X67638827Y46658392D01*
X67641794Y46663942D01*
X67887039Y46663942D01*
X67887039Y46545942D01*
X67893943Y46478938D01*
X67913196Y46417469D01*
X67944071Y46360938D01*
X67985381Y46311516D01*
X68545381Y45761516D01*
X68593071Y45722736D01*
X68649878Y45692372D01*
X68711518Y45673674D01*
X68775621Y45667360D01*
X69085621Y45667360D01*
X69090697Y45667860D01*
X69665621Y45667860D01*
X69729724Y45674174D01*
X69791364Y45692872D01*
X69848171Y45723236D01*
X69897964Y45764099D01*
X69938827Y45813892D01*
X69969191Y45870699D01*
X69987889Y45932339D01*
X69994203Y45996442D01*
X69994203Y46771442D01*
X69988631Y46831698D01*
X69988082Y46833590D01*
X69987889Y46835545D01*
X69979115Y46864470D01*
X69970669Y46893556D01*
X69969762Y46895303D01*
X69969191Y46897185D01*
X69954930Y46923865D01*
X69940984Y46950722D01*
X69939754Y46952258D01*
X69938827Y46953992D01*
X69919641Y46977371D01*
X69900718Y47000998D01*
X69414203Y47499256D01*
X69414203Y48382628D01*
X69900718Y48880886D01*
X69938827Y48927892D01*
X69969191Y48984699D01*
X69987889Y49046339D01*
X69994203Y49110442D01*
X69994203Y49886442D01*
X69992621Y49902503D01*
X69992621Y51003653D01*
X70021364Y51012372D01*
X70078171Y51042736D01*
X70127964Y51083599D01*
X70168827Y51133392D01*
X70199191Y51190199D01*
X70217889Y51251839D01*
X70224203Y51315942D01*
X70224203Y51721555D01*
X70250115Y51735405D01*
X70346806Y51814757D01*
X70426158Y51911448D01*
X70485123Y52021762D01*
X70521433Y52141460D01*
X70533693Y52265942D01*
X70530621Y52305192D01*
X70371871Y52463942D01*
X69492621Y52463942D01*
X69492621Y52443942D01*
X69238621Y52443942D01*
X69238621Y52463942D01*
X68359371Y52463942D01*
X68352621Y52457192D01*
X68241871Y52567942D01*
X67592621Y52567942D01*
X67592621Y51964692D01*
X67751371Y51805942D01*
X67873978Y51812138D01*
X67994570Y51845360D01*
X68106363Y51901469D01*
X68205062Y51978311D01*
X68245213Y52024748D01*
X68246119Y52021762D01*
X68305084Y51911448D01*
X68384436Y51814757D01*
X68481127Y51735405D01*
X68507039Y51721555D01*
X68507039Y51315942D01*
X68513353Y51251839D01*
X68532051Y51190199D01*
X68562415Y51133392D01*
X68603278Y51083599D01*
X68653071Y51042736D01*
X68709878Y51012372D01*
X68738621Y51003653D01*
X68738622Y50210938D01*
X68714424Y50208775D01*
X68712995Y50208355D01*
X68711518Y50208210D01*
X68682162Y50199305D01*
X68652618Y50190633D01*
X68651298Y50189943D01*
X68649878Y50189512D01*
X68622788Y50175032D01*
X68595539Y50160781D01*
X68594382Y50159849D01*
X68593071Y50159148D01*
X68569281Y50139625D01*
X68545381Y50120368D01*
X67985381Y49570368D01*
X67942415Y49518492D01*
X67912051Y49461685D01*
X67893353Y49400045D01*
X67887039Y49335942D01*
X67887039Y47917942D01*
X67641794Y47917942D01*
X67638827Y47923492D01*
X67597964Y47973285D01*
X67548171Y48014148D01*
X67491364Y48044512D01*
X67429724Y48063210D01*
X67365621Y48069524D01*
X66165621Y48069524D01*
X66101518Y48063210D01*
X66039878Y48044512D01*
X65983071Y48014148D01*
X65933278Y47973285D01*
X65892415Y47923492D01*
X65862051Y47866685D01*
X65843353Y47805045D01*
X65837039Y47740942D01*
X33377653Y47740942D01*
X34327654Y48690943D01*
X63752549Y48690943D01*
X63764809Y48566461D01*
X63801119Y48446763D01*
X63860084Y48336449D01*
X63939436Y48239758D01*
X64036127Y48160406D01*
X64146441Y48101441D01*
X64266139Y48065131D01*
X64390621Y48052871D01*
X64479871Y48055943D01*
X64638621Y48214693D01*
X64638621Y48963943D01*
X64892621Y48963943D01*
X64892621Y48214693D01*
X65051371Y48055943D01*
X65140621Y48052871D01*
X65265103Y48065131D01*
X65384801Y48101441D01*
X65495115Y48160406D01*
X65591806Y48239758D01*
X65671158Y48336449D01*
X65730123Y48446763D01*
X65766433Y48566461D01*
X65778693Y48690943D01*
X65775621Y48805193D01*
X65616871Y48963943D01*
X64892621Y48963943D01*
X64638621Y48963943D01*
X63914371Y48963943D01*
X63755621Y48805193D01*
X63752549Y48690943D01*
X34327654Y48690943D01*
X35600655Y49963943D01*
X63122551Y49963943D01*
X63126321Y49925671D01*
X63148002Y49854198D01*
X63183210Y49788328D01*
X63230592Y49730592D01*
X63288328Y49683210D01*
X63354198Y49648002D01*
X63425671Y49626321D01*
X63500000Y49619000D01*
X63765893Y49619000D01*
X63764809Y49615425D01*
X63752549Y49490943D01*
X63755621Y49376693D01*
X63914371Y49217943D01*
X64638621Y49217943D01*
X64638621Y49237943D01*
X64892621Y49237943D01*
X64892621Y49217943D01*
X65616871Y49217943D01*
X65775621Y49376693D01*
X65778693Y49490943D01*
X65766433Y49615425D01*
X65765349Y49619000D01*
X67500000Y49619000D01*
X67574329Y49626321D01*
X67645802Y49648002D01*
X67711672Y49683210D01*
X67769408Y49730592D01*
X67816790Y49788328D01*
X67851998Y49854198D01*
X67873679Y49925671D01*
X67881000Y50000000D01*
X67881000Y51000000D01*
X67873679Y51074329D01*
X67851998Y51145802D01*
X67816790Y51211672D01*
X67769408Y51269408D01*
X67206373Y51832443D01*
X67338621Y51964692D01*
X67338621Y52567942D01*
X67318621Y52567942D01*
X67318621Y52713942D01*
X67338621Y52713942D01*
X67338621Y52787942D01*
X67592621Y52787942D01*
X67592621Y52713942D01*
X68241871Y52713942D01*
X68302621Y52774692D01*
X68359371Y52717942D01*
X69238621Y52717942D01*
X69238621Y52737942D01*
X69492621Y52737942D01*
X69492621Y52717942D01*
X70371871Y52717942D01*
X70530621Y52876692D01*
X70533693Y52915942D01*
X70521433Y53040424D01*
X70485123Y53160122D01*
X70426158Y53270436D01*
X70346806Y53367127D01*
X70250115Y53446479D01*
X70224203Y53460329D01*
X70224203Y53865942D01*
X70217889Y53930045D01*
X70199191Y53991685D01*
X70168827Y54048492D01*
X70127964Y54098285D01*
X70078171Y54139148D01*
X70021364Y54169512D01*
X69959724Y54188210D01*
X69895621Y54194524D01*
X68835621Y54194524D01*
X68771518Y54188210D01*
X68709878Y54169512D01*
X68653071Y54139148D01*
X68603278Y54098285D01*
X68578377Y54067942D01*
X67781682Y54067942D01*
X67765621Y54069524D01*
X67165621Y54069524D01*
X67149560Y54067942D01*
X66352347Y54067942D01*
X66347962Y54073285D01*
X66298169Y54114148D01*
X66241362Y54144512D01*
X66179722Y54163210D01*
X66115619Y54169524D01*
X65615619Y54169524D01*
X65551516Y54163210D01*
X65489876Y54144512D01*
X65433069Y54114148D01*
X65383276Y54073285D01*
X65378891Y54067942D01*
X64939741Y54067942D01*
X64939733Y54067941D01*
X64781695Y54067942D01*
X64765621Y54069525D01*
X64165621Y54069525D01*
X64101518Y54063211D01*
X64039878Y54044513D01*
X63983071Y54014149D01*
X63933278Y53973286D01*
X63892415Y53923493D01*
X63862051Y53866686D01*
X63843353Y53805046D01*
X63837039Y53740943D01*
X63837039Y53381000D01*
X63500000Y53381000D01*
X63425671Y53373679D01*
X63354198Y53351998D01*
X63288328Y53316790D01*
X63230592Y53269408D01*
X63183210Y53211672D01*
X63148002Y53145802D01*
X63126321Y53074329D01*
X63119000Y53000000D01*
X63119000Y51217943D01*
X35371737Y51217943D01*
X35340943Y51220976D01*
X35310149Y51217943D01*
X35218030Y51208870D01*
X35099840Y51173018D01*
X34990915Y51114796D01*
X34895442Y51036444D01*
X34875809Y51012521D01*
X22741871Y38878582D01*
X22000000Y38878582D01*
X21935897Y38872268D01*
X21874257Y38853570D01*
X21817450Y38823206D01*
X21767657Y38782343D01*
X21726794Y38732550D01*
X21696430Y38675743D01*
X21677732Y38614103D01*
X21671418Y38550000D01*
X21671418Y36950000D01*
X21677732Y36885897D01*
X21696430Y36824257D01*
X21726794Y36767450D01*
X21767657Y36717657D01*
X21817450Y36676794D01*
X21873001Y36647102D01*
X21873001Y36611728D01*
X21867657Y36607343D01*
X21826794Y36557550D01*
X21796430Y36500743D01*
X21785172Y36463630D01*
X21716577Y36442822D01*
X21633711Y36398529D01*
X21561079Y36338921D01*
X21546149Y36320729D01*
X20922523Y35697102D01*
X20886530Y35761794D01*
X20805561Y35857136D01*
X20707547Y35934848D01*
X20596255Y35991946D01*
X20475963Y36026235D01*
X20351292Y36036398D01*
X20022788Y36033416D01*
X19876584Y35887212D01*
X19864040Y35899756D01*
X19864040Y35942495D01*
X19917456Y35971047D01*
X19921763Y35974582D01*
X19947962Y35974582D01*
X19947962Y35996083D01*
X20014147Y36050399D01*
X20093499Y36147090D01*
X20152464Y36257404D01*
X20188774Y36377102D01*
X20201034Y36501584D01*
X20197962Y37415834D01*
X20039212Y37574584D01*
X18589962Y37574584D01*
X18589962Y36025334D01*
X18640712Y35974584D01*
X18639962Y35974584D01*
X18639962Y35954584D01*
X18385962Y35954584D01*
X18385962Y35974584D01*
X18365962Y35974584D01*
X18365962Y36228584D01*
X18385962Y36228584D01*
X18385962Y36977834D01*
X18335962Y37027834D01*
X18335962Y37574584D01*
X18315962Y37574584D01*
X18315962Y37828584D01*
X18335962Y37828584D01*
X18335962Y39377834D01*
X18589962Y39377834D01*
X18589962Y37828584D01*
X20039212Y37828584D01*
X20197962Y37987334D01*
X20201034Y38901584D01*
X20188774Y39026066D01*
X20152464Y39145764D01*
X20093499Y39256078D01*
X20014147Y39352769D01*
X19917456Y39432121D01*
X19807142Y39491086D01*
X19687444Y39527396D01*
X19562962Y39539656D01*
X18748712Y39536584D01*
X18589962Y39377834D01*
X18335962Y39377834D01*
X18177212Y39536584D01*
X17362962Y39539656D01*
X17238480Y39527396D01*
X17118782Y39491086D01*
X17008468Y39432121D01*
X16911777Y39352769D01*
X16832425Y39256078D01*
X16773460Y39145764D01*
X16737150Y39026066D01*
X16724890Y38901584D01*
X16726720Y38357076D01*
X16647212Y38436584D01*
X16507962Y38439656D01*
X16383480Y38427396D01*
X16263782Y38391086D01*
X16153468Y38332121D01*
X16056777Y38252769D01*
X15977425Y38156078D01*
X15918460Y38045764D01*
X15882150Y37926066D01*
X15869890Y37801584D01*
X15872962Y37437334D01*
X16031712Y37278584D01*
X16727501Y37278584D01*
X16726647Y37024584D01*
X16031712Y37024584D01*
X15872962Y36865834D01*
X15869890Y36501584D01*
X15882150Y36377102D01*
X15918460Y36257404D01*
X15977425Y36147090D01*
X16056777Y36050399D01*
X16153468Y35971047D01*
X16263782Y35912082D01*
X16383480Y35875772D01*
X16507962Y35863512D01*
X16647212Y35866584D01*
X16805962Y36025334D01*
X16805962Y36196598D01*
X16832425Y36147090D01*
X16911777Y36050399D01*
X17008468Y35971047D01*
X17118782Y35912082D01*
X17161309Y35899181D01*
X17077962Y35815834D01*
X17074890Y35701584D01*
X17087150Y35577102D01*
X17123460Y35457404D01*
X17182425Y35347090D01*
X17261777Y35250399D01*
X17358468Y35171047D01*
X17468782Y35112082D01*
X17588480Y35075772D01*
X17712962Y35063512D01*
X18227212Y35066584D01*
X18385960Y35225332D01*
X18385960Y35066584D01*
X18477047Y35066584D01*
X18488412Y34963413D01*
X18526732Y34844343D01*
X18587546Y34735038D01*
X18668515Y34639696D01*
X18766529Y34561984D01*
X18788136Y34550898D01*
X18789770Y34534313D01*
X18800659Y34498416D01*
X18789770Y34462519D01*
X18783456Y34398416D01*
X18783456Y34098416D01*
X18789770Y34034313D01*
X18800659Y33998416D01*
X18789770Y33962519D01*
X18783456Y33898416D01*
X18783456Y33598416D01*
X18789770Y33534313D01*
X18800659Y33498416D01*
X18789770Y33462519D01*
X18783456Y33398416D01*
X18783456Y33098416D01*
X18789770Y33034313D01*
X18800659Y32998416D01*
X18789770Y32962519D01*
X18788136Y32945934D01*
X18766529Y32934848D01*
X18668515Y32857136D01*
X18587546Y32761794D01*
X18526732Y32652489D01*
X18488412Y32533419D01*
X18477038Y32430166D01*
X18614119Y32293085D01*
X18587546Y32261794D01*
X18526732Y32152489D01*
X18509587Y32099215D01*
X18477038Y32066666D01*
X18484556Y31998416D01*
X18477038Y31930166D01*
X18509587Y31897617D01*
X18526732Y31844343D01*
X18580103Y31748416D01*
X18526732Y31652489D01*
X18509587Y31599215D01*
X18477038Y31566666D01*
X18484556Y31498416D01*
X18477038Y31430166D01*
X18509587Y31397617D01*
X18526732Y31344343D01*
X18580103Y31248416D01*
X18526732Y31152489D01*
X18509587Y31099215D01*
X18477038Y31066666D01*
X18484556Y30998416D01*
X18477038Y30930166D01*
X18509587Y30897617D01*
X18526732Y30844343D01*
X18580103Y30748416D01*
X18526732Y30652489D01*
X18509587Y30599215D01*
X18477038Y30566666D01*
X18484556Y30498416D01*
X18477038Y30430166D01*
X18509587Y30397617D01*
X18526732Y30344343D01*
X18587546Y30235038D01*
X18614119Y30203747D01*
X18477038Y30066666D01*
X18488412Y29963413D01*
X18526732Y29844343D01*
X18587546Y29735038D01*
X18638180Y29675416D01*
X18169382Y29675416D01*
X18148415Y29677481D01*
X18127448Y29675416D01*
X18127438Y29675416D01*
X18064709Y29669238D01*
X17984220Y29644821D01*
X17950494Y29626794D01*
X17910039Y29605171D01*
X17861315Y29565184D01*
X17861311Y29565180D01*
X17845021Y29551811D01*
X17831652Y29535521D01*
X13512856Y25216724D01*
X13496561Y25203351D01*
X13483189Y25187057D01*
X13483188Y25187056D01*
X13443201Y25138332D01*
X13426323Y25106755D01*
X13403551Y25064151D01*
X13379134Y24983662D01*
X13372956Y24920933D01*
X13372956Y24920923D01*
X13370891Y24899956D01*
X12677000Y24899956D01*
X12677000Y42089755D01*
X12650565Y42358155D01*
X12546095Y42702546D01*
X12376445Y43019938D01*
X12148135Y43298135D01*
X11869937Y43526445D01*
X11552545Y43696095D01*
X11208154Y43800565D01*
X10850000Y43835840D01*
X10491845Y43800565D01*
X10147454Y43696095D01*
X9830062Y43526445D01*
X9551865Y43298135D01*
X9323555Y43019937D01*
X9153905Y42702545D01*
X9049435Y42358154D01*
X9023000Y42089754D01*
X577000Y42089754D01*
X577000Y49941314D01*
X21120919Y49941314D01*
X21457106Y49472132D01*
X22087068Y49131763D01*
X22771327Y48920834D01*
X23483589Y48847450D01*
X24196482Y48914431D01*
X24882609Y49119204D01*
X25515603Y49453898D01*
X25542894Y49472132D01*
X25879081Y49941314D01*
X23500000Y52320395D01*
X21120919Y49941314D01*
X577000Y49941314D01*
X577000Y52137592D01*
X2603000Y52137592D01*
X2603000Y51862408D01*
X2656686Y51592510D01*
X2761995Y51338273D01*
X2914880Y51109465D01*
X3109465Y50914880D01*
X3338273Y50761995D01*
X3592510Y50656686D01*
X3862408Y50603000D01*
X4137592Y50603000D01*
X4407490Y50656686D01*
X4661727Y50761995D01*
X4890535Y50914880D01*
X5085120Y51109465D01*
X5238005Y51338273D01*
X5343314Y51592510D01*
X5397000Y51862408D01*
X5397000Y52137592D01*
X5343314Y52407490D01*
X5298198Y52516411D01*
X19847450Y52516411D01*
X19914431Y51803518D01*
X20119204Y51117391D01*
X20453898Y50484397D01*
X20472132Y50457106D01*
X20941314Y50120919D01*
X23320395Y52500000D01*
X23679605Y52500000D01*
X26058686Y50120919D01*
X26527868Y50457106D01*
X26868237Y51087068D01*
X27079166Y51771327D01*
X27152550Y52483589D01*
X27085569Y53196482D01*
X26880796Y53882609D01*
X26546102Y54515603D01*
X26527868Y54542894D01*
X26058686Y54879081D01*
X23679605Y52500000D01*
X23320395Y52500000D01*
X20941314Y54879081D01*
X20472132Y54542894D01*
X20131763Y53912932D01*
X19920834Y53228673D01*
X19847450Y52516411D01*
X5298198Y52516411D01*
X5238005Y52661727D01*
X5085120Y52890535D01*
X4890535Y53085120D01*
X4661727Y53238005D01*
X4407490Y53343314D01*
X4137592Y53397000D01*
X3862408Y53397000D01*
X3592510Y53343314D01*
X3338273Y53238005D01*
X3109465Y53085120D01*
X2914880Y52890535D01*
X2761995Y52661727D01*
X2656686Y52407490D01*
X2603000Y52137592D01*
X577000Y52137592D01*
X577000Y52971791D01*
X625859Y53470090D01*
X762381Y53922278D01*
X984136Y54339337D01*
X1282673Y54705379D01*
X1646621Y55006464D01*
X2062127Y55231126D01*
X2513344Y55370802D01*
X3009997Y55423002D01*
X21381965Y55423002D01*
X21120919Y55058686D01*
G37*
X21120919Y55058686D02*
X23500000Y52679605D01*
X25879081Y55058686D01*
X25618035Y55423001D01*
X79381964Y55423000D01*
X79120919Y55058686D01*
X81500000Y52679605D01*
X81514143Y52693747D01*
X81693748Y52514142D01*
X81679605Y52500000D01*
X84058686Y50120919D01*
X84423000Y50381964D01*
X84423000Y44039448D01*
X78521134Y49941314D01*
X79120919Y49941314D01*
X79457106Y49472132D01*
X80087068Y49131763D01*
X80771327Y48920834D01*
X81483589Y48847450D01*
X82196482Y48914431D01*
X82882609Y49119204D01*
X83515603Y49453898D01*
X83542894Y49472132D01*
X83879081Y49941314D01*
X81500000Y52320395D01*
X79120919Y49941314D01*
X78521134Y49941314D01*
X75946037Y52516411D01*
X77847450Y52516411D01*
X77914431Y51803518D01*
X78119204Y51117391D01*
X78453898Y50484397D01*
X78472132Y50457106D01*
X78941314Y50120919D01*
X81320395Y52500000D01*
X78941314Y54879081D01*
X78472132Y54542894D01*
X78131763Y53912932D01*
X77920834Y53228673D01*
X77847450Y52516411D01*
X75946037Y52516411D01*
X75731224Y52731224D01*
X75681671Y52771891D01*
X75625137Y52802109D01*
X75563795Y52820717D01*
X75500000Y52827000D01*
X74476379Y52827000D01*
X74475621Y52855192D01*
X74316871Y53013942D01*
X73592621Y53013942D01*
X73592621Y52993942D01*
X73338621Y52993942D01*
X73338621Y53013942D01*
X73318621Y53013942D01*
X73318621Y53267942D01*
X73338621Y53267942D01*
X73338621Y54017192D01*
X73592621Y54017192D01*
X73592621Y53267942D01*
X74316871Y53267942D01*
X74475621Y53426692D01*
X74478693Y53540942D01*
X74466433Y53665424D01*
X74430123Y53785122D01*
X74371158Y53895436D01*
X74291806Y53992127D01*
X74195115Y54071479D01*
X74084801Y54130444D01*
X73965103Y54166754D01*
X73840621Y54179014D01*
X73751371Y54175942D01*
X73592621Y54017192D01*
X73338621Y54017192D01*
X73179871Y54175942D01*
X73090621Y54179014D01*
X72966139Y54166754D01*
X72846441Y54130444D01*
X72806909Y54109313D01*
X72802109Y54125137D01*
X72771891Y54181671D01*
X72731224Y54231224D01*
X72681671Y54271891D01*
X72625137Y54302109D01*
X72563795Y54320717D01*
X72500000Y54327000D01*
X71000000Y54327000D01*
X70936205Y54320717D01*
X70874863Y54302109D01*
X70818329Y54271891D01*
X70768776Y54231224D01*
X70728109Y54181671D01*
X70697891Y54125137D01*
X70679283Y54063795D01*
X70673000Y54000000D01*
X70673000Y43277000D01*
X64726173Y43277000D01*
X64723206Y43282550D01*
X64682343Y43332343D01*
X64632550Y43373206D01*
X64575743Y43403570D01*
X64514103Y43422268D01*
X64450000Y43428582D01*
X64050000Y43428582D01*
X63985897Y43422268D01*
X63924257Y43403570D01*
X63867450Y43373206D01*
X63817657Y43332343D01*
X63800000Y43310827D01*
X63782343Y43332343D01*
X63732550Y43373206D01*
X63675743Y43403570D01*
X63614103Y43422268D01*
X63550000Y43428582D01*
X63150000Y43428582D01*
X63085897Y43422268D01*
X63024257Y43403570D01*
X62967450Y43373206D01*
X62917657Y43332343D01*
X62876794Y43282550D01*
X62846430Y43225743D01*
X62827732Y43164103D01*
X62821418Y43100000D01*
X62821418Y42500000D01*
X62827732Y42435897D01*
X62846430Y42374257D01*
X62876794Y42317450D01*
X62917657Y42267657D01*
X62923000Y42263272D01*
X62923001Y40982654D01*
X62854849Y40954425D01*
X62678453Y40836560D01*
X62528440Y40686547D01*
X62410575Y40510151D01*
X62329389Y40314149D01*
X62288000Y40106075D01*
X62288000Y39893925D01*
X62329389Y39685851D01*
X62410575Y39489849D01*
X62528440Y39313453D01*
X62678453Y39163440D01*
X62854849Y39045575D01*
X63050851Y38964389D01*
X63258925Y38923000D01*
X63471075Y38923000D01*
X63679149Y38964389D01*
X63875151Y39045575D01*
X64051547Y39163440D01*
X64201560Y39313453D01*
X64319425Y39489849D01*
X64400611Y39685851D01*
X64442000Y39893925D01*
X64442000Y40106075D01*
X64400611Y40314149D01*
X64319425Y40510151D01*
X64204766Y40681750D01*
X64665000Y40681750D01*
X64823750Y40523000D01*
X65473000Y40523000D01*
X65473000Y41126250D01*
X65314250Y41285000D01*
X65191643Y41278804D01*
X65071051Y41245582D01*
X64959258Y41189473D01*
X64860559Y41112631D01*
X64778748Y41018012D01*
X64716968Y40909249D01*
X64677594Y40790524D01*
X64665000Y40681750D01*
X64204766Y40681750D01*
X64201560Y40686547D01*
X64051547Y40836560D01*
X63875151Y40954425D01*
X63777000Y40995080D01*
X63777000Y42263272D01*
X63782343Y42267657D01*
X63800000Y42289173D01*
X63817657Y42267657D01*
X63867450Y42226794D01*
X63924257Y42196430D01*
X63985897Y42177732D01*
X64050000Y42171418D01*
X64450000Y42171418D01*
X64514103Y42177732D01*
X64575743Y42196430D01*
X64632550Y42226794D01*
X64682343Y42267657D01*
X64723206Y42317450D01*
X64726173Y42323000D01*
X70673000Y42323000D01*
X70673000Y42000000D01*
X70679283Y41936205D01*
X70697891Y41874863D01*
X70728109Y41818329D01*
X70768776Y41768776D01*
X70818329Y41728109D01*
X70874863Y41697891D01*
X70936205Y41679283D01*
X71000000Y41673000D01*
X72923000Y41673000D01*
X72923001Y40982654D01*
X72854849Y40954425D01*
X72678453Y40836560D01*
X72528440Y40686547D01*
X72410575Y40510151D01*
X72329389Y40314149D01*
X72288000Y40106075D01*
X72288000Y39893925D01*
X72329389Y39685851D01*
X72410575Y39489849D01*
X72528440Y39313453D01*
X72678453Y39163440D01*
X72854849Y39045575D01*
X73050851Y38964389D01*
X73258925Y38923000D01*
X73471075Y38923000D01*
X73679149Y38964389D01*
X73875151Y39045575D01*
X74051547Y39163440D01*
X74201560Y39313453D01*
X74319425Y39489849D01*
X74400611Y39685851D01*
X74442000Y39893925D01*
X74442000Y40106075D01*
X74400611Y40314149D01*
X74319425Y40510151D01*
X74201560Y40686547D01*
X74051547Y40836560D01*
X73875151Y40954425D01*
X73777000Y40995080D01*
X73777000Y41673000D01*
X77173000Y41673000D01*
X77173000Y5873177D01*
X77107000Y5900515D01*
X77107000Y10846586D01*
X77109306Y10870001D01*
X77107000Y10893416D01*
X77107000Y10893423D01*
X77100097Y10963508D01*
X77072822Y11053423D01*
X77028529Y11136289D01*
X76968921Y11208921D01*
X76950730Y11223850D01*
X71477000Y16697579D01*
X71477000Y16916982D01*
X71619252Y16704087D01*
X71804087Y16519252D01*
X72021430Y16374028D01*
X72262928Y16273996D01*
X72519302Y16223000D01*
X72780698Y16223000D01*
X73037072Y16273996D01*
X73278570Y16374028D01*
X73495913Y16519252D01*
X73680748Y16704087D01*
X73825972Y16921430D01*
X73926004Y17162928D01*
X73977000Y17419302D01*
X73977000Y17680698D01*
X73926004Y17937072D01*
X73825972Y18178570D01*
X73680748Y18395913D01*
X73495913Y18580748D01*
X73278570Y18725972D01*
X73037072Y18826004D01*
X72780698Y18877000D01*
X72519302Y18877000D01*
X72262928Y18826004D01*
X72061358Y18742511D01*
X68899302Y21904567D01*
X70973000Y21904567D01*
X70973000Y21495433D01*
X71052818Y21094161D01*
X71209386Y20716171D01*
X71436689Y20375989D01*
X71725989Y20086689D01*
X72066171Y19859386D01*
X72444161Y19702818D01*
X72845433Y19623000D01*
X73254567Y19623000D01*
X73655839Y19702818D01*
X74033829Y19859386D01*
X74374011Y20086689D01*
X74663311Y20375989D01*
X74890614Y20716171D01*
X75047182Y21094161D01*
X75127000Y21495433D01*
X75127000Y21904567D01*
X75047182Y22305839D01*
X74890614Y22683829D01*
X74663311Y23024011D01*
X74374011Y23313311D01*
X74033829Y23540614D01*
X73655839Y23697182D01*
X73254567Y23777000D01*
X72845433Y23777000D01*
X72444161Y23697182D01*
X72066171Y23540614D01*
X71725989Y23313311D01*
X71436689Y23024011D01*
X71209386Y22683829D01*
X71052818Y22305839D01*
X70973000Y21904567D01*
X68899302Y21904567D01*
X68616767Y22187101D01*
X68603395Y22203395D01*
X68538376Y22256755D01*
X68464196Y22296405D01*
X68383707Y22320822D01*
X68320978Y22327000D01*
X68320967Y22327000D01*
X68300000Y22329065D01*
X68279033Y22327000D01*
X68226173Y22327000D01*
X68223206Y22332550D01*
X68182343Y22382343D01*
X68132550Y22423206D01*
X68075743Y22453570D01*
X68047149Y22462244D01*
X68053570Y22474257D01*
X68072268Y22535897D01*
X68078582Y22600000D01*
X68078582Y23026768D01*
X68178949Y23054418D01*
X68290742Y23110527D01*
X68389441Y23187369D01*
X68471252Y23281988D01*
X68533032Y23390751D01*
X68572406Y23509476D01*
X68585000Y23618250D01*
X68426250Y23777000D01*
X67777000Y23777000D01*
X67777000Y23753000D01*
X67523000Y23753000D01*
X67523000Y23777000D01*
X67503000Y23777000D01*
X67503000Y24023000D01*
X67523000Y24023000D01*
X67523000Y24047000D01*
X67777000Y24047000D01*
X67777000Y24023000D01*
X68426250Y24023000D01*
X68585000Y24181750D01*
X68572406Y24290524D01*
X68533032Y24409249D01*
X68519603Y24432891D01*
X68587023Y24500311D01*
X68655640Y24603004D01*
X68701859Y24714587D01*
X71694192Y24714587D01*
X71789956Y24450186D01*
X72079571Y24309296D01*
X72391108Y24227616D01*
X72712595Y24208282D01*
X73031675Y24252039D01*
X73336088Y24357205D01*
X73510044Y24450186D01*
X73605808Y24714587D01*
X72650000Y25670395D01*
X71694192Y24714587D01*
X68701859Y24714587D01*
X68702905Y24717111D01*
X68727000Y24838246D01*
X68727000Y24961754D01*
X68702905Y25082889D01*
X68655640Y25196996D01*
X68587023Y25299689D01*
X68499689Y25387023D01*
X68396996Y25455640D01*
X68282889Y25502905D01*
X68161754Y25527000D01*
X68038246Y25527000D01*
X67917111Y25502905D01*
X67894505Y25493541D01*
X67875743Y25503570D01*
X67814103Y25522268D01*
X67750000Y25528582D01*
X67350000Y25528582D01*
X67285897Y25522268D01*
X67224257Y25503570D01*
X67167450Y25473206D01*
X67117657Y25432343D01*
X67100000Y25410827D01*
X67082343Y25432343D01*
X67032550Y25473206D01*
X66975743Y25503570D01*
X66914103Y25522268D01*
X66850000Y25528582D01*
X66597541Y25528582D01*
X66564196Y25546405D01*
X66483707Y25570822D01*
X66420978Y25577000D01*
X66420967Y25577000D01*
X66400000Y25579065D01*
X66379033Y25577000D01*
X62409465Y25577000D01*
X62325972Y25778570D01*
X62320069Y25787405D01*
X71008282Y25787405D01*
X71052039Y25468325D01*
X71157205Y25163912D01*
X71250186Y24989956D01*
X71514587Y24894192D01*
X72470395Y25850000D01*
X72829605Y25850000D01*
X73785413Y24894192D01*
X74049814Y24989956D01*
X74190704Y25279571D01*
X74272384Y25591108D01*
X74291718Y25912595D01*
X74247961Y26231675D01*
X74142795Y26536088D01*
X74049814Y26710044D01*
X73785413Y26805808D01*
X72829605Y25850000D01*
X72470395Y25850000D01*
X71514587Y26805808D01*
X71250186Y26710044D01*
X71109296Y26420429D01*
X71027616Y26108892D01*
X71008282Y25787405D01*
X62320069Y25787405D01*
X62180748Y25995913D01*
X61995913Y26180748D01*
X61778570Y26325972D01*
X61537072Y26426004D01*
X61280698Y26477000D01*
X61019302Y26477000D01*
X60762928Y26426004D01*
X60521430Y26325972D01*
X60304087Y26180748D01*
X60119252Y25995913D01*
X59974028Y25778570D01*
X59873996Y25537072D01*
X59823000Y25280698D01*
X59823000Y25019302D01*
X59873996Y24762928D01*
X59974028Y24521430D01*
X60119252Y24304087D01*
X60304087Y24119252D01*
X60521430Y23974028D01*
X60762928Y23873996D01*
X61019302Y23823000D01*
X61280698Y23823000D01*
X61537072Y23873996D01*
X61778570Y23974028D01*
X61995913Y24119252D01*
X62180748Y24304087D01*
X62325972Y24521430D01*
X62409465Y24723000D01*
X66121418Y24723000D01*
X66121418Y24600000D01*
X66127732Y24535897D01*
X66146430Y24474257D01*
X66152851Y24462244D01*
X66124257Y24453570D01*
X66067450Y24423206D01*
X66017657Y24382343D01*
X65976794Y24332550D01*
X65946430Y24275743D01*
X65927732Y24214103D01*
X65921418Y24150000D01*
X65921418Y23650000D01*
X65927732Y23585897D01*
X65946430Y23524257D01*
X65953928Y23510228D01*
X65917111Y23502905D01*
X65803004Y23455640D01*
X65700311Y23387023D01*
X65612977Y23299689D01*
X65544360Y23196996D01*
X65497095Y23082889D01*
X65473000Y22961754D01*
X65473000Y22838246D01*
X65497095Y22717111D01*
X65544360Y22603004D01*
X65612977Y22500311D01*
X65680397Y22432891D01*
X65666968Y22409249D01*
X65627594Y22290524D01*
X65615000Y22181750D01*
X65773750Y22023000D01*
X66423000Y22023000D01*
X66423000Y22047000D01*
X66677000Y22047000D01*
X66677000Y22023000D01*
X66697000Y22023000D01*
X66697000Y21777000D01*
X66677000Y21777000D01*
X66677000Y21753000D01*
X66423000Y21753000D01*
X66423000Y21777000D01*
X65773750Y21777000D01*
X65615000Y21618250D01*
X65627594Y21509476D01*
X65666968Y21390751D01*
X65728748Y21281988D01*
X65810559Y21187369D01*
X65909258Y21110527D01*
X66021051Y21054418D01*
X66121418Y21026768D01*
X66121418Y20600000D01*
X66127732Y20535897D01*
X66146430Y20474257D01*
X66152851Y20462244D01*
X66124257Y20453570D01*
X66067450Y20423206D01*
X66017657Y20382343D01*
X65976794Y20332550D01*
X65973827Y20327000D01*
X63920967Y20327000D01*
X63900000Y20329065D01*
X63879033Y20327000D01*
X63879022Y20327000D01*
X63816293Y20320822D01*
X63735804Y20296405D01*
X63715870Y20285750D01*
X63661623Y20256755D01*
X63612899Y20216768D01*
X63612895Y20216764D01*
X63596605Y20203395D01*
X63583236Y20187105D01*
X62138642Y18742511D01*
X61937072Y18826004D01*
X61680698Y18877000D01*
X61419302Y18877000D01*
X61162928Y18826004D01*
X60921430Y18725972D01*
X60704087Y18580748D01*
X60519252Y18395913D01*
X60374028Y18178570D01*
X60273996Y17937072D01*
X60223000Y17680698D01*
X60223000Y17419302D01*
X60273996Y17162928D01*
X60374028Y16921430D01*
X60519252Y16704087D01*
X60704087Y16519252D01*
X60921430Y16374028D01*
X61162928Y16273996D01*
X61419302Y16223000D01*
X61680698Y16223000D01*
X61937072Y16273996D01*
X62178570Y16374028D01*
X62395913Y16519252D01*
X62580748Y16704087D01*
X62725972Y16921430D01*
X62826004Y17162928D01*
X62877000Y17419302D01*
X62877000Y17680698D01*
X62826004Y17937072D01*
X62742511Y18138642D01*
X64076869Y19473000D01*
X65973827Y19473000D01*
X65976794Y19467450D01*
X66017657Y19417657D01*
X66067450Y19376794D01*
X66124257Y19346430D01*
X66185897Y19327732D01*
X66250000Y19321418D01*
X66806351Y19321418D01*
X66828748Y19281988D01*
X66910559Y19187369D01*
X67009258Y19110527D01*
X67121051Y19054418D01*
X67241643Y19021196D01*
X67364250Y19015000D01*
X67523000Y19173750D01*
X67523000Y19777000D01*
X67777000Y19777000D01*
X67777000Y19173750D01*
X67935750Y19015000D01*
X68058357Y19021196D01*
X68178949Y19054418D01*
X68290742Y19110527D01*
X68389441Y19187369D01*
X68471252Y19281988D01*
X68533032Y19390751D01*
X68572406Y19509476D01*
X68585000Y19618250D01*
X68426250Y19777000D01*
X67777000Y19777000D01*
X67523000Y19777000D01*
X67503000Y19777000D01*
X67503000Y20023000D01*
X67523000Y20023000D01*
X67523000Y20047000D01*
X67777000Y20047000D01*
X67777000Y20023000D01*
X68426250Y20023000D01*
X68445336Y20042086D01*
X70523001Y17964421D01*
X70523000Y16523415D01*
X70520694Y16500000D01*
X70523000Y16476585D01*
X70523000Y16476578D01*
X70529903Y16406493D01*
X70557178Y16316578D01*
X70601471Y16233711D01*
X70661079Y16161079D01*
X70679276Y16146145D01*
X76153001Y10672419D01*
X76153000Y5900515D01*
X76048798Y5857353D01*
X75847833Y5723073D01*
X75676927Y5552167D01*
X75542647Y5351202D01*
X75450153Y5127903D01*
X75403000Y4890849D01*
X75403000Y4649151D01*
X75450153Y4412097D01*
X75485402Y4327000D01*
X75234598Y4327000D01*
X75269847Y4412097D01*
X75317000Y4649151D01*
X75317000Y4890849D01*
X75269847Y5127903D01*
X75177353Y5351202D01*
X75043073Y5552167D01*
X74872167Y5723073D01*
X74671202Y5857353D01*
X74447903Y5949847D01*
X74210849Y5997000D01*
X73969151Y5997000D01*
X73732097Y5949847D01*
X73508798Y5857353D01*
X73307833Y5723073D01*
X73136927Y5552167D01*
X73002647Y5351202D01*
X72910153Y5127903D01*
X72863000Y4890849D01*
X72863000Y4649151D01*
X72910153Y4412097D01*
X73002647Y4188798D01*
X73136927Y3987833D01*
X73307833Y3816927D01*
X73508798Y3682647D01*
X73577327Y3654261D01*
X72853761Y3292478D01*
X72818329Y3271891D01*
X72768776Y3231224D01*
X72728109Y3181671D01*
X72697891Y3125137D01*
X72687340Y3090356D01*
X72614080Y3114475D01*
X71729605Y2230000D01*
X72614080Y1345525D01*
X72673000Y1364923D01*
X72673000Y577000D01*
X25618035Y577000D01*
X25879081Y941315D01*
X23500000Y3320396D01*
X21120919Y941315D01*
X21381965Y577000D01*
X3028218Y577000D01*
X2529911Y625860D01*
X2077723Y762382D01*
X1660663Y984137D01*
X1294621Y1282674D01*
X993535Y1646624D01*
X768877Y2062122D01*
X629199Y2513343D01*
X577000Y3009989D01*
X577000Y3516412D01*
X19847450Y3516412D01*
X19914431Y2803519D01*
X20119204Y2117392D01*
X20453898Y1484398D01*
X20472132Y1457107D01*
X20941314Y1120920D01*
X23320395Y3500001D01*
X23679605Y3500001D01*
X26058686Y1120920D01*
X26527868Y1457107D01*
X26868237Y2087069D01*
X26949549Y2350849D01*
X27143000Y2350849D01*
X27143000Y2109151D01*
X27190153Y1872097D01*
X27282647Y1648798D01*
X27416927Y1447833D01*
X27587833Y1276927D01*
X27788798Y1142647D01*
X28012097Y1050153D01*
X28249151Y1003000D01*
X28490849Y1003000D01*
X28727903Y1050153D01*
X28951202Y1142647D01*
X29152167Y1276927D01*
X29323073Y1447833D01*
X29457353Y1648798D01*
X29549847Y1872097D01*
X29597000Y2109151D01*
X29597000Y2350849D01*
X29683000Y2350849D01*
X29683000Y2109151D01*
X29730153Y1872097D01*
X29822647Y1648798D01*
X29956927Y1447833D01*
X30127833Y1276927D01*
X30328798Y1142647D01*
X30552097Y1050153D01*
X30789151Y1003000D01*
X31030849Y1003000D01*
X31267903Y1050153D01*
X31491202Y1142647D01*
X31692167Y1276927D01*
X31863073Y1447833D01*
X31997353Y1648798D01*
X32089847Y1872097D01*
X32137000Y2109151D01*
X32137000Y2350849D01*
X32223000Y2350849D01*
X32223000Y2109151D01*
X32270153Y1872097D01*
X32362647Y1648798D01*
X32496927Y1447833D01*
X32667833Y1276927D01*
X32868798Y1142647D01*
X33092097Y1050153D01*
X33329151Y1003000D01*
X33570849Y1003000D01*
X33807903Y1050153D01*
X34031202Y1142647D01*
X34066032Y1165920D01*
X35105525Y1165920D01*
X35189208Y911739D01*
X35461775Y780842D01*
X35754642Y705635D01*
X36056553Y689009D01*
X36355907Y731603D01*
X36641199Y831778D01*
X36790792Y911739D01*
X36874475Y1165920D01*
X35990000Y2050395D01*
X35105525Y1165920D01*
X34066032Y1165920D01*
X34232167Y1276927D01*
X34403073Y1447833D01*
X34537353Y1648798D01*
X34553507Y1687796D01*
X34591778Y1578801D01*
X34671739Y1429208D01*
X34925920Y1345525D01*
X35810395Y2230000D01*
X36169605Y2230000D01*
X37054080Y1345525D01*
X37308261Y1429208D01*
X37429249Y1681142D01*
X37442647Y1648798D01*
X37576927Y1447833D01*
X37747833Y1276927D01*
X37948798Y1142647D01*
X38172097Y1050153D01*
X38409151Y1003000D01*
X38650849Y1003000D01*
X38887903Y1050153D01*
X39111202Y1142647D01*
X39146032Y1165920D01*
X40185525Y1165920D01*
X40269208Y911739D01*
X40541775Y780842D01*
X40834642Y705635D01*
X41136553Y689009D01*
X41435907Y731603D01*
X41721199Y831778D01*
X41870792Y911739D01*
X41954475Y1165920D01*
X41070000Y2050395D01*
X40185525Y1165920D01*
X39146032Y1165920D01*
X39312167Y1276927D01*
X39483073Y1447833D01*
X39617353Y1648798D01*
X39633507Y1687796D01*
X39671778Y1578801D01*
X39751739Y1429208D01*
X40005920Y1345525D01*
X40890395Y2230000D01*
X41249605Y2230000D01*
X42134080Y1345525D01*
X42388261Y1429208D01*
X42509249Y1681142D01*
X42522647Y1648798D01*
X42656927Y1447833D01*
X42827833Y1276927D01*
X43028798Y1142647D01*
X43252097Y1050153D01*
X43489151Y1003000D01*
X43730849Y1003000D01*
X43967903Y1050153D01*
X44191202Y1142647D01*
X44392167Y1276927D01*
X44563073Y1447833D01*
X44697353Y1648798D01*
X44789847Y1872097D01*
X44837000Y2109151D01*
X44837000Y2350849D01*
X44923000Y2350849D01*
X44923000Y2109151D01*
X44970153Y1872097D01*
X45062647Y1648798D01*
X45196927Y1447833D01*
X45367833Y1276927D01*
X45568798Y1142647D01*
X45792097Y1050153D01*
X46029151Y1003000D01*
X46270849Y1003000D01*
X46507903Y1050153D01*
X46731202Y1142647D01*
X46932167Y1276927D01*
X47103073Y1447833D01*
X47237353Y1648798D01*
X47329847Y1872097D01*
X47377000Y2109151D01*
X47377000Y2350849D01*
X47329847Y2587903D01*
X47237353Y2811202D01*
X47103073Y3012167D01*
X46932167Y3183073D01*
X46731202Y3317353D01*
X46692204Y3333507D01*
X46801199Y3371778D01*
X46950792Y3451739D01*
X47034475Y3705920D01*
X46150000Y4590395D01*
X45265525Y3705920D01*
X45349208Y3451739D01*
X45601142Y3330751D01*
X45568798Y3317353D01*
X45367833Y3183073D01*
X45196927Y3012167D01*
X45062647Y2811202D01*
X44970153Y2587903D01*
X44923000Y2350849D01*
X44837000Y2350849D01*
X44789847Y2587903D01*
X44697353Y2811202D01*
X44563073Y3012167D01*
X44392167Y3183073D01*
X44191202Y3317353D01*
X43967903Y3409847D01*
X43730849Y3457000D01*
X43489151Y3457000D01*
X43252097Y3409847D01*
X43028798Y3317353D01*
X42827833Y3183073D01*
X42656927Y3012167D01*
X42522647Y2811202D01*
X42506493Y2772204D01*
X42468222Y2881199D01*
X42388261Y3030792D01*
X42134080Y3114475D01*
X41249605Y2230000D01*
X40890395Y2230000D01*
X40005920Y3114475D01*
X39751739Y3030792D01*
X39630751Y2778858D01*
X39617353Y2811202D01*
X39483073Y3012167D01*
X39312167Y3183073D01*
X39111202Y3317353D01*
X38887903Y3409847D01*
X38650849Y3457000D01*
X38409151Y3457000D01*
X38172097Y3409847D01*
X37948798Y3317353D01*
X37747833Y3183073D01*
X37576927Y3012167D01*
X37442647Y2811202D01*
X37426493Y2772204D01*
X37388222Y2881199D01*
X37308261Y3030792D01*
X37054080Y3114475D01*
X36169605Y2230000D01*
X35810395Y2230000D01*
X34925920Y3114475D01*
X34671739Y3030792D01*
X34550751Y2778858D01*
X34537353Y2811202D01*
X34403073Y3012167D01*
X34232167Y3183073D01*
X34031202Y3317353D01*
X33807903Y3409847D01*
X33570849Y3457000D01*
X33329151Y3457000D01*
X33092097Y3409847D01*
X32868798Y3317353D01*
X32667833Y3183073D01*
X32496927Y3012167D01*
X32362647Y2811202D01*
X32270153Y2587903D01*
X32223000Y2350849D01*
X32137000Y2350849D01*
X32089847Y2587903D01*
X31997353Y2811202D01*
X31863073Y3012167D01*
X31692167Y3183073D01*
X31491202Y3317353D01*
X31267903Y3409847D01*
X31030849Y3457000D01*
X30789151Y3457000D01*
X30552097Y3409847D01*
X30328798Y3317353D01*
X30127833Y3183073D01*
X29956927Y3012167D01*
X29822647Y2811202D01*
X29730153Y2587903D01*
X29683000Y2350849D01*
X29597000Y2350849D01*
X29549847Y2587903D01*
X29457353Y2811202D01*
X29323073Y3012167D01*
X29152167Y3183073D01*
X28951202Y3317353D01*
X28912204Y3333507D01*
X29021199Y3371778D01*
X29170792Y3451739D01*
X29254475Y3705920D01*
X28370000Y4590395D01*
X27485525Y3705920D01*
X27569208Y3451739D01*
X27821142Y3330751D01*
X27788798Y3317353D01*
X27587833Y3183073D01*
X27416927Y3012167D01*
X27282647Y2811202D01*
X27190153Y2587903D01*
X27143000Y2350849D01*
X26949549Y2350849D01*
X27079166Y2771328D01*
X27152550Y3483590D01*
X27108684Y3950460D01*
X27305920Y3885525D01*
X28190395Y4770000D01*
X28549605Y4770000D01*
X29434080Y3885525D01*
X29688261Y3969208D01*
X29809249Y4221142D01*
X29822647Y4188798D01*
X29956927Y3987833D01*
X30127833Y3816927D01*
X30328798Y3682647D01*
X30552097Y3590153D01*
X30789151Y3543000D01*
X31030849Y3543000D01*
X31267903Y3590153D01*
X31491202Y3682647D01*
X31692167Y3816927D01*
X31863073Y3987833D01*
X31997353Y4188798D01*
X32089847Y4412097D01*
X32137000Y4649151D01*
X32137000Y4890849D01*
X32223000Y4890849D01*
X32223000Y4649151D01*
X32270153Y4412097D01*
X32362647Y4188798D01*
X32496927Y3987833D01*
X32667833Y3816927D01*
X32868798Y3682647D01*
X33092097Y3590153D01*
X33329151Y3543000D01*
X33570849Y3543000D01*
X33807903Y3590153D01*
X34031202Y3682647D01*
X34232167Y3816927D01*
X34403073Y3987833D01*
X34537353Y4188798D01*
X34629847Y4412097D01*
X34677000Y4649151D01*
X34677000Y4890849D01*
X34763000Y4890849D01*
X34763000Y4649151D01*
X34810153Y4412097D01*
X34902647Y4188798D01*
X35036927Y3987833D01*
X35207833Y3816927D01*
X35408798Y3682647D01*
X35447796Y3666493D01*
X35338801Y3628222D01*
X35189208Y3548261D01*
X35105525Y3294080D01*
X35990000Y2409605D01*
X36874475Y3294080D01*
X36790792Y3548261D01*
X36538858Y3669249D01*
X36571202Y3682647D01*
X36772167Y3816927D01*
X36943073Y3987833D01*
X37077353Y4188798D01*
X37169847Y4412097D01*
X37217000Y4649151D01*
X37217000Y4890849D01*
X37303000Y4890849D01*
X37303000Y4649151D01*
X37350153Y4412097D01*
X37442647Y4188798D01*
X37576927Y3987833D01*
X37747833Y3816927D01*
X37948798Y3682647D01*
X38172097Y3590153D01*
X38409151Y3543000D01*
X38650849Y3543000D01*
X38887903Y3590153D01*
X39111202Y3682647D01*
X39312167Y3816927D01*
X39483073Y3987833D01*
X39617353Y4188798D01*
X39709847Y4412097D01*
X39757000Y4649151D01*
X39757000Y4890849D01*
X39843000Y4890849D01*
X39843000Y4649151D01*
X39890153Y4412097D01*
X39982647Y4188798D01*
X40116927Y3987833D01*
X40287833Y3816927D01*
X40488798Y3682647D01*
X40527796Y3666493D01*
X40418801Y3628222D01*
X40269208Y3548261D01*
X40185525Y3294080D01*
X41070000Y2409605D01*
X41954475Y3294080D01*
X41870792Y3548261D01*
X41618858Y3669249D01*
X41651202Y3682647D01*
X41852167Y3816927D01*
X42023073Y3987833D01*
X42157353Y4188798D01*
X42249847Y4412097D01*
X42297000Y4649151D01*
X42297000Y4890849D01*
X42383000Y4890849D01*
X42383000Y4649151D01*
X42430153Y4412097D01*
X42522647Y4188798D01*
X42656927Y3987833D01*
X42827833Y3816927D01*
X43028798Y3682647D01*
X43252097Y3590153D01*
X43489151Y3543000D01*
X43730849Y3543000D01*
X43967903Y3590153D01*
X44191202Y3682647D01*
X44392167Y3816927D01*
X44563073Y3987833D01*
X44697353Y4188798D01*
X44713507Y4227796D01*
X44751778Y4118801D01*
X44831739Y3969208D01*
X45085920Y3885525D01*
X45970395Y4770000D01*
X45085920Y5654475D01*
X44831739Y5570792D01*
X44710751Y5318858D01*
X44697353Y5351202D01*
X44563073Y5552167D01*
X44392167Y5723073D01*
X44226033Y5834080D01*
X45265525Y5834080D01*
X46150000Y4949605D01*
X47034475Y5834080D01*
X46950792Y6088261D01*
X46678225Y6219158D01*
X46385358Y6294365D01*
X46083447Y6310991D01*
X45784093Y6268397D01*
X45498801Y6168222D01*
X45349208Y6088261D01*
X45265525Y5834080D01*
X44226033Y5834080D01*
X44191202Y5857353D01*
X43967903Y5949847D01*
X43730849Y5997000D01*
X43489151Y5997000D01*
X43252097Y5949847D01*
X43028798Y5857353D01*
X42827833Y5723073D01*
X42656927Y5552167D01*
X42522647Y5351202D01*
X42430153Y5127903D01*
X42383000Y4890849D01*
X42297000Y4890849D01*
X42249847Y5127903D01*
X42157353Y5351202D01*
X42023073Y5552167D01*
X41852167Y5723073D01*
X41651202Y5857353D01*
X41427903Y5949847D01*
X41190849Y5997000D01*
X40949151Y5997000D01*
X40712097Y5949847D01*
X40488798Y5857353D01*
X40287833Y5723073D01*
X40116927Y5552167D01*
X39982647Y5351202D01*
X39890153Y5127903D01*
X39843000Y4890849D01*
X39757000Y4890849D01*
X39709847Y5127903D01*
X39617353Y5351202D01*
X39483073Y5552167D01*
X39312167Y5723073D01*
X39111202Y5857353D01*
X38887903Y5949847D01*
X38650849Y5997000D01*
X38409151Y5997000D01*
X38172097Y5949847D01*
X37948798Y5857353D01*
X37747833Y5723073D01*
X37576927Y5552167D01*
X37442647Y5351202D01*
X37350153Y5127903D01*
X37303000Y4890849D01*
X37217000Y4890849D01*
X37169847Y5127903D01*
X37077353Y5351202D01*
X36943073Y5552167D01*
X36772167Y5723073D01*
X36571202Y5857353D01*
X36347903Y5949847D01*
X36110849Y5997000D01*
X35869151Y5997000D01*
X35632097Y5949847D01*
X35408798Y5857353D01*
X35207833Y5723073D01*
X35036927Y5552167D01*
X34902647Y5351202D01*
X34810153Y5127903D01*
X34763000Y4890849D01*
X34677000Y4890849D01*
X34629847Y5127903D01*
X34537353Y5351202D01*
X34403073Y5552167D01*
X34232167Y5723073D01*
X34031202Y5857353D01*
X33807903Y5949847D01*
X33570849Y5997000D01*
X33329151Y5997000D01*
X33092097Y5949847D01*
X32868798Y5857353D01*
X32667833Y5723073D01*
X32496927Y5552167D01*
X32362647Y5351202D01*
X32270153Y5127903D01*
X32223000Y4890849D01*
X32137000Y4890849D01*
X32089847Y5127903D01*
X31997353Y5351202D01*
X31863073Y5552167D01*
X31692167Y5723073D01*
X31491202Y5857353D01*
X31267903Y5949847D01*
X31030849Y5997000D01*
X30789151Y5997000D01*
X30552097Y5949847D01*
X30328798Y5857353D01*
X30127833Y5723073D01*
X29956927Y5552167D01*
X29822647Y5351202D01*
X29806493Y5312204D01*
X29768222Y5421199D01*
X29688261Y5570792D01*
X29434080Y5654475D01*
X28549605Y4770000D01*
X28190395Y4770000D01*
X27305920Y5654475D01*
X27051739Y5570792D01*
X26920842Y5298225D01*
X26845635Y5005358D01*
X26842830Y4954414D01*
X26546102Y5515604D01*
X26527868Y5542895D01*
X26121491Y5834080D01*
X27485525Y5834080D01*
X28370000Y4949605D01*
X29254475Y5834080D01*
X29170792Y6088261D01*
X28898225Y6219158D01*
X28605358Y6294365D01*
X28303447Y6310991D01*
X28004093Y6268397D01*
X27718801Y6168222D01*
X27569208Y6088261D01*
X27485525Y5834080D01*
X26121491Y5834080D01*
X26058686Y5879082D01*
X23679605Y3500001D01*
X23320395Y3500001D01*
X20941314Y5879082D01*
X20472132Y5542895D01*
X20131763Y4912933D01*
X19920834Y4228674D01*
X19847450Y3516412D01*
X577000Y3516412D01*
X577000Y42089754D01*
X9023000Y42089754D01*
X9023001Y13910245D01*
X9049436Y13641845D01*
X9153906Y13297454D01*
X9323556Y12980062D01*
X9551866Y12701865D01*
X9830063Y12473555D01*
X10147455Y12303905D01*
X10491846Y12199435D01*
X10850000Y12164160D01*
X11208155Y12199435D01*
X11552546Y12303905D01*
X11869938Y12473555D01*
X12148135Y12701865D01*
X12376445Y12980062D01*
X12546095Y13297454D01*
X12650565Y13641845D01*
X12677000Y13910245D01*
X12677000Y24899956D01*
X13370891Y24899956D01*
X13372956Y24878989D01*
X13372957Y16321021D01*
X13370891Y16300044D01*
X13372957Y16279067D01*
X13372957Y16279066D01*
X13379135Y16216337D01*
X13390379Y16179273D01*
X13403552Y16135848D01*
X13443201Y16061668D01*
X13483188Y16012944D01*
X13483193Y16012939D01*
X13496562Y15996649D01*
X13512852Y15983280D01*
X22500881Y6995249D01*
X22117391Y6880797D01*
X21484397Y6546103D01*
X21457106Y6527869D01*
X21120919Y6058687D01*
X23500000Y3679606D01*
X25879081Y6058687D01*
X25618037Y6423000D01*
X44126040Y6423000D01*
X44147104Y6317102D01*
X44194369Y6202995D01*
X44262986Y6100302D01*
X44350320Y6012968D01*
X44453013Y5944351D01*
X44567120Y5897086D01*
X44688255Y5872991D01*
X44811763Y5872991D01*
X44932898Y5897086D01*
X45047005Y5944351D01*
X45149698Y6012968D01*
X45237032Y6100302D01*
X45305649Y6202995D01*
X45352914Y6317102D01*
X45377009Y6438237D01*
X45377009Y6561745D01*
X45352914Y6682880D01*
X45305649Y6796987D01*
X45288268Y6823000D01*
X47323132Y6823000D01*
X48236062Y5910068D01*
X48108798Y5857353D01*
X47907833Y5723073D01*
X47736927Y5552167D01*
X47602647Y5351202D01*
X47586493Y5312204D01*
X47548222Y5421199D01*
X47468261Y5570792D01*
X47214080Y5654475D01*
X46329605Y4770000D01*
X47214080Y3885525D01*
X47468261Y3969208D01*
X47589249Y4221142D01*
X47602647Y4188798D01*
X47736927Y3987833D01*
X47907833Y3816927D01*
X48108798Y3682647D01*
X48332097Y3590153D01*
X48569151Y3543000D01*
X48810849Y3543000D01*
X49047903Y3590153D01*
X49271202Y3682647D01*
X49472167Y3816927D01*
X49523000Y3867760D01*
X49523000Y3666869D01*
X49202105Y3345974D01*
X49047903Y3409847D01*
X48810849Y3457000D01*
X48569151Y3457000D01*
X48332097Y3409847D01*
X48108798Y3317353D01*
X47907833Y3183073D01*
X47736927Y3012167D01*
X47602647Y2811202D01*
X47510153Y2587903D01*
X47463000Y2350849D01*
X47463000Y2109151D01*
X47510153Y1872097D01*
X47602647Y1648798D01*
X47736927Y1447833D01*
X47907833Y1276927D01*
X48108798Y1142647D01*
X48332097Y1050153D01*
X48569151Y1003000D01*
X48810849Y1003000D01*
X49047903Y1050153D01*
X49271202Y1142647D01*
X49472167Y1276927D01*
X49643073Y1447833D01*
X49777353Y1648798D01*
X49869847Y1872097D01*
X49917000Y2109151D01*
X49917000Y2350849D01*
X50003000Y2350849D01*
X50003000Y2109151D01*
X50050153Y1872097D01*
X50142647Y1648798D01*
X50276927Y1447833D01*
X50447833Y1276927D01*
X50648798Y1142647D01*
X50872097Y1050153D01*
X51109151Y1003000D01*
X51350849Y1003000D01*
X51587903Y1050153D01*
X51811202Y1142647D01*
X51846032Y1165920D01*
X52885525Y1165920D01*
X52969208Y911739D01*
X53241775Y780842D01*
X53534642Y705635D01*
X53836553Y689009D01*
X54135907Y731603D01*
X54421199Y831778D01*
X54570792Y911739D01*
X54654475Y1165920D01*
X53770000Y2050395D01*
X52885525Y1165920D01*
X51846032Y1165920D01*
X52012167Y1276927D01*
X52183073Y1447833D01*
X52317353Y1648798D01*
X52333507Y1687796D01*
X52371778Y1578801D01*
X52451739Y1429208D01*
X52705920Y1345525D01*
X53590395Y2230000D01*
X53949605Y2230000D01*
X54834080Y1345525D01*
X55088261Y1429208D01*
X55209249Y1681142D01*
X55222647Y1648798D01*
X55356927Y1447833D01*
X55527833Y1276927D01*
X55728798Y1142647D01*
X55952097Y1050153D01*
X56189151Y1003000D01*
X56430849Y1003000D01*
X56667903Y1050153D01*
X56891202Y1142647D01*
X57092167Y1276927D01*
X57263073Y1447833D01*
X57397353Y1648798D01*
X57489847Y1872097D01*
X57537000Y2109151D01*
X57537000Y2350849D01*
X57623000Y2350849D01*
X57623000Y2109151D01*
X57670153Y1872097D01*
X57762647Y1648798D01*
X57896927Y1447833D01*
X58067833Y1276927D01*
X58268798Y1142647D01*
X58492097Y1050153D01*
X58729151Y1003000D01*
X58970849Y1003000D01*
X59207903Y1050153D01*
X59431202Y1142647D01*
X59466032Y1165920D01*
X60505525Y1165920D01*
X60589208Y911739D01*
X60861775Y780842D01*
X61154642Y705635D01*
X61456553Y689009D01*
X61755907Y731603D01*
X62041199Y831778D01*
X62190792Y911739D01*
X62274475Y1165920D01*
X61390000Y2050395D01*
X60505525Y1165920D01*
X59466032Y1165920D01*
X59632167Y1276927D01*
X59803073Y1447833D01*
X59937353Y1648798D01*
X59953507Y1687796D01*
X59991778Y1578801D01*
X60071739Y1429208D01*
X60325920Y1345525D01*
X61210395Y2230000D01*
X61569605Y2230000D01*
X62454080Y1345525D01*
X62708261Y1429208D01*
X62829249Y1681142D01*
X62842647Y1648798D01*
X62976927Y1447833D01*
X63147833Y1276927D01*
X63348798Y1142647D01*
X63572097Y1050153D01*
X63809151Y1003000D01*
X64050849Y1003000D01*
X64287903Y1050153D01*
X64511202Y1142647D01*
X64712167Y1276927D01*
X64883073Y1447833D01*
X65017353Y1648798D01*
X65109847Y1872097D01*
X65157000Y2109151D01*
X65157000Y2350849D01*
X65243000Y2350849D01*
X65243000Y2109151D01*
X65290153Y1872097D01*
X65382647Y1648798D01*
X65516927Y1447833D01*
X65687833Y1276927D01*
X65888798Y1142647D01*
X66112097Y1050153D01*
X66349151Y1003000D01*
X66590849Y1003000D01*
X66827903Y1050153D01*
X67051202Y1142647D01*
X67252167Y1276927D01*
X67423073Y1447833D01*
X67557353Y1648798D01*
X67649847Y1872097D01*
X67697000Y2109151D01*
X67697000Y2350849D01*
X67783000Y2350849D01*
X67783000Y2109151D01*
X67830153Y1872097D01*
X67922647Y1648798D01*
X68056927Y1447833D01*
X68227833Y1276927D01*
X68428798Y1142647D01*
X68652097Y1050153D01*
X68889151Y1003000D01*
X69130849Y1003000D01*
X69367903Y1050153D01*
X69591202Y1142647D01*
X69626032Y1165920D01*
X70665525Y1165920D01*
X70749208Y911739D01*
X71021775Y780842D01*
X71314642Y705635D01*
X71616553Y689009D01*
X71915907Y731603D01*
X72201199Y831778D01*
X72350792Y911739D01*
X72434475Y1165920D01*
X71550000Y2050395D01*
X70665525Y1165920D01*
X69626032Y1165920D01*
X69792167Y1276927D01*
X69963073Y1447833D01*
X70097353Y1648798D01*
X70113507Y1687796D01*
X70151778Y1578801D01*
X70231739Y1429208D01*
X70485920Y1345525D01*
X71370395Y2230000D01*
X70485920Y3114475D01*
X70231739Y3030792D01*
X70110751Y2778858D01*
X70097353Y2811202D01*
X69963073Y3012167D01*
X69792167Y3183073D01*
X69591202Y3317353D01*
X69367903Y3409847D01*
X69130849Y3457000D01*
X68889151Y3457000D01*
X68652097Y3409847D01*
X68428798Y3317353D01*
X68227833Y3183073D01*
X68056927Y3012167D01*
X67922647Y2811202D01*
X67830153Y2587903D01*
X67783000Y2350849D01*
X67697000Y2350849D01*
X67649847Y2587903D01*
X67557353Y2811202D01*
X67423073Y3012167D01*
X67252167Y3183073D01*
X67051202Y3317353D01*
X67012204Y3333507D01*
X67121199Y3371778D01*
X67270792Y3451739D01*
X67354475Y3705920D01*
X66470000Y4590395D01*
X65585525Y3705920D01*
X65669208Y3451739D01*
X65921142Y3330751D01*
X65888798Y3317353D01*
X65687833Y3183073D01*
X65516927Y3012167D01*
X65382647Y2811202D01*
X65290153Y2587903D01*
X65243000Y2350849D01*
X65157000Y2350849D01*
X65109847Y2587903D01*
X65017353Y2811202D01*
X64883073Y3012167D01*
X64712167Y3183073D01*
X64511202Y3317353D01*
X64287903Y3409847D01*
X64050849Y3457000D01*
X63809151Y3457000D01*
X63572097Y3409847D01*
X63348798Y3317353D01*
X63147833Y3183073D01*
X62976927Y3012167D01*
X62842647Y2811202D01*
X62826493Y2772204D01*
X62788222Y2881199D01*
X62708261Y3030792D01*
X62454080Y3114475D01*
X61569605Y2230000D01*
X61210395Y2230000D01*
X60325920Y3114475D01*
X60071739Y3030792D01*
X59950751Y2778858D01*
X59937353Y2811202D01*
X59803073Y3012167D01*
X59632167Y3183073D01*
X59431202Y3317353D01*
X59207903Y3409847D01*
X58970849Y3457000D01*
X58729151Y3457000D01*
X58492097Y3409847D01*
X58268798Y3317353D01*
X58067833Y3183073D01*
X57896927Y3012167D01*
X57762647Y2811202D01*
X57670153Y2587903D01*
X57623000Y2350849D01*
X57537000Y2350849D01*
X57489847Y2587903D01*
X57397353Y2811202D01*
X57263073Y3012167D01*
X57092167Y3183073D01*
X56891202Y3317353D01*
X56667903Y3409847D01*
X56430849Y3457000D01*
X56189151Y3457000D01*
X55952097Y3409847D01*
X55728798Y3317353D01*
X55527833Y3183073D01*
X55356927Y3012167D01*
X55222647Y2811202D01*
X55206493Y2772204D01*
X55168222Y2881199D01*
X55088261Y3030792D01*
X54834080Y3114475D01*
X53949605Y2230000D01*
X53590395Y2230000D01*
X52705920Y3114475D01*
X52451739Y3030792D01*
X52330751Y2778858D01*
X52317353Y2811202D01*
X52183073Y3012167D01*
X52012167Y3183073D01*
X51811202Y3317353D01*
X51587903Y3409847D01*
X51350849Y3457000D01*
X51109151Y3457000D01*
X50872097Y3409847D01*
X50648798Y3317353D01*
X50447833Y3183073D01*
X50276927Y3012167D01*
X50142647Y2811202D01*
X50050153Y2587903D01*
X50003000Y2350849D01*
X49917000Y2350849D01*
X49869847Y2587903D01*
X49805974Y2742105D01*
X50237106Y3173237D01*
X50253395Y3186605D01*
X50266764Y3202895D01*
X50266768Y3202899D01*
X50306755Y3251623D01*
X50329448Y3294080D01*
X50346405Y3325804D01*
X50370822Y3406293D01*
X50377000Y3469022D01*
X50377000Y3469032D01*
X50379065Y3489999D01*
X50377000Y3510966D01*
X50377000Y3887760D01*
X50447833Y3816927D01*
X50648798Y3682647D01*
X50872097Y3590153D01*
X51109151Y3543000D01*
X51350849Y3543000D01*
X51587903Y3590153D01*
X51811202Y3682647D01*
X52012167Y3816927D01*
X52183073Y3987833D01*
X52317353Y4188798D01*
X52409847Y4412097D01*
X52457000Y4649151D01*
X52457000Y4890849D01*
X52409847Y5127903D01*
X52317353Y5351202D01*
X52183073Y5552167D01*
X52012167Y5723073D01*
X51862615Y5823000D01*
X53137385Y5823000D01*
X52987833Y5723073D01*
X52816927Y5552167D01*
X52682647Y5351202D01*
X52590153Y5127903D01*
X52543000Y4890849D01*
X52543000Y4649151D01*
X52590153Y4412097D01*
X52682647Y4188798D01*
X52816927Y3987833D01*
X52987833Y3816927D01*
X53188798Y3682647D01*
X53227796Y3666493D01*
X53118801Y3628222D01*
X52969208Y3548261D01*
X52885525Y3294080D01*
X53770000Y2409605D01*
X54654475Y3294080D01*
X54570792Y3548261D01*
X54318858Y3669249D01*
X54351202Y3682647D01*
X54552167Y3816927D01*
X54723073Y3987833D01*
X54857353Y4188798D01*
X54949847Y4412097D01*
X54997000Y4649151D01*
X54997000Y4890849D01*
X54949847Y5127903D01*
X54857353Y5351202D01*
X54723073Y5552167D01*
X54552167Y5723073D01*
X54402615Y5823000D01*
X55677385Y5823000D01*
X55527833Y5723073D01*
X55356927Y5552167D01*
X55222647Y5351202D01*
X55130153Y5127903D01*
X55083000Y4890849D01*
X55083000Y4649151D01*
X55130153Y4412097D01*
X55222647Y4188798D01*
X55356927Y3987833D01*
X55527833Y3816927D01*
X55728798Y3682647D01*
X55952097Y3590153D01*
X56189151Y3543000D01*
X56430849Y3543000D01*
X56667903Y3590153D01*
X56891202Y3682647D01*
X57092167Y3816927D01*
X57263073Y3987833D01*
X57397353Y4188798D01*
X57489847Y4412097D01*
X57537000Y4649151D01*
X57537000Y4890849D01*
X57489847Y5127903D01*
X57397353Y5351202D01*
X57263073Y5552167D01*
X57092167Y5723073D01*
X56942615Y5823000D01*
X57193132Y5823000D01*
X57734026Y5282105D01*
X57670153Y5127903D01*
X57623000Y4890849D01*
X57623000Y4649151D01*
X57670153Y4412097D01*
X57762647Y4188798D01*
X57896927Y3987833D01*
X58067833Y3816927D01*
X58268798Y3682647D01*
X58492097Y3590153D01*
X58729151Y3543000D01*
X58970849Y3543000D01*
X59207903Y3590153D01*
X59431202Y3682647D01*
X59632167Y3816927D01*
X59803073Y3987833D01*
X59937353Y4188798D01*
X60029847Y4412097D01*
X60077000Y4649151D01*
X60077000Y4890849D01*
X60029847Y5127903D01*
X59937353Y5351202D01*
X59803073Y5552167D01*
X59632167Y5723073D01*
X59431202Y5857353D01*
X59207903Y5949847D01*
X58970849Y5997000D01*
X58729151Y5997000D01*
X58492097Y5949847D01*
X58337895Y5885974D01*
X57900868Y6323000D01*
X59233132Y6323000D01*
X60202900Y5353231D01*
X60202905Y5353227D01*
X60274026Y5282106D01*
X60210153Y5127903D01*
X60163000Y4890849D01*
X60163000Y4649151D01*
X60210153Y4412097D01*
X60302647Y4188798D01*
X60436927Y3987833D01*
X60607833Y3816927D01*
X60808798Y3682647D01*
X60847796Y3666493D01*
X60738801Y3628222D01*
X60589208Y3548261D01*
X60505525Y3294080D01*
X61390000Y2409605D01*
X62274475Y3294080D01*
X62190792Y3548261D01*
X61938858Y3669249D01*
X61971202Y3682647D01*
X62172167Y3816927D01*
X62343073Y3987833D01*
X62477353Y4188798D01*
X62569847Y4412097D01*
X62617000Y4649151D01*
X62617000Y4890849D01*
X62703000Y4890849D01*
X62703000Y4649151D01*
X62750153Y4412097D01*
X62842647Y4188798D01*
X62976927Y3987833D01*
X63147833Y3816927D01*
X63348798Y3682647D01*
X63572097Y3590153D01*
X63809151Y3543000D01*
X64050849Y3543000D01*
X64287903Y3590153D01*
X64511202Y3682647D01*
X64712167Y3816927D01*
X64883073Y3987833D01*
X65017353Y4188798D01*
X65033507Y4227796D01*
X65071778Y4118801D01*
X65151739Y3969208D01*
X65405920Y3885525D01*
X66290395Y4770000D01*
X66649605Y4770000D01*
X67534080Y3885525D01*
X67788261Y3969208D01*
X67909249Y4221142D01*
X67922647Y4188798D01*
X68056927Y3987833D01*
X68227833Y3816927D01*
X68428798Y3682647D01*
X68652097Y3590153D01*
X68889151Y3543000D01*
X69130849Y3543000D01*
X69367903Y3590153D01*
X69591202Y3682647D01*
X69792167Y3816927D01*
X69963073Y3987833D01*
X70097353Y4188798D01*
X70189847Y4412097D01*
X70237000Y4649151D01*
X70237000Y4890849D01*
X70323000Y4890849D01*
X70323000Y4649151D01*
X70370153Y4412097D01*
X70462647Y4188798D01*
X70596927Y3987833D01*
X70767833Y3816927D01*
X70968798Y3682647D01*
X71007796Y3666493D01*
X70898801Y3628222D01*
X70749208Y3548261D01*
X70665525Y3294080D01*
X71550000Y2409605D01*
X72434475Y3294080D01*
X72350792Y3548261D01*
X72098858Y3669249D01*
X72131202Y3682647D01*
X72332167Y3816927D01*
X72503073Y3987833D01*
X72637353Y4188798D01*
X72729847Y4412097D01*
X72777000Y4649151D01*
X72777000Y4890849D01*
X72729847Y5127903D01*
X72637353Y5351202D01*
X72503073Y5552167D01*
X72332167Y5723073D01*
X72131202Y5857353D01*
X71907903Y5949847D01*
X71670849Y5997000D01*
X71429151Y5997000D01*
X71192097Y5949847D01*
X70968798Y5857353D01*
X70767833Y5723073D01*
X70596927Y5552167D01*
X70462647Y5351202D01*
X70370153Y5127903D01*
X70323000Y4890849D01*
X70237000Y4890849D01*
X70189847Y5127903D01*
X70097353Y5351202D01*
X69963073Y5552167D01*
X69792167Y5723073D01*
X69591202Y5857353D01*
X69367903Y5949847D01*
X69130849Y5997000D01*
X68889151Y5997000D01*
X68652097Y5949847D01*
X68428798Y5857353D01*
X68227833Y5723073D01*
X68056927Y5552167D01*
X67922647Y5351202D01*
X67906493Y5312204D01*
X67868222Y5421199D01*
X67788261Y5570792D01*
X67534080Y5654475D01*
X66649605Y4770000D01*
X66290395Y4770000D01*
X65405920Y5654475D01*
X65151739Y5570792D01*
X65030751Y5318858D01*
X65017353Y5351202D01*
X64883073Y5552167D01*
X64712167Y5723073D01*
X64546033Y5834080D01*
X65585525Y5834080D01*
X66470000Y4949605D01*
X67354475Y5834080D01*
X67270792Y6088261D01*
X66998225Y6219158D01*
X66705358Y6294365D01*
X66403447Y6310991D01*
X66104093Y6268397D01*
X65818801Y6168222D01*
X65669208Y6088261D01*
X65585525Y5834080D01*
X64546033Y5834080D01*
X64511202Y5857353D01*
X64287903Y5949847D01*
X64050849Y5997000D01*
X63809151Y5997000D01*
X63572097Y5949847D01*
X63348798Y5857353D01*
X63147833Y5723073D01*
X62976927Y5552167D01*
X62842647Y5351202D01*
X62750153Y5127903D01*
X62703000Y4890849D01*
X62617000Y4890849D01*
X62569847Y5127903D01*
X62477353Y5351202D01*
X62343073Y5552167D01*
X62172167Y5723073D01*
X61971202Y5857353D01*
X61747903Y5949847D01*
X61510849Y5997000D01*
X61269151Y5997000D01*
X61032097Y5949847D01*
X60877894Y5885974D01*
X60806773Y5957095D01*
X60806769Y5957100D01*
X59726767Y7037101D01*
X59713395Y7053395D01*
X59648376Y7106755D01*
X59574196Y7146405D01*
X59493707Y7170822D01*
X59430978Y7177000D01*
X59430967Y7177000D01*
X59410000Y7179065D01*
X59389033Y7177000D01*
X50426869Y7177000D01*
X48866734Y8737134D01*
X48853362Y8753428D01*
X48788343Y8806788D01*
X48714163Y8846438D01*
X48633674Y8870855D01*
X48570945Y8877033D01*
X48570934Y8877033D01*
X48549967Y8879098D01*
X48529000Y8877033D01*
X24089636Y8877033D01*
X19252082Y13714587D01*
X66144192Y13714587D01*
X66239956Y13450186D01*
X66529571Y13309296D01*
X66841108Y13227616D01*
X67162595Y13208282D01*
X67481675Y13252039D01*
X67786088Y13357205D01*
X67960044Y13450186D01*
X68055808Y13714587D01*
X67100000Y14670395D01*
X66144192Y13714587D01*
X19252082Y13714587D01*
X18179264Y14787405D01*
X65458282Y14787405D01*
X65502039Y14468325D01*
X65607205Y14163912D01*
X65700186Y13989956D01*
X65964587Y13894192D01*
X66920395Y14850000D01*
X67279605Y14850000D01*
X68235413Y13894192D01*
X68499814Y13989956D01*
X68640704Y14279571D01*
X68722384Y14591108D01*
X68741718Y14912595D01*
X68697961Y15231675D01*
X68592795Y15536088D01*
X68499814Y15710044D01*
X68235413Y15805808D01*
X67279605Y14850000D01*
X66920395Y14850000D01*
X65964587Y15805808D01*
X65700186Y15710044D01*
X65559296Y15420429D01*
X65477616Y15108892D01*
X65458282Y14787405D01*
X18179264Y14787405D01*
X16981256Y15985413D01*
X66144192Y15985413D01*
X67100000Y15029605D01*
X68055808Y15985413D01*
X67960044Y16249814D01*
X67670429Y16390704D01*
X67358892Y16472384D01*
X67037405Y16491718D01*
X66718325Y16447961D01*
X66413912Y16342795D01*
X66239956Y16249814D01*
X66144192Y15985413D01*
X16981256Y15985413D01*
X15827000Y17139668D01*
X15827000Y24023132D01*
X16625285Y24821416D01*
X18783456Y24821416D01*
X18783456Y24598416D01*
X18789770Y24534313D01*
X18800659Y24498416D01*
X18789770Y24462519D01*
X18783456Y24398416D01*
X18783456Y24098416D01*
X18789770Y24034313D01*
X18800659Y23998416D01*
X18789770Y23962519D01*
X18783456Y23898416D01*
X18783456Y23598416D01*
X18789770Y23534313D01*
X18800659Y23498416D01*
X18789770Y23462519D01*
X18783456Y23398416D01*
X18783456Y23098416D01*
X18789770Y23034313D01*
X18800659Y22998416D01*
X18789770Y22962519D01*
X18783456Y22898416D01*
X18783456Y22598416D01*
X18789770Y22534313D01*
X18800659Y22498416D01*
X18789770Y22462519D01*
X18788136Y22445934D01*
X18766529Y22434848D01*
X18668515Y22357136D01*
X18587546Y22261794D01*
X18526732Y22152489D01*
X18488412Y22033419D01*
X18477038Y21930166D01*
X18635788Y21771416D01*
X19095977Y21771416D01*
X19112038Y21769834D01*
X19884038Y21769834D01*
X19884038Y21726998D01*
X19112038Y21726998D01*
X19095977Y21725416D01*
X18635788Y21725416D01*
X18477038Y21566666D01*
X18488412Y21463413D01*
X18526732Y21344343D01*
X18580103Y21248416D01*
X18526732Y21152489D01*
X18488412Y21033419D01*
X18477745Y20936584D01*
X18385960Y20936584D01*
X18385960Y20777836D01*
X18227212Y20936584D01*
X17712962Y20939656D01*
X17588480Y20927396D01*
X17468782Y20891086D01*
X17358468Y20832121D01*
X17261777Y20752769D01*
X17182425Y20656078D01*
X17123460Y20545764D01*
X17087150Y20426066D01*
X17074890Y20301584D01*
X17077962Y20187334D01*
X17161309Y20103987D01*
X17118782Y20091086D01*
X17008468Y20032121D01*
X16911777Y19952769D01*
X16832425Y19856078D01*
X16805962Y19806570D01*
X16805962Y19977834D01*
X16647212Y20136584D01*
X16507962Y20139656D01*
X16383480Y20127396D01*
X16263782Y20091086D01*
X16153468Y20032121D01*
X16056777Y19952769D01*
X15977425Y19856078D01*
X15918460Y19745764D01*
X15882150Y19626066D01*
X15869890Y19501584D01*
X15872962Y19137334D01*
X16031712Y18978584D01*
X16726647Y18978584D01*
X16727501Y18724584D01*
X16031712Y18724584D01*
X15872962Y18565834D01*
X15869890Y18201584D01*
X15882150Y18077102D01*
X15918460Y17957404D01*
X15977425Y17847090D01*
X16056777Y17750399D01*
X16153468Y17671047D01*
X16263782Y17612082D01*
X16383480Y17575772D01*
X16507962Y17563512D01*
X16647212Y17566584D01*
X16726720Y17646092D01*
X16724890Y17101584D01*
X16737150Y16977102D01*
X16773460Y16857404D01*
X16832425Y16747090D01*
X16911777Y16650399D01*
X17008468Y16571047D01*
X17118782Y16512082D01*
X17238480Y16475772D01*
X17362962Y16463512D01*
X18177212Y16466584D01*
X18335962Y16625334D01*
X18335962Y18174584D01*
X18589962Y18174584D01*
X18589962Y16625334D01*
X18748712Y16466584D01*
X19562962Y16463512D01*
X19687444Y16475772D01*
X19807142Y16512082D01*
X19917456Y16571047D01*
X20014147Y16650399D01*
X20093499Y16747090D01*
X20152464Y16857404D01*
X20188774Y16977102D01*
X20201034Y17101584D01*
X20197962Y18015834D01*
X20039212Y18174584D01*
X18589962Y18174584D01*
X18335962Y18174584D01*
X18315962Y18174584D01*
X18315962Y18428584D01*
X18335962Y18428584D01*
X18335962Y18975334D01*
X18385962Y19025334D01*
X18385962Y19774584D01*
X18365962Y19774584D01*
X18365962Y20028584D01*
X18385962Y20028584D01*
X18385962Y20048584D01*
X18639962Y20048584D01*
X18639962Y20028584D01*
X18640712Y20028584D01*
X18589962Y19977834D01*
X18589962Y18428584D01*
X20039212Y18428584D01*
X20197962Y18587334D01*
X20201034Y19501584D01*
X20188774Y19626066D01*
X20152464Y19745764D01*
X20093499Y19856078D01*
X20014147Y19952769D01*
X19947962Y20007085D01*
X19947962Y20028586D01*
X19921763Y20028586D01*
X19917456Y20032121D01*
X19864040Y20060673D01*
X19864040Y20103412D01*
X19873416Y20112788D01*
X20022788Y19963416D01*
X20351292Y19960434D01*
X20475963Y19970597D01*
X20596255Y20004886D01*
X20707547Y20061984D01*
X20805561Y20139696D01*
X20886530Y20235038D01*
X20947344Y20344343D01*
X20985664Y20463413D01*
X20997038Y20566666D01*
X20838288Y20725416D01*
X19864038Y20725416D01*
X19864038Y20617653D01*
X19843499Y20656078D01*
X19764147Y20752769D01*
X19743353Y20769834D01*
X20362038Y20769834D01*
X20378099Y20771416D01*
X20838288Y20771416D01*
X20997038Y20930166D01*
X20985664Y21033419D01*
X20947344Y21152489D01*
X20893973Y21248416D01*
X20947344Y21344343D01*
X20972773Y21423358D01*
X21183236Y21212895D01*
X21196605Y21196605D01*
X21212895Y21183236D01*
X21212899Y21183232D01*
X21261623Y21143245D01*
X21295758Y21125000D01*
X21335804Y21103595D01*
X21416293Y21079178D01*
X21479022Y21073000D01*
X21479032Y21073000D01*
X21499999Y21070935D01*
X21520966Y21073000D01*
X21776540Y21073000D01*
X21777732Y21060897D01*
X21796430Y20999257D01*
X21826794Y20942450D01*
X21867657Y20892657D01*
X21917450Y20851794D01*
X21974257Y20821430D01*
X22035897Y20802732D01*
X22073000Y20799077D01*
X22073001Y20700923D01*
X22035897Y20697268D01*
X21974257Y20678570D01*
X21917450Y20648206D01*
X21867657Y20607343D01*
X21826794Y20557550D01*
X21796430Y20500743D01*
X21777732Y20439103D01*
X21771418Y20375000D01*
X21771418Y19625000D01*
X21777732Y19560897D01*
X21796430Y19499257D01*
X21826794Y19442450D01*
X21867657Y19392657D01*
X21917450Y19351794D01*
X21974257Y19321430D01*
X22035897Y19302732D01*
X22100000Y19296418D01*
X22900000Y19296418D01*
X22964103Y19302732D01*
X23025743Y19321430D01*
X23038577Y19328290D01*
X23069463Y19270506D01*
X23148815Y19173815D01*
X23245506Y19094463D01*
X23355820Y19035498D01*
X23475518Y18999188D01*
X23600000Y18986928D01*
X23714250Y18990000D01*
X23873000Y19148750D01*
X23873000Y19873000D01*
X24127000Y19873000D01*
X24127000Y19148750D01*
X24285750Y18990000D01*
X24400000Y18986928D01*
X24524482Y18999188D01*
X24644180Y19035498D01*
X24754494Y19094463D01*
X24851185Y19173815D01*
X24930537Y19270506D01*
X24989502Y19380820D01*
X25025812Y19500518D01*
X25038072Y19625000D01*
X25035000Y19714250D01*
X24876250Y19873000D01*
X24127000Y19873000D01*
X23873000Y19873000D01*
X23853000Y19873000D01*
X23853000Y20127000D01*
X23873000Y20127000D01*
X23873000Y21373000D01*
X24127000Y21373000D01*
X24127000Y20127000D01*
X24876250Y20127000D01*
X25035000Y20285750D01*
X25038072Y20375000D01*
X25025812Y20499482D01*
X24989502Y20619180D01*
X24930537Y20729494D01*
X24913708Y20750000D01*
X24930537Y20770506D01*
X24989502Y20880820D01*
X25025812Y21000518D01*
X25038072Y21125000D01*
X25035000Y21214250D01*
X24876250Y21373000D01*
X24127000Y21373000D01*
X23873000Y21373000D01*
X23853000Y21373000D01*
X23853000Y21627000D01*
X23873000Y21627000D01*
X23873000Y21647000D01*
X24127000Y21647000D01*
X24127000Y21627000D01*
X24876250Y21627000D01*
X25035000Y21785750D01*
X25035756Y21807721D01*
X25104494Y21844463D01*
X25177731Y21904567D01*
X59073000Y21904567D01*
X59073000Y21495433D01*
X59152818Y21094161D01*
X59309386Y20716171D01*
X59536689Y20375989D01*
X59825989Y20086689D01*
X60166171Y19859386D01*
X60544161Y19702818D01*
X60945433Y19623000D01*
X61354567Y19623000D01*
X61755839Y19702818D01*
X62133829Y19859386D01*
X62474011Y20086689D01*
X62763311Y20375989D01*
X62990614Y20716171D01*
X63147182Y21094161D01*
X63227000Y21495433D01*
X63227000Y21904567D01*
X63147182Y22305839D01*
X62990614Y22683829D01*
X62763311Y23024011D01*
X62474011Y23313311D01*
X62133829Y23540614D01*
X61755839Y23697182D01*
X61354567Y23777000D01*
X60945433Y23777000D01*
X60544161Y23697182D01*
X60166171Y23540614D01*
X59825989Y23313311D01*
X59536689Y23024011D01*
X59309386Y22683829D01*
X59152818Y22305839D01*
X59073000Y21904567D01*
X25177731Y21904567D01*
X25201185Y21923815D01*
X25280537Y22020506D01*
X25339502Y22130820D01*
X25375812Y22250518D01*
X25388072Y22375000D01*
X25385000Y22714250D01*
X25226250Y22873000D01*
X24377000Y22873000D01*
X24377000Y22853000D01*
X24123000Y22853000D01*
X24123000Y22873000D01*
X23273750Y22873000D01*
X23115000Y22714250D01*
X23111928Y22375000D01*
X23120173Y22291284D01*
X23069463Y22229494D01*
X23038577Y22171710D01*
X23025743Y22178570D01*
X23014591Y22181953D01*
X23023206Y22192450D01*
X23053570Y22249257D01*
X23072268Y22310897D01*
X23078582Y22375000D01*
X23078582Y23623000D01*
X23111946Y23623000D01*
X23115000Y23285750D01*
X23273750Y23127000D01*
X24123000Y23127000D01*
X24123000Y23147000D01*
X24377000Y23147000D01*
X24377000Y23127000D01*
X25226250Y23127000D01*
X25385000Y23285750D01*
X25388054Y23623000D01*
X45729033Y23623000D01*
X45750000Y23620935D01*
X45770967Y23623000D01*
X45770978Y23623000D01*
X45833707Y23629178D01*
X45914196Y23653595D01*
X45988376Y23693245D01*
X46053395Y23746605D01*
X46066768Y23762900D01*
X49289281Y26985413D01*
X71694192Y26985413D01*
X72650000Y26029605D01*
X73605808Y26985413D01*
X73510044Y27249814D01*
X73220429Y27390704D01*
X72908892Y27472384D01*
X72587405Y27491718D01*
X72268325Y27447961D01*
X71963912Y27342795D01*
X71789956Y27249814D01*
X71694192Y26985413D01*
X49289281Y26985413D01*
X58676869Y36373000D01*
X62879033Y36373000D01*
X62900000Y36370935D01*
X62920967Y36373000D01*
X62920978Y36373000D01*
X62983707Y36379178D01*
X63064196Y36403595D01*
X63138376Y36443245D01*
X63203395Y36496605D01*
X63216768Y36512900D01*
X65625000Y38921131D01*
X65783236Y38762895D01*
X65796605Y38746605D01*
X65812895Y38733236D01*
X65812899Y38733232D01*
X65861623Y38693244D01*
X65918538Y38662824D01*
X65935804Y38653595D01*
X66016293Y38629178D01*
X66079022Y38623000D01*
X66079033Y38623000D01*
X66100000Y38620935D01*
X66120967Y38623000D01*
X66124077Y38623000D01*
X66127732Y38585897D01*
X66146430Y38524257D01*
X66176794Y38467450D01*
X66217657Y38417657D01*
X66267450Y38376794D01*
X66324257Y38346430D01*
X66385897Y38327732D01*
X66450000Y38321418D01*
X67350000Y38321418D01*
X67414103Y38327732D01*
X67475743Y38346430D01*
X67532550Y38376794D01*
X67582343Y38417657D01*
X67623206Y38467450D01*
X67653570Y38524257D01*
X67672268Y38585897D01*
X67678582Y38650000D01*
X67678582Y39450000D01*
X67672268Y39514103D01*
X67653570Y39575743D01*
X67623206Y39632550D01*
X67582343Y39682343D01*
X67532550Y39723206D01*
X67475743Y39753570D01*
X67414103Y39772268D01*
X67350000Y39778582D01*
X66450000Y39778582D01*
X66385897Y39772268D01*
X66324257Y39753570D01*
X66267450Y39723206D01*
X66228582Y39691309D01*
X66228582Y39704424D01*
X66240742Y39710527D01*
X66339441Y39787369D01*
X66421252Y39881988D01*
X66438881Y39913023D01*
X66450000Y39911928D01*
X66614250Y39915000D01*
X66773000Y40073750D01*
X66773000Y40823000D01*
X67027000Y40823000D01*
X67027000Y40073750D01*
X67185750Y39915000D01*
X67350000Y39911928D01*
X67474482Y39924188D01*
X67594180Y39960498D01*
X67704494Y40019463D01*
X67801185Y40098815D01*
X67880537Y40195506D01*
X67939502Y40305820D01*
X67968071Y40400000D01*
X68121418Y40400000D01*
X68121418Y39600000D01*
X68127732Y39535897D01*
X68146430Y39474257D01*
X68176794Y39417450D01*
X68217657Y39367657D01*
X68267450Y39326794D01*
X68324257Y39296430D01*
X68385897Y39277732D01*
X68450000Y39271418D01*
X69350000Y39271418D01*
X69414103Y39277732D01*
X69475743Y39296430D01*
X69532550Y39326794D01*
X69582343Y39367657D01*
X69623206Y39417450D01*
X69653570Y39474257D01*
X69672268Y39535897D01*
X69675923Y39573000D01*
X69746418Y39573000D01*
X69746418Y39250000D01*
X69752732Y39185897D01*
X69771430Y39124257D01*
X69801794Y39067450D01*
X69842657Y39017657D01*
X69892450Y38976794D01*
X69949257Y38946430D01*
X70010897Y38927732D01*
X70075000Y38921418D01*
X71575000Y38921418D01*
X71639103Y38927732D01*
X71700743Y38946430D01*
X71757550Y38976794D01*
X71807343Y39017657D01*
X71848206Y39067450D01*
X71878570Y39124257D01*
X71897268Y39185897D01*
X71903582Y39250000D01*
X71903582Y40750000D01*
X71897268Y40814103D01*
X71878570Y40875743D01*
X71848206Y40932550D01*
X71807343Y40982343D01*
X71757550Y41023206D01*
X71700743Y41053570D01*
X71639103Y41072268D01*
X71575000Y41078582D01*
X70075000Y41078582D01*
X70010897Y41072268D01*
X69949257Y41053570D01*
X69892450Y41023206D01*
X69842657Y40982343D01*
X69801794Y40932550D01*
X69771430Y40875743D01*
X69752732Y40814103D01*
X69746418Y40750000D01*
X69746418Y40427000D01*
X69675923Y40427000D01*
X69672268Y40464103D01*
X69653570Y40525743D01*
X69623206Y40582550D01*
X69582343Y40632343D01*
X69532550Y40673206D01*
X69475743Y40703570D01*
X69414103Y40722268D01*
X69350000Y40728582D01*
X68450000Y40728582D01*
X68385897Y40722268D01*
X68324257Y40703570D01*
X68267450Y40673206D01*
X68217657Y40632343D01*
X68176794Y40582550D01*
X68146430Y40525743D01*
X68127732Y40464103D01*
X68121418Y40400000D01*
X67968071Y40400000D01*
X67975812Y40425518D01*
X67988072Y40550000D01*
X67985000Y40664250D01*
X67826250Y40823000D01*
X67027000Y40823000D01*
X66773000Y40823000D01*
X66753000Y40823000D01*
X66753000Y41077000D01*
X66773000Y41077000D01*
X66773000Y41826250D01*
X67027000Y41826250D01*
X67027000Y41077000D01*
X67826250Y41077000D01*
X67985000Y41235750D01*
X67988072Y41350000D01*
X67975812Y41474482D01*
X67939502Y41594180D01*
X67880537Y41704494D01*
X67801185Y41801185D01*
X67704494Y41880537D01*
X67594180Y41939502D01*
X67474482Y41975812D01*
X67350000Y41988072D01*
X67185750Y41985000D01*
X67027000Y41826250D01*
X66773000Y41826250D01*
X66614250Y41985000D01*
X66450000Y41988072D01*
X66325518Y41975812D01*
X66205820Y41939502D01*
X66095506Y41880537D01*
X65998815Y41801185D01*
X65919463Y41704494D01*
X65860498Y41594180D01*
X65824188Y41474482D01*
X65811928Y41350000D01*
X65815000Y41235750D01*
X65825750Y41225000D01*
X65727000Y41126250D01*
X65727000Y40523000D01*
X65747000Y40523000D01*
X65747000Y40377000D01*
X65727000Y40377000D01*
X65727000Y40303000D01*
X65473000Y40303000D01*
X65473000Y40377000D01*
X64823750Y40377000D01*
X64665000Y40218250D01*
X64677594Y40109476D01*
X64716968Y39990751D01*
X64778748Y39881988D01*
X64860559Y39787369D01*
X64959258Y39710527D01*
X64971418Y39704424D01*
X64971418Y39475287D01*
X62723132Y37227000D01*
X58520967Y37227000D01*
X58500000Y37229065D01*
X58479033Y37227000D01*
X58479022Y37227000D01*
X58416293Y37220822D01*
X58335804Y37196405D01*
X58301273Y37177948D01*
X58261623Y37156755D01*
X58212899Y37116768D01*
X58212895Y37116764D01*
X58196605Y37103395D01*
X58183236Y37087105D01*
X56127000Y35030869D01*
X56127000Y38623000D01*
X56224077Y38623000D01*
X56227732Y38585897D01*
X56246430Y38524257D01*
X56276794Y38467450D01*
X56317657Y38417657D01*
X56367450Y38376794D01*
X56424257Y38346430D01*
X56485897Y38327732D01*
X56550000Y38321418D01*
X57450000Y38321418D01*
X57514103Y38327732D01*
X57575743Y38346430D01*
X57632550Y38376794D01*
X57682343Y38417657D01*
X57723206Y38467450D01*
X57753570Y38524257D01*
X57772268Y38585897D01*
X57778582Y38650000D01*
X57778582Y39450000D01*
X57772268Y39514103D01*
X57753570Y39575743D01*
X57723206Y39632550D01*
X57682343Y39682343D01*
X57632550Y39723206D01*
X57575743Y39753570D01*
X57514103Y39772268D01*
X57450000Y39778582D01*
X56550000Y39778582D01*
X56515357Y39775170D01*
X56521252Y39781988D01*
X56583032Y39890751D01*
X56590305Y39912682D01*
X56714250Y39915000D01*
X56873000Y40073750D01*
X56873000Y40823000D01*
X57127000Y40823000D01*
X57127000Y40073750D01*
X57285750Y39915000D01*
X57450000Y39911928D01*
X57574482Y39924188D01*
X57694180Y39960498D01*
X57804494Y40019463D01*
X57901185Y40098815D01*
X57980537Y40195506D01*
X58039502Y40305820D01*
X58068071Y40400000D01*
X58221418Y40400000D01*
X58221418Y39600000D01*
X58227732Y39535897D01*
X58246430Y39474257D01*
X58276794Y39417450D01*
X58317657Y39367657D01*
X58367450Y39326794D01*
X58424257Y39296430D01*
X58485897Y39277732D01*
X58550000Y39271418D01*
X59450000Y39271418D01*
X59514103Y39277732D01*
X59575743Y39296430D01*
X59632550Y39326794D01*
X59682343Y39367657D01*
X59723206Y39417450D01*
X59746418Y39460877D01*
X59746418Y39250000D01*
X59752732Y39185897D01*
X59771430Y39124257D01*
X59801794Y39067450D01*
X59842657Y39017657D01*
X59892450Y38976794D01*
X59949257Y38946430D01*
X60010897Y38927732D01*
X60075000Y38921418D01*
X61575000Y38921418D01*
X61639103Y38927732D01*
X61700743Y38946430D01*
X61757550Y38976794D01*
X61807343Y39017657D01*
X61848206Y39067450D01*
X61878570Y39124257D01*
X61897268Y39185897D01*
X61903582Y39250000D01*
X61903582Y40750000D01*
X61897268Y40814103D01*
X61878570Y40875743D01*
X61848206Y40932550D01*
X61807343Y40982343D01*
X61757550Y41023206D01*
X61700743Y41053570D01*
X61639103Y41072268D01*
X61575000Y41078582D01*
X60075000Y41078582D01*
X60010897Y41072268D01*
X59949257Y41053570D01*
X59892450Y41023206D01*
X59842657Y40982343D01*
X59801794Y40932550D01*
X59771430Y40875743D01*
X59752732Y40814103D01*
X59746418Y40750000D01*
X59746418Y40539123D01*
X59723206Y40582550D01*
X59682343Y40632343D01*
X59632550Y40673206D01*
X59575743Y40703570D01*
X59514103Y40722268D01*
X59450000Y40728582D01*
X58550000Y40728582D01*
X58485897Y40722268D01*
X58424257Y40703570D01*
X58367450Y40673206D01*
X58317657Y40632343D01*
X58276794Y40582550D01*
X58246430Y40525743D01*
X58227732Y40464103D01*
X58221418Y40400000D01*
X58068071Y40400000D01*
X58075812Y40425518D01*
X58088072Y40550000D01*
X58085000Y40664250D01*
X57926250Y40823000D01*
X57127000Y40823000D01*
X56873000Y40823000D01*
X56853000Y40823000D01*
X56853000Y41077000D01*
X56873000Y41077000D01*
X56873000Y41826250D01*
X57127000Y41826250D01*
X57127000Y41077000D01*
X57926250Y41077000D01*
X58085000Y41235750D01*
X58088072Y41350000D01*
X58075812Y41474482D01*
X58039502Y41594180D01*
X57980537Y41704494D01*
X57901185Y41801185D01*
X57804494Y41880537D01*
X57694180Y41939502D01*
X57574482Y41975812D01*
X57450000Y41988072D01*
X57285750Y41985000D01*
X57127000Y41826250D01*
X56873000Y41826250D01*
X56714250Y41985000D01*
X56550000Y41988072D01*
X56425518Y41975812D01*
X56305820Y41939502D01*
X56195506Y41880537D01*
X56098815Y41801185D01*
X56019463Y41704494D01*
X55960498Y41594180D01*
X55924188Y41474482D01*
X55911928Y41350000D01*
X55915000Y41235750D01*
X55975750Y41175000D01*
X55827000Y41026250D01*
X55827000Y40423000D01*
X55847000Y40423000D01*
X55847000Y40277000D01*
X55827000Y40277000D01*
X55827000Y40203000D01*
X55573000Y40203000D01*
X55573000Y40277000D01*
X54923750Y40277000D01*
X54765000Y40118250D01*
X54777594Y40009476D01*
X54816968Y39890751D01*
X54878748Y39781988D01*
X54960559Y39687369D01*
X55059258Y39610527D01*
X55071418Y39604424D01*
X55071418Y39250000D01*
X55077732Y39185897D01*
X55096430Y39124257D01*
X55126794Y39067450D01*
X55167657Y39017657D01*
X55217450Y38976794D01*
X55273000Y38947102D01*
X55273001Y34976870D01*
X45223132Y24927000D01*
X24533118Y24927000D01*
X24535000Y24964250D01*
X24376250Y25123000D01*
X23773000Y25123000D01*
X23773000Y25103000D01*
X23627000Y25103000D01*
X23627000Y25123000D01*
X23553000Y25123000D01*
X23553000Y25377000D01*
X23627000Y25377000D01*
X23627000Y26026250D01*
X23773000Y26026250D01*
X23773000Y25377000D01*
X24376250Y25377000D01*
X24535000Y25535750D01*
X24528804Y25658357D01*
X24495582Y25778949D01*
X24439473Y25890742D01*
X24362631Y25989441D01*
X24268012Y26071252D01*
X24159249Y26133032D01*
X24040524Y26172406D01*
X23931750Y26185000D01*
X23773000Y26026250D01*
X23627000Y26026250D01*
X23468250Y26185000D01*
X23359476Y26172406D01*
X23240751Y26133032D01*
X23131988Y26071252D01*
X23037369Y25989441D01*
X22960527Y25890742D01*
X22954424Y25878582D01*
X22600000Y25878582D01*
X22535897Y25872268D01*
X22474257Y25853570D01*
X22417450Y25823206D01*
X22367657Y25782343D01*
X22326794Y25732550D01*
X22297102Y25677000D01*
X21520967Y25677000D01*
X21500000Y25679065D01*
X21479033Y25677000D01*
X21479022Y25677000D01*
X21416293Y25670822D01*
X21335804Y25646405D01*
X21332841Y25644821D01*
X21261623Y25606755D01*
X21212899Y25566768D01*
X21212895Y25566764D01*
X21196605Y25553395D01*
X21183236Y25537105D01*
X20821548Y25175416D01*
X20690620Y25175416D01*
X20690620Y25398416D01*
X20684306Y25462519D01*
X20673417Y25498416D01*
X20684306Y25534313D01*
X20690620Y25598416D01*
X20690620Y25898416D01*
X20684306Y25962519D01*
X20673417Y25998416D01*
X20684306Y26034313D01*
X20685940Y26050898D01*
X20707547Y26061984D01*
X20805561Y26139696D01*
X20886530Y26235038D01*
X20947344Y26344343D01*
X20985664Y26463413D01*
X20997038Y26566666D01*
X20859957Y26703747D01*
X20886530Y26735038D01*
X20947344Y26844343D01*
X20964489Y26897617D01*
X20997038Y26930166D01*
X20989520Y26998416D01*
X20997038Y27066666D01*
X20964489Y27099215D01*
X20947344Y27152489D01*
X20893973Y27248416D01*
X20947344Y27344343D01*
X20964489Y27397617D01*
X20997038Y27430166D01*
X20989520Y27498416D01*
X20997038Y27566666D01*
X20964489Y27599215D01*
X20947344Y27652489D01*
X20893973Y27748416D01*
X20947344Y27844343D01*
X20964489Y27897617D01*
X20997038Y27930166D01*
X20989520Y27998416D01*
X20997038Y28066666D01*
X20964489Y28099215D01*
X20947344Y28152489D01*
X20886530Y28261794D01*
X20859957Y28293085D01*
X20997038Y28430166D01*
X20985664Y28533419D01*
X20947344Y28652489D01*
X20886530Y28761794D01*
X20805561Y28857136D01*
X20707547Y28934848D01*
X20685940Y28945934D01*
X20684306Y28962519D01*
X20673417Y28998416D01*
X20684306Y29034313D01*
X20690620Y29098416D01*
X20690620Y29398416D01*
X20684306Y29462519D01*
X20673417Y29498416D01*
X20684306Y29534313D01*
X20685940Y29550898D01*
X20707547Y29561984D01*
X20805561Y29639696D01*
X20886530Y29735038D01*
X20947344Y29844343D01*
X20985664Y29963413D01*
X20997038Y30066666D01*
X20859957Y30203747D01*
X20886530Y30235038D01*
X20947344Y30344343D01*
X20964489Y30397617D01*
X20997038Y30430166D01*
X20989520Y30498416D01*
X20997038Y30566666D01*
X20964489Y30599215D01*
X20947344Y30652489D01*
X20893973Y30748416D01*
X20947344Y30844343D01*
X20964489Y30897617D01*
X20997038Y30930166D01*
X20989520Y30998416D01*
X20997038Y31066666D01*
X20964489Y31099215D01*
X20947344Y31152489D01*
X20893973Y31248416D01*
X20947344Y31344343D01*
X20964489Y31397617D01*
X20997038Y31430166D01*
X20989520Y31498416D01*
X20997038Y31566666D01*
X20964489Y31599215D01*
X20947344Y31652489D01*
X20893973Y31748416D01*
X20947344Y31844343D01*
X20964489Y31897617D01*
X20997038Y31930166D01*
X20989520Y31998416D01*
X20997038Y32066666D01*
X20964489Y32099215D01*
X20957345Y32121414D01*
X20997038Y32121414D01*
X20997038Y32225474D01*
X22009616Y31212895D01*
X22021584Y31198312D01*
X22027732Y31135897D01*
X22046430Y31074257D01*
X22076794Y31017450D01*
X22117657Y30967657D01*
X22167450Y30926794D01*
X22224257Y30896430D01*
X22285897Y30877732D01*
X22319690Y30874403D01*
X22317450Y30873206D01*
X22267657Y30832343D01*
X22226794Y30782550D01*
X22196430Y30725743D01*
X22177732Y30664103D01*
X22171418Y30600000D01*
X22171418Y29900000D01*
X22177732Y29835897D01*
X22196430Y29774257D01*
X22226794Y29717450D01*
X22267657Y29667657D01*
X22273000Y29663272D01*
X22273001Y29336728D01*
X22267657Y29332343D01*
X22226794Y29282550D01*
X22196430Y29225743D01*
X22177732Y29164103D01*
X22171418Y29100000D01*
X22171418Y28400000D01*
X22177732Y28335897D01*
X22196430Y28274257D01*
X22226794Y28217450D01*
X22267657Y28167657D01*
X22317450Y28126794D01*
X22374257Y28096430D01*
X22435897Y28077732D01*
X22500000Y28071418D01*
X23100000Y28071418D01*
X23164103Y28077732D01*
X23225743Y28096430D01*
X23282550Y28126794D01*
X23312761Y28151587D01*
X23369463Y28045506D01*
X23448815Y27948815D01*
X23545506Y27869463D01*
X23655820Y27810498D01*
X23775518Y27774188D01*
X23900000Y27761928D01*
X23914250Y27765000D01*
X24073000Y27923750D01*
X24073000Y28623000D01*
X24327000Y28623000D01*
X24327000Y27923750D01*
X24485750Y27765000D01*
X24500000Y27761928D01*
X24624482Y27774188D01*
X24744180Y27810498D01*
X24854494Y27869463D01*
X24951185Y27948815D01*
X25030537Y28045506D01*
X25089502Y28155820D01*
X25125812Y28275518D01*
X25138072Y28400000D01*
X25135000Y28464250D01*
X24976250Y28623000D01*
X24327000Y28623000D01*
X24073000Y28623000D01*
X24053000Y28623000D01*
X24053000Y28877000D01*
X24073000Y28877000D01*
X24073000Y28897000D01*
X24327000Y28897000D01*
X24327000Y28877000D01*
X24976250Y28877000D01*
X25135000Y29035750D01*
X25138072Y29100000D01*
X25125812Y29224482D01*
X25089502Y29344180D01*
X25030537Y29454494D01*
X24951185Y29551185D01*
X24854494Y29630537D01*
X24748413Y29687239D01*
X24773206Y29717450D01*
X24803570Y29774257D01*
X24822268Y29835897D01*
X24828582Y29900000D01*
X24828582Y30600000D01*
X24822268Y30664103D01*
X24803570Y30725743D01*
X24773206Y30782550D01*
X24732343Y30832343D01*
X24720480Y30842078D01*
X24719374Y30853310D01*
X24689239Y30952650D01*
X24683486Y30963413D01*
X24640304Y31044202D01*
X24574448Y31124448D01*
X24554339Y31140951D01*
X23978582Y31716707D01*
X23978582Y31739037D01*
X24000000Y31736928D01*
X24214250Y31740000D01*
X24373000Y31898750D01*
X24373000Y32873000D01*
X24627000Y32873000D01*
X24627000Y31898750D01*
X24785750Y31740000D01*
X25000000Y31736928D01*
X25124482Y31749188D01*
X25244180Y31785498D01*
X25354494Y31844463D01*
X25451185Y31923815D01*
X25530537Y32020506D01*
X25589502Y32130820D01*
X25625812Y32250518D01*
X25638072Y32375000D01*
X25635000Y32714250D01*
X25476250Y32873000D01*
X24627000Y32873000D01*
X24373000Y32873000D01*
X23523750Y32873000D01*
X23365000Y32714250D01*
X23361928Y32375000D01*
X23374188Y32250518D01*
X23410498Y32130820D01*
X23411694Y32128582D01*
X23250000Y32128582D01*
X23210445Y32124686D01*
X23232343Y32142657D01*
X23273206Y32192450D01*
X23303570Y32249257D01*
X23322268Y32310897D01*
X23328582Y32375000D01*
X23328582Y33550057D01*
X23355820Y33535498D01*
X23362758Y33533394D01*
X23365000Y33285750D01*
X23523750Y33127000D01*
X24373000Y33127000D01*
X24373000Y33147000D01*
X24627000Y33147000D01*
X24627000Y33127000D01*
X25476250Y33127000D01*
X25635000Y33285750D01*
X25638072Y33625000D01*
X25625812Y33749482D01*
X25589502Y33869180D01*
X25530537Y33979494D01*
X25451185Y34076185D01*
X25354494Y34155537D01*
X25244180Y34214502D01*
X25124482Y34250812D01*
X25000000Y34263072D01*
X24986373Y34262877D01*
X24876250Y34373000D01*
X24127000Y34373000D01*
X24127000Y34353000D01*
X23873000Y34353000D01*
X23873000Y34373000D01*
X23853000Y34373000D01*
X23853000Y34627000D01*
X23873000Y34627000D01*
X23873000Y35873000D01*
X24127000Y35873000D01*
X24127000Y34627000D01*
X24876250Y34627000D01*
X25035000Y34785750D01*
X25038072Y34875000D01*
X25025812Y34999482D01*
X24989502Y35119180D01*
X24930537Y35229494D01*
X24913708Y35250000D01*
X24930537Y35270506D01*
X24989502Y35380820D01*
X25025812Y35500518D01*
X25038072Y35625000D01*
X25035000Y35714250D01*
X24876250Y35873000D01*
X24127000Y35873000D01*
X23873000Y35873000D01*
X23853000Y35873000D01*
X23853000Y36127000D01*
X23873000Y36127000D01*
X23873000Y36851250D01*
X24127000Y36851250D01*
X24127000Y36127000D01*
X24876250Y36127000D01*
X25035000Y36285750D01*
X25035919Y36312443D01*
X25214250Y36315000D01*
X25373000Y36473750D01*
X25373000Y37623000D01*
X25627000Y37623000D01*
X25627000Y36473750D01*
X25785750Y36315000D01*
X26000000Y36311928D01*
X26124482Y36324188D01*
X26244180Y36360498D01*
X26354494Y36419463D01*
X26451185Y36498815D01*
X26530537Y36595506D01*
X26589502Y36705820D01*
X26625812Y36825518D01*
X26638072Y36950000D01*
X26635000Y37464250D01*
X26476250Y37623000D01*
X25627000Y37623000D01*
X25373000Y37623000D01*
X24523750Y37623000D01*
X24365000Y37464250D01*
X24362299Y37012058D01*
X24285750Y37010000D01*
X24127000Y36851250D01*
X23873000Y36851250D01*
X23714250Y37010000D01*
X23600000Y37013072D01*
X23475518Y37000812D01*
X23355820Y36964502D01*
X23328576Y36949940D01*
X23328582Y36950000D01*
X23328582Y37691871D01*
X24401618Y38764907D01*
X24374188Y38674482D01*
X24361928Y38550000D01*
X24365000Y38035750D01*
X24523750Y37877000D01*
X25373000Y37877000D01*
X25373000Y39026250D01*
X25627000Y39026250D01*
X25627000Y37877000D01*
X26476250Y37877000D01*
X26635000Y38035750D01*
X26638072Y38550000D01*
X26625812Y38674482D01*
X26589502Y38794180D01*
X26530537Y38904494D01*
X26451185Y39001185D01*
X26354494Y39080537D01*
X26244180Y39139502D01*
X26124482Y39175812D01*
X26000000Y39188072D01*
X25785750Y39185000D01*
X25627000Y39026250D01*
X25373000Y39026250D01*
X25214250Y39185000D01*
X25000000Y39188072D01*
X24875518Y39175812D01*
X24785093Y39148382D01*
X26218461Y40581750D01*
X54765000Y40581750D01*
X54923750Y40423000D01*
X55573000Y40423000D01*
X55573000Y41026250D01*
X55414250Y41185000D01*
X55291643Y41178804D01*
X55171051Y41145582D01*
X55059258Y41089473D01*
X54960559Y41012631D01*
X54878748Y40918012D01*
X54816968Y40809249D01*
X54777594Y40690524D01*
X54765000Y40581750D01*
X26218461Y40581750D01*
X33377653Y47740942D01*
X65837039Y47740942D01*
X65837039Y46840942D01*
X65843353Y46776839D01*
X65862051Y46715199D01*
X65892415Y46658392D01*
X65933278Y46608599D01*
X65983071Y46567736D01*
X66039878Y46537372D01*
X66101518Y46518674D01*
X66165621Y46512360D01*
X67365621Y46512360D01*
X67429724Y46518674D01*
X67491364Y46537372D01*
X67548171Y46567736D01*
X67597964Y46608599D01*
X67638827Y46658392D01*
X67641794Y46663942D01*
X67887039Y46663942D01*
X67887039Y46545942D01*
X67893943Y46478938D01*
X67913196Y46417469D01*
X67944071Y46360938D01*
X67985381Y46311516D01*
X68545381Y45761516D01*
X68593071Y45722736D01*
X68649878Y45692372D01*
X68711518Y45673674D01*
X68775621Y45667360D01*
X69085621Y45667360D01*
X69090697Y45667860D01*
X69665621Y45667860D01*
X69729724Y45674174D01*
X69791364Y45692872D01*
X69848171Y45723236D01*
X69897964Y45764099D01*
X69938827Y45813892D01*
X69969191Y45870699D01*
X69987889Y45932339D01*
X69994203Y45996442D01*
X69994203Y46771442D01*
X69988631Y46831698D01*
X69988082Y46833590D01*
X69987889Y46835545D01*
X69979115Y46864470D01*
X69970669Y46893556D01*
X69969762Y46895303D01*
X69969191Y46897185D01*
X69954930Y46923865D01*
X69940984Y46950722D01*
X69939754Y46952258D01*
X69938827Y46953992D01*
X69919641Y46977371D01*
X69900718Y47000998D01*
X69414203Y47499256D01*
X69414203Y48382628D01*
X69900718Y48880886D01*
X69938827Y48927892D01*
X69969191Y48984699D01*
X69987889Y49046339D01*
X69994203Y49110442D01*
X69994203Y49886442D01*
X69992621Y49902503D01*
X69992621Y51003653D01*
X70021364Y51012372D01*
X70078171Y51042736D01*
X70127964Y51083599D01*
X70168827Y51133392D01*
X70199191Y51190199D01*
X70217889Y51251839D01*
X70224203Y51315942D01*
X70224203Y51721555D01*
X70250115Y51735405D01*
X70346806Y51814757D01*
X70426158Y51911448D01*
X70485123Y52021762D01*
X70521433Y52141460D01*
X70533693Y52265942D01*
X70530621Y52305192D01*
X70371871Y52463942D01*
X69492621Y52463942D01*
X69492621Y52443942D01*
X69238621Y52443942D01*
X69238621Y52463942D01*
X68359371Y52463942D01*
X68352621Y52457192D01*
X68241871Y52567942D01*
X67592621Y52567942D01*
X67592621Y51964692D01*
X67751371Y51805942D01*
X67873978Y51812138D01*
X67994570Y51845360D01*
X68106363Y51901469D01*
X68205062Y51978311D01*
X68245213Y52024748D01*
X68246119Y52021762D01*
X68305084Y51911448D01*
X68384436Y51814757D01*
X68481127Y51735405D01*
X68507039Y51721555D01*
X68507039Y51315942D01*
X68513353Y51251839D01*
X68532051Y51190199D01*
X68562415Y51133392D01*
X68603278Y51083599D01*
X68653071Y51042736D01*
X68709878Y51012372D01*
X68738621Y51003653D01*
X68738622Y50210938D01*
X68714424Y50208775D01*
X68712995Y50208355D01*
X68711518Y50208210D01*
X68682162Y50199305D01*
X68652618Y50190633D01*
X68651298Y50189943D01*
X68649878Y50189512D01*
X68622788Y50175032D01*
X68595539Y50160781D01*
X68594382Y50159849D01*
X68593071Y50159148D01*
X68569281Y50139625D01*
X68545381Y50120368D01*
X67985381Y49570368D01*
X67942415Y49518492D01*
X67912051Y49461685D01*
X67893353Y49400045D01*
X67887039Y49335942D01*
X67887039Y47917942D01*
X67641794Y47917942D01*
X67638827Y47923492D01*
X67597964Y47973285D01*
X67548171Y48014148D01*
X67491364Y48044512D01*
X67429724Y48063210D01*
X67365621Y48069524D01*
X66165621Y48069524D01*
X66101518Y48063210D01*
X66039878Y48044512D01*
X65983071Y48014148D01*
X65933278Y47973285D01*
X65892415Y47923492D01*
X65862051Y47866685D01*
X65843353Y47805045D01*
X65837039Y47740942D01*
X33377653Y47740942D01*
X34327654Y48690943D01*
X63752549Y48690943D01*
X63764809Y48566461D01*
X63801119Y48446763D01*
X63860084Y48336449D01*
X63939436Y48239758D01*
X64036127Y48160406D01*
X64146441Y48101441D01*
X64266139Y48065131D01*
X64390621Y48052871D01*
X64479871Y48055943D01*
X64638621Y48214693D01*
X64638621Y48963943D01*
X64892621Y48963943D01*
X64892621Y48214693D01*
X65051371Y48055943D01*
X65140621Y48052871D01*
X65265103Y48065131D01*
X65384801Y48101441D01*
X65495115Y48160406D01*
X65591806Y48239758D01*
X65671158Y48336449D01*
X65730123Y48446763D01*
X65766433Y48566461D01*
X65778693Y48690943D01*
X65775621Y48805193D01*
X65616871Y48963943D01*
X64892621Y48963943D01*
X64638621Y48963943D01*
X63914371Y48963943D01*
X63755621Y48805193D01*
X63752549Y48690943D01*
X34327654Y48690943D01*
X35600655Y49963943D01*
X63122551Y49963943D01*
X63126321Y49925671D01*
X63148002Y49854198D01*
X63183210Y49788328D01*
X63230592Y49730592D01*
X63288328Y49683210D01*
X63354198Y49648002D01*
X63425671Y49626321D01*
X63500000Y49619000D01*
X63765893Y49619000D01*
X63764809Y49615425D01*
X63752549Y49490943D01*
X63755621Y49376693D01*
X63914371Y49217943D01*
X64638621Y49217943D01*
X64638621Y49237943D01*
X64892621Y49237943D01*
X64892621Y49217943D01*
X65616871Y49217943D01*
X65775621Y49376693D01*
X65778693Y49490943D01*
X65766433Y49615425D01*
X65765349Y49619000D01*
X67500000Y49619000D01*
X67574329Y49626321D01*
X67645802Y49648002D01*
X67711672Y49683210D01*
X67769408Y49730592D01*
X67816790Y49788328D01*
X67851998Y49854198D01*
X67873679Y49925671D01*
X67881000Y50000000D01*
X67881000Y51000000D01*
X67873679Y51074329D01*
X67851998Y51145802D01*
X67816790Y51211672D01*
X67769408Y51269408D01*
X67206373Y51832443D01*
X67338621Y51964692D01*
X67338621Y52567942D01*
X67318621Y52567942D01*
X67318621Y52713942D01*
X67338621Y52713942D01*
X67338621Y52787942D01*
X67592621Y52787942D01*
X67592621Y52713942D01*
X68241871Y52713942D01*
X68302621Y52774692D01*
X68359371Y52717942D01*
X69238621Y52717942D01*
X69238621Y52737942D01*
X69492621Y52737942D01*
X69492621Y52717942D01*
X70371871Y52717942D01*
X70530621Y52876692D01*
X70533693Y52915942D01*
X70521433Y53040424D01*
X70485123Y53160122D01*
X70426158Y53270436D01*
X70346806Y53367127D01*
X70250115Y53446479D01*
X70224203Y53460329D01*
X70224203Y53865942D01*
X70217889Y53930045D01*
X70199191Y53991685D01*
X70168827Y54048492D01*
X70127964Y54098285D01*
X70078171Y54139148D01*
X70021364Y54169512D01*
X69959724Y54188210D01*
X69895621Y54194524D01*
X68835621Y54194524D01*
X68771518Y54188210D01*
X68709878Y54169512D01*
X68653071Y54139148D01*
X68603278Y54098285D01*
X68578377Y54067942D01*
X67781682Y54067942D01*
X67765621Y54069524D01*
X67165621Y54069524D01*
X67149560Y54067942D01*
X66352347Y54067942D01*
X66347962Y54073285D01*
X66298169Y54114148D01*
X66241362Y54144512D01*
X66179722Y54163210D01*
X66115619Y54169524D01*
X65615619Y54169524D01*
X65551516Y54163210D01*
X65489876Y54144512D01*
X65433069Y54114148D01*
X65383276Y54073285D01*
X65378891Y54067942D01*
X64939741Y54067942D01*
X64939733Y54067941D01*
X64781695Y54067942D01*
X64765621Y54069525D01*
X64165621Y54069525D01*
X64101518Y54063211D01*
X64039878Y54044513D01*
X63983071Y54014149D01*
X63933278Y53973286D01*
X63892415Y53923493D01*
X63862051Y53866686D01*
X63843353Y53805046D01*
X63837039Y53740943D01*
X63837039Y53381000D01*
X63500000Y53381000D01*
X63425671Y53373679D01*
X63354198Y53351998D01*
X63288328Y53316790D01*
X63230592Y53269408D01*
X63183210Y53211672D01*
X63148002Y53145802D01*
X63126321Y53074329D01*
X63119000Y53000000D01*
X63119000Y51217943D01*
X35371737Y51217943D01*
X35340943Y51220976D01*
X35310149Y51217943D01*
X35218030Y51208870D01*
X35099840Y51173018D01*
X34990915Y51114796D01*
X34895442Y51036444D01*
X34875809Y51012521D01*
X22741871Y38878582D01*
X22000000Y38878582D01*
X21935897Y38872268D01*
X21874257Y38853570D01*
X21817450Y38823206D01*
X21767657Y38782343D01*
X21726794Y38732550D01*
X21696430Y38675743D01*
X21677732Y38614103D01*
X21671418Y38550000D01*
X21671418Y36950000D01*
X21677732Y36885897D01*
X21696430Y36824257D01*
X21726794Y36767450D01*
X21767657Y36717657D01*
X21817450Y36676794D01*
X21873001Y36647102D01*
X21873001Y36611728D01*
X21867657Y36607343D01*
X21826794Y36557550D01*
X21796430Y36500743D01*
X21785172Y36463630D01*
X21716577Y36442822D01*
X21633711Y36398529D01*
X21561079Y36338921D01*
X21546149Y36320729D01*
X20922523Y35697102D01*
X20886530Y35761794D01*
X20805561Y35857136D01*
X20707547Y35934848D01*
X20596255Y35991946D01*
X20475963Y36026235D01*
X20351292Y36036398D01*
X20022788Y36033416D01*
X19876584Y35887212D01*
X19864040Y35899756D01*
X19864040Y35942495D01*
X19917456Y35971047D01*
X19921763Y35974582D01*
X19947962Y35974582D01*
X19947962Y35996083D01*
X20014147Y36050399D01*
X20093499Y36147090D01*
X20152464Y36257404D01*
X20188774Y36377102D01*
X20201034Y36501584D01*
X20197962Y37415834D01*
X20039212Y37574584D01*
X18589962Y37574584D01*
X18589962Y36025334D01*
X18640712Y35974584D01*
X18639962Y35974584D01*
X18639962Y35954584D01*
X18385962Y35954584D01*
X18385962Y35974584D01*
X18365962Y35974584D01*
X18365962Y36228584D01*
X18385962Y36228584D01*
X18385962Y36977834D01*
X18335962Y37027834D01*
X18335962Y37574584D01*
X18315962Y37574584D01*
X18315962Y37828584D01*
X18335962Y37828584D01*
X18335962Y39377834D01*
X18589962Y39377834D01*
X18589962Y37828584D01*
X20039212Y37828584D01*
X20197962Y37987334D01*
X20201034Y38901584D01*
X20188774Y39026066D01*
X20152464Y39145764D01*
X20093499Y39256078D01*
X20014147Y39352769D01*
X19917456Y39432121D01*
X19807142Y39491086D01*
X19687444Y39527396D01*
X19562962Y39539656D01*
X18748712Y39536584D01*
X18589962Y39377834D01*
X18335962Y39377834D01*
X18177212Y39536584D01*
X17362962Y39539656D01*
X17238480Y39527396D01*
X17118782Y39491086D01*
X17008468Y39432121D01*
X16911777Y39352769D01*
X16832425Y39256078D01*
X16773460Y39145764D01*
X16737150Y39026066D01*
X16724890Y38901584D01*
X16726720Y38357076D01*
X16647212Y38436584D01*
X16507962Y38439656D01*
X16383480Y38427396D01*
X16263782Y38391086D01*
X16153468Y38332121D01*
X16056777Y38252769D01*
X15977425Y38156078D01*
X15918460Y38045764D01*
X15882150Y37926066D01*
X15869890Y37801584D01*
X15872962Y37437334D01*
X16031712Y37278584D01*
X16727501Y37278584D01*
X16726647Y37024584D01*
X16031712Y37024584D01*
X15872962Y36865834D01*
X15869890Y36501584D01*
X15882150Y36377102D01*
X15918460Y36257404D01*
X15977425Y36147090D01*
X16056777Y36050399D01*
X16153468Y35971047D01*
X16263782Y35912082D01*
X16383480Y35875772D01*
X16507962Y35863512D01*
X16647212Y35866584D01*
X16805962Y36025334D01*
X16805962Y36196598D01*
X16832425Y36147090D01*
X16911777Y36050399D01*
X17008468Y35971047D01*
X17118782Y35912082D01*
X17161309Y35899181D01*
X17077962Y35815834D01*
X17074890Y35701584D01*
X17087150Y35577102D01*
X17123460Y35457404D01*
X17182425Y35347090D01*
X17261777Y35250399D01*
X17358468Y35171047D01*
X17468782Y35112082D01*
X17588480Y35075772D01*
X17712962Y35063512D01*
X18227212Y35066584D01*
X18385960Y35225332D01*
X18385960Y35066584D01*
X18477047Y35066584D01*
X18488412Y34963413D01*
X18526732Y34844343D01*
X18587546Y34735038D01*
X18668515Y34639696D01*
X18766529Y34561984D01*
X18788136Y34550898D01*
X18789770Y34534313D01*
X18800659Y34498416D01*
X18789770Y34462519D01*
X18783456Y34398416D01*
X18783456Y34098416D01*
X18789770Y34034313D01*
X18800659Y33998416D01*
X18789770Y33962519D01*
X18783456Y33898416D01*
X18783456Y33598416D01*
X18789770Y33534313D01*
X18800659Y33498416D01*
X18789770Y33462519D01*
X18783456Y33398416D01*
X18783456Y33098416D01*
X18789770Y33034313D01*
X18800659Y32998416D01*
X18789770Y32962519D01*
X18788136Y32945934D01*
X18766529Y32934848D01*
X18668515Y32857136D01*
X18587546Y32761794D01*
X18526732Y32652489D01*
X18488412Y32533419D01*
X18477038Y32430166D01*
X18614119Y32293085D01*
X18587546Y32261794D01*
X18526732Y32152489D01*
X18509587Y32099215D01*
X18477038Y32066666D01*
X18484556Y31998416D01*
X18477038Y31930166D01*
X18509587Y31897617D01*
X18526732Y31844343D01*
X18580103Y31748416D01*
X18526732Y31652489D01*
X18509587Y31599215D01*
X18477038Y31566666D01*
X18484556Y31498416D01*
X18477038Y31430166D01*
X18509587Y31397617D01*
X18526732Y31344343D01*
X18580103Y31248416D01*
X18526732Y31152489D01*
X18509587Y31099215D01*
X18477038Y31066666D01*
X18484556Y30998416D01*
X18477038Y30930166D01*
X18509587Y30897617D01*
X18526732Y30844343D01*
X18580103Y30748416D01*
X18526732Y30652489D01*
X18509587Y30599215D01*
X18477038Y30566666D01*
X18484556Y30498416D01*
X18477038Y30430166D01*
X18509587Y30397617D01*
X18526732Y30344343D01*
X18587546Y30235038D01*
X18614119Y30203747D01*
X18477038Y30066666D01*
X18488412Y29963413D01*
X18526732Y29844343D01*
X18587546Y29735038D01*
X18638180Y29675416D01*
X18169382Y29675416D01*
X18148415Y29677481D01*
X18127448Y29675416D01*
X18127438Y29675416D01*
X18064709Y29669238D01*
X17984220Y29644821D01*
X17950494Y29626794D01*
X17910039Y29605171D01*
X17861315Y29565184D01*
X17861311Y29565180D01*
X17845021Y29551811D01*
X17831652Y29535521D01*
X13512856Y25216724D01*
X13496561Y25203351D01*
X13483189Y25187057D01*
X13483188Y25187056D01*
X13443201Y25138332D01*
X13426323Y25106755D01*
X13403551Y25064151D01*
X13379134Y24983662D01*
X13372956Y24920933D01*
X13372956Y24920923D01*
X13370891Y24899956D01*
X12677000Y24899956D01*
X12677000Y42089755D01*
X12650565Y42358155D01*
X12546095Y42702546D01*
X12376445Y43019938D01*
X12148135Y43298135D01*
X11869937Y43526445D01*
X11552545Y43696095D01*
X11208154Y43800565D01*
X10850000Y43835840D01*
X10491845Y43800565D01*
X10147454Y43696095D01*
X9830062Y43526445D01*
X9551865Y43298135D01*
X9323555Y43019937D01*
X9153905Y42702545D01*
X9049435Y42358154D01*
X9023000Y42089754D01*
X577000Y42089754D01*
X577000Y49941314D01*
X21120919Y49941314D01*
X21457106Y49472132D01*
X22087068Y49131763D01*
X22771327Y48920834D01*
X23483589Y48847450D01*
X24196482Y48914431D01*
X24882609Y49119204D01*
X25515603Y49453898D01*
X25542894Y49472132D01*
X25879081Y49941314D01*
X23500000Y52320395D01*
X21120919Y49941314D01*
X577000Y49941314D01*
X577000Y52137592D01*
X2603000Y52137592D01*
X2603000Y51862408D01*
X2656686Y51592510D01*
X2761995Y51338273D01*
X2914880Y51109465D01*
X3109465Y50914880D01*
X3338273Y50761995D01*
X3592510Y50656686D01*
X3862408Y50603000D01*
X4137592Y50603000D01*
X4407490Y50656686D01*
X4661727Y50761995D01*
X4890535Y50914880D01*
X5085120Y51109465D01*
X5238005Y51338273D01*
X5343314Y51592510D01*
X5397000Y51862408D01*
X5397000Y52137592D01*
X5343314Y52407490D01*
X5298198Y52516411D01*
X19847450Y52516411D01*
X19914431Y51803518D01*
X20119204Y51117391D01*
X20453898Y50484397D01*
X20472132Y50457106D01*
X20941314Y50120919D01*
X23320395Y52500000D01*
X23679605Y52500000D01*
X26058686Y50120919D01*
X26527868Y50457106D01*
X26868237Y51087068D01*
X27079166Y51771327D01*
X27152550Y52483589D01*
X27085569Y53196482D01*
X26880796Y53882609D01*
X26546102Y54515603D01*
X26527868Y54542894D01*
X26058686Y54879081D01*
X23679605Y52500000D01*
X23320395Y52500000D01*
X20941314Y54879081D01*
X20472132Y54542894D01*
X20131763Y53912932D01*
X19920834Y53228673D01*
X19847450Y52516411D01*
X5298198Y52516411D01*
X5238005Y52661727D01*
X5085120Y52890535D01*
X4890535Y53085120D01*
X4661727Y53238005D01*
X4407490Y53343314D01*
X4137592Y53397000D01*
X3862408Y53397000D01*
X3592510Y53343314D01*
X3338273Y53238005D01*
X3109465Y53085120D01*
X2914880Y52890535D01*
X2761995Y52661727D01*
X2656686Y52407490D01*
X2603000Y52137592D01*
X577000Y52137592D01*
X577000Y52971791D01*
X625859Y53470090D01*
X762381Y53922278D01*
X984136Y54339337D01*
X1282673Y54705379D01*
X1646621Y55006464D01*
X2062127Y55231126D01*
X2513344Y55370802D01*
X3009997Y55423002D01*
X21381965Y55423002D01*
X21120919Y55058686D01*
G36*
X19864038Y35271416D02*
G01*
X19884038Y35271416D01*
X19884038Y35226998D01*
X19735633Y35226998D01*
X19764147Y35250399D01*
X19843499Y35347090D01*
X19864038Y35385515D01*
X19864038Y35271416D01*
G37*
X19864038Y35271416D02*
X19884038Y35271416D01*
X19884038Y35226998D01*
X19735633Y35226998D01*
X19764147Y35250399D01*
X19843499Y35347090D01*
X19864038Y35385515D01*
X19864038Y35271416D01*
G36*
X65540930Y52865455D02*
G01*
X65615619Y52858099D01*
X66115619Y52858099D01*
X66190308Y52865455D01*
X66215181Y52873000D01*
X66373000Y52873000D01*
X66373000Y52000000D01*
X66375440Y51975224D01*
X66382667Y51951399D01*
X66394403Y51929443D01*
X66410197Y51910197D01*
X67373000Y50947394D01*
X67373000Y50127000D01*
X63627000Y50127000D01*
X63627000Y52873000D01*
X65516057Y52873000D01*
X65540930Y52865455D01*
G37*
X65540930Y52865455D02*
X65615619Y52858099D01*
X66115619Y52858099D01*
X66190308Y52865455D01*
X66215181Y52873000D01*
X66373000Y52873000D01*
X66373000Y52000000D01*
X66375440Y51975224D01*
X66382667Y51951399D01*
X66394403Y51929443D01*
X66410197Y51910197D01*
X67373000Y50947394D01*
X67373000Y50127000D01*
X63627000Y50127000D01*
X63627000Y52873000D01*
X65516057Y52873000D01*
X65540930Y52865455D01*
G36*
X72373000Y52500000D02*
G01*
X72375440Y52475224D01*
X72382667Y52451399D01*
X72394403Y52429443D01*
X72410197Y52410197D01*
X72429443Y52394403D01*
X72451399Y52382667D01*
X72475224Y52375440D01*
X72500000Y52373000D01*
X75447394Y52373000D01*
X84423000Y43397394D01*
X84423001Y5113861D01*
X84084250Y5620839D01*
X83620839Y6084250D01*
X83075925Y6448349D01*
X82470450Y6699145D01*
X81827681Y6827000D01*
X81172319Y6827000D01*
X80529550Y6699145D01*
X79924075Y6448349D01*
X79379161Y6084250D01*
X78915750Y5620839D01*
X78551651Y5075925D01*
X78300855Y4470450D01*
X78173000Y3827681D01*
X78173000Y3172319D01*
X78300855Y2529550D01*
X78551651Y1924075D01*
X78915750Y1379161D01*
X79379161Y915750D01*
X79886137Y577000D01*
X73127000Y577000D01*
X73127000Y2921510D01*
X74543393Y3629706D01*
X74671202Y3682647D01*
X74736396Y3726208D01*
X75029980Y3873000D01*
X75791760Y3873000D01*
X75847833Y3816927D01*
X76048798Y3682647D01*
X76272097Y3590153D01*
X76509151Y3543000D01*
X76750849Y3543000D01*
X76987903Y3590153D01*
X77211202Y3682647D01*
X77412167Y3816927D01*
X77583073Y3987833D01*
X77717353Y4188798D01*
X77809847Y4412097D01*
X77857000Y4649151D01*
X77857000Y4890849D01*
X77809847Y5127903D01*
X77717353Y5351202D01*
X77627000Y5486425D01*
X77627000Y9137592D01*
X80103000Y9137592D01*
X80103000Y8862408D01*
X80156686Y8592510D01*
X80261995Y8338273D01*
X80414880Y8109465D01*
X80609465Y7914880D01*
X80838273Y7761995D01*
X81092510Y7656686D01*
X81362408Y7603000D01*
X81637592Y7603000D01*
X81907490Y7656686D01*
X82161727Y7761995D01*
X82390535Y7914880D01*
X82585120Y8109465D01*
X82738005Y8338273D01*
X82843314Y8592510D01*
X82897000Y8862408D01*
X82897000Y9137592D01*
X82843314Y9407490D01*
X82738005Y9661727D01*
X82585120Y9890535D01*
X82390535Y10085120D01*
X82161727Y10238005D01*
X81907490Y10343314D01*
X81637592Y10397000D01*
X81362408Y10397000D01*
X81092510Y10343314D01*
X80838273Y10238005D01*
X80609465Y10085120D01*
X80414880Y9890535D01*
X80261995Y9661727D01*
X80156686Y9407490D01*
X80103000Y9137592D01*
X77627000Y9137592D01*
X77627000Y42000000D01*
X77624560Y42024776D01*
X77617333Y42048601D01*
X77605597Y42070557D01*
X77589803Y42089803D01*
X77570557Y42105597D01*
X77548601Y42117333D01*
X77524776Y42124560D01*
X77500000Y42127000D01*
X73777000Y42127000D01*
X73777000Y42263272D01*
X73782343Y42267657D01*
X73823206Y42317450D01*
X73853570Y42374257D01*
X73872268Y42435897D01*
X73878582Y42500000D01*
X73878582Y43100000D01*
X73872268Y43164103D01*
X73853570Y43225743D01*
X73823206Y43282550D01*
X73782343Y43332343D01*
X73732550Y43373206D01*
X73675743Y43403570D01*
X73614103Y43422268D01*
X73550000Y43428582D01*
X73150000Y43428582D01*
X73085897Y43422268D01*
X73024257Y43403570D01*
X72967450Y43373206D01*
X72917657Y43332343D01*
X72876794Y43282550D01*
X72846430Y43225743D01*
X72827732Y43164103D01*
X72821418Y43100000D01*
X72821418Y42500000D01*
X72827732Y42435897D01*
X72846430Y42374257D01*
X72876794Y42317450D01*
X72917657Y42267657D01*
X72923000Y42263272D01*
X72923000Y42127000D01*
X71127000Y42127000D01*
X71127000Y53873000D01*
X72373000Y53873000D01*
X72373000Y52500000D01*
G37*
X72373000Y52500000D02*
X72375440Y52475224D01*
X72382667Y52451399D01*
X72394403Y52429443D01*
X72410197Y52410197D01*
X72429443Y52394403D01*
X72451399Y52382667D01*
X72475224Y52375440D01*
X72500000Y52373000D01*
X75447394Y52373000D01*
X84423000Y43397394D01*
X84423001Y5113861D01*
X84084250Y5620839D01*
X83620839Y6084250D01*
X83075925Y6448349D01*
X82470450Y6699145D01*
X81827681Y6827000D01*
X81172319Y6827000D01*
X80529550Y6699145D01*
X79924075Y6448349D01*
X79379161Y6084250D01*
X78915750Y5620839D01*
X78551651Y5075925D01*
X78300855Y4470450D01*
X78173000Y3827681D01*
X78173000Y3172319D01*
X78300855Y2529550D01*
X78551651Y1924075D01*
X78915750Y1379161D01*
X79379161Y915750D01*
X79886137Y577000D01*
X73127000Y577000D01*
X73127000Y2921510D01*
X74543393Y3629706D01*
X74671202Y3682647D01*
X74736396Y3726208D01*
X75029980Y3873000D01*
X75791760Y3873000D01*
X75847833Y3816927D01*
X76048798Y3682647D01*
X76272097Y3590153D01*
X76509151Y3543000D01*
X76750849Y3543000D01*
X76987903Y3590153D01*
X77211202Y3682647D01*
X77412167Y3816927D01*
X77583073Y3987833D01*
X77717353Y4188798D01*
X77809847Y4412097D01*
X77857000Y4649151D01*
X77857000Y4890849D01*
X77809847Y5127903D01*
X77717353Y5351202D01*
X77627000Y5486425D01*
X77627000Y9137592D01*
X80103000Y9137592D01*
X80103000Y8862408D01*
X80156686Y8592510D01*
X80261995Y8338273D01*
X80414880Y8109465D01*
X80609465Y7914880D01*
X80838273Y7761995D01*
X81092510Y7656686D01*
X81362408Y7603000D01*
X81637592Y7603000D01*
X81907490Y7656686D01*
X82161727Y7761995D01*
X82390535Y7914880D01*
X82585120Y8109465D01*
X82738005Y8338273D01*
X82843314Y8592510D01*
X82897000Y8862408D01*
X82897000Y9137592D01*
X82843314Y9407490D01*
X82738005Y9661727D01*
X82585120Y9890535D01*
X82390535Y10085120D01*
X82161727Y10238005D01*
X81907490Y10343314D01*
X81637592Y10397000D01*
X81362408Y10397000D01*
X81092510Y10343314D01*
X80838273Y10238005D01*
X80609465Y10085120D01*
X80414880Y9890535D01*
X80261995Y9661727D01*
X80156686Y9407490D01*
X80103000Y9137592D01*
X77627000Y9137592D01*
X77627000Y42000000D01*
X77624560Y42024776D01*
X77617333Y42048601D01*
X77605597Y42070557D01*
X77589803Y42089803D01*
X77570557Y42105597D01*
X77548601Y42117333D01*
X77524776Y42124560D01*
X77500000Y42127000D01*
X73777000Y42127000D01*
X73777000Y42263272D01*
X73782343Y42267657D01*
X73823206Y42317450D01*
X73853570Y42374257D01*
X73872268Y42435897D01*
X73878582Y42500000D01*
X73878582Y43100000D01*
X73872268Y43164103D01*
X73853570Y43225743D01*
X73823206Y43282550D01*
X73782343Y43332343D01*
X73732550Y43373206D01*
X73675743Y43403570D01*
X73614103Y43422268D01*
X73550000Y43428582D01*
X73150000Y43428582D01*
X73085897Y43422268D01*
X73024257Y43403570D01*
X72967450Y43373206D01*
X72917657Y43332343D01*
X72876794Y43282550D01*
X72846430Y43225743D01*
X72827732Y43164103D01*
X72821418Y43100000D01*
X72821418Y42500000D01*
X72827732Y42435897D01*
X72846430Y42374257D01*
X72876794Y42317450D01*
X72917657Y42267657D01*
X72923000Y42263272D01*
X72923000Y42127000D01*
X71127000Y42127000D01*
X71127000Y53873000D01*
X72373000Y53873000D01*
X72373000Y52500000D01*
M02*
