M48
; DRILL file {KiCad 5.99.0-unknown-0e3c79d3b2~131~ubuntu20.04.1} date Tue Sep  7 14:14:46 2021
; FORMAT={-:-/ absolute / metric / decimal}
; #@! TF.CreationDate,2021-09-07T14:14:46+02:00
; #@! TF.GenerationSoftware,Kicad,Pcbnew,5.99.0-unknown-0e3c79d3b2~131~ubuntu20.04.1
; #@! TF.FileFunction,Plated,1,4,PTH
FMAT,2
METRIC
; #@! TA.AperFunction,Plated,PTH,ViaDrill
T1C0.250
; #@! TA.AperFunction,Plated,PTH,ComponentDrill
T2C0.750
; #@! TA.AperFunction,Plated,PTH,ComponentDrill
T3C0.762
; #@! TA.AperFunction,Plated,PTH,ComponentDrill
T4C0.800
; #@! TA.AperFunction,Plated,PTH,ComponentDrill
T5C0.900
; #@! TA.AperFunction,Plated,PTH,ComponentDrill
T6C1.062
%
G90
G05
T1
X116.5Y-82.75
X117.2Y-80.95
X118.2Y-119.6
X119.45Y-82.7
X121.1Y-120.0
X122.55Y-82.7
X126.1Y-115.9
X126.1Y-120.7
X128.2Y-114.7
X128.9Y-116.6
X129.0Y-93.7
X129.0Y-98.7
X129.0Y-100.2
X129.0Y-102.2
X129.0Y-103.25
X129.0Y-104.25
X129.0Y-107.2
X129.95Y-88.5
X130.3Y-111.7
X131.0Y-119.6
X132.1Y-110.892
X132.35Y-92.75
X132.356Y-94.773
X132.7Y-105.5
X132.706Y-101.149
X132.75Y-100.0
X132.958Y-106.8
X133.3Y-87.95
X133.65Y-108.85
X133.9Y-120.0
X133.949Y-100.723
X134.046Y-97.612
X135.0Y-94.08
X135.15Y-108.8
X135.5Y-106.8
X135.6Y-92.9
X135.699Y-103.251
X136.0Y-105.5
X136.95Y-107.1
X137.2Y-95.65
X137.25Y-89.8
X137.55Y-110.9
X139.3Y-105.301
X139.3Y-108.0
X139.48Y-98.9
X141.05Y-110.8
X142.5Y-102.95
X143.217Y-98.933
X143.65Y-86.75
X143.95Y-106.203
X143.95Y-107.95
X144.0Y-119.6
X144.092Y-101.385
X144.8Y-85.25
X145.145Y-104.111
X145.6Y-101.85
X145.6Y-102.6
X146.1Y-119.2
X146.3Y-107.4
X147.311Y-102.539
X147.4Y-105.85
X147.474Y-106.753
X147.959Y-105.301
X148.25Y-92.1
X148.5Y-97.1
X148.5Y-100.2
X149.7Y-97.75
X149.951Y-100.257
X151.209Y-108.851
X151.8Y-100.15
X152.25Y-104.5
X152.4Y-94.6
X152.672Y-100.148
X152.85Y-89.95
X153.15Y-111.15
X153.265Y-108.922
X153.65Y-91.7
X153.853Y-99.54
X154.6Y-108.85
X154.95Y-96.6
X155.337Y-108.716
X155.9Y-110.55
X156.0Y-87.85
X156.2Y-96.6
X156.689Y-102.216
X156.7Y-87.85
X156.8Y-103.0
X156.8Y-119.6
X157.25Y-101.0
X157.8Y-90.9
X157.937Y-104.171
X158.15Y-97.65
X158.35Y-100.95
X158.858Y-103.026
X159.7Y-120.0
T2
X115.25Y-98.46
X115.25Y-99.73
X115.25Y-101.0
X129.5Y-85.75
X131.5Y-85.75
X131.5Y-115.0
X133.5Y-115.0
X135.5Y-115.0
X136.55Y-85.75
X137.5Y-115.0
X138.55Y-85.75
X139.5Y-115.0
X141.5Y-115.0
X143.5Y-115.0
X147.4Y-85.75
X149.4Y-85.75
X149.5Y-115.0
X151.4Y-85.75
X151.5Y-115.0
X153.4Y-85.75
X153.5Y-115.0
X155.4Y-85.75
X155.5Y-115.0
X162.75Y-98.5
X162.75Y-99.77
X162.75Y-101.04
T3
X117.4Y-122.448
X121.9Y-122.448
X130.3Y-122.448
X134.8Y-122.448
X143.2Y-122.448
X147.7Y-122.448
X156.1Y-122.448
X160.6Y-122.448
T4
X159.1Y-92.3
X159.1Y-94.84
T5
X118.36Y-79.0
X120.9Y-79.0
X126.15Y-79.0
X128.69Y-79.0
X133.96Y-79.0
X136.5Y-79.0
X141.75Y-79.0
X144.29Y-79.0
X149.36Y-79.0
X151.9Y-79.0
X157.16Y-79.0
X159.7Y-79.0
T6
X116.15Y-119.948
X123.15Y-119.948
X129.05Y-119.948
X136.05Y-119.948
X141.95Y-119.948
X148.95Y-119.948
X154.85Y-119.948
X161.85Y-119.948
T0
M30
