%TF.GenerationSoftware,KiCad,Pcbnew,5.99.0-unknown-0e3c79d3b2~131~ubuntu20.04.1*%
%TF.CreationDate,2021-09-07T14:15:13+02:00*%
%TF.ProjectId,VESC_UI,56455343-5f55-4492-9e6b-696361645f70,v2.0.0*%
%TF.SameCoordinates,Original*%
%TF.FileFunction,Legend,Bot*%
%TF.FilePolarity,Positive*%
%FSLAX46Y46*%
G04 Gerber Fmt 4.6, Leading zero omitted, Abs format (unit mm)*
G04 Created by KiCad (PCBNEW 5.99.0-unknown-0e3c79d3b2~131~ubuntu20.04.1) date 2021-09-07 14:15:13*
%MOMM*%
%LPD*%
G01*
G04 APERTURE LIST*
%ADD10C,0.127000*%
G04 APERTURE END LIST*
D10*
%TO.C,R4*%
X154316666Y-81483333D02*
X153983333Y-81250000D01*
X154316666Y-81083333D02*
X153616666Y-81083333D01*
X153616666Y-81350000D01*
X153650000Y-81416666D01*
X153683333Y-81450000D01*
X153750000Y-81483333D01*
X153850000Y-81483333D01*
X153916666Y-81450000D01*
X153950000Y-81416666D01*
X153983333Y-81350000D01*
X153983333Y-81083333D01*
X153850000Y-82083333D02*
X154316666Y-82083333D01*
X153583333Y-81916666D02*
X154083333Y-81750000D01*
X154083333Y-82183333D01*
%TO.C,R1*%
X123216666Y-81483333D02*
X122883333Y-81250000D01*
X123216666Y-81083333D02*
X122516666Y-81083333D01*
X122516666Y-81350000D01*
X122550000Y-81416666D01*
X122583333Y-81450000D01*
X122650000Y-81483333D01*
X122750000Y-81483333D01*
X122816666Y-81450000D01*
X122850000Y-81416666D01*
X122883333Y-81350000D01*
X122883333Y-81083333D01*
X123216666Y-82150000D02*
X123216666Y-81750000D01*
X123216666Y-81950000D02*
X122516666Y-81950000D01*
X122616666Y-81883333D01*
X122683333Y-81816666D01*
X122716666Y-81750000D01*
%TO.C,R6*%
X162116666Y-81483333D02*
X161783333Y-81250000D01*
X162116666Y-81083333D02*
X161416666Y-81083333D01*
X161416666Y-81350000D01*
X161450000Y-81416666D01*
X161483333Y-81450000D01*
X161550000Y-81483333D01*
X161650000Y-81483333D01*
X161716666Y-81450000D01*
X161750000Y-81416666D01*
X161783333Y-81350000D01*
X161783333Y-81083333D01*
X161416666Y-82083333D02*
X161416666Y-81950000D01*
X161450000Y-81883333D01*
X161483333Y-81850000D01*
X161583333Y-81783333D01*
X161716666Y-81750000D01*
X161983333Y-81750000D01*
X162050000Y-81783333D01*
X162083333Y-81816666D01*
X162116666Y-81883333D01*
X162116666Y-82016666D01*
X162083333Y-82083333D01*
X162050000Y-82116666D01*
X161983333Y-82150000D01*
X161816666Y-82150000D01*
X161750000Y-82116666D01*
X161716666Y-82083333D01*
X161683333Y-82016666D01*
X161683333Y-81883333D01*
X161716666Y-81816666D01*
X161750000Y-81783333D01*
X161816666Y-81750000D01*
%TO.C,J1*%
X114866666Y-96316666D02*
X115366666Y-96316666D01*
X115466666Y-96283333D01*
X115533333Y-96216666D01*
X115566666Y-96116666D01*
X115566666Y-96050000D01*
X115566666Y-97016666D02*
X115566666Y-96616666D01*
X115566666Y-96816666D02*
X114866666Y-96816666D01*
X114966666Y-96750000D01*
X115033333Y-96683333D01*
X115066666Y-96616666D01*
%TO.C,R13*%
X162316666Y-93050000D02*
X161983333Y-92816666D01*
X162316666Y-92650000D02*
X161616666Y-92650000D01*
X161616666Y-92916666D01*
X161650000Y-92983333D01*
X161683333Y-93016666D01*
X161750000Y-93050000D01*
X161850000Y-93050000D01*
X161916666Y-93016666D01*
X161950000Y-92983333D01*
X161983333Y-92916666D01*
X161983333Y-92650000D01*
X162316666Y-93716666D02*
X162316666Y-93316666D01*
X162316666Y-93516666D02*
X161616666Y-93516666D01*
X161716666Y-93450000D01*
X161783333Y-93383333D01*
X161816666Y-93316666D01*
X161616666Y-93950000D02*
X161616666Y-94383333D01*
X161883333Y-94150000D01*
X161883333Y-94250000D01*
X161916666Y-94316666D01*
X161950000Y-94350000D01*
X162016666Y-94383333D01*
X162183333Y-94383333D01*
X162250000Y-94350000D01*
X162283333Y-94316666D01*
X162316666Y-94250000D01*
X162316666Y-94050000D01*
X162283333Y-93983333D01*
X162250000Y-93950000D01*
%TO.C,J2*%
X162366666Y-102816666D02*
X162866666Y-102816666D01*
X162966666Y-102783333D01*
X163033333Y-102716666D01*
X163066666Y-102616666D01*
X163066666Y-102550000D01*
X162433333Y-103116666D02*
X162400000Y-103150000D01*
X162366666Y-103216666D01*
X162366666Y-103383333D01*
X162400000Y-103450000D01*
X162433333Y-103483333D01*
X162500000Y-103516666D01*
X162566666Y-103516666D01*
X162666666Y-103483333D01*
X163066666Y-103083333D01*
X163066666Y-103516666D01*
%TO.C,R10*%
X131016666Y-81450000D02*
X130683333Y-81216666D01*
X131016666Y-81050000D02*
X130316666Y-81050000D01*
X130316666Y-81316666D01*
X130350000Y-81383333D01*
X130383333Y-81416666D01*
X130450000Y-81450000D01*
X130550000Y-81450000D01*
X130616666Y-81416666D01*
X130650000Y-81383333D01*
X130683333Y-81316666D01*
X130683333Y-81050000D01*
X131016666Y-82116666D02*
X131016666Y-81716666D01*
X131016666Y-81916666D02*
X130316666Y-81916666D01*
X130416666Y-81850000D01*
X130483333Y-81783333D01*
X130516666Y-81716666D01*
X130316666Y-82550000D02*
X130316666Y-82616666D01*
X130350000Y-82683333D01*
X130383333Y-82716666D01*
X130450000Y-82750000D01*
X130583333Y-82783333D01*
X130750000Y-82783333D01*
X130883333Y-82750000D01*
X130950000Y-82716666D01*
X130983333Y-82683333D01*
X131016666Y-82616666D01*
X131016666Y-82550000D01*
X130983333Y-82483333D01*
X130950000Y-82450000D01*
X130883333Y-82416666D01*
X130750000Y-82383333D01*
X130583333Y-82383333D01*
X130450000Y-82416666D01*
X130383333Y-82450000D01*
X130350000Y-82483333D01*
X130316666Y-82550000D01*
%TO.C,R11*%
X138816666Y-81450000D02*
X138483333Y-81216666D01*
X138816666Y-81050000D02*
X138116666Y-81050000D01*
X138116666Y-81316666D01*
X138150000Y-81383333D01*
X138183333Y-81416666D01*
X138250000Y-81450000D01*
X138350000Y-81450000D01*
X138416666Y-81416666D01*
X138450000Y-81383333D01*
X138483333Y-81316666D01*
X138483333Y-81050000D01*
X138816666Y-82116666D02*
X138816666Y-81716666D01*
X138816666Y-81916666D02*
X138116666Y-81916666D01*
X138216666Y-81850000D01*
X138283333Y-81783333D01*
X138316666Y-81716666D01*
X138816666Y-82783333D02*
X138816666Y-82383333D01*
X138816666Y-82583333D02*
X138116666Y-82583333D01*
X138216666Y-82516666D01*
X138283333Y-82450000D01*
X138316666Y-82383333D01*
%TO.C,R15*%
X146616666Y-81450000D02*
X146283333Y-81216666D01*
X146616666Y-81050000D02*
X145916666Y-81050000D01*
X145916666Y-81316666D01*
X145950000Y-81383333D01*
X145983333Y-81416666D01*
X146050000Y-81450000D01*
X146150000Y-81450000D01*
X146216666Y-81416666D01*
X146250000Y-81383333D01*
X146283333Y-81316666D01*
X146283333Y-81050000D01*
X146616666Y-82116666D02*
X146616666Y-81716666D01*
X146616666Y-81916666D02*
X145916666Y-81916666D01*
X146016666Y-81850000D01*
X146083333Y-81783333D01*
X146116666Y-81716666D01*
X145916666Y-82750000D02*
X145916666Y-82416666D01*
X146250000Y-82383333D01*
X146216666Y-82416666D01*
X146183333Y-82483333D01*
X146183333Y-82650000D01*
X146216666Y-82716666D01*
X146250000Y-82750000D01*
X146316666Y-82783333D01*
X146483333Y-82783333D01*
X146550000Y-82750000D01*
X146583333Y-82716666D01*
X146616666Y-82650000D01*
X146616666Y-82483333D01*
X146583333Y-82416666D01*
X146550000Y-82383333D01*
%TO.C,R4*%
X154680000Y-80300000D02*
X154680000Y-79300000D01*
X153320000Y-79300000D02*
X153320000Y-80300000D01*
%TO.C,R1*%
X122220000Y-79300000D02*
X122220000Y-80300000D01*
X123580000Y-80300000D02*
X123580000Y-79300000D01*
%TO.C,R6*%
X161120000Y-79300000D02*
X161120000Y-80300000D01*
X162480000Y-80300000D02*
X162480000Y-79300000D01*
%TO.C,J1*%
X115900000Y-97610000D02*
X114950000Y-97610000D01*
X114150000Y-101010000D02*
X114150000Y-98410000D01*
X114800000Y-97760000D02*
X114950000Y-97610000D01*
X114150000Y-101010000D02*
X114400000Y-101260000D01*
X114150000Y-98410000D02*
X114400000Y-98160000D01*
X114800000Y-101710000D02*
X114950000Y-101860000D01*
X114950000Y-101860000D02*
X115900000Y-101860000D01*
%TO.C,R13*%
X156950000Y-92250000D02*
X156950000Y-94900000D01*
X161250000Y-92250000D02*
X161250000Y-94900000D01*
X156965612Y-92224524D02*
G75*
G02*
X161250000Y-92250000I2134388J-1325476D01*
G01*
X161232144Y-94928027D02*
G75*
G02*
X156950000Y-94900000I-2132144J1378027D01*
G01*
%TO.C,J2*%
X163200000Y-97790000D02*
X163050000Y-97640000D01*
X163850000Y-98490000D02*
X163850000Y-101090000D01*
X163050000Y-97640000D02*
X162100000Y-97640000D01*
X163200000Y-101740000D02*
X163050000Y-101890000D01*
X162100000Y-101890000D02*
X163050000Y-101890000D01*
X163850000Y-101090000D02*
X163600000Y-101340000D01*
X163850000Y-98490000D02*
X163600000Y-98240000D01*
%TO.C,R10*%
X130020000Y-79300000D02*
X130020000Y-80300000D01*
X131380000Y-80300000D02*
X131380000Y-79300000D01*
%TO.C,R11*%
X139180000Y-80300000D02*
X139180000Y-79300000D01*
X137820000Y-79300000D02*
X137820000Y-80300000D01*
%TO.C,R15*%
X146980000Y-80300000D02*
X146980000Y-79300000D01*
X145620000Y-79300000D02*
X145620000Y-80300000D01*
%TD*%
M02*
