%TF.GenerationSoftware,KiCad,Pcbnew,(5.1.6)-1*%
%TF.CreationDate,2020-12-26T20:27:58+01:00*%
%TF.ProjectId,VESC_UI,56455343-5f55-4492-9e6b-696361645f70,rev?*%
%TF.SameCoordinates,Original*%
%TF.FileFunction,Soldermask,Bot*%
%TF.FilePolarity,Negative*%
%FSLAX46Y46*%
G04 Gerber Fmt 4.6, Leading zero omitted, Abs format (unit mm)*
G04 Created by KiCad (PCBNEW (5.1.6)-1) date 2020-12-26 20:27:58*
%MOMM*%
%LPD*%
G01*
G04 APERTURE LIST*
%ADD10O,1.350000X1.350000*%
%ADD11R,1.350000X1.350000*%
%ADD12O,1.300000X1.050000*%
%ADD13C,0.800000*%
%ADD14C,1.600000*%
%ADD15C,1.524000*%
%ADD16C,1.850000*%
%ADD17O,1.200000X1.750000*%
%ADD18C,3.000000*%
%ADD19C,1.800000*%
%ADD20R,1.800000X1.800000*%
G04 APERTURE END LIST*
D10*
%TO.C,J4*%
X120250000Y-100250000D03*
X118250000Y-100250000D03*
X120250000Y-98250000D03*
X118250000Y-98250000D03*
X120250000Y-96250000D03*
X118250000Y-96250000D03*
X120250000Y-94250000D03*
X118250000Y-94250000D03*
X120250000Y-92250000D03*
D11*
X118250000Y-92250000D03*
%TD*%
%TO.C,J1*%
G36*
G01*
X115650100Y-102225000D02*
X114849900Y-102225000D01*
G75*
G02*
X114600000Y-101975100I0J249900D01*
G01*
X114600000Y-101424900D01*
G75*
G02*
X114849900Y-101175000I249900J0D01*
G01*
X115650100Y-101175000D01*
G75*
G02*
X115900000Y-101424900I0J-249900D01*
G01*
X115900000Y-101975100D01*
G75*
G02*
X115650100Y-102225000I-249900J0D01*
G01*
G37*
D12*
X115250000Y-99160000D03*
X115250000Y-100430000D03*
%TD*%
D13*
%TO.C,SW5*%
X129250000Y-108250000D03*
%TD*%
D14*
%TO.C,R13*%
X159100000Y-94840000D03*
X159100000Y-92300000D03*
%TD*%
D15*
%TO.C,SW1*%
X121900000Y-122450000D03*
X117400000Y-122450000D03*
D16*
X123150000Y-119950000D03*
X116150000Y-119950000D03*
%TD*%
%TO.C,SW2*%
X129050000Y-119950000D03*
X136050000Y-119950000D03*
D15*
X130300000Y-122450000D03*
X134800000Y-122450000D03*
%TD*%
%TO.C,SW3*%
X147700000Y-122450000D03*
X143200000Y-122450000D03*
D16*
X148950000Y-119950000D03*
X141950000Y-119950000D03*
%TD*%
%TO.C,SW4*%
X154850000Y-119950000D03*
X161850000Y-119950000D03*
D15*
X156100000Y-122450000D03*
X160600000Y-122450000D03*
%TD*%
D12*
%TO.C,J2*%
X162750000Y-100470000D03*
X162750000Y-101740000D03*
G36*
G01*
X162349900Y-98675000D02*
X163150100Y-98675000D01*
G75*
G02*
X163400000Y-98924900I0J-249900D01*
G01*
X163400000Y-99475100D01*
G75*
G02*
X163150100Y-99725000I-249900J0D01*
G01*
X162349900Y-99725000D01*
G75*
G02*
X162100000Y-99475100I0J249900D01*
G01*
X162100000Y-98924900D01*
G75*
G02*
X162349900Y-98675000I249900J0D01*
G01*
G37*
%TD*%
D17*
%TO.C,J5*%
X146175000Y-85750000D03*
X148175000Y-85750000D03*
X150175000Y-85750000D03*
X152175000Y-85750000D03*
G36*
G01*
X154775000Y-85124999D02*
X154775000Y-86375001D01*
G75*
G02*
X154525001Y-86625000I-249999J0D01*
G01*
X153824999Y-86625000D01*
G75*
G02*
X153575000Y-86375001I0J249999D01*
G01*
X153575000Y-85124999D01*
G75*
G02*
X153824999Y-84875000I249999J0D01*
G01*
X154525001Y-84875000D01*
G75*
G02*
X154775000Y-85124999I0J-249999D01*
G01*
G37*
%TD*%
D18*
%TO.C,REF\u002A\u002A*%
X161000000Y-112000000D03*
%TD*%
%TO.C,REF\u002A\u002A*%
X117000000Y-112000000D03*
%TD*%
%TO.C,REF\u002A\u002A*%
X117000000Y-87500000D03*
%TD*%
%TO.C,REF\u002A\u002A*%
X161000000Y-87500000D03*
%TD*%
D19*
%TO.C,D6*%
X157160000Y-79000000D03*
D20*
X159700000Y-79000000D03*
%TD*%
D19*
%TO.C,D5*%
X149360000Y-79000000D03*
D20*
X151900000Y-79000000D03*
%TD*%
D19*
%TO.C,D4*%
X141750000Y-79000000D03*
D20*
X144290000Y-79000000D03*
%TD*%
D19*
%TO.C,D3*%
X133960000Y-79000000D03*
D20*
X136500000Y-79000000D03*
%TD*%
D19*
%TO.C,D2*%
X126150000Y-79000000D03*
D20*
X128690000Y-79000000D03*
%TD*%
D19*
%TO.C,D1*%
X118360000Y-79000000D03*
D20*
X120900000Y-79000000D03*
%TD*%
D17*
%TO.C,J6*%
X155500000Y-115000000D03*
X153500000Y-115000000D03*
X151500000Y-115000000D03*
G36*
G01*
X148900000Y-115625001D02*
X148900000Y-114374999D01*
G75*
G02*
X149149999Y-114125000I249999J0D01*
G01*
X149850001Y-114125000D01*
G75*
G02*
X150100000Y-114374999I0J-249999D01*
G01*
X150100000Y-115625001D01*
G75*
G02*
X149850001Y-115875000I-249999J0D01*
G01*
X149149999Y-115875000D01*
G75*
G02*
X148900000Y-115625001I0J249999D01*
G01*
G37*
%TD*%
%TO.C,J3*%
G36*
G01*
X130900000Y-115625001D02*
X130900000Y-114374999D01*
G75*
G02*
X131149999Y-114125000I249999J0D01*
G01*
X131850001Y-114125000D01*
G75*
G02*
X132100000Y-114374999I0J-249999D01*
G01*
X132100000Y-115625001D01*
G75*
G02*
X131850001Y-115875000I-249999J0D01*
G01*
X131149999Y-115875000D01*
G75*
G02*
X130900000Y-115625001I0J249999D01*
G01*
G37*
X133500000Y-115000000D03*
X135500000Y-115000000D03*
X137500000Y-115000000D03*
X139500000Y-115000000D03*
X141500000Y-115000000D03*
X143500000Y-115000000D03*
%TD*%
%TO.C,J8*%
G36*
G01*
X125600000Y-85149999D02*
X125600000Y-86400001D01*
G75*
G02*
X125350001Y-86650000I-249999J0D01*
G01*
X124649999Y-86650000D01*
G75*
G02*
X124400000Y-86400001I0J249999D01*
G01*
X124400000Y-85149999D01*
G75*
G02*
X124649999Y-84900000I249999J0D01*
G01*
X125350001Y-84900000D01*
G75*
G02*
X125600000Y-85149999I0J-249999D01*
G01*
G37*
X123000000Y-85775000D03*
%TD*%
%TO.C,J9*%
X130050000Y-85775000D03*
G36*
G01*
X132650000Y-85149999D02*
X132650000Y-86400001D01*
G75*
G02*
X132400001Y-86650000I-249999J0D01*
G01*
X131699999Y-86650000D01*
G75*
G02*
X131450000Y-86400001I0J249999D01*
G01*
X131450000Y-85149999D01*
G75*
G02*
X131699999Y-84900000I249999J0D01*
G01*
X132400001Y-84900000D01*
G75*
G02*
X132650000Y-85149999I0J-249999D01*
G01*
G37*
%TD*%
M02*
