%FSLAX45Y45*%
G04 Gerber Fmt 4.5, Leading zero omitted, Abs format (unit mm)*
G04 Created by KiCad (PCBNEW 5.99.0-unknown-0e3c79d3b2~131~ubuntu20.04.1) date 2021-09-07 14:14:46*
%MOMM*%
%LPD*%
G01*
G04 APERTURE LIST*
%TA.AperFunction,Profile*%
%ADD10C,0.127000*%
%TD*%
%ADD11C,0.200000*%
%ADD12C,0.300000*%
%ADD13C,0.400000*%
G04 APERTURE END LIST*
D10*
X16400000Y-8500000D02*
X16400000Y-12500000D01*
X11400000Y-12500000D02*
X11400000Y-8500000D01*
X16300000Y-8500000D02*
X16400000Y-8500000D01*
X16300000Y-7500000D02*
X16300000Y-8500000D01*
X11400000Y-8500000D02*
X11500000Y-8500000D01*
X11500000Y-8500000D02*
X11500000Y-7500000D01*
X11500000Y-7500000D02*
X16300000Y-7500000D01*
X16400000Y-12500000D02*
X11400000Y-12500000D01*
D11*
D12*
X11550000Y-8600000D02*
X11850000Y-8900000D01*
X11850000Y-8600000D02*
X11550000Y-8900000D01*
X11550000Y-11050000D02*
X11850000Y-11350000D01*
X11850000Y-11050000D02*
X11550000Y-11350000D01*
X15950000Y-8600000D02*
X16250000Y-8900000D01*
X16250000Y-8600000D02*
X15950000Y-8900000D01*
X15950000Y-11050000D02*
X16250000Y-11350000D01*
X16250000Y-11050000D02*
X15950000Y-11350000D01*
D13*
X12348102Y-9997500D02*
G75*
G03*
X12348102Y-9997500I-200000J0D01*
G01*
D11*
X11958102Y-8647500D02*
X11958102Y-11347500D01*
X12338102Y-8647500D02*
X12338102Y-11347500D01*
X11958102Y-11347500D02*
G75*
G03*
X12338102Y-11347500I190000J0D01*
G01*
X12338102Y-8647500D02*
G75*
G03*
X11958102Y-8647500I-190000J0D01*
G01*
X11651269Y-12816826D02*
X11651269Y-12616826D01*
X11698888Y-12616826D01*
X11727459Y-12626350D01*
X11746507Y-12645398D01*
X11756031Y-12664445D01*
X11765555Y-12702540D01*
X11765555Y-12731112D01*
X11756031Y-12769207D01*
X11746507Y-12788255D01*
X11727459Y-12807302D01*
X11698888Y-12816826D01*
X11651269Y-12816826D01*
X11851269Y-12816826D02*
X11851269Y-12683493D01*
X11851269Y-12721588D02*
X11860793Y-12702540D01*
X11870317Y-12693017D01*
X11889364Y-12683493D01*
X11908412Y-12683493D01*
X11975078Y-12816826D02*
X11975078Y-12683493D01*
X11975078Y-12616826D02*
X11965555Y-12626350D01*
X11975078Y-12635874D01*
X11984602Y-12626350D01*
X11975078Y-12616826D01*
X11975078Y-12635874D01*
X12098888Y-12816826D02*
X12079840Y-12807302D01*
X12070317Y-12788255D01*
X12070317Y-12616826D01*
X12203650Y-12816826D02*
X12184602Y-12807302D01*
X12175078Y-12788255D01*
X12175078Y-12616826D01*
X12432221Y-12816826D02*
X12432221Y-12616826D01*
X12498888Y-12759683D01*
X12565555Y-12616826D01*
X12565555Y-12816826D01*
X12746507Y-12816826D02*
X12746507Y-12712064D01*
X12736983Y-12693017D01*
X12717936Y-12683493D01*
X12679840Y-12683493D01*
X12660793Y-12693017D01*
X12746507Y-12807302D02*
X12727459Y-12816826D01*
X12679840Y-12816826D01*
X12660793Y-12807302D01*
X12651269Y-12788255D01*
X12651269Y-12769207D01*
X12660793Y-12750159D01*
X12679840Y-12740636D01*
X12727459Y-12740636D01*
X12746507Y-12731112D01*
X12841745Y-12683493D02*
X12841745Y-12883493D01*
X12841745Y-12693017D02*
X12860793Y-12683493D01*
X12898888Y-12683493D01*
X12917936Y-12693017D01*
X12927459Y-12702540D01*
X12936983Y-12721588D01*
X12936983Y-12778731D01*
X12927459Y-12797778D01*
X12917936Y-12807302D01*
X12898888Y-12816826D01*
X12860793Y-12816826D01*
X12841745Y-12807302D01*
X13022698Y-12797778D02*
X13032221Y-12807302D01*
X13022698Y-12816826D01*
X13013174Y-12807302D01*
X13022698Y-12797778D01*
X13022698Y-12816826D01*
X13022698Y-12693017D02*
X13032221Y-12702540D01*
X13022698Y-12712064D01*
X13013174Y-12702540D01*
X13022698Y-12693017D01*
X13022698Y-12712064D01*
X11193650Y-13046350D02*
X11393650Y-13246350D01*
X11393650Y-13046350D02*
X11193650Y-13246350D01*
X11632221Y-13036826D02*
X11756031Y-13036826D01*
X11689364Y-13113017D01*
X11717936Y-13113017D01*
X11736983Y-13122540D01*
X11746507Y-13132064D01*
X11756031Y-13151112D01*
X11756031Y-13198731D01*
X11746507Y-13217778D01*
X11736983Y-13227302D01*
X11717936Y-13236826D01*
X11660793Y-13236826D01*
X11641745Y-13227302D01*
X11632221Y-13217778D01*
X11841745Y-13217778D02*
X11851269Y-13227302D01*
X11841745Y-13236826D01*
X11832221Y-13227302D01*
X11841745Y-13217778D01*
X11841745Y-13236826D01*
X11975078Y-13036826D02*
X11994126Y-13036826D01*
X12013174Y-13046350D01*
X12022698Y-13055874D01*
X12032221Y-13074921D01*
X12041745Y-13113017D01*
X12041745Y-13160636D01*
X12032221Y-13198731D01*
X12022698Y-13217778D01*
X12013174Y-13227302D01*
X11994126Y-13236826D01*
X11975078Y-13236826D01*
X11956031Y-13227302D01*
X11946507Y-13217778D01*
X11936983Y-13198731D01*
X11927459Y-13160636D01*
X11927459Y-13113017D01*
X11936983Y-13074921D01*
X11946507Y-13055874D01*
X11956031Y-13046350D01*
X11975078Y-13036826D01*
X12165555Y-13036826D02*
X12184602Y-13036826D01*
X12203650Y-13046350D01*
X12213174Y-13055874D01*
X12222698Y-13074921D01*
X12232221Y-13113017D01*
X12232221Y-13160636D01*
X12222698Y-13198731D01*
X12213174Y-13217778D01*
X12203650Y-13227302D01*
X12184602Y-13236826D01*
X12165555Y-13236826D01*
X12146507Y-13227302D01*
X12136983Y-13217778D01*
X12127459Y-13198731D01*
X12117936Y-13160636D01*
X12117936Y-13113017D01*
X12127459Y-13074921D01*
X12136983Y-13055874D01*
X12146507Y-13046350D01*
X12165555Y-13036826D01*
X12356031Y-13036826D02*
X12375078Y-13036826D01*
X12394126Y-13046350D01*
X12403650Y-13055874D01*
X12413174Y-13074921D01*
X12422698Y-13113017D01*
X12422698Y-13160636D01*
X12413174Y-13198731D01*
X12403650Y-13217778D01*
X12394126Y-13227302D01*
X12375078Y-13236826D01*
X12356031Y-13236826D01*
X12336983Y-13227302D01*
X12327459Y-13217778D01*
X12317936Y-13198731D01*
X12308412Y-13160636D01*
X12308412Y-13113017D01*
X12317936Y-13074921D01*
X12327459Y-13055874D01*
X12336983Y-13046350D01*
X12356031Y-13036826D01*
X12508412Y-13236826D02*
X12508412Y-13103493D01*
X12508412Y-13122540D02*
X12517936Y-13113017D01*
X12536983Y-13103493D01*
X12565555Y-13103493D01*
X12584602Y-13113017D01*
X12594126Y-13132064D01*
X12594126Y-13236826D01*
X12594126Y-13132064D02*
X12603650Y-13113017D01*
X12622698Y-13103493D01*
X12651269Y-13103493D01*
X12670317Y-13113017D01*
X12679840Y-13132064D01*
X12679840Y-13236826D01*
X12775078Y-13236826D02*
X12775078Y-13103493D01*
X12775078Y-13122540D02*
X12784602Y-13113017D01*
X12803650Y-13103493D01*
X12832221Y-13103493D01*
X12851269Y-13113017D01*
X12860793Y-13132064D01*
X12860793Y-13236826D01*
X12860793Y-13132064D02*
X12870317Y-13113017D01*
X12889364Y-13103493D01*
X12917936Y-13103493D01*
X12936983Y-13113017D01*
X12946507Y-13132064D01*
X12946507Y-13236826D01*
X13336983Y-13027302D02*
X13165555Y-13284445D01*
X13594126Y-13036826D02*
X13613174Y-13036826D01*
X13632221Y-13046350D01*
X13641745Y-13055874D01*
X13651269Y-13074921D01*
X13660793Y-13113017D01*
X13660793Y-13160636D01*
X13651269Y-13198731D01*
X13641745Y-13217778D01*
X13632221Y-13227302D01*
X13613174Y-13236826D01*
X13594126Y-13236826D01*
X13575078Y-13227302D01*
X13565555Y-13217778D01*
X13556031Y-13198731D01*
X13546507Y-13160636D01*
X13546507Y-13113017D01*
X13556031Y-13074921D01*
X13565555Y-13055874D01*
X13575078Y-13046350D01*
X13594126Y-13036826D01*
X13746507Y-13217778D02*
X13756031Y-13227302D01*
X13746507Y-13236826D01*
X13736983Y-13227302D01*
X13746507Y-13217778D01*
X13746507Y-13236826D01*
X13946507Y-13236826D02*
X13832221Y-13236826D01*
X13889364Y-13236826D02*
X13889364Y-13036826D01*
X13870317Y-13065398D01*
X13851269Y-13084445D01*
X13832221Y-13093969D01*
X14136983Y-13236826D02*
X14022698Y-13236826D01*
X14079840Y-13236826D02*
X14079840Y-13036826D01*
X14060793Y-13065398D01*
X14041745Y-13084445D01*
X14022698Y-13093969D01*
X14251269Y-13122540D02*
X14232221Y-13113017D01*
X14222698Y-13103493D01*
X14213174Y-13084445D01*
X14213174Y-13074921D01*
X14222698Y-13055874D01*
X14232221Y-13046350D01*
X14251269Y-13036826D01*
X14289364Y-13036826D01*
X14308412Y-13046350D01*
X14317936Y-13055874D01*
X14327459Y-13074921D01*
X14327459Y-13084445D01*
X14317936Y-13103493D01*
X14308412Y-13113017D01*
X14289364Y-13122540D01*
X14251269Y-13122540D01*
X14232221Y-13132064D01*
X14222698Y-13141588D01*
X14213174Y-13160636D01*
X14213174Y-13198731D01*
X14222698Y-13217778D01*
X14232221Y-13227302D01*
X14251269Y-13236826D01*
X14289364Y-13236826D01*
X14308412Y-13227302D01*
X14317936Y-13217778D01*
X14327459Y-13198731D01*
X14327459Y-13160636D01*
X14317936Y-13141588D01*
X14308412Y-13132064D01*
X14289364Y-13122540D01*
X14517936Y-13236826D02*
X14403650Y-13236826D01*
X14460793Y-13236826D02*
X14460793Y-13036826D01*
X14441745Y-13065398D01*
X14422698Y-13084445D01*
X14403650Y-13093969D01*
X14594126Y-13036826D02*
X14594126Y-13074921D01*
X14670317Y-13036826D02*
X14670317Y-13074921D01*
X14965555Y-13313017D02*
X14956031Y-13303493D01*
X14936983Y-13274921D01*
X14927459Y-13255874D01*
X14917936Y-13227302D01*
X14908412Y-13179683D01*
X14908412Y-13141588D01*
X14917936Y-13093969D01*
X14927459Y-13065398D01*
X14936983Y-13046350D01*
X14956031Y-13017778D01*
X14965555Y-13008255D01*
X15127459Y-13103493D02*
X15127459Y-13236826D01*
X15079840Y-13027302D02*
X15032221Y-13170159D01*
X15156031Y-13170159D01*
X15384602Y-13236826D02*
X15384602Y-13036826D01*
X15470317Y-13236826D02*
X15470317Y-13132064D01*
X15460793Y-13113017D01*
X15441745Y-13103493D01*
X15413174Y-13103493D01*
X15394126Y-13113017D01*
X15384602Y-13122540D01*
X15594126Y-13236826D02*
X15575078Y-13227302D01*
X15565555Y-13217778D01*
X15556031Y-13198731D01*
X15556031Y-13141588D01*
X15565555Y-13122540D01*
X15575078Y-13113017D01*
X15594126Y-13103493D01*
X15622698Y-13103493D01*
X15641745Y-13113017D01*
X15651269Y-13122540D01*
X15660793Y-13141588D01*
X15660793Y-13198731D01*
X15651269Y-13217778D01*
X15641745Y-13227302D01*
X15622698Y-13236826D01*
X15594126Y-13236826D01*
X15775078Y-13236826D02*
X15756031Y-13227302D01*
X15746507Y-13208255D01*
X15746507Y-13036826D01*
X15927459Y-13227302D02*
X15908412Y-13236826D01*
X15870317Y-13236826D01*
X15851269Y-13227302D01*
X15841745Y-13208255D01*
X15841745Y-13132064D01*
X15851269Y-13113017D01*
X15870317Y-13103493D01*
X15908412Y-13103493D01*
X15927459Y-13113017D01*
X15936983Y-13132064D01*
X15936983Y-13151112D01*
X15841745Y-13170159D01*
X16013174Y-13227302D02*
X16032221Y-13236826D01*
X16070317Y-13236826D01*
X16089364Y-13227302D01*
X16098888Y-13208255D01*
X16098888Y-13198731D01*
X16089364Y-13179683D01*
X16070317Y-13170159D01*
X16041745Y-13170159D01*
X16022698Y-13160636D01*
X16013174Y-13141588D01*
X16013174Y-13132064D01*
X16022698Y-13113017D01*
X16041745Y-13103493D01*
X16070317Y-13103493D01*
X16089364Y-13113017D01*
X16165555Y-13313017D02*
X16175078Y-13303493D01*
X16194126Y-13274921D01*
X16203650Y-13255874D01*
X16213174Y-13227302D01*
X16222698Y-13179683D01*
X16222698Y-13141588D01*
X16213174Y-13093969D01*
X16203650Y-13065398D01*
X16194126Y-13046350D01*
X16175078Y-13017778D01*
X16165555Y-13008255D01*
X16527459Y-13313017D02*
X16517936Y-13303493D01*
X16498888Y-13274921D01*
X16489364Y-13255874D01*
X16479840Y-13227302D01*
X16470317Y-13179683D01*
X16470317Y-13141588D01*
X16479840Y-13093969D01*
X16489364Y-13065398D01*
X16498888Y-13046350D01*
X16517936Y-13017778D01*
X16527459Y-13008255D01*
X16603650Y-13103493D02*
X16603650Y-13236826D01*
X16603650Y-13122540D02*
X16613174Y-13113017D01*
X16632221Y-13103493D01*
X16660793Y-13103493D01*
X16679840Y-13113017D01*
X16689364Y-13132064D01*
X16689364Y-13236826D01*
X16813174Y-13236826D02*
X16794126Y-13227302D01*
X16784602Y-13217778D01*
X16775078Y-13198731D01*
X16775078Y-13141588D01*
X16784602Y-13122540D01*
X16794126Y-13113017D01*
X16813174Y-13103493D01*
X16841745Y-13103493D01*
X16860793Y-13113017D01*
X16870317Y-13122540D01*
X16879840Y-13141588D01*
X16879840Y-13198731D01*
X16870317Y-13217778D01*
X16860793Y-13227302D01*
X16841745Y-13236826D01*
X16813174Y-13236826D01*
X16936983Y-13103493D02*
X17013174Y-13103493D01*
X16965555Y-13036826D02*
X16965555Y-13208255D01*
X16975079Y-13227302D01*
X16994126Y-13236826D01*
X17013174Y-13236826D01*
X17232221Y-13103493D02*
X17232221Y-13303493D01*
X17232221Y-13113017D02*
X17251269Y-13103493D01*
X17289364Y-13103493D01*
X17308412Y-13113017D01*
X17317936Y-13122540D01*
X17327460Y-13141588D01*
X17327460Y-13198731D01*
X17317936Y-13217778D01*
X17308412Y-13227302D01*
X17289364Y-13236826D01*
X17251269Y-13236826D01*
X17232221Y-13227302D01*
X17441745Y-13236826D02*
X17422698Y-13227302D01*
X17413174Y-13208255D01*
X17413174Y-13036826D01*
X17603650Y-13236826D02*
X17603650Y-13132064D01*
X17594126Y-13113017D01*
X17575079Y-13103493D01*
X17536983Y-13103493D01*
X17517936Y-13113017D01*
X17603650Y-13227302D02*
X17584602Y-13236826D01*
X17536983Y-13236826D01*
X17517936Y-13227302D01*
X17508412Y-13208255D01*
X17508412Y-13189207D01*
X17517936Y-13170159D01*
X17536983Y-13160636D01*
X17584602Y-13160636D01*
X17603650Y-13151112D01*
X17670317Y-13103493D02*
X17746507Y-13103493D01*
X17698888Y-13036826D02*
X17698888Y-13208255D01*
X17708412Y-13227302D01*
X17727460Y-13236826D01*
X17746507Y-13236826D01*
X17889364Y-13227302D02*
X17870317Y-13236826D01*
X17832221Y-13236826D01*
X17813174Y-13227302D01*
X17803650Y-13208255D01*
X17803650Y-13132064D01*
X17813174Y-13113017D01*
X17832221Y-13103493D01*
X17870317Y-13103493D01*
X17889364Y-13113017D01*
X17898888Y-13132064D01*
X17898888Y-13151112D01*
X17803650Y-13170159D01*
X18070317Y-13236826D02*
X18070317Y-13036826D01*
X18070317Y-13227302D02*
X18051269Y-13236826D01*
X18013174Y-13236826D01*
X17994126Y-13227302D01*
X17984602Y-13217778D01*
X17975079Y-13198731D01*
X17975079Y-13141588D01*
X17984602Y-13122540D01*
X17994126Y-13113017D01*
X18013174Y-13103493D01*
X18051269Y-13103493D01*
X18070317Y-13113017D01*
X18146507Y-13313017D02*
X18156031Y-13303493D01*
X18175079Y-13274921D01*
X18184602Y-13255874D01*
X18194126Y-13227302D01*
X18203650Y-13179683D01*
X18203650Y-13141588D01*
X18194126Y-13093969D01*
X18184602Y-13065398D01*
X18175079Y-13046350D01*
X18156031Y-13017778D01*
X18146507Y-13008255D01*
X11393650Y-13466350D02*
G75*
G03*
X11393650Y-13466350I-100000J0D01*
G01*
X11736983Y-13423493D02*
X11736983Y-13556826D01*
X11689364Y-13347302D02*
X11641745Y-13490159D01*
X11765555Y-13490159D01*
X11841745Y-13537778D02*
X11851269Y-13547302D01*
X11841745Y-13556826D01*
X11832221Y-13547302D01*
X11841745Y-13537778D01*
X11841745Y-13556826D01*
X11975078Y-13356826D02*
X11994126Y-13356826D01*
X12013174Y-13366350D01*
X12022698Y-13375874D01*
X12032221Y-13394921D01*
X12041745Y-13433017D01*
X12041745Y-13480636D01*
X12032221Y-13518731D01*
X12022698Y-13537778D01*
X12013174Y-13547302D01*
X11994126Y-13556826D01*
X11975078Y-13556826D01*
X11956031Y-13547302D01*
X11946507Y-13537778D01*
X11936983Y-13518731D01*
X11927459Y-13480636D01*
X11927459Y-13433017D01*
X11936983Y-13394921D01*
X11946507Y-13375874D01*
X11956031Y-13366350D01*
X11975078Y-13356826D01*
X12165555Y-13356826D02*
X12184602Y-13356826D01*
X12203650Y-13366350D01*
X12213174Y-13375874D01*
X12222698Y-13394921D01*
X12232221Y-13433017D01*
X12232221Y-13480636D01*
X12222698Y-13518731D01*
X12213174Y-13537778D01*
X12203650Y-13547302D01*
X12184602Y-13556826D01*
X12165555Y-13556826D01*
X12146507Y-13547302D01*
X12136983Y-13537778D01*
X12127459Y-13518731D01*
X12117936Y-13480636D01*
X12117936Y-13433017D01*
X12127459Y-13394921D01*
X12136983Y-13375874D01*
X12146507Y-13366350D01*
X12165555Y-13356826D01*
X12356031Y-13356826D02*
X12375078Y-13356826D01*
X12394126Y-13366350D01*
X12403650Y-13375874D01*
X12413174Y-13394921D01*
X12422698Y-13433017D01*
X12422698Y-13480636D01*
X12413174Y-13518731D01*
X12403650Y-13537778D01*
X12394126Y-13547302D01*
X12375078Y-13556826D01*
X12356031Y-13556826D01*
X12336983Y-13547302D01*
X12327459Y-13537778D01*
X12317936Y-13518731D01*
X12308412Y-13480636D01*
X12308412Y-13433017D01*
X12317936Y-13394921D01*
X12327459Y-13375874D01*
X12336983Y-13366350D01*
X12356031Y-13356826D01*
X12508412Y-13556826D02*
X12508412Y-13423493D01*
X12508412Y-13442540D02*
X12517936Y-13433017D01*
X12536983Y-13423493D01*
X12565555Y-13423493D01*
X12584602Y-13433017D01*
X12594126Y-13452064D01*
X12594126Y-13556826D01*
X12594126Y-13452064D02*
X12603650Y-13433017D01*
X12622698Y-13423493D01*
X12651269Y-13423493D01*
X12670317Y-13433017D01*
X12679840Y-13452064D01*
X12679840Y-13556826D01*
X12775078Y-13556826D02*
X12775078Y-13423493D01*
X12775078Y-13442540D02*
X12784602Y-13433017D01*
X12803650Y-13423493D01*
X12832221Y-13423493D01*
X12851269Y-13433017D01*
X12860793Y-13452064D01*
X12860793Y-13556826D01*
X12860793Y-13452064D02*
X12870317Y-13433017D01*
X12889364Y-13423493D01*
X12917936Y-13423493D01*
X12936983Y-13433017D01*
X12946507Y-13452064D01*
X12946507Y-13556826D01*
X13336983Y-13347302D02*
X13165555Y-13604445D01*
X13594126Y-13356826D02*
X13613174Y-13356826D01*
X13632221Y-13366350D01*
X13641745Y-13375874D01*
X13651269Y-13394921D01*
X13660793Y-13433017D01*
X13660793Y-13480636D01*
X13651269Y-13518731D01*
X13641745Y-13537778D01*
X13632221Y-13547302D01*
X13613174Y-13556826D01*
X13594126Y-13556826D01*
X13575078Y-13547302D01*
X13565555Y-13537778D01*
X13556031Y-13518731D01*
X13546507Y-13480636D01*
X13546507Y-13433017D01*
X13556031Y-13394921D01*
X13565555Y-13375874D01*
X13575078Y-13366350D01*
X13594126Y-13356826D01*
X13746507Y-13537778D02*
X13756031Y-13547302D01*
X13746507Y-13556826D01*
X13736983Y-13547302D01*
X13746507Y-13537778D01*
X13746507Y-13556826D01*
X13946507Y-13556826D02*
X13832221Y-13556826D01*
X13889364Y-13556826D02*
X13889364Y-13356826D01*
X13870317Y-13385398D01*
X13851269Y-13404445D01*
X13832221Y-13413969D01*
X14127459Y-13356826D02*
X14032221Y-13356826D01*
X14022698Y-13452064D01*
X14032221Y-13442540D01*
X14051269Y-13433017D01*
X14098888Y-13433017D01*
X14117936Y-13442540D01*
X14127459Y-13452064D01*
X14136983Y-13471112D01*
X14136983Y-13518731D01*
X14127459Y-13537778D01*
X14117936Y-13547302D01*
X14098888Y-13556826D01*
X14051269Y-13556826D01*
X14032221Y-13547302D01*
X14022698Y-13537778D01*
X14203650Y-13356826D02*
X14336983Y-13356826D01*
X14251269Y-13556826D01*
X14508412Y-13356826D02*
X14413174Y-13356826D01*
X14403650Y-13452064D01*
X14413174Y-13442540D01*
X14432221Y-13433017D01*
X14479840Y-13433017D01*
X14498888Y-13442540D01*
X14508412Y-13452064D01*
X14517936Y-13471112D01*
X14517936Y-13518731D01*
X14508412Y-13537778D01*
X14498888Y-13547302D01*
X14479840Y-13556826D01*
X14432221Y-13556826D01*
X14413174Y-13547302D01*
X14403650Y-13537778D01*
X14594126Y-13356826D02*
X14594126Y-13394921D01*
X14670317Y-13356826D02*
X14670317Y-13394921D01*
X14965555Y-13633017D02*
X14956031Y-13623493D01*
X14936983Y-13594921D01*
X14927459Y-13575874D01*
X14917936Y-13547302D01*
X14908412Y-13499683D01*
X14908412Y-13461588D01*
X14917936Y-13413969D01*
X14927459Y-13385398D01*
X14936983Y-13366350D01*
X14956031Y-13337778D01*
X14965555Y-13328255D01*
X15146507Y-13556826D02*
X15032221Y-13556826D01*
X15089364Y-13556826D02*
X15089364Y-13356826D01*
X15070317Y-13385398D01*
X15051269Y-13404445D01*
X15032221Y-13413969D01*
X15375078Y-13547302D02*
X15394126Y-13556826D01*
X15432221Y-13556826D01*
X15451269Y-13547302D01*
X15460793Y-13528255D01*
X15460793Y-13518731D01*
X15451269Y-13499683D01*
X15432221Y-13490159D01*
X15403650Y-13490159D01*
X15384602Y-13480636D01*
X15375078Y-13461588D01*
X15375078Y-13452064D01*
X15384602Y-13433017D01*
X15403650Y-13423493D01*
X15432221Y-13423493D01*
X15451269Y-13433017D01*
X15575078Y-13556826D02*
X15556031Y-13547302D01*
X15546507Y-13528255D01*
X15546507Y-13356826D01*
X15679840Y-13556826D02*
X15660793Y-13547302D01*
X15651269Y-13537778D01*
X15641745Y-13518731D01*
X15641745Y-13461588D01*
X15651269Y-13442540D01*
X15660793Y-13433017D01*
X15679840Y-13423493D01*
X15708412Y-13423493D01*
X15727459Y-13433017D01*
X15736983Y-13442540D01*
X15746507Y-13461588D01*
X15746507Y-13518731D01*
X15736983Y-13537778D01*
X15727459Y-13547302D01*
X15708412Y-13556826D01*
X15679840Y-13556826D01*
X15803650Y-13423493D02*
X15879840Y-13423493D01*
X15832221Y-13356826D02*
X15832221Y-13528255D01*
X15841745Y-13547302D01*
X15860793Y-13556826D01*
X15879840Y-13556826D01*
X15927459Y-13633017D02*
X15936983Y-13623493D01*
X15956031Y-13594921D01*
X15965555Y-13575874D01*
X15975078Y-13547302D01*
X15984602Y-13499683D01*
X15984602Y-13461588D01*
X15975078Y-13413969D01*
X15965555Y-13385398D01*
X15956031Y-13366350D01*
X15936983Y-13337778D01*
X15927459Y-13328255D01*
X16289364Y-13633017D02*
X16279840Y-13623493D01*
X16260793Y-13594921D01*
X16251269Y-13575874D01*
X16241745Y-13547302D01*
X16232221Y-13499683D01*
X16232221Y-13461588D01*
X16241745Y-13413969D01*
X16251269Y-13385398D01*
X16260793Y-13366350D01*
X16279840Y-13337778D01*
X16289364Y-13328255D01*
X16365555Y-13423493D02*
X16365555Y-13556826D01*
X16365555Y-13442540D02*
X16375078Y-13433017D01*
X16394126Y-13423493D01*
X16422698Y-13423493D01*
X16441745Y-13433017D01*
X16451269Y-13452064D01*
X16451269Y-13556826D01*
X16575078Y-13556826D02*
X16556031Y-13547302D01*
X16546507Y-13537778D01*
X16536983Y-13518731D01*
X16536983Y-13461588D01*
X16546507Y-13442540D01*
X16556031Y-13433017D01*
X16575078Y-13423493D01*
X16603650Y-13423493D01*
X16622698Y-13433017D01*
X16632221Y-13442540D01*
X16641745Y-13461588D01*
X16641745Y-13518731D01*
X16632221Y-13537778D01*
X16622698Y-13547302D01*
X16603650Y-13556826D01*
X16575078Y-13556826D01*
X16698888Y-13423493D02*
X16775078Y-13423493D01*
X16727459Y-13356826D02*
X16727459Y-13528255D01*
X16736983Y-13547302D01*
X16756031Y-13556826D01*
X16775078Y-13556826D01*
X16994126Y-13423493D02*
X16994126Y-13623493D01*
X16994126Y-13433017D02*
X17013174Y-13423493D01*
X17051269Y-13423493D01*
X17070317Y-13433017D01*
X17079840Y-13442540D01*
X17089364Y-13461588D01*
X17089364Y-13518731D01*
X17079840Y-13537778D01*
X17070317Y-13547302D01*
X17051269Y-13556826D01*
X17013174Y-13556826D01*
X16994126Y-13547302D01*
X17203650Y-13556826D02*
X17184602Y-13547302D01*
X17175079Y-13528255D01*
X17175079Y-13356826D01*
X17365555Y-13556826D02*
X17365555Y-13452064D01*
X17356031Y-13433017D01*
X17336983Y-13423493D01*
X17298888Y-13423493D01*
X17279840Y-13433017D01*
X17365555Y-13547302D02*
X17346507Y-13556826D01*
X17298888Y-13556826D01*
X17279840Y-13547302D01*
X17270317Y-13528255D01*
X17270317Y-13509207D01*
X17279840Y-13490159D01*
X17298888Y-13480636D01*
X17346507Y-13480636D01*
X17365555Y-13471112D01*
X17432221Y-13423493D02*
X17508412Y-13423493D01*
X17460793Y-13356826D02*
X17460793Y-13528255D01*
X17470317Y-13547302D01*
X17489364Y-13556826D01*
X17508412Y-13556826D01*
X17651269Y-13547302D02*
X17632221Y-13556826D01*
X17594126Y-13556826D01*
X17575079Y-13547302D01*
X17565555Y-13528255D01*
X17565555Y-13452064D01*
X17575079Y-13433017D01*
X17594126Y-13423493D01*
X17632221Y-13423493D01*
X17651269Y-13433017D01*
X17660793Y-13452064D01*
X17660793Y-13471112D01*
X17565555Y-13490159D01*
X17832221Y-13556826D02*
X17832221Y-13356826D01*
X17832221Y-13547302D02*
X17813174Y-13556826D01*
X17775079Y-13556826D01*
X17756031Y-13547302D01*
X17746507Y-13537778D01*
X17736983Y-13518731D01*
X17736983Y-13461588D01*
X17746507Y-13442540D01*
X17756031Y-13433017D01*
X17775079Y-13423493D01*
X17813174Y-13423493D01*
X17832221Y-13433017D01*
X17908412Y-13633017D02*
X17917936Y-13623493D01*
X17936983Y-13594921D01*
X17946507Y-13575874D01*
X17956031Y-13547302D01*
X17965555Y-13499683D01*
X17965555Y-13461588D01*
X17956031Y-13413969D01*
X17946507Y-13385398D01*
X17936983Y-13366350D01*
X17917936Y-13337778D01*
X17908412Y-13328255D01*
M02*
