%TF.GenerationSoftware,KiCad,Pcbnew,(5.1.6)-1*%
%TF.CreationDate,2020-12-26T20:27:58+01:00*%
%TF.ProjectId,VESC_UI,56455343-5f55-4492-9e6b-696361645f70,rev?*%
%TF.SameCoordinates,Original*%
%TF.FileFunction,Soldermask,Top*%
%TF.FilePolarity,Negative*%
%FSLAX46Y46*%
G04 Gerber Fmt 4.6, Leading zero omitted, Abs format (unit mm)*
G04 Created by KiCad (PCBNEW (5.1.6)-1) date 2020-12-26 20:27:58*
%MOMM*%
%LPD*%
G01*
G04 APERTURE LIST*
%ADD10O,1.350000X1.350000*%
%ADD11R,1.350000X1.350000*%
%ADD12O,1.300000X1.050000*%
%ADD13C,0.800000*%
%ADD14R,1.700000X0.900000*%
%ADD15C,1.600000*%
%ADD16R,0.800000X0.900000*%
%ADD17C,1.524000*%
%ADD18C,1.850000*%
%ADD19O,1.200000X1.750000*%
%ADD20C,3.000000*%
%ADD21C,1.800000*%
%ADD22R,1.800000X1.800000*%
%ADD23R,5.000000X2.000000*%
%ADD24R,4.000000X1.700000*%
%ADD25C,0.100000*%
%ADD26R,5.600000X5.600000*%
G04 APERTURE END LIST*
%TO.C,C15*%
G36*
G01*
X135250000Y-106362500D02*
X135250000Y-106837500D01*
G75*
G02*
X135012500Y-107075000I-237500J0D01*
G01*
X134437500Y-107075000D01*
G75*
G02*
X134200000Y-106837500I0J237500D01*
G01*
X134200000Y-106362500D01*
G75*
G02*
X134437500Y-106125000I237500J0D01*
G01*
X135012500Y-106125000D01*
G75*
G02*
X135250000Y-106362500I0J-237500D01*
G01*
G37*
G36*
G01*
X137000000Y-106362500D02*
X137000000Y-106837500D01*
G75*
G02*
X136762500Y-107075000I-237500J0D01*
G01*
X136187500Y-107075000D01*
G75*
G02*
X135950000Y-106837500I0J237500D01*
G01*
X135950000Y-106362500D01*
G75*
G02*
X136187500Y-106125000I237500J0D01*
G01*
X136762500Y-106125000D01*
G75*
G02*
X137000000Y-106362500I0J-237500D01*
G01*
G37*
%TD*%
%TO.C,L2*%
G36*
G01*
X134200000Y-108437500D02*
X134200000Y-107962500D01*
G75*
G02*
X134437500Y-107725000I237500J0D01*
G01*
X135012500Y-107725000D01*
G75*
G02*
X135250000Y-107962500I0J-237500D01*
G01*
X135250000Y-108437500D01*
G75*
G02*
X135012500Y-108675000I-237500J0D01*
G01*
X134437500Y-108675000D01*
G75*
G02*
X134200000Y-108437500I0J237500D01*
G01*
G37*
G36*
G01*
X135950000Y-108437500D02*
X135950000Y-107962500D01*
G75*
G02*
X136187500Y-107725000I237500J0D01*
G01*
X136762500Y-107725000D01*
G75*
G02*
X137000000Y-107962500I0J-237500D01*
G01*
X137000000Y-108437500D01*
G75*
G02*
X136762500Y-108675000I-237500J0D01*
G01*
X136187500Y-108675000D01*
G75*
G02*
X135950000Y-108437500I0J237500D01*
G01*
G37*
%TD*%
D10*
%TO.C,J4*%
X120250000Y-100250000D03*
X118250000Y-100250000D03*
X120250000Y-98250000D03*
X118250000Y-98250000D03*
X120250000Y-96250000D03*
X118250000Y-96250000D03*
X120250000Y-94250000D03*
X118250000Y-94250000D03*
X120250000Y-92250000D03*
D11*
X118250000Y-92250000D03*
%TD*%
%TO.C,J1*%
G36*
G01*
X115650100Y-102225000D02*
X114849900Y-102225000D01*
G75*
G02*
X114600000Y-101975100I0J249900D01*
G01*
X114600000Y-101424900D01*
G75*
G02*
X114849900Y-101175000I249900J0D01*
G01*
X115650100Y-101175000D01*
G75*
G02*
X115900000Y-101424900I0J-249900D01*
G01*
X115900000Y-101975100D01*
G75*
G02*
X115650100Y-102225000I-249900J0D01*
G01*
G37*
D12*
X115250000Y-99160000D03*
X115250000Y-100430000D03*
%TD*%
%TO.C,C12*%
G36*
G01*
X126262500Y-107850000D02*
X126737500Y-107850000D01*
G75*
G02*
X126975000Y-108087500I0J-237500D01*
G01*
X126975000Y-108662500D01*
G75*
G02*
X126737500Y-108900000I-237500J0D01*
G01*
X126262500Y-108900000D01*
G75*
G02*
X126025000Y-108662500I0J237500D01*
G01*
X126025000Y-108087500D01*
G75*
G02*
X126262500Y-107850000I237500J0D01*
G01*
G37*
G36*
G01*
X126262500Y-106100000D02*
X126737500Y-106100000D01*
G75*
G02*
X126975000Y-106337500I0J-237500D01*
G01*
X126975000Y-106912500D01*
G75*
G02*
X126737500Y-107150000I-237500J0D01*
G01*
X126262500Y-107150000D01*
G75*
G02*
X126025000Y-106912500I0J237500D01*
G01*
X126025000Y-106337500D01*
G75*
G02*
X126262500Y-106100000I237500J0D01*
G01*
G37*
%TD*%
D13*
%TO.C,SW5*%
X129250000Y-108250000D03*
D14*
X129250000Y-109950000D03*
X129250000Y-106550000D03*
%TD*%
%TO.C,C24*%
G36*
G01*
X147487500Y-95150000D02*
X147012500Y-95150000D01*
G75*
G02*
X146775000Y-94912500I0J237500D01*
G01*
X146775000Y-94337500D01*
G75*
G02*
X147012500Y-94100000I237500J0D01*
G01*
X147487500Y-94100000D01*
G75*
G02*
X147725000Y-94337500I0J-237500D01*
G01*
X147725000Y-94912500D01*
G75*
G02*
X147487500Y-95150000I-237500J0D01*
G01*
G37*
G36*
G01*
X147487500Y-96900000D02*
X147012500Y-96900000D01*
G75*
G02*
X146775000Y-96662500I0J237500D01*
G01*
X146775000Y-96087500D01*
G75*
G02*
X147012500Y-95850000I237500J0D01*
G01*
X147487500Y-95850000D01*
G75*
G02*
X147725000Y-96087500I0J-237500D01*
G01*
X147725000Y-96662500D01*
G75*
G02*
X147487500Y-96900000I-237500J0D01*
G01*
G37*
%TD*%
%TO.C,C21*%
G36*
G01*
X147512500Y-109475000D02*
X147987500Y-109475000D01*
G75*
G02*
X148225000Y-109712500I0J-237500D01*
G01*
X148225000Y-110287500D01*
G75*
G02*
X147987500Y-110525000I-237500J0D01*
G01*
X147512500Y-110525000D01*
G75*
G02*
X147275000Y-110287500I0J237500D01*
G01*
X147275000Y-109712500D01*
G75*
G02*
X147512500Y-109475000I237500J0D01*
G01*
G37*
G36*
G01*
X147512500Y-107725000D02*
X147987500Y-107725000D01*
G75*
G02*
X148225000Y-107962500I0J-237500D01*
G01*
X148225000Y-108537500D01*
G75*
G02*
X147987500Y-108775000I-237500J0D01*
G01*
X147512500Y-108775000D01*
G75*
G02*
X147275000Y-108537500I0J237500D01*
G01*
X147275000Y-107962500D01*
G75*
G02*
X147512500Y-107725000I237500J0D01*
G01*
G37*
%TD*%
%TO.C,C20*%
G36*
G01*
X149850000Y-101237500D02*
X149850000Y-100762500D01*
G75*
G02*
X150087500Y-100525000I237500J0D01*
G01*
X150662500Y-100525000D01*
G75*
G02*
X150900000Y-100762500I0J-237500D01*
G01*
X150900000Y-101237500D01*
G75*
G02*
X150662500Y-101475000I-237500J0D01*
G01*
X150087500Y-101475000D01*
G75*
G02*
X149850000Y-101237500I0J237500D01*
G01*
G37*
G36*
G01*
X148100000Y-101237500D02*
X148100000Y-100762500D01*
G75*
G02*
X148337500Y-100525000I237500J0D01*
G01*
X148912500Y-100525000D01*
G75*
G02*
X149150000Y-100762500I0J-237500D01*
G01*
X149150000Y-101237500D01*
G75*
G02*
X148912500Y-101475000I-237500J0D01*
G01*
X148337500Y-101475000D01*
G75*
G02*
X148100000Y-101237500I0J237500D01*
G01*
G37*
%TD*%
%TO.C,C10*%
G36*
G01*
X116012500Y-105800000D02*
X116487500Y-105800000D01*
G75*
G02*
X116725000Y-106037500I0J-237500D01*
G01*
X116725000Y-106612500D01*
G75*
G02*
X116487500Y-106850000I-237500J0D01*
G01*
X116012500Y-106850000D01*
G75*
G02*
X115775000Y-106612500I0J237500D01*
G01*
X115775000Y-106037500D01*
G75*
G02*
X116012500Y-105800000I237500J0D01*
G01*
G37*
G36*
G01*
X116012500Y-104050000D02*
X116487500Y-104050000D01*
G75*
G02*
X116725000Y-104287500I0J-237500D01*
G01*
X116725000Y-104862500D01*
G75*
G02*
X116487500Y-105100000I-237500J0D01*
G01*
X116012500Y-105100000D01*
G75*
G02*
X115775000Y-104862500I0J237500D01*
G01*
X115775000Y-104287500D01*
G75*
G02*
X116012500Y-104050000I237500J0D01*
G01*
G37*
%TD*%
%TO.C,C9*%
G36*
G01*
X162237500Y-95900000D02*
X161762500Y-95900000D01*
G75*
G02*
X161525000Y-95662500I0J237500D01*
G01*
X161525000Y-95087500D01*
G75*
G02*
X161762500Y-94850000I237500J0D01*
G01*
X162237500Y-94850000D01*
G75*
G02*
X162475000Y-95087500I0J-237500D01*
G01*
X162475000Y-95662500D01*
G75*
G02*
X162237500Y-95900000I-237500J0D01*
G01*
G37*
G36*
G01*
X162237500Y-94150000D02*
X161762500Y-94150000D01*
G75*
G02*
X161525000Y-93912500I0J237500D01*
G01*
X161525000Y-93337500D01*
G75*
G02*
X161762500Y-93100000I237500J0D01*
G01*
X162237500Y-93100000D01*
G75*
G02*
X162475000Y-93337500I0J-237500D01*
G01*
X162475000Y-93912500D01*
G75*
G02*
X162237500Y-94150000I-237500J0D01*
G01*
G37*
%TD*%
%TO.C,C6*%
G36*
G01*
X135275000Y-81012500D02*
X135275000Y-81487500D01*
G75*
G02*
X135037500Y-81725000I-237500J0D01*
G01*
X134462500Y-81725000D01*
G75*
G02*
X134225000Y-81487500I0J237500D01*
G01*
X134225000Y-81012500D01*
G75*
G02*
X134462500Y-80775000I237500J0D01*
G01*
X135037500Y-80775000D01*
G75*
G02*
X135275000Y-81012500I0J-237500D01*
G01*
G37*
G36*
G01*
X137025000Y-81012500D02*
X137025000Y-81487500D01*
G75*
G02*
X136787500Y-81725000I-237500J0D01*
G01*
X136212500Y-81725000D01*
G75*
G02*
X135975000Y-81487500I0J237500D01*
G01*
X135975000Y-81012500D01*
G75*
G02*
X136212500Y-80775000I237500J0D01*
G01*
X136787500Y-80775000D01*
G75*
G02*
X137025000Y-81012500I0J-237500D01*
G01*
G37*
%TD*%
D15*
%TO.C,R13*%
X159100000Y-94840000D03*
X159100000Y-92300000D03*
%TD*%
%TO.C,C23*%
G36*
G01*
X138762500Y-84850000D02*
X139237500Y-84850000D01*
G75*
G02*
X139475000Y-85087500I0J-237500D01*
G01*
X139475000Y-85662500D01*
G75*
G02*
X139237500Y-85900000I-237500J0D01*
G01*
X138762500Y-85900000D01*
G75*
G02*
X138525000Y-85662500I0J237500D01*
G01*
X138525000Y-85087500D01*
G75*
G02*
X138762500Y-84850000I237500J0D01*
G01*
G37*
G36*
G01*
X138762500Y-86600000D02*
X139237500Y-86600000D01*
G75*
G02*
X139475000Y-86837500I0J-237500D01*
G01*
X139475000Y-87412500D01*
G75*
G02*
X139237500Y-87650000I-237500J0D01*
G01*
X138762500Y-87650000D01*
G75*
G02*
X138525000Y-87412500I0J237500D01*
G01*
X138525000Y-86837500D01*
G75*
G02*
X138762500Y-86600000I237500J0D01*
G01*
G37*
%TD*%
D16*
%TO.C,Q2*%
X136500000Y-85250000D03*
X137450000Y-87250000D03*
X135550000Y-87250000D03*
%TD*%
%TO.C,C1*%
G36*
G01*
X135262500Y-90100000D02*
X135737500Y-90100000D01*
G75*
G02*
X135975000Y-90337500I0J-237500D01*
G01*
X135975000Y-90912500D01*
G75*
G02*
X135737500Y-91150000I-237500J0D01*
G01*
X135262500Y-91150000D01*
G75*
G02*
X135025000Y-90912500I0J237500D01*
G01*
X135025000Y-90337500D01*
G75*
G02*
X135262500Y-90100000I237500J0D01*
G01*
G37*
G36*
G01*
X135262500Y-88350000D02*
X135737500Y-88350000D01*
G75*
G02*
X135975000Y-88587500I0J-237500D01*
G01*
X135975000Y-89162500D01*
G75*
G02*
X135737500Y-89400000I-237500J0D01*
G01*
X135262500Y-89400000D01*
G75*
G02*
X135025000Y-89162500I0J237500D01*
G01*
X135025000Y-88587500D01*
G75*
G02*
X135262500Y-88350000I237500J0D01*
G01*
G37*
%TD*%
%TO.C,R8*%
G36*
G01*
X137012500Y-90100000D02*
X137487500Y-90100000D01*
G75*
G02*
X137725000Y-90337500I0J-237500D01*
G01*
X137725000Y-90912500D01*
G75*
G02*
X137487500Y-91150000I-237500J0D01*
G01*
X137012500Y-91150000D01*
G75*
G02*
X136775000Y-90912500I0J237500D01*
G01*
X136775000Y-90337500D01*
G75*
G02*
X137012500Y-90100000I237500J0D01*
G01*
G37*
G36*
G01*
X137012500Y-88350000D02*
X137487500Y-88350000D01*
G75*
G02*
X137725000Y-88587500I0J-237500D01*
G01*
X137725000Y-89162500D01*
G75*
G02*
X137487500Y-89400000I-237500J0D01*
G01*
X137012500Y-89400000D01*
G75*
G02*
X136775000Y-89162500I0J237500D01*
G01*
X136775000Y-88587500D01*
G75*
G02*
X137012500Y-88350000I237500J0D01*
G01*
G37*
%TD*%
D17*
%TO.C,SW1*%
X121900000Y-122450000D03*
X117400000Y-122450000D03*
D18*
X123150000Y-119950000D03*
X116150000Y-119950000D03*
%TD*%
%TO.C,SW2*%
X129050000Y-119950000D03*
X136050000Y-119950000D03*
D17*
X130300000Y-122450000D03*
X134800000Y-122450000D03*
%TD*%
%TO.C,SW3*%
X147700000Y-122450000D03*
X143200000Y-122450000D03*
D18*
X148950000Y-119950000D03*
X141950000Y-119950000D03*
%TD*%
%TO.C,SW4*%
X154850000Y-119950000D03*
X161850000Y-119950000D03*
D17*
X156100000Y-122450000D03*
X160600000Y-122450000D03*
%TD*%
%TO.C,R21*%
G36*
G01*
X144850000Y-98487500D02*
X144850000Y-98012500D01*
G75*
G02*
X145087500Y-97775000I237500J0D01*
G01*
X145662500Y-97775000D01*
G75*
G02*
X145900000Y-98012500I0J-237500D01*
G01*
X145900000Y-98487500D01*
G75*
G02*
X145662500Y-98725000I-237500J0D01*
G01*
X145087500Y-98725000D01*
G75*
G02*
X144850000Y-98487500I0J237500D01*
G01*
G37*
G36*
G01*
X146600000Y-98487500D02*
X146600000Y-98012500D01*
G75*
G02*
X146837500Y-97775000I237500J0D01*
G01*
X147412500Y-97775000D01*
G75*
G02*
X147650000Y-98012500I0J-237500D01*
G01*
X147650000Y-98487500D01*
G75*
G02*
X147412500Y-98725000I-237500J0D01*
G01*
X146837500Y-98725000D01*
G75*
G02*
X146600000Y-98487500I0J237500D01*
G01*
G37*
%TD*%
%TO.C,U3*%
G36*
G01*
X145255000Y-90300000D02*
X145555000Y-90300000D01*
G75*
G02*
X145705000Y-90450000I0J-150000D01*
G01*
X145705000Y-92100000D01*
G75*
G02*
X145555000Y-92250000I-150000J0D01*
G01*
X145255000Y-92250000D01*
G75*
G02*
X145105000Y-92100000I0J150000D01*
G01*
X145105000Y-90450000D01*
G75*
G02*
X145255000Y-90300000I150000J0D01*
G01*
G37*
G36*
G01*
X143985000Y-90300000D02*
X144285000Y-90300000D01*
G75*
G02*
X144435000Y-90450000I0J-150000D01*
G01*
X144435000Y-92100000D01*
G75*
G02*
X144285000Y-92250000I-150000J0D01*
G01*
X143985000Y-92250000D01*
G75*
G02*
X143835000Y-92100000I0J150000D01*
G01*
X143835000Y-90450000D01*
G75*
G02*
X143985000Y-90300000I150000J0D01*
G01*
G37*
G36*
G01*
X142715000Y-90300000D02*
X143015000Y-90300000D01*
G75*
G02*
X143165000Y-90450000I0J-150000D01*
G01*
X143165000Y-92100000D01*
G75*
G02*
X143015000Y-92250000I-150000J0D01*
G01*
X142715000Y-92250000D01*
G75*
G02*
X142565000Y-92100000I0J150000D01*
G01*
X142565000Y-90450000D01*
G75*
G02*
X142715000Y-90300000I150000J0D01*
G01*
G37*
G36*
G01*
X141445000Y-90300000D02*
X141745000Y-90300000D01*
G75*
G02*
X141895000Y-90450000I0J-150000D01*
G01*
X141895000Y-92100000D01*
G75*
G02*
X141745000Y-92250000I-150000J0D01*
G01*
X141445000Y-92250000D01*
G75*
G02*
X141295000Y-92100000I0J150000D01*
G01*
X141295000Y-90450000D01*
G75*
G02*
X141445000Y-90300000I150000J0D01*
G01*
G37*
G36*
G01*
X141445000Y-95250000D02*
X141745000Y-95250000D01*
G75*
G02*
X141895000Y-95400000I0J-150000D01*
G01*
X141895000Y-97050000D01*
G75*
G02*
X141745000Y-97200000I-150000J0D01*
G01*
X141445000Y-97200000D01*
G75*
G02*
X141295000Y-97050000I0J150000D01*
G01*
X141295000Y-95400000D01*
G75*
G02*
X141445000Y-95250000I150000J0D01*
G01*
G37*
G36*
G01*
X142715000Y-95250000D02*
X143015000Y-95250000D01*
G75*
G02*
X143165000Y-95400000I0J-150000D01*
G01*
X143165000Y-97050000D01*
G75*
G02*
X143015000Y-97200000I-150000J0D01*
G01*
X142715000Y-97200000D01*
G75*
G02*
X142565000Y-97050000I0J150000D01*
G01*
X142565000Y-95400000D01*
G75*
G02*
X142715000Y-95250000I150000J0D01*
G01*
G37*
G36*
G01*
X143985000Y-95250000D02*
X144285000Y-95250000D01*
G75*
G02*
X144435000Y-95400000I0J-150000D01*
G01*
X144435000Y-97050000D01*
G75*
G02*
X144285000Y-97200000I-150000J0D01*
G01*
X143985000Y-97200000D01*
G75*
G02*
X143835000Y-97050000I0J150000D01*
G01*
X143835000Y-95400000D01*
G75*
G02*
X143985000Y-95250000I150000J0D01*
G01*
G37*
G36*
G01*
X145255000Y-95250000D02*
X145555000Y-95250000D01*
G75*
G02*
X145705000Y-95400000I0J-150000D01*
G01*
X145705000Y-97050000D01*
G75*
G02*
X145555000Y-97200000I-150000J0D01*
G01*
X145255000Y-97200000D01*
G75*
G02*
X145105000Y-97050000I0J150000D01*
G01*
X145105000Y-95400000D01*
G75*
G02*
X145255000Y-95250000I150000J0D01*
G01*
G37*
%TD*%
D12*
%TO.C,J2*%
X162750000Y-100470000D03*
X162750000Y-101740000D03*
G36*
G01*
X162349900Y-98675000D02*
X163150100Y-98675000D01*
G75*
G02*
X163400000Y-98924900I0J-249900D01*
G01*
X163400000Y-99475100D01*
G75*
G02*
X163150100Y-99725000I-249900J0D01*
G01*
X162349900Y-99725000D01*
G75*
G02*
X162100000Y-99475100I0J249900D01*
G01*
X162100000Y-98924900D01*
G75*
G02*
X162349900Y-98675000I249900J0D01*
G01*
G37*
%TD*%
D19*
%TO.C,J5*%
X146175000Y-85750000D03*
X148175000Y-85750000D03*
X150175000Y-85750000D03*
X152175000Y-85750000D03*
G36*
G01*
X154775000Y-85124999D02*
X154775000Y-86375001D01*
G75*
G02*
X154525001Y-86625000I-249999J0D01*
G01*
X153824999Y-86625000D01*
G75*
G02*
X153575000Y-86375001I0J249999D01*
G01*
X153575000Y-85124999D01*
G75*
G02*
X153824999Y-84875000I249999J0D01*
G01*
X154525001Y-84875000D01*
G75*
G02*
X154775000Y-85124999I0J-249999D01*
G01*
G37*
%TD*%
D20*
%TO.C,REF\u002A\u002A*%
X161000000Y-112000000D03*
%TD*%
%TO.C,REF\u002A\u002A*%
X117000000Y-112000000D03*
%TD*%
%TO.C,REF\u002A\u002A*%
X117000000Y-87500000D03*
%TD*%
%TO.C,REF\u002A\u002A*%
X161000000Y-87500000D03*
%TD*%
D21*
%TO.C,D6*%
X157160000Y-79000000D03*
D22*
X159700000Y-79000000D03*
%TD*%
D21*
%TO.C,D5*%
X149360000Y-79000000D03*
D22*
X151900000Y-79000000D03*
%TD*%
D21*
%TO.C,D4*%
X141750000Y-79000000D03*
D22*
X144290000Y-79000000D03*
%TD*%
D21*
%TO.C,D3*%
X133960000Y-79000000D03*
D22*
X136500000Y-79000000D03*
%TD*%
D21*
%TO.C,D2*%
X126150000Y-79000000D03*
D22*
X128690000Y-79000000D03*
%TD*%
D21*
%TO.C,D1*%
X118360000Y-79000000D03*
D22*
X120900000Y-79000000D03*
%TD*%
%TO.C,C2*%
G36*
G01*
X136450001Y-98275000D02*
X135549999Y-98275000D01*
G75*
G02*
X135300000Y-98025001I0J249999D01*
G01*
X135300000Y-97374999D01*
G75*
G02*
X135549999Y-97125000I249999J0D01*
G01*
X136450001Y-97125000D01*
G75*
G02*
X136700000Y-97374999I0J-249999D01*
G01*
X136700000Y-98025001D01*
G75*
G02*
X136450001Y-98275000I-249999J0D01*
G01*
G37*
G36*
G01*
X136450001Y-100325000D02*
X135549999Y-100325000D01*
G75*
G02*
X135300000Y-100075001I0J249999D01*
G01*
X135300000Y-99424999D01*
G75*
G02*
X135549999Y-99175000I249999J0D01*
G01*
X136450001Y-99175000D01*
G75*
G02*
X136700000Y-99424999I0J-249999D01*
G01*
X136700000Y-100075001D01*
G75*
G02*
X136450001Y-100325000I-249999J0D01*
G01*
G37*
%TD*%
D19*
%TO.C,J6*%
X155500000Y-115000000D03*
X153500000Y-115000000D03*
X151500000Y-115000000D03*
G36*
G01*
X148900000Y-115625001D02*
X148900000Y-114374999D01*
G75*
G02*
X149149999Y-114125000I249999J0D01*
G01*
X149850001Y-114125000D01*
G75*
G02*
X150100000Y-114374999I0J-249999D01*
G01*
X150100000Y-115625001D01*
G75*
G02*
X149850001Y-115875000I-249999J0D01*
G01*
X149149999Y-115875000D01*
G75*
G02*
X148900000Y-115625001I0J249999D01*
G01*
G37*
%TD*%
%TO.C,C18*%
G36*
G01*
X145600000Y-110237500D02*
X145600000Y-109762500D01*
G75*
G02*
X145837500Y-109525000I237500J0D01*
G01*
X146412500Y-109525000D01*
G75*
G02*
X146650000Y-109762500I0J-237500D01*
G01*
X146650000Y-110237500D01*
G75*
G02*
X146412500Y-110475000I-237500J0D01*
G01*
X145837500Y-110475000D01*
G75*
G02*
X145600000Y-110237500I0J237500D01*
G01*
G37*
G36*
G01*
X143850000Y-110237500D02*
X143850000Y-109762500D01*
G75*
G02*
X144087500Y-109525000I237500J0D01*
G01*
X144662500Y-109525000D01*
G75*
G02*
X144900000Y-109762500I0J-237500D01*
G01*
X144900000Y-110237500D01*
G75*
G02*
X144662500Y-110475000I-237500J0D01*
G01*
X144087500Y-110475000D01*
G75*
G02*
X143850000Y-110237500I0J237500D01*
G01*
G37*
%TD*%
%TO.C,C19*%
G36*
G01*
X138737500Y-98025000D02*
X138262500Y-98025000D01*
G75*
G02*
X138025000Y-97787500I0J237500D01*
G01*
X138025000Y-97212500D01*
G75*
G02*
X138262500Y-96975000I237500J0D01*
G01*
X138737500Y-96975000D01*
G75*
G02*
X138975000Y-97212500I0J-237500D01*
G01*
X138975000Y-97787500D01*
G75*
G02*
X138737500Y-98025000I-237500J0D01*
G01*
G37*
G36*
G01*
X138737500Y-99775000D02*
X138262500Y-99775000D01*
G75*
G02*
X138025000Y-99537500I0J237500D01*
G01*
X138025000Y-98962500D01*
G75*
G02*
X138262500Y-98725000I237500J0D01*
G01*
X138737500Y-98725000D01*
G75*
G02*
X138975000Y-98962500I0J-237500D01*
G01*
X138975000Y-99537500D01*
G75*
G02*
X138737500Y-99775000I-237500J0D01*
G01*
G37*
%TD*%
D23*
%TO.C,C22*%
X130250000Y-92675000D03*
D24*
X130250000Y-102825000D03*
%TD*%
%TO.C,D10*%
G36*
G01*
X135987500Y-95525000D02*
X135512500Y-95525000D01*
G75*
G02*
X135275000Y-95287500I0J237500D01*
G01*
X135275000Y-94712500D01*
G75*
G02*
X135512500Y-94475000I237500J0D01*
G01*
X135987500Y-94475000D01*
G75*
G02*
X136225000Y-94712500I0J-237500D01*
G01*
X136225000Y-95287500D01*
G75*
G02*
X135987500Y-95525000I-237500J0D01*
G01*
G37*
G36*
G01*
X135987500Y-93775000D02*
X135512500Y-93775000D01*
G75*
G02*
X135275000Y-93537500I0J237500D01*
G01*
X135275000Y-92962500D01*
G75*
G02*
X135512500Y-92725000I237500J0D01*
G01*
X135987500Y-92725000D01*
G75*
G02*
X136225000Y-92962500I0J-237500D01*
G01*
X136225000Y-93537500D01*
G75*
G02*
X135987500Y-93775000I-237500J0D01*
G01*
G37*
%TD*%
%TO.C,J3*%
G36*
G01*
X130900000Y-115625001D02*
X130900000Y-114374999D01*
G75*
G02*
X131149999Y-114125000I249999J0D01*
G01*
X131850001Y-114125000D01*
G75*
G02*
X132100000Y-114374999I0J-249999D01*
G01*
X132100000Y-115625001D01*
G75*
G02*
X131850001Y-115875000I-249999J0D01*
G01*
X131149999Y-115875000D01*
G75*
G02*
X130900000Y-115625001I0J249999D01*
G01*
G37*
D19*
X133500000Y-115000000D03*
X135500000Y-115000000D03*
X137500000Y-115000000D03*
X139500000Y-115000000D03*
X141500000Y-115000000D03*
X143500000Y-115000000D03*
%TD*%
D25*
%TO.C,JP1*%
G36*
X120250000Y-105725000D02*
G01*
X119500000Y-105225000D01*
X119500000Y-104225000D01*
X121000000Y-104225000D01*
X121000000Y-105225000D01*
X120250000Y-105725000D01*
G37*
G36*
X119500000Y-106675000D02*
G01*
X119500000Y-105525000D01*
X120250000Y-106025000D01*
X121000000Y-105525000D01*
X121000000Y-106675000D01*
X119500000Y-106675000D01*
G37*
%TD*%
%TO.C,JP2*%
G36*
X159500000Y-103675000D02*
G01*
X159500000Y-102525000D01*
X160250000Y-103025000D01*
X161000000Y-102525000D01*
X161000000Y-103675000D01*
X159500000Y-103675000D01*
G37*
G36*
X160250000Y-102725000D02*
G01*
X159500000Y-102225000D01*
X159500000Y-101225000D01*
X161000000Y-101225000D01*
X161000000Y-102225000D01*
X160250000Y-102725000D01*
G37*
%TD*%
D16*
%TO.C,Q1*%
X140800000Y-85250000D03*
X142700000Y-85250000D03*
X141750000Y-83250000D03*
%TD*%
%TO.C,R1*%
G36*
G01*
X129975000Y-81487500D02*
X129975000Y-81012500D01*
G75*
G02*
X130212500Y-80775000I237500J0D01*
G01*
X130787500Y-80775000D01*
G75*
G02*
X131025000Y-81012500I0J-237500D01*
G01*
X131025000Y-81487500D01*
G75*
G02*
X130787500Y-81725000I-237500J0D01*
G01*
X130212500Y-81725000D01*
G75*
G02*
X129975000Y-81487500I0J237500D01*
G01*
G37*
G36*
G01*
X128225000Y-81487500D02*
X128225000Y-81012500D01*
G75*
G02*
X128462500Y-80775000I237500J0D01*
G01*
X129037500Y-80775000D01*
G75*
G02*
X129275000Y-81012500I0J-237500D01*
G01*
X129275000Y-81487500D01*
G75*
G02*
X129037500Y-81725000I-237500J0D01*
G01*
X128462500Y-81725000D01*
G75*
G02*
X128225000Y-81487500I0J237500D01*
G01*
G37*
%TD*%
%TO.C,R2*%
G36*
G01*
X142100000Y-87537500D02*
X142100000Y-87062500D01*
G75*
G02*
X142337500Y-86825000I237500J0D01*
G01*
X142912500Y-86825000D01*
G75*
G02*
X143150000Y-87062500I0J-237500D01*
G01*
X143150000Y-87537500D01*
G75*
G02*
X142912500Y-87775000I-237500J0D01*
G01*
X142337500Y-87775000D01*
G75*
G02*
X142100000Y-87537500I0J237500D01*
G01*
G37*
G36*
G01*
X140350000Y-87537500D02*
X140350000Y-87062500D01*
G75*
G02*
X140587500Y-86825000I237500J0D01*
G01*
X141162500Y-86825000D01*
G75*
G02*
X141400000Y-87062500I0J-237500D01*
G01*
X141400000Y-87537500D01*
G75*
G02*
X141162500Y-87775000I-237500J0D01*
G01*
X140587500Y-87775000D01*
G75*
G02*
X140350000Y-87537500I0J237500D01*
G01*
G37*
%TD*%
%TO.C,R3*%
G36*
G01*
X121237500Y-120650000D02*
X120762500Y-120650000D01*
G75*
G02*
X120525000Y-120412500I0J237500D01*
G01*
X120525000Y-119837500D01*
G75*
G02*
X120762500Y-119600000I237500J0D01*
G01*
X121237500Y-119600000D01*
G75*
G02*
X121475000Y-119837500I0J-237500D01*
G01*
X121475000Y-120412500D01*
G75*
G02*
X121237500Y-120650000I-237500J0D01*
G01*
G37*
G36*
G01*
X121237500Y-118900000D02*
X120762500Y-118900000D01*
G75*
G02*
X120525000Y-118662500I0J237500D01*
G01*
X120525000Y-118087500D01*
G75*
G02*
X120762500Y-117850000I237500J0D01*
G01*
X121237500Y-117850000D01*
G75*
G02*
X121475000Y-118087500I0J-237500D01*
G01*
X121475000Y-118662500D01*
G75*
G02*
X121237500Y-118900000I-237500J0D01*
G01*
G37*
%TD*%
%TO.C,R4*%
G36*
G01*
X143725000Y-81487500D02*
X143725000Y-81012500D01*
G75*
G02*
X143962500Y-80775000I237500J0D01*
G01*
X144537500Y-80775000D01*
G75*
G02*
X144775000Y-81012500I0J-237500D01*
G01*
X144775000Y-81487500D01*
G75*
G02*
X144537500Y-81725000I-237500J0D01*
G01*
X143962500Y-81725000D01*
G75*
G02*
X143725000Y-81487500I0J237500D01*
G01*
G37*
G36*
G01*
X145475000Y-81487500D02*
X145475000Y-81012500D01*
G75*
G02*
X145712500Y-80775000I237500J0D01*
G01*
X146287500Y-80775000D01*
G75*
G02*
X146525000Y-81012500I0J-237500D01*
G01*
X146525000Y-81487500D01*
G75*
G02*
X146287500Y-81725000I-237500J0D01*
G01*
X145712500Y-81725000D01*
G75*
G02*
X145475000Y-81487500I0J237500D01*
G01*
G37*
%TD*%
%TO.C,R5*%
G36*
G01*
X138487500Y-121650000D02*
X138012500Y-121650000D01*
G75*
G02*
X137775000Y-121412500I0J237500D01*
G01*
X137775000Y-120837500D01*
G75*
G02*
X138012500Y-120600000I237500J0D01*
G01*
X138487500Y-120600000D01*
G75*
G02*
X138725000Y-120837500I0J-237500D01*
G01*
X138725000Y-121412500D01*
G75*
G02*
X138487500Y-121650000I-237500J0D01*
G01*
G37*
G36*
G01*
X138487500Y-119900000D02*
X138012500Y-119900000D01*
G75*
G02*
X137775000Y-119662500I0J237500D01*
G01*
X137775000Y-119087500D01*
G75*
G02*
X138012500Y-118850000I237500J0D01*
G01*
X138487500Y-118850000D01*
G75*
G02*
X138725000Y-119087500I0J-237500D01*
G01*
X138725000Y-119662500D01*
G75*
G02*
X138487500Y-119900000I-237500J0D01*
G01*
G37*
%TD*%
%TO.C,R6*%
G36*
G01*
X158275000Y-81012500D02*
X158275000Y-81487500D01*
G75*
G02*
X158037500Y-81725000I-237500J0D01*
G01*
X157462500Y-81725000D01*
G75*
G02*
X157225000Y-81487500I0J237500D01*
G01*
X157225000Y-81012500D01*
G75*
G02*
X157462500Y-80775000I237500J0D01*
G01*
X158037500Y-80775000D01*
G75*
G02*
X158275000Y-81012500I0J-237500D01*
G01*
G37*
G36*
G01*
X160025000Y-81012500D02*
X160025000Y-81487500D01*
G75*
G02*
X159787500Y-81725000I-237500J0D01*
G01*
X159212500Y-81725000D01*
G75*
G02*
X158975000Y-81487500I0J237500D01*
G01*
X158975000Y-81012500D01*
G75*
G02*
X159212500Y-80775000I237500J0D01*
G01*
X159787500Y-80775000D01*
G75*
G02*
X160025000Y-81012500I0J-237500D01*
G01*
G37*
%TD*%
%TO.C,R7*%
G36*
G01*
X145025000Y-119762500D02*
X145025000Y-120237500D01*
G75*
G02*
X144787500Y-120475000I-237500J0D01*
G01*
X144212500Y-120475000D01*
G75*
G02*
X143975000Y-120237500I0J237500D01*
G01*
X143975000Y-119762500D01*
G75*
G02*
X144212500Y-119525000I237500J0D01*
G01*
X144787500Y-119525000D01*
G75*
G02*
X145025000Y-119762500I0J-237500D01*
G01*
G37*
G36*
G01*
X146775000Y-119762500D02*
X146775000Y-120237500D01*
G75*
G02*
X146537500Y-120475000I-237500J0D01*
G01*
X145962500Y-120475000D01*
G75*
G02*
X145725000Y-120237500I0J237500D01*
G01*
X145725000Y-119762500D01*
G75*
G02*
X145962500Y-119525000I237500J0D01*
G01*
X146537500Y-119525000D01*
G75*
G02*
X146775000Y-119762500I0J-237500D01*
G01*
G37*
%TD*%
%TO.C,R9*%
G36*
G01*
X159775000Y-119712500D02*
X159775000Y-120187500D01*
G75*
G02*
X159537500Y-120425000I-237500J0D01*
G01*
X158962500Y-120425000D01*
G75*
G02*
X158725000Y-120187500I0J237500D01*
G01*
X158725000Y-119712500D01*
G75*
G02*
X158962500Y-119475000I237500J0D01*
G01*
X159537500Y-119475000D01*
G75*
G02*
X159775000Y-119712500I0J-237500D01*
G01*
G37*
G36*
G01*
X158025000Y-119712500D02*
X158025000Y-120187500D01*
G75*
G02*
X157787500Y-120425000I-237500J0D01*
G01*
X157212500Y-120425000D01*
G75*
G02*
X156975000Y-120187500I0J237500D01*
G01*
X156975000Y-119712500D01*
G75*
G02*
X157212500Y-119475000I237500J0D01*
G01*
X157787500Y-119475000D01*
G75*
G02*
X158025000Y-119712500I0J-237500D01*
G01*
G37*
%TD*%
%TO.C,R12*%
G36*
G01*
X159650000Y-96512500D02*
X159650000Y-96987500D01*
G75*
G02*
X159412500Y-97225000I-237500J0D01*
G01*
X158837500Y-97225000D01*
G75*
G02*
X158600000Y-96987500I0J237500D01*
G01*
X158600000Y-96512500D01*
G75*
G02*
X158837500Y-96275000I237500J0D01*
G01*
X159412500Y-96275000D01*
G75*
G02*
X159650000Y-96512500I0J-237500D01*
G01*
G37*
G36*
G01*
X157900000Y-96512500D02*
X157900000Y-96987500D01*
G75*
G02*
X157662500Y-97225000I-237500J0D01*
G01*
X157087500Y-97225000D01*
G75*
G02*
X156850000Y-96987500I0J237500D01*
G01*
X156850000Y-96512500D01*
G75*
G02*
X157087500Y-96275000I237500J0D01*
G01*
X157662500Y-96275000D01*
G75*
G02*
X157900000Y-96512500I0J-237500D01*
G01*
G37*
%TD*%
%TO.C,R14*%
G36*
G01*
X157487500Y-93650000D02*
X157012500Y-93650000D01*
G75*
G02*
X156775000Y-93412500I0J237500D01*
G01*
X156775000Y-92837500D01*
G75*
G02*
X157012500Y-92600000I237500J0D01*
G01*
X157487500Y-92600000D01*
G75*
G02*
X157725000Y-92837500I0J-237500D01*
G01*
X157725000Y-93412500D01*
G75*
G02*
X157487500Y-93650000I-237500J0D01*
G01*
G37*
G36*
G01*
X157487500Y-95400000D02*
X157012500Y-95400000D01*
G75*
G02*
X156775000Y-95162500I0J237500D01*
G01*
X156775000Y-94587500D01*
G75*
G02*
X157012500Y-94350000I237500J0D01*
G01*
X157487500Y-94350000D01*
G75*
G02*
X157725000Y-94587500I0J-237500D01*
G01*
X157725000Y-95162500D01*
G75*
G02*
X157487500Y-95400000I-237500J0D01*
G01*
G37*
%TD*%
%TO.C,R17*%
G36*
G01*
X117762500Y-104050000D02*
X118237500Y-104050000D01*
G75*
G02*
X118475000Y-104287500I0J-237500D01*
G01*
X118475000Y-104862500D01*
G75*
G02*
X118237500Y-105100000I-237500J0D01*
G01*
X117762500Y-105100000D01*
G75*
G02*
X117525000Y-104862500I0J237500D01*
G01*
X117525000Y-104287500D01*
G75*
G02*
X117762500Y-104050000I237500J0D01*
G01*
G37*
G36*
G01*
X117762500Y-105800000D02*
X118237500Y-105800000D01*
G75*
G02*
X118475000Y-106037500I0J-237500D01*
G01*
X118475000Y-106612500D01*
G75*
G02*
X118237500Y-106850000I-237500J0D01*
G01*
X117762500Y-106850000D01*
G75*
G02*
X117525000Y-106612500I0J237500D01*
G01*
X117525000Y-106037500D01*
G75*
G02*
X117762500Y-105800000I237500J0D01*
G01*
G37*
%TD*%
%TO.C,R18*%
G36*
G01*
X157762500Y-102800000D02*
X158237500Y-102800000D01*
G75*
G02*
X158475000Y-103037500I0J-237500D01*
G01*
X158475000Y-103612500D01*
G75*
G02*
X158237500Y-103850000I-237500J0D01*
G01*
X157762500Y-103850000D01*
G75*
G02*
X157525000Y-103612500I0J237500D01*
G01*
X157525000Y-103037500D01*
G75*
G02*
X157762500Y-102800000I237500J0D01*
G01*
G37*
G36*
G01*
X157762500Y-101050000D02*
X158237500Y-101050000D01*
G75*
G02*
X158475000Y-101287500I0J-237500D01*
G01*
X158475000Y-101862500D01*
G75*
G02*
X158237500Y-102100000I-237500J0D01*
G01*
X157762500Y-102100000D01*
G75*
G02*
X157525000Y-101862500I0J237500D01*
G01*
X157525000Y-101287500D01*
G75*
G02*
X157762500Y-101050000I237500J0D01*
G01*
G37*
%TD*%
%TO.C,R22*%
G36*
G01*
X142600000Y-89237500D02*
X142600000Y-88762500D01*
G75*
G02*
X142837500Y-88525000I237500J0D01*
G01*
X143412500Y-88525000D01*
G75*
G02*
X143650000Y-88762500I0J-237500D01*
G01*
X143650000Y-89237500D01*
G75*
G02*
X143412500Y-89475000I-237500J0D01*
G01*
X142837500Y-89475000D01*
G75*
G02*
X142600000Y-89237500I0J237500D01*
G01*
G37*
G36*
G01*
X144350000Y-89237500D02*
X144350000Y-88762500D01*
G75*
G02*
X144587500Y-88525000I237500J0D01*
G01*
X145162500Y-88525000D01*
G75*
G02*
X145400000Y-88762500I0J-237500D01*
G01*
X145400000Y-89237500D01*
G75*
G02*
X145162500Y-89475000I-237500J0D01*
G01*
X144587500Y-89475000D01*
G75*
G02*
X144350000Y-89237500I0J237500D01*
G01*
G37*
%TD*%
%TO.C,U2*%
G36*
G01*
X138875000Y-101812500D02*
X138875000Y-101687500D01*
G75*
G02*
X138937500Y-101625000I62500J0D01*
G01*
X139687500Y-101625000D01*
G75*
G02*
X139750000Y-101687500I0J-62500D01*
G01*
X139750000Y-101812500D01*
G75*
G02*
X139687500Y-101875000I-62500J0D01*
G01*
X138937500Y-101875000D01*
G75*
G02*
X138875000Y-101812500I0J62500D01*
G01*
G37*
G36*
G01*
X138875000Y-102312500D02*
X138875000Y-102187500D01*
G75*
G02*
X138937500Y-102125000I62500J0D01*
G01*
X139687500Y-102125000D01*
G75*
G02*
X139750000Y-102187500I0J-62500D01*
G01*
X139750000Y-102312500D01*
G75*
G02*
X139687500Y-102375000I-62500J0D01*
G01*
X138937500Y-102375000D01*
G75*
G02*
X138875000Y-102312500I0J62500D01*
G01*
G37*
G36*
G01*
X138875000Y-102812500D02*
X138875000Y-102687500D01*
G75*
G02*
X138937500Y-102625000I62500J0D01*
G01*
X139687500Y-102625000D01*
G75*
G02*
X139750000Y-102687500I0J-62500D01*
G01*
X139750000Y-102812500D01*
G75*
G02*
X139687500Y-102875000I-62500J0D01*
G01*
X138937500Y-102875000D01*
G75*
G02*
X138875000Y-102812500I0J62500D01*
G01*
G37*
G36*
G01*
X138875000Y-103312500D02*
X138875000Y-103187500D01*
G75*
G02*
X138937500Y-103125000I62500J0D01*
G01*
X139687500Y-103125000D01*
G75*
G02*
X139750000Y-103187500I0J-62500D01*
G01*
X139750000Y-103312500D01*
G75*
G02*
X139687500Y-103375000I-62500J0D01*
G01*
X138937500Y-103375000D01*
G75*
G02*
X138875000Y-103312500I0J62500D01*
G01*
G37*
G36*
G01*
X138875000Y-103812500D02*
X138875000Y-103687500D01*
G75*
G02*
X138937500Y-103625000I62500J0D01*
G01*
X139687500Y-103625000D01*
G75*
G02*
X139750000Y-103687500I0J-62500D01*
G01*
X139750000Y-103812500D01*
G75*
G02*
X139687500Y-103875000I-62500J0D01*
G01*
X138937500Y-103875000D01*
G75*
G02*
X138875000Y-103812500I0J62500D01*
G01*
G37*
G36*
G01*
X138875000Y-104312500D02*
X138875000Y-104187500D01*
G75*
G02*
X138937500Y-104125000I62500J0D01*
G01*
X139687500Y-104125000D01*
G75*
G02*
X139750000Y-104187500I0J-62500D01*
G01*
X139750000Y-104312500D01*
G75*
G02*
X139687500Y-104375000I-62500J0D01*
G01*
X138937500Y-104375000D01*
G75*
G02*
X138875000Y-104312500I0J62500D01*
G01*
G37*
G36*
G01*
X138875000Y-104812500D02*
X138875000Y-104687500D01*
G75*
G02*
X138937500Y-104625000I62500J0D01*
G01*
X139687500Y-104625000D01*
G75*
G02*
X139750000Y-104687500I0J-62500D01*
G01*
X139750000Y-104812500D01*
G75*
G02*
X139687500Y-104875000I-62500J0D01*
G01*
X138937500Y-104875000D01*
G75*
G02*
X138875000Y-104812500I0J62500D01*
G01*
G37*
G36*
G01*
X138875000Y-105312500D02*
X138875000Y-105187500D01*
G75*
G02*
X138937500Y-105125000I62500J0D01*
G01*
X139687500Y-105125000D01*
G75*
G02*
X139750000Y-105187500I0J-62500D01*
G01*
X139750000Y-105312500D01*
G75*
G02*
X139687500Y-105375000I-62500J0D01*
G01*
X138937500Y-105375000D01*
G75*
G02*
X138875000Y-105312500I0J62500D01*
G01*
G37*
G36*
G01*
X138875000Y-105812500D02*
X138875000Y-105687500D01*
G75*
G02*
X138937500Y-105625000I62500J0D01*
G01*
X139687500Y-105625000D01*
G75*
G02*
X139750000Y-105687500I0J-62500D01*
G01*
X139750000Y-105812500D01*
G75*
G02*
X139687500Y-105875000I-62500J0D01*
G01*
X138937500Y-105875000D01*
G75*
G02*
X138875000Y-105812500I0J62500D01*
G01*
G37*
G36*
G01*
X138875000Y-106312500D02*
X138875000Y-106187500D01*
G75*
G02*
X138937500Y-106125000I62500J0D01*
G01*
X139687500Y-106125000D01*
G75*
G02*
X139750000Y-106187500I0J-62500D01*
G01*
X139750000Y-106312500D01*
G75*
G02*
X139687500Y-106375000I-62500J0D01*
G01*
X138937500Y-106375000D01*
G75*
G02*
X138875000Y-106312500I0J62500D01*
G01*
G37*
G36*
G01*
X138875000Y-106812500D02*
X138875000Y-106687500D01*
G75*
G02*
X138937500Y-106625000I62500J0D01*
G01*
X139687500Y-106625000D01*
G75*
G02*
X139750000Y-106687500I0J-62500D01*
G01*
X139750000Y-106812500D01*
G75*
G02*
X139687500Y-106875000I-62500J0D01*
G01*
X138937500Y-106875000D01*
G75*
G02*
X138875000Y-106812500I0J62500D01*
G01*
G37*
G36*
G01*
X138875000Y-107312500D02*
X138875000Y-107187500D01*
G75*
G02*
X138937500Y-107125000I62500J0D01*
G01*
X139687500Y-107125000D01*
G75*
G02*
X139750000Y-107187500I0J-62500D01*
G01*
X139750000Y-107312500D01*
G75*
G02*
X139687500Y-107375000I-62500J0D01*
G01*
X138937500Y-107375000D01*
G75*
G02*
X138875000Y-107312500I0J62500D01*
G01*
G37*
G36*
G01*
X139875000Y-108312500D02*
X139875000Y-107562500D01*
G75*
G02*
X139937500Y-107500000I62500J0D01*
G01*
X140062500Y-107500000D01*
G75*
G02*
X140125000Y-107562500I0J-62500D01*
G01*
X140125000Y-108312500D01*
G75*
G02*
X140062500Y-108375000I-62500J0D01*
G01*
X139937500Y-108375000D01*
G75*
G02*
X139875000Y-108312500I0J62500D01*
G01*
G37*
G36*
G01*
X140375000Y-108312500D02*
X140375000Y-107562500D01*
G75*
G02*
X140437500Y-107500000I62500J0D01*
G01*
X140562500Y-107500000D01*
G75*
G02*
X140625000Y-107562500I0J-62500D01*
G01*
X140625000Y-108312500D01*
G75*
G02*
X140562500Y-108375000I-62500J0D01*
G01*
X140437500Y-108375000D01*
G75*
G02*
X140375000Y-108312500I0J62500D01*
G01*
G37*
G36*
G01*
X140875000Y-108312500D02*
X140875000Y-107562500D01*
G75*
G02*
X140937500Y-107500000I62500J0D01*
G01*
X141062500Y-107500000D01*
G75*
G02*
X141125000Y-107562500I0J-62500D01*
G01*
X141125000Y-108312500D01*
G75*
G02*
X141062500Y-108375000I-62500J0D01*
G01*
X140937500Y-108375000D01*
G75*
G02*
X140875000Y-108312500I0J62500D01*
G01*
G37*
G36*
G01*
X141375000Y-108312500D02*
X141375000Y-107562500D01*
G75*
G02*
X141437500Y-107500000I62500J0D01*
G01*
X141562500Y-107500000D01*
G75*
G02*
X141625000Y-107562500I0J-62500D01*
G01*
X141625000Y-108312500D01*
G75*
G02*
X141562500Y-108375000I-62500J0D01*
G01*
X141437500Y-108375000D01*
G75*
G02*
X141375000Y-108312500I0J62500D01*
G01*
G37*
G36*
G01*
X141875000Y-108312500D02*
X141875000Y-107562500D01*
G75*
G02*
X141937500Y-107500000I62500J0D01*
G01*
X142062500Y-107500000D01*
G75*
G02*
X142125000Y-107562500I0J-62500D01*
G01*
X142125000Y-108312500D01*
G75*
G02*
X142062500Y-108375000I-62500J0D01*
G01*
X141937500Y-108375000D01*
G75*
G02*
X141875000Y-108312500I0J62500D01*
G01*
G37*
G36*
G01*
X142375000Y-108312500D02*
X142375000Y-107562500D01*
G75*
G02*
X142437500Y-107500000I62500J0D01*
G01*
X142562500Y-107500000D01*
G75*
G02*
X142625000Y-107562500I0J-62500D01*
G01*
X142625000Y-108312500D01*
G75*
G02*
X142562500Y-108375000I-62500J0D01*
G01*
X142437500Y-108375000D01*
G75*
G02*
X142375000Y-108312500I0J62500D01*
G01*
G37*
G36*
G01*
X142875000Y-108312500D02*
X142875000Y-107562500D01*
G75*
G02*
X142937500Y-107500000I62500J0D01*
G01*
X143062500Y-107500000D01*
G75*
G02*
X143125000Y-107562500I0J-62500D01*
G01*
X143125000Y-108312500D01*
G75*
G02*
X143062500Y-108375000I-62500J0D01*
G01*
X142937500Y-108375000D01*
G75*
G02*
X142875000Y-108312500I0J62500D01*
G01*
G37*
G36*
G01*
X143375000Y-108312500D02*
X143375000Y-107562500D01*
G75*
G02*
X143437500Y-107500000I62500J0D01*
G01*
X143562500Y-107500000D01*
G75*
G02*
X143625000Y-107562500I0J-62500D01*
G01*
X143625000Y-108312500D01*
G75*
G02*
X143562500Y-108375000I-62500J0D01*
G01*
X143437500Y-108375000D01*
G75*
G02*
X143375000Y-108312500I0J62500D01*
G01*
G37*
G36*
G01*
X143875000Y-108312500D02*
X143875000Y-107562500D01*
G75*
G02*
X143937500Y-107500000I62500J0D01*
G01*
X144062500Y-107500000D01*
G75*
G02*
X144125000Y-107562500I0J-62500D01*
G01*
X144125000Y-108312500D01*
G75*
G02*
X144062500Y-108375000I-62500J0D01*
G01*
X143937500Y-108375000D01*
G75*
G02*
X143875000Y-108312500I0J62500D01*
G01*
G37*
G36*
G01*
X144375000Y-108312500D02*
X144375000Y-107562500D01*
G75*
G02*
X144437500Y-107500000I62500J0D01*
G01*
X144562500Y-107500000D01*
G75*
G02*
X144625000Y-107562500I0J-62500D01*
G01*
X144625000Y-108312500D01*
G75*
G02*
X144562500Y-108375000I-62500J0D01*
G01*
X144437500Y-108375000D01*
G75*
G02*
X144375000Y-108312500I0J62500D01*
G01*
G37*
G36*
G01*
X144875000Y-108312500D02*
X144875000Y-107562500D01*
G75*
G02*
X144937500Y-107500000I62500J0D01*
G01*
X145062500Y-107500000D01*
G75*
G02*
X145125000Y-107562500I0J-62500D01*
G01*
X145125000Y-108312500D01*
G75*
G02*
X145062500Y-108375000I-62500J0D01*
G01*
X144937500Y-108375000D01*
G75*
G02*
X144875000Y-108312500I0J62500D01*
G01*
G37*
G36*
G01*
X145375000Y-108312500D02*
X145375000Y-107562500D01*
G75*
G02*
X145437500Y-107500000I62500J0D01*
G01*
X145562500Y-107500000D01*
G75*
G02*
X145625000Y-107562500I0J-62500D01*
G01*
X145625000Y-108312500D01*
G75*
G02*
X145562500Y-108375000I-62500J0D01*
G01*
X145437500Y-108375000D01*
G75*
G02*
X145375000Y-108312500I0J62500D01*
G01*
G37*
G36*
G01*
X145750000Y-107312500D02*
X145750000Y-107187500D01*
G75*
G02*
X145812500Y-107125000I62500J0D01*
G01*
X146562500Y-107125000D01*
G75*
G02*
X146625000Y-107187500I0J-62500D01*
G01*
X146625000Y-107312500D01*
G75*
G02*
X146562500Y-107375000I-62500J0D01*
G01*
X145812500Y-107375000D01*
G75*
G02*
X145750000Y-107312500I0J62500D01*
G01*
G37*
G36*
G01*
X145750000Y-106812500D02*
X145750000Y-106687500D01*
G75*
G02*
X145812500Y-106625000I62500J0D01*
G01*
X146562500Y-106625000D01*
G75*
G02*
X146625000Y-106687500I0J-62500D01*
G01*
X146625000Y-106812500D01*
G75*
G02*
X146562500Y-106875000I-62500J0D01*
G01*
X145812500Y-106875000D01*
G75*
G02*
X145750000Y-106812500I0J62500D01*
G01*
G37*
G36*
G01*
X145750000Y-106312500D02*
X145750000Y-106187500D01*
G75*
G02*
X145812500Y-106125000I62500J0D01*
G01*
X146562500Y-106125000D01*
G75*
G02*
X146625000Y-106187500I0J-62500D01*
G01*
X146625000Y-106312500D01*
G75*
G02*
X146562500Y-106375000I-62500J0D01*
G01*
X145812500Y-106375000D01*
G75*
G02*
X145750000Y-106312500I0J62500D01*
G01*
G37*
G36*
G01*
X145750000Y-105812500D02*
X145750000Y-105687500D01*
G75*
G02*
X145812500Y-105625000I62500J0D01*
G01*
X146562500Y-105625000D01*
G75*
G02*
X146625000Y-105687500I0J-62500D01*
G01*
X146625000Y-105812500D01*
G75*
G02*
X146562500Y-105875000I-62500J0D01*
G01*
X145812500Y-105875000D01*
G75*
G02*
X145750000Y-105812500I0J62500D01*
G01*
G37*
G36*
G01*
X145750000Y-105312500D02*
X145750000Y-105187500D01*
G75*
G02*
X145812500Y-105125000I62500J0D01*
G01*
X146562500Y-105125000D01*
G75*
G02*
X146625000Y-105187500I0J-62500D01*
G01*
X146625000Y-105312500D01*
G75*
G02*
X146562500Y-105375000I-62500J0D01*
G01*
X145812500Y-105375000D01*
G75*
G02*
X145750000Y-105312500I0J62500D01*
G01*
G37*
G36*
G01*
X145750000Y-104812500D02*
X145750000Y-104687500D01*
G75*
G02*
X145812500Y-104625000I62500J0D01*
G01*
X146562500Y-104625000D01*
G75*
G02*
X146625000Y-104687500I0J-62500D01*
G01*
X146625000Y-104812500D01*
G75*
G02*
X146562500Y-104875000I-62500J0D01*
G01*
X145812500Y-104875000D01*
G75*
G02*
X145750000Y-104812500I0J62500D01*
G01*
G37*
G36*
G01*
X145750000Y-104312500D02*
X145750000Y-104187500D01*
G75*
G02*
X145812500Y-104125000I62500J0D01*
G01*
X146562500Y-104125000D01*
G75*
G02*
X146625000Y-104187500I0J-62500D01*
G01*
X146625000Y-104312500D01*
G75*
G02*
X146562500Y-104375000I-62500J0D01*
G01*
X145812500Y-104375000D01*
G75*
G02*
X145750000Y-104312500I0J62500D01*
G01*
G37*
G36*
G01*
X145750000Y-103812500D02*
X145750000Y-103687500D01*
G75*
G02*
X145812500Y-103625000I62500J0D01*
G01*
X146562500Y-103625000D01*
G75*
G02*
X146625000Y-103687500I0J-62500D01*
G01*
X146625000Y-103812500D01*
G75*
G02*
X146562500Y-103875000I-62500J0D01*
G01*
X145812500Y-103875000D01*
G75*
G02*
X145750000Y-103812500I0J62500D01*
G01*
G37*
G36*
G01*
X145750000Y-103312500D02*
X145750000Y-103187500D01*
G75*
G02*
X145812500Y-103125000I62500J0D01*
G01*
X146562500Y-103125000D01*
G75*
G02*
X146625000Y-103187500I0J-62500D01*
G01*
X146625000Y-103312500D01*
G75*
G02*
X146562500Y-103375000I-62500J0D01*
G01*
X145812500Y-103375000D01*
G75*
G02*
X145750000Y-103312500I0J62500D01*
G01*
G37*
G36*
G01*
X145750000Y-102812500D02*
X145750000Y-102687500D01*
G75*
G02*
X145812500Y-102625000I62500J0D01*
G01*
X146562500Y-102625000D01*
G75*
G02*
X146625000Y-102687500I0J-62500D01*
G01*
X146625000Y-102812500D01*
G75*
G02*
X146562500Y-102875000I-62500J0D01*
G01*
X145812500Y-102875000D01*
G75*
G02*
X145750000Y-102812500I0J62500D01*
G01*
G37*
G36*
G01*
X145750000Y-102312500D02*
X145750000Y-102187500D01*
G75*
G02*
X145812500Y-102125000I62500J0D01*
G01*
X146562500Y-102125000D01*
G75*
G02*
X146625000Y-102187500I0J-62500D01*
G01*
X146625000Y-102312500D01*
G75*
G02*
X146562500Y-102375000I-62500J0D01*
G01*
X145812500Y-102375000D01*
G75*
G02*
X145750000Y-102312500I0J62500D01*
G01*
G37*
G36*
G01*
X145750000Y-101812500D02*
X145750000Y-101687500D01*
G75*
G02*
X145812500Y-101625000I62500J0D01*
G01*
X146562500Y-101625000D01*
G75*
G02*
X146625000Y-101687500I0J-62500D01*
G01*
X146625000Y-101812500D01*
G75*
G02*
X146562500Y-101875000I-62500J0D01*
G01*
X145812500Y-101875000D01*
G75*
G02*
X145750000Y-101812500I0J62500D01*
G01*
G37*
G36*
G01*
X145375000Y-101437500D02*
X145375000Y-100687500D01*
G75*
G02*
X145437500Y-100625000I62500J0D01*
G01*
X145562500Y-100625000D01*
G75*
G02*
X145625000Y-100687500I0J-62500D01*
G01*
X145625000Y-101437500D01*
G75*
G02*
X145562500Y-101500000I-62500J0D01*
G01*
X145437500Y-101500000D01*
G75*
G02*
X145375000Y-101437500I0J62500D01*
G01*
G37*
G36*
G01*
X144875000Y-101437500D02*
X144875000Y-100687500D01*
G75*
G02*
X144937500Y-100625000I62500J0D01*
G01*
X145062500Y-100625000D01*
G75*
G02*
X145125000Y-100687500I0J-62500D01*
G01*
X145125000Y-101437500D01*
G75*
G02*
X145062500Y-101500000I-62500J0D01*
G01*
X144937500Y-101500000D01*
G75*
G02*
X144875000Y-101437500I0J62500D01*
G01*
G37*
G36*
G01*
X144375000Y-101437500D02*
X144375000Y-100687500D01*
G75*
G02*
X144437500Y-100625000I62500J0D01*
G01*
X144562500Y-100625000D01*
G75*
G02*
X144625000Y-100687500I0J-62500D01*
G01*
X144625000Y-101437500D01*
G75*
G02*
X144562500Y-101500000I-62500J0D01*
G01*
X144437500Y-101500000D01*
G75*
G02*
X144375000Y-101437500I0J62500D01*
G01*
G37*
G36*
G01*
X143875000Y-101437500D02*
X143875000Y-100687500D01*
G75*
G02*
X143937500Y-100625000I62500J0D01*
G01*
X144062500Y-100625000D01*
G75*
G02*
X144125000Y-100687500I0J-62500D01*
G01*
X144125000Y-101437500D01*
G75*
G02*
X144062500Y-101500000I-62500J0D01*
G01*
X143937500Y-101500000D01*
G75*
G02*
X143875000Y-101437500I0J62500D01*
G01*
G37*
G36*
G01*
X143375000Y-101437500D02*
X143375000Y-100687500D01*
G75*
G02*
X143437500Y-100625000I62500J0D01*
G01*
X143562500Y-100625000D01*
G75*
G02*
X143625000Y-100687500I0J-62500D01*
G01*
X143625000Y-101437500D01*
G75*
G02*
X143562500Y-101500000I-62500J0D01*
G01*
X143437500Y-101500000D01*
G75*
G02*
X143375000Y-101437500I0J62500D01*
G01*
G37*
G36*
G01*
X142875000Y-101437500D02*
X142875000Y-100687500D01*
G75*
G02*
X142937500Y-100625000I62500J0D01*
G01*
X143062500Y-100625000D01*
G75*
G02*
X143125000Y-100687500I0J-62500D01*
G01*
X143125000Y-101437500D01*
G75*
G02*
X143062500Y-101500000I-62500J0D01*
G01*
X142937500Y-101500000D01*
G75*
G02*
X142875000Y-101437500I0J62500D01*
G01*
G37*
G36*
G01*
X142375000Y-101437500D02*
X142375000Y-100687500D01*
G75*
G02*
X142437500Y-100625000I62500J0D01*
G01*
X142562500Y-100625000D01*
G75*
G02*
X142625000Y-100687500I0J-62500D01*
G01*
X142625000Y-101437500D01*
G75*
G02*
X142562500Y-101500000I-62500J0D01*
G01*
X142437500Y-101500000D01*
G75*
G02*
X142375000Y-101437500I0J62500D01*
G01*
G37*
G36*
G01*
X141875000Y-101437500D02*
X141875000Y-100687500D01*
G75*
G02*
X141937500Y-100625000I62500J0D01*
G01*
X142062500Y-100625000D01*
G75*
G02*
X142125000Y-100687500I0J-62500D01*
G01*
X142125000Y-101437500D01*
G75*
G02*
X142062500Y-101500000I-62500J0D01*
G01*
X141937500Y-101500000D01*
G75*
G02*
X141875000Y-101437500I0J62500D01*
G01*
G37*
G36*
G01*
X141375000Y-101437500D02*
X141375000Y-100687500D01*
G75*
G02*
X141437500Y-100625000I62500J0D01*
G01*
X141562500Y-100625000D01*
G75*
G02*
X141625000Y-100687500I0J-62500D01*
G01*
X141625000Y-101437500D01*
G75*
G02*
X141562500Y-101500000I-62500J0D01*
G01*
X141437500Y-101500000D01*
G75*
G02*
X141375000Y-101437500I0J62500D01*
G01*
G37*
G36*
G01*
X140875000Y-101437500D02*
X140875000Y-100687500D01*
G75*
G02*
X140937500Y-100625000I62500J0D01*
G01*
X141062500Y-100625000D01*
G75*
G02*
X141125000Y-100687500I0J-62500D01*
G01*
X141125000Y-101437500D01*
G75*
G02*
X141062500Y-101500000I-62500J0D01*
G01*
X140937500Y-101500000D01*
G75*
G02*
X140875000Y-101437500I0J62500D01*
G01*
G37*
G36*
G01*
X140375000Y-101437500D02*
X140375000Y-100687500D01*
G75*
G02*
X140437500Y-100625000I62500J0D01*
G01*
X140562500Y-100625000D01*
G75*
G02*
X140625000Y-100687500I0J-62500D01*
G01*
X140625000Y-101437500D01*
G75*
G02*
X140562500Y-101500000I-62500J0D01*
G01*
X140437500Y-101500000D01*
G75*
G02*
X140375000Y-101437500I0J62500D01*
G01*
G37*
G36*
G01*
X139875000Y-101437500D02*
X139875000Y-100687500D01*
G75*
G02*
X139937500Y-100625000I62500J0D01*
G01*
X140062500Y-100625000D01*
G75*
G02*
X140125000Y-100687500I0J-62500D01*
G01*
X140125000Y-101437500D01*
G75*
G02*
X140062500Y-101500000I-62500J0D01*
G01*
X139937500Y-101500000D01*
G75*
G02*
X139875000Y-101437500I0J62500D01*
G01*
G37*
D26*
X142750000Y-104500000D03*
%TD*%
%TO.C,J8*%
G36*
G01*
X125600000Y-85149999D02*
X125600000Y-86400001D01*
G75*
G02*
X125350001Y-86650000I-249999J0D01*
G01*
X124649999Y-86650000D01*
G75*
G02*
X124400000Y-86400001I0J249999D01*
G01*
X124400000Y-85149999D01*
G75*
G02*
X124649999Y-84900000I249999J0D01*
G01*
X125350001Y-84900000D01*
G75*
G02*
X125600000Y-85149999I0J-249999D01*
G01*
G37*
D19*
X123000000Y-85775000D03*
%TD*%
%TO.C,J9*%
X130050000Y-85775000D03*
G36*
G01*
X132650000Y-85149999D02*
X132650000Y-86400001D01*
G75*
G02*
X132400001Y-86650000I-249999J0D01*
G01*
X131699999Y-86650000D01*
G75*
G02*
X131450000Y-86400001I0J249999D01*
G01*
X131450000Y-85149999D01*
G75*
G02*
X131699999Y-84900000I249999J0D01*
G01*
X132400001Y-84900000D01*
G75*
G02*
X132650000Y-85149999I0J-249999D01*
G01*
G37*
%TD*%
M02*
