%TF.GenerationSoftware,KiCad,Pcbnew,5.99.0-unknown-0e3c79d3b2~131~ubuntu20.04.1*%
%TF.CreationDate,2021-09-07T14:15:13+02:00*%
%TF.ProjectId,VESC_UI,56455343-5f55-4492-9e6b-696361645f70,v2.0.0*%
%TF.SameCoordinates,Original*%
%TF.FileFunction,Paste,Top*%
%TF.FilePolarity,Positive*%
%FSLAX46Y46*%
G04 Gerber Fmt 4.6, Leading zero omitted, Abs format (unit mm)*
G04 Created by KiCad (PCBNEW 5.99.0-unknown-0e3c79d3b2~131~ubuntu20.04.1) date 2021-09-07 14:15:13*
%MOMM*%
%LPD*%
G01*
G04 APERTURE LIST*
G04 Aperture macros list*
%AMRoundRect*
0 Rectangle with rounded corners*
0 $1 Rounding radius*
0 $2 $3 $4 $5 $6 $7 $8 $9 X,Y pos of 4 corners*
0 Add a 4 corners polygon primitive as box body*
4,1,4,$2,$3,$4,$5,$6,$7,$8,$9,$2,$3,0*
0 Add four circle primitives for the rounded corners*
1,1,$1+$1,$2,$3*
1,1,$1+$1,$4,$5*
1,1,$1+$1,$6,$7*
1,1,$1+$1,$8,$9*
0 Add four rect primitives between the rounded corners*
20,1,$1+$1,$2,$3,$4,$5,0*
20,1,$1+$1,$4,$5,$6,$7,0*
20,1,$1+$1,$6,$7,$8,$9,0*
20,1,$1+$1,$8,$9,$2,$3,0*%
G04 Aperture macros list end*
%ADD10R,2.200000X2.400000*%
%ADD11R,0.900000X1.300000*%
%ADD12R,1.600000X0.800000*%
%ADD13R,1.250000X0.300000*%
%ADD14R,0.600000X0.500000*%
%ADD15R,0.500000X0.600000*%
%ADD16RoundRect,0.125000X0.125000X-0.275000X0.125000X0.275000X-0.125000X0.275000X-0.125000X-0.275000X0*%
%ADD17R,0.600000X0.400000*%
%ADD18R,0.400000X0.600000*%
%ADD19RoundRect,0.250000X-0.315000X-0.315000X0.315000X-0.315000X0.315000X0.315000X-0.315000X0.315000X0*%
%ADD20RoundRect,0.062500X-0.375000X-0.062500X0.375000X-0.062500X0.375000X0.062500X-0.375000X0.062500X0*%
%ADD21RoundRect,0.062500X-0.062500X-0.375000X0.062500X-0.375000X0.062500X0.375000X-0.062500X0.375000X0*%
%ADD22R,0.750000X0.800000*%
%ADD23R,0.800000X0.900000*%
%ADD24RoundRect,0.150000X-0.150000X0.825000X-0.150000X-0.825000X0.150000X-0.825000X0.150000X0.825000X0*%
%ADD25R,2.000000X5.000000*%
%ADD26R,1.700000X4.000000*%
%ADD27R,1.200000X0.900000*%
%ADD28R,0.800000X0.750000*%
%ADD29RoundRect,0.125000X0.275000X0.125000X-0.275000X0.125000X-0.275000X-0.125000X0.275000X-0.125000X0*%
%ADD30R,1.150000X0.600000*%
%ADD31R,1.050000X0.650000*%
%ADD32R,1.000000X2.500000*%
%ADD33R,1.500000X2.300000*%
%ADD34R,2.500000X1.000000*%
%ADD35RoundRect,0.125000X-0.275000X-0.125000X0.275000X-0.125000X0.275000X0.125000X-0.275000X0.125000X0*%
G04 APERTURE END LIST*
D10*
%TO.C,K1*%
X128981019Y-109676584D03*
X128981019Y-90276584D03*
D11*
X127451019Y-109126584D03*
D12*
X129031019Y-91876584D03*
D11*
X127451019Y-90826584D03*
D12*
X129031019Y-108076584D03*
D13*
X130255095Y-92723416D03*
X130255095Y-93223416D03*
X130255095Y-93723416D03*
X130255095Y-94223416D03*
X130255095Y-94723416D03*
X130255095Y-95223416D03*
X130255095Y-95723416D03*
X130255095Y-96223416D03*
X130255095Y-96723416D03*
X130255095Y-97223416D03*
X130255095Y-97723416D03*
X130255095Y-98223416D03*
X130255095Y-98723416D03*
X130255095Y-99223416D03*
X130255095Y-99723416D03*
X130255095Y-100223416D03*
X130255095Y-100723416D03*
X130255095Y-101223416D03*
X130255095Y-101723416D03*
X130255095Y-102223416D03*
X130255095Y-102723416D03*
X130255095Y-103223416D03*
X130255095Y-103723416D03*
X130255095Y-104223416D03*
X130255095Y-104723416D03*
X130255095Y-105223416D03*
X130255095Y-105723416D03*
X130255095Y-106223416D03*
X130255095Y-106723416D03*
X130255095Y-107223416D03*
%TD*%
D14*
%TO.C,C12*%
X143950000Y-107100000D03*
X145050000Y-107100000D03*
%TD*%
D15*
%TO.C,C19*%
X149700000Y-99550000D03*
X149700000Y-98450000D03*
%TD*%
D16*
%TO.C,D10*%
X137200000Y-92900000D03*
X137200000Y-94900000D03*
%TD*%
D17*
%TO.C,R3*%
X133150000Y-104350000D03*
X133150000Y-103450000D03*
%TD*%
D18*
%TO.C,R5*%
X142950000Y-86700000D03*
X142050000Y-86700000D03*
%TD*%
%TO.C,R12*%
X144950000Y-118800000D03*
X144050000Y-118800000D03*
%TD*%
D19*
%TO.C,U2*%
X154350000Y-103800000D03*
X150150000Y-105200000D03*
X150150000Y-102400000D03*
X152950000Y-102400000D03*
X154350000Y-102400000D03*
X152950000Y-105200000D03*
X151550000Y-105200000D03*
X151550000Y-103800000D03*
X152950000Y-103800000D03*
X154350000Y-105200000D03*
X150150000Y-106600000D03*
X154350000Y-106600000D03*
X151550000Y-102400000D03*
X150150000Y-103800000D03*
X152950000Y-106600000D03*
X151550000Y-106600000D03*
D20*
X148812500Y-101750000D03*
X148812500Y-102250000D03*
X148812500Y-102750000D03*
X148812500Y-103250000D03*
X148812500Y-103750000D03*
X148812500Y-104250000D03*
X148812500Y-104750000D03*
X148812500Y-105250000D03*
X148812500Y-105750000D03*
X148812500Y-106250000D03*
X148812500Y-106750000D03*
X148812500Y-107250000D03*
D21*
X149500000Y-107937500D03*
X150000000Y-107937500D03*
X150500000Y-107937500D03*
X151000000Y-107937500D03*
X151500000Y-107937500D03*
X152000000Y-107937500D03*
X152500000Y-107937500D03*
X153000000Y-107937500D03*
X153500000Y-107937500D03*
X154000000Y-107937500D03*
X154500000Y-107937500D03*
X155000000Y-107937500D03*
D20*
X155687500Y-107250000D03*
X155687500Y-106750000D03*
X155687500Y-106250000D03*
X155687500Y-105750000D03*
X155687500Y-105250000D03*
X155687500Y-104750000D03*
X155687500Y-104250000D03*
X155687500Y-103750000D03*
X155687500Y-103250000D03*
X155687500Y-102750000D03*
X155687500Y-102250000D03*
X155687500Y-101750000D03*
D21*
X155000000Y-101062500D03*
X154500000Y-101062500D03*
X154000000Y-101062500D03*
X153500000Y-101062500D03*
X153000000Y-101062500D03*
X152500000Y-101062500D03*
X152000000Y-101062500D03*
X151500000Y-101062500D03*
X151000000Y-101062500D03*
X150500000Y-101062500D03*
X150000000Y-101062500D03*
X149500000Y-101062500D03*
%TD*%
D17*
%TO.C,R2*%
X153600000Y-89950000D03*
X153600000Y-90850000D03*
%TD*%
D18*
%TO.C,R14*%
X132950000Y-96720000D03*
X133850000Y-96720000D03*
%TD*%
D22*
%TO.C,C2*%
X148500000Y-99350000D03*
X148500000Y-97850000D03*
%TD*%
D18*
%TO.C,R9*%
X119150000Y-118800000D03*
X118250000Y-118800000D03*
%TD*%
%TO.C,R7*%
X142150000Y-105500000D03*
X141250000Y-105500000D03*
%TD*%
D14*
%TO.C,C18*%
X146050000Y-120000000D03*
X144950000Y-120000000D03*
%TD*%
D18*
%TO.C,R8*%
X143950000Y-105500000D03*
X143050000Y-105500000D03*
%TD*%
D22*
%TO.C,C1*%
X144100000Y-99050000D03*
X144100000Y-100550000D03*
%TD*%
D23*
%TO.C,Q2*%
X142050000Y-85225000D03*
X143950000Y-85225000D03*
X143000000Y-83225000D03*
%TD*%
D24*
%TO.C,U3*%
X156205000Y-93125000D03*
X154935000Y-93125000D03*
X153665000Y-93125000D03*
X152395000Y-93125000D03*
X152395000Y-98075000D03*
X153665000Y-98075000D03*
X154935000Y-98075000D03*
X156205000Y-98075000D03*
%TD*%
D15*
%TO.C,C9*%
X161100000Y-99650000D03*
X161100000Y-98550000D03*
%TD*%
%TO.C,C15*%
X140000000Y-104050000D03*
X140000000Y-105150000D03*
%TD*%
D14*
%TO.C,C20*%
X158350000Y-101600000D03*
X157250000Y-101600000D03*
%TD*%
D15*
%TO.C,C21*%
X155200000Y-110550000D03*
X155200000Y-109450000D03*
%TD*%
%TO.C,C24*%
X150700000Y-98850000D03*
X150700000Y-97750000D03*
%TD*%
D25*
%TO.C,C22*%
X139400000Y-92100000D03*
D26*
X149550000Y-92100000D03*
%TD*%
D15*
%TO.C,C10*%
X116800000Y-99950000D03*
X116800000Y-101050000D03*
%TD*%
D17*
%TO.C,R17*%
X118000000Y-99850000D03*
X118000000Y-100750000D03*
%TD*%
%TO.C,R18*%
X159900000Y-99750000D03*
X159900000Y-98850000D03*
%TD*%
D14*
%TO.C,C23*%
X133050000Y-120000000D03*
X131950000Y-120000000D03*
%TD*%
D23*
%TO.C,Q1*%
X155050000Y-90900000D03*
X156950000Y-90900000D03*
X156000000Y-88900000D03*
%TD*%
D15*
%TO.C,C6*%
X117200000Y-82750000D03*
X117200000Y-81650000D03*
%TD*%
D14*
%TO.C,C28*%
X133050000Y-94100000D03*
X134150000Y-94100000D03*
%TD*%
D27*
%TO.C,D9*%
X138300000Y-105350000D03*
X138300000Y-102050000D03*
%TD*%
D28*
%TO.C,C4*%
X133650000Y-108000000D03*
X135150000Y-108000000D03*
%TD*%
%TO.C,C26*%
X134750000Y-95300000D03*
X133250000Y-95300000D03*
%TD*%
D29*
%TO.C,D8*%
X133600000Y-100000000D03*
X135600000Y-100000000D03*
%TD*%
D30*
%TO.C,IC1*%
X141450000Y-102150000D03*
X141450000Y-103100000D03*
X141450000Y-104050000D03*
X143950000Y-104050000D03*
X143950000Y-102150000D03*
%TD*%
D22*
%TO.C,C29*%
X146300000Y-106650000D03*
X146300000Y-105150000D03*
%TD*%
D18*
%TO.C,R16*%
X131950000Y-118800000D03*
X131050000Y-118800000D03*
%TD*%
D14*
%TO.C,C17*%
X120250000Y-120000000D03*
X119150000Y-120000000D03*
%TD*%
D28*
%TO.C,C8*%
X133650000Y-105500000D03*
X135150000Y-105500000D03*
%TD*%
%TO.C,C16*%
X136950000Y-108000000D03*
X138450000Y-108000000D03*
%TD*%
D15*
%TO.C,C32*%
X128200000Y-115550000D03*
X128200000Y-116650000D03*
%TD*%
D14*
%TO.C,C13*%
X130850000Y-88500000D03*
X131950000Y-88500000D03*
%TD*%
D31*
%TO.C,SW5*%
X142025000Y-108625000D03*
X146175000Y-108625000D03*
X142025000Y-110775000D03*
X146175000Y-110775000D03*
%TD*%
D14*
%TO.C,C11*%
X143250000Y-87900000D03*
X142150000Y-87900000D03*
%TD*%
D28*
%TO.C,C7*%
X134400000Y-104100000D03*
X135900000Y-104100000D03*
%TD*%
D32*
%TO.C,C5*%
X118600000Y-82700000D03*
X121600000Y-82700000D03*
%TD*%
D18*
%TO.C,R19*%
X157750000Y-118800000D03*
X156850000Y-118800000D03*
%TD*%
D32*
%TO.C,C14*%
X133300000Y-89800000D03*
X136300000Y-89800000D03*
%TD*%
D22*
%TO.C,C30*%
X154000000Y-109650000D03*
X154000000Y-111150000D03*
%TD*%
D14*
%TO.C,C33*%
X131050000Y-111700000D03*
X132150000Y-111700000D03*
%TD*%
%TO.C,C25*%
X158850000Y-120000000D03*
X157750000Y-120000000D03*
%TD*%
D32*
%TO.C,C35*%
X133600000Y-110900000D03*
X136600000Y-110900000D03*
%TD*%
D14*
%TO.C,C3*%
X134750000Y-106800000D03*
X133650000Y-106800000D03*
%TD*%
D18*
%TO.C,R20*%
X158150000Y-97000000D03*
X159050000Y-97000000D03*
%TD*%
D33*
%TO.C,L1*%
X141950000Y-98900000D03*
X138250000Y-98900000D03*
%TD*%
D34*
%TO.C,C34*%
X126100000Y-116700000D03*
X126100000Y-119700000D03*
%TD*%
D35*
%TO.C,D7*%
X135600000Y-101500000D03*
X133600000Y-101500000D03*
%TD*%
D28*
%TO.C,C27*%
X133250000Y-92900000D03*
X134750000Y-92900000D03*
%TD*%
D15*
%TO.C,C31*%
X146300000Y-102750000D03*
X146300000Y-103850000D03*
%TD*%
M02*
