%TF.GenerationSoftware,KiCad,Pcbnew,(5.1.6)-1*%
%TF.CreationDate,2020-12-26T20:27:58+01:00*%
%TF.ProjectId,VESC_UI,56455343-5f55-4492-9e6b-696361645f70,rev?*%
%TF.SameCoordinates,Original*%
%TF.FileFunction,Copper,L4,Bot*%
%TF.FilePolarity,Positive*%
%FSLAX46Y46*%
G04 Gerber Fmt 4.6, Leading zero omitted, Abs format (unit mm)*
G04 Created by KiCad (PCBNEW (5.1.6)-1) date 2020-12-26 20:27:58*
%MOMM*%
%LPD*%
G01*
G04 APERTURE LIST*
%TA.AperFunction,ComponentPad*%
%ADD10O,1.350000X1.350000*%
%TD*%
%TA.AperFunction,ComponentPad*%
%ADD11R,1.350000X1.350000*%
%TD*%
%TA.AperFunction,ComponentPad*%
%ADD12O,1.300000X1.050000*%
%TD*%
%TA.AperFunction,ComponentPad*%
%ADD13C,1.600000*%
%TD*%
%TA.AperFunction,ComponentPad*%
%ADD14C,1.524000*%
%TD*%
%TA.AperFunction,ComponentPad*%
%ADD15C,1.850000*%
%TD*%
%TA.AperFunction,ComponentPad*%
%ADD16O,1.200000X1.750000*%
%TD*%
%TA.AperFunction,ComponentPad*%
%ADD17C,1.800000*%
%TD*%
%TA.AperFunction,ComponentPad*%
%ADD18R,1.800000X1.800000*%
%TD*%
%TA.AperFunction,ViaPad*%
%ADD19C,0.800000*%
%TD*%
%TA.AperFunction,Conductor*%
%ADD20C,0.400000*%
%TD*%
%TA.AperFunction,Conductor*%
%ADD21C,0.800000*%
%TD*%
%TA.AperFunction,Conductor*%
%ADD22C,0.200000*%
%TD*%
%TA.AperFunction,Conductor*%
%ADD23C,0.254000*%
%TD*%
G04 APERTURE END LIST*
D10*
%TO.P,J4,10*%
%TO.N,/SD_CS*%
X120250000Y-100250000D03*
%TO.P,J4,9*%
%TO.N,/OLED_RST*%
X118250000Y-100250000D03*
%TO.P,J4,8*%
%TO.N,/OLED_CS*%
X120250000Y-98250000D03*
%TO.P,J4,7*%
%TO.N,/OLED_DC*%
X118250000Y-98250000D03*
%TO.P,J4,6*%
%TO.N,/SPI1_SCK*%
X120250000Y-96250000D03*
%TO.P,J4,5*%
%TO.N,/SPI1_MISO*%
X118250000Y-96250000D03*
%TO.P,J4,4*%
%TO.N,/SPI1_MOSI*%
X120250000Y-94250000D03*
%TO.P,J4,3*%
%TO.N,GND*%
X118250000Y-94250000D03*
%TO.P,J4,2*%
%TO.N,+3V3*%
X120250000Y-92250000D03*
D11*
%TO.P,J4,1*%
%TO.N,+12V*%
X118250000Y-92250000D03*
%TD*%
%TO.P,J1,1*%
%TO.N,+3V3*%
%TA.AperFunction,ComponentPad*%
G36*
G01*
X115650100Y-102225000D02*
X114849900Y-102225000D01*
G75*
G02*
X114600000Y-101975100I0J249900D01*
G01*
X114600000Y-101424900D01*
G75*
G02*
X114849900Y-101175000I249900J0D01*
G01*
X115650100Y-101175000D01*
G75*
G02*
X115900000Y-101424900I0J-249900D01*
G01*
X115900000Y-101975100D01*
G75*
G02*
X115650100Y-102225000I-249900J0D01*
G01*
G37*
%TD.AperFunction*%
D12*
%TO.P,J1,3*%
%TO.N,Net-(J1-Pad3)*%
X115250000Y-99160000D03*
%TO.P,J1,2*%
%TO.N,GND*%
X115250000Y-100430000D03*
%TD*%
D13*
%TO.P,R13,2*%
%TO.N,Net-(R12-Pad1)*%
X159100000Y-94840000D03*
%TO.P,R13,1*%
%TO.N,+3V3*%
X159100000Y-92300000D03*
%TD*%
D14*
%TO.P,SW1,2*%
%TO.N,Net-(R3-Pad1)*%
X121900000Y-122450000D03*
%TO.P,SW1,1*%
%TO.N,GND*%
X117400000Y-122450000D03*
D15*
%TO.P,SW1,3*%
%TO.N,N/C*%
X123150000Y-119950000D03*
%TO.P,SW1,1*%
%TO.N,GND*%
X116150000Y-119950000D03*
%TD*%
%TO.P,SW2,1*%
%TO.N,GND*%
X129050000Y-119950000D03*
%TO.P,SW2,3*%
%TO.N,N/C*%
X136050000Y-119950000D03*
D14*
%TO.P,SW2,1*%
%TO.N,GND*%
X130300000Y-122450000D03*
%TO.P,SW2,2*%
%TO.N,Net-(R5-Pad1)*%
X134800000Y-122450000D03*
%TD*%
%TO.P,SW3,2*%
%TO.N,Net-(R7-Pad1)*%
X147700000Y-122450000D03*
%TO.P,SW3,1*%
%TO.N,GND*%
X143200000Y-122450000D03*
D15*
%TO.P,SW3,3*%
%TO.N,N/C*%
X148950000Y-119950000D03*
%TO.P,SW3,1*%
%TO.N,GND*%
X141950000Y-119950000D03*
%TD*%
%TO.P,SW4,1*%
%TO.N,GND*%
X154850000Y-119950000D03*
%TO.P,SW4,3*%
%TO.N,N/C*%
X161850000Y-119950000D03*
D14*
%TO.P,SW4,1*%
%TO.N,GND*%
X156100000Y-122450000D03*
%TO.P,SW4,2*%
%TO.N,Net-(R9-Pad1)*%
X160600000Y-122450000D03*
%TD*%
D12*
%TO.P,J2,2*%
%TO.N,GND*%
X162750000Y-100470000D03*
%TO.P,J2,3*%
%TO.N,Net-(J2-Pad3)*%
X162750000Y-101740000D03*
%TO.P,J2,1*%
%TO.N,+3V3*%
%TA.AperFunction,ComponentPad*%
G36*
G01*
X162349900Y-98675000D02*
X163150100Y-98675000D01*
G75*
G02*
X163400000Y-98924900I0J-249900D01*
G01*
X163400000Y-99475100D01*
G75*
G02*
X163150100Y-99725000I-249900J0D01*
G01*
X162349900Y-99725000D01*
G75*
G02*
X162100000Y-99475100I0J249900D01*
G01*
X162100000Y-98924900D01*
G75*
G02*
X162349900Y-98675000I249900J0D01*
G01*
G37*
%TD.AperFunction*%
%TD*%
D16*
%TO.P,J5,5*%
%TO.N,/NRST*%
X146175000Y-85750000D03*
%TO.P,J5,4*%
%TO.N,/SWDIO*%
X148175000Y-85750000D03*
%TO.P,J5,3*%
%TO.N,GND*%
X150175000Y-85750000D03*
%TO.P,J5,2*%
%TO.N,/SWDCLK*%
X152175000Y-85750000D03*
%TO.P,J5,1*%
%TO.N,+3V3*%
%TA.AperFunction,ComponentPad*%
G36*
G01*
X154775000Y-85124999D02*
X154775000Y-86375001D01*
G75*
G02*
X154525001Y-86625000I-249999J0D01*
G01*
X153824999Y-86625000D01*
G75*
G02*
X153575000Y-86375001I0J249999D01*
G01*
X153575000Y-85124999D01*
G75*
G02*
X153824999Y-84875000I249999J0D01*
G01*
X154525001Y-84875000D01*
G75*
G02*
X154775000Y-85124999I0J-249999D01*
G01*
G37*
%TD.AperFunction*%
%TD*%
D17*
%TO.P,D6,2*%
%TO.N,Net-(D5-Pad1)*%
X157160000Y-79000000D03*
D18*
%TO.P,D6,1*%
%TO.N,Net-(D6-Pad1)*%
X159700000Y-79000000D03*
%TD*%
D17*
%TO.P,D5,2*%
%TO.N,+5V*%
X149360000Y-79000000D03*
D18*
%TO.P,D5,1*%
%TO.N,Net-(D5-Pad1)*%
X151900000Y-79000000D03*
%TD*%
D17*
%TO.P,D4,2*%
%TO.N,Net-(D3-Pad1)*%
X141750000Y-79000000D03*
D18*
%TO.P,D4,1*%
%TO.N,Net-(D4-Pad1)*%
X144290000Y-79000000D03*
%TD*%
D17*
%TO.P,D3,2*%
%TO.N,+5V*%
X133960000Y-79000000D03*
D18*
%TO.P,D3,1*%
%TO.N,Net-(D3-Pad1)*%
X136500000Y-79000000D03*
%TD*%
D17*
%TO.P,D2,2*%
%TO.N,Net-(D1-Pad1)*%
X126150000Y-79000000D03*
D18*
%TO.P,D2,1*%
%TO.N,Net-(D2-Pad1)*%
X128690000Y-79000000D03*
%TD*%
D17*
%TO.P,D1,2*%
%TO.N,+5V*%
X118360000Y-79000000D03*
D18*
%TO.P,D1,1*%
%TO.N,Net-(D1-Pad1)*%
X120900000Y-79000000D03*
%TD*%
D16*
%TO.P,J6,4*%
%TO.N,/USART1_RX*%
X155500000Y-115000000D03*
%TO.P,J6,3*%
%TO.N,/USART1_TX*%
X153500000Y-115000000D03*
%TO.P,J6,2*%
%TO.N,GND*%
X151500000Y-115000000D03*
%TO.P,J6,1*%
%TO.N,+5V*%
%TA.AperFunction,ComponentPad*%
G36*
G01*
X148900000Y-115625001D02*
X148900000Y-114374999D01*
G75*
G02*
X149149999Y-114125000I249999J0D01*
G01*
X149850001Y-114125000D01*
G75*
G02*
X150100000Y-114374999I0J-249999D01*
G01*
X150100000Y-115625001D01*
G75*
G02*
X149850001Y-115875000I-249999J0D01*
G01*
X149149999Y-115875000D01*
G75*
G02*
X148900000Y-115625001I0J249999D01*
G01*
G37*
%TD.AperFunction*%
%TD*%
%TO.P,J3,1*%
%TO.N,+5V*%
%TA.AperFunction,ComponentPad*%
G36*
G01*
X130900000Y-115625001D02*
X130900000Y-114374999D01*
G75*
G02*
X131149999Y-114125000I249999J0D01*
G01*
X131850001Y-114125000D01*
G75*
G02*
X132100000Y-114374999I0J-249999D01*
G01*
X132100000Y-115625001D01*
G75*
G02*
X131850001Y-115875000I-249999J0D01*
G01*
X131149999Y-115875000D01*
G75*
G02*
X130900000Y-115625001I0J249999D01*
G01*
G37*
%TD.AperFunction*%
%TO.P,J3,2*%
%TO.N,+3V3*%
X133500000Y-115000000D03*
%TO.P,J3,3*%
%TO.N,GND*%
X135500000Y-115000000D03*
%TO.P,J3,4*%
%TO.N,/Accelerator*%
X137500000Y-115000000D03*
%TO.P,J3,5*%
%TO.N,/USART2_TX*%
X139500000Y-115000000D03*
%TO.P,J3,6*%
%TO.N,/USART2_RX*%
X141500000Y-115000000D03*
%TO.P,J3,7*%
%TO.N,/Brake*%
X143500000Y-115000000D03*
%TD*%
%TO.P,J8,1*%
%TO.N,+12V*%
%TA.AperFunction,ComponentPad*%
G36*
G01*
X125600000Y-85149999D02*
X125600000Y-86400001D01*
G75*
G02*
X125350001Y-86650000I-249999J0D01*
G01*
X124649999Y-86650000D01*
G75*
G02*
X124400000Y-86400001I0J249999D01*
G01*
X124400000Y-85149999D01*
G75*
G02*
X124649999Y-84900000I249999J0D01*
G01*
X125350001Y-84900000D01*
G75*
G02*
X125600000Y-85149999I0J-249999D01*
G01*
G37*
%TD.AperFunction*%
%TO.P,J8,2*%
%TO.N,GND*%
X123000000Y-85775000D03*
%TD*%
%TO.P,J9,2*%
%TO.N,GND*%
X130050000Y-85775000D03*
%TO.P,J9,1*%
%TO.N,+12V*%
%TA.AperFunction,ComponentPad*%
G36*
G01*
X132650000Y-85149999D02*
X132650000Y-86400001D01*
G75*
G02*
X132400001Y-86650000I-249999J0D01*
G01*
X131699999Y-86650000D01*
G75*
G02*
X131450000Y-86400001I0J249999D01*
G01*
X131450000Y-85149999D01*
G75*
G02*
X131699999Y-84900000I249999J0D01*
G01*
X132400001Y-84900000D01*
G75*
G02*
X132650000Y-85149999I0J-249999D01*
G01*
G37*
%TD.AperFunction*%
%TD*%
D19*
%TO.N,GND*%
X148375013Y-94625013D03*
X147500000Y-102000000D03*
X143750000Y-85250000D03*
X142750000Y-104500000D03*
X130000000Y-87500000D03*
X123000000Y-87500000D03*
X142200001Y-100068651D03*
X139000000Y-88250000D03*
X132825000Y-102825000D03*
X143750028Y-87250000D03*
X138000000Y-81250000D03*
X144450002Y-122450002D03*
X153299990Y-119950000D03*
X157450006Y-122450006D03*
X151500000Y-116750018D03*
X140550040Y-119950000D03*
X131499996Y-122499996D03*
X140000000Y-99750000D03*
X134750000Y-97750000D03*
X116000000Y-122500000D03*
X116149996Y-118600004D03*
X138500000Y-96500000D03*
X150375015Y-100125015D03*
X135500000Y-116749938D03*
X150175004Y-87174990D03*
X127574994Y-102825000D03*
X138375007Y-90624993D03*
X141595009Y-89601475D03*
X147750000Y-111000000D03*
X146124995Y-111000000D03*
X130450002Y-119950000D03*
X126500000Y-109500000D03*
X129250000Y-111000000D03*
X127750000Y-110000000D03*
X137499988Y-105300000D03*
X157250000Y-91750000D03*
X116250000Y-107450000D03*
X162000000Y-92500000D03*
X133500010Y-106600000D03*
X116750000Y-99249990D03*
X116750000Y-94250000D03*
X161500006Y-100250006D03*
%TO.N,+3V3*%
X148374992Y-96375008D03*
X138987500Y-100762500D03*
X136000000Y-100750000D03*
X146750034Y-108250000D03*
X148624991Y-100124991D03*
X133500000Y-116499936D03*
X154174994Y-87250000D03*
X144874993Y-87875007D03*
X134749982Y-93250000D03*
X121750000Y-92250000D03*
X159100004Y-90900004D03*
X133500000Y-108200000D03*
X162000000Y-96499994D03*
X162750000Y-97750000D03*
%TO.N,/NRST*%
X137450002Y-104049998D03*
%TO.N,/Brake*%
X160000000Y-105500000D03*
%TO.N,/SPI1_MOSI*%
X141500000Y-95000000D03*
X130000000Y-95000000D03*
%TO.N,/SPI1_SCK*%
X143000000Y-95000000D03*
X128500000Y-95500000D03*
%TO.N,/OLED_RST*%
X127750000Y-112000000D03*
%TO.N,/BUTTON_1*%
X130000000Y-112000000D03*
X124500011Y-117500011D03*
%TO.N,/PHOTO_RESISTOR*%
X145500000Y-112750000D03*
X157750010Y-98000000D03*
%TO.N,/ADC2*%
X146500000Y-112000000D03*
X157250000Y-105500006D03*
%TO.N,/SPI1_MISO*%
X134750000Y-96250000D03*
X143250000Y-98000000D03*
%TO.N,/SD_CS*%
X141250000Y-98000000D03*
X131750000Y-100500000D03*
%TD*%
D20*
%TO.N,GND*%
X116750000Y-99980000D02*
X116750000Y-99249990D01*
X115250000Y-100430000D02*
X116300000Y-100430000D01*
X116300000Y-100430000D02*
X116750000Y-99980000D01*
D21*
%TO.N,+5V*%
X132950005Y-118200005D02*
X146299995Y-118200005D01*
X131500000Y-116750000D02*
X132950005Y-118200005D01*
X118360000Y-84610000D02*
X126750000Y-93000000D01*
X126750000Y-93000000D02*
X126750000Y-98045406D01*
X146299995Y-118200005D02*
X149500000Y-115000000D01*
X118360000Y-79000000D02*
X118360000Y-84610000D01*
X126750000Y-98045406D02*
X131500000Y-102795406D01*
X131500000Y-102795406D02*
X131500000Y-116750000D01*
D22*
%TO.N,/NRST*%
X139000000Y-102500000D02*
X137450002Y-104049998D01*
X140804654Y-102500000D02*
X139000000Y-102500000D01*
X146175000Y-85750000D02*
X146175000Y-97129654D01*
X146175000Y-97129654D02*
X140804654Y-102500000D01*
%TO.N,/Brake*%
X152099990Y-113400010D02*
X160000000Y-105500000D01*
X148849990Y-113400010D02*
X152099990Y-113400010D01*
X147250000Y-115000000D02*
X148849990Y-113400010D01*
X143500000Y-115000000D02*
X147250000Y-115000000D01*
%TO.N,/SPI1_MOSI*%
X139000000Y-95000000D02*
X130000000Y-95000000D01*
X141500000Y-95000000D02*
X139000000Y-95000000D01*
%TO.N,/SPI1_SCK*%
X142100001Y-94100001D02*
X129899999Y-94100001D01*
X143000000Y-95000000D02*
X142100001Y-94100001D01*
X129899999Y-94100001D02*
X128500000Y-95500000D01*
%TO.N,/OLED_RST*%
X118250000Y-102500000D02*
X127750000Y-112000000D01*
X118250000Y-100250000D02*
X118250000Y-102500000D01*
%TO.N,/BUTTON_1*%
X124500011Y-117499989D02*
X124500011Y-117500011D01*
X130000000Y-112000000D02*
X124500011Y-117499989D01*
%TO.N,/PHOTO_RESISTOR*%
X159250000Y-99499990D02*
X157750010Y-98000000D01*
X145500000Y-112750000D02*
X151000000Y-112750000D01*
X159250000Y-104500000D02*
X159250000Y-99499990D01*
X151000000Y-112750000D02*
X159250000Y-104500000D01*
%TO.N,/ADC2*%
X150750006Y-112000000D02*
X157250000Y-105500006D01*
X146500000Y-112000000D02*
X150750006Y-112000000D01*
%TO.N,/SPI1_MISO*%
X134750000Y-96250000D02*
X135200001Y-95799999D01*
X135200001Y-95799999D02*
X141049999Y-95799999D01*
X141049999Y-95799999D02*
X143250000Y-98000000D01*
%TO.N,/SD_CS*%
X135213998Y-100500000D02*
X131750000Y-100500000D01*
X141250000Y-98000000D02*
X137713998Y-98000000D01*
X137713998Y-98000000D02*
X135213998Y-100500000D01*
%TD*%
D23*
%TO.N,GND*%
G36*
X162369001Y-84968992D02*
G01*
X162365947Y-85000000D01*
X162378130Y-85123698D01*
X162414211Y-85242642D01*
X162472804Y-85352261D01*
X162551657Y-85448343D01*
X162647739Y-85527196D01*
X162757358Y-85585789D01*
X162876302Y-85621870D01*
X162969002Y-85631000D01*
X163000000Y-85634053D01*
X163030998Y-85631000D01*
X163369000Y-85631000D01*
X163369000Y-97270637D01*
X163356642Y-97252141D01*
X163247859Y-97143358D01*
X163119942Y-97057887D01*
X162977809Y-96999013D01*
X162826922Y-96969000D01*
X162673078Y-96969000D01*
X162618693Y-96979818D01*
X162692113Y-96869936D01*
X162750987Y-96727803D01*
X162781000Y-96576916D01*
X162781000Y-96423072D01*
X162750987Y-96272185D01*
X162692113Y-96130052D01*
X162606642Y-96002135D01*
X162497859Y-95893352D01*
X162369942Y-95807881D01*
X162227809Y-95749007D01*
X162076922Y-95718994D01*
X161923078Y-95718994D01*
X161772191Y-95749007D01*
X161630058Y-95807881D01*
X161502141Y-95893352D01*
X161393358Y-96002135D01*
X161307887Y-96130052D01*
X161249013Y-96272185D01*
X161219000Y-96423072D01*
X161219000Y-96576916D01*
X161249013Y-96727803D01*
X161307887Y-96869936D01*
X161393358Y-96997853D01*
X161502141Y-97106636D01*
X161630058Y-97192107D01*
X161772191Y-97250981D01*
X161923078Y-97280994D01*
X162076922Y-97280994D01*
X162131307Y-97270176D01*
X162057887Y-97380058D01*
X161999013Y-97522191D01*
X161969000Y-97673078D01*
X161969000Y-97826922D01*
X161999013Y-97977809D01*
X162057887Y-98119942D01*
X162143358Y-98247859D01*
X162206015Y-98310516D01*
X162107760Y-98340322D01*
X161998367Y-98398793D01*
X161902483Y-98477483D01*
X161823793Y-98573367D01*
X161765322Y-98682760D01*
X161729315Y-98801458D01*
X161717157Y-98924900D01*
X161717157Y-99475100D01*
X161729315Y-99598542D01*
X161761350Y-99704145D01*
X161685453Y-99789851D01*
X161570816Y-99986216D01*
X161506036Y-100164190D01*
X161631837Y-100343000D01*
X162623000Y-100343000D01*
X162623000Y-100323000D01*
X162877000Y-100323000D01*
X162877000Y-100343000D01*
X162897000Y-100343000D01*
X162897000Y-100597000D01*
X162877000Y-100597000D01*
X162877000Y-100617000D01*
X162623000Y-100617000D01*
X162623000Y-100597000D01*
X161631837Y-100597000D01*
X161506036Y-100775810D01*
X161570816Y-100953784D01*
X161685453Y-101150149D01*
X161827338Y-101310373D01*
X161783916Y-101391612D01*
X161732110Y-101562393D01*
X161714617Y-101740000D01*
X161732110Y-101917607D01*
X161783916Y-102088388D01*
X161868044Y-102245782D01*
X161981262Y-102383738D01*
X162119218Y-102496956D01*
X162276612Y-102581084D01*
X162447393Y-102632890D01*
X162580499Y-102646000D01*
X162919501Y-102646000D01*
X163052607Y-102632890D01*
X163223388Y-102581084D01*
X163369000Y-102503253D01*
X163369001Y-124369000D01*
X114631000Y-124369000D01*
X114631000Y-123415565D01*
X116614040Y-123415565D01*
X116681020Y-123655656D01*
X116930048Y-123772756D01*
X117197135Y-123839023D01*
X117472017Y-123851910D01*
X117744133Y-123810922D01*
X118003023Y-123717636D01*
X118118980Y-123655656D01*
X118185960Y-123415565D01*
X117400000Y-122629605D01*
X116614040Y-123415565D01*
X114631000Y-123415565D01*
X114631000Y-121031917D01*
X115247688Y-121031917D01*
X115334393Y-121288653D01*
X115611223Y-121422048D01*
X115908757Y-121498873D01*
X116215562Y-121516176D01*
X116371447Y-121494207D01*
X116318023Y-121547631D01*
X116434433Y-121664041D01*
X116194344Y-121731020D01*
X116077244Y-121980048D01*
X116010977Y-122247135D01*
X115998090Y-122522017D01*
X116039078Y-122794133D01*
X116132364Y-123053023D01*
X116194344Y-123168980D01*
X116434435Y-123235960D01*
X117220395Y-122450000D01*
X117579605Y-122450000D01*
X118365565Y-123235960D01*
X118605656Y-123168980D01*
X118722756Y-122919952D01*
X118789023Y-122652865D01*
X118801910Y-122377983D01*
X118795801Y-122337424D01*
X120757000Y-122337424D01*
X120757000Y-122562576D01*
X120800925Y-122783401D01*
X120887087Y-122991413D01*
X121012174Y-123178620D01*
X121171380Y-123337826D01*
X121358587Y-123462913D01*
X121566599Y-123549075D01*
X121787424Y-123593000D01*
X122012576Y-123593000D01*
X122233401Y-123549075D01*
X122441413Y-123462913D01*
X122512274Y-123415565D01*
X129514040Y-123415565D01*
X129581020Y-123655656D01*
X129830048Y-123772756D01*
X130097135Y-123839023D01*
X130372017Y-123851910D01*
X130644133Y-123810922D01*
X130903023Y-123717636D01*
X131018980Y-123655656D01*
X131085960Y-123415565D01*
X130300000Y-122629605D01*
X129514040Y-123415565D01*
X122512274Y-123415565D01*
X122628620Y-123337826D01*
X122787826Y-123178620D01*
X122912913Y-122991413D01*
X122999075Y-122783401D01*
X123043000Y-122562576D01*
X123043000Y-122337424D01*
X122999075Y-122116599D01*
X122912913Y-121908587D01*
X122787826Y-121721380D01*
X122628620Y-121562174D01*
X122441413Y-121437087D01*
X122233401Y-121350925D01*
X122012576Y-121307000D01*
X121787424Y-121307000D01*
X121566599Y-121350925D01*
X121358587Y-121437087D01*
X121171380Y-121562174D01*
X121012174Y-121721380D01*
X120887087Y-121908587D01*
X120800925Y-122116599D01*
X120757000Y-122337424D01*
X118795801Y-122337424D01*
X118760922Y-122105867D01*
X118667636Y-121846977D01*
X118605656Y-121731020D01*
X118365565Y-121664040D01*
X117579605Y-122450000D01*
X117220395Y-122450000D01*
X117206253Y-122435858D01*
X117385858Y-122256253D01*
X117400000Y-122270395D01*
X118185960Y-121484435D01*
X118118980Y-121244344D01*
X117869952Y-121127244D01*
X117602865Y-121060977D01*
X117327983Y-121048090D01*
X117055867Y-121089078D01*
X117029840Y-121098456D01*
X117052312Y-121031917D01*
X116150000Y-120129605D01*
X115247688Y-121031917D01*
X114631000Y-121031917D01*
X114631000Y-120332123D01*
X114728132Y-120609921D01*
X114811347Y-120765607D01*
X115068083Y-120852312D01*
X115970395Y-119950000D01*
X116329605Y-119950000D01*
X117231917Y-120852312D01*
X117488653Y-120765607D01*
X117622048Y-120488777D01*
X117698873Y-120191243D01*
X117716176Y-119884438D01*
X117707288Y-119821370D01*
X121844000Y-119821370D01*
X121844000Y-120078630D01*
X121894189Y-120330946D01*
X121992638Y-120568623D01*
X122135564Y-120782526D01*
X122317474Y-120964436D01*
X122531377Y-121107362D01*
X122769054Y-121205811D01*
X123021370Y-121256000D01*
X123278630Y-121256000D01*
X123530946Y-121205811D01*
X123768623Y-121107362D01*
X123881533Y-121031917D01*
X128147688Y-121031917D01*
X128234393Y-121288653D01*
X128511223Y-121422048D01*
X128808757Y-121498873D01*
X129115562Y-121516176D01*
X129271447Y-121494207D01*
X129218023Y-121547631D01*
X129334433Y-121664041D01*
X129094344Y-121731020D01*
X128977244Y-121980048D01*
X128910977Y-122247135D01*
X128898090Y-122522017D01*
X128939078Y-122794133D01*
X129032364Y-123053023D01*
X129094344Y-123168980D01*
X129334435Y-123235960D01*
X130120395Y-122450000D01*
X130479605Y-122450000D01*
X131265565Y-123235960D01*
X131505656Y-123168980D01*
X131622756Y-122919952D01*
X131689023Y-122652865D01*
X131701910Y-122377983D01*
X131695801Y-122337424D01*
X133657000Y-122337424D01*
X133657000Y-122562576D01*
X133700925Y-122783401D01*
X133787087Y-122991413D01*
X133912174Y-123178620D01*
X134071380Y-123337826D01*
X134258587Y-123462913D01*
X134466599Y-123549075D01*
X134687424Y-123593000D01*
X134912576Y-123593000D01*
X135133401Y-123549075D01*
X135341413Y-123462913D01*
X135412274Y-123415565D01*
X142414040Y-123415565D01*
X142481020Y-123655656D01*
X142730048Y-123772756D01*
X142997135Y-123839023D01*
X143272017Y-123851910D01*
X143544133Y-123810922D01*
X143803023Y-123717636D01*
X143918980Y-123655656D01*
X143985960Y-123415565D01*
X143200000Y-122629605D01*
X142414040Y-123415565D01*
X135412274Y-123415565D01*
X135528620Y-123337826D01*
X135687826Y-123178620D01*
X135812913Y-122991413D01*
X135899075Y-122783401D01*
X135943000Y-122562576D01*
X135943000Y-122337424D01*
X135899075Y-122116599D01*
X135812913Y-121908587D01*
X135687826Y-121721380D01*
X135528620Y-121562174D01*
X135341413Y-121437087D01*
X135133401Y-121350925D01*
X134912576Y-121307000D01*
X134687424Y-121307000D01*
X134466599Y-121350925D01*
X134258587Y-121437087D01*
X134071380Y-121562174D01*
X133912174Y-121721380D01*
X133787087Y-121908587D01*
X133700925Y-122116599D01*
X133657000Y-122337424D01*
X131695801Y-122337424D01*
X131660922Y-122105867D01*
X131567636Y-121846977D01*
X131505656Y-121731020D01*
X131265565Y-121664040D01*
X130479605Y-122450000D01*
X130120395Y-122450000D01*
X130106253Y-122435858D01*
X130285858Y-122256253D01*
X130300000Y-122270395D01*
X131085960Y-121484435D01*
X131018980Y-121244344D01*
X130769952Y-121127244D01*
X130502865Y-121060977D01*
X130227983Y-121048090D01*
X129955867Y-121089078D01*
X129929840Y-121098456D01*
X129952312Y-121031917D01*
X129050000Y-120129605D01*
X128147688Y-121031917D01*
X123881533Y-121031917D01*
X123982526Y-120964436D01*
X124164436Y-120782526D01*
X124307362Y-120568623D01*
X124405811Y-120330946D01*
X124456000Y-120078630D01*
X124456000Y-120015562D01*
X127483824Y-120015562D01*
X127526708Y-120319848D01*
X127628132Y-120609921D01*
X127711347Y-120765607D01*
X127968083Y-120852312D01*
X128870395Y-119950000D01*
X129229605Y-119950000D01*
X130131917Y-120852312D01*
X130388653Y-120765607D01*
X130522048Y-120488777D01*
X130598873Y-120191243D01*
X130616176Y-119884438D01*
X130573292Y-119580152D01*
X130471868Y-119290079D01*
X130388653Y-119134393D01*
X130131917Y-119047688D01*
X129229605Y-119950000D01*
X128870395Y-119950000D01*
X127968083Y-119047688D01*
X127711347Y-119134393D01*
X127577952Y-119411223D01*
X127501127Y-119708757D01*
X127483824Y-120015562D01*
X124456000Y-120015562D01*
X124456000Y-119821370D01*
X124405811Y-119569054D01*
X124307362Y-119331377D01*
X124164436Y-119117474D01*
X123982526Y-118935564D01*
X123881534Y-118868083D01*
X128147688Y-118868083D01*
X129050000Y-119770395D01*
X129952312Y-118868083D01*
X129865607Y-118611347D01*
X129588777Y-118477952D01*
X129291243Y-118401127D01*
X128984438Y-118383824D01*
X128680152Y-118426708D01*
X128390079Y-118528132D01*
X128234393Y-118611347D01*
X128147688Y-118868083D01*
X123881534Y-118868083D01*
X123768623Y-118792638D01*
X123530946Y-118694189D01*
X123278630Y-118644000D01*
X123021370Y-118644000D01*
X122769054Y-118694189D01*
X122531377Y-118792638D01*
X122317474Y-118935564D01*
X122135564Y-119117474D01*
X121992638Y-119331377D01*
X121894189Y-119569054D01*
X121844000Y-119821370D01*
X117707288Y-119821370D01*
X117673292Y-119580152D01*
X117571868Y-119290079D01*
X117488653Y-119134393D01*
X117231917Y-119047688D01*
X116329605Y-119950000D01*
X115970395Y-119950000D01*
X115068083Y-119047688D01*
X114811347Y-119134393D01*
X114677952Y-119411223D01*
X114631000Y-119593062D01*
X114631000Y-118868083D01*
X115247688Y-118868083D01*
X116150000Y-119770395D01*
X117052312Y-118868083D01*
X116965607Y-118611347D01*
X116688777Y-118477952D01*
X116391243Y-118401127D01*
X116084438Y-118383824D01*
X115780152Y-118426708D01*
X115490079Y-118528132D01*
X115334393Y-118611347D01*
X115247688Y-118868083D01*
X114631000Y-118868083D01*
X114631000Y-111814738D01*
X115119000Y-111814738D01*
X115119000Y-112185262D01*
X115191286Y-112548667D01*
X115333080Y-112890987D01*
X115538932Y-113199067D01*
X115800933Y-113461068D01*
X116109013Y-113666920D01*
X116451333Y-113808714D01*
X116814738Y-113881000D01*
X117185262Y-113881000D01*
X117548667Y-113808714D01*
X117890987Y-113666920D01*
X118199067Y-113461068D01*
X118461068Y-113199067D01*
X118666920Y-112890987D01*
X118808714Y-112548667D01*
X118881000Y-112185262D01*
X118881000Y-111814738D01*
X118808714Y-111451333D01*
X118666920Y-111109013D01*
X118461068Y-110800933D01*
X118199067Y-110538932D01*
X117890987Y-110333080D01*
X117548667Y-110191286D01*
X117185262Y-110119000D01*
X116814738Y-110119000D01*
X116451333Y-110191286D01*
X116109013Y-110333080D01*
X115800933Y-110538932D01*
X115538932Y-110800933D01*
X115333080Y-111109013D01*
X115191286Y-111451333D01*
X115119000Y-111814738D01*
X114631000Y-111814738D01*
X114631000Y-102566728D01*
X114726458Y-102595685D01*
X114849900Y-102607843D01*
X115650100Y-102607843D01*
X115773542Y-102595685D01*
X115892240Y-102559678D01*
X116001633Y-102501207D01*
X116097517Y-102422517D01*
X116176207Y-102326633D01*
X116234678Y-102217240D01*
X116270685Y-102098542D01*
X116282843Y-101975100D01*
X116282843Y-101424900D01*
X116270685Y-101301458D01*
X116238650Y-101195855D01*
X116314547Y-101110149D01*
X116429184Y-100913784D01*
X116493964Y-100735810D01*
X116368163Y-100557000D01*
X115377000Y-100557000D01*
X115377000Y-100577000D01*
X115123000Y-100577000D01*
X115123000Y-100557000D01*
X115103000Y-100557000D01*
X115103000Y-100303000D01*
X115123000Y-100303000D01*
X115123000Y-100283000D01*
X115377000Y-100283000D01*
X115377000Y-100303000D01*
X116368163Y-100303000D01*
X116493964Y-100124190D01*
X116429184Y-99946216D01*
X116314547Y-99749851D01*
X116172662Y-99589627D01*
X116216084Y-99508388D01*
X116267890Y-99337607D01*
X116285383Y-99160000D01*
X116267890Y-98982393D01*
X116216084Y-98811612D01*
X116131956Y-98654218D01*
X116018738Y-98516262D01*
X115880782Y-98403044D01*
X115723388Y-98318916D01*
X115552607Y-98267110D01*
X115419501Y-98254000D01*
X115080499Y-98254000D01*
X114947393Y-98267110D01*
X114776612Y-98318916D01*
X114631000Y-98396746D01*
X114631000Y-93920600D01*
X116982090Y-93920600D01*
X117105776Y-94123000D01*
X118123000Y-94123000D01*
X118123000Y-94103000D01*
X118377000Y-94103000D01*
X118377000Y-94123000D01*
X118397000Y-94123000D01*
X118397000Y-94377000D01*
X118377000Y-94377000D01*
X118377000Y-94397000D01*
X118123000Y-94397000D01*
X118123000Y-94377000D01*
X117105776Y-94377000D01*
X116982090Y-94579400D01*
X117012762Y-94680528D01*
X117120527Y-94913629D01*
X117271697Y-95121227D01*
X117460463Y-95295344D01*
X117626283Y-95396714D01*
X117576839Y-95429751D01*
X117429751Y-95576839D01*
X117314185Y-95749796D01*
X117234581Y-95941976D01*
X117194000Y-96145993D01*
X117194000Y-96354007D01*
X117234581Y-96558024D01*
X117314185Y-96750204D01*
X117429751Y-96923161D01*
X117576839Y-97070249D01*
X117749796Y-97185815D01*
X117904751Y-97250000D01*
X117749796Y-97314185D01*
X117576839Y-97429751D01*
X117429751Y-97576839D01*
X117314185Y-97749796D01*
X117234581Y-97941976D01*
X117194000Y-98145993D01*
X117194000Y-98354007D01*
X117234581Y-98558024D01*
X117314185Y-98750204D01*
X117429751Y-98923161D01*
X117576839Y-99070249D01*
X117749796Y-99185815D01*
X117904751Y-99250000D01*
X117749796Y-99314185D01*
X117576839Y-99429751D01*
X117429751Y-99576839D01*
X117314185Y-99749796D01*
X117234581Y-99941976D01*
X117194000Y-100145993D01*
X117194000Y-100354007D01*
X117234581Y-100558024D01*
X117314185Y-100750204D01*
X117429751Y-100923161D01*
X117576839Y-101070249D01*
X117749796Y-101185815D01*
X117769000Y-101193770D01*
X117769001Y-102476364D01*
X117766673Y-102500000D01*
X117775960Y-102594292D01*
X117791646Y-102646000D01*
X117803465Y-102684961D01*
X117848129Y-102768522D01*
X117908237Y-102841764D01*
X117926588Y-102856824D01*
X126972955Y-111903192D01*
X126969000Y-111923078D01*
X126969000Y-112076922D01*
X126999013Y-112227809D01*
X127057887Y-112369942D01*
X127143358Y-112497859D01*
X127252141Y-112606642D01*
X127380058Y-112692113D01*
X127522191Y-112750987D01*
X127673078Y-112781000D01*
X127826922Y-112781000D01*
X127977809Y-112750987D01*
X128119942Y-112692113D01*
X128247859Y-112606642D01*
X128356642Y-112497859D01*
X128442113Y-112369942D01*
X128500987Y-112227809D01*
X128531000Y-112076922D01*
X128531000Y-111923078D01*
X128500987Y-111772191D01*
X128442113Y-111630058D01*
X128356642Y-111502141D01*
X128247859Y-111393358D01*
X128119942Y-111307887D01*
X127977809Y-111249013D01*
X127826922Y-111219000D01*
X127673078Y-111219000D01*
X127653192Y-111222955D01*
X124603315Y-108173078D01*
X128469000Y-108173078D01*
X128469000Y-108326922D01*
X128499013Y-108477809D01*
X128557887Y-108619942D01*
X128643358Y-108747859D01*
X128752141Y-108856642D01*
X128880058Y-108942113D01*
X129022191Y-109000987D01*
X129173078Y-109031000D01*
X129326922Y-109031000D01*
X129477809Y-109000987D01*
X129619942Y-108942113D01*
X129747859Y-108856642D01*
X129856642Y-108747859D01*
X129942113Y-108619942D01*
X130000987Y-108477809D01*
X130031000Y-108326922D01*
X130031000Y-108173078D01*
X130000987Y-108022191D01*
X129942113Y-107880058D01*
X129856642Y-107752141D01*
X129747859Y-107643358D01*
X129619942Y-107557887D01*
X129477809Y-107499013D01*
X129326922Y-107469000D01*
X129173078Y-107469000D01*
X129022191Y-107499013D01*
X128880058Y-107557887D01*
X128752141Y-107643358D01*
X128643358Y-107752141D01*
X128557887Y-107880058D01*
X128499013Y-108022191D01*
X128469000Y-108173078D01*
X124603315Y-108173078D01*
X118731000Y-102300764D01*
X118731000Y-101193770D01*
X118750204Y-101185815D01*
X118923161Y-101070249D01*
X119070249Y-100923161D01*
X119185815Y-100750204D01*
X119250000Y-100595249D01*
X119314185Y-100750204D01*
X119429751Y-100923161D01*
X119576839Y-101070249D01*
X119749796Y-101185815D01*
X119941976Y-101265419D01*
X120145993Y-101306000D01*
X120354007Y-101306000D01*
X120558024Y-101265419D01*
X120750204Y-101185815D01*
X120923161Y-101070249D01*
X121070249Y-100923161D01*
X121185815Y-100750204D01*
X121265419Y-100558024D01*
X121306000Y-100354007D01*
X121306000Y-100145993D01*
X121265419Y-99941976D01*
X121185815Y-99749796D01*
X121070249Y-99576839D01*
X120923161Y-99429751D01*
X120750204Y-99314185D01*
X120595249Y-99250000D01*
X120750204Y-99185815D01*
X120923161Y-99070249D01*
X121070249Y-98923161D01*
X121185815Y-98750204D01*
X121265419Y-98558024D01*
X121306000Y-98354007D01*
X121306000Y-98145993D01*
X121265419Y-97941976D01*
X121185815Y-97749796D01*
X121070249Y-97576839D01*
X120923161Y-97429751D01*
X120750204Y-97314185D01*
X120595249Y-97250000D01*
X120750204Y-97185815D01*
X120923161Y-97070249D01*
X121070249Y-96923161D01*
X121185815Y-96750204D01*
X121265419Y-96558024D01*
X121306000Y-96354007D01*
X121306000Y-96145993D01*
X121265419Y-95941976D01*
X121185815Y-95749796D01*
X121070249Y-95576839D01*
X120923161Y-95429751D01*
X120750204Y-95314185D01*
X120595249Y-95250000D01*
X120750204Y-95185815D01*
X120923161Y-95070249D01*
X121070249Y-94923161D01*
X121185815Y-94750204D01*
X121265419Y-94558024D01*
X121306000Y-94354007D01*
X121306000Y-94145993D01*
X121265419Y-93941976D01*
X121185815Y-93749796D01*
X121070249Y-93576839D01*
X120923161Y-93429751D01*
X120750204Y-93314185D01*
X120595249Y-93250000D01*
X120750204Y-93185815D01*
X120923161Y-93070249D01*
X121070249Y-92923161D01*
X121169748Y-92774249D01*
X121252141Y-92856642D01*
X121380058Y-92942113D01*
X121522191Y-93000987D01*
X121673078Y-93031000D01*
X121826922Y-93031000D01*
X121977809Y-93000987D01*
X122119942Y-92942113D01*
X122247859Y-92856642D01*
X122356642Y-92747859D01*
X122442113Y-92619942D01*
X122500987Y-92477809D01*
X122531000Y-92326922D01*
X122531000Y-92173078D01*
X122500987Y-92022191D01*
X122442113Y-91880058D01*
X122356642Y-91752141D01*
X122247859Y-91643358D01*
X122119942Y-91557887D01*
X121977809Y-91499013D01*
X121826922Y-91469000D01*
X121673078Y-91469000D01*
X121522191Y-91499013D01*
X121380058Y-91557887D01*
X121252141Y-91643358D01*
X121169748Y-91725751D01*
X121070249Y-91576839D01*
X120923161Y-91429751D01*
X120750204Y-91314185D01*
X120558024Y-91234581D01*
X120354007Y-91194000D01*
X120145993Y-91194000D01*
X119941976Y-91234581D01*
X119749796Y-91314185D01*
X119576839Y-91429751D01*
X119452491Y-91554099D01*
X119444374Y-91471690D01*
X119414239Y-91372350D01*
X119365304Y-91280798D01*
X119299448Y-91200552D01*
X119219202Y-91134696D01*
X119127650Y-91085761D01*
X119028310Y-91055626D01*
X118925000Y-91045451D01*
X117575000Y-91045451D01*
X117471690Y-91055626D01*
X117372350Y-91085761D01*
X117280798Y-91134696D01*
X117200552Y-91200552D01*
X117134696Y-91280798D01*
X117085761Y-91372350D01*
X117055626Y-91471690D01*
X117045451Y-91575000D01*
X117045451Y-92925000D01*
X117055626Y-93028310D01*
X117085761Y-93127650D01*
X117134696Y-93219202D01*
X117200552Y-93299448D01*
X117280798Y-93365304D01*
X117284281Y-93367166D01*
X117271697Y-93378773D01*
X117120527Y-93586371D01*
X117012762Y-93819472D01*
X116982090Y-93920600D01*
X114631000Y-93920600D01*
X114631000Y-87314738D01*
X115119000Y-87314738D01*
X115119000Y-87685262D01*
X115191286Y-88048667D01*
X115333080Y-88390987D01*
X115538932Y-88699067D01*
X115800933Y-88961068D01*
X116109013Y-89166920D01*
X116451333Y-89308714D01*
X116814738Y-89381000D01*
X117185262Y-89381000D01*
X117548667Y-89308714D01*
X117890987Y-89166920D01*
X118199067Y-88961068D01*
X118461068Y-88699067D01*
X118666920Y-88390987D01*
X118808714Y-88048667D01*
X118881000Y-87685262D01*
X118881000Y-87314738D01*
X118808714Y-86951333D01*
X118666920Y-86609013D01*
X118461068Y-86300933D01*
X118199067Y-86038932D01*
X117890987Y-85833080D01*
X117548667Y-85691286D01*
X117185262Y-85619000D01*
X116814738Y-85619000D01*
X116451333Y-85691286D01*
X116109013Y-85833080D01*
X115800933Y-86038932D01*
X115538932Y-86300933D01*
X115333080Y-86609013D01*
X115191286Y-86951333D01*
X115119000Y-87314738D01*
X114631000Y-87314738D01*
X114631000Y-85631000D01*
X114969002Y-85631000D01*
X115000000Y-85634053D01*
X115030998Y-85631000D01*
X115123698Y-85621870D01*
X115242642Y-85585789D01*
X115352261Y-85527196D01*
X115448343Y-85448343D01*
X115527196Y-85352261D01*
X115585789Y-85242642D01*
X115621870Y-85123698D01*
X115634053Y-85000000D01*
X115631000Y-84969002D01*
X115631000Y-78859453D01*
X116933000Y-78859453D01*
X116933000Y-79140547D01*
X116987838Y-79416241D01*
X117095409Y-79675938D01*
X117251576Y-79909660D01*
X117433000Y-80091084D01*
X117433001Y-84564463D01*
X117428516Y-84610000D01*
X117446414Y-84791723D01*
X117499420Y-84966463D01*
X117585499Y-85127505D01*
X117672312Y-85233287D01*
X117672317Y-85233292D01*
X117701342Y-85268659D01*
X117736709Y-85297684D01*
X125823000Y-93383976D01*
X125823001Y-97999869D01*
X125818516Y-98045406D01*
X125823001Y-98090943D01*
X125823001Y-98090944D01*
X125836414Y-98227130D01*
X125852493Y-98280136D01*
X125889420Y-98401869D01*
X125975499Y-98562911D01*
X126062312Y-98668693D01*
X126062317Y-98668698D01*
X126091342Y-98704065D01*
X126126708Y-98733090D01*
X130573000Y-103179382D01*
X130573001Y-111468500D01*
X130497859Y-111393358D01*
X130369942Y-111307887D01*
X130227809Y-111249013D01*
X130076922Y-111219000D01*
X129923078Y-111219000D01*
X129772191Y-111249013D01*
X129630058Y-111307887D01*
X129502141Y-111393358D01*
X129393358Y-111502141D01*
X129307887Y-111630058D01*
X129249013Y-111772191D01*
X129219000Y-111923078D01*
X129219000Y-112076922D01*
X129222955Y-112096808D01*
X124596801Y-116722963D01*
X124576933Y-116719011D01*
X124423089Y-116719011D01*
X124272202Y-116749024D01*
X124130069Y-116807898D01*
X124002152Y-116893369D01*
X123893369Y-117002152D01*
X123807898Y-117130069D01*
X123749024Y-117272202D01*
X123719011Y-117423089D01*
X123719011Y-117576933D01*
X123749024Y-117727820D01*
X123807898Y-117869953D01*
X123893369Y-117997870D01*
X124002152Y-118106653D01*
X124130069Y-118192124D01*
X124272202Y-118250998D01*
X124423089Y-118281011D01*
X124576933Y-118281011D01*
X124727820Y-118250998D01*
X124869953Y-118192124D01*
X124997870Y-118106653D01*
X125106653Y-117997870D01*
X125192124Y-117869953D01*
X125250998Y-117727820D01*
X125281011Y-117576933D01*
X125281011Y-117423089D01*
X125277052Y-117403184D01*
X129903192Y-112777045D01*
X129923078Y-112781000D01*
X130076922Y-112781000D01*
X130227809Y-112750987D01*
X130369942Y-112692113D01*
X130497859Y-112606642D01*
X130573001Y-112531500D01*
X130573001Y-113855181D01*
X130501829Y-113941905D01*
X130429791Y-114076679D01*
X130385430Y-114222917D01*
X130370451Y-114374999D01*
X130370451Y-115625001D01*
X130385430Y-115777083D01*
X130429791Y-115923321D01*
X130501829Y-116058095D01*
X130573001Y-116144819D01*
X130573001Y-116704463D01*
X130568516Y-116750000D01*
X130586414Y-116931723D01*
X130639420Y-117106463D01*
X130725499Y-117267505D01*
X130812312Y-117373287D01*
X130812317Y-117373292D01*
X130841342Y-117408659D01*
X130876708Y-117437683D01*
X132262321Y-118823297D01*
X132291346Y-118858664D01*
X132326713Y-118887689D01*
X132326717Y-118887693D01*
X132432499Y-118974507D01*
X132593541Y-119060585D01*
X132768281Y-119113592D01*
X132904467Y-119127005D01*
X132904478Y-119127005D01*
X132950005Y-119131489D01*
X132995532Y-119127005D01*
X135029196Y-119127005D01*
X134892638Y-119331377D01*
X134794189Y-119569054D01*
X134744000Y-119821370D01*
X134744000Y-120078630D01*
X134794189Y-120330946D01*
X134892638Y-120568623D01*
X135035564Y-120782526D01*
X135217474Y-120964436D01*
X135431377Y-121107362D01*
X135669054Y-121205811D01*
X135921370Y-121256000D01*
X136178630Y-121256000D01*
X136430946Y-121205811D01*
X136668623Y-121107362D01*
X136781533Y-121031917D01*
X141047688Y-121031917D01*
X141134393Y-121288653D01*
X141411223Y-121422048D01*
X141708757Y-121498873D01*
X142015562Y-121516176D01*
X142171447Y-121494207D01*
X142118023Y-121547631D01*
X142234433Y-121664041D01*
X141994344Y-121731020D01*
X141877244Y-121980048D01*
X141810977Y-122247135D01*
X141798090Y-122522017D01*
X141839078Y-122794133D01*
X141932364Y-123053023D01*
X141994344Y-123168980D01*
X142234435Y-123235960D01*
X143020395Y-122450000D01*
X143379605Y-122450000D01*
X144165565Y-123235960D01*
X144405656Y-123168980D01*
X144522756Y-122919952D01*
X144589023Y-122652865D01*
X144601910Y-122377983D01*
X144595801Y-122337424D01*
X146557000Y-122337424D01*
X146557000Y-122562576D01*
X146600925Y-122783401D01*
X146687087Y-122991413D01*
X146812174Y-123178620D01*
X146971380Y-123337826D01*
X147158587Y-123462913D01*
X147366599Y-123549075D01*
X147587424Y-123593000D01*
X147812576Y-123593000D01*
X148033401Y-123549075D01*
X148241413Y-123462913D01*
X148312274Y-123415565D01*
X155314040Y-123415565D01*
X155381020Y-123655656D01*
X155630048Y-123772756D01*
X155897135Y-123839023D01*
X156172017Y-123851910D01*
X156444133Y-123810922D01*
X156703023Y-123717636D01*
X156818980Y-123655656D01*
X156885960Y-123415565D01*
X156100000Y-122629605D01*
X155314040Y-123415565D01*
X148312274Y-123415565D01*
X148428620Y-123337826D01*
X148587826Y-123178620D01*
X148712913Y-122991413D01*
X148799075Y-122783401D01*
X148843000Y-122562576D01*
X148843000Y-122337424D01*
X148799075Y-122116599D01*
X148712913Y-121908587D01*
X148587826Y-121721380D01*
X148428620Y-121562174D01*
X148241413Y-121437087D01*
X148033401Y-121350925D01*
X147812576Y-121307000D01*
X147587424Y-121307000D01*
X147366599Y-121350925D01*
X147158587Y-121437087D01*
X146971380Y-121562174D01*
X146812174Y-121721380D01*
X146687087Y-121908587D01*
X146600925Y-122116599D01*
X146557000Y-122337424D01*
X144595801Y-122337424D01*
X144560922Y-122105867D01*
X144467636Y-121846977D01*
X144405656Y-121731020D01*
X144165565Y-121664040D01*
X143379605Y-122450000D01*
X143020395Y-122450000D01*
X143006253Y-122435858D01*
X143185858Y-122256253D01*
X143200000Y-122270395D01*
X143985960Y-121484435D01*
X143918980Y-121244344D01*
X143669952Y-121127244D01*
X143402865Y-121060977D01*
X143127983Y-121048090D01*
X142855867Y-121089078D01*
X142829840Y-121098456D01*
X142852312Y-121031917D01*
X141950000Y-120129605D01*
X141047688Y-121031917D01*
X136781533Y-121031917D01*
X136882526Y-120964436D01*
X137064436Y-120782526D01*
X137207362Y-120568623D01*
X137305811Y-120330946D01*
X137356000Y-120078630D01*
X137356000Y-119821370D01*
X137305811Y-119569054D01*
X137207362Y-119331377D01*
X137070804Y-119127005D01*
X140633223Y-119127005D01*
X140611347Y-119134393D01*
X140477952Y-119411223D01*
X140401127Y-119708757D01*
X140383824Y-120015562D01*
X140426708Y-120319848D01*
X140528132Y-120609921D01*
X140611347Y-120765607D01*
X140868083Y-120852312D01*
X141770395Y-119950000D01*
X141756253Y-119935858D01*
X141935858Y-119756253D01*
X141950000Y-119770395D01*
X141964143Y-119756253D01*
X142143748Y-119935858D01*
X142129605Y-119950000D01*
X143031917Y-120852312D01*
X143288653Y-120765607D01*
X143422048Y-120488777D01*
X143498873Y-120191243D01*
X143516176Y-119884438D01*
X143507288Y-119821370D01*
X147644000Y-119821370D01*
X147644000Y-120078630D01*
X147694189Y-120330946D01*
X147792638Y-120568623D01*
X147935564Y-120782526D01*
X148117474Y-120964436D01*
X148331377Y-121107362D01*
X148569054Y-121205811D01*
X148821370Y-121256000D01*
X149078630Y-121256000D01*
X149330946Y-121205811D01*
X149568623Y-121107362D01*
X149681533Y-121031917D01*
X153947688Y-121031917D01*
X154034393Y-121288653D01*
X154311223Y-121422048D01*
X154608757Y-121498873D01*
X154915562Y-121516176D01*
X155071447Y-121494207D01*
X155018023Y-121547631D01*
X155134433Y-121664041D01*
X154894344Y-121731020D01*
X154777244Y-121980048D01*
X154710977Y-122247135D01*
X154698090Y-122522017D01*
X154739078Y-122794133D01*
X154832364Y-123053023D01*
X154894344Y-123168980D01*
X155134435Y-123235960D01*
X155920395Y-122450000D01*
X156279605Y-122450000D01*
X157065565Y-123235960D01*
X157305656Y-123168980D01*
X157422756Y-122919952D01*
X157489023Y-122652865D01*
X157501910Y-122377983D01*
X157495801Y-122337424D01*
X159457000Y-122337424D01*
X159457000Y-122562576D01*
X159500925Y-122783401D01*
X159587087Y-122991413D01*
X159712174Y-123178620D01*
X159871380Y-123337826D01*
X160058587Y-123462913D01*
X160266599Y-123549075D01*
X160487424Y-123593000D01*
X160712576Y-123593000D01*
X160933401Y-123549075D01*
X161141413Y-123462913D01*
X161328620Y-123337826D01*
X161487826Y-123178620D01*
X161612913Y-122991413D01*
X161699075Y-122783401D01*
X161743000Y-122562576D01*
X161743000Y-122337424D01*
X161699075Y-122116599D01*
X161612913Y-121908587D01*
X161487826Y-121721380D01*
X161328620Y-121562174D01*
X161141413Y-121437087D01*
X160933401Y-121350925D01*
X160712576Y-121307000D01*
X160487424Y-121307000D01*
X160266599Y-121350925D01*
X160058587Y-121437087D01*
X159871380Y-121562174D01*
X159712174Y-121721380D01*
X159587087Y-121908587D01*
X159500925Y-122116599D01*
X159457000Y-122337424D01*
X157495801Y-122337424D01*
X157460922Y-122105867D01*
X157367636Y-121846977D01*
X157305656Y-121731020D01*
X157065565Y-121664040D01*
X156279605Y-122450000D01*
X155920395Y-122450000D01*
X155906253Y-122435858D01*
X156085858Y-122256253D01*
X156100000Y-122270395D01*
X156885960Y-121484435D01*
X156818980Y-121244344D01*
X156569952Y-121127244D01*
X156302865Y-121060977D01*
X156027983Y-121048090D01*
X155755867Y-121089078D01*
X155729840Y-121098456D01*
X155752312Y-121031917D01*
X154850000Y-120129605D01*
X153947688Y-121031917D01*
X149681533Y-121031917D01*
X149782526Y-120964436D01*
X149964436Y-120782526D01*
X150107362Y-120568623D01*
X150205811Y-120330946D01*
X150256000Y-120078630D01*
X150256000Y-120015562D01*
X153283824Y-120015562D01*
X153326708Y-120319848D01*
X153428132Y-120609921D01*
X153511347Y-120765607D01*
X153768083Y-120852312D01*
X154670395Y-119950000D01*
X155029605Y-119950000D01*
X155931917Y-120852312D01*
X156188653Y-120765607D01*
X156322048Y-120488777D01*
X156398873Y-120191243D01*
X156416176Y-119884438D01*
X156407288Y-119821370D01*
X160544000Y-119821370D01*
X160544000Y-120078630D01*
X160594189Y-120330946D01*
X160692638Y-120568623D01*
X160835564Y-120782526D01*
X161017474Y-120964436D01*
X161231377Y-121107362D01*
X161469054Y-121205811D01*
X161721370Y-121256000D01*
X161978630Y-121256000D01*
X162230946Y-121205811D01*
X162468623Y-121107362D01*
X162682526Y-120964436D01*
X162864436Y-120782526D01*
X163007362Y-120568623D01*
X163105811Y-120330946D01*
X163156000Y-120078630D01*
X163156000Y-119821370D01*
X163105811Y-119569054D01*
X163007362Y-119331377D01*
X162864436Y-119117474D01*
X162682526Y-118935564D01*
X162468623Y-118792638D01*
X162230946Y-118694189D01*
X161978630Y-118644000D01*
X161721370Y-118644000D01*
X161469054Y-118694189D01*
X161231377Y-118792638D01*
X161017474Y-118935564D01*
X160835564Y-119117474D01*
X160692638Y-119331377D01*
X160594189Y-119569054D01*
X160544000Y-119821370D01*
X156407288Y-119821370D01*
X156373292Y-119580152D01*
X156271868Y-119290079D01*
X156188653Y-119134393D01*
X155931917Y-119047688D01*
X155029605Y-119950000D01*
X154670395Y-119950000D01*
X153768083Y-119047688D01*
X153511347Y-119134393D01*
X153377952Y-119411223D01*
X153301127Y-119708757D01*
X153283824Y-120015562D01*
X150256000Y-120015562D01*
X150256000Y-119821370D01*
X150205811Y-119569054D01*
X150107362Y-119331377D01*
X149964436Y-119117474D01*
X149782526Y-118935564D01*
X149681534Y-118868083D01*
X153947688Y-118868083D01*
X154850000Y-119770395D01*
X155752312Y-118868083D01*
X155665607Y-118611347D01*
X155388777Y-118477952D01*
X155091243Y-118401127D01*
X154784438Y-118383824D01*
X154480152Y-118426708D01*
X154190079Y-118528132D01*
X154034393Y-118611347D01*
X153947688Y-118868083D01*
X149681534Y-118868083D01*
X149568623Y-118792638D01*
X149330946Y-118694189D01*
X149078630Y-118644000D01*
X148821370Y-118644000D01*
X148569054Y-118694189D01*
X148331377Y-118792638D01*
X148117474Y-118935564D01*
X147935564Y-119117474D01*
X147792638Y-119331377D01*
X147694189Y-119569054D01*
X147644000Y-119821370D01*
X143507288Y-119821370D01*
X143473292Y-119580152D01*
X143371868Y-119290079D01*
X143288653Y-119134393D01*
X143266777Y-119127005D01*
X146254468Y-119127005D01*
X146299995Y-119131489D01*
X146345522Y-119127005D01*
X146345533Y-119127005D01*
X146481719Y-119113592D01*
X146656459Y-119060585D01*
X146817500Y-118974506D01*
X146958654Y-118858664D01*
X146987683Y-118823292D01*
X149406427Y-116404549D01*
X149850001Y-116404549D01*
X150002083Y-116389570D01*
X150148321Y-116345209D01*
X150283095Y-116273171D01*
X150401225Y-116176225D01*
X150498171Y-116058095D01*
X150515725Y-116025254D01*
X150543693Y-116066725D01*
X150716526Y-116238078D01*
X150919467Y-116372421D01*
X151144718Y-116464591D01*
X151182391Y-116468462D01*
X151373000Y-116343731D01*
X151373000Y-115127000D01*
X151353000Y-115127000D01*
X151353000Y-114873000D01*
X151373000Y-114873000D01*
X151373000Y-114853000D01*
X151627000Y-114853000D01*
X151627000Y-114873000D01*
X151647000Y-114873000D01*
X151647000Y-115127000D01*
X151627000Y-115127000D01*
X151627000Y-116343731D01*
X151817609Y-116468462D01*
X151855282Y-116464591D01*
X152080533Y-116372421D01*
X152283474Y-116238078D01*
X152456307Y-116066725D01*
X152592390Y-115864946D01*
X152641007Y-115748986D01*
X152680383Y-115822651D01*
X152802973Y-115972028D01*
X152952350Y-116094618D01*
X153122772Y-116185711D01*
X153307691Y-116241805D01*
X153500000Y-116260746D01*
X153692310Y-116241805D01*
X153877229Y-116185711D01*
X154047651Y-116094618D01*
X154197028Y-115972028D01*
X154319618Y-115822651D01*
X154410711Y-115652229D01*
X154466805Y-115467309D01*
X154481000Y-115323186D01*
X154481000Y-114676814D01*
X154519000Y-114676814D01*
X154519000Y-115323187D01*
X154533195Y-115467310D01*
X154589289Y-115652229D01*
X154680383Y-115822651D01*
X154802973Y-115972028D01*
X154952350Y-116094618D01*
X155122772Y-116185711D01*
X155307691Y-116241805D01*
X155500000Y-116260746D01*
X155692310Y-116241805D01*
X155877229Y-116185711D01*
X156047651Y-116094618D01*
X156197028Y-115972028D01*
X156319618Y-115822651D01*
X156410711Y-115652229D01*
X156466805Y-115467309D01*
X156481000Y-115323186D01*
X156481000Y-114676813D01*
X156466805Y-114532690D01*
X156410711Y-114347771D01*
X156319618Y-114177349D01*
X156197028Y-114027972D01*
X156047651Y-113905382D01*
X155877228Y-113814289D01*
X155692309Y-113758195D01*
X155500000Y-113739254D01*
X155307690Y-113758195D01*
X155122771Y-113814289D01*
X154952349Y-113905382D01*
X154802972Y-114027972D01*
X154680382Y-114177349D01*
X154589289Y-114347772D01*
X154533195Y-114532691D01*
X154519000Y-114676814D01*
X154481000Y-114676814D01*
X154481000Y-114676813D01*
X154466805Y-114532690D01*
X154410711Y-114347771D01*
X154319618Y-114177349D01*
X154197028Y-114027972D01*
X154047651Y-113905382D01*
X153877228Y-113814289D01*
X153692309Y-113758195D01*
X153500000Y-113739254D01*
X153307690Y-113758195D01*
X153122771Y-113814289D01*
X152952349Y-113905382D01*
X152802972Y-114027972D01*
X152680382Y-114177349D01*
X152641007Y-114251014D01*
X152592390Y-114135054D01*
X152456307Y-113933275D01*
X152339448Y-113817417D01*
X152368512Y-113801882D01*
X152441754Y-113741774D01*
X152456820Y-113723416D01*
X154365498Y-111814738D01*
X159119000Y-111814738D01*
X159119000Y-112185262D01*
X159191286Y-112548667D01*
X159333080Y-112890987D01*
X159538932Y-113199067D01*
X159800933Y-113461068D01*
X160109013Y-113666920D01*
X160451333Y-113808714D01*
X160814738Y-113881000D01*
X161185262Y-113881000D01*
X161548667Y-113808714D01*
X161890987Y-113666920D01*
X162199067Y-113461068D01*
X162461068Y-113199067D01*
X162666920Y-112890987D01*
X162808714Y-112548667D01*
X162881000Y-112185262D01*
X162881000Y-111814738D01*
X162808714Y-111451333D01*
X162666920Y-111109013D01*
X162461068Y-110800933D01*
X162199067Y-110538932D01*
X161890987Y-110333080D01*
X161548667Y-110191286D01*
X161185262Y-110119000D01*
X160814738Y-110119000D01*
X160451333Y-110191286D01*
X160109013Y-110333080D01*
X159800933Y-110538932D01*
X159538932Y-110800933D01*
X159333080Y-111109013D01*
X159191286Y-111451333D01*
X159119000Y-111814738D01*
X154365498Y-111814738D01*
X159903192Y-106277045D01*
X159923078Y-106281000D01*
X160076922Y-106281000D01*
X160227809Y-106250987D01*
X160369942Y-106192113D01*
X160497859Y-106106642D01*
X160606642Y-105997859D01*
X160692113Y-105869942D01*
X160750987Y-105727809D01*
X160781000Y-105576922D01*
X160781000Y-105423078D01*
X160750987Y-105272191D01*
X160692113Y-105130058D01*
X160606642Y-105002141D01*
X160497859Y-104893358D01*
X160369942Y-104807887D01*
X160227809Y-104749013D01*
X160076922Y-104719000D01*
X159923078Y-104719000D01*
X159772191Y-104749013D01*
X159630058Y-104807887D01*
X159606827Y-104823409D01*
X159651872Y-104768522D01*
X159696536Y-104684961D01*
X159724040Y-104594292D01*
X159728614Y-104547857D01*
X159733327Y-104500000D01*
X159731000Y-104476374D01*
X159731000Y-99523616D01*
X159733327Y-99499989D01*
X159724040Y-99405697D01*
X159705321Y-99343991D01*
X159696536Y-99315029D01*
X159651872Y-99231468D01*
X159591764Y-99158226D01*
X159573412Y-99143165D01*
X158527054Y-98096808D01*
X158531010Y-98076922D01*
X158531010Y-97923078D01*
X158500997Y-97772191D01*
X158442123Y-97630058D01*
X158356652Y-97502141D01*
X158247869Y-97393358D01*
X158119952Y-97307887D01*
X157977819Y-97249013D01*
X157826932Y-97219000D01*
X157673088Y-97219000D01*
X157522201Y-97249013D01*
X157380068Y-97307887D01*
X157252151Y-97393358D01*
X157143368Y-97502141D01*
X157057897Y-97630058D01*
X156999023Y-97772191D01*
X156969010Y-97923078D01*
X156969010Y-98076922D01*
X156999023Y-98227809D01*
X157057897Y-98369942D01*
X157143368Y-98497859D01*
X157252151Y-98606642D01*
X157380068Y-98692113D01*
X157522201Y-98750987D01*
X157673088Y-98781000D01*
X157826932Y-98781000D01*
X157846818Y-98777044D01*
X158769001Y-99699228D01*
X158769000Y-104300763D01*
X157941146Y-105128617D01*
X157856642Y-105002147D01*
X157747859Y-104893364D01*
X157619942Y-104807893D01*
X157477809Y-104749019D01*
X157326922Y-104719006D01*
X157173078Y-104719006D01*
X157022191Y-104749019D01*
X156880058Y-104807893D01*
X156752141Y-104893364D01*
X156643358Y-105002147D01*
X156557887Y-105130064D01*
X156499013Y-105272197D01*
X156469000Y-105423084D01*
X156469000Y-105576928D01*
X156472955Y-105596814D01*
X150550770Y-111519000D01*
X147117907Y-111519000D01*
X147106642Y-111502141D01*
X146997859Y-111393358D01*
X146869942Y-111307887D01*
X146727809Y-111249013D01*
X146576922Y-111219000D01*
X146423078Y-111219000D01*
X146272191Y-111249013D01*
X146130058Y-111307887D01*
X146002141Y-111393358D01*
X145893358Y-111502141D01*
X145807887Y-111630058D01*
X145749013Y-111772191D01*
X145719000Y-111923078D01*
X145719000Y-111997261D01*
X145576922Y-111969000D01*
X145423078Y-111969000D01*
X145272191Y-111999013D01*
X145130058Y-112057887D01*
X145002141Y-112143358D01*
X144893358Y-112252141D01*
X144807887Y-112380058D01*
X144749013Y-112522191D01*
X144719000Y-112673078D01*
X144719000Y-112826922D01*
X144749013Y-112977809D01*
X144807887Y-113119942D01*
X144893358Y-113247859D01*
X145002141Y-113356642D01*
X145130058Y-113442113D01*
X145272191Y-113500987D01*
X145423078Y-113531000D01*
X145576922Y-113531000D01*
X145727809Y-113500987D01*
X145869942Y-113442113D01*
X145997859Y-113356642D01*
X146106642Y-113247859D01*
X146117907Y-113231000D01*
X148338764Y-113231000D01*
X147050764Y-114519000D01*
X144462652Y-114519000D01*
X144410711Y-114347771D01*
X144319618Y-114177349D01*
X144197028Y-114027972D01*
X144047651Y-113905382D01*
X143877228Y-113814289D01*
X143692309Y-113758195D01*
X143500000Y-113739254D01*
X143307690Y-113758195D01*
X143122771Y-113814289D01*
X142952349Y-113905382D01*
X142802972Y-114027972D01*
X142680382Y-114177349D01*
X142589289Y-114347772D01*
X142533195Y-114532691D01*
X142519000Y-114676814D01*
X142519000Y-115323187D01*
X142533195Y-115467310D01*
X142589289Y-115652229D01*
X142680383Y-115822651D01*
X142802973Y-115972028D01*
X142952350Y-116094618D01*
X143122772Y-116185711D01*
X143307691Y-116241805D01*
X143500000Y-116260746D01*
X143692310Y-116241805D01*
X143877229Y-116185711D01*
X144047651Y-116094618D01*
X144197028Y-115972028D01*
X144319618Y-115822651D01*
X144410711Y-115652229D01*
X144462652Y-115481000D01*
X147226374Y-115481000D01*
X147250000Y-115483327D01*
X147273626Y-115481000D01*
X147344292Y-115474040D01*
X147434961Y-115446536D01*
X147518522Y-115401872D01*
X147591764Y-115341764D01*
X147606830Y-115323406D01*
X148370451Y-114559785D01*
X148370451Y-114818573D01*
X145916020Y-117273005D01*
X133616794Y-117273005D01*
X133727809Y-117250923D01*
X133869942Y-117192049D01*
X133997859Y-117106578D01*
X134106642Y-116997795D01*
X134192113Y-116869878D01*
X134250987Y-116727745D01*
X134281000Y-116576858D01*
X134281000Y-116423014D01*
X134250987Y-116272127D01*
X134192113Y-116129994D01*
X134125685Y-116030577D01*
X134197028Y-115972028D01*
X134319618Y-115822651D01*
X134358993Y-115748986D01*
X134407610Y-115864946D01*
X134543693Y-116066725D01*
X134716526Y-116238078D01*
X134919467Y-116372421D01*
X135144718Y-116464591D01*
X135182391Y-116468462D01*
X135373000Y-116343731D01*
X135373000Y-115127000D01*
X135353000Y-115127000D01*
X135353000Y-114873000D01*
X135373000Y-114873000D01*
X135373000Y-113656269D01*
X135627000Y-113656269D01*
X135627000Y-114873000D01*
X135647000Y-114873000D01*
X135647000Y-115127000D01*
X135627000Y-115127000D01*
X135627000Y-116343731D01*
X135817609Y-116468462D01*
X135855282Y-116464591D01*
X136080533Y-116372421D01*
X136283474Y-116238078D01*
X136456307Y-116066725D01*
X136592390Y-115864946D01*
X136641007Y-115748986D01*
X136680383Y-115822651D01*
X136802973Y-115972028D01*
X136952350Y-116094618D01*
X137122772Y-116185711D01*
X137307691Y-116241805D01*
X137500000Y-116260746D01*
X137692310Y-116241805D01*
X137877229Y-116185711D01*
X138047651Y-116094618D01*
X138197028Y-115972028D01*
X138319618Y-115822651D01*
X138410711Y-115652229D01*
X138466805Y-115467309D01*
X138481000Y-115323186D01*
X138481000Y-114676814D01*
X138519000Y-114676814D01*
X138519000Y-115323187D01*
X138533195Y-115467310D01*
X138589289Y-115652229D01*
X138680383Y-115822651D01*
X138802973Y-115972028D01*
X138952350Y-116094618D01*
X139122772Y-116185711D01*
X139307691Y-116241805D01*
X139500000Y-116260746D01*
X139692310Y-116241805D01*
X139877229Y-116185711D01*
X140047651Y-116094618D01*
X140197028Y-115972028D01*
X140319618Y-115822651D01*
X140410711Y-115652229D01*
X140466805Y-115467309D01*
X140481000Y-115323186D01*
X140481000Y-114676814D01*
X140519000Y-114676814D01*
X140519000Y-115323187D01*
X140533195Y-115467310D01*
X140589289Y-115652229D01*
X140680383Y-115822651D01*
X140802973Y-115972028D01*
X140952350Y-116094618D01*
X141122772Y-116185711D01*
X141307691Y-116241805D01*
X141500000Y-116260746D01*
X141692310Y-116241805D01*
X141877229Y-116185711D01*
X142047651Y-116094618D01*
X142197028Y-115972028D01*
X142319618Y-115822651D01*
X142410711Y-115652229D01*
X142466805Y-115467309D01*
X142481000Y-115323186D01*
X142481000Y-114676813D01*
X142466805Y-114532690D01*
X142410711Y-114347771D01*
X142319618Y-114177349D01*
X142197028Y-114027972D01*
X142047651Y-113905382D01*
X141877228Y-113814289D01*
X141692309Y-113758195D01*
X141500000Y-113739254D01*
X141307690Y-113758195D01*
X141122771Y-113814289D01*
X140952349Y-113905382D01*
X140802972Y-114027972D01*
X140680382Y-114177349D01*
X140589289Y-114347772D01*
X140533195Y-114532691D01*
X140519000Y-114676814D01*
X140481000Y-114676814D01*
X140481000Y-114676813D01*
X140466805Y-114532690D01*
X140410711Y-114347771D01*
X140319618Y-114177349D01*
X140197028Y-114027972D01*
X140047651Y-113905382D01*
X139877228Y-113814289D01*
X139692309Y-113758195D01*
X139500000Y-113739254D01*
X139307690Y-113758195D01*
X139122771Y-113814289D01*
X138952349Y-113905382D01*
X138802972Y-114027972D01*
X138680382Y-114177349D01*
X138589289Y-114347772D01*
X138533195Y-114532691D01*
X138519000Y-114676814D01*
X138481000Y-114676814D01*
X138481000Y-114676813D01*
X138466805Y-114532690D01*
X138410711Y-114347771D01*
X138319618Y-114177349D01*
X138197028Y-114027972D01*
X138047651Y-113905382D01*
X137877228Y-113814289D01*
X137692309Y-113758195D01*
X137500000Y-113739254D01*
X137307690Y-113758195D01*
X137122771Y-113814289D01*
X136952349Y-113905382D01*
X136802972Y-114027972D01*
X136680382Y-114177349D01*
X136641007Y-114251014D01*
X136592390Y-114135054D01*
X136456307Y-113933275D01*
X136283474Y-113761922D01*
X136080533Y-113627579D01*
X135855282Y-113535409D01*
X135817609Y-113531538D01*
X135627000Y-113656269D01*
X135373000Y-113656269D01*
X135182391Y-113531538D01*
X135144718Y-113535409D01*
X134919467Y-113627579D01*
X134716526Y-113761922D01*
X134543693Y-113933275D01*
X134407610Y-114135054D01*
X134358993Y-114251014D01*
X134319618Y-114177349D01*
X134197028Y-114027972D01*
X134047651Y-113905382D01*
X133877228Y-113814289D01*
X133692309Y-113758195D01*
X133500000Y-113739254D01*
X133307690Y-113758195D01*
X133122771Y-113814289D01*
X132952349Y-113905382D01*
X132802972Y-114027972D01*
X132680382Y-114177349D01*
X132621020Y-114288407D01*
X132614570Y-114222917D01*
X132570209Y-114076679D01*
X132498171Y-113941905D01*
X132427000Y-113855182D01*
X132427000Y-108123078D01*
X132719000Y-108123078D01*
X132719000Y-108276922D01*
X132749013Y-108427809D01*
X132807887Y-108569942D01*
X132893358Y-108697859D01*
X133002141Y-108806642D01*
X133130058Y-108892113D01*
X133272191Y-108950987D01*
X133423078Y-108981000D01*
X133576922Y-108981000D01*
X133727809Y-108950987D01*
X133869942Y-108892113D01*
X133997859Y-108806642D01*
X134106642Y-108697859D01*
X134192113Y-108569942D01*
X134250987Y-108427809D01*
X134281000Y-108276922D01*
X134281000Y-108173078D01*
X145969034Y-108173078D01*
X145969034Y-108326922D01*
X145999047Y-108477809D01*
X146057921Y-108619942D01*
X146143392Y-108747859D01*
X146252175Y-108856642D01*
X146380092Y-108942113D01*
X146522225Y-109000987D01*
X146673112Y-109031000D01*
X146826956Y-109031000D01*
X146977843Y-109000987D01*
X147119976Y-108942113D01*
X147247893Y-108856642D01*
X147356676Y-108747859D01*
X147442147Y-108619942D01*
X147501021Y-108477809D01*
X147531034Y-108326922D01*
X147531034Y-108173078D01*
X147501021Y-108022191D01*
X147442147Y-107880058D01*
X147356676Y-107752141D01*
X147247893Y-107643358D01*
X147119976Y-107557887D01*
X146977843Y-107499013D01*
X146826956Y-107469000D01*
X146673112Y-107469000D01*
X146522225Y-107499013D01*
X146380092Y-107557887D01*
X146252175Y-107643358D01*
X146143392Y-107752141D01*
X146057921Y-107880058D01*
X145999047Y-108022191D01*
X145969034Y-108173078D01*
X134281000Y-108173078D01*
X134281000Y-108123078D01*
X134250987Y-107972191D01*
X134192113Y-107830058D01*
X134106642Y-107702141D01*
X133997859Y-107593358D01*
X133869942Y-107507887D01*
X133727809Y-107449013D01*
X133576922Y-107419000D01*
X133423078Y-107419000D01*
X133272191Y-107449013D01*
X133130058Y-107507887D01*
X133002141Y-107593358D01*
X132893358Y-107702141D01*
X132807887Y-107830058D01*
X132749013Y-107972191D01*
X132719000Y-108123078D01*
X132427000Y-108123078D01*
X132427000Y-103973076D01*
X136669002Y-103973076D01*
X136669002Y-104126920D01*
X136699015Y-104277807D01*
X136757889Y-104419940D01*
X136843360Y-104547857D01*
X136952143Y-104656640D01*
X137080060Y-104742111D01*
X137222193Y-104800985D01*
X137373080Y-104830998D01*
X137526924Y-104830998D01*
X137677811Y-104800985D01*
X137819944Y-104742111D01*
X137947861Y-104656640D01*
X138056644Y-104547857D01*
X138142115Y-104419940D01*
X138200989Y-104277807D01*
X138231002Y-104126920D01*
X138231002Y-103973076D01*
X138227046Y-103953190D01*
X139199237Y-102981000D01*
X140781028Y-102981000D01*
X140804654Y-102983327D01*
X140828280Y-102981000D01*
X140898946Y-102974040D01*
X140989615Y-102946536D01*
X141073176Y-102901872D01*
X141146418Y-102841764D01*
X141161484Y-102823406D01*
X143936821Y-100048069D01*
X147843991Y-100048069D01*
X147843991Y-100201913D01*
X147874004Y-100352800D01*
X147932878Y-100494933D01*
X148018349Y-100622850D01*
X148127132Y-100731633D01*
X148255049Y-100817104D01*
X148397182Y-100875978D01*
X148548069Y-100905991D01*
X148701913Y-100905991D01*
X148852800Y-100875978D01*
X148994933Y-100817104D01*
X149122850Y-100731633D01*
X149231633Y-100622850D01*
X149317104Y-100494933D01*
X149375978Y-100352800D01*
X149405991Y-100201913D01*
X149405991Y-100048069D01*
X149375978Y-99897182D01*
X149317104Y-99755049D01*
X149231633Y-99627132D01*
X149122850Y-99518349D01*
X148994933Y-99432878D01*
X148852800Y-99374004D01*
X148701913Y-99343991D01*
X148548069Y-99343991D01*
X148397182Y-99374004D01*
X148255049Y-99432878D01*
X148127132Y-99518349D01*
X148018349Y-99627132D01*
X147932878Y-99755049D01*
X147874004Y-99897182D01*
X147843991Y-100048069D01*
X143936821Y-100048069D01*
X146498412Y-97486479D01*
X146516764Y-97471418D01*
X146576872Y-97398176D01*
X146621536Y-97314615D01*
X146649040Y-97223946D01*
X146649527Y-97219000D01*
X146658327Y-97129655D01*
X146656000Y-97106028D01*
X146656000Y-96298086D01*
X147593992Y-96298086D01*
X147593992Y-96451930D01*
X147624005Y-96602817D01*
X147682879Y-96744950D01*
X147768350Y-96872867D01*
X147877133Y-96981650D01*
X148005050Y-97067121D01*
X148147183Y-97125995D01*
X148298070Y-97156008D01*
X148451914Y-97156008D01*
X148602801Y-97125995D01*
X148744934Y-97067121D01*
X148872851Y-96981650D01*
X148981634Y-96872867D01*
X149067105Y-96744950D01*
X149125979Y-96602817D01*
X149155992Y-96451930D01*
X149155992Y-96298086D01*
X149125979Y-96147199D01*
X149067105Y-96005066D01*
X148981634Y-95877149D01*
X148872851Y-95768366D01*
X148744934Y-95682895D01*
X148602801Y-95624021D01*
X148451914Y-95594008D01*
X148298070Y-95594008D01*
X148147183Y-95624021D01*
X148005050Y-95682895D01*
X147877133Y-95768366D01*
X147768350Y-95877149D01*
X147682879Y-96005066D01*
X147624005Y-96147199D01*
X147593992Y-96298086D01*
X146656000Y-96298086D01*
X146656000Y-94723682D01*
X157919000Y-94723682D01*
X157919000Y-94956318D01*
X157964386Y-95184485D01*
X158053412Y-95399413D01*
X158182658Y-95592843D01*
X158347157Y-95757342D01*
X158540587Y-95886588D01*
X158755515Y-95975614D01*
X158983682Y-96021000D01*
X159216318Y-96021000D01*
X159444485Y-95975614D01*
X159659413Y-95886588D01*
X159852843Y-95757342D01*
X160017342Y-95592843D01*
X160146588Y-95399413D01*
X160235614Y-95184485D01*
X160281000Y-94956318D01*
X160281000Y-94723682D01*
X160235614Y-94495515D01*
X160146588Y-94280587D01*
X160017342Y-94087157D01*
X159852843Y-93922658D01*
X159659413Y-93793412D01*
X159444485Y-93704386D01*
X159216318Y-93659000D01*
X158983682Y-93659000D01*
X158755515Y-93704386D01*
X158540587Y-93793412D01*
X158347157Y-93922658D01*
X158182658Y-94087157D01*
X158053412Y-94280587D01*
X157964386Y-94495515D01*
X157919000Y-94723682D01*
X146656000Y-94723682D01*
X146656000Y-92183682D01*
X157919000Y-92183682D01*
X157919000Y-92416318D01*
X157964386Y-92644485D01*
X158053412Y-92859413D01*
X158182658Y-93052843D01*
X158347157Y-93217342D01*
X158540587Y-93346588D01*
X158755515Y-93435614D01*
X158983682Y-93481000D01*
X159216318Y-93481000D01*
X159444485Y-93435614D01*
X159659413Y-93346588D01*
X159852843Y-93217342D01*
X160017342Y-93052843D01*
X160146588Y-92859413D01*
X160235614Y-92644485D01*
X160281000Y-92416318D01*
X160281000Y-92183682D01*
X160235614Y-91955515D01*
X160146588Y-91740587D01*
X160017342Y-91547157D01*
X159852843Y-91382658D01*
X159758795Y-91319817D01*
X159792117Y-91269946D01*
X159850991Y-91127813D01*
X159881004Y-90976926D01*
X159881004Y-90823082D01*
X159850991Y-90672195D01*
X159792117Y-90530062D01*
X159706646Y-90402145D01*
X159597863Y-90293362D01*
X159469946Y-90207891D01*
X159327813Y-90149017D01*
X159176926Y-90119004D01*
X159023082Y-90119004D01*
X158872195Y-90149017D01*
X158730062Y-90207891D01*
X158602145Y-90293362D01*
X158493362Y-90402145D01*
X158407891Y-90530062D01*
X158349017Y-90672195D01*
X158319004Y-90823082D01*
X158319004Y-90976926D01*
X158349017Y-91127813D01*
X158407891Y-91269946D01*
X158441211Y-91319813D01*
X158347157Y-91382658D01*
X158182658Y-91547157D01*
X158053412Y-91740587D01*
X157964386Y-91955515D01*
X157919000Y-92183682D01*
X146656000Y-92183682D01*
X146656000Y-86880244D01*
X146722651Y-86844618D01*
X146872028Y-86722028D01*
X146994618Y-86572651D01*
X147085711Y-86402229D01*
X147141805Y-86217310D01*
X147156000Y-86073187D01*
X147156000Y-85426814D01*
X147156000Y-85426813D01*
X147194000Y-85426813D01*
X147194000Y-86073186D01*
X147208195Y-86217309D01*
X147264289Y-86402228D01*
X147355382Y-86572651D01*
X147477972Y-86722028D01*
X147627349Y-86844618D01*
X147797771Y-86935711D01*
X147982690Y-86991805D01*
X148175000Y-87010746D01*
X148367309Y-86991805D01*
X148552228Y-86935711D01*
X148722651Y-86844618D01*
X148872028Y-86722028D01*
X148994618Y-86572651D01*
X149033993Y-86498986D01*
X149082610Y-86614946D01*
X149218693Y-86816725D01*
X149391526Y-86988078D01*
X149594467Y-87122421D01*
X149819718Y-87214591D01*
X149857391Y-87218462D01*
X150048000Y-87093731D01*
X150048000Y-85877000D01*
X150028000Y-85877000D01*
X150028000Y-85623000D01*
X150048000Y-85623000D01*
X150048000Y-84406269D01*
X150302000Y-84406269D01*
X150302000Y-85623000D01*
X150322000Y-85623000D01*
X150322000Y-85877000D01*
X150302000Y-85877000D01*
X150302000Y-87093731D01*
X150492609Y-87218462D01*
X150530282Y-87214591D01*
X150755533Y-87122421D01*
X150958474Y-86988078D01*
X151131307Y-86816725D01*
X151267390Y-86614946D01*
X151316007Y-86498986D01*
X151355382Y-86572651D01*
X151477972Y-86722028D01*
X151627349Y-86844618D01*
X151797771Y-86935711D01*
X151982690Y-86991805D01*
X152175000Y-87010746D01*
X152367309Y-86991805D01*
X152552228Y-86935711D01*
X152722651Y-86844618D01*
X152872028Y-86722028D01*
X152994618Y-86572651D01*
X153085711Y-86402229D01*
X153141805Y-86217310D01*
X153156000Y-86073187D01*
X153156000Y-85426814D01*
X153141805Y-85282691D01*
X153093971Y-85124999D01*
X153192157Y-85124999D01*
X153192157Y-86375001D01*
X153204317Y-86498462D01*
X153240329Y-86617179D01*
X153298810Y-86726589D01*
X153377512Y-86822488D01*
X153473411Y-86901190D01*
X153473998Y-86901504D01*
X153424007Y-87022191D01*
X153393994Y-87173078D01*
X153393994Y-87326922D01*
X153424007Y-87477809D01*
X153482881Y-87619942D01*
X153568352Y-87747859D01*
X153677135Y-87856642D01*
X153805052Y-87942113D01*
X153947185Y-88000987D01*
X154098072Y-88031000D01*
X154251916Y-88031000D01*
X154402803Y-88000987D01*
X154544936Y-87942113D01*
X154672853Y-87856642D01*
X154781636Y-87747859D01*
X154867107Y-87619942D01*
X154925981Y-87477809D01*
X154955994Y-87326922D01*
X154955994Y-87314738D01*
X159119000Y-87314738D01*
X159119000Y-87685262D01*
X159191286Y-88048667D01*
X159333080Y-88390987D01*
X159538932Y-88699067D01*
X159800933Y-88961068D01*
X160109013Y-89166920D01*
X160451333Y-89308714D01*
X160814738Y-89381000D01*
X161185262Y-89381000D01*
X161548667Y-89308714D01*
X161890987Y-89166920D01*
X162199067Y-88961068D01*
X162461068Y-88699067D01*
X162666920Y-88390987D01*
X162808714Y-88048667D01*
X162881000Y-87685262D01*
X162881000Y-87314738D01*
X162808714Y-86951333D01*
X162666920Y-86609013D01*
X162461068Y-86300933D01*
X162199067Y-86038932D01*
X161890987Y-85833080D01*
X161548667Y-85691286D01*
X161185262Y-85619000D01*
X160814738Y-85619000D01*
X160451333Y-85691286D01*
X160109013Y-85833080D01*
X159800933Y-86038932D01*
X159538932Y-86300933D01*
X159333080Y-86609013D01*
X159191286Y-86951333D01*
X159119000Y-87314738D01*
X154955994Y-87314738D01*
X154955994Y-87173078D01*
X154925981Y-87022191D01*
X154875992Y-86901509D01*
X154876589Y-86901190D01*
X154972488Y-86822488D01*
X155051190Y-86726589D01*
X155109671Y-86617179D01*
X155145683Y-86498462D01*
X155157843Y-86375001D01*
X155157843Y-85124999D01*
X155145683Y-85001538D01*
X155109671Y-84882821D01*
X155051190Y-84773411D01*
X154972488Y-84677512D01*
X154876589Y-84598810D01*
X154767179Y-84540329D01*
X154648462Y-84504317D01*
X154525001Y-84492157D01*
X153824999Y-84492157D01*
X153701538Y-84504317D01*
X153582821Y-84540329D01*
X153473411Y-84598810D01*
X153377512Y-84677512D01*
X153298810Y-84773411D01*
X153240329Y-84882821D01*
X153204317Y-85001538D01*
X153192157Y-85124999D01*
X153093971Y-85124999D01*
X153085711Y-85097771D01*
X152994618Y-84927349D01*
X152872028Y-84777972D01*
X152722651Y-84655382D01*
X152552229Y-84564289D01*
X152367310Y-84508195D01*
X152175000Y-84489254D01*
X151982691Y-84508195D01*
X151797772Y-84564289D01*
X151627350Y-84655382D01*
X151477973Y-84777972D01*
X151355383Y-84927349D01*
X151316007Y-85001014D01*
X151267390Y-84885054D01*
X151131307Y-84683275D01*
X150958474Y-84511922D01*
X150755533Y-84377579D01*
X150530282Y-84285409D01*
X150492609Y-84281538D01*
X150302000Y-84406269D01*
X150048000Y-84406269D01*
X149857391Y-84281538D01*
X149819718Y-84285409D01*
X149594467Y-84377579D01*
X149391526Y-84511922D01*
X149218693Y-84683275D01*
X149082610Y-84885054D01*
X149033993Y-85001014D01*
X148994618Y-84927349D01*
X148872028Y-84777972D01*
X148722651Y-84655382D01*
X148552229Y-84564289D01*
X148367310Y-84508195D01*
X148175000Y-84489254D01*
X147982691Y-84508195D01*
X147797772Y-84564289D01*
X147627350Y-84655382D01*
X147477973Y-84777972D01*
X147355383Y-84927349D01*
X147264289Y-85097771D01*
X147208195Y-85282690D01*
X147194000Y-85426813D01*
X147156000Y-85426813D01*
X147141805Y-85282691D01*
X147085711Y-85097771D01*
X146994618Y-84927349D01*
X146872028Y-84777972D01*
X146722651Y-84655382D01*
X146552229Y-84564289D01*
X146367310Y-84508195D01*
X146175000Y-84489254D01*
X145982691Y-84508195D01*
X145797772Y-84564289D01*
X145627350Y-84655382D01*
X145477973Y-84777972D01*
X145355383Y-84927349D01*
X145264289Y-85097771D01*
X145208195Y-85282690D01*
X145194000Y-85426813D01*
X145194000Y-86073186D01*
X145208195Y-86217309D01*
X145264289Y-86402228D01*
X145355382Y-86572651D01*
X145477972Y-86722028D01*
X145627349Y-86844618D01*
X145694000Y-86880244D01*
X145694001Y-96930416D01*
X140605418Y-102019000D01*
X139023626Y-102019000D01*
X138999999Y-102016673D01*
X138905707Y-102025960D01*
X138878203Y-102034304D01*
X138815039Y-102053464D01*
X138731478Y-102098128D01*
X138658236Y-102158236D01*
X138643175Y-102176588D01*
X137546810Y-103272954D01*
X137526924Y-103268998D01*
X137373080Y-103268998D01*
X137222193Y-103299011D01*
X137080060Y-103357885D01*
X136952143Y-103443356D01*
X136843360Y-103552139D01*
X136757889Y-103680056D01*
X136699015Y-103822189D01*
X136669002Y-103973076D01*
X132427000Y-103973076D01*
X132427000Y-102840930D01*
X132431484Y-102795405D01*
X132427000Y-102749880D01*
X132427000Y-102749868D01*
X132413587Y-102613682D01*
X132360580Y-102438942D01*
X132274502Y-102277902D01*
X132274501Y-102277900D01*
X132187687Y-102172117D01*
X132187684Y-102172114D01*
X132158659Y-102136747D01*
X132123294Y-102107724D01*
X130438648Y-100423078D01*
X130969000Y-100423078D01*
X130969000Y-100576922D01*
X130999013Y-100727809D01*
X131057887Y-100869942D01*
X131143358Y-100997859D01*
X131252141Y-101106642D01*
X131380058Y-101192113D01*
X131522191Y-101250987D01*
X131673078Y-101281000D01*
X131826922Y-101281000D01*
X131977809Y-101250987D01*
X132119942Y-101192113D01*
X132247859Y-101106642D01*
X132356642Y-100997859D01*
X132367907Y-100981000D01*
X135190372Y-100981000D01*
X135213998Y-100983327D01*
X135237624Y-100981000D01*
X135249837Y-100979797D01*
X135307887Y-101119942D01*
X135393358Y-101247859D01*
X135502141Y-101356642D01*
X135630058Y-101442113D01*
X135772191Y-101500987D01*
X135923078Y-101531000D01*
X136076922Y-101531000D01*
X136227809Y-101500987D01*
X136369942Y-101442113D01*
X136497859Y-101356642D01*
X136606642Y-101247859D01*
X136692113Y-101119942D01*
X136750987Y-100977809D01*
X136781000Y-100826922D01*
X136781000Y-100685578D01*
X138206500Y-100685578D01*
X138206500Y-100839422D01*
X138236513Y-100990309D01*
X138295387Y-101132442D01*
X138380858Y-101260359D01*
X138489641Y-101369142D01*
X138617558Y-101454613D01*
X138759691Y-101513487D01*
X138910578Y-101543500D01*
X139064422Y-101543500D01*
X139215309Y-101513487D01*
X139357442Y-101454613D01*
X139485359Y-101369142D01*
X139594142Y-101260359D01*
X139679613Y-101132442D01*
X139738487Y-100990309D01*
X139768500Y-100839422D01*
X139768500Y-100685578D01*
X139738487Y-100534691D01*
X139679613Y-100392558D01*
X139594142Y-100264641D01*
X139485359Y-100155858D01*
X139357442Y-100070387D01*
X139215309Y-100011513D01*
X139064422Y-99981500D01*
X138910578Y-99981500D01*
X138759691Y-100011513D01*
X138617558Y-100070387D01*
X138489641Y-100155858D01*
X138380858Y-100264641D01*
X138295387Y-100392558D01*
X138236513Y-100534691D01*
X138206500Y-100685578D01*
X136781000Y-100685578D01*
X136781000Y-100673078D01*
X136750987Y-100522191D01*
X136692113Y-100380058D01*
X136606642Y-100252141D01*
X136497859Y-100143358D01*
X136369942Y-100057887D01*
X136346187Y-100048047D01*
X137913235Y-98481000D01*
X140632093Y-98481000D01*
X140643358Y-98497859D01*
X140752141Y-98606642D01*
X140880058Y-98692113D01*
X141022191Y-98750987D01*
X141173078Y-98781000D01*
X141326922Y-98781000D01*
X141477809Y-98750987D01*
X141619942Y-98692113D01*
X141747859Y-98606642D01*
X141856642Y-98497859D01*
X141942113Y-98369942D01*
X142000987Y-98227809D01*
X142031000Y-98076922D01*
X142031000Y-97923078D01*
X142000987Y-97772191D01*
X141942113Y-97630058D01*
X141856642Y-97502141D01*
X141747859Y-97393358D01*
X141619942Y-97307887D01*
X141477809Y-97249013D01*
X141326922Y-97219000D01*
X141173078Y-97219000D01*
X141022191Y-97249013D01*
X140880058Y-97307887D01*
X140752141Y-97393358D01*
X140643358Y-97502141D01*
X140632093Y-97519000D01*
X137737624Y-97519000D01*
X137713998Y-97516673D01*
X137619705Y-97525960D01*
X137613307Y-97527901D01*
X137529037Y-97553464D01*
X137445476Y-97598128D01*
X137372234Y-97658236D01*
X137357174Y-97676587D01*
X135014762Y-100019000D01*
X132367907Y-100019000D01*
X132356642Y-100002141D01*
X132247859Y-99893358D01*
X132119942Y-99807887D01*
X131977809Y-99749013D01*
X131826922Y-99719000D01*
X131673078Y-99719000D01*
X131522191Y-99749013D01*
X131380058Y-99807887D01*
X131252141Y-99893358D01*
X131143358Y-100002141D01*
X131057887Y-100130058D01*
X130999013Y-100272191D01*
X130969000Y-100423078D01*
X130438648Y-100423078D01*
X127677000Y-97661431D01*
X127677000Y-95423078D01*
X127719000Y-95423078D01*
X127719000Y-95576922D01*
X127749013Y-95727809D01*
X127807887Y-95869942D01*
X127893358Y-95997859D01*
X128002141Y-96106642D01*
X128130058Y-96192113D01*
X128272191Y-96250987D01*
X128423078Y-96281000D01*
X128576922Y-96281000D01*
X128727809Y-96250987D01*
X128869942Y-96192113D01*
X128997859Y-96106642D01*
X129106642Y-95997859D01*
X129192113Y-95869942D01*
X129250987Y-95727809D01*
X129281000Y-95576922D01*
X129281000Y-95423078D01*
X129277044Y-95403192D01*
X129308851Y-95371385D01*
X129393358Y-95497859D01*
X129502141Y-95606642D01*
X129630058Y-95692113D01*
X129772191Y-95750987D01*
X129923078Y-95781000D01*
X130076922Y-95781000D01*
X130227809Y-95750987D01*
X130369942Y-95692113D01*
X130497859Y-95606642D01*
X130606642Y-95497859D01*
X130617907Y-95481000D01*
X134612749Y-95481000D01*
X134522191Y-95499013D01*
X134380058Y-95557887D01*
X134252141Y-95643358D01*
X134143358Y-95752141D01*
X134057887Y-95880058D01*
X133999013Y-96022191D01*
X133969000Y-96173078D01*
X133969000Y-96326922D01*
X133999013Y-96477809D01*
X134057887Y-96619942D01*
X134143358Y-96747859D01*
X134252141Y-96856642D01*
X134380058Y-96942113D01*
X134522191Y-97000987D01*
X134673078Y-97031000D01*
X134826922Y-97031000D01*
X134977809Y-97000987D01*
X135119942Y-96942113D01*
X135247859Y-96856642D01*
X135356642Y-96747859D01*
X135442113Y-96619942D01*
X135500987Y-96477809D01*
X135531000Y-96326922D01*
X135531000Y-96280999D01*
X140850763Y-96280999D01*
X142472955Y-97903192D01*
X142469000Y-97923078D01*
X142469000Y-98076922D01*
X142499013Y-98227809D01*
X142557887Y-98369942D01*
X142643358Y-98497859D01*
X142752141Y-98606642D01*
X142880058Y-98692113D01*
X143022191Y-98750987D01*
X143173078Y-98781000D01*
X143326922Y-98781000D01*
X143477809Y-98750987D01*
X143619942Y-98692113D01*
X143747859Y-98606642D01*
X143856642Y-98497859D01*
X143942113Y-98369942D01*
X144000987Y-98227809D01*
X144031000Y-98076922D01*
X144031000Y-97923078D01*
X144000987Y-97772191D01*
X143942113Y-97630058D01*
X143856642Y-97502141D01*
X143747859Y-97393358D01*
X143619942Y-97307887D01*
X143477809Y-97249013D01*
X143326922Y-97219000D01*
X143173078Y-97219000D01*
X143153192Y-97222955D01*
X141688952Y-95758716D01*
X141727809Y-95750987D01*
X141869942Y-95692113D01*
X141997859Y-95606642D01*
X142106642Y-95497859D01*
X142192113Y-95369942D01*
X142250000Y-95230192D01*
X142307887Y-95369942D01*
X142393358Y-95497859D01*
X142502141Y-95606642D01*
X142630058Y-95692113D01*
X142772191Y-95750987D01*
X142923078Y-95781000D01*
X143076922Y-95781000D01*
X143227809Y-95750987D01*
X143369942Y-95692113D01*
X143497859Y-95606642D01*
X143606642Y-95497859D01*
X143692113Y-95369942D01*
X143750987Y-95227809D01*
X143781000Y-95076922D01*
X143781000Y-94923078D01*
X143750987Y-94772191D01*
X143692113Y-94630058D01*
X143606642Y-94502141D01*
X143497859Y-94393358D01*
X143369942Y-94307887D01*
X143227809Y-94249013D01*
X143076922Y-94219000D01*
X142923078Y-94219000D01*
X142903192Y-94222956D01*
X142456831Y-93776595D01*
X142441765Y-93758237D01*
X142368523Y-93698129D01*
X142284962Y-93653465D01*
X142194293Y-93625961D01*
X142123627Y-93619001D01*
X142100001Y-93616674D01*
X142076375Y-93619001D01*
X135442485Y-93619001D01*
X135500969Y-93477809D01*
X135530982Y-93326922D01*
X135530982Y-93173078D01*
X135500969Y-93022191D01*
X135442095Y-92880058D01*
X135356624Y-92752141D01*
X135247841Y-92643358D01*
X135119924Y-92557887D01*
X134977791Y-92499013D01*
X134826904Y-92469000D01*
X134673060Y-92469000D01*
X134522173Y-92499013D01*
X134380040Y-92557887D01*
X134252123Y-92643358D01*
X134143340Y-92752141D01*
X134057869Y-92880058D01*
X133998995Y-93022191D01*
X133968982Y-93173078D01*
X133968982Y-93326922D01*
X133998995Y-93477809D01*
X134057479Y-93619001D01*
X129923625Y-93619001D01*
X129899999Y-93616674D01*
X129805706Y-93625961D01*
X129715037Y-93653465D01*
X129670373Y-93677339D01*
X129631477Y-93698129D01*
X129558235Y-93758237D01*
X129543169Y-93776595D01*
X128596808Y-94722956D01*
X128576922Y-94719000D01*
X128423078Y-94719000D01*
X128272191Y-94749013D01*
X128130058Y-94807887D01*
X128002141Y-94893358D01*
X127893358Y-95002141D01*
X127807887Y-95130058D01*
X127749013Y-95272191D01*
X127719000Y-95423078D01*
X127677000Y-95423078D01*
X127677000Y-93045527D01*
X127681484Y-93000000D01*
X127677000Y-92954473D01*
X127677000Y-92954462D01*
X127663587Y-92818276D01*
X127610580Y-92643536D01*
X127597969Y-92619942D01*
X127524501Y-92482494D01*
X127437688Y-92376712D01*
X127437684Y-92376708D01*
X127408659Y-92341341D01*
X127373294Y-92312318D01*
X122859061Y-87798085D01*
X144093993Y-87798085D01*
X144093993Y-87951929D01*
X144124006Y-88102816D01*
X144182880Y-88244949D01*
X144268351Y-88372866D01*
X144377134Y-88481649D01*
X144505051Y-88567120D01*
X144647184Y-88625994D01*
X144798071Y-88656007D01*
X144951915Y-88656007D01*
X145102802Y-88625994D01*
X145244935Y-88567120D01*
X145372852Y-88481649D01*
X145481635Y-88372866D01*
X145567106Y-88244949D01*
X145625980Y-88102816D01*
X145655993Y-87951929D01*
X145655993Y-87798085D01*
X145625980Y-87647198D01*
X145567106Y-87505065D01*
X145481635Y-87377148D01*
X145372852Y-87268365D01*
X145244935Y-87182894D01*
X145102802Y-87124020D01*
X144951915Y-87094007D01*
X144798071Y-87094007D01*
X144647184Y-87124020D01*
X144505051Y-87182894D01*
X144377134Y-87268365D01*
X144268351Y-87377148D01*
X144182880Y-87505065D01*
X144124006Y-87647198D01*
X144093993Y-87798085D01*
X122859061Y-87798085D01*
X120962976Y-85902000D01*
X121765000Y-85902000D01*
X121765000Y-86177000D01*
X121813507Y-86415496D01*
X121907610Y-86639946D01*
X122043693Y-86841725D01*
X122216526Y-87013078D01*
X122419467Y-87147421D01*
X122644718Y-87239591D01*
X122682391Y-87243462D01*
X122873000Y-87118731D01*
X122873000Y-85902000D01*
X121765000Y-85902000D01*
X120962976Y-85902000D01*
X120433976Y-85373000D01*
X121765000Y-85373000D01*
X121765000Y-85648000D01*
X122873000Y-85648000D01*
X122873000Y-84431269D01*
X123127000Y-84431269D01*
X123127000Y-85648000D01*
X123147000Y-85648000D01*
X123147000Y-85902000D01*
X123127000Y-85902000D01*
X123127000Y-87118731D01*
X123317609Y-87243462D01*
X123355282Y-87239591D01*
X123580533Y-87147421D01*
X123783474Y-87013078D01*
X123956307Y-86841725D01*
X123984275Y-86800254D01*
X124001829Y-86833095D01*
X124098775Y-86951225D01*
X124216905Y-87048171D01*
X124351679Y-87120209D01*
X124497917Y-87164570D01*
X124649999Y-87179549D01*
X125350001Y-87179549D01*
X125502083Y-87164570D01*
X125648321Y-87120209D01*
X125783095Y-87048171D01*
X125901225Y-86951225D01*
X125998171Y-86833095D01*
X126070209Y-86698321D01*
X126114570Y-86552083D01*
X126129549Y-86400001D01*
X126129549Y-85902000D01*
X128815000Y-85902000D01*
X128815000Y-86177000D01*
X128863507Y-86415496D01*
X128957610Y-86639946D01*
X129093693Y-86841725D01*
X129266526Y-87013078D01*
X129469467Y-87147421D01*
X129694718Y-87239591D01*
X129732391Y-87243462D01*
X129923000Y-87118731D01*
X129923000Y-85902000D01*
X128815000Y-85902000D01*
X126129549Y-85902000D01*
X126129549Y-85373000D01*
X128815000Y-85373000D01*
X128815000Y-85648000D01*
X129923000Y-85648000D01*
X129923000Y-84431269D01*
X130177000Y-84431269D01*
X130177000Y-85648000D01*
X130197000Y-85648000D01*
X130197000Y-85902000D01*
X130177000Y-85902000D01*
X130177000Y-87118731D01*
X130367609Y-87243462D01*
X130405282Y-87239591D01*
X130630533Y-87147421D01*
X130833474Y-87013078D01*
X131006307Y-86841725D01*
X131034275Y-86800254D01*
X131051829Y-86833095D01*
X131148775Y-86951225D01*
X131266905Y-87048171D01*
X131401679Y-87120209D01*
X131547917Y-87164570D01*
X131699999Y-87179549D01*
X132400001Y-87179549D01*
X132552083Y-87164570D01*
X132698321Y-87120209D01*
X132833095Y-87048171D01*
X132951225Y-86951225D01*
X133048171Y-86833095D01*
X133120209Y-86698321D01*
X133164570Y-86552083D01*
X133179549Y-86400001D01*
X133179549Y-85149999D01*
X133164570Y-84997917D01*
X133120209Y-84851679D01*
X133048171Y-84716905D01*
X132951225Y-84598775D01*
X132833095Y-84501829D01*
X132698321Y-84429791D01*
X132552083Y-84385430D01*
X132400001Y-84370451D01*
X131699999Y-84370451D01*
X131547917Y-84385430D01*
X131401679Y-84429791D01*
X131266905Y-84501829D01*
X131148775Y-84598775D01*
X131051829Y-84716905D01*
X131034275Y-84749746D01*
X131006307Y-84708275D01*
X130833474Y-84536922D01*
X130630533Y-84402579D01*
X130405282Y-84310409D01*
X130367609Y-84306538D01*
X130177000Y-84431269D01*
X129923000Y-84431269D01*
X129732391Y-84306538D01*
X129694718Y-84310409D01*
X129469467Y-84402579D01*
X129266526Y-84536922D01*
X129093693Y-84708275D01*
X128957610Y-84910054D01*
X128863507Y-85134504D01*
X128815000Y-85373000D01*
X126129549Y-85373000D01*
X126129549Y-85149999D01*
X126114570Y-84997917D01*
X126070209Y-84851679D01*
X125998171Y-84716905D01*
X125901225Y-84598775D01*
X125783095Y-84501829D01*
X125648321Y-84429791D01*
X125502083Y-84385430D01*
X125350001Y-84370451D01*
X124649999Y-84370451D01*
X124497917Y-84385430D01*
X124351679Y-84429791D01*
X124216905Y-84501829D01*
X124098775Y-84598775D01*
X124001829Y-84716905D01*
X123984275Y-84749746D01*
X123956307Y-84708275D01*
X123783474Y-84536922D01*
X123580533Y-84402579D01*
X123355282Y-84310409D01*
X123317609Y-84306538D01*
X123127000Y-84431269D01*
X122873000Y-84431269D01*
X122682391Y-84306538D01*
X122644718Y-84310409D01*
X122419467Y-84402579D01*
X122216526Y-84536922D01*
X122043693Y-84708275D01*
X121907610Y-84910054D01*
X121813507Y-85134504D01*
X121765000Y-85373000D01*
X120433976Y-85373000D01*
X119287000Y-84226025D01*
X119287000Y-80091084D01*
X119468424Y-79909660D01*
X119617157Y-79687064D01*
X119617157Y-79900000D01*
X119624513Y-79974689D01*
X119646299Y-80046508D01*
X119681678Y-80112696D01*
X119729289Y-80170711D01*
X119787304Y-80218322D01*
X119853492Y-80253701D01*
X119925311Y-80275487D01*
X120000000Y-80282843D01*
X121800000Y-80282843D01*
X121874689Y-80275487D01*
X121946508Y-80253701D01*
X122012696Y-80218322D01*
X122070711Y-80170711D01*
X122118322Y-80112696D01*
X122153701Y-80046508D01*
X122175487Y-79974689D01*
X122182843Y-79900000D01*
X122182843Y-78873833D01*
X124869000Y-78873833D01*
X124869000Y-79126167D01*
X124918228Y-79373654D01*
X125014793Y-79606781D01*
X125154982Y-79816590D01*
X125333410Y-79995018D01*
X125543219Y-80135207D01*
X125776346Y-80231772D01*
X126023833Y-80281000D01*
X126276167Y-80281000D01*
X126523654Y-80231772D01*
X126756781Y-80135207D01*
X126966590Y-79995018D01*
X127145018Y-79816590D01*
X127285207Y-79606781D01*
X127381772Y-79373654D01*
X127407157Y-79246034D01*
X127407157Y-79900000D01*
X127414513Y-79974689D01*
X127436299Y-80046508D01*
X127471678Y-80112696D01*
X127519289Y-80170711D01*
X127577304Y-80218322D01*
X127643492Y-80253701D01*
X127715311Y-80275487D01*
X127790000Y-80282843D01*
X129590000Y-80282843D01*
X129664689Y-80275487D01*
X129736508Y-80253701D01*
X129802696Y-80218322D01*
X129860711Y-80170711D01*
X129908322Y-80112696D01*
X129943701Y-80046508D01*
X129965487Y-79974689D01*
X129972843Y-79900000D01*
X129972843Y-78859453D01*
X132533000Y-78859453D01*
X132533000Y-79140547D01*
X132587838Y-79416241D01*
X132695409Y-79675938D01*
X132851576Y-79909660D01*
X133050340Y-80108424D01*
X133284062Y-80264591D01*
X133543759Y-80372162D01*
X133819453Y-80427000D01*
X134100547Y-80427000D01*
X134376241Y-80372162D01*
X134635938Y-80264591D01*
X134869660Y-80108424D01*
X135068424Y-79909660D01*
X135217157Y-79687064D01*
X135217157Y-79900000D01*
X135224513Y-79974689D01*
X135246299Y-80046508D01*
X135281678Y-80112696D01*
X135329289Y-80170711D01*
X135387304Y-80218322D01*
X135453492Y-80253701D01*
X135525311Y-80275487D01*
X135600000Y-80282843D01*
X137400000Y-80282843D01*
X137474689Y-80275487D01*
X137546508Y-80253701D01*
X137612696Y-80218322D01*
X137670711Y-80170711D01*
X137718322Y-80112696D01*
X137753701Y-80046508D01*
X137775487Y-79974689D01*
X137782843Y-79900000D01*
X137782843Y-78873833D01*
X140469000Y-78873833D01*
X140469000Y-79126167D01*
X140518228Y-79373654D01*
X140614793Y-79606781D01*
X140754982Y-79816590D01*
X140933410Y-79995018D01*
X141143219Y-80135207D01*
X141376346Y-80231772D01*
X141623833Y-80281000D01*
X141876167Y-80281000D01*
X142123654Y-80231772D01*
X142356781Y-80135207D01*
X142566590Y-79995018D01*
X142745018Y-79816590D01*
X142885207Y-79606781D01*
X142981772Y-79373654D01*
X143007157Y-79246034D01*
X143007157Y-79900000D01*
X143014513Y-79974689D01*
X143036299Y-80046508D01*
X143071678Y-80112696D01*
X143119289Y-80170711D01*
X143177304Y-80218322D01*
X143243492Y-80253701D01*
X143315311Y-80275487D01*
X143390000Y-80282843D01*
X145190000Y-80282843D01*
X145264689Y-80275487D01*
X145336508Y-80253701D01*
X145402696Y-80218322D01*
X145460711Y-80170711D01*
X145508322Y-80112696D01*
X145543701Y-80046508D01*
X145565487Y-79974689D01*
X145572843Y-79900000D01*
X145572843Y-78859453D01*
X147933000Y-78859453D01*
X147933000Y-79140547D01*
X147987838Y-79416241D01*
X148095409Y-79675938D01*
X148251576Y-79909660D01*
X148450340Y-80108424D01*
X148684062Y-80264591D01*
X148943759Y-80372162D01*
X149219453Y-80427000D01*
X149500547Y-80427000D01*
X149776241Y-80372162D01*
X150035938Y-80264591D01*
X150269660Y-80108424D01*
X150468424Y-79909660D01*
X150617157Y-79687064D01*
X150617157Y-79900000D01*
X150624513Y-79974689D01*
X150646299Y-80046508D01*
X150681678Y-80112696D01*
X150729289Y-80170711D01*
X150787304Y-80218322D01*
X150853492Y-80253701D01*
X150925311Y-80275487D01*
X151000000Y-80282843D01*
X152800000Y-80282843D01*
X152874689Y-80275487D01*
X152946508Y-80253701D01*
X153012696Y-80218322D01*
X153070711Y-80170711D01*
X153118322Y-80112696D01*
X153153701Y-80046508D01*
X153175487Y-79974689D01*
X153182843Y-79900000D01*
X153182843Y-78873833D01*
X155879000Y-78873833D01*
X155879000Y-79126167D01*
X155928228Y-79373654D01*
X156024793Y-79606781D01*
X156164982Y-79816590D01*
X156343410Y-79995018D01*
X156553219Y-80135207D01*
X156786346Y-80231772D01*
X157033833Y-80281000D01*
X157286167Y-80281000D01*
X157533654Y-80231772D01*
X157766781Y-80135207D01*
X157976590Y-79995018D01*
X158155018Y-79816590D01*
X158295207Y-79606781D01*
X158391772Y-79373654D01*
X158417157Y-79246034D01*
X158417157Y-79900000D01*
X158424513Y-79974689D01*
X158446299Y-80046508D01*
X158481678Y-80112696D01*
X158529289Y-80170711D01*
X158587304Y-80218322D01*
X158653492Y-80253701D01*
X158725311Y-80275487D01*
X158800000Y-80282843D01*
X160600000Y-80282843D01*
X160674689Y-80275487D01*
X160746508Y-80253701D01*
X160812696Y-80218322D01*
X160870711Y-80170711D01*
X160918322Y-80112696D01*
X160953701Y-80046508D01*
X160975487Y-79974689D01*
X160982843Y-79900000D01*
X160982843Y-78100000D01*
X160975487Y-78025311D01*
X160953701Y-77953492D01*
X160918322Y-77887304D01*
X160870711Y-77829289D01*
X160812696Y-77781678D01*
X160746508Y-77746299D01*
X160674689Y-77724513D01*
X160600000Y-77717157D01*
X158800000Y-77717157D01*
X158725311Y-77724513D01*
X158653492Y-77746299D01*
X158587304Y-77781678D01*
X158529289Y-77829289D01*
X158481678Y-77887304D01*
X158446299Y-77953492D01*
X158424513Y-78025311D01*
X158417157Y-78100000D01*
X158417157Y-78753966D01*
X158391772Y-78626346D01*
X158295207Y-78393219D01*
X158155018Y-78183410D01*
X157976590Y-78004982D01*
X157766781Y-77864793D01*
X157533654Y-77768228D01*
X157286167Y-77719000D01*
X157033833Y-77719000D01*
X156786346Y-77768228D01*
X156553219Y-77864793D01*
X156343410Y-78004982D01*
X156164982Y-78183410D01*
X156024793Y-78393219D01*
X155928228Y-78626346D01*
X155879000Y-78873833D01*
X153182843Y-78873833D01*
X153182843Y-78100000D01*
X153175487Y-78025311D01*
X153153701Y-77953492D01*
X153118322Y-77887304D01*
X153070711Y-77829289D01*
X153012696Y-77781678D01*
X152946508Y-77746299D01*
X152874689Y-77724513D01*
X152800000Y-77717157D01*
X151000000Y-77717157D01*
X150925311Y-77724513D01*
X150853492Y-77746299D01*
X150787304Y-77781678D01*
X150729289Y-77829289D01*
X150681678Y-77887304D01*
X150646299Y-77953492D01*
X150624513Y-78025311D01*
X150617157Y-78100000D01*
X150617157Y-78312936D01*
X150468424Y-78090340D01*
X150269660Y-77891576D01*
X150035938Y-77735409D01*
X149776241Y-77627838D01*
X149500547Y-77573000D01*
X149219453Y-77573000D01*
X148943759Y-77627838D01*
X148684062Y-77735409D01*
X148450340Y-77891576D01*
X148251576Y-78090340D01*
X148095409Y-78324062D01*
X147987838Y-78583759D01*
X147933000Y-78859453D01*
X145572843Y-78859453D01*
X145572843Y-78100000D01*
X145565487Y-78025311D01*
X145543701Y-77953492D01*
X145508322Y-77887304D01*
X145460711Y-77829289D01*
X145402696Y-77781678D01*
X145336508Y-77746299D01*
X145264689Y-77724513D01*
X145190000Y-77717157D01*
X143390000Y-77717157D01*
X143315311Y-77724513D01*
X143243492Y-77746299D01*
X143177304Y-77781678D01*
X143119289Y-77829289D01*
X143071678Y-77887304D01*
X143036299Y-77953492D01*
X143014513Y-78025311D01*
X143007157Y-78100000D01*
X143007157Y-78753966D01*
X142981772Y-78626346D01*
X142885207Y-78393219D01*
X142745018Y-78183410D01*
X142566590Y-78004982D01*
X142356781Y-77864793D01*
X142123654Y-77768228D01*
X141876167Y-77719000D01*
X141623833Y-77719000D01*
X141376346Y-77768228D01*
X141143219Y-77864793D01*
X140933410Y-78004982D01*
X140754982Y-78183410D01*
X140614793Y-78393219D01*
X140518228Y-78626346D01*
X140469000Y-78873833D01*
X137782843Y-78873833D01*
X137782843Y-78100000D01*
X137775487Y-78025311D01*
X137753701Y-77953492D01*
X137718322Y-77887304D01*
X137670711Y-77829289D01*
X137612696Y-77781678D01*
X137546508Y-77746299D01*
X137474689Y-77724513D01*
X137400000Y-77717157D01*
X135600000Y-77717157D01*
X135525311Y-77724513D01*
X135453492Y-77746299D01*
X135387304Y-77781678D01*
X135329289Y-77829289D01*
X135281678Y-77887304D01*
X135246299Y-77953492D01*
X135224513Y-78025311D01*
X135217157Y-78100000D01*
X135217157Y-78312936D01*
X135068424Y-78090340D01*
X134869660Y-77891576D01*
X134635938Y-77735409D01*
X134376241Y-77627838D01*
X134100547Y-77573000D01*
X133819453Y-77573000D01*
X133543759Y-77627838D01*
X133284062Y-77735409D01*
X133050340Y-77891576D01*
X132851576Y-78090340D01*
X132695409Y-78324062D01*
X132587838Y-78583759D01*
X132533000Y-78859453D01*
X129972843Y-78859453D01*
X129972843Y-78100000D01*
X129965487Y-78025311D01*
X129943701Y-77953492D01*
X129908322Y-77887304D01*
X129860711Y-77829289D01*
X129802696Y-77781678D01*
X129736508Y-77746299D01*
X129664689Y-77724513D01*
X129590000Y-77717157D01*
X127790000Y-77717157D01*
X127715311Y-77724513D01*
X127643492Y-77746299D01*
X127577304Y-77781678D01*
X127519289Y-77829289D01*
X127471678Y-77887304D01*
X127436299Y-77953492D01*
X127414513Y-78025311D01*
X127407157Y-78100000D01*
X127407157Y-78753966D01*
X127381772Y-78626346D01*
X127285207Y-78393219D01*
X127145018Y-78183410D01*
X126966590Y-78004982D01*
X126756781Y-77864793D01*
X126523654Y-77768228D01*
X126276167Y-77719000D01*
X126023833Y-77719000D01*
X125776346Y-77768228D01*
X125543219Y-77864793D01*
X125333410Y-78004982D01*
X125154982Y-78183410D01*
X125014793Y-78393219D01*
X124918228Y-78626346D01*
X124869000Y-78873833D01*
X122182843Y-78873833D01*
X122182843Y-78100000D01*
X122175487Y-78025311D01*
X122153701Y-77953492D01*
X122118322Y-77887304D01*
X122070711Y-77829289D01*
X122012696Y-77781678D01*
X121946508Y-77746299D01*
X121874689Y-77724513D01*
X121800000Y-77717157D01*
X120000000Y-77717157D01*
X119925311Y-77724513D01*
X119853492Y-77746299D01*
X119787304Y-77781678D01*
X119729289Y-77829289D01*
X119681678Y-77887304D01*
X119646299Y-77953492D01*
X119624513Y-78025311D01*
X119617157Y-78100000D01*
X119617157Y-78312936D01*
X119468424Y-78090340D01*
X119269660Y-77891576D01*
X119035938Y-77735409D01*
X118776241Y-77627838D01*
X118500547Y-77573000D01*
X118219453Y-77573000D01*
X117943759Y-77627838D01*
X117684062Y-77735409D01*
X117450340Y-77891576D01*
X117251576Y-78090340D01*
X117095409Y-78324062D01*
X116987838Y-78583759D01*
X116933000Y-78859453D01*
X115631000Y-78859453D01*
X115631000Y-75631000D01*
X162369000Y-75631000D01*
X162369001Y-84968992D01*
G37*
X162369001Y-84968992D02*
X162365947Y-85000000D01*
X162378130Y-85123698D01*
X162414211Y-85242642D01*
X162472804Y-85352261D01*
X162551657Y-85448343D01*
X162647739Y-85527196D01*
X162757358Y-85585789D01*
X162876302Y-85621870D01*
X162969002Y-85631000D01*
X163000000Y-85634053D01*
X163030998Y-85631000D01*
X163369000Y-85631000D01*
X163369000Y-97270637D01*
X163356642Y-97252141D01*
X163247859Y-97143358D01*
X163119942Y-97057887D01*
X162977809Y-96999013D01*
X162826922Y-96969000D01*
X162673078Y-96969000D01*
X162618693Y-96979818D01*
X162692113Y-96869936D01*
X162750987Y-96727803D01*
X162781000Y-96576916D01*
X162781000Y-96423072D01*
X162750987Y-96272185D01*
X162692113Y-96130052D01*
X162606642Y-96002135D01*
X162497859Y-95893352D01*
X162369942Y-95807881D01*
X162227809Y-95749007D01*
X162076922Y-95718994D01*
X161923078Y-95718994D01*
X161772191Y-95749007D01*
X161630058Y-95807881D01*
X161502141Y-95893352D01*
X161393358Y-96002135D01*
X161307887Y-96130052D01*
X161249013Y-96272185D01*
X161219000Y-96423072D01*
X161219000Y-96576916D01*
X161249013Y-96727803D01*
X161307887Y-96869936D01*
X161393358Y-96997853D01*
X161502141Y-97106636D01*
X161630058Y-97192107D01*
X161772191Y-97250981D01*
X161923078Y-97280994D01*
X162076922Y-97280994D01*
X162131307Y-97270176D01*
X162057887Y-97380058D01*
X161999013Y-97522191D01*
X161969000Y-97673078D01*
X161969000Y-97826922D01*
X161999013Y-97977809D01*
X162057887Y-98119942D01*
X162143358Y-98247859D01*
X162206015Y-98310516D01*
X162107760Y-98340322D01*
X161998367Y-98398793D01*
X161902483Y-98477483D01*
X161823793Y-98573367D01*
X161765322Y-98682760D01*
X161729315Y-98801458D01*
X161717157Y-98924900D01*
X161717157Y-99475100D01*
X161729315Y-99598542D01*
X161761350Y-99704145D01*
X161685453Y-99789851D01*
X161570816Y-99986216D01*
X161506036Y-100164190D01*
X161631837Y-100343000D01*
X162623000Y-100343000D01*
X162623000Y-100323000D01*
X162877000Y-100323000D01*
X162877000Y-100343000D01*
X162897000Y-100343000D01*
X162897000Y-100597000D01*
X162877000Y-100597000D01*
X162877000Y-100617000D01*
X162623000Y-100617000D01*
X162623000Y-100597000D01*
X161631837Y-100597000D01*
X161506036Y-100775810D01*
X161570816Y-100953784D01*
X161685453Y-101150149D01*
X161827338Y-101310373D01*
X161783916Y-101391612D01*
X161732110Y-101562393D01*
X161714617Y-101740000D01*
X161732110Y-101917607D01*
X161783916Y-102088388D01*
X161868044Y-102245782D01*
X161981262Y-102383738D01*
X162119218Y-102496956D01*
X162276612Y-102581084D01*
X162447393Y-102632890D01*
X162580499Y-102646000D01*
X162919501Y-102646000D01*
X163052607Y-102632890D01*
X163223388Y-102581084D01*
X163369000Y-102503253D01*
X163369001Y-124369000D01*
X114631000Y-124369000D01*
X114631000Y-123415565D01*
X116614040Y-123415565D01*
X116681020Y-123655656D01*
X116930048Y-123772756D01*
X117197135Y-123839023D01*
X117472017Y-123851910D01*
X117744133Y-123810922D01*
X118003023Y-123717636D01*
X118118980Y-123655656D01*
X118185960Y-123415565D01*
X117400000Y-122629605D01*
X116614040Y-123415565D01*
X114631000Y-123415565D01*
X114631000Y-121031917D01*
X115247688Y-121031917D01*
X115334393Y-121288653D01*
X115611223Y-121422048D01*
X115908757Y-121498873D01*
X116215562Y-121516176D01*
X116371447Y-121494207D01*
X116318023Y-121547631D01*
X116434433Y-121664041D01*
X116194344Y-121731020D01*
X116077244Y-121980048D01*
X116010977Y-122247135D01*
X115998090Y-122522017D01*
X116039078Y-122794133D01*
X116132364Y-123053023D01*
X116194344Y-123168980D01*
X116434435Y-123235960D01*
X117220395Y-122450000D01*
X117579605Y-122450000D01*
X118365565Y-123235960D01*
X118605656Y-123168980D01*
X118722756Y-122919952D01*
X118789023Y-122652865D01*
X118801910Y-122377983D01*
X118795801Y-122337424D01*
X120757000Y-122337424D01*
X120757000Y-122562576D01*
X120800925Y-122783401D01*
X120887087Y-122991413D01*
X121012174Y-123178620D01*
X121171380Y-123337826D01*
X121358587Y-123462913D01*
X121566599Y-123549075D01*
X121787424Y-123593000D01*
X122012576Y-123593000D01*
X122233401Y-123549075D01*
X122441413Y-123462913D01*
X122512274Y-123415565D01*
X129514040Y-123415565D01*
X129581020Y-123655656D01*
X129830048Y-123772756D01*
X130097135Y-123839023D01*
X130372017Y-123851910D01*
X130644133Y-123810922D01*
X130903023Y-123717636D01*
X131018980Y-123655656D01*
X131085960Y-123415565D01*
X130300000Y-122629605D01*
X129514040Y-123415565D01*
X122512274Y-123415565D01*
X122628620Y-123337826D01*
X122787826Y-123178620D01*
X122912913Y-122991413D01*
X122999075Y-122783401D01*
X123043000Y-122562576D01*
X123043000Y-122337424D01*
X122999075Y-122116599D01*
X122912913Y-121908587D01*
X122787826Y-121721380D01*
X122628620Y-121562174D01*
X122441413Y-121437087D01*
X122233401Y-121350925D01*
X122012576Y-121307000D01*
X121787424Y-121307000D01*
X121566599Y-121350925D01*
X121358587Y-121437087D01*
X121171380Y-121562174D01*
X121012174Y-121721380D01*
X120887087Y-121908587D01*
X120800925Y-122116599D01*
X120757000Y-122337424D01*
X118795801Y-122337424D01*
X118760922Y-122105867D01*
X118667636Y-121846977D01*
X118605656Y-121731020D01*
X118365565Y-121664040D01*
X117579605Y-122450000D01*
X117220395Y-122450000D01*
X117206253Y-122435858D01*
X117385858Y-122256253D01*
X117400000Y-122270395D01*
X118185960Y-121484435D01*
X118118980Y-121244344D01*
X117869952Y-121127244D01*
X117602865Y-121060977D01*
X117327983Y-121048090D01*
X117055867Y-121089078D01*
X117029840Y-121098456D01*
X117052312Y-121031917D01*
X116150000Y-120129605D01*
X115247688Y-121031917D01*
X114631000Y-121031917D01*
X114631000Y-120332123D01*
X114728132Y-120609921D01*
X114811347Y-120765607D01*
X115068083Y-120852312D01*
X115970395Y-119950000D01*
X116329605Y-119950000D01*
X117231917Y-120852312D01*
X117488653Y-120765607D01*
X117622048Y-120488777D01*
X117698873Y-120191243D01*
X117716176Y-119884438D01*
X117707288Y-119821370D01*
X121844000Y-119821370D01*
X121844000Y-120078630D01*
X121894189Y-120330946D01*
X121992638Y-120568623D01*
X122135564Y-120782526D01*
X122317474Y-120964436D01*
X122531377Y-121107362D01*
X122769054Y-121205811D01*
X123021370Y-121256000D01*
X123278630Y-121256000D01*
X123530946Y-121205811D01*
X123768623Y-121107362D01*
X123881533Y-121031917D01*
X128147688Y-121031917D01*
X128234393Y-121288653D01*
X128511223Y-121422048D01*
X128808757Y-121498873D01*
X129115562Y-121516176D01*
X129271447Y-121494207D01*
X129218023Y-121547631D01*
X129334433Y-121664041D01*
X129094344Y-121731020D01*
X128977244Y-121980048D01*
X128910977Y-122247135D01*
X128898090Y-122522017D01*
X128939078Y-122794133D01*
X129032364Y-123053023D01*
X129094344Y-123168980D01*
X129334435Y-123235960D01*
X130120395Y-122450000D01*
X130479605Y-122450000D01*
X131265565Y-123235960D01*
X131505656Y-123168980D01*
X131622756Y-122919952D01*
X131689023Y-122652865D01*
X131701910Y-122377983D01*
X131695801Y-122337424D01*
X133657000Y-122337424D01*
X133657000Y-122562576D01*
X133700925Y-122783401D01*
X133787087Y-122991413D01*
X133912174Y-123178620D01*
X134071380Y-123337826D01*
X134258587Y-123462913D01*
X134466599Y-123549075D01*
X134687424Y-123593000D01*
X134912576Y-123593000D01*
X135133401Y-123549075D01*
X135341413Y-123462913D01*
X135412274Y-123415565D01*
X142414040Y-123415565D01*
X142481020Y-123655656D01*
X142730048Y-123772756D01*
X142997135Y-123839023D01*
X143272017Y-123851910D01*
X143544133Y-123810922D01*
X143803023Y-123717636D01*
X143918980Y-123655656D01*
X143985960Y-123415565D01*
X143200000Y-122629605D01*
X142414040Y-123415565D01*
X135412274Y-123415565D01*
X135528620Y-123337826D01*
X135687826Y-123178620D01*
X135812913Y-122991413D01*
X135899075Y-122783401D01*
X135943000Y-122562576D01*
X135943000Y-122337424D01*
X135899075Y-122116599D01*
X135812913Y-121908587D01*
X135687826Y-121721380D01*
X135528620Y-121562174D01*
X135341413Y-121437087D01*
X135133401Y-121350925D01*
X134912576Y-121307000D01*
X134687424Y-121307000D01*
X134466599Y-121350925D01*
X134258587Y-121437087D01*
X134071380Y-121562174D01*
X133912174Y-121721380D01*
X133787087Y-121908587D01*
X133700925Y-122116599D01*
X133657000Y-122337424D01*
X131695801Y-122337424D01*
X131660922Y-122105867D01*
X131567636Y-121846977D01*
X131505656Y-121731020D01*
X131265565Y-121664040D01*
X130479605Y-122450000D01*
X130120395Y-122450000D01*
X130106253Y-122435858D01*
X130285858Y-122256253D01*
X130300000Y-122270395D01*
X131085960Y-121484435D01*
X131018980Y-121244344D01*
X130769952Y-121127244D01*
X130502865Y-121060977D01*
X130227983Y-121048090D01*
X129955867Y-121089078D01*
X129929840Y-121098456D01*
X129952312Y-121031917D01*
X129050000Y-120129605D01*
X128147688Y-121031917D01*
X123881533Y-121031917D01*
X123982526Y-120964436D01*
X124164436Y-120782526D01*
X124307362Y-120568623D01*
X124405811Y-120330946D01*
X124456000Y-120078630D01*
X124456000Y-120015562D01*
X127483824Y-120015562D01*
X127526708Y-120319848D01*
X127628132Y-120609921D01*
X127711347Y-120765607D01*
X127968083Y-120852312D01*
X128870395Y-119950000D01*
X129229605Y-119950000D01*
X130131917Y-120852312D01*
X130388653Y-120765607D01*
X130522048Y-120488777D01*
X130598873Y-120191243D01*
X130616176Y-119884438D01*
X130573292Y-119580152D01*
X130471868Y-119290079D01*
X130388653Y-119134393D01*
X130131917Y-119047688D01*
X129229605Y-119950000D01*
X128870395Y-119950000D01*
X127968083Y-119047688D01*
X127711347Y-119134393D01*
X127577952Y-119411223D01*
X127501127Y-119708757D01*
X127483824Y-120015562D01*
X124456000Y-120015562D01*
X124456000Y-119821370D01*
X124405811Y-119569054D01*
X124307362Y-119331377D01*
X124164436Y-119117474D01*
X123982526Y-118935564D01*
X123881534Y-118868083D01*
X128147688Y-118868083D01*
X129050000Y-119770395D01*
X129952312Y-118868083D01*
X129865607Y-118611347D01*
X129588777Y-118477952D01*
X129291243Y-118401127D01*
X128984438Y-118383824D01*
X128680152Y-118426708D01*
X128390079Y-118528132D01*
X128234393Y-118611347D01*
X128147688Y-118868083D01*
X123881534Y-118868083D01*
X123768623Y-118792638D01*
X123530946Y-118694189D01*
X123278630Y-118644000D01*
X123021370Y-118644000D01*
X122769054Y-118694189D01*
X122531377Y-118792638D01*
X122317474Y-118935564D01*
X122135564Y-119117474D01*
X121992638Y-119331377D01*
X121894189Y-119569054D01*
X121844000Y-119821370D01*
X117707288Y-119821370D01*
X117673292Y-119580152D01*
X117571868Y-119290079D01*
X117488653Y-119134393D01*
X117231917Y-119047688D01*
X116329605Y-119950000D01*
X115970395Y-119950000D01*
X115068083Y-119047688D01*
X114811347Y-119134393D01*
X114677952Y-119411223D01*
X114631000Y-119593062D01*
X114631000Y-118868083D01*
X115247688Y-118868083D01*
X116150000Y-119770395D01*
X117052312Y-118868083D01*
X116965607Y-118611347D01*
X116688777Y-118477952D01*
X116391243Y-118401127D01*
X116084438Y-118383824D01*
X115780152Y-118426708D01*
X115490079Y-118528132D01*
X115334393Y-118611347D01*
X115247688Y-118868083D01*
X114631000Y-118868083D01*
X114631000Y-111814738D01*
X115119000Y-111814738D01*
X115119000Y-112185262D01*
X115191286Y-112548667D01*
X115333080Y-112890987D01*
X115538932Y-113199067D01*
X115800933Y-113461068D01*
X116109013Y-113666920D01*
X116451333Y-113808714D01*
X116814738Y-113881000D01*
X117185262Y-113881000D01*
X117548667Y-113808714D01*
X117890987Y-113666920D01*
X118199067Y-113461068D01*
X118461068Y-113199067D01*
X118666920Y-112890987D01*
X118808714Y-112548667D01*
X118881000Y-112185262D01*
X118881000Y-111814738D01*
X118808714Y-111451333D01*
X118666920Y-111109013D01*
X118461068Y-110800933D01*
X118199067Y-110538932D01*
X117890987Y-110333080D01*
X117548667Y-110191286D01*
X117185262Y-110119000D01*
X116814738Y-110119000D01*
X116451333Y-110191286D01*
X116109013Y-110333080D01*
X115800933Y-110538932D01*
X115538932Y-110800933D01*
X115333080Y-111109013D01*
X115191286Y-111451333D01*
X115119000Y-111814738D01*
X114631000Y-111814738D01*
X114631000Y-102566728D01*
X114726458Y-102595685D01*
X114849900Y-102607843D01*
X115650100Y-102607843D01*
X115773542Y-102595685D01*
X115892240Y-102559678D01*
X116001633Y-102501207D01*
X116097517Y-102422517D01*
X116176207Y-102326633D01*
X116234678Y-102217240D01*
X116270685Y-102098542D01*
X116282843Y-101975100D01*
X116282843Y-101424900D01*
X116270685Y-101301458D01*
X116238650Y-101195855D01*
X116314547Y-101110149D01*
X116429184Y-100913784D01*
X116493964Y-100735810D01*
X116368163Y-100557000D01*
X115377000Y-100557000D01*
X115377000Y-100577000D01*
X115123000Y-100577000D01*
X115123000Y-100557000D01*
X115103000Y-100557000D01*
X115103000Y-100303000D01*
X115123000Y-100303000D01*
X115123000Y-100283000D01*
X115377000Y-100283000D01*
X115377000Y-100303000D01*
X116368163Y-100303000D01*
X116493964Y-100124190D01*
X116429184Y-99946216D01*
X116314547Y-99749851D01*
X116172662Y-99589627D01*
X116216084Y-99508388D01*
X116267890Y-99337607D01*
X116285383Y-99160000D01*
X116267890Y-98982393D01*
X116216084Y-98811612D01*
X116131956Y-98654218D01*
X116018738Y-98516262D01*
X115880782Y-98403044D01*
X115723388Y-98318916D01*
X115552607Y-98267110D01*
X115419501Y-98254000D01*
X115080499Y-98254000D01*
X114947393Y-98267110D01*
X114776612Y-98318916D01*
X114631000Y-98396746D01*
X114631000Y-93920600D01*
X116982090Y-93920600D01*
X117105776Y-94123000D01*
X118123000Y-94123000D01*
X118123000Y-94103000D01*
X118377000Y-94103000D01*
X118377000Y-94123000D01*
X118397000Y-94123000D01*
X118397000Y-94377000D01*
X118377000Y-94377000D01*
X118377000Y-94397000D01*
X118123000Y-94397000D01*
X118123000Y-94377000D01*
X117105776Y-94377000D01*
X116982090Y-94579400D01*
X117012762Y-94680528D01*
X117120527Y-94913629D01*
X117271697Y-95121227D01*
X117460463Y-95295344D01*
X117626283Y-95396714D01*
X117576839Y-95429751D01*
X117429751Y-95576839D01*
X117314185Y-95749796D01*
X117234581Y-95941976D01*
X117194000Y-96145993D01*
X117194000Y-96354007D01*
X117234581Y-96558024D01*
X117314185Y-96750204D01*
X117429751Y-96923161D01*
X117576839Y-97070249D01*
X117749796Y-97185815D01*
X117904751Y-97250000D01*
X117749796Y-97314185D01*
X117576839Y-97429751D01*
X117429751Y-97576839D01*
X117314185Y-97749796D01*
X117234581Y-97941976D01*
X117194000Y-98145993D01*
X117194000Y-98354007D01*
X117234581Y-98558024D01*
X117314185Y-98750204D01*
X117429751Y-98923161D01*
X117576839Y-99070249D01*
X117749796Y-99185815D01*
X117904751Y-99250000D01*
X117749796Y-99314185D01*
X117576839Y-99429751D01*
X117429751Y-99576839D01*
X117314185Y-99749796D01*
X117234581Y-99941976D01*
X117194000Y-100145993D01*
X117194000Y-100354007D01*
X117234581Y-100558024D01*
X117314185Y-100750204D01*
X117429751Y-100923161D01*
X117576839Y-101070249D01*
X117749796Y-101185815D01*
X117769000Y-101193770D01*
X117769001Y-102476364D01*
X117766673Y-102500000D01*
X117775960Y-102594292D01*
X117791646Y-102646000D01*
X117803465Y-102684961D01*
X117848129Y-102768522D01*
X117908237Y-102841764D01*
X117926588Y-102856824D01*
X126972955Y-111903192D01*
X126969000Y-111923078D01*
X126969000Y-112076922D01*
X126999013Y-112227809D01*
X127057887Y-112369942D01*
X127143358Y-112497859D01*
X127252141Y-112606642D01*
X127380058Y-112692113D01*
X127522191Y-112750987D01*
X127673078Y-112781000D01*
X127826922Y-112781000D01*
X127977809Y-112750987D01*
X128119942Y-112692113D01*
X128247859Y-112606642D01*
X128356642Y-112497859D01*
X128442113Y-112369942D01*
X128500987Y-112227809D01*
X128531000Y-112076922D01*
X128531000Y-111923078D01*
X128500987Y-111772191D01*
X128442113Y-111630058D01*
X128356642Y-111502141D01*
X128247859Y-111393358D01*
X128119942Y-111307887D01*
X127977809Y-111249013D01*
X127826922Y-111219000D01*
X127673078Y-111219000D01*
X127653192Y-111222955D01*
X124603315Y-108173078D01*
X128469000Y-108173078D01*
X128469000Y-108326922D01*
X128499013Y-108477809D01*
X128557887Y-108619942D01*
X128643358Y-108747859D01*
X128752141Y-108856642D01*
X128880058Y-108942113D01*
X129022191Y-109000987D01*
X129173078Y-109031000D01*
X129326922Y-109031000D01*
X129477809Y-109000987D01*
X129619942Y-108942113D01*
X129747859Y-108856642D01*
X129856642Y-108747859D01*
X129942113Y-108619942D01*
X130000987Y-108477809D01*
X130031000Y-108326922D01*
X130031000Y-108173078D01*
X130000987Y-108022191D01*
X129942113Y-107880058D01*
X129856642Y-107752141D01*
X129747859Y-107643358D01*
X129619942Y-107557887D01*
X129477809Y-107499013D01*
X129326922Y-107469000D01*
X129173078Y-107469000D01*
X129022191Y-107499013D01*
X128880058Y-107557887D01*
X128752141Y-107643358D01*
X128643358Y-107752141D01*
X128557887Y-107880058D01*
X128499013Y-108022191D01*
X128469000Y-108173078D01*
X124603315Y-108173078D01*
X118731000Y-102300764D01*
X118731000Y-101193770D01*
X118750204Y-101185815D01*
X118923161Y-101070249D01*
X119070249Y-100923161D01*
X119185815Y-100750204D01*
X119250000Y-100595249D01*
X119314185Y-100750204D01*
X119429751Y-100923161D01*
X119576839Y-101070249D01*
X119749796Y-101185815D01*
X119941976Y-101265419D01*
X120145993Y-101306000D01*
X120354007Y-101306000D01*
X120558024Y-101265419D01*
X120750204Y-101185815D01*
X120923161Y-101070249D01*
X121070249Y-100923161D01*
X121185815Y-100750204D01*
X121265419Y-100558024D01*
X121306000Y-100354007D01*
X121306000Y-100145993D01*
X121265419Y-99941976D01*
X121185815Y-99749796D01*
X121070249Y-99576839D01*
X120923161Y-99429751D01*
X120750204Y-99314185D01*
X120595249Y-99250000D01*
X120750204Y-99185815D01*
X120923161Y-99070249D01*
X121070249Y-98923161D01*
X121185815Y-98750204D01*
X121265419Y-98558024D01*
X121306000Y-98354007D01*
X121306000Y-98145993D01*
X121265419Y-97941976D01*
X121185815Y-97749796D01*
X121070249Y-97576839D01*
X120923161Y-97429751D01*
X120750204Y-97314185D01*
X120595249Y-97250000D01*
X120750204Y-97185815D01*
X120923161Y-97070249D01*
X121070249Y-96923161D01*
X121185815Y-96750204D01*
X121265419Y-96558024D01*
X121306000Y-96354007D01*
X121306000Y-96145993D01*
X121265419Y-95941976D01*
X121185815Y-95749796D01*
X121070249Y-95576839D01*
X120923161Y-95429751D01*
X120750204Y-95314185D01*
X120595249Y-95250000D01*
X120750204Y-95185815D01*
X120923161Y-95070249D01*
X121070249Y-94923161D01*
X121185815Y-94750204D01*
X121265419Y-94558024D01*
X121306000Y-94354007D01*
X121306000Y-94145993D01*
X121265419Y-93941976D01*
X121185815Y-93749796D01*
X121070249Y-93576839D01*
X120923161Y-93429751D01*
X120750204Y-93314185D01*
X120595249Y-93250000D01*
X120750204Y-93185815D01*
X120923161Y-93070249D01*
X121070249Y-92923161D01*
X121169748Y-92774249D01*
X121252141Y-92856642D01*
X121380058Y-92942113D01*
X121522191Y-93000987D01*
X121673078Y-93031000D01*
X121826922Y-93031000D01*
X121977809Y-93000987D01*
X122119942Y-92942113D01*
X122247859Y-92856642D01*
X122356642Y-92747859D01*
X122442113Y-92619942D01*
X122500987Y-92477809D01*
X122531000Y-92326922D01*
X122531000Y-92173078D01*
X122500987Y-92022191D01*
X122442113Y-91880058D01*
X122356642Y-91752141D01*
X122247859Y-91643358D01*
X122119942Y-91557887D01*
X121977809Y-91499013D01*
X121826922Y-91469000D01*
X121673078Y-91469000D01*
X121522191Y-91499013D01*
X121380058Y-91557887D01*
X121252141Y-91643358D01*
X121169748Y-91725751D01*
X121070249Y-91576839D01*
X120923161Y-91429751D01*
X120750204Y-91314185D01*
X120558024Y-91234581D01*
X120354007Y-91194000D01*
X120145993Y-91194000D01*
X119941976Y-91234581D01*
X119749796Y-91314185D01*
X119576839Y-91429751D01*
X119452491Y-91554099D01*
X119444374Y-91471690D01*
X119414239Y-91372350D01*
X119365304Y-91280798D01*
X119299448Y-91200552D01*
X119219202Y-91134696D01*
X119127650Y-91085761D01*
X119028310Y-91055626D01*
X118925000Y-91045451D01*
X117575000Y-91045451D01*
X117471690Y-91055626D01*
X117372350Y-91085761D01*
X117280798Y-91134696D01*
X117200552Y-91200552D01*
X117134696Y-91280798D01*
X117085761Y-91372350D01*
X117055626Y-91471690D01*
X117045451Y-91575000D01*
X117045451Y-92925000D01*
X117055626Y-93028310D01*
X117085761Y-93127650D01*
X117134696Y-93219202D01*
X117200552Y-93299448D01*
X117280798Y-93365304D01*
X117284281Y-93367166D01*
X117271697Y-93378773D01*
X117120527Y-93586371D01*
X117012762Y-93819472D01*
X116982090Y-93920600D01*
X114631000Y-93920600D01*
X114631000Y-87314738D01*
X115119000Y-87314738D01*
X115119000Y-87685262D01*
X115191286Y-88048667D01*
X115333080Y-88390987D01*
X115538932Y-88699067D01*
X115800933Y-88961068D01*
X116109013Y-89166920D01*
X116451333Y-89308714D01*
X116814738Y-89381000D01*
X117185262Y-89381000D01*
X117548667Y-89308714D01*
X117890987Y-89166920D01*
X118199067Y-88961068D01*
X118461068Y-88699067D01*
X118666920Y-88390987D01*
X118808714Y-88048667D01*
X118881000Y-87685262D01*
X118881000Y-87314738D01*
X118808714Y-86951333D01*
X118666920Y-86609013D01*
X118461068Y-86300933D01*
X118199067Y-86038932D01*
X117890987Y-85833080D01*
X117548667Y-85691286D01*
X117185262Y-85619000D01*
X116814738Y-85619000D01*
X116451333Y-85691286D01*
X116109013Y-85833080D01*
X115800933Y-86038932D01*
X115538932Y-86300933D01*
X115333080Y-86609013D01*
X115191286Y-86951333D01*
X115119000Y-87314738D01*
X114631000Y-87314738D01*
X114631000Y-85631000D01*
X114969002Y-85631000D01*
X115000000Y-85634053D01*
X115030998Y-85631000D01*
X115123698Y-85621870D01*
X115242642Y-85585789D01*
X115352261Y-85527196D01*
X115448343Y-85448343D01*
X115527196Y-85352261D01*
X115585789Y-85242642D01*
X115621870Y-85123698D01*
X115634053Y-85000000D01*
X115631000Y-84969002D01*
X115631000Y-78859453D01*
X116933000Y-78859453D01*
X116933000Y-79140547D01*
X116987838Y-79416241D01*
X117095409Y-79675938D01*
X117251576Y-79909660D01*
X117433000Y-80091084D01*
X117433001Y-84564463D01*
X117428516Y-84610000D01*
X117446414Y-84791723D01*
X117499420Y-84966463D01*
X117585499Y-85127505D01*
X117672312Y-85233287D01*
X117672317Y-85233292D01*
X117701342Y-85268659D01*
X117736709Y-85297684D01*
X125823000Y-93383976D01*
X125823001Y-97999869D01*
X125818516Y-98045406D01*
X125823001Y-98090943D01*
X125823001Y-98090944D01*
X125836414Y-98227130D01*
X125852493Y-98280136D01*
X125889420Y-98401869D01*
X125975499Y-98562911D01*
X126062312Y-98668693D01*
X126062317Y-98668698D01*
X126091342Y-98704065D01*
X126126708Y-98733090D01*
X130573000Y-103179382D01*
X130573001Y-111468500D01*
X130497859Y-111393358D01*
X130369942Y-111307887D01*
X130227809Y-111249013D01*
X130076922Y-111219000D01*
X129923078Y-111219000D01*
X129772191Y-111249013D01*
X129630058Y-111307887D01*
X129502141Y-111393358D01*
X129393358Y-111502141D01*
X129307887Y-111630058D01*
X129249013Y-111772191D01*
X129219000Y-111923078D01*
X129219000Y-112076922D01*
X129222955Y-112096808D01*
X124596801Y-116722963D01*
X124576933Y-116719011D01*
X124423089Y-116719011D01*
X124272202Y-116749024D01*
X124130069Y-116807898D01*
X124002152Y-116893369D01*
X123893369Y-117002152D01*
X123807898Y-117130069D01*
X123749024Y-117272202D01*
X123719011Y-117423089D01*
X123719011Y-117576933D01*
X123749024Y-117727820D01*
X123807898Y-117869953D01*
X123893369Y-117997870D01*
X124002152Y-118106653D01*
X124130069Y-118192124D01*
X124272202Y-118250998D01*
X124423089Y-118281011D01*
X124576933Y-118281011D01*
X124727820Y-118250998D01*
X124869953Y-118192124D01*
X124997870Y-118106653D01*
X125106653Y-117997870D01*
X125192124Y-117869953D01*
X125250998Y-117727820D01*
X125281011Y-117576933D01*
X125281011Y-117423089D01*
X125277052Y-117403184D01*
X129903192Y-112777045D01*
X129923078Y-112781000D01*
X130076922Y-112781000D01*
X130227809Y-112750987D01*
X130369942Y-112692113D01*
X130497859Y-112606642D01*
X130573001Y-112531500D01*
X130573001Y-113855181D01*
X130501829Y-113941905D01*
X130429791Y-114076679D01*
X130385430Y-114222917D01*
X130370451Y-114374999D01*
X130370451Y-115625001D01*
X130385430Y-115777083D01*
X130429791Y-115923321D01*
X130501829Y-116058095D01*
X130573001Y-116144819D01*
X130573001Y-116704463D01*
X130568516Y-116750000D01*
X130586414Y-116931723D01*
X130639420Y-117106463D01*
X130725499Y-117267505D01*
X130812312Y-117373287D01*
X130812317Y-117373292D01*
X130841342Y-117408659D01*
X130876708Y-117437683D01*
X132262321Y-118823297D01*
X132291346Y-118858664D01*
X132326713Y-118887689D01*
X132326717Y-118887693D01*
X132432499Y-118974507D01*
X132593541Y-119060585D01*
X132768281Y-119113592D01*
X132904467Y-119127005D01*
X132904478Y-119127005D01*
X132950005Y-119131489D01*
X132995532Y-119127005D01*
X135029196Y-119127005D01*
X134892638Y-119331377D01*
X134794189Y-119569054D01*
X134744000Y-119821370D01*
X134744000Y-120078630D01*
X134794189Y-120330946D01*
X134892638Y-120568623D01*
X135035564Y-120782526D01*
X135217474Y-120964436D01*
X135431377Y-121107362D01*
X135669054Y-121205811D01*
X135921370Y-121256000D01*
X136178630Y-121256000D01*
X136430946Y-121205811D01*
X136668623Y-121107362D01*
X136781533Y-121031917D01*
X141047688Y-121031917D01*
X141134393Y-121288653D01*
X141411223Y-121422048D01*
X141708757Y-121498873D01*
X142015562Y-121516176D01*
X142171447Y-121494207D01*
X142118023Y-121547631D01*
X142234433Y-121664041D01*
X141994344Y-121731020D01*
X141877244Y-121980048D01*
X141810977Y-122247135D01*
X141798090Y-122522017D01*
X141839078Y-122794133D01*
X141932364Y-123053023D01*
X141994344Y-123168980D01*
X142234435Y-123235960D01*
X143020395Y-122450000D01*
X143379605Y-122450000D01*
X144165565Y-123235960D01*
X144405656Y-123168980D01*
X144522756Y-122919952D01*
X144589023Y-122652865D01*
X144601910Y-122377983D01*
X144595801Y-122337424D01*
X146557000Y-122337424D01*
X146557000Y-122562576D01*
X146600925Y-122783401D01*
X146687087Y-122991413D01*
X146812174Y-123178620D01*
X146971380Y-123337826D01*
X147158587Y-123462913D01*
X147366599Y-123549075D01*
X147587424Y-123593000D01*
X147812576Y-123593000D01*
X148033401Y-123549075D01*
X148241413Y-123462913D01*
X148312274Y-123415565D01*
X155314040Y-123415565D01*
X155381020Y-123655656D01*
X155630048Y-123772756D01*
X155897135Y-123839023D01*
X156172017Y-123851910D01*
X156444133Y-123810922D01*
X156703023Y-123717636D01*
X156818980Y-123655656D01*
X156885960Y-123415565D01*
X156100000Y-122629605D01*
X155314040Y-123415565D01*
X148312274Y-123415565D01*
X148428620Y-123337826D01*
X148587826Y-123178620D01*
X148712913Y-122991413D01*
X148799075Y-122783401D01*
X148843000Y-122562576D01*
X148843000Y-122337424D01*
X148799075Y-122116599D01*
X148712913Y-121908587D01*
X148587826Y-121721380D01*
X148428620Y-121562174D01*
X148241413Y-121437087D01*
X148033401Y-121350925D01*
X147812576Y-121307000D01*
X147587424Y-121307000D01*
X147366599Y-121350925D01*
X147158587Y-121437087D01*
X146971380Y-121562174D01*
X146812174Y-121721380D01*
X146687087Y-121908587D01*
X146600925Y-122116599D01*
X146557000Y-122337424D01*
X144595801Y-122337424D01*
X144560922Y-122105867D01*
X144467636Y-121846977D01*
X144405656Y-121731020D01*
X144165565Y-121664040D01*
X143379605Y-122450000D01*
X143020395Y-122450000D01*
X143006253Y-122435858D01*
X143185858Y-122256253D01*
X143200000Y-122270395D01*
X143985960Y-121484435D01*
X143918980Y-121244344D01*
X143669952Y-121127244D01*
X143402865Y-121060977D01*
X143127983Y-121048090D01*
X142855867Y-121089078D01*
X142829840Y-121098456D01*
X142852312Y-121031917D01*
X141950000Y-120129605D01*
X141047688Y-121031917D01*
X136781533Y-121031917D01*
X136882526Y-120964436D01*
X137064436Y-120782526D01*
X137207362Y-120568623D01*
X137305811Y-120330946D01*
X137356000Y-120078630D01*
X137356000Y-119821370D01*
X137305811Y-119569054D01*
X137207362Y-119331377D01*
X137070804Y-119127005D01*
X140633223Y-119127005D01*
X140611347Y-119134393D01*
X140477952Y-119411223D01*
X140401127Y-119708757D01*
X140383824Y-120015562D01*
X140426708Y-120319848D01*
X140528132Y-120609921D01*
X140611347Y-120765607D01*
X140868083Y-120852312D01*
X141770395Y-119950000D01*
X141756253Y-119935858D01*
X141935858Y-119756253D01*
X141950000Y-119770395D01*
X141964143Y-119756253D01*
X142143748Y-119935858D01*
X142129605Y-119950000D01*
X143031917Y-120852312D01*
X143288653Y-120765607D01*
X143422048Y-120488777D01*
X143498873Y-120191243D01*
X143516176Y-119884438D01*
X143507288Y-119821370D01*
X147644000Y-119821370D01*
X147644000Y-120078630D01*
X147694189Y-120330946D01*
X147792638Y-120568623D01*
X147935564Y-120782526D01*
X148117474Y-120964436D01*
X148331377Y-121107362D01*
X148569054Y-121205811D01*
X148821370Y-121256000D01*
X149078630Y-121256000D01*
X149330946Y-121205811D01*
X149568623Y-121107362D01*
X149681533Y-121031917D01*
X153947688Y-121031917D01*
X154034393Y-121288653D01*
X154311223Y-121422048D01*
X154608757Y-121498873D01*
X154915562Y-121516176D01*
X155071447Y-121494207D01*
X155018023Y-121547631D01*
X155134433Y-121664041D01*
X154894344Y-121731020D01*
X154777244Y-121980048D01*
X154710977Y-122247135D01*
X154698090Y-122522017D01*
X154739078Y-122794133D01*
X154832364Y-123053023D01*
X154894344Y-123168980D01*
X155134435Y-123235960D01*
X155920395Y-122450000D01*
X156279605Y-122450000D01*
X157065565Y-123235960D01*
X157305656Y-123168980D01*
X157422756Y-122919952D01*
X157489023Y-122652865D01*
X157501910Y-122377983D01*
X157495801Y-122337424D01*
X159457000Y-122337424D01*
X159457000Y-122562576D01*
X159500925Y-122783401D01*
X159587087Y-122991413D01*
X159712174Y-123178620D01*
X159871380Y-123337826D01*
X160058587Y-123462913D01*
X160266599Y-123549075D01*
X160487424Y-123593000D01*
X160712576Y-123593000D01*
X160933401Y-123549075D01*
X161141413Y-123462913D01*
X161328620Y-123337826D01*
X161487826Y-123178620D01*
X161612913Y-122991413D01*
X161699075Y-122783401D01*
X161743000Y-122562576D01*
X161743000Y-122337424D01*
X161699075Y-122116599D01*
X161612913Y-121908587D01*
X161487826Y-121721380D01*
X161328620Y-121562174D01*
X161141413Y-121437087D01*
X160933401Y-121350925D01*
X160712576Y-121307000D01*
X160487424Y-121307000D01*
X160266599Y-121350925D01*
X160058587Y-121437087D01*
X159871380Y-121562174D01*
X159712174Y-121721380D01*
X159587087Y-121908587D01*
X159500925Y-122116599D01*
X159457000Y-122337424D01*
X157495801Y-122337424D01*
X157460922Y-122105867D01*
X157367636Y-121846977D01*
X157305656Y-121731020D01*
X157065565Y-121664040D01*
X156279605Y-122450000D01*
X155920395Y-122450000D01*
X155906253Y-122435858D01*
X156085858Y-122256253D01*
X156100000Y-122270395D01*
X156885960Y-121484435D01*
X156818980Y-121244344D01*
X156569952Y-121127244D01*
X156302865Y-121060977D01*
X156027983Y-121048090D01*
X155755867Y-121089078D01*
X155729840Y-121098456D01*
X155752312Y-121031917D01*
X154850000Y-120129605D01*
X153947688Y-121031917D01*
X149681533Y-121031917D01*
X149782526Y-120964436D01*
X149964436Y-120782526D01*
X150107362Y-120568623D01*
X150205811Y-120330946D01*
X150256000Y-120078630D01*
X150256000Y-120015562D01*
X153283824Y-120015562D01*
X153326708Y-120319848D01*
X153428132Y-120609921D01*
X153511347Y-120765607D01*
X153768083Y-120852312D01*
X154670395Y-119950000D01*
X155029605Y-119950000D01*
X155931917Y-120852312D01*
X156188653Y-120765607D01*
X156322048Y-120488777D01*
X156398873Y-120191243D01*
X156416176Y-119884438D01*
X156407288Y-119821370D01*
X160544000Y-119821370D01*
X160544000Y-120078630D01*
X160594189Y-120330946D01*
X160692638Y-120568623D01*
X160835564Y-120782526D01*
X161017474Y-120964436D01*
X161231377Y-121107362D01*
X161469054Y-121205811D01*
X161721370Y-121256000D01*
X161978630Y-121256000D01*
X162230946Y-121205811D01*
X162468623Y-121107362D01*
X162682526Y-120964436D01*
X162864436Y-120782526D01*
X163007362Y-120568623D01*
X163105811Y-120330946D01*
X163156000Y-120078630D01*
X163156000Y-119821370D01*
X163105811Y-119569054D01*
X163007362Y-119331377D01*
X162864436Y-119117474D01*
X162682526Y-118935564D01*
X162468623Y-118792638D01*
X162230946Y-118694189D01*
X161978630Y-118644000D01*
X161721370Y-118644000D01*
X161469054Y-118694189D01*
X161231377Y-118792638D01*
X161017474Y-118935564D01*
X160835564Y-119117474D01*
X160692638Y-119331377D01*
X160594189Y-119569054D01*
X160544000Y-119821370D01*
X156407288Y-119821370D01*
X156373292Y-119580152D01*
X156271868Y-119290079D01*
X156188653Y-119134393D01*
X155931917Y-119047688D01*
X155029605Y-119950000D01*
X154670395Y-119950000D01*
X153768083Y-119047688D01*
X153511347Y-119134393D01*
X153377952Y-119411223D01*
X153301127Y-119708757D01*
X153283824Y-120015562D01*
X150256000Y-120015562D01*
X150256000Y-119821370D01*
X150205811Y-119569054D01*
X150107362Y-119331377D01*
X149964436Y-119117474D01*
X149782526Y-118935564D01*
X149681534Y-118868083D01*
X153947688Y-118868083D01*
X154850000Y-119770395D01*
X155752312Y-118868083D01*
X155665607Y-118611347D01*
X155388777Y-118477952D01*
X155091243Y-118401127D01*
X154784438Y-118383824D01*
X154480152Y-118426708D01*
X154190079Y-118528132D01*
X154034393Y-118611347D01*
X153947688Y-118868083D01*
X149681534Y-118868083D01*
X149568623Y-118792638D01*
X149330946Y-118694189D01*
X149078630Y-118644000D01*
X148821370Y-118644000D01*
X148569054Y-118694189D01*
X148331377Y-118792638D01*
X148117474Y-118935564D01*
X147935564Y-119117474D01*
X147792638Y-119331377D01*
X147694189Y-119569054D01*
X147644000Y-119821370D01*
X143507288Y-119821370D01*
X143473292Y-119580152D01*
X143371868Y-119290079D01*
X143288653Y-119134393D01*
X143266777Y-119127005D01*
X146254468Y-119127005D01*
X146299995Y-119131489D01*
X146345522Y-119127005D01*
X146345533Y-119127005D01*
X146481719Y-119113592D01*
X146656459Y-119060585D01*
X146817500Y-118974506D01*
X146958654Y-118858664D01*
X146987683Y-118823292D01*
X149406427Y-116404549D01*
X149850001Y-116404549D01*
X150002083Y-116389570D01*
X150148321Y-116345209D01*
X150283095Y-116273171D01*
X150401225Y-116176225D01*
X150498171Y-116058095D01*
X150515725Y-116025254D01*
X150543693Y-116066725D01*
X150716526Y-116238078D01*
X150919467Y-116372421D01*
X151144718Y-116464591D01*
X151182391Y-116468462D01*
X151373000Y-116343731D01*
X151373000Y-115127000D01*
X151353000Y-115127000D01*
X151353000Y-114873000D01*
X151373000Y-114873000D01*
X151373000Y-114853000D01*
X151627000Y-114853000D01*
X151627000Y-114873000D01*
X151647000Y-114873000D01*
X151647000Y-115127000D01*
X151627000Y-115127000D01*
X151627000Y-116343731D01*
X151817609Y-116468462D01*
X151855282Y-116464591D01*
X152080533Y-116372421D01*
X152283474Y-116238078D01*
X152456307Y-116066725D01*
X152592390Y-115864946D01*
X152641007Y-115748986D01*
X152680383Y-115822651D01*
X152802973Y-115972028D01*
X152952350Y-116094618D01*
X153122772Y-116185711D01*
X153307691Y-116241805D01*
X153500000Y-116260746D01*
X153692310Y-116241805D01*
X153877229Y-116185711D01*
X154047651Y-116094618D01*
X154197028Y-115972028D01*
X154319618Y-115822651D01*
X154410711Y-115652229D01*
X154466805Y-115467309D01*
X154481000Y-115323186D01*
X154481000Y-114676814D01*
X154519000Y-114676814D01*
X154519000Y-115323187D01*
X154533195Y-115467310D01*
X154589289Y-115652229D01*
X154680383Y-115822651D01*
X154802973Y-115972028D01*
X154952350Y-116094618D01*
X155122772Y-116185711D01*
X155307691Y-116241805D01*
X155500000Y-116260746D01*
X155692310Y-116241805D01*
X155877229Y-116185711D01*
X156047651Y-116094618D01*
X156197028Y-115972028D01*
X156319618Y-115822651D01*
X156410711Y-115652229D01*
X156466805Y-115467309D01*
X156481000Y-115323186D01*
X156481000Y-114676813D01*
X156466805Y-114532690D01*
X156410711Y-114347771D01*
X156319618Y-114177349D01*
X156197028Y-114027972D01*
X156047651Y-113905382D01*
X155877228Y-113814289D01*
X155692309Y-113758195D01*
X155500000Y-113739254D01*
X155307690Y-113758195D01*
X155122771Y-113814289D01*
X154952349Y-113905382D01*
X154802972Y-114027972D01*
X154680382Y-114177349D01*
X154589289Y-114347772D01*
X154533195Y-114532691D01*
X154519000Y-114676814D01*
X154481000Y-114676814D01*
X154481000Y-114676813D01*
X154466805Y-114532690D01*
X154410711Y-114347771D01*
X154319618Y-114177349D01*
X154197028Y-114027972D01*
X154047651Y-113905382D01*
X153877228Y-113814289D01*
X153692309Y-113758195D01*
X153500000Y-113739254D01*
X153307690Y-113758195D01*
X153122771Y-113814289D01*
X152952349Y-113905382D01*
X152802972Y-114027972D01*
X152680382Y-114177349D01*
X152641007Y-114251014D01*
X152592390Y-114135054D01*
X152456307Y-113933275D01*
X152339448Y-113817417D01*
X152368512Y-113801882D01*
X152441754Y-113741774D01*
X152456820Y-113723416D01*
X154365498Y-111814738D01*
X159119000Y-111814738D01*
X159119000Y-112185262D01*
X159191286Y-112548667D01*
X159333080Y-112890987D01*
X159538932Y-113199067D01*
X159800933Y-113461068D01*
X160109013Y-113666920D01*
X160451333Y-113808714D01*
X160814738Y-113881000D01*
X161185262Y-113881000D01*
X161548667Y-113808714D01*
X161890987Y-113666920D01*
X162199067Y-113461068D01*
X162461068Y-113199067D01*
X162666920Y-112890987D01*
X162808714Y-112548667D01*
X162881000Y-112185262D01*
X162881000Y-111814738D01*
X162808714Y-111451333D01*
X162666920Y-111109013D01*
X162461068Y-110800933D01*
X162199067Y-110538932D01*
X161890987Y-110333080D01*
X161548667Y-110191286D01*
X161185262Y-110119000D01*
X160814738Y-110119000D01*
X160451333Y-110191286D01*
X160109013Y-110333080D01*
X159800933Y-110538932D01*
X159538932Y-110800933D01*
X159333080Y-111109013D01*
X159191286Y-111451333D01*
X159119000Y-111814738D01*
X154365498Y-111814738D01*
X159903192Y-106277045D01*
X159923078Y-106281000D01*
X160076922Y-106281000D01*
X160227809Y-106250987D01*
X160369942Y-106192113D01*
X160497859Y-106106642D01*
X160606642Y-105997859D01*
X160692113Y-105869942D01*
X160750987Y-105727809D01*
X160781000Y-105576922D01*
X160781000Y-105423078D01*
X160750987Y-105272191D01*
X160692113Y-105130058D01*
X160606642Y-105002141D01*
X160497859Y-104893358D01*
X160369942Y-104807887D01*
X160227809Y-104749013D01*
X160076922Y-104719000D01*
X159923078Y-104719000D01*
X159772191Y-104749013D01*
X159630058Y-104807887D01*
X159606827Y-104823409D01*
X159651872Y-104768522D01*
X159696536Y-104684961D01*
X159724040Y-104594292D01*
X159728614Y-104547857D01*
X159733327Y-104500000D01*
X159731000Y-104476374D01*
X159731000Y-99523616D01*
X159733327Y-99499989D01*
X159724040Y-99405697D01*
X159705321Y-99343991D01*
X159696536Y-99315029D01*
X159651872Y-99231468D01*
X159591764Y-99158226D01*
X159573412Y-99143165D01*
X158527054Y-98096808D01*
X158531010Y-98076922D01*
X158531010Y-97923078D01*
X158500997Y-97772191D01*
X158442123Y-97630058D01*
X158356652Y-97502141D01*
X158247869Y-97393358D01*
X158119952Y-97307887D01*
X157977819Y-97249013D01*
X157826932Y-97219000D01*
X157673088Y-97219000D01*
X157522201Y-97249013D01*
X157380068Y-97307887D01*
X157252151Y-97393358D01*
X157143368Y-97502141D01*
X157057897Y-97630058D01*
X156999023Y-97772191D01*
X156969010Y-97923078D01*
X156969010Y-98076922D01*
X156999023Y-98227809D01*
X157057897Y-98369942D01*
X157143368Y-98497859D01*
X157252151Y-98606642D01*
X157380068Y-98692113D01*
X157522201Y-98750987D01*
X157673088Y-98781000D01*
X157826932Y-98781000D01*
X157846818Y-98777044D01*
X158769001Y-99699228D01*
X158769000Y-104300763D01*
X157941146Y-105128617D01*
X157856642Y-105002147D01*
X157747859Y-104893364D01*
X157619942Y-104807893D01*
X157477809Y-104749019D01*
X157326922Y-104719006D01*
X157173078Y-104719006D01*
X157022191Y-104749019D01*
X156880058Y-104807893D01*
X156752141Y-104893364D01*
X156643358Y-105002147D01*
X156557887Y-105130064D01*
X156499013Y-105272197D01*
X156469000Y-105423084D01*
X156469000Y-105576928D01*
X156472955Y-105596814D01*
X150550770Y-111519000D01*
X147117907Y-111519000D01*
X147106642Y-111502141D01*
X146997859Y-111393358D01*
X146869942Y-111307887D01*
X146727809Y-111249013D01*
X146576922Y-111219000D01*
X146423078Y-111219000D01*
X146272191Y-111249013D01*
X146130058Y-111307887D01*
X146002141Y-111393358D01*
X145893358Y-111502141D01*
X145807887Y-111630058D01*
X145749013Y-111772191D01*
X145719000Y-111923078D01*
X145719000Y-111997261D01*
X145576922Y-111969000D01*
X145423078Y-111969000D01*
X145272191Y-111999013D01*
X145130058Y-112057887D01*
X145002141Y-112143358D01*
X144893358Y-112252141D01*
X144807887Y-112380058D01*
X144749013Y-112522191D01*
X144719000Y-112673078D01*
X144719000Y-112826922D01*
X144749013Y-112977809D01*
X144807887Y-113119942D01*
X144893358Y-113247859D01*
X145002141Y-113356642D01*
X145130058Y-113442113D01*
X145272191Y-113500987D01*
X145423078Y-113531000D01*
X145576922Y-113531000D01*
X145727809Y-113500987D01*
X145869942Y-113442113D01*
X145997859Y-113356642D01*
X146106642Y-113247859D01*
X146117907Y-113231000D01*
X148338764Y-113231000D01*
X147050764Y-114519000D01*
X144462652Y-114519000D01*
X144410711Y-114347771D01*
X144319618Y-114177349D01*
X144197028Y-114027972D01*
X144047651Y-113905382D01*
X143877228Y-113814289D01*
X143692309Y-113758195D01*
X143500000Y-113739254D01*
X143307690Y-113758195D01*
X143122771Y-113814289D01*
X142952349Y-113905382D01*
X142802972Y-114027972D01*
X142680382Y-114177349D01*
X142589289Y-114347772D01*
X142533195Y-114532691D01*
X142519000Y-114676814D01*
X142519000Y-115323187D01*
X142533195Y-115467310D01*
X142589289Y-115652229D01*
X142680383Y-115822651D01*
X142802973Y-115972028D01*
X142952350Y-116094618D01*
X143122772Y-116185711D01*
X143307691Y-116241805D01*
X143500000Y-116260746D01*
X143692310Y-116241805D01*
X143877229Y-116185711D01*
X144047651Y-116094618D01*
X144197028Y-115972028D01*
X144319618Y-115822651D01*
X144410711Y-115652229D01*
X144462652Y-115481000D01*
X147226374Y-115481000D01*
X147250000Y-115483327D01*
X147273626Y-115481000D01*
X147344292Y-115474040D01*
X147434961Y-115446536D01*
X147518522Y-115401872D01*
X147591764Y-115341764D01*
X147606830Y-115323406D01*
X148370451Y-114559785D01*
X148370451Y-114818573D01*
X145916020Y-117273005D01*
X133616794Y-117273005D01*
X133727809Y-117250923D01*
X133869942Y-117192049D01*
X133997859Y-117106578D01*
X134106642Y-116997795D01*
X134192113Y-116869878D01*
X134250987Y-116727745D01*
X134281000Y-116576858D01*
X134281000Y-116423014D01*
X134250987Y-116272127D01*
X134192113Y-116129994D01*
X134125685Y-116030577D01*
X134197028Y-115972028D01*
X134319618Y-115822651D01*
X134358993Y-115748986D01*
X134407610Y-115864946D01*
X134543693Y-116066725D01*
X134716526Y-116238078D01*
X134919467Y-116372421D01*
X135144718Y-116464591D01*
X135182391Y-116468462D01*
X135373000Y-116343731D01*
X135373000Y-115127000D01*
X135353000Y-115127000D01*
X135353000Y-114873000D01*
X135373000Y-114873000D01*
X135373000Y-113656269D01*
X135627000Y-113656269D01*
X135627000Y-114873000D01*
X135647000Y-114873000D01*
X135647000Y-115127000D01*
X135627000Y-115127000D01*
X135627000Y-116343731D01*
X135817609Y-116468462D01*
X135855282Y-116464591D01*
X136080533Y-116372421D01*
X136283474Y-116238078D01*
X136456307Y-116066725D01*
X136592390Y-115864946D01*
X136641007Y-115748986D01*
X136680383Y-115822651D01*
X136802973Y-115972028D01*
X136952350Y-116094618D01*
X137122772Y-116185711D01*
X137307691Y-116241805D01*
X137500000Y-116260746D01*
X137692310Y-116241805D01*
X137877229Y-116185711D01*
X138047651Y-116094618D01*
X138197028Y-115972028D01*
X138319618Y-115822651D01*
X138410711Y-115652229D01*
X138466805Y-115467309D01*
X138481000Y-115323186D01*
X138481000Y-114676814D01*
X138519000Y-114676814D01*
X138519000Y-115323187D01*
X138533195Y-115467310D01*
X138589289Y-115652229D01*
X138680383Y-115822651D01*
X138802973Y-115972028D01*
X138952350Y-116094618D01*
X139122772Y-116185711D01*
X139307691Y-116241805D01*
X139500000Y-116260746D01*
X139692310Y-116241805D01*
X139877229Y-116185711D01*
X140047651Y-116094618D01*
X140197028Y-115972028D01*
X140319618Y-115822651D01*
X140410711Y-115652229D01*
X140466805Y-115467309D01*
X140481000Y-115323186D01*
X140481000Y-114676814D01*
X140519000Y-114676814D01*
X140519000Y-115323187D01*
X140533195Y-115467310D01*
X140589289Y-115652229D01*
X140680383Y-115822651D01*
X140802973Y-115972028D01*
X140952350Y-116094618D01*
X141122772Y-116185711D01*
X141307691Y-116241805D01*
X141500000Y-116260746D01*
X141692310Y-116241805D01*
X141877229Y-116185711D01*
X142047651Y-116094618D01*
X142197028Y-115972028D01*
X142319618Y-115822651D01*
X142410711Y-115652229D01*
X142466805Y-115467309D01*
X142481000Y-115323186D01*
X142481000Y-114676813D01*
X142466805Y-114532690D01*
X142410711Y-114347771D01*
X142319618Y-114177349D01*
X142197028Y-114027972D01*
X142047651Y-113905382D01*
X141877228Y-113814289D01*
X141692309Y-113758195D01*
X141500000Y-113739254D01*
X141307690Y-113758195D01*
X141122771Y-113814289D01*
X140952349Y-113905382D01*
X140802972Y-114027972D01*
X140680382Y-114177349D01*
X140589289Y-114347772D01*
X140533195Y-114532691D01*
X140519000Y-114676814D01*
X140481000Y-114676814D01*
X140481000Y-114676813D01*
X140466805Y-114532690D01*
X140410711Y-114347771D01*
X140319618Y-114177349D01*
X140197028Y-114027972D01*
X140047651Y-113905382D01*
X139877228Y-113814289D01*
X139692309Y-113758195D01*
X139500000Y-113739254D01*
X139307690Y-113758195D01*
X139122771Y-113814289D01*
X138952349Y-113905382D01*
X138802972Y-114027972D01*
X138680382Y-114177349D01*
X138589289Y-114347772D01*
X138533195Y-114532691D01*
X138519000Y-114676814D01*
X138481000Y-114676814D01*
X138481000Y-114676813D01*
X138466805Y-114532690D01*
X138410711Y-114347771D01*
X138319618Y-114177349D01*
X138197028Y-114027972D01*
X138047651Y-113905382D01*
X137877228Y-113814289D01*
X137692309Y-113758195D01*
X137500000Y-113739254D01*
X137307690Y-113758195D01*
X137122771Y-113814289D01*
X136952349Y-113905382D01*
X136802972Y-114027972D01*
X136680382Y-114177349D01*
X136641007Y-114251014D01*
X136592390Y-114135054D01*
X136456307Y-113933275D01*
X136283474Y-113761922D01*
X136080533Y-113627579D01*
X135855282Y-113535409D01*
X135817609Y-113531538D01*
X135627000Y-113656269D01*
X135373000Y-113656269D01*
X135182391Y-113531538D01*
X135144718Y-113535409D01*
X134919467Y-113627579D01*
X134716526Y-113761922D01*
X134543693Y-113933275D01*
X134407610Y-114135054D01*
X134358993Y-114251014D01*
X134319618Y-114177349D01*
X134197028Y-114027972D01*
X134047651Y-113905382D01*
X133877228Y-113814289D01*
X133692309Y-113758195D01*
X133500000Y-113739254D01*
X133307690Y-113758195D01*
X133122771Y-113814289D01*
X132952349Y-113905382D01*
X132802972Y-114027972D01*
X132680382Y-114177349D01*
X132621020Y-114288407D01*
X132614570Y-114222917D01*
X132570209Y-114076679D01*
X132498171Y-113941905D01*
X132427000Y-113855182D01*
X132427000Y-108123078D01*
X132719000Y-108123078D01*
X132719000Y-108276922D01*
X132749013Y-108427809D01*
X132807887Y-108569942D01*
X132893358Y-108697859D01*
X133002141Y-108806642D01*
X133130058Y-108892113D01*
X133272191Y-108950987D01*
X133423078Y-108981000D01*
X133576922Y-108981000D01*
X133727809Y-108950987D01*
X133869942Y-108892113D01*
X133997859Y-108806642D01*
X134106642Y-108697859D01*
X134192113Y-108569942D01*
X134250987Y-108427809D01*
X134281000Y-108276922D01*
X134281000Y-108173078D01*
X145969034Y-108173078D01*
X145969034Y-108326922D01*
X145999047Y-108477809D01*
X146057921Y-108619942D01*
X146143392Y-108747859D01*
X146252175Y-108856642D01*
X146380092Y-108942113D01*
X146522225Y-109000987D01*
X146673112Y-109031000D01*
X146826956Y-109031000D01*
X146977843Y-109000987D01*
X147119976Y-108942113D01*
X147247893Y-108856642D01*
X147356676Y-108747859D01*
X147442147Y-108619942D01*
X147501021Y-108477809D01*
X147531034Y-108326922D01*
X147531034Y-108173078D01*
X147501021Y-108022191D01*
X147442147Y-107880058D01*
X147356676Y-107752141D01*
X147247893Y-107643358D01*
X147119976Y-107557887D01*
X146977843Y-107499013D01*
X146826956Y-107469000D01*
X146673112Y-107469000D01*
X146522225Y-107499013D01*
X146380092Y-107557887D01*
X146252175Y-107643358D01*
X146143392Y-107752141D01*
X146057921Y-107880058D01*
X145999047Y-108022191D01*
X145969034Y-108173078D01*
X134281000Y-108173078D01*
X134281000Y-108123078D01*
X134250987Y-107972191D01*
X134192113Y-107830058D01*
X134106642Y-107702141D01*
X133997859Y-107593358D01*
X133869942Y-107507887D01*
X133727809Y-107449013D01*
X133576922Y-107419000D01*
X133423078Y-107419000D01*
X133272191Y-107449013D01*
X133130058Y-107507887D01*
X133002141Y-107593358D01*
X132893358Y-107702141D01*
X132807887Y-107830058D01*
X132749013Y-107972191D01*
X132719000Y-108123078D01*
X132427000Y-108123078D01*
X132427000Y-103973076D01*
X136669002Y-103973076D01*
X136669002Y-104126920D01*
X136699015Y-104277807D01*
X136757889Y-104419940D01*
X136843360Y-104547857D01*
X136952143Y-104656640D01*
X137080060Y-104742111D01*
X137222193Y-104800985D01*
X137373080Y-104830998D01*
X137526924Y-104830998D01*
X137677811Y-104800985D01*
X137819944Y-104742111D01*
X137947861Y-104656640D01*
X138056644Y-104547857D01*
X138142115Y-104419940D01*
X138200989Y-104277807D01*
X138231002Y-104126920D01*
X138231002Y-103973076D01*
X138227046Y-103953190D01*
X139199237Y-102981000D01*
X140781028Y-102981000D01*
X140804654Y-102983327D01*
X140828280Y-102981000D01*
X140898946Y-102974040D01*
X140989615Y-102946536D01*
X141073176Y-102901872D01*
X141146418Y-102841764D01*
X141161484Y-102823406D01*
X143936821Y-100048069D01*
X147843991Y-100048069D01*
X147843991Y-100201913D01*
X147874004Y-100352800D01*
X147932878Y-100494933D01*
X148018349Y-100622850D01*
X148127132Y-100731633D01*
X148255049Y-100817104D01*
X148397182Y-100875978D01*
X148548069Y-100905991D01*
X148701913Y-100905991D01*
X148852800Y-100875978D01*
X148994933Y-100817104D01*
X149122850Y-100731633D01*
X149231633Y-100622850D01*
X149317104Y-100494933D01*
X149375978Y-100352800D01*
X149405991Y-100201913D01*
X149405991Y-100048069D01*
X149375978Y-99897182D01*
X149317104Y-99755049D01*
X149231633Y-99627132D01*
X149122850Y-99518349D01*
X148994933Y-99432878D01*
X148852800Y-99374004D01*
X148701913Y-99343991D01*
X148548069Y-99343991D01*
X148397182Y-99374004D01*
X148255049Y-99432878D01*
X148127132Y-99518349D01*
X148018349Y-99627132D01*
X147932878Y-99755049D01*
X147874004Y-99897182D01*
X147843991Y-100048069D01*
X143936821Y-100048069D01*
X146498412Y-97486479D01*
X146516764Y-97471418D01*
X146576872Y-97398176D01*
X146621536Y-97314615D01*
X146649040Y-97223946D01*
X146649527Y-97219000D01*
X146658327Y-97129655D01*
X146656000Y-97106028D01*
X146656000Y-96298086D01*
X147593992Y-96298086D01*
X147593992Y-96451930D01*
X147624005Y-96602817D01*
X147682879Y-96744950D01*
X147768350Y-96872867D01*
X147877133Y-96981650D01*
X148005050Y-97067121D01*
X148147183Y-97125995D01*
X148298070Y-97156008D01*
X148451914Y-97156008D01*
X148602801Y-97125995D01*
X148744934Y-97067121D01*
X148872851Y-96981650D01*
X148981634Y-96872867D01*
X149067105Y-96744950D01*
X149125979Y-96602817D01*
X149155992Y-96451930D01*
X149155992Y-96298086D01*
X149125979Y-96147199D01*
X149067105Y-96005066D01*
X148981634Y-95877149D01*
X148872851Y-95768366D01*
X148744934Y-95682895D01*
X148602801Y-95624021D01*
X148451914Y-95594008D01*
X148298070Y-95594008D01*
X148147183Y-95624021D01*
X148005050Y-95682895D01*
X147877133Y-95768366D01*
X147768350Y-95877149D01*
X147682879Y-96005066D01*
X147624005Y-96147199D01*
X147593992Y-96298086D01*
X146656000Y-96298086D01*
X146656000Y-94723682D01*
X157919000Y-94723682D01*
X157919000Y-94956318D01*
X157964386Y-95184485D01*
X158053412Y-95399413D01*
X158182658Y-95592843D01*
X158347157Y-95757342D01*
X158540587Y-95886588D01*
X158755515Y-95975614D01*
X158983682Y-96021000D01*
X159216318Y-96021000D01*
X159444485Y-95975614D01*
X159659413Y-95886588D01*
X159852843Y-95757342D01*
X160017342Y-95592843D01*
X160146588Y-95399413D01*
X160235614Y-95184485D01*
X160281000Y-94956318D01*
X160281000Y-94723682D01*
X160235614Y-94495515D01*
X160146588Y-94280587D01*
X160017342Y-94087157D01*
X159852843Y-93922658D01*
X159659413Y-93793412D01*
X159444485Y-93704386D01*
X159216318Y-93659000D01*
X158983682Y-93659000D01*
X158755515Y-93704386D01*
X158540587Y-93793412D01*
X158347157Y-93922658D01*
X158182658Y-94087157D01*
X158053412Y-94280587D01*
X157964386Y-94495515D01*
X157919000Y-94723682D01*
X146656000Y-94723682D01*
X146656000Y-92183682D01*
X157919000Y-92183682D01*
X157919000Y-92416318D01*
X157964386Y-92644485D01*
X158053412Y-92859413D01*
X158182658Y-93052843D01*
X158347157Y-93217342D01*
X158540587Y-93346588D01*
X158755515Y-93435614D01*
X158983682Y-93481000D01*
X159216318Y-93481000D01*
X159444485Y-93435614D01*
X159659413Y-93346588D01*
X159852843Y-93217342D01*
X160017342Y-93052843D01*
X160146588Y-92859413D01*
X160235614Y-92644485D01*
X160281000Y-92416318D01*
X160281000Y-92183682D01*
X160235614Y-91955515D01*
X160146588Y-91740587D01*
X160017342Y-91547157D01*
X159852843Y-91382658D01*
X159758795Y-91319817D01*
X159792117Y-91269946D01*
X159850991Y-91127813D01*
X159881004Y-90976926D01*
X159881004Y-90823082D01*
X159850991Y-90672195D01*
X159792117Y-90530062D01*
X159706646Y-90402145D01*
X159597863Y-90293362D01*
X159469946Y-90207891D01*
X159327813Y-90149017D01*
X159176926Y-90119004D01*
X159023082Y-90119004D01*
X158872195Y-90149017D01*
X158730062Y-90207891D01*
X158602145Y-90293362D01*
X158493362Y-90402145D01*
X158407891Y-90530062D01*
X158349017Y-90672195D01*
X158319004Y-90823082D01*
X158319004Y-90976926D01*
X158349017Y-91127813D01*
X158407891Y-91269946D01*
X158441211Y-91319813D01*
X158347157Y-91382658D01*
X158182658Y-91547157D01*
X158053412Y-91740587D01*
X157964386Y-91955515D01*
X157919000Y-92183682D01*
X146656000Y-92183682D01*
X146656000Y-86880244D01*
X146722651Y-86844618D01*
X146872028Y-86722028D01*
X146994618Y-86572651D01*
X147085711Y-86402229D01*
X147141805Y-86217310D01*
X147156000Y-86073187D01*
X147156000Y-85426814D01*
X147156000Y-85426813D01*
X147194000Y-85426813D01*
X147194000Y-86073186D01*
X147208195Y-86217309D01*
X147264289Y-86402228D01*
X147355382Y-86572651D01*
X147477972Y-86722028D01*
X147627349Y-86844618D01*
X147797771Y-86935711D01*
X147982690Y-86991805D01*
X148175000Y-87010746D01*
X148367309Y-86991805D01*
X148552228Y-86935711D01*
X148722651Y-86844618D01*
X148872028Y-86722028D01*
X148994618Y-86572651D01*
X149033993Y-86498986D01*
X149082610Y-86614946D01*
X149218693Y-86816725D01*
X149391526Y-86988078D01*
X149594467Y-87122421D01*
X149819718Y-87214591D01*
X149857391Y-87218462D01*
X150048000Y-87093731D01*
X150048000Y-85877000D01*
X150028000Y-85877000D01*
X150028000Y-85623000D01*
X150048000Y-85623000D01*
X150048000Y-84406269D01*
X150302000Y-84406269D01*
X150302000Y-85623000D01*
X150322000Y-85623000D01*
X150322000Y-85877000D01*
X150302000Y-85877000D01*
X150302000Y-87093731D01*
X150492609Y-87218462D01*
X150530282Y-87214591D01*
X150755533Y-87122421D01*
X150958474Y-86988078D01*
X151131307Y-86816725D01*
X151267390Y-86614946D01*
X151316007Y-86498986D01*
X151355382Y-86572651D01*
X151477972Y-86722028D01*
X151627349Y-86844618D01*
X151797771Y-86935711D01*
X151982690Y-86991805D01*
X152175000Y-87010746D01*
X152367309Y-86991805D01*
X152552228Y-86935711D01*
X152722651Y-86844618D01*
X152872028Y-86722028D01*
X152994618Y-86572651D01*
X153085711Y-86402229D01*
X153141805Y-86217310D01*
X153156000Y-86073187D01*
X153156000Y-85426814D01*
X153141805Y-85282691D01*
X153093971Y-85124999D01*
X153192157Y-85124999D01*
X153192157Y-86375001D01*
X153204317Y-86498462D01*
X153240329Y-86617179D01*
X153298810Y-86726589D01*
X153377512Y-86822488D01*
X153473411Y-86901190D01*
X153473998Y-86901504D01*
X153424007Y-87022191D01*
X153393994Y-87173078D01*
X153393994Y-87326922D01*
X153424007Y-87477809D01*
X153482881Y-87619942D01*
X153568352Y-87747859D01*
X153677135Y-87856642D01*
X153805052Y-87942113D01*
X153947185Y-88000987D01*
X154098072Y-88031000D01*
X154251916Y-88031000D01*
X154402803Y-88000987D01*
X154544936Y-87942113D01*
X154672853Y-87856642D01*
X154781636Y-87747859D01*
X154867107Y-87619942D01*
X154925981Y-87477809D01*
X154955994Y-87326922D01*
X154955994Y-87314738D01*
X159119000Y-87314738D01*
X159119000Y-87685262D01*
X159191286Y-88048667D01*
X159333080Y-88390987D01*
X159538932Y-88699067D01*
X159800933Y-88961068D01*
X160109013Y-89166920D01*
X160451333Y-89308714D01*
X160814738Y-89381000D01*
X161185262Y-89381000D01*
X161548667Y-89308714D01*
X161890987Y-89166920D01*
X162199067Y-88961068D01*
X162461068Y-88699067D01*
X162666920Y-88390987D01*
X162808714Y-88048667D01*
X162881000Y-87685262D01*
X162881000Y-87314738D01*
X162808714Y-86951333D01*
X162666920Y-86609013D01*
X162461068Y-86300933D01*
X162199067Y-86038932D01*
X161890987Y-85833080D01*
X161548667Y-85691286D01*
X161185262Y-85619000D01*
X160814738Y-85619000D01*
X160451333Y-85691286D01*
X160109013Y-85833080D01*
X159800933Y-86038932D01*
X159538932Y-86300933D01*
X159333080Y-86609013D01*
X159191286Y-86951333D01*
X159119000Y-87314738D01*
X154955994Y-87314738D01*
X154955994Y-87173078D01*
X154925981Y-87022191D01*
X154875992Y-86901509D01*
X154876589Y-86901190D01*
X154972488Y-86822488D01*
X155051190Y-86726589D01*
X155109671Y-86617179D01*
X155145683Y-86498462D01*
X155157843Y-86375001D01*
X155157843Y-85124999D01*
X155145683Y-85001538D01*
X155109671Y-84882821D01*
X155051190Y-84773411D01*
X154972488Y-84677512D01*
X154876589Y-84598810D01*
X154767179Y-84540329D01*
X154648462Y-84504317D01*
X154525001Y-84492157D01*
X153824999Y-84492157D01*
X153701538Y-84504317D01*
X153582821Y-84540329D01*
X153473411Y-84598810D01*
X153377512Y-84677512D01*
X153298810Y-84773411D01*
X153240329Y-84882821D01*
X153204317Y-85001538D01*
X153192157Y-85124999D01*
X153093971Y-85124999D01*
X153085711Y-85097771D01*
X152994618Y-84927349D01*
X152872028Y-84777972D01*
X152722651Y-84655382D01*
X152552229Y-84564289D01*
X152367310Y-84508195D01*
X152175000Y-84489254D01*
X151982691Y-84508195D01*
X151797772Y-84564289D01*
X151627350Y-84655382D01*
X151477973Y-84777972D01*
X151355383Y-84927349D01*
X151316007Y-85001014D01*
X151267390Y-84885054D01*
X151131307Y-84683275D01*
X150958474Y-84511922D01*
X150755533Y-84377579D01*
X150530282Y-84285409D01*
X150492609Y-84281538D01*
X150302000Y-84406269D01*
X150048000Y-84406269D01*
X149857391Y-84281538D01*
X149819718Y-84285409D01*
X149594467Y-84377579D01*
X149391526Y-84511922D01*
X149218693Y-84683275D01*
X149082610Y-84885054D01*
X149033993Y-85001014D01*
X148994618Y-84927349D01*
X148872028Y-84777972D01*
X148722651Y-84655382D01*
X148552229Y-84564289D01*
X148367310Y-84508195D01*
X148175000Y-84489254D01*
X147982691Y-84508195D01*
X147797772Y-84564289D01*
X147627350Y-84655382D01*
X147477973Y-84777972D01*
X147355383Y-84927349D01*
X147264289Y-85097771D01*
X147208195Y-85282690D01*
X147194000Y-85426813D01*
X147156000Y-85426813D01*
X147141805Y-85282691D01*
X147085711Y-85097771D01*
X146994618Y-84927349D01*
X146872028Y-84777972D01*
X146722651Y-84655382D01*
X146552229Y-84564289D01*
X146367310Y-84508195D01*
X146175000Y-84489254D01*
X145982691Y-84508195D01*
X145797772Y-84564289D01*
X145627350Y-84655382D01*
X145477973Y-84777972D01*
X145355383Y-84927349D01*
X145264289Y-85097771D01*
X145208195Y-85282690D01*
X145194000Y-85426813D01*
X145194000Y-86073186D01*
X145208195Y-86217309D01*
X145264289Y-86402228D01*
X145355382Y-86572651D01*
X145477972Y-86722028D01*
X145627349Y-86844618D01*
X145694000Y-86880244D01*
X145694001Y-96930416D01*
X140605418Y-102019000D01*
X139023626Y-102019000D01*
X138999999Y-102016673D01*
X138905707Y-102025960D01*
X138878203Y-102034304D01*
X138815039Y-102053464D01*
X138731478Y-102098128D01*
X138658236Y-102158236D01*
X138643175Y-102176588D01*
X137546810Y-103272954D01*
X137526924Y-103268998D01*
X137373080Y-103268998D01*
X137222193Y-103299011D01*
X137080060Y-103357885D01*
X136952143Y-103443356D01*
X136843360Y-103552139D01*
X136757889Y-103680056D01*
X136699015Y-103822189D01*
X136669002Y-103973076D01*
X132427000Y-103973076D01*
X132427000Y-102840930D01*
X132431484Y-102795405D01*
X132427000Y-102749880D01*
X132427000Y-102749868D01*
X132413587Y-102613682D01*
X132360580Y-102438942D01*
X132274502Y-102277902D01*
X132274501Y-102277900D01*
X132187687Y-102172117D01*
X132187684Y-102172114D01*
X132158659Y-102136747D01*
X132123294Y-102107724D01*
X130438648Y-100423078D01*
X130969000Y-100423078D01*
X130969000Y-100576922D01*
X130999013Y-100727809D01*
X131057887Y-100869942D01*
X131143358Y-100997859D01*
X131252141Y-101106642D01*
X131380058Y-101192113D01*
X131522191Y-101250987D01*
X131673078Y-101281000D01*
X131826922Y-101281000D01*
X131977809Y-101250987D01*
X132119942Y-101192113D01*
X132247859Y-101106642D01*
X132356642Y-100997859D01*
X132367907Y-100981000D01*
X135190372Y-100981000D01*
X135213998Y-100983327D01*
X135237624Y-100981000D01*
X135249837Y-100979797D01*
X135307887Y-101119942D01*
X135393358Y-101247859D01*
X135502141Y-101356642D01*
X135630058Y-101442113D01*
X135772191Y-101500987D01*
X135923078Y-101531000D01*
X136076922Y-101531000D01*
X136227809Y-101500987D01*
X136369942Y-101442113D01*
X136497859Y-101356642D01*
X136606642Y-101247859D01*
X136692113Y-101119942D01*
X136750987Y-100977809D01*
X136781000Y-100826922D01*
X136781000Y-100685578D01*
X138206500Y-100685578D01*
X138206500Y-100839422D01*
X138236513Y-100990309D01*
X138295387Y-101132442D01*
X138380858Y-101260359D01*
X138489641Y-101369142D01*
X138617558Y-101454613D01*
X138759691Y-101513487D01*
X138910578Y-101543500D01*
X139064422Y-101543500D01*
X139215309Y-101513487D01*
X139357442Y-101454613D01*
X139485359Y-101369142D01*
X139594142Y-101260359D01*
X139679613Y-101132442D01*
X139738487Y-100990309D01*
X139768500Y-100839422D01*
X139768500Y-100685578D01*
X139738487Y-100534691D01*
X139679613Y-100392558D01*
X139594142Y-100264641D01*
X139485359Y-100155858D01*
X139357442Y-100070387D01*
X139215309Y-100011513D01*
X139064422Y-99981500D01*
X138910578Y-99981500D01*
X138759691Y-100011513D01*
X138617558Y-100070387D01*
X138489641Y-100155858D01*
X138380858Y-100264641D01*
X138295387Y-100392558D01*
X138236513Y-100534691D01*
X138206500Y-100685578D01*
X136781000Y-100685578D01*
X136781000Y-100673078D01*
X136750987Y-100522191D01*
X136692113Y-100380058D01*
X136606642Y-100252141D01*
X136497859Y-100143358D01*
X136369942Y-100057887D01*
X136346187Y-100048047D01*
X137913235Y-98481000D01*
X140632093Y-98481000D01*
X140643358Y-98497859D01*
X140752141Y-98606642D01*
X140880058Y-98692113D01*
X141022191Y-98750987D01*
X141173078Y-98781000D01*
X141326922Y-98781000D01*
X141477809Y-98750987D01*
X141619942Y-98692113D01*
X141747859Y-98606642D01*
X141856642Y-98497859D01*
X141942113Y-98369942D01*
X142000987Y-98227809D01*
X142031000Y-98076922D01*
X142031000Y-97923078D01*
X142000987Y-97772191D01*
X141942113Y-97630058D01*
X141856642Y-97502141D01*
X141747859Y-97393358D01*
X141619942Y-97307887D01*
X141477809Y-97249013D01*
X141326922Y-97219000D01*
X141173078Y-97219000D01*
X141022191Y-97249013D01*
X140880058Y-97307887D01*
X140752141Y-97393358D01*
X140643358Y-97502141D01*
X140632093Y-97519000D01*
X137737624Y-97519000D01*
X137713998Y-97516673D01*
X137619705Y-97525960D01*
X137613307Y-97527901D01*
X137529037Y-97553464D01*
X137445476Y-97598128D01*
X137372234Y-97658236D01*
X137357174Y-97676587D01*
X135014762Y-100019000D01*
X132367907Y-100019000D01*
X132356642Y-100002141D01*
X132247859Y-99893358D01*
X132119942Y-99807887D01*
X131977809Y-99749013D01*
X131826922Y-99719000D01*
X131673078Y-99719000D01*
X131522191Y-99749013D01*
X131380058Y-99807887D01*
X131252141Y-99893358D01*
X131143358Y-100002141D01*
X131057887Y-100130058D01*
X130999013Y-100272191D01*
X130969000Y-100423078D01*
X130438648Y-100423078D01*
X127677000Y-97661431D01*
X127677000Y-95423078D01*
X127719000Y-95423078D01*
X127719000Y-95576922D01*
X127749013Y-95727809D01*
X127807887Y-95869942D01*
X127893358Y-95997859D01*
X128002141Y-96106642D01*
X128130058Y-96192113D01*
X128272191Y-96250987D01*
X128423078Y-96281000D01*
X128576922Y-96281000D01*
X128727809Y-96250987D01*
X128869942Y-96192113D01*
X128997859Y-96106642D01*
X129106642Y-95997859D01*
X129192113Y-95869942D01*
X129250987Y-95727809D01*
X129281000Y-95576922D01*
X129281000Y-95423078D01*
X129277044Y-95403192D01*
X129308851Y-95371385D01*
X129393358Y-95497859D01*
X129502141Y-95606642D01*
X129630058Y-95692113D01*
X129772191Y-95750987D01*
X129923078Y-95781000D01*
X130076922Y-95781000D01*
X130227809Y-95750987D01*
X130369942Y-95692113D01*
X130497859Y-95606642D01*
X130606642Y-95497859D01*
X130617907Y-95481000D01*
X134612749Y-95481000D01*
X134522191Y-95499013D01*
X134380058Y-95557887D01*
X134252141Y-95643358D01*
X134143358Y-95752141D01*
X134057887Y-95880058D01*
X133999013Y-96022191D01*
X133969000Y-96173078D01*
X133969000Y-96326922D01*
X133999013Y-96477809D01*
X134057887Y-96619942D01*
X134143358Y-96747859D01*
X134252141Y-96856642D01*
X134380058Y-96942113D01*
X134522191Y-97000987D01*
X134673078Y-97031000D01*
X134826922Y-97031000D01*
X134977809Y-97000987D01*
X135119942Y-96942113D01*
X135247859Y-96856642D01*
X135356642Y-96747859D01*
X135442113Y-96619942D01*
X135500987Y-96477809D01*
X135531000Y-96326922D01*
X135531000Y-96280999D01*
X140850763Y-96280999D01*
X142472955Y-97903192D01*
X142469000Y-97923078D01*
X142469000Y-98076922D01*
X142499013Y-98227809D01*
X142557887Y-98369942D01*
X142643358Y-98497859D01*
X142752141Y-98606642D01*
X142880058Y-98692113D01*
X143022191Y-98750987D01*
X143173078Y-98781000D01*
X143326922Y-98781000D01*
X143477809Y-98750987D01*
X143619942Y-98692113D01*
X143747859Y-98606642D01*
X143856642Y-98497859D01*
X143942113Y-98369942D01*
X144000987Y-98227809D01*
X144031000Y-98076922D01*
X144031000Y-97923078D01*
X144000987Y-97772191D01*
X143942113Y-97630058D01*
X143856642Y-97502141D01*
X143747859Y-97393358D01*
X143619942Y-97307887D01*
X143477809Y-97249013D01*
X143326922Y-97219000D01*
X143173078Y-97219000D01*
X143153192Y-97222955D01*
X141688952Y-95758716D01*
X141727809Y-95750987D01*
X141869942Y-95692113D01*
X141997859Y-95606642D01*
X142106642Y-95497859D01*
X142192113Y-95369942D01*
X142250000Y-95230192D01*
X142307887Y-95369942D01*
X142393358Y-95497859D01*
X142502141Y-95606642D01*
X142630058Y-95692113D01*
X142772191Y-95750987D01*
X142923078Y-95781000D01*
X143076922Y-95781000D01*
X143227809Y-95750987D01*
X143369942Y-95692113D01*
X143497859Y-95606642D01*
X143606642Y-95497859D01*
X143692113Y-95369942D01*
X143750987Y-95227809D01*
X143781000Y-95076922D01*
X143781000Y-94923078D01*
X143750987Y-94772191D01*
X143692113Y-94630058D01*
X143606642Y-94502141D01*
X143497859Y-94393358D01*
X143369942Y-94307887D01*
X143227809Y-94249013D01*
X143076922Y-94219000D01*
X142923078Y-94219000D01*
X142903192Y-94222956D01*
X142456831Y-93776595D01*
X142441765Y-93758237D01*
X142368523Y-93698129D01*
X142284962Y-93653465D01*
X142194293Y-93625961D01*
X142123627Y-93619001D01*
X142100001Y-93616674D01*
X142076375Y-93619001D01*
X135442485Y-93619001D01*
X135500969Y-93477809D01*
X135530982Y-93326922D01*
X135530982Y-93173078D01*
X135500969Y-93022191D01*
X135442095Y-92880058D01*
X135356624Y-92752141D01*
X135247841Y-92643358D01*
X135119924Y-92557887D01*
X134977791Y-92499013D01*
X134826904Y-92469000D01*
X134673060Y-92469000D01*
X134522173Y-92499013D01*
X134380040Y-92557887D01*
X134252123Y-92643358D01*
X134143340Y-92752141D01*
X134057869Y-92880058D01*
X133998995Y-93022191D01*
X133968982Y-93173078D01*
X133968982Y-93326922D01*
X133998995Y-93477809D01*
X134057479Y-93619001D01*
X129923625Y-93619001D01*
X129899999Y-93616674D01*
X129805706Y-93625961D01*
X129715037Y-93653465D01*
X129670373Y-93677339D01*
X129631477Y-93698129D01*
X129558235Y-93758237D01*
X129543169Y-93776595D01*
X128596808Y-94722956D01*
X128576922Y-94719000D01*
X128423078Y-94719000D01*
X128272191Y-94749013D01*
X128130058Y-94807887D01*
X128002141Y-94893358D01*
X127893358Y-95002141D01*
X127807887Y-95130058D01*
X127749013Y-95272191D01*
X127719000Y-95423078D01*
X127677000Y-95423078D01*
X127677000Y-93045527D01*
X127681484Y-93000000D01*
X127677000Y-92954473D01*
X127677000Y-92954462D01*
X127663587Y-92818276D01*
X127610580Y-92643536D01*
X127597969Y-92619942D01*
X127524501Y-92482494D01*
X127437688Y-92376712D01*
X127437684Y-92376708D01*
X127408659Y-92341341D01*
X127373294Y-92312318D01*
X122859061Y-87798085D01*
X144093993Y-87798085D01*
X144093993Y-87951929D01*
X144124006Y-88102816D01*
X144182880Y-88244949D01*
X144268351Y-88372866D01*
X144377134Y-88481649D01*
X144505051Y-88567120D01*
X144647184Y-88625994D01*
X144798071Y-88656007D01*
X144951915Y-88656007D01*
X145102802Y-88625994D01*
X145244935Y-88567120D01*
X145372852Y-88481649D01*
X145481635Y-88372866D01*
X145567106Y-88244949D01*
X145625980Y-88102816D01*
X145655993Y-87951929D01*
X145655993Y-87798085D01*
X145625980Y-87647198D01*
X145567106Y-87505065D01*
X145481635Y-87377148D01*
X145372852Y-87268365D01*
X145244935Y-87182894D01*
X145102802Y-87124020D01*
X144951915Y-87094007D01*
X144798071Y-87094007D01*
X144647184Y-87124020D01*
X144505051Y-87182894D01*
X144377134Y-87268365D01*
X144268351Y-87377148D01*
X144182880Y-87505065D01*
X144124006Y-87647198D01*
X144093993Y-87798085D01*
X122859061Y-87798085D01*
X120962976Y-85902000D01*
X121765000Y-85902000D01*
X121765000Y-86177000D01*
X121813507Y-86415496D01*
X121907610Y-86639946D01*
X122043693Y-86841725D01*
X122216526Y-87013078D01*
X122419467Y-87147421D01*
X122644718Y-87239591D01*
X122682391Y-87243462D01*
X122873000Y-87118731D01*
X122873000Y-85902000D01*
X121765000Y-85902000D01*
X120962976Y-85902000D01*
X120433976Y-85373000D01*
X121765000Y-85373000D01*
X121765000Y-85648000D01*
X122873000Y-85648000D01*
X122873000Y-84431269D01*
X123127000Y-84431269D01*
X123127000Y-85648000D01*
X123147000Y-85648000D01*
X123147000Y-85902000D01*
X123127000Y-85902000D01*
X123127000Y-87118731D01*
X123317609Y-87243462D01*
X123355282Y-87239591D01*
X123580533Y-87147421D01*
X123783474Y-87013078D01*
X123956307Y-86841725D01*
X123984275Y-86800254D01*
X124001829Y-86833095D01*
X124098775Y-86951225D01*
X124216905Y-87048171D01*
X124351679Y-87120209D01*
X124497917Y-87164570D01*
X124649999Y-87179549D01*
X125350001Y-87179549D01*
X125502083Y-87164570D01*
X125648321Y-87120209D01*
X125783095Y-87048171D01*
X125901225Y-86951225D01*
X125998171Y-86833095D01*
X126070209Y-86698321D01*
X126114570Y-86552083D01*
X126129549Y-86400001D01*
X126129549Y-85902000D01*
X128815000Y-85902000D01*
X128815000Y-86177000D01*
X128863507Y-86415496D01*
X128957610Y-86639946D01*
X129093693Y-86841725D01*
X129266526Y-87013078D01*
X129469467Y-87147421D01*
X129694718Y-87239591D01*
X129732391Y-87243462D01*
X129923000Y-87118731D01*
X129923000Y-85902000D01*
X128815000Y-85902000D01*
X126129549Y-85902000D01*
X126129549Y-85373000D01*
X128815000Y-85373000D01*
X128815000Y-85648000D01*
X129923000Y-85648000D01*
X129923000Y-84431269D01*
X130177000Y-84431269D01*
X130177000Y-85648000D01*
X130197000Y-85648000D01*
X130197000Y-85902000D01*
X130177000Y-85902000D01*
X130177000Y-87118731D01*
X130367609Y-87243462D01*
X130405282Y-87239591D01*
X130630533Y-87147421D01*
X130833474Y-87013078D01*
X131006307Y-86841725D01*
X131034275Y-86800254D01*
X131051829Y-86833095D01*
X131148775Y-86951225D01*
X131266905Y-87048171D01*
X131401679Y-87120209D01*
X131547917Y-87164570D01*
X131699999Y-87179549D01*
X132400001Y-87179549D01*
X132552083Y-87164570D01*
X132698321Y-87120209D01*
X132833095Y-87048171D01*
X132951225Y-86951225D01*
X133048171Y-86833095D01*
X133120209Y-86698321D01*
X133164570Y-86552083D01*
X133179549Y-86400001D01*
X133179549Y-85149999D01*
X133164570Y-84997917D01*
X133120209Y-84851679D01*
X133048171Y-84716905D01*
X132951225Y-84598775D01*
X132833095Y-84501829D01*
X132698321Y-84429791D01*
X132552083Y-84385430D01*
X132400001Y-84370451D01*
X131699999Y-84370451D01*
X131547917Y-84385430D01*
X131401679Y-84429791D01*
X131266905Y-84501829D01*
X131148775Y-84598775D01*
X131051829Y-84716905D01*
X131034275Y-84749746D01*
X131006307Y-84708275D01*
X130833474Y-84536922D01*
X130630533Y-84402579D01*
X130405282Y-84310409D01*
X130367609Y-84306538D01*
X130177000Y-84431269D01*
X129923000Y-84431269D01*
X129732391Y-84306538D01*
X129694718Y-84310409D01*
X129469467Y-84402579D01*
X129266526Y-84536922D01*
X129093693Y-84708275D01*
X128957610Y-84910054D01*
X128863507Y-85134504D01*
X128815000Y-85373000D01*
X126129549Y-85373000D01*
X126129549Y-85149999D01*
X126114570Y-84997917D01*
X126070209Y-84851679D01*
X125998171Y-84716905D01*
X125901225Y-84598775D01*
X125783095Y-84501829D01*
X125648321Y-84429791D01*
X125502083Y-84385430D01*
X125350001Y-84370451D01*
X124649999Y-84370451D01*
X124497917Y-84385430D01*
X124351679Y-84429791D01*
X124216905Y-84501829D01*
X124098775Y-84598775D01*
X124001829Y-84716905D01*
X123984275Y-84749746D01*
X123956307Y-84708275D01*
X123783474Y-84536922D01*
X123580533Y-84402579D01*
X123355282Y-84310409D01*
X123317609Y-84306538D01*
X123127000Y-84431269D01*
X122873000Y-84431269D01*
X122682391Y-84306538D01*
X122644718Y-84310409D01*
X122419467Y-84402579D01*
X122216526Y-84536922D01*
X122043693Y-84708275D01*
X121907610Y-84910054D01*
X121813507Y-85134504D01*
X121765000Y-85373000D01*
X120433976Y-85373000D01*
X119287000Y-84226025D01*
X119287000Y-80091084D01*
X119468424Y-79909660D01*
X119617157Y-79687064D01*
X119617157Y-79900000D01*
X119624513Y-79974689D01*
X119646299Y-80046508D01*
X119681678Y-80112696D01*
X119729289Y-80170711D01*
X119787304Y-80218322D01*
X119853492Y-80253701D01*
X119925311Y-80275487D01*
X120000000Y-80282843D01*
X121800000Y-80282843D01*
X121874689Y-80275487D01*
X121946508Y-80253701D01*
X122012696Y-80218322D01*
X122070711Y-80170711D01*
X122118322Y-80112696D01*
X122153701Y-80046508D01*
X122175487Y-79974689D01*
X122182843Y-79900000D01*
X122182843Y-78873833D01*
X124869000Y-78873833D01*
X124869000Y-79126167D01*
X124918228Y-79373654D01*
X125014793Y-79606781D01*
X125154982Y-79816590D01*
X125333410Y-79995018D01*
X125543219Y-80135207D01*
X125776346Y-80231772D01*
X126023833Y-80281000D01*
X126276167Y-80281000D01*
X126523654Y-80231772D01*
X126756781Y-80135207D01*
X126966590Y-79995018D01*
X127145018Y-79816590D01*
X127285207Y-79606781D01*
X127381772Y-79373654D01*
X127407157Y-79246034D01*
X127407157Y-79900000D01*
X127414513Y-79974689D01*
X127436299Y-80046508D01*
X127471678Y-80112696D01*
X127519289Y-80170711D01*
X127577304Y-80218322D01*
X127643492Y-80253701D01*
X127715311Y-80275487D01*
X127790000Y-80282843D01*
X129590000Y-80282843D01*
X129664689Y-80275487D01*
X129736508Y-80253701D01*
X129802696Y-80218322D01*
X129860711Y-80170711D01*
X129908322Y-80112696D01*
X129943701Y-80046508D01*
X129965487Y-79974689D01*
X129972843Y-79900000D01*
X129972843Y-78859453D01*
X132533000Y-78859453D01*
X132533000Y-79140547D01*
X132587838Y-79416241D01*
X132695409Y-79675938D01*
X132851576Y-79909660D01*
X133050340Y-80108424D01*
X133284062Y-80264591D01*
X133543759Y-80372162D01*
X133819453Y-80427000D01*
X134100547Y-80427000D01*
X134376241Y-80372162D01*
X134635938Y-80264591D01*
X134869660Y-80108424D01*
X135068424Y-79909660D01*
X135217157Y-79687064D01*
X135217157Y-79900000D01*
X135224513Y-79974689D01*
X135246299Y-80046508D01*
X135281678Y-80112696D01*
X135329289Y-80170711D01*
X135387304Y-80218322D01*
X135453492Y-80253701D01*
X135525311Y-80275487D01*
X135600000Y-80282843D01*
X137400000Y-80282843D01*
X137474689Y-80275487D01*
X137546508Y-80253701D01*
X137612696Y-80218322D01*
X137670711Y-80170711D01*
X137718322Y-80112696D01*
X137753701Y-80046508D01*
X137775487Y-79974689D01*
X137782843Y-79900000D01*
X137782843Y-78873833D01*
X140469000Y-78873833D01*
X140469000Y-79126167D01*
X140518228Y-79373654D01*
X140614793Y-79606781D01*
X140754982Y-79816590D01*
X140933410Y-79995018D01*
X141143219Y-80135207D01*
X141376346Y-80231772D01*
X141623833Y-80281000D01*
X141876167Y-80281000D01*
X142123654Y-80231772D01*
X142356781Y-80135207D01*
X142566590Y-79995018D01*
X142745018Y-79816590D01*
X142885207Y-79606781D01*
X142981772Y-79373654D01*
X143007157Y-79246034D01*
X143007157Y-79900000D01*
X143014513Y-79974689D01*
X143036299Y-80046508D01*
X143071678Y-80112696D01*
X143119289Y-80170711D01*
X143177304Y-80218322D01*
X143243492Y-80253701D01*
X143315311Y-80275487D01*
X143390000Y-80282843D01*
X145190000Y-80282843D01*
X145264689Y-80275487D01*
X145336508Y-80253701D01*
X145402696Y-80218322D01*
X145460711Y-80170711D01*
X145508322Y-80112696D01*
X145543701Y-80046508D01*
X145565487Y-79974689D01*
X145572843Y-79900000D01*
X145572843Y-78859453D01*
X147933000Y-78859453D01*
X147933000Y-79140547D01*
X147987838Y-79416241D01*
X148095409Y-79675938D01*
X148251576Y-79909660D01*
X148450340Y-80108424D01*
X148684062Y-80264591D01*
X148943759Y-80372162D01*
X149219453Y-80427000D01*
X149500547Y-80427000D01*
X149776241Y-80372162D01*
X150035938Y-80264591D01*
X150269660Y-80108424D01*
X150468424Y-79909660D01*
X150617157Y-79687064D01*
X150617157Y-79900000D01*
X150624513Y-79974689D01*
X150646299Y-80046508D01*
X150681678Y-80112696D01*
X150729289Y-80170711D01*
X150787304Y-80218322D01*
X150853492Y-80253701D01*
X150925311Y-80275487D01*
X151000000Y-80282843D01*
X152800000Y-80282843D01*
X152874689Y-80275487D01*
X152946508Y-80253701D01*
X153012696Y-80218322D01*
X153070711Y-80170711D01*
X153118322Y-80112696D01*
X153153701Y-80046508D01*
X153175487Y-79974689D01*
X153182843Y-79900000D01*
X153182843Y-78873833D01*
X155879000Y-78873833D01*
X155879000Y-79126167D01*
X155928228Y-79373654D01*
X156024793Y-79606781D01*
X156164982Y-79816590D01*
X156343410Y-79995018D01*
X156553219Y-80135207D01*
X156786346Y-80231772D01*
X157033833Y-80281000D01*
X157286167Y-80281000D01*
X157533654Y-80231772D01*
X157766781Y-80135207D01*
X157976590Y-79995018D01*
X158155018Y-79816590D01*
X158295207Y-79606781D01*
X158391772Y-79373654D01*
X158417157Y-79246034D01*
X158417157Y-79900000D01*
X158424513Y-79974689D01*
X158446299Y-80046508D01*
X158481678Y-80112696D01*
X158529289Y-80170711D01*
X158587304Y-80218322D01*
X158653492Y-80253701D01*
X158725311Y-80275487D01*
X158800000Y-80282843D01*
X160600000Y-80282843D01*
X160674689Y-80275487D01*
X160746508Y-80253701D01*
X160812696Y-80218322D01*
X160870711Y-80170711D01*
X160918322Y-80112696D01*
X160953701Y-80046508D01*
X160975487Y-79974689D01*
X160982843Y-79900000D01*
X160982843Y-78100000D01*
X160975487Y-78025311D01*
X160953701Y-77953492D01*
X160918322Y-77887304D01*
X160870711Y-77829289D01*
X160812696Y-77781678D01*
X160746508Y-77746299D01*
X160674689Y-77724513D01*
X160600000Y-77717157D01*
X158800000Y-77717157D01*
X158725311Y-77724513D01*
X158653492Y-77746299D01*
X158587304Y-77781678D01*
X158529289Y-77829289D01*
X158481678Y-77887304D01*
X158446299Y-77953492D01*
X158424513Y-78025311D01*
X158417157Y-78100000D01*
X158417157Y-78753966D01*
X158391772Y-78626346D01*
X158295207Y-78393219D01*
X158155018Y-78183410D01*
X157976590Y-78004982D01*
X157766781Y-77864793D01*
X157533654Y-77768228D01*
X157286167Y-77719000D01*
X157033833Y-77719000D01*
X156786346Y-77768228D01*
X156553219Y-77864793D01*
X156343410Y-78004982D01*
X156164982Y-78183410D01*
X156024793Y-78393219D01*
X155928228Y-78626346D01*
X155879000Y-78873833D01*
X153182843Y-78873833D01*
X153182843Y-78100000D01*
X153175487Y-78025311D01*
X153153701Y-77953492D01*
X153118322Y-77887304D01*
X153070711Y-77829289D01*
X153012696Y-77781678D01*
X152946508Y-77746299D01*
X152874689Y-77724513D01*
X152800000Y-77717157D01*
X151000000Y-77717157D01*
X150925311Y-77724513D01*
X150853492Y-77746299D01*
X150787304Y-77781678D01*
X150729289Y-77829289D01*
X150681678Y-77887304D01*
X150646299Y-77953492D01*
X150624513Y-78025311D01*
X150617157Y-78100000D01*
X150617157Y-78312936D01*
X150468424Y-78090340D01*
X150269660Y-77891576D01*
X150035938Y-77735409D01*
X149776241Y-77627838D01*
X149500547Y-77573000D01*
X149219453Y-77573000D01*
X148943759Y-77627838D01*
X148684062Y-77735409D01*
X148450340Y-77891576D01*
X148251576Y-78090340D01*
X148095409Y-78324062D01*
X147987838Y-78583759D01*
X147933000Y-78859453D01*
X145572843Y-78859453D01*
X145572843Y-78100000D01*
X145565487Y-78025311D01*
X145543701Y-77953492D01*
X145508322Y-77887304D01*
X145460711Y-77829289D01*
X145402696Y-77781678D01*
X145336508Y-77746299D01*
X145264689Y-77724513D01*
X145190000Y-77717157D01*
X143390000Y-77717157D01*
X143315311Y-77724513D01*
X143243492Y-77746299D01*
X143177304Y-77781678D01*
X143119289Y-77829289D01*
X143071678Y-77887304D01*
X143036299Y-77953492D01*
X143014513Y-78025311D01*
X143007157Y-78100000D01*
X143007157Y-78753966D01*
X142981772Y-78626346D01*
X142885207Y-78393219D01*
X142745018Y-78183410D01*
X142566590Y-78004982D01*
X142356781Y-77864793D01*
X142123654Y-77768228D01*
X141876167Y-77719000D01*
X141623833Y-77719000D01*
X141376346Y-77768228D01*
X141143219Y-77864793D01*
X140933410Y-78004982D01*
X140754982Y-78183410D01*
X140614793Y-78393219D01*
X140518228Y-78626346D01*
X140469000Y-78873833D01*
X137782843Y-78873833D01*
X137782843Y-78100000D01*
X137775487Y-78025311D01*
X137753701Y-77953492D01*
X137718322Y-77887304D01*
X137670711Y-77829289D01*
X137612696Y-77781678D01*
X137546508Y-77746299D01*
X137474689Y-77724513D01*
X137400000Y-77717157D01*
X135600000Y-77717157D01*
X135525311Y-77724513D01*
X135453492Y-77746299D01*
X135387304Y-77781678D01*
X135329289Y-77829289D01*
X135281678Y-77887304D01*
X135246299Y-77953492D01*
X135224513Y-78025311D01*
X135217157Y-78100000D01*
X135217157Y-78312936D01*
X135068424Y-78090340D01*
X134869660Y-77891576D01*
X134635938Y-77735409D01*
X134376241Y-77627838D01*
X134100547Y-77573000D01*
X133819453Y-77573000D01*
X133543759Y-77627838D01*
X133284062Y-77735409D01*
X133050340Y-77891576D01*
X132851576Y-78090340D01*
X132695409Y-78324062D01*
X132587838Y-78583759D01*
X132533000Y-78859453D01*
X129972843Y-78859453D01*
X129972843Y-78100000D01*
X129965487Y-78025311D01*
X129943701Y-77953492D01*
X129908322Y-77887304D01*
X129860711Y-77829289D01*
X129802696Y-77781678D01*
X129736508Y-77746299D01*
X129664689Y-77724513D01*
X129590000Y-77717157D01*
X127790000Y-77717157D01*
X127715311Y-77724513D01*
X127643492Y-77746299D01*
X127577304Y-77781678D01*
X127519289Y-77829289D01*
X127471678Y-77887304D01*
X127436299Y-77953492D01*
X127414513Y-78025311D01*
X127407157Y-78100000D01*
X127407157Y-78753966D01*
X127381772Y-78626346D01*
X127285207Y-78393219D01*
X127145018Y-78183410D01*
X126966590Y-78004982D01*
X126756781Y-77864793D01*
X126523654Y-77768228D01*
X126276167Y-77719000D01*
X126023833Y-77719000D01*
X125776346Y-77768228D01*
X125543219Y-77864793D01*
X125333410Y-78004982D01*
X125154982Y-78183410D01*
X125014793Y-78393219D01*
X124918228Y-78626346D01*
X124869000Y-78873833D01*
X122182843Y-78873833D01*
X122182843Y-78100000D01*
X122175487Y-78025311D01*
X122153701Y-77953492D01*
X122118322Y-77887304D01*
X122070711Y-77829289D01*
X122012696Y-77781678D01*
X121946508Y-77746299D01*
X121874689Y-77724513D01*
X121800000Y-77717157D01*
X120000000Y-77717157D01*
X119925311Y-77724513D01*
X119853492Y-77746299D01*
X119787304Y-77781678D01*
X119729289Y-77829289D01*
X119681678Y-77887304D01*
X119646299Y-77953492D01*
X119624513Y-78025311D01*
X119617157Y-78100000D01*
X119617157Y-78312936D01*
X119468424Y-78090340D01*
X119269660Y-77891576D01*
X119035938Y-77735409D01*
X118776241Y-77627838D01*
X118500547Y-77573000D01*
X118219453Y-77573000D01*
X117943759Y-77627838D01*
X117684062Y-77735409D01*
X117450340Y-77891576D01*
X117251576Y-78090340D01*
X117095409Y-78324062D01*
X116987838Y-78583759D01*
X116933000Y-78859453D01*
X115631000Y-78859453D01*
X115631000Y-75631000D01*
X162369000Y-75631000D01*
X162369001Y-84968992D01*
%TD*%
M02*
