M48
; DRILL file {KiCad (5.1.6)-1} date 12/26/20 20:28:01
; FORMAT={-:-/ absolute / metric / decimal}
; #@! TF.CreationDate,2020-12-26T20:28:01+01:00
; #@! TF.GenerationSoftware,Kicad,Pcbnew,(5.1.6)-1
; #@! TF.FileFunction,Plated,1,4,PTH
FMAT,2
METRIC
T1C0.450
T2C0.750
T3C0.762
T4C0.800
T5C0.900
T6C1.062
%
G90
G05
T1
X116.0Y-122.5
X116.15Y-118.6
X116.25Y-107.45
X116.75Y-94.25
X116.75Y-99.25
X121.75Y-92.25
X123.0Y-87.5
X124.5Y-117.5
X126.5Y-109.5
X127.575Y-102.825
X127.75Y-110.0
X127.75Y-112.0
X128.5Y-95.5
X129.25Y-111.0
X130.0Y-87.5
X130.0Y-95.0
X130.0Y-112.0
X130.45Y-119.95
X131.5Y-122.5
X131.75Y-100.5
X132.825Y-102.825
X133.5Y-108.2
X133.5Y-116.5
X133.5Y-106.6
X134.75Y-93.25
X134.75Y-96.25
X134.75Y-97.75
X135.5Y-116.75
X136.0Y-100.75
X137.45Y-104.05
X137.5Y-105.3
X138.0Y-81.25
X138.375Y-90.625
X138.5Y-96.5
X138.987Y-100.762
X139.0Y-88.25
X140.0Y-99.75
X140.55Y-119.95
X141.25Y-98.0
X141.5Y-95.0
X141.595Y-89.601
X142.2Y-100.069
X142.75Y-104.5
X143.0Y-95.0
X143.25Y-98.0
X143.75Y-85.25
X143.75Y-87.25
X144.45Y-122.45
X144.875Y-87.875
X145.5Y-112.75
X146.125Y-111.0
X146.5Y-112.0
X146.75Y-108.25
X147.5Y-102.0
X147.75Y-111.0
X148.375Y-96.375
X148.375Y-94.625
X148.625Y-100.125
X150.175Y-87.175
X150.375Y-100.125
X151.5Y-116.75
X153.3Y-119.95
X154.175Y-87.25
X157.25Y-91.75
X157.25Y-105.5
X157.45Y-122.45
X157.75Y-98.0
X159.1Y-90.9
X160.0Y-105.5
X161.5Y-100.25
X162.0Y-92.5
X162.0Y-96.5
X162.75Y-97.75
T2
X146.175Y-85.75
X148.175Y-85.75
X150.175Y-85.75
X152.175Y-85.75
X154.175Y-85.75
X123.0Y-85.775
X125.0Y-85.775
X149.5Y-115.0
X151.5Y-115.0
X153.5Y-115.0
X155.5Y-115.0
X130.05Y-85.775
X132.05Y-85.775
X162.75Y-99.2
X162.75Y-100.47
X162.75Y-101.74
X131.5Y-115.0
X133.5Y-115.0
X135.5Y-115.0
X137.5Y-115.0
X139.5Y-115.0
X141.5Y-115.0
X143.5Y-115.0
X115.25Y-99.16
X115.25Y-100.43
X115.25Y-101.7
T3
X130.3Y-122.45
X134.8Y-122.45
X143.2Y-122.45
X147.7Y-122.45
X117.4Y-122.45
X121.9Y-122.45
X156.1Y-122.45
X160.6Y-122.45
T4
X159.1Y-92.3
X159.1Y-94.84
X118.25Y-92.25
X118.25Y-94.25
X118.25Y-96.25
X118.25Y-98.25
X118.25Y-100.25
X120.25Y-92.25
X120.25Y-94.25
X120.25Y-96.25
X120.25Y-98.25
X120.25Y-100.25
T5
X118.36Y-79.0
X120.9Y-79.0
X141.75Y-79.0
X144.29Y-79.0
X157.16Y-79.0
X159.7Y-79.0
X126.15Y-79.0
X128.69Y-79.0
X133.96Y-79.0
X136.5Y-79.0
X149.36Y-79.0
X151.9Y-79.0
T6
X141.95Y-119.95
X148.95Y-119.95
X154.85Y-119.95
X161.85Y-119.95
X129.05Y-119.95
X136.05Y-119.95
X116.15Y-119.95
X123.15Y-119.95
T0
M30
