<?xml version="1.0" standalone="no"?>
 <!DOCTYPE svg PUBLIC "-//W3C//DTD SVG 1.1//EN" 
 "http://www.w3.org/Graphics/SVG/1.1/DTD/svg11.dtd"> 
<svg xmlns="http://www.w3.org/2000/svg" version="1.1" 
    width="29.7002cm" height="21.0007cm" viewBox="0 0 116930 82680 ">
<title>SVG Picture created as DG3-MTR_GUI-PI-B.Fab.svg date 2019/06/11 13:43:18 </title>
  <desc>Picture generated by PCBNEW </desc>
<g style="fill:#000000; fill-opacity:1;stroke:#000000; stroke-opacity:1;
stroke-linecap:round; stroke-linejoin:round; "
 transform="translate(0 0) scale(1 1)">
</g>
<g style="fill:#000000; fill-opacity:0.0; 
stroke:#000000; stroke-width:-0.000393701; stroke-opacity:1; 
stroke-linecap:round; stroke-linejoin:round;">
</g>
<g style="fill:#000000; fill-opacity:0.0; 
stroke:#000000; stroke-width:393.701; stroke-opacity:1; 
stroke-linecap:round; stroke-linejoin:round;">
<path d="M82086 49409
L50984 49409
" />
<path d="M82086 27362
L50984 27362
" />
<path d="M49803.1 48228.3 A1181.1 1181.1 0.0 0 0 50984.3 49409.4 " />
<path d="M49803 48228
L49803 28543
" />
<path d="M50984.3 27362.2 A1181.1 1181.1 0.0 0 0 49803.1 28543.3 " />
<path d="M83267.7 28543.3 A1181.1 1181.1 0.0 0 0 82086.6 27362.2 " />
<path d="M82086.6 49409.4 A1181.1 1181.1 0.0 0 0 83267.7 48228.3 " />
<path d="M83267 28543
L83267 48228
" />
</g>
<g style="fill:#000000; fill-opacity:0.0; 
stroke:#000000; stroke-width:39.3701; stroke-opacity:1; 
stroke-linecap:round; stroke-linejoin:round;">
<path d="M66929 38971
L74016 38971
" />
<path d="M74016 38971
L74016 40939
" />
<path d="M74016 40939
L74606 40939
" />
<path d="M74606 40939
L74606 41530
" />
<path d="M74606 41530
L66339 41530
" />
<path d="M66339 41530
L66339 40939
" />
<path d="M66339 40939
L66929 40939
" />
<path d="M66929 40939
L66929 38971
" />
<path d="M80572 47057
L60372 47057
" />
<path d="M80572 47057
L80572 49005
" />
<path d="M60372 47057
L60372 49005
" />
<path d="M80572 49005
L60372 49005
" />
<path d="M81268 41325
L80638 41325
" />
<path d="M80638 41325
L80638 41640
" />
<path d="M80638 41640
L81268 41640
" />
<path d="M81268 41640
L81268 41325
" />
<path d="M80992 38391
L80992 38588
" />
<path d="M81386 38391
L80992 38391
" />
<path d="M81386 38588
L81386 38391
" />
<path d="M80992 38588
L81386 38588
" />
<path d="M67283 36988
L66968 36988
" />
<path d="M67283 37618
L67283 36988
" />
<path d="M66968 37618
L67283 37618
" />
<path d="M66968 36988
L66968 37618
" />
<path d="M80264 38214
L80264 37899
" />
<path d="M79634 38214
L80264 38214
" />
<path d="M79634 37899
L79634 38214
" />
<path d="M80264 37899
L79634 37899
" />
<path d="M66023 37598
L66653 37598
" />
<path d="M66023 36338
L66023 37598
" />
<path d="M66653 36338
L66023 36338
" />
<path d="M66653 37598
L66653 36338
" />
<path d="M67913 37618
L67913 36988
" />
<path d="M67913 36988
L67598 36988
" />
<path d="M67598 36988
L67598 37618
" />
<path d="M67598 37618
L67913 37618
" />
<path d="M68220 37559
L68708 37559
" />
<path d="M68220 36771
L68220 37559
" />
<path d="M68708 36771
L68220 36771
" />
<path d="M68708 37559
L68708 36771
" />
<path d="M72783 38188
L72783 37401
" />
<path d="M72783 37401
L72295 37401
" />
<path d="M72295 37401
L72295 38188
" />
<path d="M72295 38188
L72783 38188
" />
<path d="M73070 37440
L73070 38070
" />
<path d="M73070 38070
L73385 38070
" />
<path d="M73385 38070
L73385 37440
" />
<path d="M73385 37440
L73070 37440
" />
<path d="M73661 38070
L73976 38070
" />
<path d="M73661 37440
L73661 38070
" />
<path d="M73976 37440
L73661 37440
" />
<path d="M73976 38070
L73976 37440
" />
<path d="M79496 38844
L79299 38844
" />
<path d="M79496 39002
L79732 38844
" />
<path d="M79496 38687
L79496 39002
" />
<path d="M79732 38844
L79496 38687
" />
<path d="M79732 38844
L79732 39061
" />
<path d="M79732 38844
L79732 38628
" />
<path d="M79890 38844
L79732 38844
" />
<path d="M80146 39179
L80146 38510
" />
<path d="M79043 39179
L80146 39179
" />
<path d="M79043 38510
L79043 39179
" />
<path d="M80146 38510
L79043 38510
" />
<path d="M69685 37283
L69685 37224
" />
<path d="M69763 37283
L69685 37401
" />
<path d="M69606 37283
L69763 37283
" />
<path d="M69685 37401
L69606 37283
" />
<path d="M69685 37401
L69685 37460
" />
<path d="M69606 37401
L69763 37401
" />
<path d="M69862 37066
L69507 37066
" />
<path d="M69862 37578
L69862 37066
" />
<path d="M69507 37578
L69862 37578
" />
<path d="M69507 37066
L69507 37578
" />
<path d="M70531 37618
L70531 37106
" />
<path d="M70531 37106
L70177 37106
" />
<path d="M70177 37106
L70177 37618
" />
<path d="M70177 37618
L70531 37618
" />
<path d="M70433 37283
L70275 37283
" />
<path d="M70354 37283
L70354 37224
" />
<path d="M70354 37283
L70433 37401
" />
<path d="M70433 37401
L70275 37401
" />
<path d="M70275 37401
L70354 37283
" />
<path d="M70354 37401
L70354 37460
" />
<path d="M78433 39789
L78709 39514
" />
<path d="M78709 41049
L78433 40773
" />
<path d="M79968 40773
L79693 41049
" />
<path d="M79968 39789
L79693 39514
" />
<path d="M78709 41049
L79693 41049
" />
<path d="M78433 39789
L78433 40773
" />
<path d="M79693 39514
L78709 39514
" />
<path d="M79968 40773
L79968 39789
" />
</g>
<g style="fill:#000000; fill-opacity:0.0; 
stroke:#000000; stroke-width:196.85; stroke-opacity:1; 
stroke-linecap:round; stroke-linejoin:round;">
<path d="M79594 40970
L78807 40970
" />
</g>
<g style="fill:#000000; fill-opacity:0.0; 
stroke:#000000; stroke-width:39.3701; stroke-opacity:1; 
stroke-linecap:round; stroke-linejoin:round;">
<path d="M81031 38037
L81425 38037
" />
<path d="M81425 38037
L81425 37840
" />
<path d="M81425 37840
L81031 37840
" />
<path d="M81031 37840
L81031 38037
" />
<path d="M81425 39218
L81425 39021
" />
<path d="M81031 39218
L81425 39218
" />
<path d="M81031 39021
L81031 39218
" />
<path d="M81425 39021
L81031 39021
" />
<path d="M68996 37736
L69192 37736
" />
<path d="M68996 37342
L68996 37736
" />
<path d="M69192 37342
L68996 37342
" />
<path d="M69192 37736
L69192 37342
" />
<path d="M71653 37972
L71653 38366
" />
<path d="M71653 38366
L71850 38366
" />
<path d="M71850 38366
L71850 37972
" />
<path d="M71850 37972
L71653 37972
" />
<path d="M80677 39947
L80421 40203
" />
<path d="M80421 40655
L80421 40203
" />
<path d="M80677 39947
L81642 39947
" />
<path d="M81642 40655
L81642 39947
" />
<path d="M80421 40655
L81642 40655
" />
<path d="M79979 35928
L80609 35928
" />
<path d="M79979 34747
L79979 35928
" />
<path d="M80609 34747
L79979 34747
" />
<path d="M80609 35928
L80609 34747
" />
<path d="M80300 35149
L80300 34913
" />
<path d="M80536 35542
L80064 35542
" />
<path d="M80300 35542
L80536 35149
" />
<path d="M80536 35149
L80064 35149
" />
<path d="M80064 35149
L80300 35542
" />
<path d="M80300 35542
L80300 35779
" />
<path d="M59251 36889
L59448 36889
" />
<path d="M59251 36496
L59251 36889
" />
<path d="M59448 36496
L59251 36496
" />
<path d="M59448 36889
L59448 36496
" />
<path d="M54330 36889
L54330 36496
" />
<path d="M54330 36496
L54133 36496
" />
<path d="M54133 36496
L54133 36889
" />
<path d="M54133 36889
L54330 36889
" />
<path d="M56692 39842
L56889 39842
" />
<path d="M56692 39448
L56692 39842
" />
<path d="M56889 39448
L56692 39448
" />
<path d="M56889 39842
L56889 39448
" />
<path d="M80392 33681
L80195 33681
" />
<path d="M80392 34074
L80392 33681
" />
<path d="M80195 34074
L80392 34074
" />
<path d="M80195 33681
L80195 34074
" />
<path d="M78189 35429
L79154 35429
" />
<path d="M77965 35646
L77965 35980
" />
<path d="M78189 35429
L77965 35646
" />
<path d="M77965 35980
L79162 35980
" />
<path d="M79162 35429
L79162 35980
" />
<path d="M78760 34819
L78760 34622
" />
<path d="M78367 34819
L78760 34819
" />
<path d="M78367 34622
L78367 34819
" />
<path d="M78760 34622
L78367 34622
" />
<path d="M56692 33937
L56889 33937
" />
<path d="M56692 33543
L56692 33937
" />
<path d="M56889 33543
L56692 33543
" />
<path d="M56889 33937
L56889 33543
" />
</g>
<g style="fill:#000000; fill-opacity:0.0; 
stroke:#000000; stroke-width:50; stroke-opacity:1; 
stroke-linecap:round; stroke-linejoin:round;">
<path d="M70675 40380
L70675 40104
" />
<path d="M70518 40380
L70636 40223
" />
<path d="M70518 40104
L70675 40262
" />
<path d="M70255 40380
L70413 40380
" />
<path d="M70334 40380
L70334 40104
L70360 40144
L70387 40170
L70413 40183
" />
<path d="M70675 48156
L70675 47880
" />
<path d="M70518 48156
L70636 47998
" />
<path d="M70518 47880
L70675 48038
" />
<path d="M70282 47880
L70334 47880
L70360 47893
L70374 47906
L70400 47946
L70413 47998
L70413 48103
L70400 48129
L70387 48143
L70360 48156
L70308 48156
L70282 48143
L70269 48129
L70255 48103
L70255 48038
L70269 48011
L70282 47998
L70308 47985
L70360 47985
L70387 47998
L70400 48011
L70413 48038
" />
<path d="M82014 41594
L82027 41607
L82066 41620
L82093 41620
L82132 41607
L82158 41581
L82171 41555
L82185 41502
L82185 41463
L82171 41410
L82158 41384
L82132 41358
L82093 41345
L82066 41345
L82027 41358
L82014 41371
" />
<path d="M81751 41620
L81909 41620
" />
<path d="M81830 41620
L81830 41345
L81856 41384
L81883 41410
L81909 41423
" />
<path d="M82014 38562
L82027 38576
L82066 38589
L82093 38589
L82132 38576
L82158 38549
L82171 38523
L82185 38471
L82185 38431
L82171 38379
L82158 38353
L82132 38326
L82093 38313
L82066 38313
L82027 38326
L82014 38339
" />
<path d="M81909 38339
L81896 38326
L81870 38313
L81804 38313
L81778 38326
L81765 38339
L81751 38366
L81751 38392
L81765 38431
L81922 38589
L81751 38589
" />
<path d="M67224 36154
L67237 36141
L67250 36102
L67250 36076
L67237 36036
L67211 36010
L67185 35997
L67132 35984
L67093 35984
L67040 35997
L67014 36010
L66988 36036
L66975 36076
L66975 36102
L66988 36141
L67001 36154
" />
<path d="M66975 36246
L66975 36417
L67080 36325
L67080 36364
L67093 36391
L67106 36404
L67132 36417
L67198 36417
L67224 36404
L67237 36391
L67250 36364
L67250 36286
L67237 36259
L67224 36246
" />
<path d="M79995 37565
L80008 37578
L80047 37591
L80073 37591
L80113 37578
L80139 37552
L80152 37525
L80165 37473
L80165 37433
L80152 37381
L80139 37355
L80113 37328
L80073 37315
L80047 37315
L80008 37328
L79995 37342
" />
<path d="M79758 37407
L79758 37591
" />
<path d="M79824 37302
L79890 37499
L79719 37499
" />
<path d="M66437 35505
L66450 35492
L66463 35452
L66463 35426
L66450 35387
L66423 35360
L66397 35347
L66345 35334
L66305 35334
L66253 35347
L66227 35360
L66200 35387
L66187 35426
L66187 35452
L66200 35492
L66213 35505
" />
<path d="M66187 35754
L66187 35623
L66318 35610
L66305 35623
L66292 35649
L66292 35715
L66305 35741
L66318 35754
L66345 35767
L66410 35767
L66437 35754
L66450 35741
L66463 35715
L66463 35649
L66450 35623
L66437 35610
" />
<path d="M67854 36154
L67867 36141
L67880 36102
L67880 36076
L67867 36036
L67841 36010
L67814 35997
L67762 35984
L67723 35984
L67670 35997
L67644 36010
L67618 36036
L67604 36076
L67604 36102
L67618 36141
L67631 36154
" />
<path d="M67604 36391
L67604 36338
L67618 36312
L67631 36299
L67670 36272
L67723 36259
L67828 36259
L67854 36272
L67867 36286
L67880 36312
L67880 36364
L67867 36391
L67854 36404
L67828 36417
L67762 36417
L67736 36404
L67723 36391
L67709 36364
L67709 36312
L67723 36286
L67736 36272
L67762 36259
" />
<path d="M68562 35879
L68576 35866
L68589 35826
L68589 35800
L68576 35761
L68549 35734
L68523 35721
L68471 35708
L68431 35708
L68379 35721
L68353 35734
L68326 35761
L68313 35800
L68313 35826
L68326 35866
L68339 35879
" />
<path d="M68313 35971
L68313 36154
L68589 36036
" />
<path d="M72637 36528
L72650 36515
L72664 36476
L72664 36450
L72650 36410
L72624 36384
L72598 36371
L72545 36358
L72506 36358
L72454 36371
L72427 36384
L72401 36410
L72388 36450
L72388 36476
L72401 36515
L72414 36528
" />
<path d="M72506 36686
L72493 36660
L72480 36646
L72454 36633
L72440 36633
L72414 36646
L72401 36660
L72388 36686
L72388 36738
L72401 36765
L72414 36778
L72440 36791
L72454 36791
L72480 36778
L72493 36765
L72506 36738
L72506 36686
L72519 36660
L72532 36646
L72559 36633
L72611 36633
L72637 36646
L72650 36660
L72664 36686
L72664 36738
L72650 36765
L72637 36778
L72611 36791
L72559 36791
L72532 36778
L72519 36765
L72506 36738
" />
<path d="M73326 36568
L73339 36555
L73353 36515
L73353 36489
L73339 36450
L73313 36423
L73287 36410
L73234 36397
L73195 36397
L73143 36410
L73116 36423
L73090 36450
L73077 36489
L73077 36515
L73090 36555
L73103 36568
" />
<path d="M73353 36699
L73353 36751
L73339 36778
L73326 36791
L73287 36817
L73234 36830
L73129 36830
L73103 36817
L73090 36804
L73077 36778
L73077 36725
L73090 36699
L73103 36686
L73129 36673
L73195 36673
L73221 36686
L73234 36699
L73248 36725
L73248 36778
L73234 36804
L73221 36817
L73195 36830
" />
<path d="M73917 36338
L73930 36325
L73943 36286
L73943 36259
L73930 36220
L73904 36194
L73877 36181
L73825 36167
L73786 36167
L73733 36181
L73707 36194
L73681 36220
L73667 36259
L73667 36286
L73681 36325
L73694 36338
" />
<path d="M73943 36601
L73943 36443
" />
<path d="M73943 36522
L73667 36522
L73707 36496
L73733 36469
L73746 36443
" />
<path d="M73667 36771
L73667 36797
L73681 36824
L73694 36837
L73720 36850
L73772 36863
L73838 36863
L73891 36850
L73917 36837
L73930 36824
L73943 36797
L73943 36771
L73930 36745
L73917 36732
L73891 36719
L73838 36706
L73772 36706
L73720 36719
L73694 36732
L73681 36745
L73667 36771
" />
<path d="M78471 38963
L78471 38687
L78405 38687
L78366 38700
L78339 38727
L78326 38753
L78313 38805
L78313 38845
L78326 38897
L78339 38923
L78366 38950
L78405 38963
L78471 38963
" />
<path d="M78051 38963
L78208 38963
" />
<path d="M78129 38963
L78129 38687
L78156 38727
L78182 38753
L78208 38766
" />
<path d="M69809 36312
L69534 36312
L69534 36377
L69547 36417
L69573 36443
L69599 36456
L69652 36469
L69691 36469
L69744 36456
L69770 36443
L69796 36417
L69809 36377
L69809 36312
" />
<path d="M69560 36574
L69547 36587
L69534 36614
L69534 36679
L69547 36706
L69560 36719
L69586 36732
L69612 36732
L69652 36719
L69809 36561
L69809 36732
" />
<path d="M70479 35977
L70203 35977
L70203 36043
L70216 36082
L70242 36108
L70269 36122
L70321 36135
L70360 36135
L70413 36122
L70439 36108
L70465 36082
L70479 36043
L70479 35977
" />
<path d="M70203 36227
L70203 36397
L70308 36305
L70308 36345
L70321 36371
L70334 36384
L70360 36397
L70426 36397
L70452 36384
L70465 36371
L70479 36345
L70479 36266
L70465 36240
L70452 36227
" />
<path d="M79238 41601
L79370 41601
L79370 41325
" />
<path d="M79002 41601
L79160 41601
" />
<path d="M79081 41601
L79081 41325
L79107 41364
L79133 41391
L79160 41404
" />
<path d="M81916 38057
L82007 37926
" />
<path d="M82073 38057
L82073 37782
L81968 37782
L81942 37795
L81929 37808
L81916 37834
L81916 37874
L81929 37900
L81942 37913
L81968 37926
L82073 37926
" />
<path d="M81653 38057
L81811 38057
" />
<path d="M81732 38057
L81732 37782
L81758 37821
L81784 37847
L81811 37860
" />
<path d="M82073 39238
L82165 39107
" />
<path d="M82230 39238
L82230 38963
L82125 38963
L82099 38976
L82086 38989
L82073 39015
L82073 39055
L82086 39081
L82099 39094
L82125 39107
L82230 39107
" />
<path d="M81968 38989
L81955 38976
L81929 38963
L81863 38963
L81837 38976
L81824 38989
L81811 39015
L81811 39041
L81824 39081
L81981 39238
L81811 39238
" />
<path d="M69219 36017
L69087 35925
" />
<path d="M69219 35859
L68943 35859
L68943 35964
L68956 35990
L68969 36003
L68996 36017
L69035 36017
L69061 36003
L69074 35990
L69087 35964
L69087 35859
" />
<path d="M68943 36108
L68943 36279
L69048 36187
L69048 36227
L69061 36253
L69074 36266
L69101 36279
L69166 36279
L69192 36266
L69206 36253
L69219 36227
L69219 36148
L69206 36122
L69192 36108
" />
<path d="M71876 37237
L71745 37145
" />
<path d="M71876 37080
L71601 37080
L71601 37185
L71614 37211
L71627 37224
L71653 37237
L71692 37237
L71719 37224
L71732 37211
L71745 37185
L71745 37080
" />
<path d="M71692 37473
L71876 37473
" />
<path d="M71587 37408
L71784 37342
L71784 37513
" />
<path d="M82198 40164
L82198 40387
L82185 40413
L82171 40426
L82145 40439
L82093 40439
L82066 40426
L82053 40413
L82040 40387
L82040 40164
" />
<path d="M81765 40439
L81922 40439
" />
<path d="M81843 40439
L81843 40164
L81870 40203
L81896 40229
L81922 40242
" />
<path d="M79849 35134
L79573 35134
L79573 35200
L79586 35239
L79612 35265
L79639 35278
L79691 35292
L79730 35292
L79783 35278
L79809 35265
L79835 35239
L79849 35200
L79849 35134
" />
<path d="M79665 35528
L79849 35528
" />
<path d="M79560 35462
L79757 35397
L79757 35567
" />
<path d="M60006 36646
L59875 36555
" />
<path d="M60006 36489
L59730 36489
L59730 36594
L59744 36620
L59757 36633
L59783 36646
L59822 36646
L59849 36633
L59862 36620
L59875 36594
L59875 36489
" />
<path d="M59730 36896
L59730 36765
L59862 36751
L59849 36765
L59835 36791
L59835 36856
L59849 36883
L59862 36896
L59888 36909
L59954 36909
L59980 36896
L59993 36883
L60006 36856
L60006 36791
L59993 36765
L59980 36751
" />
<path d="M54888 36646
L54757 36555
" />
<path d="M54888 36489
L54612 36489
L54612 36594
L54625 36620
L54639 36633
L54665 36646
L54704 36646
L54730 36633
L54744 36620
L54757 36594
L54757 36489
" />
<path d="M54612 36883
L54612 36830
L54625 36804
L54639 36791
L54678 36765
L54730 36751
L54835 36751
L54862 36765
L54875 36778
L54888 36804
L54888 36856
L54875 36883
L54862 36896
L54835 36909
L54770 36909
L54744 36896
L54730 36883
L54717 36856
L54717 36804
L54730 36778
L54744 36765
L54770 36751
" />
<path d="M57447 39599
L57316 39507
" />
<path d="M57447 39442
L57171 39442
L57171 39547
L57185 39573
L57198 39586
L57224 39599
L57263 39599
L57290 39586
L57303 39573
L57316 39547
L57316 39442
" />
<path d="M57171 39691
L57171 39875
L57447 39757
" />
<path d="M79887 33832
L79756 33740
" />
<path d="M79887 33674
L79611 33674
L79611 33779
L79624 33805
L79638 33818
L79664 33832
L79703 33832
L79729 33818
L79743 33805
L79756 33779
L79756 33674
" />
<path d="M79729 33989
L79716 33963
L79703 33950
L79677 33937
L79664 33937
L79638 33950
L79624 33963
L79611 33989
L79611 34041
L79624 34068
L79638 34081
L79664 34094
L79677 34094
L79703 34081
L79716 34068
L79729 34041
L79729 33989
L79743 33963
L79756 33950
L79782 33937
L79834 33937
L79861 33950
L79874 33963
L79887 33989
L79887 34041
L79874 34068
L79861 34081
L79834 34094
L79782 34094
L79756 34081
L79743 34068
L79729 34041
" />
<path d="M78569 35856
L78595 35843
L78622 35816
L78661 35777
L78687 35764
L78713 35764
" />
<path d="M78700 35829
L78727 35816
L78753 35790
L78766 35738
L78766 35646
L78753 35593
L78727 35567
L78700 35554
L78648 35554
L78622 35567
L78595 35593
L78582 35646
L78582 35738
L78595 35790
L78622 35816
L78648 35829
L78700 35829
" />
<path d="M78320 35829
L78477 35829
" />
<path d="M78398 35829
L78398 35554
L78425 35593
L78451 35619
L78477 35633
" />
<path d="M78609 34314
L78701 34182
" />
<path d="M78767 34314
L78767 34038
L78662 34038
L78636 34051
L78623 34064
L78609 34091
L78609 34130
L78623 34156
L78636 34169
L78662 34182
L78767 34182
" />
<path d="M78478 34314
L78426 34314
L78399 34301
L78386 34287
L78360 34248
L78347 34196
L78347 34091
L78360 34064
L78373 34051
L78399 34038
L78452 34038
L78478 34051
L78491 34064
L78504 34091
L78504 34156
L78491 34182
L78478 34196
L78452 34209
L78399 34209
L78373 34196
L78360 34182
L78347 34156
" />
<path d="M57447 33562
L57316 33471
" />
<path d="M57447 33405
L57171 33405
L57171 33510
L57185 33536
L57198 33549
L57224 33562
L57263 33562
L57290 33549
L57303 33536
L57316 33510
L57316 33405
" />
<path d="M57447 33825
L57447 33667
" />
<path d="M57447 33746
L57171 33746
L57211 33720
L57237 33694
L57250 33667
" />
<path d="M57171 33996
L57171 34022
L57185 34048
L57198 34061
L57224 34074
L57276 34087
L57342 34087
L57395 34074
L57421 34061
L57434 34048
L57447 34022
L57447 33996
L57434 33969
L57421 33956
L57395 33943
L57342 33930
L57276 33930
L57224 33943
L57198 33956
L57185 33969
L57171 33996
" />
</g> 
</svg>
